# This file uses centimeters as units for non-parametric coordinates.

g default
v -0.042551 0.127464 -0.126275
v -0.013914 0.126132 0.001261
v -0.076850 0.127464 -0.126275
v 0.014390 0.126132 -0.017720
v -0.048878 0.115144 -0.137597
v -0.083176 0.115144 -0.137597
v -0.052541 0.100825 -0.141926
v -0.087505 0.100825 -0.141926
v -0.087505 0.100825 -0.141926
v -0.052541 0.029232 -0.141926
v -0.052541 0.100825 -0.141926
v -0.087505 0.029232 -0.141926
v -0.052541 -0.023048 -0.161572
v -0.087505 -0.023048 -0.161572
v 0.043360 0.127464 -0.126275
v 0.014390 0.127464 0.001261
v -0.013914 0.127464 -0.017720
v 0.077658 0.127464 -0.126275
v 0.049687 0.115144 -0.137597
v 0.084318 0.115144 -0.137597
v 0.053683 0.100825 -0.141926
v 0.087981 0.100825 -0.141926
v 0.087981 0.100825 -0.141926
v 0.053683 0.029232 -0.141926
v 0.087981 0.029232 -0.141926
v 0.053683 0.100825 -0.141926
v 0.053683 -0.023048 -0.161572
v 0.087981 -0.023048 -0.161572
v -0.086173 0.170087 0.076850
v 0.002735 0.140784 0.028566
v -0.048878 0.170087 0.103156
v -0.034227 0.140784 0.002260
v -0.060200 0.163094 0.119140
v -0.097162 0.163094 0.093832
v -0.102490 0.148110 0.100825
v -0.065528 0.148110 0.127131
v -0.100492 0.135123 0.097828
v -0.063530 0.135123 0.124134
v -0.053207 0.120804 0.109483
v -0.090835 0.120804 0.083509
v -0.001594 0.140784 -0.044692
v 0.087315 0.170087 -0.092976
v 0.035036 0.140784 -0.018719
v 0.049687 0.170087 -0.118949
v 0.061342 0.163094 -0.135266
v 0.098637 0.163094 -0.109293
v 0.103299 0.148110 -0.116951
v 0.066004 0.148110 -0.142592
v 0.101634 0.135123 -0.113954
v 0.064339 0.135123 -0.139595
v 0.054349 0.120804 -0.125276
v 0.091311 0.120804 -0.099636
v -0.090835 0.120804 0.083509
v -0.053207 0.120804 0.109483
v 0.007064 0.146778 0.021906
v -0.006588 0.146778 -0.037699
v 0.031040 0.146778 -0.012392
v -0.029898 0.146778 -0.003734
v 0.002735 0.140784 0.028566
v 0.031040 0.146778 -0.012392
v 0.035036 0.140784 -0.018719
v 0.007064 0.146778 0.021906
v 0.035036 0.140784 -0.018719
v -0.006588 0.146778 -0.037699
v -0.001594 0.140784 -0.044692
v 0.031040 0.146778 -0.012392
v -0.001594 0.140784 -0.044692
v -0.029898 0.146778 -0.003734
v -0.034227 0.140784 0.002260
v -0.006588 0.146778 -0.037699
v -0.034227 0.140784 0.002260
v 0.007064 0.146778 0.021906
v 0.002735 0.140784 0.028566
v -0.029898 0.146778 -0.003734
v -0.085840 0.179078 -0.093309
v -0.011916 0.129129 0.010584
v -0.111148 0.179078 -0.056014
v 0.013058 0.129129 -0.026711
v 0.086649 0.179078 0.077516
v 0.111957 0.179078 0.039888
v -0.127464 0.172418 -0.067336
v -0.102157 0.172418 -0.104631
v -0.109816 0.157434 -0.110292
v -0.135456 0.157434 -0.072331
v -0.106819 0.143781 -0.107628
v -0.132126 0.143781 -0.070333
v 0.128606 0.172085 0.051209
v 0.102966 0.172085 0.088837
v -0.117475 0.130128 -0.060676
v -0.092167 0.130128 -0.097971
v 0.092976 0.130128 0.082177
v 0.118616 0.130128 0.044549
v 0.107628 0.143781 0.091834
v 0.132602 0.143781 0.053873
v 0.135599 0.157434 0.055871
v 0.110292 0.157434 0.093832
v 0.128606 0.172085 0.051209
v 0.102966 0.172085 0.088837
v -0.133791 -0.119615 0.117808
v 0.134600 0.068858 0.117808
v 0.134600 -0.119615 0.117808
v -0.133791 0.068858 0.117808
v -0.142782 0.119140 -0.127607
v 0.143591 0.068858 -0.127607
v 0.143591 0.119140 -0.127607
v -0.142782 0.068858 -0.127607
v -0.133791 -0.119615 -0.118616
v 0.134600 -0.119615 0.117808
v 0.134600 -0.119615 -0.118616
v -0.133791 -0.119615 0.117808
v 0.134600 -0.119615 0.117808
v 0.134600 0.068858 -0.118616
v 0.134600 -0.119615 -0.118616
v 0.134600 0.068858 0.117808
v -0.133791 -0.119615 -0.118616
v -0.133791 0.068858 0.117808
v -0.133791 -0.119615 0.117808
v -0.133791 0.068858 -0.118616
v -0.142782 0.068858 0.127464
v 0.143591 0.119140 0.127464
v 0.143591 0.068858 0.127464
v -0.142782 0.119140 0.127464
v -0.133791 0.068858 -0.118616
v 0.134600 -0.119615 -0.118616
v 0.134600 0.068858 -0.118616
v -0.133791 -0.119615 -0.118616
v 0.143591 0.068858 0.127464
v 0.143591 0.119140 -0.127607
v 0.143591 0.068858 -0.127607
v 0.143591 0.119140 0.127464
v -0.142782 0.068858 -0.127607
v -0.142782 0.119140 0.127464
v -0.142782 0.068858 0.127464
v -0.142782 0.119140 -0.127607
v 0.134600 0.068858 -0.118616
v -0.142782 0.068858 -0.127607
v -0.133791 0.068858 -0.118616
v 0.143591 0.068858 -0.127607
v -0.133791 0.068858 0.117808
v 0.143591 0.068858 0.127464
v 0.134600 0.068858 0.117808
v -0.142782 0.068858 0.127464
v 0.134600 0.068858 0.117808
v 0.143591 0.068858 -0.127607
v 0.134600 0.068858 -0.118616
v 0.143591 0.068858 0.127464
v -0.133791 0.068858 -0.118616
v -0.142782 0.068858 0.127464
v -0.133791 0.068858 0.117808
v -0.142782 0.068858 -0.127607
v 0.143591 0.119140 -0.127607
v -0.142782 0.119140 0.127464
v -0.142782 0.119140 -0.127607
v 0.143591 0.119140 0.127464
vt 0.938318 0.996678
vt 0.706804 0.995571
vt 0.938288 0.909364
vt 0.707310 0.908621
vt 0.475997 0.995725
vt 0.476329 0.907878
vt 0.976788 0.996264
vt 0.976760 0.908951
vt 0.995195 0.908202
vt 0.995033 0.996944
vt 0.987494 0.909215
vt 0.987522 0.996527
vt 0.437326 0.907928
vt 0.437526 0.996137
vt 0.953531 0.996082
vt 0.953501 0.908768
vt 0.460785 0.996320
vt 0.460585 0.908111
vt 0.426793 0.995873
vt 0.428023 0.907855
vt 0.421045 0.907800
vt 0.420349 0.996180
vt 0.437326 0.907928
vt 0.437526 0.996137
vt 0.447113 0.993783
vt 0.029372 0.997652
vt 0.401594 0.913461
vt 0.041550 0.908858
vt 0.439661 0.914850
vt 0.485179 0.995170
vt 0.455866 0.918294
vt 0.502268 1.000174
vt 0.316609 0.931951
vt 0.316609 0.931951
vt 0.195502 0.931951
vt 0.195502 0.931951
vt 0.316609 1.000000
vt 0.195502 1.000000
vt 0.057412 0.996378
vt 0.045301 0.907576
vt 0.417902 0.991211
vt 0.463481 0.910918
vt 0.455970 0.989845
vt 0.501991 0.908772
vt 0.472621 0.985631
vt 0.518199 0.905338
vt 0.803344 0.931951
vt 0.684544 0.931951
vt 0.803344 0.931951
vt 0.684544 0.931951
vt 0.684544 1.000000
vt 0.803344 1.000000
vt 0.477064 0.913872
vt 0.642041 0.914169
vt 0.477662 0.996879
vt 0.642985 0.996678
vt 0.441439 0.914200
vt 0.440892 0.995674
vt 0.424917 0.996377
vt 0.423974 0.913867
vt 0.431467 0.996502
vt 0.430524 0.913992
vt 0.463121 0.913774
vt 0.462877 0.996934
vt 0.746192 0.914981
vt 0.911363 0.913937
vt 0.746982 0.996649
vt 0.911117 0.997096
vt 0.947585 0.996616
vt 0.947485 0.913955
vt 0.963762 0.914937
vt 0.963366 0.997254
vt 0.957557 0.914314
vt 0.957162 0.996631
vt 0.925406 0.996697
vt 0.925458 0.914878
vt 0.462877 0.996934
vt 0.463121 0.913774
vt 0.721800 0.915749
vt 0.720560 0.998217
vt 0.645688 0.915977
vt 0.645636 0.997795
vt 0.735398 0.916345
vt 0.721800 0.915749
vt 0.631247 0.915533
vt 0.645688 0.915977
vt 0.736188 0.998013
vt 0.720560 0.998217
vt 0.735398 0.916345
vt 0.721800 0.915749
vt 0.632191 0.998042
vt 0.645636 0.997795
vt 0.736188 0.998013
vt 0.720560 0.998217
vt 0.631247 0.915533
vt 0.645688 0.915977
vt 0.632191 0.998042
vt 0.645636 0.997795
vt 0.732706 0.845777
vt 0.732706 0.075433
vt 0.026553 0.834349
vt 0.026553 0.075433
vt 0.002313 0.858589
vt 0.002313 0.049400
vt 0.756946 0.870017
vt 0.756946 0.049400
vt 0.895517 0.022049
vt 0.766829 0.022530
vt 0.898259 0.883763
vt 0.769570 0.884245
vt 0.766829 0.022530
vt 0.895517 0.022049
vt 0.769570 0.884245
vt 0.898259 0.883763
vt 0.769484 0.865729
vt 0.769570 0.884245
vt 0.766915 0.041045
vt 0.766829 0.022530
vt 0.766915 0.041045
vt 0.766829 0.022530
vt 0.769484 0.865729
vt 0.769570 0.884245
vt 0.766915 0.041045
vt 0.766829 0.022530
vt 0.766915 0.041045
vt 0.766829 0.022530
vt 0.769484 0.865729
vt 0.769570 0.884245
vt 0.769484 0.865729
vt 0.769570 0.884245
vt 0.769679 0.028005
vt 0.894921 0.027998
vt 0.769705 0.878792
vt 0.894947 0.878785
vt 0.769705 0.878792
vt 0.894947 0.878785
vt 0.769679 0.028005
vt 0.894921 0.027998
vt 0.732657 0.065857
vt 0.732657 0.836880
vt 0.028239 0.065857
vt 0.028239 0.836880
vt 0.028239 0.065857
vt 0.028239 0.836880
vt 0.732657 0.065857
vt 0.732657 0.836880
vt 0.744838 0.053828
vt 0.744838 0.852962
vt 0.007953 0.053828
vt 0.007953 0.852962
vt 0.744838 0.852962
vt 0.744838 0.053828
vt 0.007953 0.852962
vt 0.007953 0.053828
vn 0.000000 0.999945 0.010443
vn 0.000000 0.999945 0.010443
vn 0.000000 0.999946 0.010443
vn 0.006087 0.999940 0.009077
vn 0.006087 0.999940 0.009077
vn 0.006087 0.999940 0.009077
vn 0.000000 0.676655 -0.736300
vn 0.000000 0.676655 -0.736300
vn 0.000000 0.676655 -0.736300
vn 0.000000 0.676655 -0.736301
vn 0.000000 0.676655 -0.736301
vn 0.000000 0.676655 -0.736301
vn 0.000000 0.289390 -0.957211
vn 0.000000 0.289390 -0.957211
vn 0.000000 0.289390 -0.957211
vn 0.000000 0.289390 -0.957211
vn 0.000000 0.289390 -0.957211
vn 0.000000 0.289390 -0.957211
vn 0.000000 0.000000 -1.000000
vn 0.000000 0.000000 -1.000000
vn 0.000000 0.000000 -1.000000
vn 0.000000 0.000000 -1.000000
vn 0.000000 0.000000 -1.000000
vn 0.000000 0.000000 -1.000000
vn 0.000000 0.351767 -0.936088
vn 0.000000 0.351767 -0.936088
vn 0.000000 0.351767 -0.936088
vn 0.000000 0.351767 -0.936088
vn 0.000000 0.351767 -0.936088
vn 0.000000 0.351767 -0.936088
vn 0.000000 1.000000 0.000000
vn 0.000000 1.000000 0.000000
vn 0.000000 1.000000 0.000000
vn 0.000000 1.000000 -0.000000
vn 0.000000 1.000000 -0.000000
vn 0.000000 1.000000 -0.000000
vn 0.000000 0.676655 -0.736300
vn 0.000000 0.676655 -0.736300
vn 0.000000 0.676655 -0.736300
vn 0.000000 0.676655 -0.736301
vn 0.000000 0.676655 -0.736301
vn 0.000000 0.676655 -0.736301
vn 0.000000 0.289390 -0.957211
vn 0.000000 0.289390 -0.957211
vn 0.000000 0.289390 -0.957211
vn 0.000000 0.289390 -0.957211
vn 0.000000 0.289390 -0.957211
vn 0.000000 0.289390 -0.957211
vn 0.000000 0.000000 -1.000000
vn 0.000000 0.000000 -1.000000
vn 0.000000 0.000000 -1.000000
vn 0.000000 0.000000 -1.000000
vn 0.000000 0.000000 -1.000000
vn 0.000000 0.000000 -1.000000
vn 0.000000 0.351767 -0.936088
vn 0.000000 0.351767 -0.936088
vn 0.000000 0.351767 -0.936088
vn 0.000000 0.351767 -0.936088
vn 0.000000 0.351767 -0.936088
vn 0.000000 0.351767 -0.936088
vn 0.177196 0.951573 -0.251217
vn 0.177196 0.951573 -0.251217
vn 0.177196 0.951573 -0.251217
vn 0.177922 0.951760 -0.249995
vn 0.177922 0.951760 -0.249995
vn 0.177922 0.951760 -0.249995
vn -0.193798 0.941781 0.274755
vn -0.193798 0.941781 0.274755
vn -0.193798 0.941781 0.274755
vn -0.184654 0.945079 0.269684
vn -0.184654 0.945079 0.269684
vn -0.184654 0.945079 0.269684
vn -0.487441 0.505567 0.711901
vn -0.487441 0.505567 0.711901
vn -0.487441 0.505567 0.711901
vn -0.488236 0.539458 0.686011
vn -0.488236 0.539457 0.686011
vn -0.488236 0.539458 0.686011
vn -0.558771 -0.267145 0.785117
vn -0.558771 -0.267145 0.785117
vn -0.558771 -0.267145 0.785117
vn -0.558771 -0.267146 0.785116
vn -0.558771 -0.267146 0.785116
vn -0.558771 -0.267146 0.785116
vn -0.361936 -0.781269 0.508548
vn -0.361936 -0.781269 0.508548
vn -0.361936 -0.781269 0.508548
vn -0.362590 -0.769814 0.525277
vn -0.362590 -0.769814 0.525276
vn -0.362590 -0.769814 0.525276
vn -0.177620 0.951683 0.250500
vn -0.177620 0.951683 0.250500
vn -0.177620 0.951683 0.250500
vn -0.175441 0.951115 0.254168
vn -0.175441 0.951115 0.254168
vn -0.175441 0.951115 0.254168
vn 0.187082 0.944215 -0.271033
vn 0.187082 0.944215 -0.271033
vn 0.187082 0.944215 -0.271033
vn 0.189805 0.943237 -0.272542
vn 0.189805 0.943237 -0.272542
vn 0.189804 0.943237 -0.272542
vn 0.490652 0.512730 -0.704534
vn 0.490652 0.512730 -0.704534
vn 0.490652 0.512730 -0.704534
vn 0.490253 0.501171 -0.713077
vn 0.490253 0.501171 -0.713077
vn 0.490253 0.501171 -0.713077
vn 0.547934 -0.254164 -0.796975
vn 0.547934 -0.254164 -0.796975
vn 0.547934 -0.254164 -0.796975
vn 0.547935 -0.254166 -0.796974
vn 0.547935 -0.254166 -0.796974
vn 0.547935 -0.254166 -0.796974
vn 0.359269 -0.773212 -0.522559
vn 0.359269 -0.773212 -0.522559
vn 0.359269 -0.773212 -0.522559
vn 0.359115 -0.776551 -0.517692
vn 0.359115 -0.776551 -0.517692
vn 0.359115 -0.776551 -0.517692
vn 0.000000 -1.000000 0.000000
vn 0.000000 -1.000000 0.000000
vn 0.000000 -1.000000 0.000000
vn 0.000000 -1.000000 0.000000
vn 0.000000 -1.000000 0.000000
vn 0.000000 -1.000000 0.000000
vn 0.000000 1.000000 0.000000
vn 0.000000 1.000000 0.000000
vn 0.000000 1.000000 0.000000
vn 0.000000 1.000000 0.000000
vn 0.000000 1.000000 0.000000
vn 0.000000 1.000000 0.000000
vn 0.824897 -0.044872 0.563499
vn 0.824897 -0.044872 0.563499
vn 0.824897 -0.044872 0.563499
vn 0.818781 0.044624 0.572369
vn 0.818781 0.044624 0.572369
vn 0.818781 0.044624 0.572369
vn 0.330914 0.820179 -0.466693
vn 0.330914 0.820179 -0.466693
vn 0.330914 0.820179 -0.466693
vn 0.348981 0.780366 -0.518885
vn 0.348981 0.780366 -0.518885
vn 0.348981 0.780366 -0.518885
vn -0.820940 0.022323 -0.570578
vn -0.820940 0.022323 -0.570578
vn -0.820940 0.022323 -0.570578
vn -0.824211 -0.026778 -0.565650
vn -0.824211 -0.026778 -0.565650
vn -0.824211 -0.026778 -0.565650
vn -0.349465 0.797976 0.491028
vn -0.349465 0.797976 0.491028
vn -0.349465 0.797976 0.491028
vn -0.358976 0.776751 0.517489
vn -0.358976 0.776751 0.517489
vn -0.358976 0.776751 0.517489
vn 0.319098 0.922653 0.216536
vn 0.319098 0.922653 0.216536
vn 0.319098 0.922653 0.216536
vn 0.321056 0.922335 0.214990
vn 0.321056 0.922335 0.214990
vn 0.321056 0.922335 0.214990
vn -0.321264 0.922230 -0.215129
vn -0.321264 0.922230 -0.215129
vn -0.321264 0.922230 -0.215129
vn -0.320614 0.922337 -0.215640
vn -0.320614 0.922337 -0.215640
vn -0.320614 0.922337 -0.215641
vn -0.263109 0.948101 -0.178544
vn -0.263109 0.948101 -0.178544
vn -0.263109 0.948101 -0.178544
vn -0.263102 0.948105 -0.178531
vn -0.263102 0.948105 -0.178531
vn -0.263102 0.948105 -0.178531
vn -0.698512 0.536114 -0.473986
vn -0.698512 0.536114 -0.473986
vn -0.698512 0.536114 -0.473986
vn -0.701592 0.532176 -0.473875
vn -0.701592 0.532176 -0.473875
vn -0.701592 0.532176 -0.473875
vn -0.795653 -0.279516 -0.537408
vn -0.795653 -0.279516 -0.537408
vn -0.795653 -0.279516 -0.537408
vn -0.796002 -0.273189 -0.540137
vn -0.796002 -0.273189 -0.540137
vn -0.796002 -0.273189 -0.540137
vn 0.272257 0.944640 0.183116
vn 0.272257 0.944640 0.183116
vn 0.272257 0.944640 0.183116
vn 0.274477 0.943230 0.187030
vn 0.274477 0.943230 0.187030
vn 0.274476 0.943230 0.187030
vn -0.508169 -0.789215 -0.344825
vn -0.508169 -0.789215 -0.344825
vn -0.508169 -0.789215 -0.344825
vn -0.508148 -0.789229 -0.344824
vn -0.508148 -0.789229 -0.344824
vn -0.508148 -0.789229 -0.344824
vn 0.000000 -1.000000 0.000000
vn 0.000000 -1.000000 0.000000
vn 0.000000 -1.000000 0.000000
vn 0.000000 -1.000000 -0.000000
vn 0.000000 -1.000000 -0.000000
vn 0.000000 -1.000000 -0.000000
vn 0.507491 -0.789221 0.345808
vn 0.507491 -0.789221 0.345808
vn 0.507491 -0.789221 0.345808
vn 0.526714 -0.776207 0.346518
vn 0.526714 -0.776207 0.346518
vn 0.526714 -0.776207 0.346518
vn 0.807784 -0.255088 0.531428
vn 0.807784 -0.255088 0.531428
vn 0.807784 -0.255088 0.531428
vn 0.808426 -0.236611 0.538945
vn 0.808426 -0.236611 0.538945
vn 0.808426 -0.236611 0.538945
vn 0.721734 0.497590 0.481149
vn 0.721734 0.497590 0.481149
vn 0.721734 0.497590 0.481149
vn 0.706992 0.517765 0.481749
vn 0.706992 0.517765 0.481749
vn 0.706992 0.517765 0.481749
vn 0.000000 0.000000 1.000000
vn 0.000000 0.000000 1.000000
vn 0.000000 0.000000 1.000000
vn 0.000000 0.000000 1.000000
vn 0.000000 0.000000 1.000000
vn 0.000000 0.000000 1.000000
vn 0.000000 0.000000 -1.000000
vn 0.000000 0.000000 -1.000000
vn 0.000000 0.000000 -1.000000
vn 0.000000 0.000000 -1.000000
vn 0.000000 0.000000 -1.000000
vn 0.000000 0.000000 -1.000000
vn 0.000000 -1.000000 0.000000
vn 0.000000 -1.000000 0.000000
vn 0.000000 -1.000000 0.000000
vn 0.000000 -1.000000 0.000000
vn 0.000000 -1.000000 0.000000
vn 0.000000 -1.000000 0.000000
vn 1.000000 0.000000 0.000000
vn 1.000000 0.000000 0.000000
vn 1.000000 0.000000 0.000000
vn 1.000000 0.000000 0.000000
vn 1.000000 0.000000 0.000000
vn 1.000000 0.000000 0.000000
vn -1.000000 0.000000 0.000000
vn -1.000000 0.000000 0.000000
vn -1.000000 0.000000 0.000000
vn -1.000000 0.000000 0.000000
vn -1.000000 0.000000 0.000000
vn -1.000000 0.000000 0.000000
vn 0.000000 0.000000 1.000000
vn 0.000000 0.000000 1.000000
vn 0.000000 0.000000 1.000000
vn 0.000000 0.000000 1.000000
vn 0.000000 0.000000 1.000000
vn 0.000000 0.000000 1.000000
vn 0.000000 0.000000 -1.000000
vn 0.000000 0.000000 -1.000000
vn 0.000000 0.000000 -1.000000
vn 0.000000 0.000000 -1.000000
vn 0.000000 0.000000 -1.000000
vn 0.000000 0.000000 -1.000000
vn 1.000000 0.000000 0.000000
vn 1.000000 0.000000 0.000000
vn 1.000000 0.000000 0.000000
vn 1.000000 0.000000 0.000000
vn 1.000000 0.000000 0.000000
vn 1.000000 0.000000 0.000000
vn -1.000000 0.000000 0.000000
vn -1.000000 0.000000 0.000000
vn -1.000000 0.000000 0.000000
vn -1.000000 0.000000 0.000000
vn -1.000000 0.000000 0.000000
vn -1.000000 0.000000 0.000000
vn 0.000000 -1.000000 0.000000
vn 0.000000 -1.000000 0.000000
vn 0.000000 -1.000000 0.000000
vn 0.000000 -1.000000 -0.000001
vn 0.000000 -1.000000 -0.000001
vn 0.000000 -1.000000 -0.000001
vn 0.000000 -1.000000 0.000000
vn 0.000000 -1.000000 0.000000
vn 0.000000 -1.000000 0.000000
vn 0.000000 -1.000000 0.000001
vn 0.000000 -1.000000 0.000001
vn 0.000000 -1.000000 0.000001
vn 0.000000 -1.000000 0.000000
vn 0.000000 -1.000000 0.000000
vn 0.000000 -1.000000 0.000000
vn 0.000000 -1.000000 0.000000
vn 0.000000 -1.000000 0.000000
vn 0.000000 -1.000000 0.000000
vn 0.000000 -1.000000 0.000000
vn 0.000000 -1.000000 0.000000
vn 0.000000 -1.000000 0.000000
vn 0.000000 -1.000000 0.000000
vn 0.000000 -1.000000 0.000000
vn 0.000000 -1.000000 0.000000
vn 0.000000 1.000000 0.000000
vn 0.000000 1.000000 0.000000
vn 0.000000 1.000000 0.000000
vn 0.000000 1.000000 0.000000
vn 0.000000 1.000000 0.000000
vn 0.000000 1.000000 0.000000
s off
g polySurface6_resources_assets_2138:polySurface6_0
f 3/25/1 2/26/2 1/27/3
f 2/26/4 4/28/5 1/27/6
f 1/27/7 5/29/8 3/25/9
f 5/29/10 6/30/11 3/25/12
f 5/29/13 7/31/14 6/30/15
f 7/31/16 8/32/17 6/30/18
f 11/33/19 10/34/20 9/35/21
f 10/34/22 12/36/23 9/35/24
f 10/34/25 13/37/26 12/36/27
f 13/37/28 14/38/29 12/36/30
f 17/39/31 16/40/32 15/41/33
f 16/40/34 18/42/35 15/41/36
f 19/43/37 15/41/38 18/42/39
f 20/44/40 19/43/41 18/42/42
f 21/45/43 19/43/44 20/44/45
f 22/46/46 21/45/47 20/44/48
f 25/47/49 24/48/50 23/49/51
f 24/48/52 26/50/53 23/49/54
f 27/51/55 24/48/56 25/47/57
f 28/52/58 27/51/59 25/47/60
f 31/53/61 30/54/62 29/55/63
f 30/54/64 32/56/65 29/55/66
f 33/57/67 31/53/68 29/55/69
f 34/58/70 33/57/71 29/55/72
f 34/58/73 35/59/74 33/57/75
f 35/59/76 36/60/77 33/57/78
f 35/59/79 37/61/80 36/60/81
f 37/61/82 38/62/83 36/60/84
f 39/63/85 38/62/86 37/61/87
f 40/64/88 39/63/89 37/61/90
f 43/65/91 42/66/92 41/67/93
f 42/66/94 44/68/95 41/67/96
f 45/69/97 44/68/98 42/66/99
f 46/70/100 45/69/101 42/66/102
f 46/70/103 47/71/104 45/69/105
f 47/71/106 48/72/107 45/69/108
f 47/71/109 49/73/110 48/72/111
f 49/73/112 50/74/113 48/72/114
f 50/74/115 49/73/116 51/75/117
f 49/73/118 52/76/119 51/75/120
f 53/77/121 51/75/122 52/76/123
f 54/78/124 53/77/125 52/76/126
f 57/79/127 56/80/128 55/81/129
f 56/80/130 58/82/131 55/81/132
f 61/83/133 60/84/134 59/85/135
f 60/84/136 62/86/137 59/85/138
f 65/87/139 64/88/140 63/89/141
f 64/88/142 66/90/143 63/89/144
f 69/91/145 68/92/146 67/93/147
f 68/92/148 70/94/149 67/93/150
f 73/95/151 72/96/152 71/97/153
f 72/96/154 74/98/155 71/97/156
f 77/1/157 76/2/158 75/3/159
f 76/2/160 78/4/161 75/3/162
f 76/2/163 79/5/164 78/4/165
f 79/5/166 80/6/167 78/4/168
f 81/7/169 77/1/170 75/3/171
f 82/8/172 81/7/173 75/3/174
f 82/8/175 83/9/176 81/7/177
f 83/9/178 84/10/179 81/7/180
f 83/9/181 85/11/182 84/10/183
f 85/11/184 86/12/185 84/10/186
f 87/13/187 80/6/188 79/5/189
f 88/14/190 87/13/191 79/5/192
f 89/15/193 86/12/194 85/11/195
f 90/16/196 89/15/197 85/11/198
f 89/15/199 90/16/200 91/17/201
f 90/16/202 92/18/203 91/17/204
f 93/19/205 91/17/206 92/18/207
f 94/20/208 93/19/209 92/18/210
f 93/19/211 94/20/212 95/21/213
f 96/22/214 93/19/215 95/21/216
f 96/22/217 95/21/218 97/23/219
f 98/24/220 96/22/221 97/23/222
f 101/147/223 100/148/224 99/149/225
f 100/148/226 102/150/227 99/149/228
f 105/107/229 104/108/230 103/109/231
f 104/108/232 106/110/233 103/109/234
f 109/99/235 108/100/236 107/101/237
f 108/100/238 110/102/239 107/101/240
f 113/139/241 112/140/242 111/141/243
f 112/140/244 114/142/245 111/141/246
f 117/143/247 116/144/248 115/145/249
f 116/144/250 118/146/251 115/145/252
f 121/111/253 120/112/254 119/113/255
f 120/112/256 122/114/257 119/113/258
f 125/151/259 124/152/260 123/153/261
f 124/152/262 126/154/263 123/153/264
f 129/131/265 128/132/266 127/133/267
f 128/132/268 130/134/269 127/133/270
f 133/135/271 132/136/272 131/137/273
f 132/136/274 134/138/275 131/137/276
f 137/115/277 136/116/278 135/117/279
f 136/116/280 138/118/281 135/117/282
f 141/119/283 140/120/284 139/121/285
f 140/120/286 142/122/287 139/121/288
f 145/123/289 144/124/290 143/125/291
f 144/124/292 146/126/293 143/125/294
f 149/127/295 148/128/296 147/129/297
f 148/128/298 150/130/299 147/129/300
f 153/103/301 152/104/302 151/105/303
f 152/104/304 154/106/305 151/105/306
