# Mesh "Building_5" exported with Unity Assets Bundle Extractor; 176 vertices, 264 indices, 320 bits per vertex
g Building_5
# SubMesh 0
# Vertices
v -397.298737 20.962896 -19.699799
vt 0.220184 0.147565
vn -0.000000 0.000000 1.000000
v -280.039490 28.277494 -19.699799
vt 0.260155 0.152822
vn -0.000000 0.000000 1.000000
v -280.039490 20.962896 -19.699799
vt 0.260155 0.147565
vn -0.000000 0.000000 1.000000
v -397.298737 28.277494 -19.699799
vt 0.220184 0.152822
vn -0.000000 0.000000 1.000000
v -397.298737 28.277494 -19.699799
vt 0.330101 0.903565
vn -0.000000 1.000000 0.000000
v -280.039490 28.277494 -59.660736
vt 0.334038 0.896848
vn -0.000000 1.000000 0.000000
v -280.039490 28.277494 -19.699799
vt 0.330101 0.896848
vn -0.000000 1.000000 0.000000
v -397.298737 28.277494 -59.660736
vt 0.334038 0.903565
vn -0.000000 1.000000 0.000000
v -397.298737 28.277494 -59.660736
vt 0.196758 0.152822
vn -0.000000 0.000000 -1.000000
v -280.039490 20.962896 -59.660736
vt 0.156787 0.147565
vn -0.000000 0.000000 -1.000000
v -280.039490 28.277494 -59.660736
vt 0.156787 0.152822
vn -0.000000 0.000000 -1.000000
v -397.298737 20.962896 -59.660736
vt 0.196758 0.147565
vn -0.000000 0.000000 -1.000000
v -397.298737 20.962896 -59.660736
vt 0.334196 0.903564
vn -0.000000 -1.000000 0.000000
v -280.039490 20.962896 -19.699799
vt 0.338133 0.896847
vn -0.000000 -1.000000 0.000000
v -280.039490 20.962896 -59.660736
vt 0.334196 0.896847
vn -0.000000 -1.000000 0.000000
v -397.298737 20.962896 -19.699799
vt 0.338133 0.903564
vn -0.000000 -1.000000 0.000000
v -280.039490 20.962896 -19.699799
vt 0.260155 0.147565
vn 1.000000 0.000000 0.000000
v -280.039490 28.277494 -59.660736
vt 0.283582 0.152822
vn 1.000000 0.000000 0.000000
v -280.039490 20.962896 -59.660736
vt 0.283582 0.147565
vn 1.000000 0.000000 0.000000
v -280.039490 28.277494 -19.699799
vt 0.260155 0.152822
vn 1.000000 0.000000 0.000000
v -397.298737 20.962896 -59.660736
vt 0.196758 0.147565
vn -1.000000 0.000000 0.000000
v -397.298737 28.277494 -19.699799
vt 0.220184 0.152822
vn -1.000000 0.000000 0.000000
v -397.298737 20.962896 -19.699799
vt 0.220184 0.147565
vn -1.000000 0.000000 0.000000
v -397.298737 28.277494 -59.660736
vt 0.196758 0.152822
vn -1.000000 0.000000 0.000000
v -396.675507 -150.572800 -19.912170
vt 0.050492 -0.583010
vn -0.000000 0.000000 1.000000
v -280.662720 20.962896 -19.912170
vt 0.822959 0.954051
vn -0.000000 0.000000 1.000000
v -280.662720 -150.572800 -19.912170
vt 0.822959 -0.583010
vn -0.000000 0.000000 1.000000
v -396.675507 20.962896 -19.912170
vt 0.050492 0.954051
vn -0.000000 0.000000 1.000000
v -396.675507 20.962896 -19.912170
vt 0.330101 0.903565
vn -0.000000 1.000000 0.000000
v -280.662720 20.962896 -59.448334
vt 0.334038 0.896848
vn -0.000000 1.000000 0.000000
v -280.662720 20.962896 -19.912170
vt 0.330101 0.896848
vn -0.000000 1.000000 0.000000
v -396.675507 20.962896 -59.448334
vt 0.334038 0.903565
vn -0.000000 1.000000 0.000000
v -396.675507 20.962896 -59.448334
vt -0.402247 0.954050
vn -0.000000 0.000000 -1.000000
v -280.662720 -150.572800 -59.448334
vt -1.174715 -0.583009
vn -0.000000 0.000000 -1.000000
v -280.662720 20.962896 -59.448334
vt -1.174714 0.954051
vn -0.000000 0.000000 -1.000000
v -396.675507 -150.572800 -59.448334
vt -0.402247 -0.583010
vn -0.000000 0.000000 -1.000000
v -280.662720 -150.572800 -19.912170
vt 0.822959 -0.583010
vn 1.000000 0.000000 0.000000
v -280.662720 20.962896 -59.448334
vt 1.275699 0.954051
vn 1.000000 0.000000 0.000000
v -280.662720 -150.572800 -59.448334
vt 1.275699 -0.583010
vn 1.000000 0.000000 0.000000
v -280.662720 20.962896 -19.912170
vt 0.822959 0.954051
vn 1.000000 0.000000 0.000000
v -396.675507 -150.572800 -59.448334
vt -0.402247 -0.583010
vn -1.000000 0.000000 0.000000
v -396.675507 20.962896 -19.912170
vt 0.050492 0.954051
vn -1.000000 0.000000 0.000000
v -396.675507 -150.572800 -19.912170
vt 0.050492 -0.583010
vn -1.000000 0.000000 0.000000
v -396.675507 20.962896 -59.448334
vt -0.402247 0.954050
vn -1.000000 0.000000 0.000000
v 160.289200 39.341961 250.696075
vt 0.198201 0.147565
vn -0.000000 0.000000 1.000000
v 277.548431 46.656559 250.696075
vt 0.238172 0.152822
vn -0.000000 0.000000 1.000000
v 277.548431 39.341961 250.696075
vt 0.238172 0.147565
vn -0.000000 0.000000 1.000000
v 160.289200 46.656559 250.696075
vt 0.198201 0.152822
vn -0.000000 0.000000 1.000000
v 160.289200 46.656559 250.696075
vt 0.308118 0.903565
vn -0.000000 1.000000 0.000000
v 277.548431 46.656559 210.735123
vt 0.312055 0.896848
vn -0.000000 1.000000 0.000000
v 277.548431 46.656559 250.696075
vt 0.308118 0.896848
vn -0.000000 1.000000 0.000000
v 160.289200 46.656559 210.735123
vt 0.312055 0.903565
vn -0.000000 1.000000 0.000000
v 160.289200 46.656559 210.735123
vt 0.174774 0.152822
vn -0.000000 0.000000 -1.000000
v 277.548431 39.341961 210.735123
vt 0.134804 0.147565
vn -0.000000 0.000000 -1.000000
v 277.548431 46.656559 210.735123
vt 0.134804 0.152822
vn -0.000000 0.000000 -1.000000
v 160.289200 39.341961 210.735123
vt 0.174774 0.147565
vn -0.000000 0.000000 -1.000000
v 160.289200 39.341961 210.735123
vt 0.312213 0.903564
vn -0.000000 -1.000000 0.000000
v 277.548431 39.341961 250.696075
vt 0.316150 0.896847
vn -0.000000 -1.000000 0.000000
v 277.548431 39.341961 210.735123
vt 0.312213 0.896847
vn -0.000000 -1.000000 0.000000
v 160.289200 39.341961 250.696075
vt 0.316150 0.903564
vn -0.000000 -1.000000 0.000000
v 277.548431 39.341961 250.696075
vt 0.238172 0.147565
vn 1.000000 0.000000 0.000000
v 277.548431 46.656559 210.735123
vt 0.261598 0.152822
vn 1.000000 0.000000 0.000000
v 277.548431 39.341961 210.735123
vt 0.261598 0.147565
vn 1.000000 0.000000 0.000000
v 277.548431 46.656559 250.696075
vt 0.238172 0.152822
vn 1.000000 0.000000 0.000000
v 160.289200 39.341961 210.735123
vt 0.174774 0.147565
vn -1.000000 0.000000 0.000000
v 160.289200 46.656559 250.696075
vt 0.198201 0.152822
vn -1.000000 0.000000 0.000000
v 160.289200 39.341961 250.696075
vt 0.198201 0.147565
vn -1.000000 0.000000 0.000000
v 160.289200 46.656559 210.735123
vt 0.174774 0.152822
vn -1.000000 0.000000 0.000000
v 160.912430 -132.193741 250.483704
vt 0.028509 -0.583010
vn -0.000000 0.000000 1.000000
v 276.925232 39.341961 250.483704
vt 0.800976 0.954051
vn -0.000000 0.000000 1.000000
v 276.925232 -132.193741 250.483704
vt 0.800976 -0.583010
vn -0.000000 0.000000 1.000000
v 160.912430 39.341961 250.483704
vt 0.028509 0.954051
vn -0.000000 0.000000 1.000000
v 160.912430 39.341961 250.483704
vt 0.308118 0.903565
vn -0.000000 1.000000 0.000000
v 276.925232 39.341961 210.947525
vt 0.312055 0.896848
vn -0.000000 1.000000 0.000000
v 276.925232 39.341961 250.483704
vt 0.308118 0.896848
vn -0.000000 1.000000 0.000000
v 160.912430 39.341961 210.947525
vt 0.312055 0.903565
vn -0.000000 1.000000 0.000000
v 160.912430 39.341961 210.947525
vt -0.424230 0.954050
vn -0.000000 0.000000 -1.000000
v 276.925232 -132.193741 210.947525
vt -1.196698 -0.583009
vn -0.000000 0.000000 -1.000000
v 276.925232 39.341961 210.947525
vt -1.196697 0.954051
vn -0.000000 0.000000 -1.000000
v 160.912430 -132.193741 210.947525
vt -0.424230 -0.583010
vn -0.000000 0.000000 -1.000000
v 276.925232 -132.193741 250.483704
vt 0.800976 -0.583010
vn 1.000000 0.000000 0.000000
v 276.925232 39.341961 210.947525
vt 1.253716 0.954051
vn 1.000000 0.000000 0.000000
v 276.925232 -132.193741 210.947525
vt 1.253716 -0.583010
vn 1.000000 0.000000 0.000000
v 276.925232 39.341961 250.483704
vt 0.800976 0.954051
vn 1.000000 0.000000 0.000000
v 160.912430 -132.193741 210.947525
vt -0.424230 -0.583010
vn -1.000000 0.000000 0.000000
v 160.912430 39.341961 250.483704
vt 0.028509 0.954051
vn -1.000000 0.000000 0.000000
v 160.912430 -132.193741 250.483704
vt 0.028509 -0.583010
vn -1.000000 0.000000 0.000000
v 160.912430 39.341961 210.947525
vt -0.424230 0.954050
vn -1.000000 0.000000 0.000000
v 369.697784 39.341961 233.134888
vt 0.198201 0.147565
vn -0.000000 0.000000 1.000000
v 486.957031 46.656559 233.134888
vt 0.238172 0.152822
vn -0.000000 0.000000 1.000000
v 486.957031 39.341961 233.134888
vt 0.238172 0.147565
vn -0.000000 0.000000 1.000000
v 369.697784 46.656559 233.134888
vt 0.198201 0.152822
vn -0.000000 0.000000 1.000000
v 369.697784 46.656559 233.134888
vt 0.308118 0.903565
vn -0.000000 1.000000 0.000000
v 486.957031 46.656559 193.173950
vt 0.312055 0.896848
vn -0.000000 1.000000 0.000000
v 486.957031 46.656559 233.134888
vt 0.308118 0.896848
vn -0.000000 1.000000 0.000000
v 369.697784 46.656559 193.173950
vt 0.312055 0.903565
vn -0.000000 1.000000 0.000000
v 369.697784 46.656559 193.173950
vt 0.174774 0.152822
vn -0.000000 0.000000 -1.000000
v 486.957031 39.341961 193.173950
vt 0.134804 0.147565
vn -0.000000 0.000000 -1.000000
v 486.957031 46.656559 193.173950
vt 0.134804 0.152822
vn -0.000000 0.000000 -1.000000
v 369.697784 39.341961 193.173950
vt 0.174774 0.147565
vn -0.000000 0.000000 -1.000000
v 369.697784 39.341961 193.173950
vt 0.312213 0.903564
vn -0.000000 -1.000000 0.000000
v 486.957031 39.341961 233.134888
vt 0.316150 0.896847
vn -0.000000 -1.000000 0.000000
v 486.957031 39.341961 193.173950
vt 0.312213 0.896847
vn -0.000000 -1.000000 0.000000
v 369.697784 39.341961 233.134888
vt 0.316150 0.903564
vn -0.000000 -1.000000 0.000000
v 486.957031 39.341961 233.134888
vt 0.238172 0.147565
vn 1.000000 0.000000 0.000000
v 486.957031 46.656559 193.173950
vt 0.261598 0.152822
vn 1.000000 0.000000 0.000000
v 486.957031 39.341961 193.173950
vt 0.261598 0.147565
vn 1.000000 0.000000 0.000000
v 486.957031 46.656559 233.134888
vt 0.238172 0.152822
vn 1.000000 0.000000 0.000000
v 369.697784 39.341961 193.173950
vt 0.174774 0.147565
vn -1.000000 0.000000 0.000000
v 369.697784 46.656559 233.134888
vt 0.198201 0.152822
vn -1.000000 0.000000 0.000000
v 369.697784 39.341961 233.134888
vt 0.198201 0.147565
vn -1.000000 0.000000 0.000000
v 369.697784 46.656559 193.173950
vt 0.174774 0.152822
vn -1.000000 0.000000 0.000000
v 370.321014 -132.193741 232.922516
vt 0.028509 -0.583010
vn -0.000000 0.000000 1.000000
v 486.333801 39.341961 232.922516
vt 0.800976 0.954051
vn -0.000000 0.000000 1.000000
v 486.333801 -132.193741 232.922516
vt 0.800976 -0.583010
vn -0.000000 0.000000 1.000000
v 370.321014 39.341961 232.922516
vt 0.028509 0.954051
vn -0.000000 0.000000 1.000000
v 370.321014 39.341961 232.922516
vt 0.308118 0.903565
vn -0.000000 1.000000 0.000000
v 486.333801 39.341961 193.386353
vt 0.312055 0.896848
vn -0.000000 1.000000 0.000000
v 486.333801 39.341961 232.922516
vt 0.308118 0.896848
vn -0.000000 1.000000 0.000000
v 370.321014 39.341961 193.386353
vt 0.312055 0.903565
vn -0.000000 1.000000 0.000000
v 370.321014 39.341961 193.386353
vt -0.424230 0.954050
vn -0.000000 0.000000 -1.000000
v 486.333801 -132.193741 193.386353
vt -1.196698 -0.583009
vn -0.000000 0.000000 -1.000000
v 486.333801 39.341961 193.386353
vt -1.196697 0.954051
vn -0.000000 0.000000 -1.000000
v 370.321014 -132.193741 193.386353
vt -0.424230 -0.583010
vn -0.000000 0.000000 -1.000000
v 486.333801 -132.193741 232.922516
vt 0.800976 -0.583010
vn 1.000000 0.000000 0.000000
v 486.333801 39.341961 193.386353
vt 1.253716 0.954051
vn 1.000000 0.000000 0.000000
v 486.333801 -132.193741 193.386353
vt 1.253716 -0.583010
vn 1.000000 0.000000 0.000000
v 486.333801 39.341961 232.922516
vt 0.800976 0.954051
vn 1.000000 0.000000 0.000000
v 370.321014 -132.193741 193.386353
vt -0.424230 -0.583010
vn -1.000000 0.000000 0.000000
v 370.321014 39.341961 232.922516
vt 0.028509 0.954051
vn -1.000000 0.000000 0.000000
v 370.321014 -132.193741 232.922516
vt 0.028509 -0.583010
vn -1.000000 0.000000 0.000000
v 370.321014 39.341961 193.386353
vt -0.424230 0.954050
vn -1.000000 0.000000 0.000000
v 318.875366 39.341961 59.156578
vt 0.198201 0.147565
vn 1.000000 0.000000 0.000000
v 318.875366 46.656559 -58.102657
vt 0.238172 0.152822
vn 1.000000 0.000000 0.000000
v 318.875366 39.341961 -58.102657
vt 0.238172 0.147565
vn 1.000000 0.000000 0.000000
v 318.875366 46.656559 59.156578
vt 0.198201 0.152822
vn 1.000000 0.000000 0.000000
v 318.875366 46.656559 59.156578
vt 0.308118 0.903565
vn -0.000000 1.000000 0.000000
v 278.914429 46.656559 -58.102657
vt 0.312055 0.896848
vn -0.000000 1.000000 0.000000
v 318.875366 46.656559 -58.102657
vt 0.308118 0.896848
vn -0.000000 1.000000 0.000000
v 278.914429 46.656559 59.156578
vt 0.312055 0.903565
vn -0.000000 1.000000 0.000000
v 278.914429 46.656559 59.156578
vt 0.174774 0.152822
vn -1.000000 0.000000 0.000000
v 278.914429 39.341961 -58.102657
vt 0.134804 0.147565
vn -1.000000 0.000000 0.000000
v 278.914429 46.656559 -58.102657
vt 0.134804 0.152822
vn -1.000000 0.000000 0.000000
v 278.914429 39.341961 59.156578
vt 0.174774 0.147565
vn -1.000000 0.000000 0.000000
v 278.914429 39.341961 59.156578
vt 0.312213 0.903564
vn -0.000000 -1.000000 0.000000
v 318.875366 39.341961 -58.102657
vt 0.316150 0.896847
vn -0.000000 -1.000000 0.000000
v 278.914429 39.341961 -58.102657
vt 0.312213 0.896847
vn -0.000000 -1.000000 0.000000
v 318.875366 39.341961 59.156578
vt 0.316150 0.903564
vn -0.000000 -1.000000 0.000000
v 318.875366 39.341961 -58.102657
vt 0.238172 0.147565
vn -0.000000 0.000000 -1.000000
v 278.914429 46.656559 -58.102657
vt 0.261598 0.152822
vn -0.000000 0.000000 -1.000000
v 278.914429 39.341961 -58.102657
vt 0.261598 0.147565
vn -0.000000 0.000000 -1.000000
v 318.875366 46.656559 -58.102657
vt 0.238172 0.152822
vn -0.000000 0.000000 -1.000000
v 278.914429 39.341961 59.156578
vt 0.174774 0.147565
vn -0.000000 0.000000 1.000000
v 318.875366 46.656559 59.156578
vt 0.198201 0.152822
vn -0.000000 0.000000 1.000000
v 318.875366 39.341961 59.156578
vt 0.198201 0.147565
vn -0.000000 0.000000 1.000000
v 278.914429 46.656559 59.156578
vt 0.174774 0.152822
vn -0.000000 0.000000 1.000000
v 318.662994 -132.193741 58.533363
vt 0.028509 -0.583010
vn 1.000000 0.000000 0.000000
v 318.662994 39.341961 -57.479439
vt 0.800976 0.954051
vn 1.000000 0.000000 0.000000
v 318.662994 -132.193741 -57.479439
vt 0.800976 -0.583010
vn 1.000000 0.000000 0.000000
v 318.662994 39.341961 58.533363
vt 0.028509 0.954051
vn 1.000000 0.000000 0.000000
v 318.662994 39.341961 58.533363
vt 0.308118 0.903565
vn -0.000000 1.000000 0.000000
v 279.126831 39.341961 -57.479439
vt 0.312055 0.896848
vn -0.000000 1.000000 0.000000
v 318.662994 39.341961 -57.479439
vt 0.308118 0.896848
vn -0.000000 1.000000 0.000000
v 279.126831 39.341961 58.533363
vt 0.312055 0.903565
vn -0.000000 1.000000 0.000000
v 279.126831 39.341961 58.533363
vt -0.424230 0.954050
vn -1.000000 0.000000 0.000000
v 279.126831 -132.193741 -57.479439
vt -1.196698 -0.583009
vn -1.000000 0.000000 0.000000
v 279.126831 39.341961 -57.479439
vt -1.196697 0.954051
vn -1.000000 0.000000 0.000000
v 279.126831 -132.193741 58.533363
vt -0.424230 -0.583010
vn -1.000000 0.000000 0.000000
v 318.662994 -132.193741 -57.479439
vt 0.800976 -0.583010
vn -0.000000 0.000000 -1.000000
v 279.126831 39.341961 -57.479439
vt 1.253716 0.954051
vn -0.000000 0.000000 -1.000000
v 279.126831 -132.193741 -57.479439
vt 1.253716 -0.583010
vn -0.000000 0.000000 -1.000000
v 318.662994 39.341961 -57.479439
vt 0.800976 0.954051
vn -0.000000 0.000000 -1.000000
v 279.126831 -132.193741 58.533363
vt -0.424230 -0.583010
vn -0.000000 0.000000 1.000000
v 318.662994 39.341961 58.533363
vt 0.028509 0.954051
vn -0.000000 0.000000 1.000000
v 318.662994 -132.193741 58.533363
vt 0.028509 -0.583010
vn -0.000000 0.000000 1.000000
v 279.126831 39.341961 58.533363
vt -0.424230 0.954050
vn -0.000000 0.000000 1.000000
# Faces (1 to 176)
g Building_5_0
f -174/-174/-174 -175/-175/-175 -176/-176/-176
f -175/-175/-175 -173/-173/-173 -176/-176/-176
f -170/-170/-170 -171/-171/-171 -172/-172/-172
f -171/-171/-171 -169/-169/-169 -172/-172/-172
f -166/-166/-166 -167/-167/-167 -168/-168/-168
f -167/-167/-167 -165/-165/-165 -168/-168/-168
f -162/-162/-162 -163/-163/-163 -164/-164/-164
f -163/-163/-163 -161/-161/-161 -164/-164/-164
f -158/-158/-158 -159/-159/-159 -160/-160/-160
f -159/-159/-159 -157/-157/-157 -160/-160/-160
f -154/-154/-154 -155/-155/-155 -156/-156/-156
f -155/-155/-155 -153/-153/-153 -156/-156/-156
f -150/-150/-150 -151/-151/-151 -152/-152/-152
f -151/-151/-151 -149/-149/-149 -152/-152/-152
f -146/-146/-146 -147/-147/-147 -148/-148/-148
f -147/-147/-147 -145/-145/-145 -148/-148/-148
f -142/-142/-142 -143/-143/-143 -144/-144/-144
f -143/-143/-143 -141/-141/-141 -144/-144/-144
f -138/-138/-138 -139/-139/-139 -140/-140/-140
f -139/-139/-139 -137/-137/-137 -140/-140/-140
f -134/-134/-134 -135/-135/-135 -136/-136/-136
f -135/-135/-135 -133/-133/-133 -136/-136/-136
f -130/-130/-130 -131/-131/-131 -132/-132/-132
f -131/-131/-131 -129/-129/-129 -132/-132/-132
f -126/-126/-126 -127/-127/-127 -128/-128/-128
f -127/-127/-127 -125/-125/-125 -128/-128/-128
f -122/-122/-122 -123/-123/-123 -124/-124/-124
f -123/-123/-123 -121/-121/-121 -124/-124/-124
f -118/-118/-118 -119/-119/-119 -120/-120/-120
f -119/-119/-119 -117/-117/-117 -120/-120/-120
f -114/-114/-114 -115/-115/-115 -116/-116/-116
f -115/-115/-115 -113/-113/-113 -116/-116/-116
f -110/-110/-110 -111/-111/-111 -112/-112/-112
f -111/-111/-111 -109/-109/-109 -112/-112/-112
f -106/-106/-106 -107/-107/-107 -108/-108/-108
f -107/-107/-107 -105/-105/-105 -108/-108/-108
f -102/-102/-102 -103/-103/-103 -104/-104/-104
f -103/-103/-103 -101/-101/-101 -104/-104/-104
f -98/-98/-98 -99/-99/-99 -100/-100/-100
f -99/-99/-99 -97/-97/-97 -100/-100/-100
f -94/-94/-94 -95/-95/-95 -96/-96/-96
f -95/-95/-95 -93/-93/-93 -96/-96/-96
f -90/-90/-90 -91/-91/-91 -92/-92/-92
f -91/-91/-91 -89/-89/-89 -92/-92/-92
f -86/-86/-86 -87/-87/-87 -88/-88/-88
f -87/-87/-87 -85/-85/-85 -88/-88/-88
f -82/-82/-82 -83/-83/-83 -84/-84/-84
f -83/-83/-83 -81/-81/-81 -84/-84/-84
f -78/-78/-78 -79/-79/-79 -80/-80/-80
f -79/-79/-79 -77/-77/-77 -80/-80/-80
f -74/-74/-74 -75/-75/-75 -76/-76/-76
f -75/-75/-75 -73/-73/-73 -76/-76/-76
f -70/-70/-70 -71/-71/-71 -72/-72/-72
f -71/-71/-71 -69/-69/-69 -72/-72/-72
f -66/-66/-66 -67/-67/-67 -68/-68/-68
f -67/-67/-67 -65/-65/-65 -68/-68/-68
f -62/-62/-62 -63/-63/-63 -64/-64/-64
f -63/-63/-63 -61/-61/-61 -64/-64/-64
f -58/-58/-58 -59/-59/-59 -60/-60/-60
f -59/-59/-59 -57/-57/-57 -60/-60/-60
f -54/-54/-54 -55/-55/-55 -56/-56/-56
f -55/-55/-55 -53/-53/-53 -56/-56/-56
f -50/-50/-50 -51/-51/-51 -52/-52/-52
f -51/-51/-51 -49/-49/-49 -52/-52/-52
f -46/-46/-46 -47/-47/-47 -48/-48/-48
f -47/-47/-47 -45/-45/-45 -48/-48/-48
f -42/-42/-42 -43/-43/-43 -44/-44/-44
f -43/-43/-43 -41/-41/-41 -44/-44/-44
f -38/-38/-38 -39/-39/-39 -40/-40/-40
f -39/-39/-39 -37/-37/-37 -40/-40/-40
f -34/-34/-34 -35/-35/-35 -36/-36/-36
f -35/-35/-35 -33/-33/-33 -36/-36/-36
f -30/-30/-30 -31/-31/-31 -32/-32/-32
f -31/-31/-31 -29/-29/-29 -32/-32/-32
f -26/-26/-26 -27/-27/-27 -28/-28/-28
f -27/-27/-27 -25/-25/-25 -28/-28/-28
f -22/-22/-22 -23/-23/-23 -24/-24/-24
f -23/-23/-23 -21/-21/-21 -24/-24/-24
f -18/-18/-18 -19/-19/-19 -20/-20/-20
f -19/-19/-19 -17/-17/-17 -20/-20/-20
f -14/-14/-14 -15/-15/-15 -16/-16/-16
f -15/-15/-15 -13/-13/-13 -16/-16/-16
f -10/-10/-10 -11/-11/-11 -12/-12/-12
f -11/-11/-11 -9/-9/-9 -12/-12/-12
f -6/-6/-6 -7/-7/-7 -8/-8/-8
f -7/-7/-7 -5/-5/-5 -8/-8/-8
f -2/-2/-2 -3/-3/-3 -4/-4/-4
f -3/-3/-3 -1/-1/-1 -4/-4/-4

