# Mesh "detail1" exported with Unity Assets Bundle Extractor; 182 vertices, 306 indices, 448 bits per vertex
g detail1
# SubMesh 0
# Vertices
v -26.509521 0.000001 -36.105713
vt -0.611742 0.826146
vn -0.000000 0.000000 1.000000
v -25.106873 1.008133 -36.105713
vt -0.370055 0.999825
vn -0.000000 0.000000 1.000000
v -25.106873 0.000001 -36.105713
vt -0.370063 0.826150
vn -0.000000 0.000000 1.000000
v -26.509521 1.008133 -36.105713
vt -0.611733 0.999848
vn -0.000000 0.000000 1.000000
v 18.412598 4.051559 -36.105713
vt 7.781711 0.623679
vn -1.000000 0.000000 -0.000068
v 18.412537 5.249115 -35.115356
vt 7.950973 0.826463
vn -1.000000 0.000000 -0.000068
v 18.412537 4.051559 -35.115356
vt 7.950971 0.623679
vn -1.000000 0.000000 -0.000068
v 18.412598 5.249115 -36.105713
vt 7.781713 0.826464
vn -1.000000 0.000000 -0.000068
v 18.557983 4.051559 -35.115356
vt 1.024445 0.622299
vn -0.000000 0.000000 1.000000
v 18.412537 5.249115 -35.115356
vt 0.999800 0.825229
vn -0.000000 0.000000 1.000000
v 18.557983 5.249115 -35.115356
vt 1.024445 0.825229
vn -0.000000 0.000000 1.000000
v 18.412537 4.051559 -35.115356
vt 0.999800 0.622299
vn -0.000000 0.000000 1.000000
v 7.973572 4.051559 -36.105713
vt 6.245312 0.623679
vn -0.000000 0.000000 1.000000
v 4.955551 5.249115 -36.105713
vt 5.729525 0.826481
vn -0.000000 0.000000 1.000000
v 7.973572 5.249115 -36.105713
vt 6.245313 0.826480
vn -0.000000 0.000000 1.000000
v 4.955551 4.051559 -36.105713
vt 5.729523 0.623679
vn -0.000000 0.000000 1.000000
v 13.870300 4.051559 -36.105713
vt 7.253098 0.623679
vn -0.000000 0.000000 1.000000
v 13.870300 5.249115 -36.105713
vt 7.253099 0.826471
vn -0.000000 0.000000 1.000000
v 18.412598 4.051559 -36.105713
vt 8.024805 0.623679
vn -0.000000 0.000000 1.000000
v 18.412598 5.249115 -36.105713
vt 8.024807 0.826464
vn -0.000000 0.000000 1.000000
v -11.089447 5.249115 -36.105713
vt 2.987424 0.826502
vn -0.000000 0.000000 1.000000
v -11.089447 4.051559 -36.105713
vt 2.987423 0.623679
vn -0.000000 0.000000 1.000000
v -27.220947 5.249115 -36.105713
vt 0.274566 0.826521
vn -0.000000 0.000000 1.000000
v -27.220947 4.051559 -36.105713
vt 0.274564 0.623705
vn -0.000000 0.000000 1.000000
v -27.379639 5.249115 -36.105713
vt 3.001352 0.826354
vn 1.000000 0.000000 0.000000
v -27.379639 4.051559 -11.643921
vt -1.000000 0.623415
vn 1.000000 0.000000 0.000000
v -27.379639 5.249115 -11.643921
vt -1.000000 0.826344
vn 1.000000 0.000000 0.000000
v -27.379639 4.051559 -36.105713
vt 3.001352 0.623425
vn 1.000000 0.000000 0.000000
v 13.870300 4.051559 -39.583008
vt 2.541389 0.650197
vn -0.000000 -1.000000 0.000000
v 13.692993 4.051559 -37.463013
vt 2.213939 0.622810
vn -0.000000 -1.000000 0.000000
v 13.870300 4.051559 -37.463013
vt 2.213939 0.650197
vn -0.000000 -1.000000 0.000000
v 13.692993 4.051559 -39.395996
vt 2.512497 0.622810
vn -0.000000 -1.000000 0.000000
v 7.973572 4.051559 -37.280151
vt 2.985950 0.453567
vn -0.000000 -1.000000 0.000000
v 5.122406 4.051559 -36.274536
vt 2.540499 0.622201
vn -0.000000 -1.000000 0.000000
v 7.973572 4.051559 -36.274536
vt 2.985952 0.622198
vn -0.000000 -1.000000 0.000000
v 5.122406 4.051559 -37.280151
vt 2.540493 0.453586
vn -0.000000 -1.000000 0.000000
v 13.870300 4.051559 -37.280151
vt 4.023670 0.453547
vn -0.000000 -1.000000 0.000000
v 13.870300 4.051559 -36.274536
vt 4.023672 0.622195
vn -0.000000 -1.000000 0.000000
v 13.692993 4.051559 -37.463013
vt 3.993937 0.422880
vn -0.000000 -1.000000 0.000000
v 8.150055 4.051559 -37.463013
vt 3.015546 0.422899
vn -0.000000 -1.000000 0.000000
v 18.274597 4.051559 -37.280151
vt 4.762343 0.453530
vn -0.000000 -1.000000 0.000000
v 18.274597 4.051559 -36.274536
vt 4.762347 0.622193
vn -0.000000 -1.000000 0.000000
v 18.274597 4.051559 -36.274536
vt 4.781813 0.622938
vn -0.000000 -1.000000 0.000000
v 18.412598 4.051559 -37.463013
vt 4.998224 0.648496
vn -0.000000 -1.000000 0.000000
v 18.274597 4.051559 -37.280151
vt 4.964345 0.622938
vn -0.000000 -1.000000 0.000000
v 18.412598 4.051559 -36.105713
vt 4.746783 0.648496
vn -0.000000 -1.000000 0.000000
v 18.274597 4.051559 -36.274536
vt 5.000472 0.622193
vn -0.000000 -1.000000 0.000000
v 13.870300 4.051559 -36.105713
vt 4.261796 0.650500
vn -0.000000 -1.000000 0.000000
v 18.412598 4.051559 -36.105713
vt 5.023612 0.650500
vn -0.000000 -1.000000 0.000000
v 13.870300 4.051559 -36.274536
vt 4.261796 0.622195
vn -0.000000 -1.000000 0.000000
v 7.973572 4.051559 -36.274536
vt 3.224077 0.622198
vn -0.000000 -1.000000 0.000000
v 7.973572 4.051559 -36.105713
vt 3.224077 0.650500
vn -0.000000 -1.000000 0.000000
v 5.122406 4.051559 -36.274536
vt 2.778623 0.622201
vn -0.000000 -1.000000 0.000000
v 4.955551 4.051559 -36.105713
vt 2.750649 0.650500
vn -0.000000 -1.000000 0.000000
v 4.955551 4.051559 -36.105713
vt 4.989360 0.650369
vn -0.000000 -1.000000 0.000000
v 5.122406 4.051559 -37.280151
vt 4.789505 0.621976
vn -0.000000 -1.000000 0.000000
v 4.955551 4.051559 -37.463013
vt 4.758384 0.650369
vn -0.000000 -1.000000 0.000000
v 5.122406 4.051559 -36.274536
vt 4.960639 0.621976
vn -0.000000 -1.000000 0.000000
v 7.973572 4.051559 -37.280151
vt 5.172696 0.623114
vn -0.000000 -1.000000 0.000000
v 8.150055 4.051559 -37.463013
vt 5.228152 0.623114
vn -0.000000 -1.000000 0.000000
v 7.973572 4.051559 -37.463013
vt 5.201409 0.650824
vn -0.000000 -1.000000 0.000000
v 13.692993 4.051559 -39.395996
vt 3.859800 0.357593
vn -0.000000 -1.000000 0.000000
v 8.150055 4.051559 -37.463013
vt 3.139801 0.608666
vn -0.000000 -1.000000 0.000000
v 13.692993 4.051559 -37.463013
vt 3.859800 0.608665
vn -0.000000 -1.000000 0.000000
v 8.150055 4.051559 -39.395996
vt 3.139801 0.357594
vn -0.000000 -1.000000 0.000000
v 4.955551 4.051559 -37.463013
vt 5.495585 0.651568
vn -0.000000 -1.000000 0.000000
v 7.973572 4.051559 -37.280151
vt 5.031537 0.623448
vn -0.000000 -1.000000 0.000000
v 7.973572 4.051559 -37.463013
vt 5.031537 0.651567
vn -0.000000 -1.000000 0.000000
v 5.122406 4.051559 -37.280151
vt 5.469932 0.623448
vn -0.000000 -1.000000 0.000000
v 13.692993 4.051559 -37.463013
vt 2.599436 0.623455
vn -0.000000 -1.000000 0.000000
v 13.870300 4.051559 -37.280151
vt 2.547132 0.623456
vn -0.000000 -1.000000 0.000000
v 13.870300 4.051559 -37.463013
vt 2.573682 0.650006
vn -0.000000 -1.000000 0.000000
v 13.870300 4.051559 -37.463013
vt 2.807630 0.650197
vn -0.000000 -1.000000 0.000000
v 18.274597 4.051559 -37.280151
vt 2.111722 0.622810
vn -0.000000 -1.000000 0.000000
v 18.412598 4.051559 -37.463013
vt 2.089879 0.650197
vn -0.000000 -1.000000 0.000000
v 13.870300 4.051559 -37.280151
vt 2.807670 0.622810
vn -0.000000 -1.000000 0.000000
v 7.973572 4.051559 -39.583008
vt 5.029761 0.651893
vn -0.000000 -1.000000 0.000000
v 8.150055 4.051559 -37.463013
vt 5.365341 0.623861
vn -0.000000 -1.000000 0.000000
v 8.150055 4.051559 -39.395996
vt 5.059371 0.623861
vn -0.000000 -1.000000 0.000000
v 7.973572 4.051559 -37.463013
vt 5.365341 0.651893
vn -0.000000 -1.000000 0.000000
v 7.973572 4.051559 -39.583008
vt 1.962259 0.652162
vn -0.000000 -1.000000 0.000000
v 13.692993 4.051559 -39.395996
vt 1.057060 0.622559
vn -0.000000 -1.000000 0.000000
v 13.870300 4.051559 -39.583008
vt 1.028997 0.652162
vn -0.000000 -1.000000 0.000000
v 8.150055 4.051559 -39.395996
vt 1.934326 0.622559
vn -0.000000 -1.000000 0.000000
v -27.220947 4.051559 -36.105713
vt 0.024754 0.623702
vn -0.000000 0.000000 1.000000
v -27.379639 5.249115 -36.105713
vt 0.000436 0.826525
vn -0.000000 0.000000 1.000000
v -27.220947 5.249115 -36.105713
vt 0.024755 0.826525
vn -0.000000 0.000000 1.000000
v -27.379639 4.051559 -36.105713
vt 0.000435 0.623702
vn -0.000000 0.000000 1.000000
v 5.837738 4.051559 -21.043701
vt 0.310470 0.626310
vn -0.000000 -1.000000 0.000000
v -5.834473 4.051559 -20.886230
vt 2.539683 0.646684
vn -0.000000 -1.000000 0.000000
v 5.837738 4.051559 -20.886230
vt 0.310470 0.646684
vn -0.000000 -1.000000 0.000000
v -5.834473 4.051559 -21.043701
vt 2.539684 0.622313
vn -0.000000 -1.000000 0.000000
v -5.834473 5.249115 -21.043701
vt 2.315267 0.825478
vn -0.000000 0.000000 -1.000000
v 5.837738 4.051559 -21.043701
vt 0.337985 0.622744
vn -0.000000 0.000000 -1.000000
v 5.837738 5.249115 -21.043701
vt 0.337985 0.825478
vn -0.000000 0.000000 -1.000000
v -5.834473 4.051559 -21.043701
vt 2.323423 0.622744
vn -0.000000 0.000000 -1.000000
v 18.412598 4.051559 -21.043701
vt -1.649745 0.622744
vn -0.707111 0.000000 -0.707102
v 18.412598 5.249115 -21.043701
vt -1.649745 0.825478
vn -0.707111 0.000000 -0.707102
v -18.263794 5.249115 -21.043701
vt 3.990447 0.825478
vn -0.000000 0.000000 -1.000000
v -18.263794 4.051559 -21.043701
vt 3.990448 0.622744
vn -0.000000 0.000000 -1.000000
v -18.263794 4.051559 -16.330994
vt 3.170171 0.621982
vn -1.000000 0.000000 0.000000
v -18.263794 5.249115 -11.643921
vt 4.002230 0.825479
vn -1.000000 0.000000 0.000000
v -18.263794 4.051559 -11.643921
vt 4.002231 0.621984
vn -1.000000 0.000000 0.000000
v -18.263794 5.249115 -16.330994
vt 3.170170 0.825477
vn -1.000000 0.000000 0.000000
v 18.412537 4.051559 -26.629395
vt 2.999813 0.823866
vn -0.707111 0.000000 -0.707102
v 18.557983 5.249115 -26.629395
vt 3.024455 0.620936
vn -0.000000 0.000000 -1.000000
v 18.412537 5.249115 -26.629395
vt 2.999810 0.620936
vn -0.707111 0.000000 -0.707102
v 18.557983 4.051559 -26.629395
vt 3.024458 0.823865
vn -0.000000 0.000000 -1.000000
v 18.412598 5.249115 -21.043701
vt 1.969017 0.620947
vn -0.707111 0.000000 -0.707102
v 18.412598 4.051559 -21.043701
vt 1.969020 0.823877
vn -0.707111 0.000000 -0.707102
v -18.263794 5.249115 -16.330994
vt 3.856353 0.825477
vn -1.000000 0.000000 0.000000
v -18.263794 4.051559 -21.043701
vt 2.998740 0.621980
vn -1.000000 0.000000 0.000000
v -18.263794 5.249115 -21.043701
vt 2.998739 0.825475
vn -1.000000 0.000000 0.000000
v -18.263794 4.051559 -16.330994
vt 3.856353 0.621982
vn -1.000000 0.000000 0.000000
v -18.263794 0.000000 -21.043701
vt 2.329537 0.825981
vn -0.000000 0.000000 -1.000000
v -5.834473 1.008133 -21.043701
vt 0.155448 0.999734
vn -0.000000 0.000000 -1.000000
v -18.263794 1.008133 -21.043701
vt 2.329538 0.999732
vn -0.000000 0.000000 -1.000000
v -5.834473 0.000000 -21.043701
vt 0.155447 0.825984
vn -0.000000 0.000000 -1.000000
v -5.834473 0.000000 -21.043701
vt -0.008881 0.825977
vn 1.000000 0.000000 0.000000
v -5.834473 1.008133 -19.880066
vt -0.209426 0.999728
vn 1.000000 0.000000 0.000000
v -5.834473 1.008133 -21.043701
vt -0.008881 0.999728
vn 1.000000 0.000000 0.000000
v -5.834473 -0.000000 -19.880066
vt -0.209426 0.825977
vn 1.000000 0.000000 0.000000
v -18.263794 0.000000 -21.043701
vt 2.329537 0.825981
vn -1.000000 0.000000 0.000000
v -18.263794 1.008133 -11.643921
vt 4.001961 0.999731
vn -1.000000 0.000000 0.000000
v -18.263794 0.000000 -11.643921
vt 4.001961 0.825979
vn -1.000000 0.000000 0.000000
v -18.263794 1.008133 -21.043701
vt 2.329538 0.999732
vn -1.000000 0.000000 0.000000
v -27.379639 0.000000 -11.643921
vt -0.002363 0.825977
vn 1.000000 0.000000 0.000000
v -27.379639 1.008133 -36.105713
vt 4.249752 0.999728
vn 1.000000 0.000000 0.000000
v -27.379639 0.000000 -36.105713
vt 4.249752 0.825977
vn 1.000000 0.000000 0.000000
v -27.379639 1.008133 -11.643921
vt -0.002363 0.999728
vn 1.000000 0.000000 0.000000
v 18.412537 -0.000000 -26.629395
vt -0.000710 0.825977
vn -0.000000 0.000000 -1.000000
v 18.557983 1.008133 -26.629395
vt 0.023312 0.999728
vn -0.000000 0.000000 -1.000000
v 18.412537 1.008133 -26.629395
vt -0.000710 0.999728
vn -0.000000 0.000000 -1.000000
v 18.557983 -0.000000 -26.629395
vt 0.023312 0.825977
vn -0.000000 0.000000 -1.000000
v 18.412598 1.008133 -21.043701
vt -0.460510 0.999724
vn -1.000000 0.000018 0.000000
v 18.412537 -0.000000 -26.629395
vt -1.461605 0.825977
vn -1.000000 0.000018 0.000000
v 18.412537 1.008133 -26.629395
vt -1.461604 0.999728
vn -1.000000 0.000018 0.000000
v 18.412537 0.000000 -21.043701
vt -0.460511 0.825972
vn -1.000000 0.000018 0.000000
v 5.837738 -0.000000 -19.880066
vt 1.998400 0.825880
vn -1.000000 0.000000 0.000000
v 5.837738 1.008133 -21.043701
vt 1.791233 0.999640
vn -1.000000 0.000000 0.000000
v 5.837738 1.008133 -19.880066
vt 1.998407 0.999631
vn -1.000000 0.000000 0.000000
v 5.837738 0.000000 -21.043701
vt 1.791227 0.825889
vn -1.000000 0.000000 0.000000
v 5.837738 0.000000 -21.043701
vt 1.791227 0.825889
vn -0.000000 0.000000 -1.000000
v 18.412598 1.008133 -21.043701
vt -0.456671 0.999724
vn -0.000000 0.000000 -1.000000
v 5.837738 1.008133 -21.043701
vt 1.791233 0.999640
vn -0.000000 0.000000 -1.000000
v 18.412537 0.000000 -21.043701
vt -0.456672 0.825972
vn -0.000000 0.000000 -1.000000
v 18.557983 -0.000000 -35.115356
vt -2.023656 0.825977
vn -0.000000 0.000000 1.000000
v 18.412537 1.008133 -35.115356
vt -1.999634 0.999728
vn -0.000000 0.000000 1.000000
v 18.557983 1.008133 -35.115356
vt -2.023654 0.999728
vn -0.000000 0.000000 1.000000
v 18.412537 -0.000000 -35.115356
vt -1.999635 0.825977
vn -0.000000 0.000000 1.000000
v 18.412598 0.000000 -37.463013
vt -2.001821 0.825977
vn -1.000000 0.000000 -0.000029
v 18.412537 1.008133 -35.115356
vt -2.386331 0.999728
vn -1.000000 0.000000 -0.000029
v 18.412537 -0.000000 -35.115356
vt -2.386333 0.825977
vn -1.000000 0.000000 -0.000029
v 18.412598 1.008133 -37.463013
vt -2.001820 0.999728
vn -1.000000 0.000000 -0.000029
v 13.870300 0.000000 -39.583008
vt -1.001499 0.825977
vn -1.000000 0.000000 0.000000
v 13.870300 1.008133 -37.463013
vt -0.636127 0.999727
vn -1.000000 0.000000 0.000000
v 13.870300 0.000000 -37.463013
vt -0.636128 0.825975
vn -1.000000 0.000000 0.000000
v 13.870300 1.008133 -39.583008
vt -1.001498 0.999728
vn -1.000000 0.000000 0.000000
v 13.870300 0.000000 -37.463013
vt -1.251695 0.825977
vn -0.000000 0.000000 1.000000
v 18.412598 1.008133 -37.463013
vt -2.001820 0.999728
vn -0.000000 0.000000 1.000000
v 18.412598 0.000000 -37.463013
vt -2.001821 0.825977
vn -0.000000 0.000000 1.000000
v 13.870300 1.008133 -37.463013
vt -1.251694 0.999728
vn -0.000000 0.000000 1.000000
v 7.973572 0.000000 -37.463013
vt 0.349170 0.825977
vn 1.000000 0.000000 0.000000
v 7.973572 1.008133 -39.583008
vt -0.000930 0.999728
vn 1.000000 0.000000 0.000000
v 7.973572 0.000000 -39.583008
vt -0.000931 0.825977
vn 1.000000 0.000000 0.000000
v 7.973572 1.008133 -37.463013
vt 0.349170 0.999728
vn 1.000000 0.000000 0.000000
v 4.955551 -0.000000 -37.463013
vt 0.724170 0.825977
vn -0.000000 0.000000 1.000000
v 7.973572 1.008133 -37.463013
vt 0.225737 0.999728
vn -0.000000 0.000000 1.000000
v 7.973572 0.000000 -37.463013
vt 0.225737 0.825977
vn -0.000000 0.000000 1.000000
v 4.955551 1.008133 -37.463013
vt 0.724172 0.999728
vn -0.000000 0.000000 1.000000
v 4.955551 1.008133 -37.463013
vt 0.781329 0.999728
vn 1.000000 0.000000 0.000000
v 4.955551 0.000000 -36.105713
vt 1.005507 0.825977
vn 1.000000 0.000000 0.000000
v 4.955551 1.008133 -36.105713
vt 1.005506 0.999728
vn 1.000000 0.000000 0.000000
v 4.955551 -0.000000 -37.463013
vt 0.781328 0.825977
vn 1.000000 0.000000 0.000000
v -11.089447 -0.000000 -36.105713
vt -1.762555 0.825977
vn -0.000000 0.000000 1.000000
v 4.955551 1.008133 -36.105713
vt 1.002802 0.999728
vn -0.000000 0.000000 1.000000
v 4.955551 0.000000 -36.105713
vt 1.002802 0.825977
vn -0.000000 0.000000 1.000000
v -11.089447 1.008133 -36.105713
vt -1.762555 0.999728
vn -0.000000 0.000000 1.000000
v -24.239014 0.000000 -36.105713
vt -4.127272 0.825992
vn -0.000000 0.000000 1.000000
v -11.089447 1.008133 -36.105713
vt -1.829958 0.999728
vn -0.000000 0.000000 1.000000
v -11.089447 -0.000000 -36.105713
vt -1.829958 0.825977
vn -0.000000 0.000000 1.000000
v -24.239014 1.008133 -36.105713
vt -4.127271 0.999725
vn -0.000000 0.000000 1.000000
# Faces (1 to 182)
g detail1_0
f -180/-180/-180 -181/-181/-181 -182/-182/-182
f -181/-181/-181 -179/-179/-179 -182/-182/-182
f -176/-176/-176 -177/-177/-177 -178/-178/-178
f -177/-177/-177 -175/-175/-175 -178/-178/-178
f -172/-172/-172 -173/-173/-173 -174/-174/-174
f -173/-173/-173 -171/-171/-171 -174/-174/-174
f -168/-168/-168 -169/-169/-169 -170/-170/-170
f -169/-169/-169 -167/-167/-167 -170/-170/-170
f -168/-168/-168 -170/-170/-170 -166/-166/-166
f -165/-165/-165 -168/-168/-168 -166/-166/-166
f -165/-165/-165 -166/-166/-166 -164/-164/-164
f -163/-163/-163 -165/-165/-165 -164/-164/-164
f -169/-169/-169 -162/-162/-162 -167/-167/-167
f -162/-162/-162 -161/-161/-161 -167/-167/-167
f -162/-162/-162 -160/-160/-160 -161/-161/-161
f -160/-160/-160 -159/-159/-159 -161/-161/-161
f -156/-156/-156 -157/-157/-157 -158/-158/-158
f -157/-157/-157 -155/-155/-155 -158/-158/-158
f -152/-152/-152 -153/-153/-153 -154/-154/-154
f -153/-153/-153 -151/-151/-151 -154/-154/-154
f -148/-148/-148 -149/-149/-149 -150/-150/-150
f -149/-149/-149 -147/-147/-147 -150/-150/-150
f -148/-148/-148 -150/-150/-150 -146/-146/-146
f -145/-145/-145 -148/-148/-148 -146/-146/-146
f -146/-146/-146 -150/-150/-150 -144/-144/-144
f -150/-150/-150 -143/-143/-143 -144/-144/-144
f -145/-145/-145 -146/-146/-146 -142/-142/-142
f -141/-141/-141 -145/-145/-145 -142/-142/-142
f -138/-138/-138 -139/-139/-139 -140/-140/-140
f -139/-139/-139 -137/-137/-137 -140/-140/-140
f -134/-134/-134 -135/-135/-135 -136/-136/-136
f -135/-135/-135 -133/-133/-133 -136/-136/-136
f -133/-133/-133 -135/-135/-135 -132/-132/-132
f -135/-135/-135 -131/-131/-131 -132/-132/-132
f -132/-132/-132 -131/-131/-131 -130/-130/-130
f -131/-131/-131 -129/-129/-129 -130/-130/-130
f -126/-126/-126 -127/-127/-127 -128/-128/-128
f -127/-127/-127 -125/-125/-125 -128/-128/-128
f -122/-122/-122 -123/-123/-123 -124/-124/-124
f -119/-119/-119 -120/-120/-120 -121/-121/-121
f -120/-120/-120 -118/-118/-118 -121/-121/-121
f -115/-115/-115 -116/-116/-116 -117/-117/-117
f -116/-116/-116 -114/-114/-114 -117/-117/-117
f -111/-111/-111 -112/-112/-112 -113/-113/-113
f -108/-108/-108 -109/-109/-109 -110/-110/-110
f -109/-109/-109 -107/-107/-107 -110/-110/-110
f -104/-104/-104 -105/-105/-105 -106/-106/-106
f -105/-105/-105 -103/-103/-103 -106/-106/-106
f -100/-100/-100 -101/-101/-101 -102/-102/-102
f -101/-101/-101 -99/-99/-99 -102/-102/-102
f -96/-96/-96 -97/-97/-97 -98/-98/-98
f -97/-97/-97 -95/-95/-95 -98/-98/-98
f -92/-92/-92 -93/-93/-93 -94/-94/-94
f -93/-93/-93 -91/-91/-91 -94/-94/-94
f -88/-88/-88 -89/-89/-89 -90/-90/-90
f -89/-89/-89 -87/-87/-87 -90/-90/-90
f -89/-89/-89 -88/-88/-88 -86/-86/-86
f -88/-88/-88 -85/-85/-85 -86/-86/-86
f -84/-84/-84 -90/-90/-90 -87/-87/-87
f -83/-83/-83 -84/-84/-84 -87/-87/-87
f -80/-80/-80 -81/-81/-81 -82/-82/-82
f -81/-81/-81 -79/-79/-79 -82/-82/-82
f -76/-76/-76 -77/-77/-77 -78/-78/-78
f -77/-77/-77 -75/-75/-75 -78/-78/-78
f -76/-76/-76 -78/-78/-78 -74/-74/-74
f -78/-78/-78 -73/-73/-73 -74/-74/-74
f -70/-70/-70 -71/-71/-71 -72/-72/-72
f -71/-71/-71 -69/-69/-69 -72/-72/-72
f -66/-66/-66 -67/-67/-67 -68/-68/-68
f -67/-67/-67 -65/-65/-65 -68/-68/-68
f -62/-62/-62 -63/-63/-63 -64/-64/-64
f -63/-63/-63 -61/-61/-61 -64/-64/-64
f -58/-58/-58 -59/-59/-59 -60/-60/-60
f -59/-59/-59 -57/-57/-57 -60/-60/-60
f -54/-54/-54 -55/-55/-55 -56/-56/-56
f -55/-55/-55 -53/-53/-53 -56/-56/-56
f -50/-50/-50 -51/-51/-51 -52/-52/-52
f -51/-51/-51 -49/-49/-49 -52/-52/-52
f -46/-46/-46 -47/-47/-47 -48/-48/-48
f -47/-47/-47 -45/-45/-45 -48/-48/-48
f -42/-42/-42 -43/-43/-43 -44/-44/-44
f -43/-43/-43 -41/-41/-41 -44/-44/-44
f -38/-38/-38 -39/-39/-39 -40/-40/-40
f -39/-39/-39 -37/-37/-37 -40/-40/-40
f -34/-34/-34 -35/-35/-35 -36/-36/-36
f -35/-35/-35 -33/-33/-33 -36/-36/-36
f -30/-30/-30 -31/-31/-31 -32/-32/-32
f -31/-31/-31 -29/-29/-29 -32/-32/-32
f -26/-26/-26 -27/-27/-27 -28/-28/-28
f -27/-27/-27 -25/-25/-25 -28/-28/-28
f -22/-22/-22 -23/-23/-23 -24/-24/-24
f -23/-23/-23 -21/-21/-21 -24/-24/-24
f -18/-18/-18 -19/-19/-19 -20/-20/-20
f -19/-19/-19 -17/-17/-17 -20/-20/-20
f -14/-14/-14 -15/-15/-15 -16/-16/-16
f -15/-15/-15 -13/-13/-13 -16/-16/-16
f -10/-10/-10 -11/-11/-11 -12/-12/-12
f -11/-11/-11 -9/-9/-9 -12/-12/-12
f -6/-6/-6 -7/-7/-7 -8/-8/-8
f -7/-7/-7 -5/-5/-5 -8/-8/-8
f -2/-2/-2 -3/-3/-3 -4/-4/-4
f -3/-3/-3 -1/-1/-1 -4/-4/-4

