# Mesh "Glass1" exported with Unity Assets Bundle Extractor; 96 vertices, 144 indices, 320 bits per vertex
g Glass1
# SubMesh 0
# Vertices
v 54.356213 -4.008785 0.756351
vt -8.660117 0.002278
vn -0.000000 0.000000 -1.000000
v 0.757523 -2.145242 0.756351
vt 20.040148 1.000096
vn -0.000000 0.000000 -1.000000
v 0.757523 -4.008785 0.756351
vt 20.040148 0.002164
vn -0.000000 0.000000 -1.000000
v 54.356213 -2.145242 0.756351
vt -8.660117 0.999971
vn -0.000000 0.000000 -1.000000
v 54.356213 -2.145242 19.695683
vt 20.048353 1.000273
vn -0.000000 0.000000 1.000000
v 0.757523 -4.008785 19.695683
vt -8.664018 0.001995
vn -0.000000 0.000000 1.000000
v 0.757523 -2.145242 19.695683
vt -8.664018 1.000245
vn -0.000000 0.000000 1.000000
v 54.356213 -4.008785 19.695683
vt 20.048353 0.001986
vn -0.000000 0.000000 1.000000
v 0.757523 -4.008785 0.756351
vt -18.808046 0.002149
vn -1.000000 0.000000 0.000000
v 0.757523 -2.145242 19.695683
vt -8.664018 1.000245
vn -1.000000 0.000000 0.000000
v 0.757523 -4.008785 19.695683
vt -8.664018 0.001995
vn -1.000000 0.000000 0.000000
v 0.757523 -2.145242 0.756351
vt -18.808046 1.000087
vn -1.000000 0.000000 0.000000
v 54.356213 -4.008785 19.695683
vt -18.799841 0.002273
vn 1.000000 0.000000 0.000000
v 54.356213 -2.145242 0.756351
vt -8.660117 0.999971
vn 1.000000 0.000000 0.000000
v 54.356213 -4.008785 0.756351
vt -8.660117 0.002278
vn 1.000000 0.000000 0.000000
v 54.356213 -2.145242 19.695683
vt -18.799841 0.999971
vn 1.000000 0.000000 0.000000
v 54.356213 -9.563431 0.756351
vt -8.660117 0.002278
vn -0.000000 0.000000 -1.000000
v 0.757523 -7.699887 0.756351
vt 20.040148 1.000096
vn -0.000000 0.000000 -1.000000
v 0.757523 -9.563431 0.756351
vt 20.040148 0.002164
vn -0.000000 0.000000 -1.000000
v 54.356213 -7.699887 0.756351
vt -8.660117 0.999971
vn -0.000000 0.000000 -1.000000
v 54.356213 -7.699887 19.695683
vt 20.048353 1.000273
vn -0.000000 0.000000 1.000000
v 0.757523 -9.563431 19.695683
vt -8.664018 0.001995
vn -0.000000 0.000000 1.000000
v 0.757523 -7.699887 19.695683
vt -8.664018 1.000245
vn -0.000000 0.000000 1.000000
v 54.356213 -9.563431 19.695683
vt 20.048353 0.001986
vn -0.000000 0.000000 1.000000
v 0.757523 -9.563431 0.756351
vt -18.808046 0.002149
vn -1.000000 0.000000 0.000000
v 0.757523 -7.699887 19.695683
vt -8.664018 1.000245
vn -1.000000 0.000000 0.000000
v 0.757523 -9.563431 19.695683
vt -8.664018 0.001995
vn -1.000000 0.000000 0.000000
v 0.757523 -7.699887 0.756351
vt -18.808046 1.000087
vn -1.000000 0.000000 0.000000
v 54.356213 -9.563431 19.695683
vt -18.799841 0.002273
vn 1.000000 0.000000 0.000000
v 54.356213 -7.699887 0.756351
vt -8.660117 0.999971
vn 1.000000 0.000000 0.000000
v 54.356213 -9.563431 0.756351
vt -8.660117 0.002278
vn 1.000000 0.000000 0.000000
v 54.356213 -7.699887 19.695683
vt -18.799841 0.999971
vn 1.000000 0.000000 0.000000
v 54.356213 -15.118077 0.756351
vt -8.660117 0.002278
vn -0.000000 0.000000 -1.000000
v 0.757523 -13.254533 0.756351
vt 20.040148 1.000096
vn -0.000000 0.000000 -1.000000
v 0.757523 -15.118077 0.756351
vt 20.040148 0.002164
vn -0.000000 0.000000 -1.000000
v 54.356213 -13.254533 0.756351
vt -8.660117 0.999971
vn -0.000000 0.000000 -1.000000
v 54.356213 -13.254533 19.695683
vt 20.048353 1.000273
vn -0.000000 0.000000 1.000000
v 0.757523 -15.118077 19.695683
vt -8.664018 0.001995
vn -0.000000 0.000000 1.000000
v 0.757523 -13.254533 19.695683
vt -8.664018 1.000245
vn -0.000000 0.000000 1.000000
v 54.356213 -15.118077 19.695683
vt 20.048353 0.001986
vn -0.000000 0.000000 1.000000
v 0.757523 -15.118077 0.756351
vt -18.808046 0.002149
vn -1.000000 0.000000 0.000000
v 0.757523 -13.254533 19.695683
vt -8.664018 1.000245
vn -1.000000 0.000000 0.000000
v 0.757523 -15.118077 19.695683
vt -8.664018 0.001995
vn -1.000000 0.000000 0.000000
v 0.757523 -13.254533 0.756351
vt -18.808046 1.000087
vn -1.000000 0.000000 0.000000
v 54.356213 -15.118077 19.695683
vt -18.799841 0.002273
vn 1.000000 0.000000 0.000000
v 54.356213 -13.254533 0.756351
vt -8.660117 0.999971
vn 1.000000 0.000000 0.000000
v 54.356213 -15.118077 0.756351
vt -8.660117 0.002278
vn 1.000000 0.000000 0.000000
v 54.356213 -13.254533 19.695683
vt -18.799841 0.999971
vn 1.000000 0.000000 0.000000
v 54.356213 -20.672722 0.756351
vt -8.660117 0.002278
vn -0.000000 0.000000 -1.000000
v 0.757523 -18.809177 0.756351
vt 20.040148 1.000096
vn -0.000000 0.000000 -1.000000
v 0.757523 -20.672722 0.756351
vt 20.040148 0.002164
vn -0.000000 0.000000 -1.000000
v 54.356213 -18.809177 0.756351
vt -8.660117 0.999971
vn -0.000000 0.000000 -1.000000
v 54.356213 -18.809177 19.695683
vt 20.048353 1.000273
vn -0.000000 0.000000 1.000000
v 0.757523 -20.672722 19.695683
vt -8.664018 0.001995
vn -0.000000 0.000000 1.000000
v 0.757523 -18.809177 19.695683
vt -8.664018 1.000245
vn -0.000000 0.000000 1.000000
v 54.356213 -20.672722 19.695683
vt 20.048353 0.001986
vn -0.000000 0.000000 1.000000
v 0.757523 -20.672722 0.756351
vt -18.808046 0.002149
vn -1.000000 0.000000 0.000000
v 0.757523 -18.809177 19.695683
vt -8.664018 1.000245
vn -1.000000 0.000000 0.000000
v 0.757523 -20.672722 19.695683
vt -8.664018 0.001995
vn -1.000000 0.000000 0.000000
v 0.757523 -18.809177 0.756351
vt -18.808046 1.000087
vn -1.000000 0.000000 0.000000
v 54.356213 -20.672722 19.695683
vt -18.799841 0.002273
vn 1.000000 0.000000 0.000000
v 54.356213 -18.809177 0.756351
vt -8.660117 0.999971
vn 1.000000 0.000000 0.000000
v 54.356213 -20.672722 0.756351
vt -8.660117 0.002278
vn 1.000000 0.000000 0.000000
v 54.356213 -18.809177 19.695683
vt -18.799841 0.999971
vn 1.000000 0.000000 0.000000
v 54.356213 -26.227367 0.756351
vt -8.660117 0.002278
vn -0.000000 0.000000 -1.000000
v 0.757523 -24.363823 0.756351
vt 20.040148 1.000096
vn -0.000000 0.000000 -1.000000
v 0.757523 -26.227367 0.756351
vt 20.040148 0.002164
vn -0.000000 0.000000 -1.000000
v 54.356213 -24.363823 0.756351
vt -8.660117 0.999971
vn -0.000000 0.000000 -1.000000
v 54.356213 -24.363823 19.695683
vt 20.048353 1.000273
vn -0.000000 0.000000 1.000000
v 0.757523 -26.227367 19.695683
vt -8.664018 0.001995
vn -0.000000 0.000000 1.000000
v 0.757523 -24.363823 19.695683
vt -8.664018 1.000245
vn -0.000000 0.000000 1.000000
v 54.356213 -26.227367 19.695683
vt 20.048353 0.001986
vn -0.000000 0.000000 1.000000
v 0.757523 -26.227367 0.756351
vt -18.808046 0.002149
vn -1.000000 0.000000 0.000000
v 0.757523 -24.363823 19.695683
vt -8.664018 1.000245
vn -1.000000 0.000000 0.000000
v 0.757523 -26.227367 19.695683
vt -8.664018 0.001995
vn -1.000000 0.000000 0.000000
v 0.757523 -24.363823 0.756351
vt -18.808046 1.000087
vn -1.000000 0.000000 0.000000
v 54.356213 -26.227367 19.695683
vt -18.799841 0.002273
vn 1.000000 0.000000 0.000000
v 54.356213 -24.363823 0.756351
vt -8.660117 0.999971
vn 1.000000 0.000000 0.000000
v 54.356213 -26.227367 0.756351
vt -8.660117 0.002278
vn 1.000000 0.000000 0.000000
v 54.356213 -24.363823 19.695683
vt -18.799841 0.999971
vn 1.000000 0.000000 0.000000
v 54.356213 -31.782013 0.756351
vt -8.660117 0.002278
vn -0.000000 0.000000 -1.000000
v 0.757523 -29.918468 0.756351
vt 20.040148 1.000096
vn -0.000000 0.000000 -1.000000
v 0.757523 -31.782013 0.756351
vt 20.040148 0.002164
vn -0.000000 0.000000 -1.000000
v 54.356213 -29.918468 0.756351
vt -8.660117 0.999971
vn -0.000000 0.000000 -1.000000
v 54.356213 -29.918468 19.695683
vt 20.048353 1.000273
vn -0.000000 0.000000 1.000000
v 0.757523 -31.782013 19.695683
vt -8.664018 0.001995
vn -0.000000 0.000000 1.000000
v 0.757523 -29.918468 19.695683
vt -8.664018 1.000245
vn -0.000000 0.000000 1.000000
v 54.356213 -31.782013 19.695683
vt 20.048353 0.001986
vn -0.000000 0.000000 1.000000
v 0.757523 -31.782013 0.756351
vt -18.808046 0.002149
vn -1.000000 0.000000 0.000000
v 0.757523 -29.918468 19.695683
vt -8.664018 1.000245
vn -1.000000 0.000000 0.000000
v 0.757523 -31.782013 19.695683
vt -8.664018 0.001995
vn -1.000000 0.000000 0.000000
v 0.757523 -29.918468 0.756351
vt -18.808046 1.000087
vn -1.000000 0.000000 0.000000
v 54.356213 -31.782013 19.695683
vt -18.799841 0.002273
vn 1.000000 0.000000 0.000000
v 54.356213 -29.918468 0.756351
vt -8.660117 0.999971
vn 1.000000 0.000000 0.000000
v 54.356213 -31.782013 0.756351
vt -8.660117 0.002278
vn 1.000000 0.000000 0.000000
v 54.356213 -29.918468 19.695683
vt -18.799841 0.999971
vn 1.000000 0.000000 0.000000
# Faces (1 to 96)
g Glass1_0
f -94/-94/-94 -95/-95/-95 -96/-96/-96
f -95/-95/-95 -93/-93/-93 -96/-96/-96
f -90/-90/-90 -91/-91/-91 -92/-92/-92
f -91/-91/-91 -89/-89/-89 -92/-92/-92
f -86/-86/-86 -87/-87/-87 -88/-88/-88
f -87/-87/-87 -85/-85/-85 -88/-88/-88
f -82/-82/-82 -83/-83/-83 -84/-84/-84
f -83/-83/-83 -81/-81/-81 -84/-84/-84
f -78/-78/-78 -79/-79/-79 -80/-80/-80
f -79/-79/-79 -77/-77/-77 -80/-80/-80
f -74/-74/-74 -75/-75/-75 -76/-76/-76
f -75/-75/-75 -73/-73/-73 -76/-76/-76
f -70/-70/-70 -71/-71/-71 -72/-72/-72
f -71/-71/-71 -69/-69/-69 -72/-72/-72
f -66/-66/-66 -67/-67/-67 -68/-68/-68
f -67/-67/-67 -65/-65/-65 -68/-68/-68
f -62/-62/-62 -63/-63/-63 -64/-64/-64
f -63/-63/-63 -61/-61/-61 -64/-64/-64
f -58/-58/-58 -59/-59/-59 -60/-60/-60
f -59/-59/-59 -57/-57/-57 -60/-60/-60
f -54/-54/-54 -55/-55/-55 -56/-56/-56
f -55/-55/-55 -53/-53/-53 -56/-56/-56
f -50/-50/-50 -51/-51/-51 -52/-52/-52
f -51/-51/-51 -49/-49/-49 -52/-52/-52
f -46/-46/-46 -47/-47/-47 -48/-48/-48
f -47/-47/-47 -45/-45/-45 -48/-48/-48
f -42/-42/-42 -43/-43/-43 -44/-44/-44
f -43/-43/-43 -41/-41/-41 -44/-44/-44
f -38/-38/-38 -39/-39/-39 -40/-40/-40
f -39/-39/-39 -37/-37/-37 -40/-40/-40
f -34/-34/-34 -35/-35/-35 -36/-36/-36
f -35/-35/-35 -33/-33/-33 -36/-36/-36
f -30/-30/-30 -31/-31/-31 -32/-32/-32
f -31/-31/-31 -29/-29/-29 -32/-32/-32
f -26/-26/-26 -27/-27/-27 -28/-28/-28
f -27/-27/-27 -25/-25/-25 -28/-28/-28
f -22/-22/-22 -23/-23/-23 -24/-24/-24
f -23/-23/-23 -21/-21/-21 -24/-24/-24
f -18/-18/-18 -19/-19/-19 -20/-20/-20
f -19/-19/-19 -17/-17/-17 -20/-20/-20
f -14/-14/-14 -15/-15/-15 -16/-16/-16
f -15/-15/-15 -13/-13/-13 -16/-16/-16
f -10/-10/-10 -11/-11/-11 -12/-12/-12
f -11/-11/-11 -9/-9/-9 -12/-12/-12
f -6/-6/-6 -7/-7/-7 -8/-8/-8
f -7/-7/-7 -5/-5/-5 -8/-8/-8
f -2/-2/-2 -3/-3/-3 -4/-4/-4
f -3/-3/-3 -1/-1/-1 -4/-4/-4

