# Mesh "Net" exported with Unity Assets Bundle Extractor; 144 vertices, 378 indices, 320 bits per vertex
g Net
# SubMesh 0
# Vertices
v 7.914276 11.118307 -29.700912
vt 0.306550 1.538299
vn 1.000000 0.000000 0.000000
v 7.914276 12.437857 -34.897449
vt 0.797150 -0.393739
vn 1.000000 0.000000 0.000000
v 7.914276 11.118307 -34.897449
vt 0.306550 -0.393739
vn 1.000000 0.000000 0.000000
v 7.914276 12.437857 -29.700912
vt 0.797150 1.538299
vn 1.000000 0.000000 0.000000
v 7.914276 11.118307 -29.700912
vt 0.306550 -0.393739
vn -1.000000 0.000000 0.000000
v 7.914276 12.437857 -34.897449
vt 0.797150 1.538299
vn -1.000000 0.000000 0.000000
v 7.914276 12.437857 -29.700912
vt 0.797150 -0.393739
vn -1.000000 0.000000 0.000000
v 7.914276 11.118307 -34.897449
vt 0.306550 1.538299
vn -1.000000 0.000000 0.000000
v 15.255701 11.118307 -34.897449
vt 0.306550 1.937027
vn -0.000000 0.000000 -1.000000
v 7.914277 12.437857 -34.897449
vt 0.797150 -0.792467
vn -0.000000 0.000000 -1.000000
v 7.914277 11.118307 -34.897449
vt 0.306550 -0.792467
vn -0.000000 0.000000 -1.000000
v 15.255701 12.437857 -34.897449
vt 0.797150 1.937027
vn -0.000000 0.000000 -1.000000
v 15.255701 11.118307 -34.897449
vt 0.797150 1.937029
vn -0.000000 0.000000 1.000000
v 7.914277 12.437857 -34.897449
vt 0.306550 -0.792468
vn -0.000000 0.000000 1.000000
v 15.255701 12.437857 -34.897449
vt 0.306550 1.937029
vn -0.000000 0.000000 1.000000
v 7.914277 11.118307 -34.897449
vt 0.797150 -0.792468
vn -0.000000 0.000000 1.000000
v 15.255701 11.118307 -26.371796
vt 0.306550 2.157171
vn 1.000000 0.000000 0.000000
v 15.255701 12.437857 -34.897446
vt 0.797150 -1.012611
vn 1.000000 0.000000 0.000000
v 15.255701 11.118307 -34.897446
vt 0.306550 -1.012611
vn 1.000000 0.000000 0.000000
v 15.255701 12.437857 -26.371796
vt 0.797150 2.157171
vn 1.000000 0.000000 0.000000
v 15.255701 11.118307 -26.371796
vt 0.306550 -1.012611
vn -1.000000 0.000000 0.000000
v 15.255701 12.437857 -34.897446
vt 0.797150 2.157171
vn -1.000000 0.000000 0.000000
v 15.255701 12.437857 -26.371796
vt 0.797150 -1.012611
vn -1.000000 0.000000 0.000000
v 15.255701 11.118307 -34.897446
vt 0.306550 2.157171
vn -1.000000 0.000000 0.000000
v 15.255701 11.118307 -26.371796
vt 0.306550 1.951117
vn -0.000000 0.000000 -1.000000
v 7.838490 12.437857 -26.371796
vt 0.797150 -0.806556
vn -0.000000 0.000000 -1.000000
v 7.838490 11.118307 -26.371796
vt 0.306550 -0.806556
vn -0.000000 0.000000 -1.000000
v 15.255701 12.437857 -26.371796
vt 0.797150 1.951117
vn -0.000000 0.000000 -1.000000
v 15.255701 11.118307 -26.371796
vt 0.797150 1.951117
vn -0.000000 0.000000 1.000000
v 7.838490 12.437857 -26.371796
vt 0.306550 -0.806557
vn -0.000000 0.000000 1.000000
v 15.255701 12.437857 -26.371796
vt 0.306550 1.951117
vn -0.000000 0.000000 1.000000
v 7.838490 11.118307 -26.371796
vt 0.797150 -0.806557
vn -0.000000 0.000000 1.000000
v 1.439467 11.012642 -0.893864
vt 0.014087 1.905234
vn -0.183792 0.980320 0.072068
v 2.885868 11.012642 -2.295259
vt -0.523675 1.384205
vn -0.000000 1.000000 0.000000
v 2.885868 11.012642 -1.358629
vt -0.523675 1.732437
vn -0.000000 1.000000 0.000000
v 1.439467 11.012642 -2.295259
vt 0.014087 1.384205
vn -0.028741 0.998879 0.037604
v 1.439467 11.012642 -4.479059
vt 0.014087 0.572280
vn -0.000000 1.000000 0.000000
v 2.885868 11.012642 -4.479059
vt -0.523675 0.572280
vn -0.000000 1.000000 0.000000
v -0.006934 11.012642 -2.295259
vt 0.551850 1.384205
vn -0.000000 0.999409 0.034373
v -0.006934 11.012642 -4.479059
vt 0.551850 0.572280
vn -0.000000 1.000000 0.000000
v -0.006934 11.012642 -6.662859
vt 0.551850 -0.239643
vn -0.000000 1.000000 0.000000
v 1.439467 11.012642 -6.662859
vt 0.014087 -0.239643
vn -0.000000 1.000000 0.000000
v 1.439467 11.012642 -8.846660
vt 0.014087 -1.051567
vn -0.000000 1.000000 0.000000
v 2.885868 11.012642 -6.662859
vt -0.523675 -0.239643
vn -0.000000 1.000000 0.000000
v 2.885868 11.012642 -8.846660
vt -0.523675 -1.051567
vn -0.000000 1.000000 0.000000
v -0.006934 11.012642 -8.846660
vt 0.551850 -1.051567
vn -0.000000 1.000000 0.000000
v -1.453334 11.012642 -4.479059
vt 1.089612 0.572280
vn -0.000000 1.000000 0.000000
v -1.453334 11.012642 -6.662859
vt 1.089612 -0.239643
vn -0.000000 1.000000 0.000000
v -2.899735 11.012642 -6.662859
vt 1.627376 -0.239643
vn -0.000000 1.000000 0.000000
v -1.453334 11.012642 -8.846660
vt 1.089612 -1.051567
vn -0.000000 1.000000 0.000000
v -2.899735 11.012642 -8.846660
vt 1.627376 -1.051567
vn -0.000000 1.000000 0.000000
v -2.899735 11.012642 -4.479059
vt 1.627376 0.572280
vn -0.000000 1.000000 0.000000
v -1.453334 11.012642 -2.295259
vt 1.089612 1.384205
vn 0.039116 0.998634 0.034656
v -2.899735 11.012642 -2.295259
vt 1.627376 1.384205
vn -0.000000 1.000000 0.000000
v -1.453334 11.012642 -1.037838
vt 1.089612 1.851704
vn 0.104161 0.994553 -0.003775
v -2.899735 11.012642 -1.532056
vt 1.627376 1.667958
vn -0.000000 1.000000 0.000000
v -0.885273 10.875795 -0.981293
vt 0.878410 1.872728
vn 0.157817 0.987090 0.027336
v -1.453334 11.012642 -0.111458
vt 1.089612 2.196126
vn 0.050403 0.998729 0.000000
v -2.899735 11.012642 -0.111458
vt 1.627376 2.196126
vn -0.000000 1.000000 0.000000
v -1.216435 10.976499 -0.111458
vt 1.001535 2.196126
vn 0.193737 0.980989 -0.011270
v -0.006934 10.896708 -1.175623
vt 0.551850 1.800478
vn 0.003498 0.994155 0.107909
v 0.599186 10.853177 -0.893864
vt 0.326499 1.905234
vn -0.118687 0.985402 0.122050
v 1.117901 10.776914 -0.202575
vt 0.133643 2.162249
vn -0.177139 0.953758 0.242830
v 1.214228 10.793202 -0.197849
vt 0.097830 2.164008
vn -0.458593 0.879262 0.128807
v 1.439467 11.012642 -0.156744
vt 0.014087 2.179289
vn -0.248826 0.968548 0.000000
v 2.885868 11.012642 -0.111458
vt -0.523675 2.196126
vn -0.000000 1.000000 0.000000
v 1.439467 11.012642 -0.893864
vt 0.014087 -0.760673
vn 0.183792 -0.980320 -0.072068
v 2.885868 11.012642 -2.295259
vt -0.523675 -0.239644
vn -0.000000 -1.000000 0.000000
v 1.439467 11.012642 -2.295259
vt 0.014087 -0.239644
vn 0.028741 -0.998879 -0.037604
v 2.885868 11.012642 -1.358629
vt -0.523675 -0.587876
vn -0.000000 -1.000000 0.000000
v 1.439467 11.012642 -4.479059
vt 0.014087 0.572280
vn -0.000000 -1.000000 0.000000
v 2.885868 11.012642 -4.479059
vt -0.523675 0.572280
vn -0.000000 -1.000000 0.000000
v -0.006934 11.012642 -2.295259
vt 0.551850 -0.239644
vn -0.000000 -0.999409 -0.034373
v -0.006934 11.012642 -4.479059
vt 0.551850 0.572279
vn -0.000000 -1.000000 0.000000
v -0.006934 11.012642 -6.662859
vt 0.551850 1.384204
vn -0.000000 -1.000000 0.000000
v 1.439467 11.012642 -6.662859
vt 0.014087 1.384204
vn -0.000000 -1.000000 0.000000
v 1.439467 11.012642 -8.846660
vt 0.014087 2.196126
vn -0.000000 -1.000000 0.000000
v 2.885868 11.012642 -6.662859
vt -0.523675 1.384204
vn -0.000000 -1.000000 0.000000
v 2.885868 11.012642 -8.846660
vt -0.523675 2.196126
vn -0.000000 -1.000000 0.000000
v -0.006934 11.012642 -8.846660
vt 0.551850 2.196126
vn -0.000000 -1.000000 0.000000
v -1.453334 11.012642 -4.479059
vt 1.089612 0.572279
vn -0.000000 -1.000000 0.000000
v -1.453334 11.012642 -6.662859
vt 1.089612 1.384204
vn -0.000000 -1.000000 0.000000
v -2.899735 11.012642 -6.662859
vt 1.627375 1.384204
vn -0.000000 -1.000000 0.000000
v -1.453334 11.012642 -8.846660
vt 1.089612 2.196126
vn -0.000000 -1.000000 0.000000
v -2.899735 11.012642 -8.846660
vt 1.627375 2.196126
vn -0.000000 -1.000000 0.000000
v -2.899735 11.012642 -4.479059
vt 1.627375 0.572280
vn -0.000000 -1.000000 0.000000
v -1.453334 11.012642 -2.295259
vt 1.089612 -0.239644
vn -0.039116 -0.998634 -0.034656
v -2.899735 11.012642 -2.295259
vt 1.627375 -0.239644
vn -0.000000 -1.000000 0.000000
v -1.453334 11.012642 -1.037838
vt 1.089612 -0.707144
vn -0.104161 -0.994553 0.003775
v -2.899735 11.012642 -1.532056
vt 1.627375 -0.523397
vn -0.000000 -1.000000 0.000000
v -0.885273 10.875795 -0.981293
vt 0.878410 -0.728167
vn -0.157817 -0.987090 -0.027336
v -1.453334 11.012642 -0.111458
vt 1.089612 -1.051566
vn -0.050403 -0.998729 0.000000
v -2.899735 11.012642 -0.111458
vt 1.627375 -1.051566
vn -0.000000 -1.000000 0.000000
v -1.216435 10.976499 -0.111458
vt 1.001535 -1.051566
vn -0.193737 -0.980989 0.011270
v -0.006934 10.896708 -1.175623
vt 0.551850 -0.655916
vn -0.003498 -0.994155 -0.107909
v 0.599186 10.853177 -0.893864
vt 0.326499 -0.760673
vn 0.118687 -0.985402 -0.122050
v 1.117901 10.776914 -0.202575
vt 0.133644 -1.017690
vn 0.177139 -0.953758 -0.242830
v 1.214228 10.793202 -0.197849
vt 0.097830 -1.019447
vn 0.458593 -0.879262 -0.128807
v 1.439467 11.012642 -0.156744
vt 0.014087 -1.034729
vn 0.248826 -0.968548 0.000000
v 2.885868 11.012642 -0.111458
vt -0.523675 -1.051566
vn -0.000000 -1.000000 0.000000
v -2.899735 11.012642 -9.042422
vt 1.627376 2.196126
vn -0.000000 1.000000 0.000000
v 2.885868 11.012642 -17.777624
vt -0.523676 -1.051567
vn -0.000000 1.000000 0.000000
v 2.885868 11.012642 -9.042422
vt -0.523676 2.196126
vn -0.000000 1.000000 0.000000
v -2.899735 11.012642 -17.777624
vt 1.627376 -1.051567
vn -0.000000 1.000000 0.000000
v -2.899735 11.012642 -9.042422
vt 1.627375 -1.051566
vn -0.000000 -1.000000 0.000000
v 2.885868 11.012642 -17.777624
vt -0.523675 2.196126
vn -0.000000 -1.000000 0.000000
v -2.899735 11.012642 -17.777624
vt 1.627375 2.196126
vn -0.000000 -1.000000 0.000000
v 2.885868 11.012642 -9.042422
vt -0.523675 -1.051566
vn -0.000000 -1.000000 0.000000
v 13.170715 5.500539 -33.246033
vt 0.797150 0.184689
vn -0.000000 0.000000 1.000000
v 15.255703 6.820088 -33.246033
vt 0.306550 0.959872
vn -0.000000 0.000000 1.000000
v 15.255703 5.500539 -33.246033
vt 0.797150 0.959872
vn -0.000000 0.000000 1.000000
v 13.170715 6.820088 -33.246033
vt 0.306550 0.184689
vn -0.000000 0.000000 1.000000
v 7.763819 5.500539 -29.074459
vt 0.797150 0.108292
vn -0.000000 0.000000 1.000000
v 10.259765 6.820088 -29.074459
vt 0.306550 1.036268
vn -0.000000 0.000000 1.000000
v 10.259765 5.500539 -29.074459
vt 0.797150 1.036268
vn -0.000000 0.000000 1.000000
v 7.763819 6.820088 -29.074459
vt 0.306550 0.108292
vn -0.000000 0.000000 1.000000
v 15.255703 5.500539 -27.159443
vt 0.306550 1.964998
vn -0.000000 0.000000 -1.000000
v 7.763818 6.820088 -27.159443
vt 0.797150 -0.820438
vn -0.000000 0.000000 -1.000000
v 7.763818 5.500539 -27.159443
vt 0.306550 -0.820438
vn -0.000000 0.000000 -1.000000
v 15.255703 6.820088 -27.159443
vt 0.797150 1.964998
vn -0.000000 0.000000 -1.000000
v 13.170714 5.500539 -29.074459
vt 0.971338 1.189812
vn -0.000000 1.000000 0.000000
v 15.255703 5.500539 -33.246033
vt -0.579628 1.964998
vn -0.000000 1.000000 0.000000
v 15.255703 5.500539 -27.159443
vt 1.683328 1.964998
vn -0.000000 1.000000 0.000000
v 13.170715 5.500539 -33.246033
vt -0.579628 1.189812
vn -0.000000 1.000000 0.000000
v 7.763819 5.500539 -29.074459
vt 0.971338 -0.820437
vn -0.000000 1.000000 0.000000
v 7.763818 5.500539 -27.159443
vt 1.683328 -0.820437
vn -0.000000 1.000000 0.000000
v 13.170715 5.500539 -33.246033
vt 0.306550 0.184688
vn -0.000000 0.000000 -1.000000
v 15.255703 6.820088 -33.246033
vt 0.797151 0.959872
vn -0.000000 0.000000 -1.000000
v 13.170715 6.820088 -33.246033
vt 0.797151 0.184688
vn -0.000000 0.000000 -1.000000
v 15.255703 5.500539 -33.246033
vt 0.306550 0.959872
vn -0.000000 0.000000 -1.000000
v 7.763819 5.500539 -29.074459
vt 0.306549 0.108292
vn -0.000000 0.000000 -1.000000
v 10.259765 6.820088 -29.074459
vt 0.797151 1.036268
vn -0.000000 0.000000 -1.000000
v 7.763819 6.820088 -29.074459
vt 0.797151 0.108292
vn -0.000000 0.000000 -1.000000
v 10.259765 5.500539 -29.074459
vt 0.306549 1.036268
vn -0.000000 0.000000 -1.000000
v 15.255703 5.500539 -27.159443
vt 0.797150 1.964998
vn -0.000000 0.000000 1.000000
v 7.763818 6.820088 -27.159443
vt 0.306550 -0.820437
vn -0.000000 0.000000 1.000000
v 15.255703 6.820088 -27.159443
vt 0.306550 1.964998
vn -0.000000 0.000000 1.000000
v 7.763818 5.500539 -27.159443
vt 0.797150 -0.820437
vn -0.000000 0.000000 1.000000
v 13.170714 5.500539 -29.074459
vt 0.132363 1.189812
vn -0.000000 -1.000000 0.000000
v 15.255703 5.500539 -33.246033
vt 1.683328 1.964998
vn -0.000000 -1.000000 0.000000
v 13.170715 5.500539 -33.246033
vt 1.683328 1.189813
vn -0.000000 -1.000000 0.000000
v 15.255703 5.500539 -27.159443
vt -0.579628 1.964998
vn -0.000000 -1.000000 0.000000
v 7.763819 5.500539 -29.074459
vt 0.132363 -0.820437
vn -0.000000 -1.000000 0.000000
v 7.763818 5.500539 -27.159443
vt -0.579628 -0.820438
vn -0.000000 -1.000000 0.000000
# Faces (1 to 144)
g Net_0
f -142/-142/-142 -143/-143/-143 -144/-144/-144
f -143/-143/-143 -141/-141/-141 -144/-144/-144
f -138/-138/-138 -139/-139/-139 -140/-140/-140
f -139/-139/-139 -137/-137/-137 -140/-140/-140
f -134/-134/-134 -135/-135/-135 -136/-136/-136
f -135/-135/-135 -133/-133/-133 -136/-136/-136
f -130/-130/-130 -131/-131/-131 -132/-132/-132
f -131/-131/-131 -129/-129/-129 -132/-132/-132
f -126/-126/-126 -127/-127/-127 -128/-128/-128
f -127/-127/-127 -125/-125/-125 -128/-128/-128
f -122/-122/-122 -123/-123/-123 -124/-124/-124
f -123/-123/-123 -121/-121/-121 -124/-124/-124
f -118/-118/-118 -119/-119/-119 -120/-120/-120
f -119/-119/-119 -117/-117/-117 -120/-120/-120
f -114/-114/-114 -115/-115/-115 -116/-116/-116
f -115/-115/-115 -113/-113/-113 -116/-116/-116
f -110/-110/-110 -111/-111/-111 -112/-112/-112
f -111/-111/-111 -109/-109/-109 -112/-112/-112
f -108/-108/-108 -109/-109/-109 -111/-111/-111
f -107/-107/-107 -108/-108/-108 -111/-111/-111
f -106/-106/-106 -109/-109/-109 -108/-108/-108
f -105/-105/-105 -106/-106/-106 -108/-108/-108
f -105/-105/-105 -108/-108/-108 -104/-104/-104
f -108/-108/-108 -103/-103/-103 -104/-104/-104
f -104/-104/-104 -103/-103/-103 -102/-102/-102
f -102/-102/-102 -103/-103/-103 -101/-101/-101
f -107/-107/-107 -101/-101/-101 -108/-108/-108
f -101/-101/-101 -103/-103/-103 -108/-108/-108
f -100/-100/-100 -102/-102/-102 -101/-101/-101
f -99/-99/-99 -104/-104/-104 -102/-102/-102
f -105/-105/-105 -104/-104/-104 -98/-98/-98
f -105/-105/-105 -98/-98/-98 -106/-106/-106
f -104/-104/-104 -97/-97/-97 -98/-98/-98
f -98/-98/-98 -97/-97/-97 -96/-96/-96
f -96/-96/-96 -97/-97/-97 -95/-95/-95
f -99/-99/-99 -95/-95/-95 -104/-104/-104
f -95/-95/-95 -97/-97/-97 -104/-104/-104
f -94/-94/-94 -96/-96/-96 -95/-95/-95
f -93/-93/-93 -98/-98/-98 -96/-96/-96
f -98/-98/-98 -92/-92/-92 -106/-106/-106
f -93/-93/-93 -91/-91/-91 -98/-98/-98
f -91/-91/-91 -92/-92/-92 -98/-98/-98
f -90/-90/-90 -92/-92/-92 -91/-91/-91
f -89/-89/-89 -90/-90/-90 -91/-91/-91
f -88/-88/-88 -92/-92/-92 -90/-90/-90
f -87/-87/-87 -90/-90/-90 -89/-89/-89
f -86/-86/-86 -87/-87/-87 -89/-89/-89
f -85/-85/-85 -88/-88/-88 -90/-90/-90
f -85/-85/-85 -90/-90/-90 -87/-87/-87
f -88/-88/-88 -84/-84/-84 -92/-92/-92
f -84/-84/-84 -106/-106/-106 -92/-92/-92
f -84/-84/-84 -109/-109/-109 -106/-106/-106
f -84/-84/-84 -83/-83/-83 -109/-109/-109
f -83/-83/-83 -112/-112/-112 -109/-109/-109
f -83/-83/-83 -82/-82/-82 -112/-112/-112
f -82/-82/-82 -81/-81/-81 -112/-112/-112
f -81/-81/-81 -80/-80/-80 -112/-112/-112
f -110/-110/-110 -112/-112/-112 -80/-80/-80
f -79/-79/-79 -110/-110/-110 -80/-80/-80
f -76/-76/-76 -77/-77/-77 -78/-78/-78
f -77/-77/-77 -75/-75/-75 -78/-78/-78
f -76/-76/-76 -74/-74/-74 -77/-77/-77
f -74/-74/-74 -73/-73/-73 -77/-77/-77
f -76/-76/-76 -72/-72/-72 -74/-74/-74
f -72/-72/-72 -71/-71/-71 -74/-74/-74
f -74/-74/-74 -71/-71/-71 -70/-70/-70
f -69/-69/-69 -74/-74/-74 -70/-70/-70
f -69/-69/-69 -70/-70/-70 -68/-68/-68
f -69/-69/-69 -68/-68/-68 -67/-67/-67
f -69/-69/-69 -67/-67/-67 -74/-74/-74
f -67/-67/-67 -73/-73/-73 -74/-74/-74
f -68/-68/-68 -66/-66/-66 -67/-67/-67
f -70/-70/-70 -65/-65/-65 -68/-68/-68
f -70/-70/-70 -71/-71/-71 -64/-64/-64
f -64/-64/-64 -71/-71/-71 -72/-72/-72
f -63/-63/-63 -70/-70/-70 -64/-64/-64
f -63/-63/-63 -64/-64/-64 -62/-62/-62
f -63/-63/-63 -62/-62/-62 -61/-61/-61
f -63/-63/-63 -61/-61/-61 -70/-70/-70
f -61/-61/-61 -65/-65/-65 -70/-70/-70
f -62/-62/-62 -60/-60/-60 -61/-61/-61
f -64/-64/-64 -59/-59/-59 -62/-62/-62
f -58/-58/-58 -64/-64/-64 -72/-72/-72
f -58/-58/-58 -57/-57/-57 -64/-64/-64
f -57/-57/-57 -59/-59/-59 -64/-64/-64
f -58/-58/-58 -56/-56/-56 -57/-57/-57
f -56/-56/-56 -55/-55/-55 -57/-57/-57
f -58/-58/-58 -54/-54/-54 -56/-56/-56
f -56/-56/-56 -53/-53/-53 -55/-55/-55
f -53/-53/-53 -52/-52/-52 -55/-55/-55
f -54/-54/-54 -51/-51/-51 -56/-56/-56
f -56/-56/-56 -51/-51/-51 -53/-53/-53
f -50/-50/-50 -54/-54/-54 -58/-58/-58
f -72/-72/-72 -50/-50/-50 -58/-58/-58
f -76/-76/-76 -50/-50/-50 -72/-72/-72
f -49/-49/-49 -50/-50/-50 -76/-76/-76
f -78/-78/-78 -49/-49/-49 -76/-76/-76
f -48/-48/-48 -49/-49/-49 -78/-78/-78
f -47/-47/-47 -48/-48/-48 -78/-78/-78
f -46/-46/-46 -47/-47/-47 -78/-78/-78
f -78/-78/-78 -75/-75/-75 -46/-46/-46
f -75/-75/-75 -45/-45/-45 -46/-46/-46
f -42/-42/-42 -43/-43/-43 -44/-44/-44
f -43/-43/-43 -41/-41/-41 -44/-44/-44
f -38/-38/-38 -39/-39/-39 -40/-40/-40
f -39/-39/-39 -37/-37/-37 -40/-40/-40
f -34/-34/-34 -35/-35/-35 -36/-36/-36
f -35/-35/-35 -33/-33/-33 -36/-36/-36
f -30/-30/-30 -31/-31/-31 -32/-32/-32
f -31/-31/-31 -29/-29/-29 -32/-32/-32
f -26/-26/-26 -27/-27/-27 -28/-28/-28
f -27/-27/-27 -25/-25/-25 -28/-28/-28
f -22/-22/-22 -23/-23/-23 -24/-24/-24
f -23/-23/-23 -21/-21/-21 -24/-24/-24
f -24/-24/-24 -20/-20/-20 -22/-22/-22
f -20/-20/-20 -19/-19/-19 -22/-22/-22
f -16/-16/-16 -17/-17/-17 -18/-18/-18
f -17/-17/-17 -15/-15/-15 -18/-18/-18
f -12/-12/-12 -13/-13/-13 -14/-14/-14
f -13/-13/-13 -11/-11/-11 -14/-14/-14
f -8/-8/-8 -9/-9/-9 -10/-10/-10
f -9/-9/-9 -7/-7/-7 -10/-10/-10
f -4/-4/-4 -5/-5/-5 -6/-6/-6
f -5/-5/-5 -3/-3/-3 -6/-6/-6
f -2/-2/-2 -6/-6/-6 -3/-3/-3
f -1/-1/-1 -2/-2/-2 -3/-3/-3

