# Mesh "Props1" exported with Unity Assets Bundle Extractor; 196 vertices, 384 indices, 320 bits per vertex
g Props1
# SubMesh 0
# Vertices
v -18.089912 16.396074 -24.390324
vt 0.232336 0.746461
vn -0.000000 -0.608905 0.793244
v -17.966610 20.991373 -20.862909
vt 0.223596 0.335832
vn -0.000000 -0.608905 0.793244
v -17.966610 16.396074 -24.390324
vt 0.223596 0.746461
vn -0.000000 -0.608905 0.793244
v -18.089912 20.991373 -20.862909
vt 0.232336 0.335832
vn -0.000000 -0.608905 0.793244
v -18.089912 21.066454 -20.960724
vt 0.241076 0.335832
vn -0.000000 0.608904 -0.793244
v -17.966610 16.471155 -24.488129
vt 0.249816 0.746461
vn -0.000000 0.608904 -0.793244
v -17.966610 21.066454 -20.960724
vt 0.249816 0.335832
vn -0.000000 0.608904 -0.793244
v -18.089912 16.471155 -24.488129
vt 0.241076 0.746461
vn -0.000000 0.608904 -0.793244
v -17.966610 16.396074 -24.390324
vt 0.258556 0.746461
vn 1.000000 0.000000 0.000000
v -17.966610 21.066454 -20.960724
vt 0.249816 0.335832
vn 1.000000 0.000000 0.000000
v -17.966610 16.471155 -24.488129
vt 0.249816 0.746461
vn 1.000000 0.000000 0.000000
v -17.966610 20.991373 -20.862909
vt 0.258557 0.335832
vn 1.000000 0.000000 0.000000
v -18.089912 16.471155 -24.488129
vt 0.241076 0.746461
vn -1.000000 0.000000 0.000000
v -18.089912 20.991373 -20.862909
vt 0.232336 0.335832
vn -1.000000 0.000000 0.000000
v -18.089912 16.396074 -24.390324
vt 0.232336 0.746461
vn -1.000000 0.000000 0.000000
v -18.089912 21.066454 -20.960724
vt 0.241076 0.335832
vn -1.000000 0.000000 0.000000
v -24.848473 17.472490 -20.964808
vt 0.425014 0.828757
vn 0.327330 0.000000 -0.944910
v -24.908447 18.671991 -20.964808
vt 0.339990 0.833008
vn -0.327330 0.000000 -0.944910
v -24.908447 17.472490 -20.964808
vt 0.425014 0.833008
vn -0.654660 0.000000 -0.755924
v -24.848473 18.671991 -20.964808
vt 0.339990 0.828757
vn 0.654660 0.000000 -0.755924
v -24.938435 18.671991 -20.912867
vt 0.339990 0.836689
vn -0.981982 0.000000 -0.188973
v -24.938435 17.472490 -20.912867
vt 0.425014 0.836690
vn -0.981979 0.000000 0.188989
v -24.908447 18.671991 -20.860928
vt 0.339990 0.840371
vn -0.654651 0.000000 0.755931
v -24.908447 17.472490 -20.860928
vt 0.425014 0.840372
vn -0.327326 0.000000 0.944912
v -24.818485 17.472490 -20.912867
vt 0.425014 0.825075
vn 0.981982 0.000000 -0.188973
v -24.818485 18.671991 -20.912867
vt 0.339990 0.825075
vn 0.981979 0.000000 0.188989
v -24.848473 17.472490 -20.860928
vt 0.425014 0.821394
vn 0.654651 0.000000 0.755931
v -24.848473 18.671991 -20.860928
vt 0.339990 0.821393
vn 0.327326 0.000000 0.944912
v -24.908447 17.472490 -20.860928
vt 0.425014 0.817143
vn -0.327326 0.000000 0.944912
v -24.908447 18.671991 -20.860928
vt 0.339990 0.817142
vn -0.654651 0.000000 0.755931
v -21.302998 17.472490 -20.964808
vt 0.424660 0.886902
vn 0.327330 0.000000 -0.944910
v -21.362972 18.671991 -20.964808
vt 0.339636 0.891155
vn -0.327330 0.000000 -0.944910
v -21.362972 17.472490 -20.964808
vt 0.424660 0.891152
vn -0.654660 0.000000 -0.755924
v -21.302998 18.671991 -20.964808
vt 0.339636 0.886903
vn 0.654660 0.000000 -0.755924
v -21.392960 18.671991 -20.912867
vt 0.339636 0.894837
vn -0.981982 0.000000 -0.188973
v -21.392960 17.472490 -20.912867
vt 0.424660 0.894834
vn -0.981979 0.000000 0.188989
v -21.362972 18.671991 -20.860928
vt 0.339636 0.898519
vn -0.654651 0.000000 0.755931
v -21.362972 17.472490 -20.860928
vt 0.424660 0.898515
vn -0.327326 0.000000 0.944912
v -21.273010 17.472490 -20.912867
vt 0.424660 0.883221
vn 0.981982 0.000000 -0.188973
v -21.273010 18.671991 -20.912867
vt 0.339636 0.883221
vn 0.981979 0.000000 0.188989
v -21.302998 17.472490 -20.860928
vt 0.424660 0.879539
vn 0.654651 0.000000 0.755931
v -21.302998 18.671991 -20.860928
vt 0.339636 0.879539
vn 0.327326 0.000000 0.944912
v -21.362972 17.472490 -20.860928
vt 0.424660 0.875288
vn -0.327326 0.000000 0.944912
v -21.362972 18.671991 -20.860928
vt 0.339636 0.875288
vn -0.654651 0.000000 0.755931
v -17.757523 17.472490 -20.964808
vt 0.425123 0.770157
vn 0.327330 0.000000 -0.944910
v -17.817497 18.671991 -20.964808
vt 0.340099 0.774408
vn -0.327330 0.000000 -0.944910
v -17.817497 17.472490 -20.964808
vt 0.425123 0.774408
vn -0.654660 0.000000 -0.755924
v -17.757523 18.671991 -20.964808
vt 0.340099 0.770157
vn 0.654660 0.000000 -0.755924
v -17.847485 18.671991 -20.912867
vt 0.340099 0.778089
vn -0.981982 0.000000 -0.188973
v -17.847485 17.472490 -20.912867
vt 0.425123 0.778089
vn -0.981979 0.000000 0.188989
v -17.817497 18.671991 -20.860928
vt 0.340099 0.781771
vn -0.654651 0.000000 0.755931
v -17.817497 17.472490 -20.860928
vt 0.425123 0.781771
vn -0.327326 0.000000 0.944912
v -17.727535 17.472490 -20.912867
vt 0.425123 0.766475
vn 0.981982 0.000000 -0.188973
v -17.727535 18.671991 -20.912867
vt 0.340099 0.766475
vn 0.981979 0.000000 0.188989
v -17.757523 17.472490 -20.860928
vt 0.425123 0.762793
vn 0.654651 0.000000 0.755931
v -17.757523 18.671991 -20.860928
vt 0.340099 0.762793
vn 0.327326 0.000000 0.944912
v -17.817497 17.472490 -20.860928
vt 0.425123 0.758541
vn -0.327326 0.000000 0.944912
v -17.817497 18.671991 -20.860928
vt 0.340099 0.758543
vn -0.654651 0.000000 0.755931
v -25.118073 18.134386 -20.829956
vt 0.425096 0.516142
vn -0.000000 0.000000 1.000000
v -17.564232 21.210703 -20.829956
vt 0.960534 0.734200
vn -0.000000 0.000000 1.000000
v -17.564232 18.134386 -20.829956
vt 0.960534 0.516142
vn -0.000000 0.000000 1.000000
v -25.118073 21.210703 -20.829956
vt 0.425096 0.734200
vn -0.000000 0.000000 1.000000
v -25.118073 21.210703 -20.829956
vt 0.425096 0.734200
vn -0.000000 1.000000 0.000000
v -17.564232 21.210703 -21.000933
vt 0.960534 0.746319
vn -0.000000 1.000000 0.000000
v -17.564232 21.210703 -20.829956
vt 0.960534 0.734200
vn -0.000000 1.000000 0.000000
v -25.118073 21.210703 -21.000933
vt 0.425096 0.746319
vn -0.000000 1.000000 0.000000
v -25.118073 21.210703 -21.000933
vt 0.436817 0.754052
vn -0.000000 0.000000 -1.000000
v -17.564232 18.134386 -21.000933
vt 0.972255 0.972110
vn -0.000000 0.000000 -1.000000
v -17.564232 21.210703 -21.000933
vt 0.972255 0.754052
vn -0.000000 0.000000 -1.000000
v -25.118073 18.134386 -21.000933
vt 0.436817 0.972110
vn -0.000000 0.000000 -1.000000
v -25.118073 18.134386 -21.000933
vt 0.425096 0.504022
vn -0.000000 -1.000000 0.000000
v -17.564232 18.134386 -20.829956
vt 0.960534 0.516142
vn -0.000000 -1.000000 0.000000
v -17.564232 18.134386 -21.000933
vt 0.960534 0.504022
vn -0.000000 -1.000000 0.000000
v -25.118073 18.134386 -20.829956
vt 0.425096 0.516142
vn -0.000000 -1.000000 0.000000
v -17.564232 18.134386 -20.829956
vt 0.960534 0.516142
vn 1.000000 0.000000 0.000000
v -17.564232 21.210703 -21.000933
vt 0.972654 0.734200
vn 1.000000 0.000000 0.000000
v -17.564232 18.134386 -21.000933
vt 0.972654 0.516142
vn 1.000000 0.000000 0.000000
v -17.564232 21.210703 -20.829956
vt 0.960534 0.734200
vn 1.000000 0.000000 0.000000
v -25.118073 18.134386 -21.000933
vt 0.412977 0.516142
vn -1.000000 0.000000 0.000000
v -25.118073 21.210703 -20.829956
vt 0.425096 0.734200
vn -1.000000 0.000000 0.000000
v -25.118073 18.134386 -20.829956
vt 0.425096 0.516142
vn -1.000000 0.000000 0.000000
v -25.118073 21.210703 -21.000933
vt 0.412976 0.734200
vn -1.000000 0.000000 0.000000
v -24.777596 16.396074 -24.390324
vt 0.296255 0.746453
vn -0.000000 -0.608905 0.793244
v -24.654293 20.991373 -20.862909
vt 0.287515 0.335832
vn -0.000000 -0.608905 0.793244
v -24.654293 16.396074 -24.390324
vt 0.287515 0.746453
vn -0.000000 -0.608905 0.793244
v -24.777596 20.991373 -20.862909
vt 0.296255 0.335832
vn -0.000000 -0.608905 0.793244
v -24.777596 21.066454 -20.960724
vt 0.270035 0.335832
vn -0.000000 0.608904 -0.793244
v -24.654293 16.471155 -24.488129
vt 0.278775 0.746453
vn -0.000000 0.608904 -0.793244
v -24.654293 21.066454 -20.960724
vt 0.278775 0.335832
vn -0.000000 0.608904 -0.793244
v -24.777596 16.471155 -24.488129
vt 0.270035 0.746453
vn -0.000000 0.608904 -0.793244
v -24.654293 16.396074 -24.390324
vt 0.287515 0.746453
vn 1.000000 0.000000 0.000000
v -24.654293 21.066454 -20.960724
vt 0.278775 0.335832
vn 1.000000 0.000000 0.000000
v -24.654293 16.471155 -24.488129
vt 0.278775 0.746453
vn 1.000000 0.000000 0.000000
v -24.654293 20.991373 -20.862909
vt 0.287515 0.335832
vn 1.000000 0.000000 0.000000
v -24.777596 16.471155 -24.488129
vt 0.304995 0.746452
vn -1.000000 0.000000 0.000000
v -24.777596 20.991373 -20.862909
vt 0.296255 0.335832
vn -1.000000 0.000000 0.000000
v -24.777596 16.396074 -24.390324
vt 0.296255 0.746453
vn -1.000000 0.000000 0.000000
v -24.777596 21.066454 -20.960724
vt 0.304995 0.335832
vn -1.000000 0.000000 0.000000
v 8.897676 16.396074 -24.390324
vt 0.326344 0.746454
vn -0.000000 -0.608905 0.793244
v 9.020979 20.991373 -20.862909
vt 0.317603 0.335832
vn -0.000000 -0.608905 0.793244
v 9.020979 16.396074 -24.390324
vt 0.317604 0.746454
vn -0.000000 -0.608905 0.793244
v 8.897676 20.991373 -20.862909
vt 0.326343 0.335832
vn -0.000000 -0.608905 0.793244
v 8.897676 21.066454 -20.960724
vt 0.335083 0.335832
vn -0.000000 0.608904 -0.793244
v 9.020979 16.471155 -24.488129
vt 0.343823 0.746454
vn -0.000000 0.608904 -0.793244
v 9.020979 21.066454 -20.960724
vt 0.343823 0.335832
vn -0.000000 0.608904 -0.793244
v 8.897676 16.471155 -24.488129
vt 0.335083 0.746454
vn -0.000000 0.608904 -0.793244
v 9.020979 16.396074 -24.390324
vt 0.352563 0.746454
vn 1.000000 0.000000 0.000000
v 9.020979 21.066454 -20.960724
vt 0.343823 0.335832
vn 1.000000 0.000000 0.000000
v 9.020979 16.471155 -24.488129
vt 0.343823 0.746454
vn 1.000000 0.000000 0.000000
v 9.020979 20.991373 -20.862909
vt 0.352564 0.335832
vn 1.000000 0.000000 0.000000
v 8.897676 16.471155 -24.488129
vt 0.335083 0.746454
vn -1.000000 0.000000 0.000000
v 8.897676 20.991373 -20.862909
vt 0.326343 0.335832
vn -1.000000 0.000000 0.000000
v 8.897676 16.396074 -24.390324
vt 0.326344 0.746454
vn -1.000000 0.000000 0.000000
v 8.897676 21.066454 -20.960724
vt 0.335083 0.335832
vn -1.000000 0.000000 0.000000
v 2.139114 17.472490 -20.964808
vt 0.425170 0.799457
vn 0.327330 0.000000 -0.944910
v 2.079140 18.671991 -20.964808
vt 0.340146 0.803708
vn -0.327330 0.000000 -0.944910
v 2.079140 17.472490 -20.964808
vt 0.425170 0.803708
vn -0.654660 0.000000 -0.755924
v 2.139114 18.671991 -20.964808
vt 0.340146 0.799457
vn 0.654660 0.000000 -0.755924
v 2.049152 18.671991 -20.912867
vt 0.340146 0.807389
vn -0.981982 0.000000 -0.188973
v 2.049152 17.472490 -20.912867
vt 0.425170 0.807391
vn -0.981979 0.000000 0.188989
v 2.079140 18.671991 -20.860928
vt 0.340146 0.811071
vn -0.654651 0.000000 0.755931
v 2.079140 17.472490 -20.860928
vt 0.425170 0.811072
vn -0.327326 0.000000 0.944912
v 2.169102 17.472490 -20.912867
vt 0.425170 0.795775
vn 0.981982 0.000000 -0.188973
v 2.169102 18.671991 -20.912867
vt 0.340146 0.795775
vn 0.981979 0.000000 0.188989
v 2.139114 17.472490 -20.860928
vt 0.425170 0.792093
vn 0.654651 0.000000 0.755931
v 2.139114 18.671991 -20.860928
vt 0.340146 0.792094
vn 0.327326 0.000000 0.944912
v 2.079140 17.472490 -20.860928
vt 0.425170 0.787842
vn -0.327326 0.000000 0.944912
v 2.079140 18.671991 -20.860928
vt 0.340146 0.787843
vn -0.654651 0.000000 0.755931
v 5.684589 17.472490 -20.964808
vt 0.425031 0.913655
vn 0.327330 0.000000 -0.944910
v 5.624615 18.671991 -20.964808
vt 0.340007 0.917906
vn -0.327330 0.000000 -0.944910
v 5.624615 17.472490 -20.964808
vt 0.425031 0.917906
vn -0.654660 0.000000 -0.755924
v 5.684589 18.671991 -20.964808
vt 0.340007 0.913655
vn 0.654660 0.000000 -0.755924
v 5.594627 18.671991 -20.912867
vt 0.340007 0.921588
vn -0.981982 0.000000 -0.188973
v 5.594627 17.472490 -20.912867
vt 0.425031 0.921588
vn -0.981979 0.000000 0.188989
v 5.624615 18.671991 -20.860928
vt 0.340007 0.925269
vn -0.654651 0.000000 0.755931
v 5.624615 17.472490 -20.860928
vt 0.425031 0.925269
vn -0.327326 0.000000 0.944912
v 5.714577 17.472490 -20.912867
vt 0.425031 0.909973
vn 0.981982 0.000000 -0.188973
v 5.714577 18.671991 -20.912867
vt 0.340007 0.909973
vn 0.981979 0.000000 0.188989
v 5.684589 17.472490 -20.860928
vt 0.425031 0.906291
vn 0.654651 0.000000 0.755931
v 5.684589 18.671991 -20.860928
vt 0.340007 0.906291
vn 0.327326 0.000000 0.944912
v 5.624615 17.472490 -20.860928
vt 0.425031 0.902040
vn -0.327326 0.000000 0.944912
v 5.624615 18.671991 -20.860928
vt 0.340007 0.902040
vn -0.654651 0.000000 0.755931
v 9.230066 17.472490 -20.964808
vt 0.424651 0.858057
vn 0.327330 0.000000 -0.944910
v 9.170092 18.671991 -20.964808
vt 0.339627 0.862309
vn -0.327330 0.000000 -0.944910
v 9.170092 17.472490 -20.964808
vt 0.424651 0.862308
vn -0.654660 0.000000 -0.755924
v 9.230066 18.671991 -20.964808
vt 0.339627 0.858057
vn 0.654660 0.000000 -0.755924
v 9.140104 18.671991 -20.912867
vt 0.339627 0.865991
vn -0.981982 0.000000 -0.188973
v 9.140104 17.472490 -20.912867
vt 0.424651 0.865989
vn -0.981979 0.000000 0.188989
v 9.170092 18.671991 -20.860928
vt 0.339627 0.869672
vn -0.654651 0.000000 0.755931
v 9.170092 17.472490 -20.860928
vt 0.424651 0.869671
vn -0.327326 0.000000 0.944912
v 9.260054 17.472490 -20.912867
vt 0.424651 0.854375
vn 0.981982 0.000000 -0.188973
v 9.260054 18.671991 -20.912867
vt 0.339627 0.854376
vn 0.981979 0.000000 0.188989
v 9.230066 17.472490 -20.860928
vt 0.424651 0.850694
vn 0.654651 0.000000 0.755931
v 9.230066 18.671991 -20.860928
vt 0.339627 0.850694
vn 0.327326 0.000000 0.944912
v 9.170092 17.472490 -20.860928
vt 0.424651 0.846443
vn -0.327326 0.000000 0.944912
v 9.170092 18.671991 -20.860928
vt 0.339627 0.846443
vn -0.654651 0.000000 0.755931
v 1.869514 18.134386 -20.829956
vt 0.423142 0.049287
vn -0.000000 0.000000 1.000000
v 9.423357 21.210703 -20.829956
vt 0.958581 0.267345
vn -0.000000 0.000000 1.000000
v 9.423357 18.134386 -20.829956
vt 0.958581 0.049287
vn -0.000000 0.000000 1.000000
v 1.869514 21.210703 -20.829956
vt 0.423142 0.267345
vn -0.000000 0.000000 1.000000
v 1.869514 21.210703 -20.829956
vt 0.423142 0.267345
vn -0.000000 1.000000 0.000000
v 9.423357 21.210703 -21.000933
vt 0.958581 0.279465
vn -0.000000 1.000000 0.000000
v 9.423357 21.210703 -20.829956
vt 0.958581 0.267345
vn -0.000000 1.000000 0.000000
v 1.869514 21.210703 -21.000933
vt 0.423142 0.279465
vn -0.000000 1.000000 0.000000
v 1.869514 21.210703 -21.000933
vt 0.423142 0.279465
vn -0.000000 0.000000 -1.000000
v 9.423357 18.134386 -21.000933
vt 0.958581 0.497523
vn -0.000000 0.000000 -1.000000
v 9.423357 21.210703 -21.000933
vt 0.958581 0.279465
vn -0.000000 0.000000 -1.000000
v 1.869514 18.134386 -21.000933
vt 0.423143 0.497523
vn -0.000000 0.000000 -1.000000
v 1.869514 18.134386 -21.000933
vt 0.423142 0.037168
vn -0.000000 -1.000000 0.000000
v 9.423357 18.134386 -20.829956
vt 0.958581 0.049287
vn -0.000000 -1.000000 0.000000
v 9.423357 18.134386 -21.000933
vt 0.958581 0.037168
vn -0.000000 -1.000000 0.000000
v 1.869514 18.134386 -20.829956
vt 0.423142 0.049287
vn -0.000000 -1.000000 0.000000
v 9.423357 18.134386 -20.829956
vt 0.958581 0.049287
vn 1.000000 0.000000 0.000000
v 9.423357 21.210703 -21.000933
vt 0.970701 0.267345
vn 1.000000 0.000000 0.000000
v 9.423357 18.134386 -21.000933
vt 0.970701 0.049287
vn 1.000000 0.000000 0.000000
v 9.423357 21.210703 -20.829956
vt 0.958581 0.267345
vn 1.000000 0.000000 0.000000
v 1.869514 18.134386 -21.000933
vt 0.411023 0.049287
vn -1.000000 0.000000 0.000000
v 1.869514 21.210703 -20.829956
vt 0.423142 0.267345
vn -1.000000 0.000000 0.000000
v 1.869514 18.134386 -20.829956
vt 0.423142 0.049287
vn -1.000000 0.000000 0.000000
v 1.869514 21.210703 -21.000933
vt 0.411022 0.267345
vn -1.000000 0.000000 0.000000
v 2.209991 16.396074 -24.390324
vt 0.373443 0.746450
vn -0.000000 -0.608905 0.793244
v 2.333296 20.991373 -20.862909
vt 0.364702 0.335832
vn -0.000000 -0.608905 0.793244
v 2.333296 16.396074 -24.390324
vt 0.364703 0.746450
vn -0.000000 -0.608905 0.793244
v 2.209991 20.991373 -20.862909
vt 0.373442 0.335832
vn -0.000000 -0.608905 0.793244
v 2.209991 21.066454 -20.960724
vt 0.382183 0.335832
vn -0.000000 0.608904 -0.793244
v 2.333296 16.471155 -24.488129
vt 0.390923 0.746449
vn -0.000000 0.608904 -0.793244
v 2.333296 21.066454 -20.960724
vt 0.390923 0.335832
vn -0.000000 0.608904 -0.793244
v 2.209991 16.471155 -24.488129
vt 0.382183 0.746450
vn -0.000000 0.608904 -0.793244
v 2.333296 16.396074 -24.390324
vt 0.399662 0.746450
vn 1.000000 0.000000 0.000000
v 2.333296 21.066454 -20.960724
vt 0.390923 0.335832
vn 1.000000 0.000000 0.000000
v 2.333296 16.471155 -24.488129
vt 0.390923 0.746449
vn 1.000000 0.000000 0.000000
v 2.333296 20.991373 -20.862909
vt 0.399663 0.335832
vn 1.000000 0.000000 0.000000
v 2.209991 16.471155 -24.488129
vt 0.382183 0.746450
vn -1.000000 0.000000 0.000000
v 2.209991 20.991373 -20.862909
vt 0.373442 0.335832
vn -1.000000 0.000000 0.000000
v 2.209991 16.396074 -24.390324
vt 0.373443 0.746450
vn -1.000000 0.000000 0.000000
v 2.209991 21.066454 -20.960724
vt 0.382183 0.335832
vn -1.000000 0.000000 0.000000
# Faces (1 to 196)
g Props1_0
f -194/-194/-194 -195/-195/-195 -196/-196/-196
f -195/-195/-195 -193/-193/-193 -196/-196/-196
f -190/-190/-190 -191/-191/-191 -192/-192/-192
f -191/-191/-191 -189/-189/-189 -192/-192/-192
f -186/-186/-186 -187/-187/-187 -188/-188/-188
f -187/-187/-187 -185/-185/-185 -188/-188/-188
f -182/-182/-182 -183/-183/-183 -184/-184/-184
f -183/-183/-183 -181/-181/-181 -184/-184/-184
f -178/-178/-178 -179/-179/-179 -180/-180/-180
f -179/-179/-179 -177/-177/-177 -180/-180/-180
f -176/-176/-176 -179/-179/-179 -178/-178/-178
f -175/-175/-175 -176/-176/-176 -178/-178/-178
f -174/-174/-174 -176/-176/-176 -175/-175/-175
f -173/-173/-173 -174/-174/-174 -175/-175/-175
f -180/-180/-180 -177/-177/-177 -172/-172/-172
f -177/-177/-177 -171/-171/-171 -172/-172/-172
f -172/-172/-172 -171/-171/-171 -170/-170/-170
f -171/-171/-171 -169/-169/-169 -170/-170/-170
f -170/-170/-170 -169/-169/-169 -168/-168/-168
f -169/-169/-169 -167/-167/-167 -168/-168/-168
f -164/-164/-164 -165/-165/-165 -166/-166/-166
f -165/-165/-165 -163/-163/-163 -166/-166/-166
f -162/-162/-162 -165/-165/-165 -164/-164/-164
f -161/-161/-161 -162/-162/-162 -164/-164/-164
f -160/-160/-160 -162/-162/-162 -161/-161/-161
f -159/-159/-159 -160/-160/-160 -161/-161/-161
f -166/-166/-166 -163/-163/-163 -158/-158/-158
f -163/-163/-163 -157/-157/-157 -158/-158/-158
f -158/-158/-158 -157/-157/-157 -156/-156/-156
f -157/-157/-157 -155/-155/-155 -156/-156/-156
f -156/-156/-156 -155/-155/-155 -154/-154/-154
f -155/-155/-155 -153/-153/-153 -154/-154/-154
f -150/-150/-150 -151/-151/-151 -152/-152/-152
f -151/-151/-151 -149/-149/-149 -152/-152/-152
f -148/-148/-148 -151/-151/-151 -150/-150/-150
f -147/-147/-147 -148/-148/-148 -150/-150/-150
f -146/-146/-146 -148/-148/-148 -147/-147/-147
f -145/-145/-145 -146/-146/-146 -147/-147/-147
f -152/-152/-152 -149/-149/-149 -144/-144/-144
f -149/-149/-149 -143/-143/-143 -144/-144/-144
f -144/-144/-144 -143/-143/-143 -142/-142/-142
f -143/-143/-143 -141/-141/-141 -142/-142/-142
f -142/-142/-142 -141/-141/-141 -140/-140/-140
f -141/-141/-141 -139/-139/-139 -140/-140/-140
f -136/-136/-136 -137/-137/-137 -138/-138/-138
f -137/-137/-137 -135/-135/-135 -138/-138/-138
f -132/-132/-132 -133/-133/-133 -134/-134/-134
f -133/-133/-133 -131/-131/-131 -134/-134/-134
f -128/-128/-128 -129/-129/-129 -130/-130/-130
f -129/-129/-129 -127/-127/-127 -130/-130/-130
f -124/-124/-124 -125/-125/-125 -126/-126/-126
f -125/-125/-125 -123/-123/-123 -126/-126/-126
f -120/-120/-120 -121/-121/-121 -122/-122/-122
f -121/-121/-121 -119/-119/-119 -122/-122/-122
f -116/-116/-116 -117/-117/-117 -118/-118/-118
f -117/-117/-117 -115/-115/-115 -118/-118/-118
f -112/-112/-112 -113/-113/-113 -114/-114/-114
f -113/-113/-113 -111/-111/-111 -114/-114/-114
f -108/-108/-108 -109/-109/-109 -110/-110/-110
f -109/-109/-109 -107/-107/-107 -110/-110/-110
f -104/-104/-104 -105/-105/-105 -106/-106/-106
f -105/-105/-105 -103/-103/-103 -106/-106/-106
f -100/-100/-100 -101/-101/-101 -102/-102/-102
f -101/-101/-101 -99/-99/-99 -102/-102/-102
f -96/-96/-96 -97/-97/-97 -98/-98/-98
f -97/-97/-97 -95/-95/-95 -98/-98/-98
f -92/-92/-92 -93/-93/-93 -94/-94/-94
f -93/-93/-93 -91/-91/-91 -94/-94/-94
f -88/-88/-88 -89/-89/-89 -90/-90/-90
f -89/-89/-89 -87/-87/-87 -90/-90/-90
f -84/-84/-84 -85/-85/-85 -86/-86/-86
f -85/-85/-85 -83/-83/-83 -86/-86/-86
f -80/-80/-80 -81/-81/-81 -82/-82/-82
f -81/-81/-81 -79/-79/-79 -82/-82/-82
f -78/-78/-78 -81/-81/-81 -80/-80/-80
f -77/-77/-77 -78/-78/-78 -80/-80/-80
f -76/-76/-76 -78/-78/-78 -77/-77/-77
f -75/-75/-75 -76/-76/-76 -77/-77/-77
f -82/-82/-82 -79/-79/-79 -74/-74/-74
f -79/-79/-79 -73/-73/-73 -74/-74/-74
f -74/-74/-74 -73/-73/-73 -72/-72/-72
f -73/-73/-73 -71/-71/-71 -72/-72/-72
f -72/-72/-72 -71/-71/-71 -70/-70/-70
f -71/-71/-71 -69/-69/-69 -70/-70/-70
f -66/-66/-66 -67/-67/-67 -68/-68/-68
f -67/-67/-67 -65/-65/-65 -68/-68/-68
f -64/-64/-64 -67/-67/-67 -66/-66/-66
f -63/-63/-63 -64/-64/-64 -66/-66/-66
f -62/-62/-62 -64/-64/-64 -63/-63/-63
f -61/-61/-61 -62/-62/-62 -63/-63/-63
f -68/-68/-68 -65/-65/-65 -60/-60/-60
f -65/-65/-65 -59/-59/-59 -60/-60/-60
f -60/-60/-60 -59/-59/-59 -58/-58/-58
f -59/-59/-59 -57/-57/-57 -58/-58/-58
f -58/-58/-58 -57/-57/-57 -56/-56/-56
f -57/-57/-57 -55/-55/-55 -56/-56/-56
f -52/-52/-52 -53/-53/-53 -54/-54/-54
f -53/-53/-53 -51/-51/-51 -54/-54/-54
f -50/-50/-50 -53/-53/-53 -52/-52/-52
f -49/-49/-49 -50/-50/-50 -52/-52/-52
f -48/-48/-48 -50/-50/-50 -49/-49/-49
f -47/-47/-47 -48/-48/-48 -49/-49/-49
f -54/-54/-54 -51/-51/-51 -46/-46/-46
f -51/-51/-51 -45/-45/-45 -46/-46/-46
f -46/-46/-46 -45/-45/-45 -44/-44/-44
f -45/-45/-45 -43/-43/-43 -44/-44/-44
f -44/-44/-44 -43/-43/-43 -42/-42/-42
f -43/-43/-43 -41/-41/-41 -42/-42/-42
f -38/-38/-38 -39/-39/-39 -40/-40/-40
f -39/-39/-39 -37/-37/-37 -40/-40/-40
f -34/-34/-34 -35/-35/-35 -36/-36/-36
f -35/-35/-35 -33/-33/-33 -36/-36/-36
f -30/-30/-30 -31/-31/-31 -32/-32/-32
f -31/-31/-31 -29/-29/-29 -32/-32/-32
f -26/-26/-26 -27/-27/-27 -28/-28/-28
f -27/-27/-27 -25/-25/-25 -28/-28/-28
f -22/-22/-22 -23/-23/-23 -24/-24/-24
f -23/-23/-23 -21/-21/-21 -24/-24/-24
f -18/-18/-18 -19/-19/-19 -20/-20/-20
f -19/-19/-19 -17/-17/-17 -20/-20/-20
f -14/-14/-14 -15/-15/-15 -16/-16/-16
f -15/-15/-15 -13/-13/-13 -16/-16/-16
f -10/-10/-10 -11/-11/-11 -12/-12/-12
f -11/-11/-11 -9/-9/-9 -12/-12/-12
f -6/-6/-6 -7/-7/-7 -8/-8/-8
f -7/-7/-7 -5/-5/-5 -8/-8/-8
f -2/-2/-2 -3/-3/-3 -4/-4/-4
f -3/-3/-3 -1/-1/-1 -4/-4/-4

