# Mesh "walls2" exported with Unity Assets Bundle Extractor; 80 vertices, 126 indices, 448 bits per vertex
g walls2
# SubMesh 0
# Vertices
v 26.509521 1.008133 36.105713
vt -0.885496 1.001915
vn -0.000000 -0.000011 -1.000000
v 25.106873 1.547443 36.105713
vt -0.378934 1.196611
vn -0.000000 -0.000011 -1.000000
v 25.106873 1.008133 36.105713
vt -0.378942 1.001945
vn -0.000000 -0.000011 -1.000000
v 26.509521 1.547443 36.105713
vt -0.885488 1.196683
vn -0.000000 -0.000011 -1.000000
v -5.837738 1.008133 20.886230
vt 0.652420 1.098400
vn 1.000000 0.000000 0.000000
v -5.837738 4.051559 21.043701
vt 0.703947 0.002892
vn 1.000000 0.000000 0.000000
v -5.837738 4.051559 20.886230
vt 0.652416 0.002895
vn 1.000000 0.000000 0.000000
v -5.837738 1.008133 21.043701
vt 0.703947 1.098400
vn 1.000000 0.000000 0.000000
v -5.837738 1.008133 19.880066
vt 0.323094 1.098400
vn 1.000000 0.000000 0.000000
v -5.837738 4.051559 19.880066
vt 0.323110 0.002898
vn 1.000000 0.000000 0.000000
v -5.837738 1.008133 21.043701
vt 4.353537 0.002892
vn -0.000000 0.000000 1.000000
v -18.412598 4.051559 21.043701
vt 0.237688 1.098400
vn -0.000000 0.000000 1.000000
v -5.837738 4.051559 21.043701
vt 4.353537 1.098400
vn -0.000000 0.000000 1.000000
v -18.412598 1.008133 21.043701
vt 0.237688 0.002892
vn -0.000000 0.000000 1.000000
v 18.263794 1.008133 21.043701
vt 0.002868 0.002892
vn -0.000000 0.000000 1.000000
v 5.834473 4.051559 21.043701
vt -4.001316 1.098400
vn -0.000000 0.000000 1.000000
v 18.263794 4.051559 21.043701
vt 0.002868 1.098400
vn -0.000000 0.000000 1.000000
v 5.834473 1.008133 21.043701
vt -4.001316 0.002892
vn -0.000000 0.000000 1.000000
v 5.834473 1.008133 21.043701
vt 0.377422 0.002892
vn -1.000000 0.000000 0.000000
v 5.834473 4.051559 20.886230
vt 0.325896 1.098400
vn -1.000000 0.000000 0.000000
v 5.834473 4.051559 21.043701
vt 0.377422 1.098400
vn -1.000000 0.000000 0.000000
v 5.834473 1.008133 20.886230
vt 0.325896 0.002892
vn -1.000000 0.000000 0.000000
v 5.834473 4.051559 19.880066
vt -0.003430 1.098400
vn -1.000000 0.000000 0.000000
v 5.834473 1.008133 19.880066
vt -0.003430 0.002892
vn -1.000000 0.000000 0.000000
v 18.263794 1.008133 11.643921
vt 0.007795 0.002892
vn 1.000000 0.000000 0.000000
v 18.263794 4.051559 21.043701
vt -2.999477 1.098400
vn 1.000000 0.000000 0.000000
v 18.263794 4.051559 11.643921
vt 0.007795 1.098400
vn 1.000000 0.000000 0.000000
v 18.263794 1.008133 21.043701
vt -2.999477 0.002892
vn 1.000000 0.000000 0.000000
v 5.834473 4.051559 20.886230
vt -0.061457 1.098400
vn -0.000000 -1.000000 0.000000
v -5.837738 4.051559 19.880066
vt -3.766743 0.665501
vn -0.000000 -1.000000 0.000000
v -5.837738 4.051559 20.886230
vt -3.766743 1.098378
vn -0.000000 -1.000000 0.000000
v 5.834473 4.051559 19.880066
vt -0.061457 0.665479
vn -0.000000 -1.000000 0.000000
v -18.557983 1.008133 26.629395
vt -1.510359 0.002892
vn -0.000000 0.000000 1.000000
v -18.412537 4.051559 26.629395
vt -1.448847 1.098400
vn -0.000000 0.000000 1.000000
v -18.412537 1.008133 26.629395
vt -1.448846 0.002892
vn -0.000000 0.000000 1.000000
v -18.557983 4.051559 26.629395
vt -1.510360 1.098400
vn -0.000000 0.000000 1.000000
v -18.412598 4.051559 21.043701
vt 0.237688 1.098400
vn 1.000000 0.000000 -0.000012
v -18.412537 1.008133 26.629395
vt -1.590567 0.002892
vn 1.000000 0.000000 -0.000012
v -18.412537 4.051559 26.629395
vt -1.590568 1.098400
vn 1.000000 0.000000 -0.000012
v -18.412598 1.008133 21.043701
vt 0.237688 0.002892
vn 1.000000 0.000000 -0.000012
v -7.973572 1.008133 39.583008
vt -0.188830 0.002892
vn -1.000000 0.000000 0.000000
v -7.973572 4.051559 37.463013
vt -0.998959 1.098400
vn -1.000000 0.000000 0.000000
v -7.973572 4.051559 39.583008
vt -0.188828 1.098400
vn -1.000000 0.000000 0.000000
v -7.973572 1.008133 37.463013
vt -0.998961 0.002892
vn -1.000000 0.000000 0.000000
v -7.973572 1.008133 37.463013
vt -0.998961 0.002892
vn -0.000000 0.000000 -1.000000
v -4.955551 4.051559 37.463013
vt -2.000541 1.098400
vn -0.000000 0.000000 -1.000000
v -7.973572 4.051559 37.463013
vt -0.998959 1.098400
vn -0.000000 0.000000 -1.000000
v -4.955551 1.008133 37.463013
vt -2.000543 0.002892
vn -0.000000 0.000000 -1.000000
v -4.955551 1.008133 36.105713
vt -2.524483 0.002892
vn -1.000000 0.000000 0.000000
v -4.955551 4.051559 37.463013
vt -2.000541 1.098400
vn -1.000000 0.000000 0.000000
v -4.955551 1.008133 37.463013
vt -2.000543 0.002892
vn -1.000000 0.000000 0.000000
v -4.955551 4.051559 36.105713
vt -2.524483 1.098400
vn -1.000000 0.000000 0.000000
v -4.955551 4.051559 36.105713
vt 4.000837 1.098400
vn -0.000000 0.000000 -1.000000
v 11.089447 1.008133 36.105713
vt -1.670660 0.002892
vn -0.000000 0.000000 -1.000000
v 11.089447 4.051559 36.105713
vt -1.670660 1.098400
vn -0.000000 0.000000 -1.000000
v -4.955551 1.008133 36.105713
vt 4.000837 0.002892
vn -0.000000 0.000000 -1.000000
v 11.089447 1.008133 36.105713
vt 4.732092 0.002901
vn -0.000000 0.000000 -1.000000
v 24.239014 4.051559 36.105713
vt -0.001116 1.098389
vn -0.000000 0.000000 -1.000000
v 11.089447 4.051559 36.105713
vt 4.732093 1.098387
vn -0.000000 0.000000 -1.000000
v 24.239014 1.008133 36.105713
vt -0.001115 0.002903
vn -0.000000 0.000000 -1.000000
v -18.412537 1.008133 35.115356
vt 4.716508 0.002901
vn -0.000000 0.000000 -1.000000
v -18.557983 4.051559 35.115356
vt 4.767862 1.098387
vn -0.000000 0.000000 -1.000000
v -18.557983 1.008133 35.115356
vt 4.767861 0.002901
vn -0.000000 0.000000 -1.000000
v -18.412537 4.051559 35.115356
vt 4.716509 1.098387
vn -0.000000 0.000000 -1.000000
v -13.870300 1.008133 37.463013
vt 1.766707 0.002892
vn 1.000000 0.000000 0.000000
v -13.870300 4.051559 39.583008
vt 0.997273 1.098400
vn 1.000000 0.000000 0.000000
v -13.870300 4.051559 37.463013
vt 1.766707 1.098400
vn 1.000000 0.000000 0.000000
v -13.870300 1.008133 39.583008
vt 0.997274 0.002892
vn 1.000000 0.000000 0.000000
v -18.412598 1.008133 37.463013
vt 3.669849 0.002892
vn -0.000000 0.000000 -1.000000
v -13.870300 4.051559 37.463013
vt 1.998417 1.098400
vn -0.000000 0.000000 -1.000000
v -18.412598 4.051559 37.463013
vt 3.669849 1.098400
vn -0.000000 0.000000 -1.000000
v -13.870300 1.008133 37.463013
vt 1.998417 0.002892
vn -0.000000 0.000000 -1.000000
v -18.412598 1.008133 37.463013
vt 2.989675 0.002892
vn 1.000000 0.000000 0.000029
v -18.412537 4.051559 35.115356
vt 4.003625 1.098400
vn 1.000000 0.000000 0.000029
v -18.412537 1.008133 35.115356
vt 4.003624 0.002892
vn 1.000000 0.000000 0.000029
v -18.412598 4.051559 37.463013
vt 2.989675 1.098400
vn 1.000000 0.000000 0.000029
v 27.379639 1.008133 36.105713
vt 4.274402 0.002892
vn -1.000000 0.000000 0.000000
v 27.379639 4.051559 11.643921
vt -4.695070 1.098400
vn -1.000000 0.000000 0.000000
v 27.379639 4.051559 36.105713
vt 4.274402 1.098400
vn -1.000000 0.000000 0.000000
v 27.379639 1.008133 11.643921
vt -4.695071 0.002892
vn -1.000000 0.000000 0.000000
# Faces (1 to 80)
g walls2_0
f -78/-78/-78 -79/-79/-79 -80/-80/-80
f -79/-79/-79 -77/-77/-77 -80/-80/-80
f -74/-74/-74 -75/-75/-75 -76/-76/-76
f -75/-75/-75 -73/-73/-73 -76/-76/-76
f -74/-74/-74 -76/-76/-76 -72/-72/-72
f -71/-71/-71 -74/-74/-74 -72/-72/-72
f -68/-68/-68 -69/-69/-69 -70/-70/-70
f -69/-69/-69 -67/-67/-67 -70/-70/-70
f -64/-64/-64 -65/-65/-65 -66/-66/-66
f -65/-65/-65 -63/-63/-63 -66/-66/-66
f -60/-60/-60 -61/-61/-61 -62/-62/-62
f -61/-61/-61 -59/-59/-59 -62/-62/-62
f -61/-61/-61 -58/-58/-58 -59/-59/-59
f -58/-58/-58 -57/-57/-57 -59/-59/-59
f -54/-54/-54 -55/-55/-55 -56/-56/-56
f -55/-55/-55 -53/-53/-53 -56/-56/-56
f -50/-50/-50 -51/-51/-51 -52/-52/-52
f -51/-51/-51 -49/-49/-49 -52/-52/-52
f -46/-46/-46 -47/-47/-47 -48/-48/-48
f -47/-47/-47 -45/-45/-45 -48/-48/-48
f -42/-42/-42 -43/-43/-43 -44/-44/-44
f -43/-43/-43 -41/-41/-41 -44/-44/-44
f -38/-38/-38 -39/-39/-39 -40/-40/-40
f -39/-39/-39 -37/-37/-37 -40/-40/-40
f -34/-34/-34 -35/-35/-35 -36/-36/-36
f -35/-35/-35 -33/-33/-33 -36/-36/-36
f -30/-30/-30 -31/-31/-31 -32/-32/-32
f -31/-31/-31 -29/-29/-29 -32/-32/-32
f -26/-26/-26 -27/-27/-27 -28/-28/-28
f -27/-27/-27 -25/-25/-25 -28/-28/-28
f -22/-22/-22 -23/-23/-23 -24/-24/-24
f -23/-23/-23 -21/-21/-21 -24/-24/-24
f -18/-18/-18 -19/-19/-19 -20/-20/-20
f -19/-19/-19 -17/-17/-17 -20/-20/-20
f -14/-14/-14 -15/-15/-15 -16/-16/-16
f -15/-15/-15 -13/-13/-13 -16/-16/-16
f -10/-10/-10 -11/-11/-11 -12/-12/-12
f -11/-11/-11 -9/-9/-9 -12/-12/-12
f -6/-6/-6 -7/-7/-7 -8/-8/-8
f -7/-7/-7 -5/-5/-5 -8/-8/-8
f -2/-2/-2 -3/-3/-3 -4/-4/-4
f -3/-3/-3 -1/-1/-1 -4/-4/-4

