# Mesh "WallRoof" exported with Unity Assets Bundle Extractor; 60 vertices, 132 indices, 320 bits per vertex
g WallRoof
# SubMesh 0
# Vertices
v 33.795914 10.696783 34.897449
vt 0.407620 0.977032
vn -0.000000 -1.000000 0.000000
v -7.914275 10.696782 26.371798
vt 0.566894 0.197813
vn -0.000000 -1.000000 0.000000
v -7.914275 10.696783 34.897449
vt 0.407620 0.197813
vn -0.000000 -1.000000 0.000000
v 33.795914 10.696783 26.371798
vt 0.566894 0.977032
vn -0.000000 -1.000000 0.000000
v 33.795914 10.696783 37.649567
vt 0.356206 0.977032
vn -0.000000 -1.000000 0.000000
v -7.914275 10.696783 37.649567
vt 0.356206 0.197813
vn -0.000000 -1.000000 0.000000
v -15.255702 10.696781 37.649567
vt 0.356206 0.060663
vn -0.000000 -1.000000 0.000000
v -15.255702 10.696781 34.897449
vt 0.407620 0.060663
vn -0.000000 -1.000000 0.000000
v -18.396212 10.696779 34.897449
vt 0.407620 0.001992
vn -0.000000 -1.000000 0.000000
v -18.396172 10.696779 26.371798
vt 0.566894 0.001993
vn -0.000000 -1.000000 0.000000
v -15.255703 10.696781 26.371798
vt 0.566894 0.060663
vn -0.000000 -1.000000 0.000000
v -18.396221 10.696779 37.649567
vt 0.356206 0.001992
vn -0.000000 -1.000000 0.000000
v -7.914275 10.696782 24.255463
vt 0.606431 0.197813
vn -0.000000 -1.000000 0.000000
v 33.795914 10.696783 24.255463
vt 0.606431 0.977032
vn -0.000000 -1.000000 0.000000
v -18.396164 10.696779 24.255463
vt 0.606431 0.001993
vn -0.000000 -1.000000 0.000000
v -15.255702 10.696781 24.255463
vt 0.606431 0.060663
vn -0.000000 -1.000000 0.000000
v -7.914275 11.109411 34.897449
vt 0.106967 0.080581
vn -1.000000 0.000000 0.000000
v -7.914275 10.696782 26.371798
vt 0.099258 0.239855
vn -1.000000 0.000000 0.000000
v -7.914275 11.109409 26.371798
vt 0.106966 0.239855
vn -1.000000 0.000000 0.000000
v -7.914275 10.696783 34.897449
vt 0.099258 0.080581
vn -1.000000 0.000000 0.000000
v -7.914275 11.109411 34.897449
vt 0.136356 0.217732
vn -0.000000 0.000000 -1.000000
v -15.255702 10.696781 34.897449
vt 0.128648 0.080581
vn -0.000000 0.000000 -1.000000
v -7.914275 10.696783 34.897449
vt 0.128648 0.217732
vn -0.000000 0.000000 -1.000000
v -15.255702 11.109409 34.897449
vt 0.136356 0.080581
vn -0.000000 0.000000 -1.000000
v 7.737999 5.554632 38.210709
vt 0.092273 0.080581
vn -1.000000 0.000000 0.000000
v 7.738001 5.141918 24.255463
vt 0.084563 0.341290
vn -1.000000 0.000000 0.000000
v 7.737997 5.554639 24.255463
vt 0.092274 0.341290
vn -1.000000 0.000000 0.000000
v 7.738000 5.141924 38.210709
vt 0.084563 0.080581
vn -1.000000 0.000000 0.000000
v 7.738000 5.141924 38.210709
vt 0.001507 0.500670
vn -0.000000 -1.000000 0.000000
v 34.359634 5.141928 24.255463
vt 0.262216 0.998008
vn -0.000000 -1.000000 0.000000
v 7.738001 5.141918 24.255463
vt 0.262216 0.500670
vn -0.000000 -1.000000 0.000000
v 34.359634 5.141935 38.210709
vt 0.001507 0.998008
vn -0.000000 -1.000000 0.000000
v 7.737999 5.141918 19.555353
vt 0.350022 0.500670
vn -0.000000 -1.000000 0.000000
v -3.772736 5.141921 19.555353
vt 0.350022 0.285629
vn -0.000000 -1.000000 0.000000
v -7.725768 5.141919 24.255463
vt 0.262216 0.211780
vn -0.000000 -1.000000 0.000000
v 34.359634 5.141930 19.555353
vt 0.350022 0.998008
vn -0.000000 -1.000000 0.000000
v -18.955328 5.141923 19.555353
vt 0.350022 0.001992
vn -0.000000 -1.000000 0.000000
v -15.255702 5.141920 24.255463
vt 0.262216 0.071108
vn -0.000000 -1.000000 0.000000
v -18.955328 5.141924 37.812263
vt 0.008951 0.001992
vn -0.000000 -1.000000 0.000000
v -15.255700 5.141925 37.812263
vt 0.008951 0.071108
vn -0.000000 -1.000000 0.000000
v -15.255700 5.141924 38.210709
vt 0.001507 0.071108
vn -0.000000 -1.000000 0.000000
v -18.955328 5.141924 38.210709
vt 0.001507 0.001992
vn -0.000000 -1.000000 0.000000
v -7.914276 5.141921 37.812263
vt 0.008951 0.208258
vn -0.000000 -1.000000 0.000000
v -7.914276 5.141923 38.210709
vt 0.001507 0.208258
vn -0.000000 -1.000000 0.000000
v -7.914276 5.554628 37.812263
vt 0.151053 0.217732
vn -0.000000 0.000000 -1.000000
v -15.255700 5.141925 37.812263
vt 0.143343 0.080581
vn -0.000000 0.000000 -1.000000
v -7.914276 5.141921 37.812263
vt 0.143343 0.217732
vn -0.000000 0.000000 -1.000000
v -15.255702 5.554633 37.812263
vt 0.151053 0.080581
vn -0.000000 0.000000 -1.000000
v -7.725768 5.141919 24.255463
vt 0.077341 0.080582
vn -0.000000 -1.000000 0.000000
v 7.738001 5.141918 27.113592
vt 0.023947 0.369472
vn -0.000000 -1.000000 0.000000
v 7.738001 5.141918 24.255463
vt 0.077341 0.369472
vn -0.000000 -1.000000 0.000000
v -7.725768 5.141919 27.113592
vt 0.023947 0.080582
vn -0.000000 -1.000000 0.000000
v -15.255703 10.696781 26.371798
vt 0.113953 0.080581
vn 1.000000 0.000000 0.000000
v -15.255702 11.109409 34.897449
vt 0.121662 0.239855
vn 1.000000 0.000000 0.000000
v -15.255703 11.109407 26.371798
vt 0.121662 0.080581
vn 1.000000 0.000000 0.000000
v -15.255702 10.696781 34.897449
vt 0.113953 0.239855
vn 1.000000 0.000000 0.000000
v -15.255703 11.109407 26.371798
vt 0.158038 0.080582
vn -0.000000 0.000000 1.000000
v -7.914275 10.696782 26.371798
vt 0.165746 0.217732
vn -0.000000 0.000000 1.000000
v -15.255703 10.696781 26.371798
vt 0.165746 0.080582
vn -0.000000 0.000000 1.000000
v -7.914275 11.109409 26.371798
vt 0.158038 0.217732
vn -0.000000 0.000000 1.000000
# Faces (1 to 60)
g WallRoof_0
f -58/-58/-58 -59/-59/-59 -60/-60/-60
f -59/-59/-59 -57/-57/-57 -60/-60/-60
f -58/-58/-58 -60/-60/-60 -56/-56/-56
f -55/-55/-55 -58/-58/-58 -56/-56/-56
f -55/-55/-55 -54/-54/-54 -58/-58/-58
f -54/-54/-54 -53/-53/-53 -58/-58/-58
f -52/-52/-52 -53/-53/-53 -54/-54/-54
f -52/-52/-52 -51/-51/-51 -53/-53/-53
f -51/-51/-51 -50/-50/-50 -53/-53/-53
f -49/-49/-49 -52/-52/-52 -54/-54/-54
f -59/-59/-59 -48/-48/-48 -57/-57/-57
f -48/-48/-48 -59/-59/-59 -50/-50/-50
f -48/-48/-48 -47/-47/-47 -57/-57/-57
f -51/-51/-51 -46/-46/-46 -50/-50/-50
f -46/-46/-46 -45/-45/-45 -50/-50/-50
f -45/-45/-45 -48/-48/-48 -50/-50/-50
f -42/-42/-42 -43/-43/-43 -44/-44/-44
f -43/-43/-43 -41/-41/-41 -44/-44/-44
f -38/-38/-38 -39/-39/-39 -40/-40/-40
f -39/-39/-39 -37/-37/-37 -40/-40/-40
f -34/-34/-34 -35/-35/-35 -36/-36/-36
f -35/-35/-35 -33/-33/-33 -36/-36/-36
f -30/-30/-30 -31/-31/-31 -32/-32/-32
f -31/-31/-31 -29/-29/-29 -32/-32/-32
f -30/-30/-30 -28/-28/-28 -31/-31/-31
f -27/-27/-27 -28/-28/-28 -30/-30/-30
f -26/-26/-26 -27/-27/-27 -30/-30/-30
f -28/-28/-28 -25/-25/-25 -31/-31/-31
f -24/-24/-24 -27/-27/-27 -26/-26/-26
f -23/-23/-23 -24/-24/-24 -26/-26/-26
f -22/-22/-22 -24/-24/-24 -23/-23/-23
f -21/-21/-21 -22/-22/-22 -23/-23/-23
f -22/-22/-22 -21/-21/-21 -20/-20/-20
f -19/-19/-19 -22/-22/-22 -20/-20/-20
f -20/-20/-20 -21/-21/-21 -18/-18/-18
f -17/-17/-17 -20/-20/-20 -18/-18/-18
f -14/-14/-14 -15/-15/-15 -16/-16/-16
f -15/-15/-15 -13/-13/-13 -16/-16/-16
f -10/-10/-10 -11/-11/-11 -12/-12/-12
f -11/-11/-11 -9/-9/-9 -12/-12/-12
f -6/-6/-6 -7/-7/-7 -8/-8/-8
f -7/-7/-7 -5/-5/-5 -8/-8/-8
f -2/-2/-2 -3/-3/-3 -4/-4/-4
f -3/-3/-3 -1/-1/-1 -4/-4/-4

