# Mesh "Wall_A_L" exported with Unity Assets Bundle Extractor; 10 vertices, 12 indices, 448 bits per vertex
g Wall_A_L
# SubMesh 0
# Vertices
v 2.000000 5.349999 0.000000
vt 0.497440 0.277435
vn -0.707107 0.000000 0.707107
v -0.000000 2.000000 -2.000000
vt 0.065153 0.719586
vn -0.707107 0.000000 0.707107
v -0.000000 5.349999 -2.000000
vt 0.497440 0.719586
vn -0.707107 0.000000 0.707107
v 2.000000 2.000000 0.000000
vt 0.065153 0.277435
vn -0.707107 0.000000 0.707107
v -0.000000 7.350000 -0.000000
vt 0.282676 0.988605
vn -0.577350 -0.577350 0.577350
v 2.000000 5.349999 0.000000
vt 0.498511 0.723333
vn -0.577350 -0.577350 0.577350
v -0.000000 5.349999 -2.000000
vt 0.066841 0.723333
vn -0.577350 -0.577350 0.577350
v -0.000000 -0.000000 0.000000
vt 0.282676 0.012130
vn -0.577350 0.577350 0.577350
v -0.000000 2.000000 -2.000000
vt 0.066841 0.279462
vn -0.577350 0.577350 0.577350
v 2.000000 2.000000 0.000000
vt 0.498511 0.279462
vn -0.577350 0.577350 0.577350
# Faces (1 to 10)
g Wall_A_L_0
f -8/-8/-8 -9/-9/-9 -10/-10/-10
f -7/-7/-7 -10/-10/-10 -9/-9/-9
f -4/-4/-4 -5/-5/-5 -6/-6/-6
f -1/-1/-1 -2/-2/-2 -3/-3/-3

