# Mesh "Wall_A_4" exported with Unity Assets Bundle Extractor; 16 vertices, 24 indices, 448 bits per vertex
g Wall_A_4
# SubMesh 0
# Vertices
v -2.000000 2.000000 -2.000000
vt 0.016574 0.277099
vn -0.000000 0.707107 0.707107
v 2.000000 0.000000 -0.000000
vt 0.548002 0.011906
vn -0.000000 0.707107 0.707107
v -2.000000 0.000000 -0.000000
vt 0.016574 0.011906
vn -0.000000 0.707107 0.707107
v 2.000000 2.000000 -2.000000
vt 0.548002 0.277099
vn -0.000000 0.707107 0.707107
v 2.000000 2.000000 -2.000000
vt 0.548002 0.277099
vn -0.000000 0.000000 1.000000
v -2.000000 5.350000 -2.000000
vt 0.016574 0.721297
vn -0.000000 0.000000 1.000000
v 2.000000 5.350000 -2.000000
vt 0.548002 0.721297
vn -0.000000 0.000000 1.000000
v -2.000000 2.000000 -2.000000
vt 0.016574 0.277099
vn -0.000000 0.000000 1.000000
v 2.000000 5.350000 -2.000000
vt 0.548002 0.721297
vn -0.000000 -0.707107 0.707107
v -2.000000 7.350000 -0.000000
vt 0.016574 0.988449
vn -0.000000 -0.707107 0.707107
v 2.000000 7.350000 -0.000000
vt 0.548002 0.988449
vn -0.000000 -0.707107 0.707107
v -2.000000 5.350000 -2.000000
vt 0.016574 0.721297
vn -0.000000 -0.707107 0.707107
v -2.000000 7.350000 -0.000000
vt 0.064114 0.280993
vn -0.000000 0.000000 1.000000
v 2.000000 7.750000 -0.000000
vt 0.019364 0.756587
vn -0.000000 0.000000 1.000000
v 2.000000 7.350000 -0.000000
vt 0.064114 0.756587
vn -0.000000 0.000000 1.000000
v -2.000000 7.750000 -0.000000
vt 0.019364 0.280993
vn -0.000000 0.000000 1.000000
# Faces (1 to 16)
g Wall_A_4_0
f -14/-14/-14 -15/-15/-15 -16/-16/-16
f -13/-13/-13 -16/-16/-16 -15/-15/-15
f -10/-10/-10 -11/-11/-11 -12/-12/-12
f -9/-9/-9 -12/-12/-12 -11/-11/-11
f -6/-6/-6 -7/-7/-7 -8/-8/-8
f -5/-5/-5 -8/-8/-8 -7/-7/-7
f -2/-2/-2 -3/-3/-3 -4/-4/-4
f -1/-1/-1 -4/-4/-4 -3/-3/-3

