# Mesh "VIFS013" exported with Unity Assets Bundle Extractor; 16 vertices, 24 indices, 448 bits per vertex
g VIFS013
# SubMesh 0
# Vertices
v 19.856033 6.528005 -9.792000
vt -1.437500 1.500000
vn -0.000000 0.000000 -1.000000
v 19.856033 4.351993 -9.792000
vt -1.437500 1.000000
vn -0.000000 0.000000 -1.000000
v 32.368065 4.351993 -9.792000
vt 1.437500 1.000000
vn -0.000000 0.000000 -1.000000
v 32.368065 2.175997 -9.792000
vt 1.437500 0.500000
vn -0.000000 0.000000 -1.000000
v 32.368065 4.351993 -7.616003
vt 1.437500 1.000000
vn -0.000000 0.000000 1.000000
v 19.856033 4.351993 -7.616003
vt -1.437500 1.000000
vn -0.000000 0.000000 1.000000
v 19.856033 6.528005 -7.616003
vt -1.437500 1.500000
vn -0.000000 0.000000 1.000000
v 32.368065 2.175997 -7.616003
vt 1.437500 0.500000
vn -0.000000 0.000000 1.000000
v 3.263995 7.616003 -34.544033
vt 1.937500 0.750000
vn 1.000000 0.000000 0.000000
v 3.263995 8.704001 -20.944017
vt -1.187500 1.000000
vn 1.000000 0.000000 0.000000
v 3.263995 10.879998 -20.944017
vt -1.187500 1.500000
vn 1.000000 0.000000 0.000000
v 3.263995 5.440007 -34.544033
vt 1.937500 0.250000
vn 1.000000 0.000000 0.000000
v 1.088000 10.879998 -20.944017
vt -1.187500 1.500000
vn -1.000000 0.000000 0.000000
v 1.088000 8.704001 -20.944017
vt -1.187500 1.000000
vn -1.000000 0.000000 0.000000
v 1.088000 7.616003 -34.544033
vt 1.937500 0.750000
vn -1.000000 0.000000 0.000000
v 1.088000 5.440007 -34.544033
vt 1.937500 0.250000
vn -1.000000 0.000000 0.000000
# Faces (1 to 16)
g VIFS013_0
f -14/-14/-14 -15/-15/-15 -16/-16/-16
f -13/-13/-13 -15/-15/-15 -14/-14/-14
f -10/-10/-10 -11/-11/-11 -12/-12/-12
f -12/-12/-12 -11/-11/-11 -9/-9/-9
f -6/-6/-6 -7/-7/-7 -8/-8/-8
f -8/-8/-8 -7/-7/-7 -5/-5/-5
f -2/-2/-2 -3/-3/-3 -4/-4/-4
f -1/-1/-1 -3/-3/-3 -2/-2/-2

