# Mesh "VIFS012" exported with Unity Assets Bundle Extractor; 198 vertices, 384 indices, 448 bits per vertex
g VIFS012
# SubMesh 0
# Vertices
v 20.671982 -1.088000 -22.847948
vt 0.250000 1.000000
vn -0.000000 -0.707101 0.707112
v 20.671982 0.000000 -21.759966
vt 0.250000 0.750000
vn -0.000000 -0.707101 0.707112
v 25.024069 -1.088000 -22.847948
vt 1.250000 1.000000
vn -0.000000 -0.707101 0.707112
v 25.024069 0.000000 -21.759966
vt 1.250000 0.750000
vn -0.000000 -0.707101 0.707112
v 25.024069 0.000000 4.351993
vt 1.250000 0.750000
vn -0.000000 -0.707111 -0.707102
v 20.671982 -1.088000 5.440007
vt 0.250000 0.500000
vn -0.000000 -0.707111 -0.707102
v 25.024069 -1.088000 5.440007
vt 1.250000 0.500000
vn -0.000000 -0.707111 -0.707102
v 20.671982 0.000000 4.351993
vt 0.250000 0.750000
vn -0.000000 -0.707111 -0.707102
v 32.368065 2.175997 -9.792000
vt 1.437500 0.500000
vn -0.171340 -0.985212 0.000000
v 19.856033 4.351993 -7.616003
vt -1.437500 0.000000
vn -0.171340 -0.985212 0.000000
v 32.368065 2.175997 -7.616003
vt 1.437500 0.000000
vn -0.171340 -0.985212 0.000000
v 19.856033 4.351993 -9.792000
vt -1.437500 0.500000
vn -0.171340 -0.985212 0.000000
v 19.584000 -10.879998 -22.847948
vt 0.500000 -0.500000
vn -0.000000 0.000000 1.000000
v 17.408033 -10.879998 -22.847948
vt 0.000000 -0.500000
vn -0.000000 0.000000 1.000000
v 19.584000 -4.351993 -22.847948
vt 0.500000 1.000000
vn -0.000000 0.000000 1.000000
v 17.408033 -4.351993 -22.847948
vt 0.000000 1.000000
vn -0.000000 0.000000 1.000000
v 19.584000 -4.351993 -22.847948
vt 0.500000 1.250000
vn -0.000000 -1.000000 0.000000
v 17.408033 -4.351993 -16.320051
vt 0.000000 -0.250000
vn -0.000000 -1.000000 0.000000
v 19.584000 -4.351993 -16.320051
vt 0.500000 -0.250000
vn -0.000000 -1.000000 0.000000
v 17.408033 -4.351993 -22.847948
vt 0.000000 1.250000
vn -0.000000 -1.000000 0.000000
v 19.584000 -10.879998 -22.847948
vt 0.500000 1.250000
vn -0.000000 1.000000 0.000000
v 17.408033 -10.879998 -16.320051
vt 0.000000 -0.250000
vn -0.000000 1.000000 0.000000
v 17.408033 -10.879998 -22.847948
vt 0.000000 1.250000
vn -0.000000 1.000000 0.000000
v 19.584000 -10.879998 -16.320051
vt 0.500000 -0.250000
vn -0.000000 1.000000 0.000000
v 17.408033 -4.351993 -16.320051
vt 0.000000 1.000000
vn -0.000000 0.000000 -1.000000
v 17.408033 -10.879998 -16.320051
vt 0.000000 -0.500000
vn -0.000000 0.000000 -1.000000
v 19.584000 -4.351993 -16.320051
vt 0.500000 1.000000
vn -0.000000 0.000000 -1.000000
v 19.584000 -10.879998 -16.320051
vt 0.500000 -0.500000
vn -0.000000 0.000000 -1.000000
v 19.584000 -10.879998 -1.088000
vt 0.500000 -0.500000
vn -0.000000 0.000000 1.000000
v 17.408033 -10.879998 -1.088000
vt 0.000000 -0.500000
vn -0.000000 0.000000 1.000000
v 19.584000 -4.351993 -1.088000
vt 0.500000 1.000000
vn -0.000000 0.000000 1.000000
v 17.408033 -4.351993 -1.088000
vt 0.000000 1.000000
vn -0.000000 0.000000 1.000000
v 17.408033 -4.351993 -1.088000
vt 0.000000 1.250000
vn -0.000000 -1.000000 0.000000
v 17.408033 -4.351993 5.440007
vt 0.000000 -0.250000
vn -0.000000 -1.000000 0.000000
v 19.584000 -4.351993 -1.088000
vt 0.500000 1.250000
vn -0.000000 -1.000000 0.000000
v 19.584000 -4.351993 5.440007
vt 0.500000 -0.250000
vn -0.000000 -1.000000 0.000000
v 19.584000 -4.351993 5.440007
vt 0.500000 1.000000
vn -0.000000 0.000000 -1.000000
v 17.408033 -10.879998 5.440007
vt 0.000000 -0.500000
vn -0.000000 0.000000 -1.000000
v 19.584000 -10.879998 5.440007
vt 0.500000 -0.500000
vn -0.000000 0.000000 -1.000000
v 17.408033 -4.351993 5.440007
vt 0.000000 1.000000
vn -0.000000 0.000000 -1.000000
v 19.584000 -10.879998 5.440007
vt 0.500000 -0.250000
vn -0.000000 1.000000 0.000000
v 17.408033 -10.879998 5.440007
vt 0.000000 -0.250000
vn -0.000000 1.000000 0.000000
v 19.584000 -10.879998 -1.088000
vt 0.500000 1.250000
vn -0.000000 1.000000 0.000000
v 17.408033 -10.879998 -1.088000
vt 0.000000 1.250000
vn -0.000000 1.000000 0.000000
v 17.408033 5.440007 3.263995
vt 1.000000 0.250000
vn -0.000000 0.000000 1.000000
v 10.879998 6.528005 3.263995
vt -0.500000 0.500000
vn -0.000000 0.000000 1.000000
v 11.967997 6.528005 3.263995
vt -0.250000 0.500000
vn -0.000000 0.000000 1.000000
v 10.879998 5.440007 3.263995
vt -0.500000 0.250000
vn -0.000000 0.000000 1.000000
v 9.792000 6.528005 3.263995
vt -0.750000 0.500000
vn -0.000000 0.000000 1.000000
v 9.792000 10.879998 3.263995
vt -0.750000 1.500000
vn -0.000000 0.000000 1.000000
v 17.408033 6.528005 3.263995
vt 1.000000 0.500000
vn -0.000000 0.000000 1.000000
v 10.879998 7.616003 3.263995
vt -0.500000 0.750000
vn -0.000000 0.000000 1.000000
v 10.879998 10.879998 3.263995
vt -0.500000 1.500000
vn -0.000000 0.000000 1.000000
v 11.967997 6.528005 9.792000
vt -0.250000 0.500000
vn -0.000000 0.000000 -1.000000
v 10.879998 6.528005 9.792000
vt -0.500000 0.500000
vn -0.000000 0.000000 -1.000000
v 10.879998 5.440007 9.792000
vt -0.500000 0.250000
vn -0.000000 0.000000 -1.000000
v 9.792000 6.528005 9.792000
vt -0.750000 0.500000
vn -0.000000 0.000000 -1.000000
v 17.408033 5.440007 9.792000
vt 1.000000 0.250000
vn -0.000000 0.000000 -1.000000
v 10.879998 7.616003 9.792000
vt -0.500000 0.750000
vn -0.000000 0.000000 -1.000000
v 17.408033 6.528005 9.792000
vt 1.000000 0.500000
vn -0.000000 0.000000 -1.000000
v 9.792000 10.879998 9.792000
vt -0.750000 1.500000
vn -0.000000 0.000000 -1.000000
v 10.879998 10.879998 9.792000
vt -0.500000 1.500000
vn -0.000000 0.000000 -1.000000
v 10.879998 10.879998 3.263995
vt 0.750000 1.500000
vn -0.000000 -1.000000 0.000000
v 9.792000 10.879998 9.792000
vt 0.500000 0.000000
vn -0.000000 -1.000000 0.000000
v 10.879998 10.879998 9.792000
vt 0.750000 0.000000
vn -0.000000 -1.000000 0.000000
v 9.792000 10.879998 3.263995
vt 0.500000 1.500000
vn -0.000000 -1.000000 0.000000
v 3.263995 5.440007 -34.544033
vt 0.500000 1.937500
vn -0.000000 -0.972387 0.233372
v 1.088000 8.704001 -20.944017
vt 0.000000 -1.187500
vn -0.000000 -0.972387 0.233372
v 3.263995 8.704001 -20.944017
vt 0.500000 -1.187500
vn -0.000000 -0.972387 0.233372
v 1.088000 5.440007 -34.544033
vt 0.000000 1.937500
vn -0.000000 -0.972387 0.233372
v -0.000000 8.704001 -3.263995
vt 1.000000 3.000000
vn -0.000000 0.000000 1.000000
v -2.175997 0.000000 -3.263995
vt 0.500000 1.000000
vn -0.000000 0.000000 1.000000
v -2.175997 8.704001 -3.263995
vt 0.500000 3.000000
vn -0.000000 0.000000 1.000000
v -0.000000 -10.879998 -3.263995
vt 1.000000 -1.500000
vn -0.000000 0.000000 1.000000
v -2.175997 -0.544001 -3.263995
vt 0.500000 0.875000
vn -0.000000 0.000000 1.000000
v -2.175997 -10.879998 -3.263995
vt 0.500000 -1.500000
vn -0.000000 0.000000 1.000000
v -2.175997 8.704001 16.320051
vt 0.500000 3.000000
vn -0.000000 0.000000 -1.000000
v -2.175997 -10.879998 16.320051
vt 0.500000 -1.500000
vn -0.000000 0.000000 -1.000000
v -0.000000 8.704001 16.320051
vt 1.000000 3.000000
vn -0.000000 0.000000 -1.000000
v -0.000000 -10.879998 16.320051
vt 1.000000 -1.500000
vn -0.000000 0.000000 -1.000000
v -2.175997 2.175997 29.376001
vt 0.000000 1.500000
vn -1.000000 0.000000 0.000000
v -2.175997 -4.351993 29.376001
vt 0.000000 0.000000
vn -1.000000 0.000000 0.000000
v -2.175997 2.175997 27.200033
vt 0.500000 1.500000
vn -1.000000 0.000000 0.000000
v -2.175997 -4.351993 27.200033
vt 0.500000 0.000000
vn -1.000000 0.000000 0.000000
v -2.175997 2.175997 27.200033
vt 1.500000 1.000000
vn -0.000000 -1.000000 0.000000
v -8.704001 2.175997 29.376001
vt 0.000000 0.500000
vn -0.000000 -1.000000 0.000000
v -2.175997 2.175997 29.376001
vt 1.500000 0.500000
vn -0.000000 -1.000000 0.000000
v -8.704001 2.175997 27.200033
vt 0.000000 1.000000
vn -0.000000 -1.000000 0.000000
v -2.175997 -4.351993 27.200033
vt 1.500000 0.500000
vn -0.000000 1.000000 0.000000
v -8.704001 -4.351993 29.376001
vt 0.000000 0.000000
vn -0.000000 1.000000 0.000000
v -8.704001 -4.351993 27.200033
vt 0.000000 0.500000
vn -0.000000 1.000000 0.000000
v -2.175997 -4.351993 29.376001
vt 1.500000 0.000000
vn -0.000000 1.000000 0.000000
v -8.704001 2.175997 27.200033
vt 0.500000 1.500000
vn 1.000000 0.000000 0.000000
v -8.704001 -4.351993 29.376001
vt 0.000000 0.000000
vn 1.000000 0.000000 0.000000
v -8.704001 2.175997 29.376001
vt 0.000000 1.500000
vn 1.000000 0.000000 0.000000
v -8.704001 -4.351993 27.200033
vt 0.500000 0.000000
vn 1.000000 0.000000 0.000000
v -8.704001 0.000000 -3.263995
vt 1.000000 1.000000
vn -0.000000 0.000000 1.000000
v -10.879998 8.704001 -3.263995
vt 0.500000 3.000000
vn -0.000000 0.000000 1.000000
v -8.704001 8.704001 -3.263995
vt 1.000000 3.000000
vn -0.000000 0.000000 1.000000
v -8.704001 -0.544001 -3.263995
vt 1.000000 0.875000
vn -0.000000 0.000000 1.000000
v -10.879998 -10.879998 -3.263995
vt 0.500000 -1.500000
vn -0.000000 0.000000 1.000000
v -8.704001 -10.879998 -3.263995
vt 1.000000 -1.500000
vn -0.000000 0.000000 1.000000
v -10.879998 8.704001 16.320051
vt 0.500000 3.000000
vn -0.000000 0.000000 -1.000000
v -10.879998 -10.879998 16.320051
vt 0.500000 -1.500000
vn -0.000000 0.000000 -1.000000
v -8.704001 8.704001 16.320051
vt 1.000000 3.000000
vn -0.000000 0.000000 -1.000000
v -8.704001 -10.879998 16.320051
vt 1.000000 -1.500000
vn -0.000000 0.000000 -1.000000
v -16.320051 6.528005 3.263995
vt 1.250000 0.500000
vn -0.000000 0.000000 1.000000
v -17.408033 5.440007 3.263995
vt 1.000000 0.250000
vn -0.000000 0.000000 1.000000
v -17.408033 6.528005 3.263995
vt 1.000000 0.500000
vn -0.000000 0.000000 1.000000
v -17.408033 7.616003 3.263995
vt 1.000000 0.750000
vn -0.000000 0.000000 1.000000
v -16.320051 10.879998 3.263995
vt 1.250000 1.500000
vn -0.000000 0.000000 1.000000
v -18.496016 6.528005 3.263995
vt 0.750000 0.500000
vn -0.000000 0.000000 1.000000
v -17.408033 10.879998 3.263995
vt 1.000000 1.500000
vn -0.000000 0.000000 1.000000
v -23.935930 6.528005 3.263995
vt -0.500000 0.500000
vn -0.000000 0.000000 1.000000
v -23.935930 5.440007 3.263995
vt -0.500000 0.250000
vn -0.000000 0.000000 1.000000
v -17.408033 10.879998 3.263995
vt 0.000000 1.250000
vn -0.000000 -1.000000 0.000000
v -17.408033 10.879998 9.792000
vt 0.000000 -0.250000
vn -0.000000 -1.000000 0.000000
v -16.320051 10.879998 3.263995
vt 0.250000 1.250000
vn -0.000000 -1.000000 0.000000
v -16.320051 10.879998 9.792000
vt 0.250000 -0.250000
vn -0.000000 -1.000000 0.000000
v -17.408033 7.616003 9.792000
vt 1.000000 0.750000
vn -0.000000 0.000000 -1.000000
v -17.408033 6.528005 9.792000
vt 1.000000 0.500000
vn -0.000000 0.000000 -1.000000
v -16.320051 10.879998 9.792000
vt 1.250000 1.500000
vn -0.000000 0.000000 -1.000000
v -16.320051 6.528005 9.792000
vt 1.250000 0.500000
vn -0.000000 0.000000 -1.000000
v -17.408033 5.440007 9.792000
vt 1.000000 0.250000
vn -0.000000 0.000000 -1.000000
v -18.496016 6.528005 9.792000
vt 0.750000 0.500000
vn -0.000000 0.000000 -1.000000
v -17.408033 10.879998 9.792000
vt 1.000000 1.500000
vn -0.000000 0.000000 -1.000000
v -23.935930 5.440007 9.792000
vt -0.500000 0.250000
vn -0.000000 0.000000 -1.000000
v -23.935930 6.528005 9.792000
vt -0.500000 0.500000
vn -0.000000 0.000000 -1.000000
v -23.935930 -10.879998 5.440007
vt 0.500000 -0.500000
vn -0.000000 0.000000 1.000000
v -26.112051 -10.879998 5.440007
vt 0.000000 -0.500000
vn -0.000000 0.000000 1.000000
v -23.935930 -4.351993 5.440007
vt 0.500000 1.000000
vn -0.000000 0.000000 1.000000
v -26.112051 -4.351993 5.440007
vt 0.000000 1.000000
vn -0.000000 0.000000 1.000000
v -23.935930 -4.351993 5.440007
vt 0.500000 1.750000
vn -0.000000 -1.000000 0.000000
v -26.112051 -4.351993 11.967997
vt 0.000000 0.250000
vn -0.000000 -1.000000 0.000000
v -23.935930 -4.351993 11.967997
vt 0.500000 0.250000
vn -0.000000 -1.000000 0.000000
v -26.112051 -4.351993 5.440007
vt 0.000000 1.750000
vn -0.000000 -1.000000 0.000000
v -23.935930 -10.879998 5.440007
vt 0.500000 1.750000
vn -0.000000 1.000000 0.000000
v -26.112051 -10.879998 11.967997
vt 0.000000 0.250000
vn -0.000000 1.000000 0.000000
v -26.112051 -10.879998 5.440007
vt 0.000000 1.750000
vn -0.000000 1.000000 0.000000
v -23.935930 -10.879998 11.967997
vt 0.500000 0.250000
vn -0.000000 1.000000 0.000000
v -26.112051 -4.351993 11.967997
vt 0.000000 1.000000
vn -0.000000 0.000000 -1.000000
v -26.112051 -10.879998 11.967997
vt 0.000000 -0.500000
vn -0.000000 0.000000 -1.000000
v -23.935930 -4.351993 11.967997
vt 0.500000 1.000000
vn -0.000000 0.000000 -1.000000
v -23.935930 -10.879998 11.967997
vt 0.500000 -0.500000
vn -0.000000 0.000000 -1.000000
v -26.112051 4.351993 5.440007
vt 1.000000 -1.000000
vn -0.000000 0.000000 1.000000
v -30.463984 5.440007 5.440007
vt 0.000000 -0.750000
vn -0.000000 0.000000 1.000000
v -28.288015 5.440007 5.440007
vt 0.500000 -0.750000
vn -0.000000 0.000000 1.000000
v -30.463984 4.351993 5.440007
vt 0.000000 -1.000000
vn -0.000000 0.000000 1.000000
v -32.639946 6.528005 5.440007
vt -0.500000 -0.500000
vn -0.000000 0.000000 1.000000
v -31.551966 6.528005 5.440007
vt -0.250000 -0.500000
vn -0.000000 0.000000 1.000000
v -26.112051 5.440007 5.440007
vt 1.000000 -0.750000
vn -0.000000 0.000000 1.000000
v -31.551966 13.055995 5.440007
vt -0.250000 1.000000
vn -0.000000 0.000000 1.000000
v -32.639946 15.232006 5.440007
vt -0.500000 1.500000
vn -0.000000 0.000000 1.000000
v -31.551966 15.232006 5.440007
vt -0.250000 1.500000
vn -0.000000 0.000000 1.000000
v -31.551966 16.320051 5.440007
vt -0.250000 1.750000
vn -0.000000 0.000000 1.000000
v -26.112051 16.320051 5.440007
vt 1.000000 1.750000
vn -0.000000 0.000000 1.000000
v -26.112051 15.232006 5.440007
vt 1.000000 1.500000
vn -0.000000 0.000000 1.000000
v -28.288015 5.440007 11.967997
vt 0.500000 -0.750000
vn -0.000000 0.000000 -1.000000
v -30.463984 5.440007 11.967997
vt 0.000000 -0.750000
vn -0.000000 0.000000 -1.000000
v -30.463984 4.351993 11.967997
vt 0.000000 -1.000000
vn -0.000000 0.000000 -1.000000
v -26.112051 4.351993 11.967997
vt 1.000000 -1.000000
vn -0.000000 0.000000 -1.000000
v -32.639946 6.528005 11.967997
vt -0.500000 -0.500000
vn -0.000000 0.000000 -1.000000
v -31.551966 6.528005 11.967997
vt -0.250000 -0.500000
vn -0.000000 0.000000 -1.000000
v -26.112051 5.440007 11.967997
vt 1.000000 -0.750000
vn -0.000000 0.000000 -1.000000
v -31.551966 13.055995 11.967997
vt -0.250000 1.000000
vn -0.000000 0.000000 -1.000000
v -31.551966 15.232006 11.967997
vt -0.250000 1.500000
vn -0.000000 0.000000 -1.000000
v -32.639946 15.232006 11.967997
vt -0.500000 1.500000
vn -0.000000 0.000000 -1.000000
v -31.551966 16.320051 11.967997
vt -0.250000 1.750000
vn -0.000000 0.000000 -1.000000
v -26.112051 16.320051 11.967997
vt 1.000000 1.750000
vn -0.000000 0.000000 -1.000000
v -26.112051 15.232006 11.967997
vt 1.000000 1.500000
vn -0.000000 0.000000 -1.000000
v -26.112051 5.440007 -8.704001
vt 1.000000 -0.750000
vn -0.000000 0.000000 1.000000
v -30.463984 6.528005 -8.704001
vt 0.000000 -0.500000
vn -0.000000 0.000000 1.000000
v -29.376001 6.528005 -8.704001
vt 0.250000 -0.500000
vn -0.000000 0.000000 1.000000
v -30.463984 5.440007 -8.704001
vt 0.000000 -0.750000
vn -0.000000 0.000000 1.000000
v -31.551966 6.528005 -8.704001
vt -0.250000 -0.500000
vn -0.000000 0.000000 1.000000
v -31.551966 13.055995 -8.704001
vt -0.250000 1.000000
vn -0.000000 0.000000 1.000000
v -26.112051 6.528005 -8.704001
vt 1.000000 -0.500000
vn -0.000000 0.000000 1.000000
v -30.463984 7.616003 -8.704001
vt 0.000000 -0.250000
vn -0.000000 0.000000 1.000000
v -30.463984 13.055995 -8.704001
vt 0.000000 1.000000
vn -0.000000 0.000000 1.000000
v -30.463984 5.440007 26.112051
vt 0.000000 -0.750000
vn -0.000000 0.000000 -1.000000
v -30.463984 6.528005 26.112051
vt 0.000000 -0.500000
vn -0.000000 0.000000 -1.000000
v -31.551966 6.528005 26.112051
vt -0.250000 -0.500000
vn -0.000000 0.000000 -1.000000
v -29.376001 6.528005 26.112051
vt 0.250000 -0.500000
vn -0.000000 0.000000 -1.000000
v -26.112051 5.440007 26.112051
vt 1.000000 -0.750000
vn -0.000000 0.000000 -1.000000
v -30.463984 7.616003 26.112051
vt 0.000000 -0.250000
vn -0.000000 0.000000 -1.000000
v -26.112051 6.528005 26.112051
vt 1.000000 -0.500000
vn -0.000000 0.000000 -1.000000
v -31.551966 13.055995 26.112051
vt -0.250000 1.000000
vn -0.000000 0.000000 -1.000000
v -30.463984 13.055995 26.112051
vt 0.000000 1.000000
vn -0.000000 0.000000 -1.000000
v -30.463984 13.055995 -8.704001
vt 1.000000 5.000000
vn -0.000000 -1.000000 0.000000
v -31.551966 13.055995 5.440007
vt 0.750000 1.750000
vn -0.000000 -1.000000 0.000000
v -30.463984 13.055995 3.263995
vt 1.000000 2.250000
vn -0.000000 -1.000000 0.000000
v -31.551966 13.055995 3.263995
vt 0.750000 2.250000
vn -0.000000 -1.000000 0.000000
v -31.551966 13.055995 11.967997
vt 0.750000 0.250000
vn -0.000000 -1.000000 0.000000
v -31.551966 13.055995 -8.704001
vt 0.750000 5.000000
vn -0.000000 -1.000000 0.000000
v -30.463984 13.055995 14.143993
vt 1.000000 -0.250000
vn -0.000000 -1.000000 0.000000
v -31.551966 13.055995 14.143993
vt 0.750000 -0.250000
vn -0.000000 -1.000000 0.000000
v -30.463984 13.055995 26.112051
vt 1.000000 -3.000000
vn -0.000000 -1.000000 0.000000
v -31.551966 13.055995 26.112051
vt 0.750000 -3.000000
vn -0.000000 -1.000000 0.000000
# Faces (1 to 198)
g VIFS012_0
f -196/-196/-196 -197/-197/-197 -198/-198/-198
f -195/-195/-195 -197/-197/-197 -196/-196/-196
f -192/-192/-192 -193/-193/-193 -194/-194/-194
f -194/-194/-194 -193/-193/-193 -191/-191/-191
f -188/-188/-188 -189/-189/-189 -190/-190/-190
f -190/-190/-190 -189/-189/-189 -187/-187/-187
f -184/-184/-184 -185/-185/-185 -186/-186/-186
f -183/-183/-183 -185/-185/-185 -184/-184/-184
f -180/-180/-180 -181/-181/-181 -182/-182/-182
f -182/-182/-182 -181/-181/-181 -179/-179/-179
f -176/-176/-176 -177/-177/-177 -178/-178/-178
f -178/-178/-178 -177/-177/-177 -175/-175/-175
f -172/-172/-172 -173/-173/-173 -174/-174/-174
f -171/-171/-171 -173/-173/-173 -172/-172/-172
f -168/-168/-168 -169/-169/-169 -170/-170/-170
f -167/-167/-167 -169/-169/-169 -168/-168/-168
f -164/-164/-164 -165/-165/-165 -166/-166/-166
f -163/-163/-163 -165/-165/-165 -164/-164/-164
f -160/-160/-160 -161/-161/-161 -162/-162/-162
f -162/-162/-162 -161/-161/-161 -159/-159/-159
f -156/-156/-156 -157/-157/-157 -158/-158/-158
f -155/-155/-155 -157/-157/-157 -156/-156/-156
f -152/-152/-152 -153/-153/-153 -154/-154/-154
f -153/-153/-153 -151/-151/-151 -154/-154/-154
f -150/-150/-150 -151/-151/-151 -153/-153/-153
f -149/-149/-149 -150/-150/-150 -153/-153/-153
f -148/-148/-148 -152/-152/-152 -154/-154/-154
f -147/-147/-147 -149/-149/-149 -153/-153/-153
f -147/-147/-147 -146/-146/-146 -149/-149/-149
f -143/-143/-143 -144/-144/-144 -145/-145/-145
f -142/-142/-142 -144/-144/-144 -143/-143/-143
f -141/-141/-141 -143/-143/-143 -145/-145/-145
f -142/-142/-142 -140/-140/-140 -144/-144/-144
f -139/-139/-139 -141/-141/-141 -145/-145/-145
f -138/-138/-138 -140/-140/-140 -142/-142/-142
f -138/-138/-138 -137/-137/-137 -140/-140/-140
f -134/-134/-134 -135/-135/-135 -136/-136/-136
f -136/-136/-136 -135/-135/-135 -133/-133/-133
f -130/-130/-130 -131/-131/-131 -132/-132/-132
f -132/-132/-132 -131/-131/-131 -129/-129/-129
f -126/-126/-126 -127/-127/-127 -128/-128/-128
f -128/-128/-128 -127/-127/-127 -125/-125/-125
f -127/-127/-127 -124/-124/-124 -125/-125/-125
f -125/-125/-125 -124/-124/-124 -123/-123/-123
f -120/-120/-120 -121/-121/-121 -122/-122/-122
f -119/-119/-119 -121/-121/-121 -120/-120/-120
f -116/-116/-116 -117/-117/-117 -118/-118/-118
f -115/-115/-115 -117/-117/-117 -116/-116/-116
f -112/-112/-112 -113/-113/-113 -114/-114/-114
f -114/-114/-114 -113/-113/-113 -111/-111/-111
f -108/-108/-108 -109/-109/-109 -110/-110/-110
f -110/-110/-110 -109/-109/-109 -107/-107/-107
f -104/-104/-104 -105/-105/-105 -106/-106/-106
f -106/-106/-106 -105/-105/-105 -103/-103/-103
f -100/-100/-100 -101/-101/-101 -102/-102/-102
f -102/-102/-102 -101/-101/-101 -99/-99/-99
f -101/-101/-101 -98/-98/-98 -99/-99/-99
f -99/-99/-99 -98/-98/-98 -97/-97/-97
f -94/-94/-94 -95/-95/-95 -96/-96/-96
f -93/-93/-93 -95/-95/-95 -94/-94/-94
f -90/-90/-90 -91/-91/-91 -92/-92/-92
f -90/-90/-90 -92/-92/-92 -89/-89/-89
f -89/-89/-89 -92/-92/-92 -88/-88/-88
f -90/-90/-90 -87/-87/-87 -91/-91/-91
f -86/-86/-86 -89/-89/-89 -88/-88/-88
f -87/-87/-87 -85/-85/-85 -91/-91/-91
f -85/-85/-85 -84/-84/-84 -91/-91/-91
f -81/-81/-81 -82/-82/-82 -83/-83/-83
f -80/-80/-80 -82/-82/-82 -81/-81/-81
f -77/-77/-77 -78/-78/-78 -79/-79/-79
f -76/-76/-76 -78/-78/-78 -77/-77/-77
f -76/-76/-76 -75/-75/-75 -78/-78/-78
f -75/-75/-75 -74/-74/-74 -78/-78/-78
f -73/-73/-73 -77/-77/-77 -79/-79/-79
f -72/-72/-72 -74/-74/-74 -75/-75/-75
f -72/-72/-72 -71/-71/-71 -74/-74/-74
f -68/-68/-68 -69/-69/-69 -70/-70/-70
f -67/-67/-67 -69/-69/-69 -68/-68/-68
f -64/-64/-64 -65/-65/-65 -66/-66/-66
f -66/-66/-66 -65/-65/-65 -63/-63/-63
f -60/-60/-60 -61/-61/-61 -62/-62/-62
f -62/-62/-62 -61/-61/-61 -59/-59/-59
f -56/-56/-56 -57/-57/-57 -58/-58/-58
f -55/-55/-55 -57/-57/-57 -56/-56/-56
f -52/-52/-52 -53/-53/-53 -54/-54/-54
f -53/-53/-53 -51/-51/-51 -54/-54/-54
f -50/-50/-50 -51/-51/-51 -53/-53/-53
f -49/-49/-49 -50/-50/-50 -53/-53/-53
f -48/-48/-48 -52/-52/-52 -54/-54/-54
f -49/-49/-49 -47/-47/-47 -50/-50/-50
f -47/-47/-47 -46/-46/-46 -50/-50/-50
f -45/-45/-45 -46/-46/-46 -47/-47/-47
f -45/-45/-45 -44/-44/-44 -46/-46/-46
f -43/-43/-43 -44/-44/-44 -45/-45/-45
f -42/-42/-42 -43/-43/-43 -45/-45/-45
f -39/-39/-39 -40/-40/-40 -41/-41/-41
f -38/-38/-38 -39/-39/-39 -41/-41/-41
f -37/-37/-37 -40/-40/-40 -39/-39/-39
f -37/-37/-37 -36/-36/-36 -40/-40/-40
f -35/-35/-35 -38/-38/-38 -41/-41/-41
f -34/-34/-34 -36/-36/-36 -37/-37/-37
f -33/-33/-33 -34/-34/-34 -37/-37/-37
f -32/-32/-32 -33/-33/-33 -37/-37/-37
f -32/-32/-32 -31/-31/-31 -33/-33/-33
f -31/-31/-31 -30/-30/-30 -33/-33/-33
f -30/-30/-30 -29/-29/-29 -33/-33/-33
f -26/-26/-26 -27/-27/-27 -28/-28/-28
f -27/-27/-27 -25/-25/-25 -28/-28/-28
f -24/-24/-24 -25/-25/-25 -27/-27/-27
f -23/-23/-23 -24/-24/-24 -27/-27/-27
f -22/-22/-22 -26/-26/-26 -28/-28/-28
f -21/-21/-21 -23/-23/-23 -27/-27/-27
f -21/-21/-21 -20/-20/-20 -23/-23/-23
f -17/-17/-17 -18/-18/-18 -19/-19/-19
f -19/-19/-19 -18/-18/-18 -16/-16/-16
f -15/-15/-15 -19/-19/-19 -16/-16/-16
f -17/-17/-17 -14/-14/-14 -18/-18/-18
f -13/-13/-13 -15/-15/-15 -16/-16/-16
f -12/-12/-12 -14/-14/-14 -17/-17/-17
f -12/-12/-12 -11/-11/-11 -14/-14/-14
f -8/-8/-8 -9/-9/-9 -10/-10/-10
f -10/-10/-10 -9/-9/-9 -7/-7/-7
f -8/-8/-8 -6/-6/-6 -9/-9/-9
f -5/-5/-5 -10/-10/-10 -7/-7/-7
f -4/-4/-4 -6/-6/-6 -8/-8/-8
f -4/-4/-4 -3/-3/-3 -6/-6/-6
f -2/-2/-2 -3/-3/-3 -4/-4/-4
f -2/-2/-2 -1/-1/-1 -3/-3/-3

