# Mesh "VIFS008" exported with Unity Assets Bundle Extractor; 16 vertices, 24 indices, 448 bits per vertex
g VIFS008
# SubMesh 0
# Vertices
v -105.536026 8.704001 38.352051
vt 2.187500 1.000000
vn 1.000000 0.000000 0.000000
v -105.536026 5.440007 51.952068
vt -0.937500 0.250000
vn 1.000000 0.000000 0.000000
v -105.536026 10.879998 38.352051
vt 2.187500 1.500000
vn 1.000000 0.000000 0.000000
v -105.536026 7.616003 51.952068
vt -0.937500 0.750000
vn 1.000000 0.000000 0.000000
v -107.711998 7.616003 51.952068
vt -0.937500 0.750000
vn -1.000000 0.000000 0.000000
v -107.711998 5.440007 51.952068
vt -0.937500 0.250000
vn -1.000000 0.000000 0.000000
v -107.711998 10.879998 38.352051
vt 2.187500 1.500000
vn -1.000000 0.000000 0.000000
v -107.711998 8.704001 38.352051
vt 2.187500 1.000000
vn -1.000000 0.000000 0.000000
v -136.815964 4.351993 25.024069
vt -1.437500 1.000000
vn -0.000000 0.000000 -1.000000
v -136.815964 2.175997 25.024069
vt -1.437500 0.500000
vn -0.000000 0.000000 -1.000000
v -124.303932 6.528005 25.024069
vt 1.437500 1.500000
vn -0.000000 0.000000 -1.000000
v -124.303932 4.351993 25.024069
vt 1.437500 1.000000
vn -0.000000 0.000000 -1.000000
v -124.303932 6.528005 27.200033
vt 1.437500 1.500000
vn -0.000000 0.000000 1.000000
v -136.815964 2.175997 27.200033
vt -1.437500 0.500000
vn -0.000000 0.000000 1.000000
v -136.815964 4.351993 27.200033
vt -1.437500 1.000000
vn -0.000000 0.000000 1.000000
v -124.303932 4.351993 27.200033
vt 1.437500 1.000000
vn -0.000000 0.000000 1.000000
# Faces (1 to 16)
g VIFS008_0
f -14/-14/-14 -15/-15/-15 -16/-16/-16
f -13/-13/-13 -15/-15/-15 -14/-14/-14
f -10/-10/-10 -11/-11/-11 -12/-12/-12
f -9/-9/-9 -11/-11/-11 -10/-10/-10
f -6/-6/-6 -7/-7/-7 -8/-8/-8
f -5/-5/-5 -7/-7/-7 -6/-6/-6
f -2/-2/-2 -3/-3/-3 -4/-4/-4
f -4/-4/-4 -3/-3/-3 -1/-1/-1

