# Mesh "Ground" exported with Unity Assets Bundle Extractor; 149 vertices, 420 indices, 320 bits per vertex
g Ground
# SubMesh 0
# Vertices
v -2.978472 -6.084953 26.404305
vt 0.220102 0.437775
vn -0.000000 1.000000 0.000000
v -0.000001 -6.084953 25.724489
vt 0.501036 0.512747
vn -0.000000 1.000000 0.000000
v -2.752522 -6.084953 27.050034
vt 0.241414 0.377577
vn -0.000000 1.000000 0.000000
v -2.388550 -6.084953 27.629292
vt 0.275744 0.323576
vn -0.000000 1.000000 0.000000
v -1.904805 -6.084953 28.113039
vt 0.321372 0.278480
vn -0.000000 1.000000 0.000000
v -1.325545 -6.084953 28.477011
vt 0.376009 0.244549
vn -0.000000 1.000000 0.000000
v -0.679818 -6.084953 28.702957
vt 0.436915 0.223485
vn -0.000000 1.000000 0.000000
v -0.000001 -6.084953 28.779554
vt 0.501036 0.216344
vn -0.000000 1.000000 0.000000
v 0.679816 -6.084953 28.702957
vt 0.565158 0.223485
vn -0.000000 1.000000 0.000000
v 1.325544 -6.084953 28.477011
vt 0.626064 0.244549
vn -0.000000 1.000000 0.000000
v 1.904804 -6.084953 28.113039
vt 0.680700 0.278480
vn -0.000000 1.000000 0.000000
v 2.388548 -6.084953 27.629292
vt 0.726328 0.323576
vn -0.000000 1.000000 0.000000
v 2.752521 -6.084953 27.050034
vt 0.760659 0.377577
vn -0.000000 1.000000 0.000000
v 2.978471 -6.084953 26.404305
vt 0.781971 0.437775
vn -0.000000 1.000000 0.000000
v 3.055068 -6.084953 25.724489
vt 0.789195 0.501150
vn -0.000000 1.000000 0.000000
v 2.978471 -6.084953 25.044672
vt 0.781971 0.564525
vn -0.000000 1.000000 0.000000
v 2.752522 -6.084953 24.398943
vt 0.760659 0.624723
vn -0.000000 1.000000 0.000000
v 2.388549 -6.084953 23.819683
vt 0.726328 0.678723
vn -0.000000 1.000000 0.000000
v 1.904804 -6.084953 23.335938
vt 0.680700 0.723820
vn -0.000000 1.000000 0.000000
v 1.325544 -6.084953 22.971966
vt 0.626064 0.757751
vn -0.000000 1.000000 0.000000
v 0.679816 -6.084953 22.746012
vt 0.565158 0.778815
vn -0.000000 1.000000 0.000000
v -0.000001 -6.084953 22.669418
vt 0.501036 0.785956
vn -0.000000 1.000000 0.000000
v -0.679818 -6.084953 22.746012
vt 0.436915 0.778815
vn -0.000000 1.000000 0.000000
v -1.325546 -6.084953 22.971966
vt 0.376009 0.757751
vn -0.000000 1.000000 0.000000
v -1.904805 -6.084953 23.335938
vt 0.321372 0.723820
vn -0.000000 1.000000 0.000000
v -2.388551 -6.084953 23.819683
vt 0.275745 0.678723
vn -0.000000 1.000000 0.000000
v -2.752524 -6.084953 24.398943
vt 0.241414 0.624723
vn -0.000000 1.000000 0.000000
v -2.978473 -6.084953 25.044672
vt 0.220102 0.564525
vn -0.000000 1.000000 0.000000
v -3.055071 -6.084953 25.724489
vt 0.212877 0.501150
vn -0.000000 1.000000 0.000000
v -2.992912 -6.111942 26.407600
vt 0.215051 0.436635
vn -0.854685 0.481100 0.195078
v -2.752522 -6.084953 27.050034
vt 0.241414 0.377577
vn -0.789845 0.481107 0.380369
v -2.765867 -6.111942 27.056459
vt 0.236747 0.375356
vn -0.789845 0.481107 0.380369
v -2.978472 -6.084953 26.404305
vt 0.220102 0.437775
vn -0.854685 0.481100 0.195078
v -2.388550 -6.084953 27.629292
vt 0.275744 0.323576
vn -0.685400 0.481112 0.546588
v -2.400130 -6.111942 27.638529
vt 0.271694 0.320384
vn -0.685400 0.481112 0.546588
v -1.904805 -6.084953 28.113039
vt 0.321372 0.278480
vn -0.546592 0.481100 0.685405
v -1.914040 -6.111942 28.124617
vt 0.318142 0.274477
vn -0.546592 0.481100 0.685405
v -1.325545 -6.084953 28.477011
vt 0.376009 0.244549
vn -0.380369 0.481107 0.789846
v -1.331972 -6.111942 28.490356
vt 0.373761 0.239936
vn -0.380369 0.481107 0.789846
v -0.679818 -6.084953 28.702957
vt 0.436915 0.223485
vn -0.195072 0.481120 0.854675
v -0.683114 -6.111942 28.717398
vt 0.435762 0.218493
vn -0.195072 0.481120 0.854675
v -0.000001 -6.084953 28.779554
vt 0.501036 0.216344
vn -0.000000 0.481117 0.876656
v -0.000001 -6.111942 28.794367
vt 0.501036 0.211224
vn -0.000000 0.481117 0.876656
v 0.679816 -6.084953 28.702957
vt 0.565158 0.223485
vn 0.195072 0.481120 0.854676
v 0.683112 -6.111942 28.717398
vt 0.566310 0.218493
vn 0.195072 0.481120 0.854676
v 0.683112 -6.111942 28.717398
vt 0.566310 0.218493
vn 0.195072 0.481120 0.854676
v 1.325544 -6.084953 28.477011
vt 0.626064 0.244549
vn 0.380369 0.481106 0.789846
v 1.331970 -6.111942 28.490356
vt 0.628312 0.239936
vn 0.380369 0.481106 0.789846
v 0.679816 -6.084953 28.702957
vt 0.565158 0.223485
vn 0.195072 0.481120 0.854676
v 1.904804 -6.084953 28.113039
vt 0.680700 0.278480
vn 0.546594 0.481095 0.685407
v 1.914039 -6.111942 28.124617
vt 0.683930 0.274477
vn 0.546594 0.481095 0.685407
v 2.388548 -6.084953 27.629292
vt 0.726328 0.323576
vn 0.685401 0.481108 0.546590
v 2.400128 -6.111942 27.638529
vt 0.730378 0.320384
vn 0.685401 0.481108 0.546590
v 2.752521 -6.084953 27.050034
vt 0.760659 0.377577
vn 0.789841 0.481115 0.380368
v 2.765866 -6.111942 27.056459
vt 0.765326 0.375356
vn 0.789841 0.481115 0.380368
v 2.978471 -6.084953 26.404305
vt 0.781971 0.437775
vn 0.854677 0.481117 0.195075
v 2.992912 -6.111942 26.407600
vt 0.787021 0.436635
vn 0.854677 0.481117 0.195075
v 3.055068 -6.084953 25.724489
vt 0.789195 0.501150
vn 0.876656 0.481117 0.000000
v 3.069880 -6.111942 25.724489
vt 0.794376 0.501150
vn 0.876656 0.481117 0.000000
v 2.978471 -6.084953 25.044672
vt 0.781971 0.564525
vn 0.854679 0.481114 -0.195074
v 2.992912 -6.111942 25.041376
vt 0.787021 0.565664
vn 0.854679 0.481114 -0.195074
v 2.992912 -6.111942 25.041376
vt 0.787021 0.565664
vn 0.854679 0.481114 -0.195074
v 2.752522 -6.084953 24.398943
vt 0.760659 0.624723
vn 0.789842 0.481115 -0.380365
v 2.765867 -6.111942 24.392517
vt 0.765326 0.626944
vn 0.789842 0.481115 -0.380365
v 2.978471 -6.084953 25.044672
vt 0.781971 0.564525
vn 0.854679 0.481114 -0.195074
v 2.388549 -6.084953 23.819683
vt 0.726328 0.678723
vn 0.685395 0.481125 -0.546582
v 2.400129 -6.111942 23.810446
vt 0.730378 0.681916
vn 0.685395 0.481125 -0.546582
v 1.904804 -6.084953 23.335938
vt 0.680700 0.723820
vn 0.546584 0.481119 -0.685398
v 1.914039 -6.111942 23.324358
vt 0.683930 0.727823
vn 0.546584 0.481119 -0.685398
v 1.325544 -6.084953 22.971966
vt 0.626064 0.757751
vn 0.380368 0.481112 -0.789843
v 1.331970 -6.111942 22.958620
vt 0.628312 0.762364
vn 0.380368 0.481112 -0.789843
v 0.679816 -6.084953 22.746012
vt 0.565158 0.778815
vn 0.195074 0.481114 -0.854679
v 0.683112 -6.111942 22.731571
vt 0.566311 0.783807
vn 0.195074 0.481114 -0.854679
v -0.000001 -6.084953 22.669418
vt 0.501036 0.785956
vn -0.000000 0.481113 -0.876658
v -0.000001 -6.111942 22.654606
vt 0.501036 0.791076
vn -0.000000 0.481113 -0.876658
v -0.679818 -6.084953 22.746012
vt 0.436915 0.778815
vn -0.195076 0.481120 -0.854675
v -0.683114 -6.111942 22.731571
vt 0.435762 0.783807
vn -0.195076 0.481120 -0.854675
v -0.683114 -6.111942 22.731571
vt 0.435762 0.783807
vn -0.195076 0.481120 -0.854675
v -1.325546 -6.084953 22.971966
vt 0.376009 0.757751
vn -0.380369 0.481115 -0.789840
v -1.331972 -6.111942 22.958620
vt 0.373761 0.762364
vn -0.380369 0.481115 -0.789840
v -0.679818 -6.084953 22.746012
vt 0.436915 0.778815
vn -0.195076 0.481120 -0.854675
v -1.904805 -6.084953 23.335938
vt 0.321372 0.723820
vn -0.546584 0.481117 -0.685399
v -1.914040 -6.111942 23.324358
vt 0.318142 0.727823
vn -0.546584 0.481117 -0.685399
v -2.388551 -6.084953 23.819683
vt 0.275745 0.678723
vn -0.685396 0.481121 -0.546585
v -2.400131 -6.111942 23.810446
vt 0.271694 0.681916
vn -0.685396 0.481121 -0.546585
v -2.752524 -6.084953 24.398943
vt 0.241414 0.624723
vn -0.789845 0.481107 -0.380370
v -2.765869 -6.111942 24.392517
vt 0.236747 0.626944
vn -0.789845 0.481107 -0.380370
v -2.978473 -6.084953 25.044672
vt 0.220102 0.564525
vn -0.854685 0.481101 -0.195078
v -2.992913 -6.111942 25.041376
vt 0.215052 0.565665
vn -0.854685 0.481101 -0.195078
v -3.055071 -6.084953 25.724489
vt 0.212877 0.501150
vn -0.876663 0.481104 0.000000
v -3.069883 -6.111942 25.724489
vt 0.207697 0.501150
vn -0.876663 0.481104 0.000000
v -2.978472 -6.084953 26.404305
vt 0.220102 0.437775
vn -0.854685 0.481100 0.195078
v -2.992912 -6.111942 26.407600
vt 0.215051 0.436635
vn -0.854685 0.481100 0.195078
v -5.161510 -6.111942 26.902567
vt 0.012536 0.388740
vn -0.000000 1.000000 0.000000
v -2.765867 -6.111942 27.056459
vt 0.236747 0.375356
vn -0.000000 1.000000 0.000000
v -4.769953 -6.111942 28.021576
vt 0.049516 0.283058
vn -0.000000 1.000000 0.000000
v -2.992912 -6.111942 26.407600
vt 0.215051 0.436635
vn -0.000000 1.000000 0.000000
v -2.400130 -6.111942 27.638529
vt 0.271694 0.320384
vn -0.000000 1.000000 0.000000
v -4.139211 -6.111942 29.025398
vt 0.109084 0.188255
vn -0.000000 1.000000 0.000000
v -1.914040 -6.111942 28.124617
vt 0.318142 0.274477
vn -0.000000 1.000000 0.000000
v -3.300910 -6.111942 29.863697
vt 0.188255 0.109084
vn -0.000000 1.000000 0.000000
v -1.331972 -6.111942 28.490356
vt 0.373761 0.239936
vn -0.000000 1.000000 0.000000
v -2.297089 -6.111942 30.494442
vt 0.283058 0.049516
vn -0.000000 1.000000 0.000000
v -0.683114 -6.111942 28.717398
vt 0.435762 0.218493
vn -0.000000 1.000000 0.000000
v -1.178082 -6.111942 30.885996
vt 0.388740 0.012536
vn -0.000000 1.000000 0.000000
v -0.000001 -6.111942 28.794367
vt 0.501036 0.211224
vn -0.000000 1.000000 0.000000
v -0.000001 -6.111942 31.018734
vt 0.500000 0.000000
vn -0.000000 1.000000 0.000000
v 0.683112 -6.111942 28.717398
vt 0.566310 0.218493
vn -0.000000 1.000000 0.000000
v 1.178080 -6.111942 30.885996
vt 0.611260 0.012536
vn -0.000000 1.000000 0.000000
v 1.331970 -6.111942 28.490356
vt 0.628312 0.239936
vn -0.000000 1.000000 0.000000
v 2.297087 -6.111942 30.494442
vt 0.716942 0.049516
vn -0.000000 1.000000 0.000000
v 1.914039 -6.111942 28.124617
vt 0.683930 0.274477
vn -0.000000 1.000000 0.000000
v 3.300909 -6.111942 29.863697
vt 0.811745 0.109084
vn -0.000000 1.000000 0.000000
v 2.400128 -6.111942 27.638529
vt 0.730378 0.320384
vn -0.000000 1.000000 0.000000
v 4.139209 -6.111942 29.025398
vt 0.890916 0.188255
vn -0.000000 1.000000 0.000000
v 2.765866 -6.111942 27.056459
vt 0.765326 0.375356
vn -0.000000 1.000000 0.000000
v 4.769952 -6.111942 28.021578
vt 0.950484 0.283058
vn -0.000000 1.000000 0.000000
v 2.992912 -6.111942 26.407600
vt 0.787021 0.436635
vn -0.000000 1.000000 0.000000
v 5.161510 -6.111942 26.902567
vt 0.987464 0.388740
vn -0.000000 1.000000 0.000000
v 3.069880 -6.111942 25.724489
vt 0.794376 0.501150
vn -0.000000 1.000000 0.000000
v 5.294248 -6.111942 25.724489
vt 1.000000 0.500000
vn -0.000000 1.000000 0.000000
v 2.992912 -6.111942 25.041376
vt 0.787021 0.565664
vn -0.000000 1.000000 0.000000
v 5.161510 -6.111942 24.546406
vt 0.987464 0.611260
vn -0.000000 1.000000 0.000000
v 2.765867 -6.111942 24.392517
vt 0.765326 0.626944
vn -0.000000 1.000000 0.000000
v 4.769953 -6.111942 23.427399
vt 0.950485 0.716942
vn -0.000000 1.000000 0.000000
v 2.400129 -6.111942 23.810446
vt 0.730378 0.681916
vn -0.000000 1.000000 0.000000
v 4.139210 -6.111942 22.423576
vt 0.890916 0.811745
vn -0.000000 1.000000 0.000000
v 1.914039 -6.111942 23.324358
vt 0.683930 0.727823
vn -0.000000 1.000000 0.000000
v 3.300910 -6.111942 21.585276
vt 0.811745 0.890916
vn -0.000000 1.000000 0.000000
v 1.331970 -6.111942 22.958620
vt 0.628312 0.762364
vn -0.000000 1.000000 0.000000
v 2.297088 -6.111942 20.954535
vt 0.716942 0.950484
vn -0.000000 1.000000 0.000000
v 0.683112 -6.111942 22.731571
vt 0.566311 0.783807
vn -0.000000 1.000000 0.000000
v 1.178081 -6.111942 20.562975
vt 0.611261 0.987464
vn -0.000000 1.000000 0.000000
v -0.000001 -6.111942 22.654606
vt 0.501036 0.791076
vn -0.000000 1.000000 0.000000
v -0.000001 -6.111942 20.430235
vt 0.500000 1.000000
vn -0.000000 1.000000 0.000000
v -0.683114 -6.111942 22.731571
vt 0.435762 0.783807
vn -0.000000 1.000000 0.000000
v -1.178082 -6.111942 20.562975
vt 0.388740 0.987464
vn -0.000000 1.000000 0.000000
v -1.331972 -6.111942 22.958620
vt 0.373761 0.762364
vn -0.000000 1.000000 0.000000
v -2.297089 -6.111942 20.954533
vt 0.283058 0.950485
vn -0.000000 1.000000 0.000000
v -1.914040 -6.111942 23.324358
vt 0.318142 0.727823
vn -0.000000 1.000000 0.000000
v -3.300910 -6.111942 21.585276
vt 0.188255 0.890916
vn -0.000000 1.000000 0.000000
v -2.400131 -6.111942 23.810446
vt 0.271694 0.681916
vn -0.000000 1.000000 0.000000
v -4.139212 -6.111942 22.423576
vt 0.109085 0.811745
vn -0.000000 1.000000 0.000000
v -2.765869 -6.111942 24.392517
vt 0.236747 0.626944
vn -0.000000 1.000000 0.000000
v -4.769956 -6.111942 23.427399
vt 0.049516 0.716942
vn -0.000000 1.000000 0.000000
v -2.992913 -6.111942 25.041376
vt 0.215052 0.565665
vn -0.000000 1.000000 0.000000
v -5.161512 -6.111942 24.546406
vt 0.012536 0.611261
vn -0.000000 1.000000 0.000000
v -3.069883 -6.111942 25.724489
vt 0.207697 0.501150
vn -0.000000 1.000000 0.000000
v -5.294251 -6.111942 25.724489
vt 0.000000 0.500000
vn -0.000000 1.000000 0.000000
# Faces (1 to 149)
g Ground_0
f -147/-147/-147 -148/-148/-148 -149/-149/-149
f -146/-146/-146 -148/-148/-148 -147/-147/-147
f -145/-145/-145 -148/-148/-148 -146/-146/-146
f -144/-144/-144 -148/-148/-148 -145/-145/-145
f -143/-143/-143 -148/-148/-148 -144/-144/-144
f -142/-142/-142 -148/-148/-148 -143/-143/-143
f -141/-141/-141 -148/-148/-148 -142/-142/-142
f -140/-140/-140 -148/-148/-148 -141/-141/-141
f -139/-139/-139 -148/-148/-148 -140/-140/-140
f -138/-138/-138 -148/-148/-148 -139/-139/-139
f -137/-137/-137 -148/-148/-148 -138/-138/-138
f -136/-136/-136 -148/-148/-148 -137/-137/-137
f -135/-135/-135 -148/-148/-148 -136/-136/-136
f -134/-134/-134 -148/-148/-148 -135/-135/-135
f -133/-133/-133 -148/-148/-148 -134/-134/-134
f -132/-132/-132 -148/-148/-148 -133/-133/-133
f -131/-131/-131 -148/-148/-148 -132/-132/-132
f -130/-130/-130 -148/-148/-148 -131/-131/-131
f -129/-129/-129 -148/-148/-148 -130/-130/-130
f -128/-128/-128 -148/-148/-148 -129/-129/-129
f -127/-127/-127 -148/-148/-148 -128/-128/-128
f -126/-126/-126 -148/-148/-148 -127/-127/-127
f -125/-125/-125 -148/-148/-148 -126/-126/-126
f -124/-124/-124 -148/-148/-148 -125/-125/-125
f -123/-123/-123 -148/-148/-148 -124/-124/-124
f -122/-122/-122 -148/-148/-148 -123/-123/-123
f -121/-121/-121 -148/-148/-148 -122/-122/-122
f -149/-149/-149 -148/-148/-148 -121/-121/-121
f -118/-118/-118 -119/-119/-119 -120/-120/-120
f -119/-119/-119 -117/-117/-117 -120/-120/-120
f -116/-116/-116 -119/-119/-119 -118/-118/-118
f -115/-115/-115 -116/-116/-116 -118/-118/-118
f -114/-114/-114 -116/-116/-116 -115/-115/-115
f -113/-113/-113 -114/-114/-114 -115/-115/-115
f -112/-112/-112 -114/-114/-114 -113/-113/-113
f -111/-111/-111 -112/-112/-112 -113/-113/-113
f -110/-110/-110 -112/-112/-112 -111/-111/-111
f -109/-109/-109 -110/-110/-110 -111/-111/-111
f -108/-108/-108 -110/-110/-110 -109/-109/-109
f -107/-107/-107 -108/-108/-108 -109/-109/-109
f -106/-106/-106 -108/-108/-108 -107/-107/-107
f -105/-105/-105 -106/-106/-106 -107/-107/-107
f -102/-102/-102 -103/-103/-103 -104/-104/-104
f -103/-103/-103 -101/-101/-101 -104/-104/-104
f -100/-100/-100 -103/-103/-103 -102/-102/-102
f -99/-99/-99 -100/-100/-100 -102/-102/-102
f -98/-98/-98 -100/-100/-100 -99/-99/-99
f -97/-97/-97 -98/-98/-98 -99/-99/-99
f -96/-96/-96 -98/-98/-98 -97/-97/-97
f -95/-95/-95 -96/-96/-96 -97/-97/-97
f -94/-94/-94 -96/-96/-96 -95/-95/-95
f -93/-93/-93 -94/-94/-94 -95/-95/-95
f -92/-92/-92 -94/-94/-94 -93/-93/-93
f -91/-91/-91 -92/-92/-92 -93/-93/-93
f -90/-90/-90 -92/-92/-92 -91/-91/-91
f -89/-89/-89 -90/-90/-90 -91/-91/-91
f -86/-86/-86 -87/-87/-87 -88/-88/-88
f -87/-87/-87 -85/-85/-85 -88/-88/-88
f -84/-84/-84 -87/-87/-87 -86/-86/-86
f -83/-83/-83 -84/-84/-84 -86/-86/-86
f -82/-82/-82 -84/-84/-84 -83/-83/-83
f -81/-81/-81 -82/-82/-82 -83/-83/-83
f -80/-80/-80 -82/-82/-82 -81/-81/-81
f -79/-79/-79 -80/-80/-80 -81/-81/-81
f -78/-78/-78 -80/-80/-80 -79/-79/-79
f -77/-77/-77 -78/-78/-78 -79/-79/-79
f -76/-76/-76 -78/-78/-78 -77/-77/-77
f -75/-75/-75 -76/-76/-76 -77/-77/-77
f -74/-74/-74 -76/-76/-76 -75/-75/-75
f -73/-73/-73 -74/-74/-74 -75/-75/-75
f -70/-70/-70 -71/-71/-71 -72/-72/-72
f -71/-71/-71 -69/-69/-69 -72/-72/-72
f -68/-68/-68 -71/-71/-71 -70/-70/-70
f -67/-67/-67 -68/-68/-68 -70/-70/-70
f -66/-66/-66 -68/-68/-68 -67/-67/-67
f -65/-65/-65 -66/-66/-66 -67/-67/-67
f -64/-64/-64 -66/-66/-66 -65/-65/-65
f -63/-63/-63 -64/-64/-64 -65/-65/-65
f -62/-62/-62 -64/-64/-64 -63/-63/-63
f -61/-61/-61 -62/-62/-62 -63/-63/-63
f -60/-60/-60 -62/-62/-62 -61/-61/-61
f -59/-59/-59 -60/-60/-60 -61/-61/-61
f -58/-58/-58 -60/-60/-60 -59/-59/-59
f -57/-57/-57 -58/-58/-58 -59/-59/-59
f -54/-54/-54 -55/-55/-55 -56/-56/-56
f -55/-55/-55 -53/-53/-53 -56/-56/-56
f -52/-52/-52 -55/-55/-55 -54/-54/-54
f -51/-51/-51 -52/-52/-52 -54/-54/-54
f -50/-50/-50 -52/-52/-52 -51/-51/-51
f -49/-49/-49 -50/-50/-50 -51/-51/-51
f -48/-48/-48 -50/-50/-50 -49/-49/-49
f -47/-47/-47 -48/-48/-48 -49/-49/-49
f -46/-46/-46 -48/-48/-48 -47/-47/-47
f -45/-45/-45 -46/-46/-46 -47/-47/-47
f -44/-44/-44 -46/-46/-46 -45/-45/-45
f -43/-43/-43 -44/-44/-44 -45/-45/-45
f -42/-42/-42 -44/-44/-44 -43/-43/-43
f -41/-41/-41 -42/-42/-42 -43/-43/-43
f -40/-40/-40 -42/-42/-42 -41/-41/-41
f -39/-39/-39 -40/-40/-40 -41/-41/-41
f -38/-38/-38 -40/-40/-40 -39/-39/-39
f -37/-37/-37 -38/-38/-38 -39/-39/-39
f -36/-36/-36 -38/-38/-38 -37/-37/-37
f -35/-35/-35 -36/-36/-36 -37/-37/-37
f -34/-34/-34 -36/-36/-36 -35/-35/-35
f -33/-33/-33 -34/-34/-34 -35/-35/-35
f -32/-32/-32 -34/-34/-34 -33/-33/-33
f -31/-31/-31 -32/-32/-32 -33/-33/-33
f -30/-30/-30 -32/-32/-32 -31/-31/-31
f -29/-29/-29 -30/-30/-30 -31/-31/-31
f -28/-28/-28 -30/-30/-30 -29/-29/-29
f -27/-27/-27 -28/-28/-28 -29/-29/-29
f -26/-26/-26 -28/-28/-28 -27/-27/-27
f -25/-25/-25 -26/-26/-26 -27/-27/-27
f -24/-24/-24 -26/-26/-26 -25/-25/-25
f -23/-23/-23 -24/-24/-24 -25/-25/-25
f -22/-22/-22 -24/-24/-24 -23/-23/-23
f -21/-21/-21 -22/-22/-22 -23/-23/-23
f -20/-20/-20 -22/-22/-22 -21/-21/-21
f -19/-19/-19 -20/-20/-20 -21/-21/-21
f -18/-18/-18 -20/-20/-20 -19/-19/-19
f -17/-17/-17 -18/-18/-18 -19/-19/-19
f -16/-16/-16 -18/-18/-18 -17/-17/-17
f -15/-15/-15 -16/-16/-16 -17/-17/-17
f -14/-14/-14 -16/-16/-16 -15/-15/-15
f -13/-13/-13 -14/-14/-14 -15/-15/-15
f -12/-12/-12 -14/-14/-14 -13/-13/-13
f -11/-11/-11 -12/-12/-12 -13/-13/-13
f -10/-10/-10 -12/-12/-12 -11/-11/-11
f -9/-9/-9 -10/-10/-10 -11/-11/-11
f -8/-8/-8 -10/-10/-10 -9/-9/-9
f -7/-7/-7 -8/-8/-8 -9/-9/-9
f -6/-6/-6 -8/-8/-8 -7/-7/-7
f -5/-5/-5 -6/-6/-6 -7/-7/-7
f -4/-4/-4 -6/-6/-6 -5/-5/-5
f -3/-3/-3 -4/-4/-4 -5/-5/-5
f -2/-2/-2 -4/-4/-4 -3/-3/-3
f -1/-1/-1 -2/-2/-2 -3/-3/-3
f -53/-53/-53 -2/-2/-2 -1/-1/-1
f -56/-56/-56 -53/-53/-53 -1/-1/-1

