# Mesh "Inside" exported with Unity Assets Bundle Extractor; 128 vertices, 216 indices, 320 bits per vertex
g Inside
# SubMesh 0
# Vertices
v -0.504909 -10.273433 -78.469193
vt 0.393357 2.359364
vn -0.000000 0.000000 -1.000000
v 11.387770 -11.056258 -78.469193
vt 1.032846 2.401459
vn -0.000000 0.000000 -1.000000
v 11.387770 -10.273433 -78.469193
vt 1.032846 2.359365
vn -0.000000 0.000000 -1.000000
v -0.504909 -11.056258 -78.469193
vt 0.393357 2.401457
vn -0.000000 0.000000 -1.000000
v -11.387770 -10.273433 -78.469193
vt -0.191832 2.359364
vn -0.000000 0.000000 -1.000000
v -11.387770 -11.056258 -78.469193
vt -0.191832 2.401458
vn -0.000000 0.000000 -1.000000
v -0.504911 -7.034205 -44.608398
vt 0.393358 0.543250
vn -0.000000 -1.000000 0.000000
v 11.387770 -7.034205 -32.519772
vt 1.032848 1.193274
vn -0.000000 -1.000000 0.000000
v 11.387770 -7.034205 -44.608398
vt 1.032846 0.543249
vn -0.000000 -1.000000 0.000000
v -0.504909 -7.034205 -32.519772
vt 0.393358 1.193274
vn -0.000000 -1.000000 0.000000
v -11.387770 -7.034205 -44.608398
vt -0.191836 -1.391098
vn -1.000000 0.000000 0.000000
v -11.387770 -6.254369 -31.653885
vt -0.233766 -0.694512
vn -1.000000 0.000000 0.000000
v -11.387770 -7.034205 -32.519772
vt -0.191834 -0.741073
vn -1.000000 0.000000 0.000000
v -11.387770 -6.254370 -44.608398
vt -0.233769 -1.391098
vn -1.000000 0.000000 0.000000
v -11.387770 -11.056258 -55.905357
vt -1.349261 -0.116601
vn -1.000000 0.000000 0.000000
v -11.387770 -6.254370 -44.608398
vt -1.091055 -0.724057
vn -1.000000 0.000000 0.000000
v -11.387770 -7.034205 -44.608398
vt -1.132988 -0.724057
vn -1.000000 0.000000 0.000000
v -11.387770 -10.273433 -55.905357
vt -1.307167 -0.116601
vn -1.000000 0.000000 0.000000
v -0.504909 -10.273433 -78.469193
vt 0.393357 2.359364
vn -0.000000 1.000000 0.000000
v 11.387770 -10.273433 -55.905357
vt 1.032847 1.146070
vn -0.000000 1.000000 0.000000
v -0.504909 -10.273433 -55.905357
vt 0.393358 1.146070
vn -0.000000 1.000000 0.000000
v 11.387770 -10.273433 -78.469193
vt 1.032846 2.359365
vn -0.000000 1.000000 0.000000
v -11.387770 -10.273433 -55.905357
vt -0.191831 1.146070
vn -0.000000 1.000000 0.000000
v -11.387770 -10.273433 -78.469193
vt -0.191832 2.359364
vn -0.000000 1.000000 0.000000
v -11.387770 -11.056258 -78.469193
vt -0.233925 2.359364
vn -1.000000 0.000000 0.000000
v -11.387770 -10.273433 -55.905357
vt -0.191831 1.146070
vn -1.000000 0.000000 0.000000
v -11.387770 -11.056258 -55.905357
vt -0.233925 1.146070
vn -1.000000 0.000000 0.000000
v -11.387770 -10.273433 -78.469193
vt -0.191832 2.359364
vn -1.000000 0.000000 0.000000
v -0.504909 -11.056258 -78.469193
vt 0.393348 -3.249200
vn -0.000000 -1.000000 0.000000
v 11.387770 -11.056258 -55.905357
vt 1.032840 -2.035908
vn -0.000000 -1.000000 0.000000
v 11.387770 -11.056258 -78.469193
vt 1.032837 -3.249202
vn -0.000000 -1.000000 0.000000
v -0.504909 -11.056258 -55.905357
vt 0.393352 -2.035906
vn -0.000000 -1.000000 0.000000
v -11.387770 -11.056258 -78.469193
vt -0.191841 -3.249199
vn -0.000000 -1.000000 0.000000
v -11.387770 -11.056258 -55.905357
vt -0.191837 -2.035904
vn -0.000000 -1.000000 0.000000
v 11.387770 -10.273433 -55.905357
vt -0.783028 -0.207348
vn 1.000000 0.000000 0.000000
v 11.387770 -11.056258 -78.469193
vt -0.825122 -1.420642
vn 1.000000 0.000000 0.000000
v 11.387770 -11.056258 -55.905357
vt -0.825122 -0.207348
vn 1.000000 0.000000 0.000000
v 11.387770 -10.273433 -78.469193
vt -0.783028 -1.420642
vn 1.000000 0.000000 0.000000
v 11.387770 -14.627782 -44.689892
vt -1.017169 0.395725
vn 1.000000 0.000000 0.000000
v 11.387770 -15.415952 -44.689892
vt -1.059550 0.395725
vn 1.000000 0.000000 0.000000
v -11.387770 -6.254370 -44.608398
vt -0.191832 0.501317
vn -0.000000 0.869843 -0.493329
v -0.504909 -10.273433 -55.905357
vt 0.393358 1.146070
vn -0.000000 0.869843 -0.493329
v -0.504909 -6.254370 -44.608398
vt 0.393358 0.501316
vn -0.000000 0.869843 -0.493329
v -11.387770 -10.273433 -55.905357
vt -0.191831 1.146070
vn -0.000000 0.869843 -0.493329
v -11.387770 -7.034205 -44.608398
vt -0.191836 -1.391098
vn -0.000000 -1.000000 0.000000
v -0.504909 -7.034205 -32.519772
vt 0.393355 -0.741074
vn -0.000000 -1.000000 0.000000
v -0.504911 -7.034205 -44.608398
vt 0.393353 -1.391099
vn -0.000000 -1.000000 0.000000
v -11.387770 -7.034205 -32.519772
vt -0.191834 -0.741073
vn -0.000000 -1.000000 0.000000
v -11.387770 -11.056258 -55.905357
vt -0.191837 -2.035904
vn -0.000000 -0.869843 0.493329
v -0.504911 -7.034205 -44.608398
vt 0.393353 -1.391099
vn -0.000000 -0.869843 0.493329
v -0.504909 -11.056258 -55.905357
vt 0.393352 -2.035906
vn -0.000000 -0.869843 0.493329
v -11.387770 -7.034205 -44.608398
vt -0.191836 -1.391098
vn -0.000000 -0.869843 0.493329
v -0.504909 -6.254370 -44.608398
vt 0.393357 0.501316
vn -0.000000 0.000000 -1.000000
v 11.387770 -7.034205 -44.608398
vt 1.032846 0.543249
vn -0.000000 0.000000 -1.000000
v 11.387770 -6.254370 -44.608398
vt 1.032846 0.501316
vn -0.000000 0.000000 -1.000000
v -0.504911 -7.034205 -44.608398
vt 0.393358 0.543250
vn -0.000000 0.000000 -1.000000
v -0.504909 -10.273433 -55.905357
vt -1.389690 1.112690
vn 1.000000 0.000000 0.000000
v -0.504911 -7.034205 -44.608398
vt -1.215511 1.720146
vn 1.000000 0.000000 0.000000
v -0.504909 -6.254370 -44.608398
vt -1.173578 1.720146
vn 1.000000 0.000000 0.000000
v -0.504909 -11.056258 -55.905357
vt -1.431783 1.112690
vn 1.000000 0.000000 0.000000
v 11.387770 -10.273433 -55.905357
vt 1.032847 1.146070
vn -0.000000 0.848273 0.529559
v -0.504909 -14.627782 -44.689892
vt 0.393357 0.499139
vn -0.000000 0.848273 0.529559
v -0.504909 -10.273433 -55.905357
vt 0.393358 1.146070
vn -0.000000 0.848273 0.529559
v 11.387770 -14.627782 -44.689892
vt 1.032847 0.499139
vn -0.000000 0.848273 0.529559
v -0.504909 -10.273433 -55.905357
vt 0.393358 1.146070
vn -1.000000 0.000000 0.000000
v -0.504909 -15.415952 -44.689892
vt 0.353850 0.483800
vn -1.000000 0.000000 0.000000
v -0.504909 -11.056258 -55.905357
vt 0.354118 1.130835
vn -1.000000 0.000000 0.000000
v -0.504909 -14.627782 -44.689892
vt 0.393357 0.499139
vn -1.000000 0.000000 0.000000
v -0.504909 -11.056258 -55.905357
vt 0.393352 -2.035906
vn -0.000000 -0.848273 -0.529559
v 11.387770 -15.415952 -44.689892
vt 1.032843 -1.388873
vn -0.000000 -0.848273 -0.529559
v 11.387770 -11.056258 -55.905357
vt 1.032840 -2.035908
vn -0.000000 -0.848273 -0.529559
v -0.504909 -15.415952 -44.689892
vt 0.393354 -1.388870
vn -0.000000 -0.848273 -0.529559
v 11.387770 -14.627782 -44.689892
vt 1.032847 0.499139
vn -0.000000 1.000000 0.000000
v -0.504909 -14.627782 -32.519772
vt 0.393357 -0.155269
vn -0.000000 1.000000 0.000000
v -0.504909 -14.627782 -44.689892
vt 0.393358 0.499139
vn -0.000000 1.000000 0.000000
v 11.387770 -14.627782 -32.519772
vt 1.032847 -0.155270
vn -0.000000 1.000000 0.000000
v -11.387770 -14.627782 -32.519772
vt -0.191833 -0.155269
vn -0.000000 1.000000 0.000000
v -11.387770 -14.627782 -44.689892
vt -0.191833 0.499139
vn -0.000000 1.000000 0.000000
v -11.387770 -14.627782 -44.689892
vt -0.191833 0.499139
vn -1.000000 0.000000 0.000000
v -11.387770 -15.415952 -31.653885
vt -0.234214 -0.201829
vn -1.000000 0.000000 0.000000
v -11.387770 -15.415952 -44.689892
vt -0.234214 0.499138
vn -1.000000 0.000000 0.000000
v -11.387770 -14.627782 -32.519772
vt -0.191833 -0.155269
vn -1.000000 0.000000 0.000000
v -0.504909 -15.415952 -44.689892
vt 0.393354 -1.388870
vn -0.000000 -1.000000 0.000000
v 11.387770 -15.415952 -31.653885
vt 1.032845 -0.687904
vn -0.000000 -1.000000 0.000000
v 11.387770 -15.415952 -44.689892
vt 1.032843 -1.388873
vn -0.000000 -1.000000 0.000000
v -0.504909 -15.415952 -31.653885
vt 0.393356 -0.687903
vn -0.000000 -1.000000 0.000000
v -11.387770 -15.415952 -31.653885
vt -0.191833 -0.687901
vn -0.000000 -1.000000 0.000000
v -11.387770 -15.415952 -44.689892
vt -0.191835 -1.388868
vn -0.000000 -1.000000 0.000000
v 11.387770 -15.415952 -44.689892
vt -2.297325 0.367161
vn 1.000000 0.000000 0.000000
v 11.387770 -14.627782 -32.519772
vt -2.254944 1.021569
vn 1.000000 0.000000 0.000000
v 11.387770 -14.627782 -44.689892
vt -2.254944 0.367161
vn 1.000000 0.000000 0.000000
v 11.387770 -15.415952 -31.653885
vt -2.297325 1.068129
vn 1.000000 0.000000 0.000000
v -0.504909 -14.627782 -44.689892
vt 0.393357 0.499139
vn -0.000000 0.000000 -1.000000
v -11.387770 -15.415952 -44.689892
vt -0.191832 0.541520
vn -0.000000 0.000000 -1.000000
v -0.504909 -15.415952 -44.689892
vt 0.393357 0.541520
vn -0.000000 0.000000 -1.000000
v -11.387770 -14.627782 -44.689892
vt -0.191833 0.499139
vn -0.000000 0.000000 -1.000000
v -0.504909 -6.254370 -31.653885
vt 0.393357 -0.195269
vn -0.000000 1.000000 0.000000
v 11.387770 -6.254370 -44.608398
vt 1.032846 0.501316
vn -0.000000 1.000000 0.000000
v 11.387770 -6.254369 -31.653885
vt 1.032846 -0.195270
vn -0.000000 1.000000 0.000000
v -0.504909 -6.254370 -44.608398
vt 0.393357 0.501316
vn -0.000000 1.000000 0.000000
v -11.387770 -6.254369 -31.653885
vt -0.191832 -0.195269
vn -0.000000 1.000000 0.000000
v -11.387770 -6.254370 -44.608398
vt -0.191832 0.501317
vn -0.000000 1.000000 0.000000
v 11.387770 -6.254369 -31.653885
vt 1.032846 -0.195270
vn 1.000000 0.000000 0.000000
v 11.387770 -7.034205 -44.608398
vt 1.074779 0.501316
vn 1.000000 0.000000 0.000000
v 11.387770 -7.034205 -32.519772
vt 1.074779 -0.148710
vn 1.000000 0.000000 0.000000
v 11.387770 -6.254370 -44.608398
vt 1.032846 0.501316
vn 1.000000 0.000000 0.000000
v -0.504909 -7.034205 -32.519772
vt 0.393358 1.193274
vn -0.000000 0.000000 -1.000000
v 11.387770 -14.627782 -32.519772
vt 1.032848 1.601593
vn -0.000000 0.000000 -1.000000
v 11.387770 -7.034205 -32.519772
vt 1.032848 1.193274
vn -0.000000 0.000000 -1.000000
v -0.504909 -14.627782 -32.519772
vt 0.393359 1.601594
vn -0.000000 0.000000 -1.000000
v 11.387770 -7.034205 -32.519772
vt -0.342252 2.154609
vn 1.000000 0.000000 0.000000
v 11.387770 -15.415952 -31.653885
vt -0.792952 2.201169
vn 1.000000 0.000000 0.000000
v 11.387770 -6.254369 -31.653885
vt -0.300319 2.201169
vn 1.000000 0.000000 0.000000
v 11.387770 -14.627782 -32.519772
vt -0.750571 2.154609
vn 1.000000 0.000000 0.000000
v 11.387770 -6.254369 -31.653885
vt 1.032846 -0.195270
vn -0.000000 0.000000 1.000000
v -0.504909 -15.415952 -31.653885
vt 0.393356 -0.687903
vn -0.000000 0.000000 1.000000
v -0.504909 -6.254370 -31.653885
vt 0.393357 -0.195269
vn -0.000000 0.000000 1.000000
v 11.387770 -15.415952 -31.653885
vt 1.032845 -0.687904
vn -0.000000 0.000000 1.000000
v -11.387770 -15.415952 -31.653885
vt -0.191833 -0.687901
vn -0.000000 0.000000 1.000000
v -11.387770 -6.254369 -31.653885
vt -0.191832 -0.195269
vn -0.000000 0.000000 1.000000
v -11.387770 -7.034205 -32.519772
vt -0.238393 -0.237201
vn -0.000000 0.000000 -1.000000
v -0.504909 -14.627782 -32.519772
vt -0.823583 -0.645520
vn -0.000000 0.000000 -1.000000
v -0.504909 -7.034205 -32.519772
vt -0.823583 -0.237200
vn -0.000000 0.000000 -1.000000
v -11.387770 -14.627782 -32.519772
vt -0.238393 -0.645521
vn -0.000000 0.000000 -1.000000
v -11.387770 -6.254369 -31.653885
vt -0.191832 -0.195269
vn -1.000000 0.000000 0.000000
v -11.387770 -14.627782 -32.519772
vt -0.238393 -0.645521
vn -1.000000 0.000000 0.000000
v -11.387770 -7.034205 -32.519772
vt -0.238393 -0.237201
vn -1.000000 0.000000 0.000000
v -11.387770 -15.415952 -31.653885
vt -0.191833 -0.687901
vn -1.000000 0.000000 0.000000
# Faces (1 to 128)
g Inside_0
f -126/-126/-126 -127/-127/-127 -128/-128/-128
f -127/-127/-127 -125/-125/-125 -128/-128/-128
f -128/-128/-128 -125/-125/-125 -124/-124/-124
f -125/-125/-125 -123/-123/-123 -124/-124/-124
f -120/-120/-120 -121/-121/-121 -122/-122/-122
f -121/-121/-121 -119/-119/-119 -122/-122/-122
f -116/-116/-116 -117/-117/-117 -118/-118/-118
f -117/-117/-117 -115/-115/-115 -118/-118/-118
f -112/-112/-112 -113/-113/-113 -114/-114/-114
f -113/-113/-113 -111/-111/-111 -114/-114/-114
f -108/-108/-108 -109/-109/-109 -110/-110/-110
f -109/-109/-109 -107/-107/-107 -110/-110/-110
f -108/-108/-108 -110/-110/-110 -106/-106/-106
f -110/-110/-110 -105/-105/-105 -106/-106/-106
f -102/-102/-102 -103/-103/-103 -104/-104/-104
f -103/-103/-103 -101/-101/-101 -104/-104/-104
f -98/-98/-98 -99/-99/-99 -100/-100/-100
f -99/-99/-99 -97/-97/-97 -100/-100/-100
f -100/-100/-100 -97/-97/-97 -96/-96/-96
f -97/-97/-97 -95/-95/-95 -96/-96/-96
f -92/-92/-92 -93/-93/-93 -94/-94/-94
f -93/-93/-93 -91/-91/-91 -94/-94/-94
f -94/-94/-94 -90/-90/-90 -92/-92/-92
f -90/-90/-90 -89/-89/-89 -92/-92/-92
f -86/-86/-86 -87/-87/-87 -88/-88/-88
f -87/-87/-87 -85/-85/-85 -88/-88/-88
f -82/-82/-82 -83/-83/-83 -84/-84/-84
f -83/-83/-83 -81/-81/-81 -84/-84/-84
f -78/-78/-78 -79/-79/-79 -80/-80/-80
f -79/-79/-79 -77/-77/-77 -80/-80/-80
f -74/-74/-74 -75/-75/-75 -76/-76/-76
f -75/-75/-75 -73/-73/-73 -76/-76/-76
f -70/-70/-70 -71/-71/-71 -72/-72/-72
f -71/-71/-71 -69/-69/-69 -72/-72/-72
f -66/-66/-66 -67/-67/-67 -68/-68/-68
f -67/-67/-67 -65/-65/-65 -68/-68/-68
f -62/-62/-62 -63/-63/-63 -64/-64/-64
f -63/-63/-63 -61/-61/-61 -64/-64/-64
f -58/-58/-58 -59/-59/-59 -60/-60/-60
f -59/-59/-59 -57/-57/-57 -60/-60/-60
f -54/-54/-54 -55/-55/-55 -56/-56/-56
f -55/-55/-55 -53/-53/-53 -56/-56/-56
f -55/-55/-55 -54/-54/-54 -52/-52/-52
f -54/-54/-54 -51/-51/-51 -52/-52/-52
f -48/-48/-48 -49/-49/-49 -50/-50/-50
f -49/-49/-49 -47/-47/-47 -50/-50/-50
f -44/-44/-44 -45/-45/-45 -46/-46/-46
f -45/-45/-45 -43/-43/-43 -46/-46/-46
f -43/-43/-43 -42/-42/-42 -46/-46/-46
f -42/-42/-42 -41/-41/-41 -46/-46/-46
f -38/-38/-38 -39/-39/-39 -40/-40/-40
f -39/-39/-39 -37/-37/-37 -40/-40/-40
f -34/-34/-34 -35/-35/-35 -36/-36/-36
f -35/-35/-35 -33/-33/-33 -36/-36/-36
f -30/-30/-30 -31/-31/-31 -32/-32/-32
f -31/-31/-31 -29/-29/-29 -32/-32/-32
f -32/-32/-32 -29/-29/-29 -28/-28/-28
f -29/-29/-29 -27/-27/-27 -28/-28/-28
f -24/-24/-24 -25/-25/-25 -26/-26/-26
f -25/-25/-25 -23/-23/-23 -26/-26/-26
f -20/-20/-20 -21/-21/-21 -22/-22/-22
f -21/-21/-21 -19/-19/-19 -22/-22/-22
f -16/-16/-16 -17/-17/-17 -18/-18/-18
f -17/-17/-17 -15/-15/-15 -18/-18/-18
f -12/-12/-12 -13/-13/-13 -14/-14/-14
f -13/-13/-13 -11/-11/-11 -14/-14/-14
f -10/-10/-10 -13/-13/-13 -12/-12/-12
f -9/-9/-9 -10/-10/-10 -12/-12/-12
f -6/-6/-6 -7/-7/-7 -8/-8/-8
f -7/-7/-7 -5/-5/-5 -8/-8/-8
f -2/-2/-2 -3/-3/-3 -4/-4/-4
f -3/-3/-3 -1/-1/-1 -4/-4/-4

