# Mesh "UnderPart" exported with Unity Assets Bundle Extractor; 29 vertices, 84 indices, 320 bits per vertex
g UnderPart
# SubMesh 0
# Vertices
v -4.611918 -0.900224 2.220982
vt 0.710311 0.409928
vn -0.458056 -0.861119 0.220588
v -0.000000 -3.922384 -0.000003
vt 0.525672 0.498563
vn -0.000000 -1.000000 0.000000
v -4.990502 -0.900224 1.139048
vt 0.725468 0.453244
vn -0.495657 -0.861119 0.113131
v -4.002072 -0.900224 3.191546
vt 0.685896 0.371071
vn -0.397486 -0.861119 0.316985
v -3.191546 -0.900224 4.002068
vt 0.653446 0.338622
vn -0.316985 -0.861119 0.397486
v -2.220983 -0.900224 4.611918
vt 0.614589 0.314206
vn -0.220588 -0.861119 0.458056
v -1.139050 -0.900224 4.990502
vt 0.571274 0.299049
vn -0.113132 -0.861119 0.495657
v -0.000000 -0.900224 5.118844
vt 0.525672 0.293911
vn -0.000000 -0.861119 0.508404
v 1.139050 -0.900224 4.990502
vt 0.480069 0.299050
vn 0.113132 -0.861119 0.495657
v 2.220982 -0.900224 4.611918
vt 0.436754 0.314206
vn 0.220588 -0.861119 0.458056
v 3.191546 -0.900224 4.002068
vt 0.397897 0.338622
vn 0.316984 -0.861119 0.397486
v 4.002072 -0.900224 3.191546
vt 0.365447 0.371071
vn 0.397485 -0.861119 0.316985
v 4.611918 -0.900224 2.220984
vt 0.341032 0.409928
vn 0.458056 -0.861119 0.220588
v 4.990503 -0.900224 1.139050
vt 0.325875 0.453244
vn 0.495657 -0.861119 0.113130
v 5.118843 -0.900224 0.000001
vt 0.320737 0.498846
vn 0.508403 -0.861119 0.000000
v 4.990503 -0.900224 -1.139053
vt 0.325875 0.544448
vn 0.495657 -0.861119 -0.113130
v 4.611918 -0.900224 -2.220983
vt 0.341032 0.587764
vn 0.458057 -0.861118 -0.220588
v 4.002073 -0.900224 -3.191549
vt 0.365447 0.626620
vn 0.397486 -0.861119 -0.316985
v 3.191546 -0.900224 -4.002075
vt 0.397897 0.659070
vn 0.316984 -0.861119 -0.397486
v 2.220983 -0.900224 -4.611921
vt 0.436754 0.683486
vn 0.220588 -0.861119 -0.458056
v 1.139050 -0.900224 -4.990505
vt 0.480069 0.698642
vn 0.113130 -0.861119 -0.495657
v 0.000000 -0.900224 -5.118846
vt 0.525672 0.703780
vn -0.000000 -0.861119 -0.508404
v -1.139050 -0.900224 -4.990505
vt 0.571274 0.698642
vn -0.113130 -0.861119 -0.495658
v -2.220983 -0.900224 -4.611921
vt 0.614589 0.683486
vn -0.220588 -0.861119 -0.458056
v -3.191548 -0.900224 -4.002075
vt 0.653446 0.659070
vn -0.316984 -0.861119 -0.397486
v -4.002074 -0.900224 -3.191549
vt 0.685896 0.626620
vn -0.397486 -0.861119 -0.316985
v -4.611920 -0.900224 -2.220985
vt 0.710311 0.587764
vn -0.458057 -0.861118 -0.220588
v -4.990504 -0.900224 -1.139053
vt 0.725468 0.544448
vn -0.495657 -0.861119 -0.113131
v -5.118845 -0.900224 0.000001
vt 0.730606 0.498846
vn -0.508403 -0.861119 0.000000
# Faces (1 to 29)
g UnderPart_0
f -27/-27/-27 -28/-28/-28 -29/-29/-29
f -29/-29/-29 -28/-28/-28 -26/-26/-26
f -26/-26/-26 -28/-28/-28 -25/-25/-25
f -25/-25/-25 -28/-28/-28 -24/-24/-24
f -24/-24/-24 -28/-28/-28 -23/-23/-23
f -23/-23/-23 -28/-28/-28 -22/-22/-22
f -22/-22/-22 -28/-28/-28 -21/-21/-21
f -21/-21/-21 -28/-28/-28 -20/-20/-20
f -20/-20/-20 -28/-28/-28 -19/-19/-19
f -19/-19/-19 -28/-28/-28 -18/-18/-18
f -18/-18/-18 -28/-28/-28 -17/-17/-17
f -17/-17/-17 -28/-28/-28 -16/-16/-16
f -16/-16/-16 -28/-28/-28 -15/-15/-15
f -15/-15/-15 -28/-28/-28 -14/-14/-14
f -14/-14/-14 -28/-28/-28 -13/-13/-13
f -13/-13/-13 -28/-28/-28 -12/-12/-12
f -12/-12/-12 -28/-28/-28 -11/-11/-11
f -11/-11/-11 -28/-28/-28 -10/-10/-10
f -10/-10/-10 -28/-28/-28 -9/-9/-9
f -9/-9/-9 -28/-28/-28 -8/-8/-8
f -8/-8/-8 -28/-28/-28 -7/-7/-7
f -7/-7/-7 -28/-28/-28 -6/-6/-6
f -6/-6/-6 -28/-28/-28 -5/-5/-5
f -5/-5/-5 -28/-28/-28 -4/-4/-4
f -4/-4/-4 -28/-28/-28 -3/-3/-3
f -3/-3/-3 -28/-28/-28 -2/-2/-2
f -2/-2/-2 -28/-28/-28 -1/-1/-1
f -1/-1/-1 -28/-28/-28 -27/-27/-27

