# Mesh "WallEdge" exported with Unity Assets Bundle Extractor; 74 vertices, 192 indices, 256 bits per vertex
g WallEdge
# SubMesh 0
# Vertices
v -5.299726 6.257203 7.294448
vt -0.952604 1.001753
vn -0.587721 0.000000 0.809064
v -6.373552 3.695920 6.377608
vt -1.318505 0.002173
vn -0.649327 0.000000 0.760509
v -6.373552 6.257203 6.377608
vt -1.318505 1.001753
vn -0.649327 0.000000 0.760509
v -5.299726 3.695920 7.294448
vt -0.952604 0.002173
vn -0.587721 0.000000 0.809064
v -4.093374 6.257203 8.033701
vt -0.586702 1.001753
vn -0.453991 0.000000 0.891006
v -4.093374 3.695920 8.033701
vt -0.586702 0.002173
vn -0.453991 0.000000 0.891006
v -2.786230 6.257203 8.575138
vt -0.220801 1.001753
vn -0.309017 0.000000 0.951056
v -2.786230 3.695920 8.575138
vt -0.220800 0.002173
vn -0.309017 0.000000 0.951056
v -1.410480 6.257203 8.905427
vt 0.145100 1.001753
vn -0.156435 0.000000 0.987688
v -1.410480 3.695920 8.905427
vt 0.145100 0.002173
vn -0.156435 0.000000 0.987688
v 0.000001 6.257203 9.016435
vt 0.511003 1.001753
vn -0.000000 0.000000 1.000000
v 0.000001 3.695920 9.016435
vt 0.511003 0.002173
vn -0.000000 0.000000 1.000000
v 1.410482 6.257203 8.905427
vt 0.876904 1.001753
vn 0.156435 0.000000 0.987688
v 1.410482 3.695920 8.905427
vt 0.876904 0.002173
vn 0.156435 0.000000 0.987688
v 2.786233 6.257203 8.575138
vt 1.242805 1.001753
vn 0.309017 0.000000 0.951056
v 2.786233 3.695920 8.575138
vt 1.242805 0.002173
vn 0.309017 0.000000 0.951056
v 4.093377 6.257203 8.033701
vt 1.608707 1.001753
vn 0.453990 0.000000 0.891007
v 4.093377 3.695920 8.033701
vt 1.608707 0.002173
vn 0.453990 0.000000 0.891007
v 5.299729 6.257203 7.294448
vt 1.974609 1.001753
vn 0.587721 0.000000 0.809064
v 5.299729 3.695920 7.294449
vt 1.974609 0.002173
vn 0.587721 0.000000 0.809064
v 6.373556 6.257203 6.377609
vt 2.340510 1.001753
vn 0.649327 0.000000 0.760509
v 6.373557 3.695920 6.377609
vt 2.340510 0.002173
vn 0.649327 0.000000 0.760509
v -5.278312 6.257203 7.264974
vt -0.952604 1.001753
vn -0.000000 1.000000 0.000000
v -6.373552 6.257203 6.377608
vt -1.318505 1.001753
vn -0.000000 1.000000 0.000000
v -6.349819 6.257203 6.349820
vt -1.318505 1.001753
vn -0.000000 1.000000 0.000000
v -5.299726 6.257203 7.294448
vt -0.952604 1.001753
vn -0.000000 1.000000 0.000000
v -4.076835 6.257203 8.001241
vt -0.586702 1.001753
vn -0.000000 1.000000 0.000000
v -4.093374 6.257203 8.033701
vt -0.586702 1.001753
vn -0.000000 1.000000 0.000000
v -2.774972 6.257203 8.540490
vt -0.220801 1.001753
vn -0.000000 1.000000 0.000000
v -2.786230 6.257203 8.575138
vt -0.220801 1.001753
vn -0.000000 1.000000 0.000000
v -1.404781 6.257203 8.869444
vt 0.145100 1.001753
vn -0.000000 1.000000 0.000000
v -1.410480 6.257203 8.905427
vt 0.145100 1.001753
vn -0.000000 1.000000 0.000000
v 0.000001 6.257203 8.980002
vt 0.511003 1.001753
vn -0.000000 1.000000 -0.000015
v 0.000001 6.257203 9.016435
vt 0.511003 1.001753
vn -0.000000 1.000000 -0.000015
v 1.404783 6.257203 8.869444
vt 0.876904 1.001753
vn -0.000000 1.000000 0.000000
v 1.410482 6.257203 8.905427
vt 0.876904 1.001753
vn -0.000000 1.000000 0.000000
v 2.774975 6.257203 8.540490
vt 1.242805 1.001753
vn -0.000000 1.000000 0.000000
v 2.786233 6.257203 8.575138
vt 1.242805 1.001753
vn -0.000000 1.000000 0.000000
v 4.076838 6.257203 8.001241
vt 1.608707 1.001753
vn -0.000000 1.000000 0.000000
v 4.093377 6.257203 8.033701
vt 1.608707 1.001753
vn -0.000000 1.000000 0.000000
v 5.278315 6.257203 7.264975
vt 1.974609 1.001753
vn -0.000000 1.000000 -0.000013
v 5.299729 6.257203 7.294448
vt 1.974609 1.001753
vn -0.000000 1.000000 -0.000013
v 6.349823 6.257203 6.349821
vt 2.340510 1.001753
vn -0.000000 1.000000 -0.000018
v 6.373556 6.257203 6.377609
vt 2.340510 1.001753
vn -0.000000 1.000000 -0.000018
v -6.349819 6.257203 6.349820
vt -1.318505 1.001753
vn -0.760406 0.000000 -0.649448
v -6.373552 3.695920 6.377608
vt -1.318505 0.002173
vn -0.760406 0.000000 -0.649448
v -6.349819 3.695920 6.349820
vt -1.318505 0.002173
vn -0.760406 0.000000 -0.649448
v -6.373552 6.257203 6.377608
vt -1.318505 1.001753
vn -0.760406 0.000000 -0.649448
v -6.349819 3.695920 6.349820
vt -1.318505 0.002173
vn -0.000000 -1.000000 0.000000
v -5.299726 3.695920 7.294448
vt -0.952604 0.002173
vn -0.000000 -1.000000 0.000000
v -5.278312 3.695920 7.264975
vt -0.952604 0.002173
vn -0.000000 -1.000000 0.000000
v -6.373552 3.695920 6.377608
vt -1.318505 0.002173
vn -0.000000 -1.000000 0.000000
v -4.093374 3.695920 8.033701
vt -0.586702 0.002173
vn -0.000000 -1.000000 0.000000
v -4.076835 3.695920 8.001241
vt -0.586702 0.002173
vn -0.000000 -1.000000 0.000000
v -2.786230 3.695920 8.575138
vt -0.220800 0.002173
vn -0.000000 -1.000000 0.000000
v -2.774972 3.695920 8.540490
vt -0.220800 0.002173
vn -0.000000 -1.000000 0.000000
v -1.410480 3.695920 8.905427
vt 0.145100 0.002173
vn -0.000000 -1.000000 0.000000
v -1.404781 3.695920 8.869444
vt 0.145100 0.002173
vn -0.000000 -1.000000 0.000000
v 0.000001 3.695920 9.016435
vt 0.511003 0.002173
vn -0.000000 -1.000000 0.000000
v 0.000001 3.695920 8.980002
vt 0.511003 0.002173
vn -0.000000 -1.000000 0.000000
v 1.410482 3.695920 8.905427
vt 0.876904 0.002173
vn -0.000000 -1.000000 0.000000
v 1.404783 3.695920 8.869444
vt 0.876904 0.002173
vn -0.000000 -1.000000 0.000000
v 2.786233 3.695920 8.575138
vt 1.242805 0.002173
vn -0.000000 -1.000000 0.000000
v 2.774975 3.695920 8.540490
vt 1.242805 0.002173
vn -0.000000 -1.000000 0.000000
v 4.093377 3.695920 8.033701
vt 1.608707 0.002173
vn -0.000000 -1.000000 0.000000
v 4.076838 3.695920 8.001241
vt 1.608707 0.002173
vn -0.000000 -1.000000 0.000000
v 5.299729 3.695920 7.294449
vt 1.974609 0.002173
vn -0.000000 -1.000000 0.000000
v 5.278316 3.695920 7.264975
vt 1.974609 0.002173
vn -0.000000 -1.000000 0.000000
v 6.373557 3.695920 6.377609
vt 2.340510 0.002173
vn -0.000000 -1.000000 0.000011
v 6.349823 3.695920 6.349821
vt 2.340510 0.002173
vn -0.000000 -1.000000 0.000011
v 6.349823 3.695920 6.349821
vt 2.340510 0.002173
vn 0.760414 0.000000 -0.649438
v 6.373556 6.257203 6.377609
vt 2.340510 1.001753
vn 0.760414 0.000000 -0.649438
v 6.349823 6.257203 6.349821
vt 2.340510 1.001753
vn 0.760414 0.000000 -0.649438
v 6.373557 3.695920 6.377609
vt 2.340510 0.002173
vn 0.760414 0.000000 -0.649438
# Faces (1 to 74)
g WallEdge_0
f -72/-72/-72 -73/-73/-73 -74/-74/-74
f -73/-73/-73 -71/-71/-71 -74/-74/-74
f -74/-74/-74 -71/-71/-71 -70/-70/-70
f -71/-71/-71 -69/-69/-69 -70/-70/-70
f -70/-70/-70 -69/-69/-69 -68/-68/-68
f -69/-69/-69 -67/-67/-67 -68/-68/-68
f -68/-68/-68 -67/-67/-67 -66/-66/-66
f -67/-67/-67 -65/-65/-65 -66/-66/-66
f -66/-66/-66 -65/-65/-65 -64/-64/-64
f -65/-65/-65 -63/-63/-63 -64/-64/-64
f -64/-64/-64 -63/-63/-63 -62/-62/-62
f -63/-63/-63 -61/-61/-61 -62/-62/-62
f -62/-62/-62 -61/-61/-61 -60/-60/-60
f -61/-61/-61 -59/-59/-59 -60/-60/-60
f -60/-60/-60 -59/-59/-59 -58/-58/-58
f -59/-59/-59 -57/-57/-57 -58/-58/-58
f -58/-58/-58 -57/-57/-57 -56/-56/-56
f -57/-57/-57 -55/-55/-55 -56/-56/-56
f -56/-56/-56 -55/-55/-55 -54/-54/-54
f -55/-55/-55 -53/-53/-53 -54/-54/-54
f -50/-50/-50 -51/-51/-51 -52/-52/-52
f -51/-51/-51 -49/-49/-49 -52/-52/-52
f -52/-52/-52 -49/-49/-49 -48/-48/-48
f -49/-49/-49 -47/-47/-47 -48/-48/-48
f -48/-48/-48 -47/-47/-47 -46/-46/-46
f -47/-47/-47 -45/-45/-45 -46/-46/-46
f -46/-46/-46 -45/-45/-45 -44/-44/-44
f -45/-45/-45 -43/-43/-43 -44/-44/-44
f -44/-44/-44 -43/-43/-43 -42/-42/-42
f -43/-43/-43 -41/-41/-41 -42/-42/-42
f -42/-42/-42 -41/-41/-41 -40/-40/-40
f -41/-41/-41 -39/-39/-39 -40/-40/-40
f -40/-40/-40 -39/-39/-39 -38/-38/-38
f -39/-39/-39 -37/-37/-37 -38/-38/-38
f -38/-38/-38 -37/-37/-37 -36/-36/-36
f -37/-37/-37 -35/-35/-35 -36/-36/-36
f -36/-36/-36 -35/-35/-35 -34/-34/-34
f -35/-35/-35 -33/-33/-33 -34/-34/-34
f -34/-34/-34 -33/-33/-33 -32/-32/-32
f -33/-33/-33 -31/-31/-31 -32/-32/-32
f -28/-28/-28 -29/-29/-29 -30/-30/-30
f -29/-29/-29 -27/-27/-27 -30/-30/-30
f -24/-24/-24 -25/-25/-25 -26/-26/-26
f -25/-25/-25 -23/-23/-23 -26/-26/-26
f -22/-22/-22 -25/-25/-25 -24/-24/-24
f -21/-21/-21 -22/-22/-22 -24/-24/-24
f -20/-20/-20 -22/-22/-22 -21/-21/-21
f -19/-19/-19 -20/-20/-20 -21/-21/-21
f -18/-18/-18 -20/-20/-20 -19/-19/-19
f -17/-17/-17 -18/-18/-18 -19/-19/-19
f -16/-16/-16 -18/-18/-18 -17/-17/-17
f -15/-15/-15 -16/-16/-16 -17/-17/-17
f -14/-14/-14 -16/-16/-16 -15/-15/-15
f -13/-13/-13 -14/-14/-14 -15/-15/-15
f -12/-12/-12 -14/-14/-14 -13/-13/-13
f -11/-11/-11 -12/-12/-12 -13/-13/-13
f -10/-10/-10 -12/-12/-12 -11/-11/-11
f -9/-9/-9 -10/-10/-10 -11/-11/-11
f -8/-8/-8 -10/-10/-10 -9/-9/-9
f -7/-7/-7 -8/-8/-8 -9/-9/-9
f -6/-6/-6 -8/-8/-8 -7/-7/-7
f -5/-5/-5 -6/-6/-6 -7/-7/-7
f -2/-2/-2 -3/-3/-3 -4/-4/-4
f -3/-3/-3 -1/-1/-1 -4/-4/-4

