# Mesh "WallBody" exported with Unity Assets Bundle Extractor; 138 vertices, 348 indices, 256 bits per vertex
g WallBody
# SubMesh 0
# Vertices
v -6.059109 6.257203 -6.059107
vt 0.402503 0.486828
vn -0.707105 0.000000 0.707109
v -6.349823 6.137288 -6.349820
vt 0.397818 0.498186
vn -0.707104 0.000000 0.707109
v -6.349823 6.257203 -6.349821
vt 0.402503 0.498186
vn -0.707105 0.000000 0.707109
v -6.059109 6.137288 -6.059107
vt 0.397818 0.486828
vn -0.707104 0.000000 0.707109
v -6.349823 3.695920 -6.349821
vt 0.302430 0.498186
vn -0.707105 0.000000 0.707109
v -6.059109 3.695920 -6.059108
vt 0.302430 0.486828
vn -0.707105 0.000000 0.707109
v -6.349823 -3.998159 -6.349821
vt 0.001810 0.498186
vn -0.707105 0.000000 0.707109
v -6.059109 -3.998159 -6.059108
vt 0.001810 0.486828
vn -0.707105 0.000000 0.707109
v -6.349823 -3.998159 -6.349821
vt 0.512123 0.498186
vn -0.000000 -1.000000 0.000000
v -5.907490 -3.998159 -6.188602
vt 0.518422 0.480904
vn -0.000000 -1.000000 0.000000
v -6.190930 -3.998159 -6.485528
vt 0.506821 0.491978
vn -0.000000 -1.000000 0.000000
v -6.059109 -3.998159 -6.059108
vt 0.523482 0.486828
vn -0.000000 -1.000000 0.000000
v -5.278315 -3.998159 -7.264975
vt 0.476367 0.456321
vn -0.000000 -1.000000 0.000000
v -5.036658 -3.998159 -6.932363
vt 0.489362 0.446879
vn -0.000000 -1.000000 0.000000
v -3.890188 -3.998159 -7.634920
vt 0.461912 0.402085
vn -0.000000 -1.000000 0.000000
v -4.076838 -3.998159 -8.001241
vt 0.447600 0.409377
vn -0.000000 -1.000000 0.000000
v -2.647928 -3.998159 -8.149481
vt 0.441808 0.353548
vn -0.000000 -1.000000 0.000000
v -2.774975 -3.998159 -8.540490
vt 0.426530 0.358512
vn -0.000000 -1.000000 0.000000
v -1.340468 -3.998159 -8.463374
vt 0.429543 0.302463
vn -0.000000 -1.000000 0.000000
v -1.404783 -3.998159 -8.869444
vt 0.413677 0.304976
vn -0.000000 -1.000000 0.000000
v -0.000001 -3.998159 -8.568871
vt 0.425421 0.250089
vn -0.000000 -1.000000 0.000000
v -0.000001 -3.998159 -8.980002
vt 0.409358 0.250089
vn -0.000000 -1.000000 0.000000
v 1.340466 -3.998159 -8.463373
vt 0.429543 0.197715
vn -0.000000 -1.000000 0.000000
v 1.404781 -3.998159 -8.869444
vt 0.413677 0.195202
vn -0.000000 -1.000000 0.000000
v 2.647926 -3.998159 -8.149481
vt 0.441808 0.146631
vn -0.000000 -1.000000 0.000000
v 2.774972 -3.998159 -8.540490
vt 0.426530 0.141667
vn -0.000000 -1.000000 0.000000
v 3.890185 -3.998159 -7.634920
vt 0.461912 0.098094
vn -0.000000 -1.000000 0.000000
v 4.076835 -3.998159 -8.001241
vt 0.447600 0.090801
vn -0.000000 -1.000000 0.000000
v 5.036655 -3.998159 -6.932362
vt 0.489362 0.053299
vn -0.000000 -1.000000 0.000000
v 5.278312 -3.998159 -7.264974
vt 0.476367 0.043857
vn -0.000000 -1.000000 0.000000
v 5.909697 -3.998159 -6.186714
vt 0.518496 0.019188
vn -0.000000 -1.000000 0.000000
v 6.193242 -3.998159 -6.483550
vt 0.506898 0.008110
vn -0.000000 -1.000000 0.000000
v 6.349819 -3.998159 -6.349820
vt 0.512123 0.001992
vn -0.000000 -1.000000 0.000000
v 6.059106 -3.998159 -6.059107
vt 0.523482 0.013351
vn -0.000000 -1.000000 0.000000
v 6.059105 6.257203 -6.059107
vt 0.402503 0.013351
vn 0.707107 0.000000 0.707107
v 6.349819 6.137288 -6.349820
vt 0.397818 0.001992
vn 0.707107 0.000000 0.707107
v 6.059105 6.137288 -6.059107
vt 0.397818 0.013351
vn 0.707107 0.000000 0.707107
v 6.349819 6.257203 -6.349820
vt 0.402503 0.001992
vn 0.707107 0.000000 0.707107
v 6.059106 3.695920 -6.059107
vt 0.302430 0.013351
vn 0.707107 0.000000 0.707107
v 6.349819 3.695920 -6.349820
vt 0.302430 0.001992
vn 0.707107 0.000000 0.707107
v 6.059106 -3.998159 -6.059107
vt 0.001810 0.013351
vn 0.707107 0.000000 0.707107
v 6.349819 -3.998159 -6.349820
vt 0.001810 0.001992
vn 0.707107 0.000000 0.707107
v 5.036655 6.257203 -6.932362
vt 0.887363 0.053056
vn -0.000000 1.000000 0.000000
v 6.193242 6.257203 -6.483550
vt 0.869827 0.007867
vn -0.000000 1.000000 0.000000
v 5.909697 6.257203 -6.186714
vt 0.858229 0.018945
vn -0.000000 1.000000 0.000000
v 5.278312 6.257203 -7.264974
vt 0.900359 0.043614
vn -0.000000 1.000000 0.000000
v 3.890185 6.257203 -7.634920
vt 0.914813 0.097851
vn -0.000000 1.000000 0.000000
v 4.076835 6.257203 -8.001241
vt 0.929126 0.090558
vn -0.000000 1.000000 0.000000
v 2.647926 6.257203 -8.149481
vt 0.934918 0.146388
vn -0.000000 1.000000 0.000000
v 2.774972 6.257203 -8.540490
vt 0.950195 0.141424
vn -0.000000 1.000000 0.000000
v 1.340466 6.257203 -8.463373
vt 0.947182 0.197472
vn -0.000000 1.000000 0.000000
v 1.404781 6.257203 -8.869444
vt 0.963048 0.194959
vn -0.000000 1.000000 0.000000
v -0.000001 6.257203 -8.568871
vt 0.951304 0.249846
vn -0.000000 1.000000 0.000000
v -0.000001 6.257203 -8.980002
vt 0.967367 0.249846
vn -0.000000 1.000000 0.000000
v -1.340468 6.257203 -8.463374
vt 0.947182 0.302220
vn -0.000000 1.000000 0.000000
v -1.404783 6.257203 -8.869444
vt 0.963048 0.304733
vn -0.000000 1.000000 0.000000
v -2.647928 6.257203 -8.149481
vt 0.934918 0.353305
vn -0.000000 1.000000 0.000000
v -2.774975 6.257203 -8.540490
vt 0.950195 0.358269
vn -0.000000 1.000000 0.000000
v -3.890188 6.257203 -7.634920
vt 0.914813 0.401842
vn -0.000000 1.000000 0.000000
v -4.076838 6.257203 -8.001241
vt 0.929126 0.409134
vn -0.000000 1.000000 0.000000
v -5.036658 6.257203 -6.932363
vt 0.887363 0.446636
vn -0.000000 1.000000 0.000000
v -5.278315 6.257203 -7.264975
vt 0.900359 0.456078
vn -0.000000 1.000000 0.000000
v -6.190930 6.257203 -6.485528
vt 0.869905 0.491735
vn -0.000000 1.000000 0.000000
v -5.907490 6.257203 -6.188601
vt 0.858303 0.480661
vn -0.000000 1.000000 0.000000
v -6.059109 6.257203 -6.059107
vt 0.853244 0.486585
vn -0.000000 1.000000 0.000000
v -6.349823 6.257203 -6.349821
vt 0.864602 0.497943
vn -0.000000 1.000000 0.000000
v 5.909697 6.257203 -6.186714
vt 0.402503 0.019188
vn -0.649449 0.000000 0.760405
v 5.036655 6.137288 -6.932361
vt 0.397818 0.053299
vn -0.649449 0.000000 0.760406
v 5.036655 6.257203 -6.932362
vt 0.402503 0.053299
vn -0.587785 0.000000 0.809017
v 5.909697 6.137288 -6.186714
vt 0.397818 0.019188
vn -0.649449 0.000000 0.760405
v 6.059105 6.257203 -6.059107
vt 0.402503 0.013351
vn -0.649448 0.000000 0.760406
v 6.059105 6.137288 -6.059107
vt 0.397818 0.013351
vn -0.649449 0.000000 0.760405
v 5.909697 3.695920 -6.186714
vt 0.302430 0.019188
vn -0.649449 0.000000 0.760405
v 6.059106 3.695920 -6.059107
vt 0.302430 0.013351
vn -0.649448 0.000000 0.760406
v 5.909697 -3.998159 -6.186714
vt 0.001810 0.019188
vn -0.649449 0.000000 0.760405
v 6.059106 -3.998159 -6.059107
vt 0.001810 0.013351
vn -0.649448 0.000000 0.760406
v 3.890185 6.137288 -7.634920
vt 0.397818 0.098094
vn -0.522497 0.000000 0.852641
v 3.890185 6.257203 -7.634920
vt 0.402503 0.098094
vn -0.453991 0.000000 0.891006
v 5.036655 6.137288 -6.932361
vt 0.397818 0.053299
vn -0.522497 0.000000 0.852641
v 2.647926 6.137288 -8.149481
vt 0.397818 0.146631
vn -0.382684 0.000000 0.923879
v 2.647926 6.257203 -8.149481
vt 0.402503 0.146631
vn -0.309016 0.000000 0.951057
v 3.890185 6.137288 -7.634920
vt 0.397818 0.098094
vn -0.382684 0.000000 0.923879
v 1.340466 6.137288 -8.463373
vt 0.397818 0.197715
vn -0.233445 0.000000 0.972370
v 1.340466 6.257203 -8.463373
vt 0.402503 0.197715
vn -0.156434 0.000000 0.987688
v 2.647926 6.137288 -8.149481
vt 0.397818 0.146631
vn -0.233445 0.000000 0.972370
v -0.000001 6.137288 -8.568871
vt 0.397818 0.250089
vn -0.078460 0.000000 0.996917
v -0.000001 6.257203 -8.568871
vt 0.402503 0.250089
vn -0.000000 0.000000 1.000000
v 1.340466 6.137288 -8.463373
vt 0.397818 0.197715
vn -0.078460 0.000000 0.996917
v -1.340468 6.137288 -8.463374
vt 0.397818 0.302463
vn 0.078458 0.000000 0.996917
v -1.340468 6.257203 -8.463374
vt 0.402503 0.302463
vn 0.156434 0.000000 0.987688
v -0.000001 6.137288 -8.568871
vt 0.397818 0.250089
vn 0.078458 0.000000 0.996917
v -1.340468 6.257203 -8.463374
vt 0.402503 0.302463
vn 0.156434 0.000000 0.987688
v -2.647928 6.137288 -8.149481
vt 0.397818 0.353548
vn 0.233445 0.000000 0.972370
v -2.647928 6.257203 -8.149481
vt 0.402503 0.353548
vn 0.309017 0.000000 0.951057
v -1.340468 6.137288 -8.463374
vt 0.397818 0.302463
vn 0.233445 0.000000 0.972370
v -3.890188 6.137288 -7.634920
vt 0.397818 0.402085
vn 0.382683 0.000000 0.923880
v -3.890188 6.257203 -7.634920
vt 0.402503 0.402085
vn 0.453990 0.000000 0.891007
v -2.647928 6.137288 -8.149481
vt 0.397818 0.353548
vn 0.382683 0.000000 0.923880
v -5.036657 6.137288 -6.932362
vt 0.397818 0.446879
vn 0.522499 0.000000 0.852640
v -5.036658 6.257203 -6.932363
vt 0.402503 0.446879
vn 0.587785 0.000000 0.809017
v -3.890188 6.137288 -7.634920
vt 0.397818 0.402085
vn 0.522499 0.000000 0.852640
v -5.907490 6.137287 -6.188601
vt 0.397818 0.480904
vn 0.649447 0.000000 0.760407
v -5.907490 6.257203 -6.188601
vt 0.402503 0.480904
vn 0.649447 0.000000 0.760407
v -6.059109 6.137288 -6.059107
vt 0.397818 0.486828
vn 0.649447 0.000000 0.760407
v -6.059109 6.257203 -6.059107
vt 0.402503 0.486828
vn 0.649448 0.000000 0.760406
v -6.059109 3.695920 -6.059108
vt 0.302430 0.486828
vn 0.649448 0.000000 0.760406
v -5.907490 3.695920 -6.188602
vt 0.302430 0.480904
vn 0.649448 0.000000 0.760406
v -6.059109 -3.998159 -6.059108
vt 0.001810 0.486828
vn 0.649448 0.000000 0.760406
v -5.907490 -3.998159 -6.188602
vt 0.001810 0.480904
vn 0.649448 0.000000 0.760406
v -5.036657 6.137288 -6.932362
vt 0.397818 0.446879
vn 0.649447 0.000000 0.760407
v 5.278312 3.695920 -7.264975
vt 0.529798 0.043857
vn 0.587785 0.000000 -0.809017
v 6.193242 -3.998159 -6.483550
vt 0.830417 0.008110
vn 0.649449 0.000000 -0.760405
v 6.193242 3.695920 -6.483550
vt 0.529798 0.008110
vn 0.649449 0.000000 -0.760405
v 5.278312 -3.998159 -7.264974
vt 0.830417 0.043857
vn 0.587785 0.000000 -0.809017
v 4.076835 3.695920 -8.001241
vt 0.529798 0.090801
vn 0.453991 0.000000 -0.891006
v 4.076835 -3.998159 -8.001241
vt 0.830417 0.090801
vn 0.453991 0.000000 -0.891006
v 2.774972 3.695920 -8.540490
vt 0.529798 0.141667
vn 0.309017 0.000000 -0.951056
v 2.774972 -3.998159 -8.540490
vt 0.830417 0.141667
vn 0.309017 0.000000 -0.951056
v 1.404781 3.695920 -8.869444
vt 0.529798 0.195202
vn 0.156434 0.000000 -0.987688
v 1.404781 -3.998159 -8.869444
vt 0.830417 0.195202
vn 0.156434 0.000000 -0.987688
v -0.000001 3.695920 -8.980002
vt 0.529798 0.250089
vn -0.000000 0.000000 -1.000000
v -0.000001 -3.998159 -8.980002
vt 0.830417 0.250089
vn -0.000000 0.000000 -1.000000
v -1.404783 3.695920 -8.869444
vt 0.529798 0.304976
vn -0.156434 0.000000 -0.987688
v -1.404783 -3.998159 -8.869444
vt 0.830417 0.304976
vn -0.156434 0.000000 -0.987688
v -2.774975 3.695920 -8.540490
vt 0.529798 0.358512
vn -0.309017 0.000000 -0.951056
v -2.774975 -3.998159 -8.540490
vt 0.830417 0.358512
vn -0.309017 0.000000 -0.951056
v -4.076838 3.695920 -8.001241
vt 0.529798 0.409377
vn -0.453990 0.000000 -0.891007
v -4.076838 -3.998159 -8.001241
vt 0.830417 0.409377
vn -0.453990 0.000000 -0.891007
v -5.278316 3.695920 -7.264975
vt 0.529798 0.456321
vn -0.587785 0.000000 -0.809017
v -5.278315 -3.998159 -7.264975
vt 0.830417 0.456321
vn -0.587785 0.000000 -0.809017
v -6.190930 3.695920 -6.485528
vt 0.529798 0.491978
vn -0.649448 0.000000 -0.760406
v -6.190930 -3.998159 -6.485528
vt 0.830417 0.491978
vn -0.649448 0.000000 -0.760406
v -6.349823 3.695920 -6.349821
vt 0.529798 0.498186
vn -0.649448 0.000000 -0.760406
v -6.349823 -3.998159 -6.349821
vt 0.830417 0.498186
vn -0.649448 0.000000 -0.760406
v 6.349819 -3.998159 -6.349820
vt 0.830417 0.001992
vn 0.649448 0.000000 -0.760406
v 6.349819 3.695920 -6.349820
vt 0.529798 0.001992
vn 0.649448 0.000000 -0.760406
v 6.059105 6.257203 -6.059107
vt 0.853244 0.013108
vn -0.000000 1.000000 0.000000
v 6.349819 6.257203 -6.349820
vt 0.864602 0.001749
vn -0.000000 1.000000 0.000000
# Faces (1 to 138)
g WallBody_0
f -136/-136/-136 -137/-137/-137 -138/-138/-138
f -137/-137/-137 -135/-135/-135 -138/-138/-138
f -137/-137/-137 -134/-134/-134 -135/-135/-135
f -134/-134/-134 -133/-133/-133 -135/-135/-135
f -134/-134/-134 -132/-132/-132 -133/-133/-133
f -132/-132/-132 -131/-131/-131 -133/-133/-133
f -128/-128/-128 -129/-129/-129 -130/-130/-130
f -129/-129/-129 -127/-127/-127 -130/-130/-130
f -128/-128/-128 -126/-126/-126 -129/-129/-129
f -126/-126/-126 -125/-125/-125 -129/-129/-129
f -124/-124/-124 -125/-125/-125 -126/-126/-126
f -123/-123/-123 -124/-124/-124 -126/-126/-126
f -122/-122/-122 -124/-124/-124 -123/-123/-123
f -121/-121/-121 -122/-122/-122 -123/-123/-123
f -120/-120/-120 -122/-122/-122 -121/-121/-121
f -119/-119/-119 -120/-120/-120 -121/-121/-121
f -118/-118/-118 -120/-120/-120 -119/-119/-119
f -117/-117/-117 -118/-118/-118 -119/-119/-119
f -116/-116/-116 -118/-118/-118 -117/-117/-117
f -115/-115/-115 -116/-116/-116 -117/-117/-117
f -114/-114/-114 -116/-116/-116 -115/-115/-115
f -113/-113/-113 -114/-114/-114 -115/-115/-115
f -112/-112/-112 -114/-114/-114 -113/-113/-113
f -111/-111/-111 -112/-112/-112 -113/-113/-113
f -110/-110/-110 -112/-112/-112 -111/-111/-111
f -109/-109/-109 -110/-110/-110 -111/-111/-111
f -108/-108/-108 -110/-110/-110 -109/-109/-109
f -107/-107/-107 -108/-108/-108 -109/-109/-109
f -107/-107/-107 -106/-106/-106 -108/-108/-108
f -106/-106/-106 -105/-105/-105 -108/-108/-108
f -102/-102/-102 -103/-103/-103 -104/-104/-104
f -103/-103/-103 -101/-101/-101 -104/-104/-104
f -102/-102/-102 -100/-100/-100 -103/-103/-103
f -100/-100/-100 -99/-99/-99 -103/-103/-103
f -100/-100/-100 -98/-98/-98 -99/-99/-99
f -98/-98/-98 -97/-97/-97 -99/-99/-99
f -94/-94/-94 -95/-95/-95 -96/-96/-96
f -95/-95/-95 -93/-93/-93 -96/-96/-96
f -96/-96/-96 -93/-93/-93 -92/-92/-92
f -93/-93/-93 -91/-91/-91 -92/-92/-92
f -92/-92/-92 -91/-91/-91 -90/-90/-90
f -91/-91/-91 -89/-89/-89 -90/-90/-90
f -90/-90/-90 -89/-89/-89 -88/-88/-88
f -89/-89/-89 -87/-87/-87 -88/-88/-88
f -88/-88/-88 -87/-87/-87 -86/-86/-86
f -87/-87/-87 -85/-85/-85 -86/-86/-86
f -86/-86/-86 -85/-85/-85 -84/-84/-84
f -85/-85/-85 -83/-83/-83 -84/-84/-84
f -84/-84/-84 -83/-83/-83 -82/-82/-82
f -83/-83/-83 -81/-81/-81 -82/-82/-82
f -82/-82/-82 -81/-81/-81 -80/-80/-80
f -81/-81/-81 -79/-79/-79 -80/-80/-80
f -80/-80/-80 -79/-79/-79 -78/-78/-78
f -79/-79/-79 -77/-77/-77 -78/-78/-78
f -78/-78/-78 -77/-77/-77 -76/-76/-76
f -75/-75/-75 -78/-78/-78 -76/-76/-76
f -75/-75/-75 -76/-76/-76 -74/-74/-74
f -76/-76/-76 -73/-73/-73 -74/-74/-74
f -70/-70/-70 -71/-71/-71 -72/-72/-72
f -71/-71/-71 -69/-69/-69 -72/-72/-72
f -72/-72/-72 -69/-69/-69 -68/-68/-68
f -69/-69/-69 -67/-67/-67 -68/-68/-68
f -69/-69/-69 -66/-66/-66 -67/-67/-67
f -66/-66/-66 -65/-65/-65 -67/-67/-67
f -66/-66/-66 -64/-64/-64 -65/-65/-65
f -64/-64/-64 -63/-63/-63 -65/-65/-65
f -61/-61/-61 -62/-62/-62 -70/-70/-70
f -62/-62/-62 -60/-60/-60 -70/-70/-70
f -58/-58/-58 -59/-59/-59 -61/-61/-61
f -59/-59/-59 -57/-57/-57 -61/-61/-61
f -55/-55/-55 -56/-56/-56 -58/-58/-58
f -56/-56/-56 -54/-54/-54 -58/-58/-58
f -52/-52/-52 -53/-53/-53 -55/-55/-55
f -53/-53/-53 -51/-51/-51 -55/-55/-55
f -49/-49/-49 -50/-50/-50 -52/-52/-52
f -50/-50/-50 -48/-48/-48 -52/-52/-52
f -45/-45/-45 -46/-46/-46 -47/-47/-47
f -46/-46/-46 -44/-44/-44 -47/-47/-47
f -42/-42/-42 -43/-43/-43 -45/-45/-45
f -43/-43/-43 -41/-41/-41 -45/-45/-45
f -39/-39/-39 -40/-40/-40 -42/-42/-42
f -40/-40/-40 -38/-38/-38 -42/-42/-42
f -36/-36/-36 -37/-37/-37 -39/-39/-39
f -35/-35/-35 -37/-37/-37 -36/-36/-36
f -34/-34/-34 -35/-35/-35 -36/-36/-36
f -35/-35/-35 -33/-33/-33 -37/-37/-37
f -33/-33/-33 -32/-32/-32 -37/-37/-37
f -33/-33/-33 -31/-31/-31 -32/-32/-32
f -31/-31/-31 -30/-30/-30 -32/-32/-32
f -37/-37/-37 -29/-29/-29 -39/-39/-39
f -26/-26/-26 -27/-27/-27 -28/-28/-28
f -27/-27/-27 -25/-25/-25 -28/-28/-28
f -28/-28/-28 -25/-25/-25 -24/-24/-24
f -25/-25/-25 -23/-23/-23 -24/-24/-24
f -24/-24/-24 -23/-23/-23 -22/-22/-22
f -23/-23/-23 -21/-21/-21 -22/-22/-22
f -22/-22/-22 -21/-21/-21 -20/-20/-20
f -21/-21/-21 -19/-19/-19 -20/-20/-20
f -20/-20/-20 -19/-19/-19 -18/-18/-18
f -19/-19/-19 -17/-17/-17 -18/-18/-18
f -18/-18/-18 -17/-17/-17 -16/-16/-16
f -17/-17/-17 -15/-15/-15 -16/-16/-16
f -16/-16/-16 -15/-15/-15 -14/-14/-14
f -15/-15/-15 -13/-13/-13 -14/-14/-14
f -14/-14/-14 -13/-13/-13 -12/-12/-12
f -13/-13/-13 -11/-11/-11 -12/-12/-12
f -12/-12/-12 -11/-11/-11 -10/-10/-10
f -11/-11/-11 -9/-9/-9 -10/-10/-10
f -10/-10/-10 -9/-9/-9 -8/-8/-8
f -9/-9/-9 -7/-7/-7 -8/-8/-8
f -8/-8/-8 -7/-7/-7 -6/-6/-6
f -7/-7/-7 -5/-5/-5 -6/-6/-6
f -3/-3/-3 -4/-4/-4 -26/-26/-26
f -4/-4/-4 -27/-27/-27 -26/-26/-26
f -94/-94/-94 -2/-2/-2 -95/-95/-95
f -2/-2/-2 -1/-1/-1 -95/-95/-95

