# Mesh "WallBody" exported with Unity Assets Bundle Extractor; 138 vertices, 348 indices, 256 bits per vertex
g WallBody
# SubMesh 0
# Vertices
v 6.059109 6.135760 6.059107
vt 0.397758 0.486828
vn 0.707106 0.000000 -0.707107
v 6.349823 3.695920 6.349821
vt 0.302430 0.498186
vn 0.707105 0.000000 -0.707109
v 6.349823 6.135760 6.349821
vt 0.397758 0.498186
vn 0.707106 0.000000 -0.707107
v 6.059109 3.695920 6.059108
vt 0.302430 0.486828
vn 0.707105 0.000000 -0.707109
v 6.349823 -3.998159 6.349821
vt 0.001810 0.498186
vn 0.707105 0.000000 -0.707109
v 6.059109 -3.998159 6.059108
vt 0.001810 0.486828
vn 0.707105 0.000000 -0.707109
v 6.059109 6.257203 6.059107
vt 0.402503 0.486828
vn 0.707105 0.000000 -0.707109
v 6.349823 6.257203 6.349821
vt 0.402503 0.498186
vn 0.707105 0.000000 -0.707109
v 6.349823 -3.998159 6.349821
vt 0.512123 0.498186
vn -0.000000 -1.000000 0.000000
v 5.915822 -3.998159 6.181486
vt 0.518700 0.481229
vn -0.000000 -1.000000 0.000000
v 6.199661 -3.998159 6.478071
vt 0.507112 0.492319
vn -0.000000 -1.000000 0.000000
v 6.059109 -3.998159 6.059108
vt 0.523482 0.486828
vn -0.000000 -1.000000 0.000000
v 5.278315 -3.998159 7.264975
vt 0.476367 0.456321
vn -0.000000 -1.000000 0.000000
v 5.036658 -3.998159 6.932363
vt 0.489362 0.446879
vn -0.000000 -1.000000 0.000000
v 3.890188 -3.998159 7.634920
vt 0.461912 0.402085
vn -0.000000 -1.000000 0.000000
v 4.076838 -3.998159 8.001241
vt 0.447600 0.409377
vn -0.000000 -1.000000 0.000000
v 2.647928 -3.998159 8.149481
vt 0.441808 0.353548
vn -0.000000 -1.000000 0.000000
v 2.774975 -3.998159 8.540490
vt 0.426530 0.358512
vn -0.000000 -1.000000 0.000000
v 1.340468 -3.998159 8.463374
vt 0.429543 0.302463
vn -0.000000 -1.000000 0.000000
v 1.404783 -3.998159 8.869444
vt 0.413677 0.304976
vn -0.000000 -1.000000 0.000000
v 0.000001 -3.998159 8.568871
vt 0.425421 0.250089
vn -0.000000 -1.000000 0.000000
v 0.000001 -3.998159 8.980002
vt 0.409358 0.250089
vn -0.000000 -1.000000 0.000000
v -1.340466 -3.998159 8.463373
vt 0.429543 0.197715
vn -0.000000 -1.000000 0.000000
v -1.404781 -3.998159 8.869444
vt 0.413677 0.195202
vn -0.000000 -1.000000 0.000000
v -2.647926 -3.998159 8.149481
vt 0.441808 0.146631
vn -0.000000 -1.000000 0.000000
v -2.774972 -3.998159 8.540490
vt 0.426530 0.141667
vn -0.000000 -1.000000 0.000000
v -3.890185 -3.998159 7.634920
vt 0.461912 0.098094
vn -0.000000 -1.000000 0.000000
v -4.076835 -3.998159 8.001241
vt 0.447600 0.090801
vn -0.000000 -1.000000 0.000000
v -5.036655 -3.998159 6.932362
vt 0.489362 0.053299
vn -0.000000 -1.000000 0.000000
v -5.278312 -3.998159 7.264974
vt 0.476367 0.043857
vn -0.000000 -1.000000 0.000000
v -5.917208 -3.998159 6.180299
vt 0.518746 0.018895
vn -0.000000 -1.000000 0.000000
v -6.201113 -3.998159 6.476827
vt 0.507161 0.007802
vn -0.000000 -1.000000 0.000000
v -6.349819 -3.998159 6.349820
vt 0.512123 0.001992
vn -0.000000 -1.000000 0.000000
v -6.059106 -3.998159 6.059107
vt 0.523482 0.013351
vn -0.000000 -1.000000 0.000000
v -6.059106 6.135760 6.059107
vt 0.397758 0.013351
vn -0.707108 0.000000 -0.707105
v -6.349819 3.695920 6.349820
vt 0.302430 0.001992
vn -0.707107 0.000000 -0.707107
v -6.059106 3.695920 6.059107
vt 0.302430 0.013351
vn -0.707107 0.000000 -0.707107
v -6.349819 6.135760 6.349820
vt 0.397758 0.001992
vn -0.707108 0.000000 -0.707105
v -6.059106 -3.998159 6.059107
vt 0.001810 0.013351
vn -0.707107 0.000000 -0.707107
v -6.349819 -3.998159 6.349820
vt 0.001810 0.001992
vn -0.707107 0.000000 -0.707107
v -6.059105 6.257203 6.059107
vt 0.402503 0.013351
vn -0.707107 0.000000 -0.707107
v -6.349819 6.257203 6.349820
vt 0.402503 0.001992
vn -0.707107 0.000000 -0.707107
v -5.036655 6.257203 6.932362
vt 0.887363 0.053056
vn -0.000000 1.000000 0.000000
v -6.201113 6.257203 6.476827
vt 0.869565 0.007559
vn -0.000000 1.000000 0.000000
v -5.917207 6.257203 6.180299
vt 0.857979 0.018652
vn -0.000000 1.000000 0.000000
v -5.278312 6.257203 7.264974
vt 0.900359 0.043614
vn -0.000000 1.000000 0.000000
v -3.890185 6.257203 7.634920
vt 0.914813 0.097851
vn -0.000000 1.000000 0.000000
v -4.076835 6.257203 8.001241
vt 0.929126 0.090558
vn -0.000000 1.000000 0.000000
v -2.647926 6.257203 8.149481
vt 0.934918 0.146388
vn -0.000000 1.000000 0.000000
v -2.774972 6.257203 8.540490
vt 0.950195 0.141424
vn -0.000000 1.000000 0.000000
v -1.340466 6.257203 8.463373
vt 0.947182 0.197472
vn -0.000000 1.000000 0.000000
v -1.404781 6.257203 8.869444
vt 0.963048 0.194959
vn -0.000000 1.000000 0.000000
v 0.000001 6.257203 8.568871
vt 0.951304 0.249846
vn -0.000000 1.000000 0.000000
v 0.000001 6.257203 8.980002
vt 0.967367 0.249846
vn -0.000000 1.000000 0.000000
v 1.340468 6.257203 8.463374
vt 0.947182 0.302220
vn -0.000000 1.000000 0.000000
v 1.404783 6.257203 8.869444
vt 0.963048 0.304733
vn -0.000000 1.000000 0.000000
v 2.647928 6.257203 8.149481
vt 0.934918 0.353305
vn -0.000000 1.000000 0.000000
v 2.774975 6.257203 8.540490
vt 0.950195 0.358269
vn -0.000000 1.000000 0.000000
v 3.890188 6.257203 7.634920
vt 0.914813 0.401842
vn -0.000000 1.000000 0.000000
v 4.076838 6.257203 8.001241
vt 0.929126 0.409134
vn -0.000000 1.000000 0.000000
v 5.036658 6.257203 6.932363
vt 0.887363 0.446636
vn -0.000000 1.000000 0.000000
v 5.278315 6.257203 7.264975
vt 0.900359 0.456078
vn -0.000000 1.000000 0.000000
v 6.199661 6.257202 6.478071
vt 0.869613 0.492076
vn -0.000000 1.000000 0.000000
v 5.915822 6.257202 6.181486
vt 0.858025 0.480986
vn -0.000000 1.000000 0.000000
v 6.059109 6.257203 6.059107
vt 0.853244 0.486585
vn -0.000000 1.000000 0.000000
v 6.349823 6.257203 6.349821
vt 0.864602 0.497943
vn -0.000000 1.000000 0.000000
v 5.915822 6.135760 6.181486
vt 0.397758 0.481229
vn -0.649448 0.000000 -0.760406
v 6.059109 3.695920 6.059108
vt 0.302430 0.486828
vn -0.649448 0.000000 -0.760406
v 6.059109 6.135760 6.059107
vt 0.397758 0.486828
vn -0.649448 0.000000 -0.760406
v 5.915822 3.695920 6.181486
vt 0.302430 0.481229
vn -0.649446 0.000000 -0.760408
v 6.059109 -3.998159 6.059108
vt 0.001810 0.486828
vn -0.649448 0.000000 -0.760406
v 5.915822 -3.998159 6.181486
vt 0.001810 0.481229
vn -0.649447 0.000000 -0.760407
v 5.915822 6.257202 6.181486
vt 0.402503 0.481229
vn -0.649449 0.000000 -0.760405
v 6.059109 6.257203 6.059107
vt 0.402503 0.486828
vn -0.649448 0.000000 -0.760406
v 5.036658 6.257203 6.932363
vt 0.402503 0.446879
vn -0.587785 0.000000 -0.809017
v 5.036658 6.135760 6.932363
vt 0.397758 0.446879
vn -0.649449 0.000000 -0.760406
v 3.890188 6.257203 7.634920
vt 0.402503 0.402085
vn -0.453990 0.000000 -0.891007
v 5.036658 6.135760 6.932363
vt 0.397758 0.446879
vn -0.522498 0.000000 -0.852641
v 3.890188 6.135760 7.634920
vt 0.397758 0.402085
vn -0.522498 0.000000 -0.852641
v 2.647928 6.257203 8.149481
vt 0.402503 0.353548
vn -0.309017 0.000000 -0.951057
v 3.890188 6.135760 7.634920
vt 0.397758 0.402085
vn -0.382683 0.000000 -0.923880
v 2.647928 6.135760 8.149481
vt 0.397758 0.353548
vn -0.382683 0.000000 -0.923880
v 1.340468 6.257203 8.463374
vt 0.402503 0.302463
vn -0.156434 0.000000 -0.987688
v 2.647928 6.135760 8.149481
vt 0.397758 0.353548
vn -0.233444 0.000000 -0.972370
v 1.340468 6.135760 8.463373
vt 0.397758 0.302463
vn -0.233444 0.000000 -0.972370
v 0.000001 6.257203 8.568871
vt 0.402503 0.250089
vn -0.000000 0.000000 -1.000000
v 1.340468 6.135760 8.463373
vt 0.397758 0.302463
vn -0.078459 0.000000 -0.996917
v 0.000001 6.135760 8.568871
vt 0.397758 0.250089
vn -0.078459 0.000000 -0.996917
v -5.278312 3.695920 7.264975
vt 0.529798 0.043857
vn -0.587785 0.000000 0.809017
v -6.201113 -3.998159 6.476827
vt 0.830417 0.007802
vn -0.649449 0.000000 0.760405
v -6.201113 3.695920 6.476828
vt 0.529798 0.007802
vn -0.649449 0.000000 0.760405
v -5.278312 -3.998159 7.264974
vt 0.830417 0.043857
vn -0.587785 0.000000 0.809017
v -4.076835 3.695920 8.001241
vt 0.529798 0.090801
vn -0.453991 0.000000 0.891006
v -4.076835 -3.998159 8.001241
vt 0.830417 0.090801
vn -0.453991 0.000000 0.891006
v -2.774972 3.695920 8.540490
vt 0.529798 0.141667
vn -0.309017 0.000000 0.951056
v -2.774972 -3.998159 8.540490
vt 0.830417 0.141667
vn -0.309017 0.000000 0.951056
v -1.404781 3.695920 8.869444
vt 0.529798 0.195202
vn -0.156434 0.000000 0.987688
v -1.404781 -3.998159 8.869444
vt 0.830417 0.195202
vn -0.156434 0.000000 0.987688
v 0.000001 3.695920 8.980002
vt 0.529798 0.250089
vn -0.000000 0.000000 1.000000
v 0.000001 -3.998159 8.980002
vt 0.830417 0.250089
vn -0.000000 0.000000 1.000000
v 1.404783 3.695920 8.869444
vt 0.529798 0.304976
vn 0.156434 0.000000 0.987688
v 1.404783 -3.998159 8.869444
vt 0.830417 0.304976
vn 0.156434 0.000000 0.987688
v 2.774975 3.695920 8.540490
vt 0.529798 0.358512
vn 0.309017 0.000000 0.951056
v 2.774975 -3.998159 8.540490
vt 0.830417 0.358512
vn 0.309017 0.000000 0.951056
v 4.076838 3.695920 8.001241
vt 0.529798 0.409377
vn 0.453990 0.000000 0.891007
v 4.076838 -3.998159 8.001241
vt 0.830417 0.409377
vn 0.453990 0.000000 0.891007
v 5.278316 3.695920 7.264975
vt 0.529798 0.456321
vn 0.587785 0.000000 0.809017
v 5.278315 -3.998159 7.264975
vt 0.830417 0.456321
vn 0.587785 0.000000 0.809017
v 6.199661 3.695920 6.478071
vt 0.529798 0.492319
vn 0.649448 0.000000 0.760406
v 6.199661 -3.998159 6.478071
vt 0.830417 0.492319
vn 0.649448 0.000000 0.760406
v 6.349823 3.695920 6.349821
vt 0.529798 0.498186
vn 0.649448 0.000000 0.760406
v 6.349823 -3.998159 6.349821
vt 0.830417 0.498186
vn 0.649448 0.000000 0.760406
v -5.917207 6.257203 6.180299
vt 0.402503 0.018895
vn 0.649447 0.000000 -0.760406
v -5.036655 6.135760 6.932362
vt 0.397758 0.053299
vn 0.649448 0.000000 -0.760406
v -5.036655 6.257203 6.932362
vt 0.402503 0.053299
vn 0.587785 0.000000 -0.809017
v -5.917208 6.135760 6.180299
vt 0.397758 0.018895
vn 0.649448 0.000000 -0.760406
v -6.059105 6.257203 6.059107
vt 0.402503 0.013351
vn 0.649448 0.000000 -0.760406
v -6.059106 6.135760 6.059107
vt 0.397758 0.013351
vn 0.649448 0.000000 -0.760406
v -5.917208 3.695920 6.180299
vt 0.302430 0.018895
vn 0.649448 0.000000 -0.760406
v -6.059106 3.695920 6.059107
vt 0.302430 0.013351
vn 0.649448 0.000000 -0.760406
v -5.917208 -3.998159 6.180299
vt 0.001810 0.018895
vn 0.649448 0.000000 -0.760406
v -6.059106 -3.998159 6.059107
vt 0.001810 0.013351
vn 0.649448 0.000000 -0.760406
v -3.890185 6.135760 7.634920
vt 0.397758 0.098094
vn 0.522498 0.000000 -0.852640
v -3.890185 6.257203 7.634920
vt 0.402503 0.098094
vn 0.453991 0.000000 -0.891006
v -5.036655 6.135760 6.932362
vt 0.397758 0.053299
vn 0.522498 0.000000 -0.852640
v -2.647926 6.135760 8.149481
vt 0.397758 0.146631
vn 0.382685 0.000000 -0.923879
v -2.647926 6.257203 8.149481
vt 0.402503 0.146631
vn 0.309016 0.000000 -0.951057
v -3.890185 6.135760 7.634920
vt 0.397758 0.098094
vn 0.382685 0.000000 -0.923879
v -1.340466 6.135760 8.463373
vt 0.397758 0.197715
vn 0.233445 0.000000 -0.972370
v -1.340466 6.257203 8.463373
vt 0.402503 0.197715
vn 0.156434 0.000000 -0.987688
v -2.647926 6.135760 8.149481
vt 0.397758 0.146631
vn 0.233445 0.000000 -0.972370
v 0.000001 6.135760 8.568871
vt 0.397758 0.250089
vn 0.078459 0.000000 -0.996917
v 0.000001 6.257203 8.568871
vt 0.402503 0.250089
vn -0.000000 0.000000 -1.000000
v -1.340466 6.135760 8.463373
vt 0.397758 0.197715
vn 0.078459 0.000000 -0.996917
v -6.349819 -3.998159 6.349820
vt 0.830417 0.001992
vn -0.649448 0.000000 0.760406
v -6.349819 3.695920 6.349820
vt 0.529798 0.001992
vn -0.649448 0.000000 0.760406
v -6.059105 6.257203 6.059107
vt 0.853244 0.013108
vn -0.000000 1.000000 0.000000
v -6.349819 6.257203 6.349820
vt 0.864602 0.001749
vn -0.000000 1.000000 0.000000
# Faces (1 to 138)
g WallBody_0
f -136/-136/-136 -137/-137/-137 -138/-138/-138
f -137/-137/-137 -135/-135/-135 -138/-138/-138
f -137/-137/-137 -134/-134/-134 -135/-135/-135
f -134/-134/-134 -133/-133/-133 -135/-135/-135
f -136/-136/-136 -138/-138/-138 -132/-132/-132
f -131/-131/-131 -136/-136/-136 -132/-132/-132
f -128/-128/-128 -129/-129/-129 -130/-130/-130
f -129/-129/-129 -127/-127/-127 -130/-130/-130
f -128/-128/-128 -126/-126/-126 -129/-129/-129
f -126/-126/-126 -125/-125/-125 -129/-129/-129
f -124/-124/-124 -125/-125/-125 -126/-126/-126
f -123/-123/-123 -124/-124/-124 -126/-126/-126
f -122/-122/-122 -124/-124/-124 -123/-123/-123
f -121/-121/-121 -122/-122/-122 -123/-123/-123
f -120/-120/-120 -122/-122/-122 -121/-121/-121
f -119/-119/-119 -120/-120/-120 -121/-121/-121
f -118/-118/-118 -120/-120/-120 -119/-119/-119
f -117/-117/-117 -118/-118/-118 -119/-119/-119
f -116/-116/-116 -118/-118/-118 -117/-117/-117
f -115/-115/-115 -116/-116/-116 -117/-117/-117
f -114/-114/-114 -116/-116/-116 -115/-115/-115
f -113/-113/-113 -114/-114/-114 -115/-115/-115
f -112/-112/-112 -114/-114/-114 -113/-113/-113
f -111/-111/-111 -112/-112/-112 -113/-113/-113
f -110/-110/-110 -112/-112/-112 -111/-111/-111
f -109/-109/-109 -110/-110/-110 -111/-111/-111
f -108/-108/-108 -110/-110/-110 -109/-109/-109
f -107/-107/-107 -108/-108/-108 -109/-109/-109
f -107/-107/-107 -106/-106/-106 -108/-108/-108
f -106/-106/-106 -105/-105/-105 -108/-108/-108
f -102/-102/-102 -103/-103/-103 -104/-104/-104
f -103/-103/-103 -101/-101/-101 -104/-104/-104
f -102/-102/-102 -100/-100/-100 -103/-103/-103
f -100/-100/-100 -99/-99/-99 -103/-103/-103
f -104/-104/-104 -101/-101/-101 -98/-98/-98
f -101/-101/-101 -97/-97/-97 -98/-98/-98
f -94/-94/-94 -95/-95/-95 -96/-96/-96
f -95/-95/-95 -93/-93/-93 -96/-96/-96
f -96/-96/-96 -93/-93/-93 -92/-92/-92
f -93/-93/-93 -91/-91/-91 -92/-92/-92
f -92/-92/-92 -91/-91/-91 -90/-90/-90
f -91/-91/-91 -89/-89/-89 -90/-90/-90
f -90/-90/-90 -89/-89/-89 -88/-88/-88
f -89/-89/-89 -87/-87/-87 -88/-88/-88
f -88/-88/-88 -87/-87/-87 -86/-86/-86
f -87/-87/-87 -85/-85/-85 -86/-86/-86
f -86/-86/-86 -85/-85/-85 -84/-84/-84
f -85/-85/-85 -83/-83/-83 -84/-84/-84
f -84/-84/-84 -83/-83/-83 -82/-82/-82
f -83/-83/-83 -81/-81/-81 -82/-82/-82
f -82/-82/-82 -81/-81/-81 -80/-80/-80
f -81/-81/-81 -79/-79/-79 -80/-80/-80
f -80/-80/-80 -79/-79/-79 -78/-78/-78
f -79/-79/-79 -77/-77/-77 -78/-78/-78
f -78/-78/-78 -77/-77/-77 -76/-76/-76
f -75/-75/-75 -78/-78/-78 -76/-76/-76
f -75/-75/-75 -76/-76/-76 -74/-74/-74
f -76/-76/-76 -73/-73/-73 -74/-74/-74
f -70/-70/-70 -71/-71/-71 -72/-72/-72
f -71/-71/-71 -69/-69/-69 -72/-72/-72
f -71/-71/-71 -68/-68/-68 -69/-69/-69
f -68/-68/-68 -67/-67/-67 -69/-69/-69
f -70/-70/-70 -72/-72/-72 -66/-66/-66
f -65/-65/-65 -70/-70/-70 -66/-66/-66
f -66/-66/-66 -72/-72/-72 -64/-64/-64
f -72/-72/-72 -63/-63/-63 -64/-64/-64
f -64/-64/-64 -61/-61/-61 -62/-62/-62
f -61/-61/-61 -60/-60/-60 -62/-62/-62
f -62/-62/-62 -58/-58/-58 -59/-59/-59
f -58/-58/-58 -57/-57/-57 -59/-59/-59
f -59/-59/-59 -55/-55/-55 -56/-56/-56
f -55/-55/-55 -54/-54/-54 -56/-56/-56
f -56/-56/-56 -52/-52/-52 -53/-53/-53
f -52/-52/-52 -51/-51/-51 -53/-53/-53
f -48/-48/-48 -49/-49/-49 -50/-50/-50
f -49/-49/-49 -47/-47/-47 -50/-50/-50
f -50/-50/-50 -47/-47/-47 -46/-46/-46
f -47/-47/-47 -45/-45/-45 -46/-46/-46
f -46/-46/-46 -45/-45/-45 -44/-44/-44
f -45/-45/-45 -43/-43/-43 -44/-44/-44
f -44/-44/-44 -43/-43/-43 -42/-42/-42
f -43/-43/-43 -41/-41/-41 -42/-42/-42
f -42/-42/-42 -41/-41/-41 -40/-40/-40
f -41/-41/-41 -39/-39/-39 -40/-40/-40
f -40/-40/-40 -39/-39/-39 -38/-38/-38
f -39/-39/-39 -37/-37/-37 -38/-38/-38
f -38/-38/-38 -37/-37/-37 -36/-36/-36
f -37/-37/-37 -35/-35/-35 -36/-36/-36
f -36/-36/-36 -35/-35/-35 -34/-34/-34
f -35/-35/-35 -33/-33/-33 -34/-34/-34
f -34/-34/-34 -33/-33/-33 -32/-32/-32
f -33/-33/-33 -31/-31/-31 -32/-32/-32
f -32/-32/-32 -31/-31/-31 -30/-30/-30
f -31/-31/-31 -29/-29/-29 -30/-30/-30
f -30/-30/-30 -29/-29/-29 -28/-28/-28
f -29/-29/-29 -27/-27/-27 -28/-28/-28
f -24/-24/-24 -25/-25/-25 -26/-26/-26
f -25/-25/-25 -23/-23/-23 -26/-26/-26
f -26/-26/-26 -23/-23/-23 -22/-22/-22
f -23/-23/-23 -21/-21/-21 -22/-22/-22
f -23/-23/-23 -20/-20/-20 -21/-21/-21
f -20/-20/-20 -19/-19/-19 -21/-21/-21
f -20/-20/-20 -18/-18/-18 -19/-19/-19
f -18/-18/-18 -17/-17/-17 -19/-19/-19
f -15/-15/-15 -16/-16/-16 -24/-24/-24
f -16/-16/-16 -14/-14/-14 -24/-24/-24
f -12/-12/-12 -13/-13/-13 -15/-15/-15
f -13/-13/-13 -11/-11/-11 -15/-15/-15
f -9/-9/-9 -10/-10/-10 -12/-12/-12
f -10/-10/-10 -8/-8/-8 -12/-12/-12
f -6/-6/-6 -7/-7/-7 -9/-9/-9
f -7/-7/-7 -5/-5/-5 -9/-9/-9
f -3/-3/-3 -4/-4/-4 -48/-48/-48
f -4/-4/-4 -49/-49/-49 -48/-48/-48
f -94/-94/-94 -2/-2/-2 -95/-95/-95
f -2/-2/-2 -1/-1/-1 -95/-95/-95

