# Mesh "Building_B" exported with Unity Assets Bundle Extractor; 14 vertices, 36 indices, 256 bits per vertex
g Building_B
# SubMesh 0
# Vertices
v -25.000193 0.000004 0.000000
vt 1.000000 0.000999
vn -0.995184 -0.098027 0.000000
v -25.000193 20.331564 125.121025
vt 0.488935 2.500919
vn -1.000000 0.000000 0.000000
v -25.000193 0.000004 150.451035
vt 1.000000 3.007014
vn -0.990580 -0.136939 0.000000
v -25.000193 20.331564 0.000000
vt 0.488936 0.000999
vn -1.000000 0.000000 0.000000
v -23.096989 -9.567080 0.000000
vt 1.250000 0.000999
vn -0.923876 -0.382692 0.000000
v -23.096989 -9.567080 150.451035
vt 1.250000 3.007014
vn -0.923876 -0.382692 0.000000
v -17.677675 -17.677664 0.000000
vt 1.500000 0.000999
vn -0.707107 -0.707107 0.000000
v -17.677675 -17.677664 150.451035
vt 1.500000 3.007014
vn -0.707107 -0.707107 0.000000
v -9.567089 -23.096987 0.000000
vt 1.750000 0.000999
vn -0.382680 -0.923881 0.000000
v -9.567089 -23.096987 150.451035
vt 1.750000 3.007014
vn -0.382680 -0.923881 0.000000
v 0.000000 -24.999931 0.000000
vt 2.000000 0.000999
vn -0.098014 -0.995185 0.000000
v -0.000000 -24.999931 150.451035
vt 2.000000 3.007014
vn -0.138054 -0.990425 0.000000
v 19.570034 -24.999931 0.000000
vt 2.511389 0.000999
vn -0.000000 -1.000000 0.000000
v 19.570034 -24.999931 125.121025
vt 2.511389 2.500919
vn -0.000000 -1.000000 0.000000
# Faces (1 to 14)
g Building_B_0
f -12/-12/-12 -13/-13/-13 -14/-14/-14
f -11/-11/-11 -14/-14/-14 -13/-13/-13
f -14/-14/-14 -10/-10/-10 -12/-12/-12
f -9/-9/-9 -12/-12/-12 -10/-10/-10
f -10/-10/-10 -8/-8/-8 -9/-9/-9
f -7/-7/-7 -9/-9/-9 -8/-8/-8
f -8/-8/-8 -6/-6/-6 -7/-7/-7
f -5/-5/-5 -7/-7/-7 -6/-6/-6
f -6/-6/-6 -4/-4/-4 -5/-5/-5
f -3/-3/-3 -5/-5/-5 -4/-4/-4
f -4/-4/-4 -2/-2/-2 -3/-3/-3
f -1/-1/-1 -3/-3/-3 -2/-2/-2

