# Mesh "Container_B_PHYS" exported with Unity Assets Bundle Extractor; 192 vertices, 288 indices, 256 bits per vertex
g Container_B_PHYS
# SubMesh 0
# Vertices
v -1.368881 2.770008 3.957115
vt 0.011648 0.955022
vn -0.173648 0.000000 0.984808
v -0.027195 0.129992 4.193691
vt 0.246542 0.044869
vn -0.173648 0.000000 0.984808
v -1.368881 0.129992 3.957115
vt 0.011648 0.044869
vn -0.173648 0.000000 0.984808
v -0.027195 2.770008 4.193691
vt 0.246542 0.955022
vn -0.173648 0.000000 0.984808
v -1.355857 2.770008 3.883255
vt 0.011648 0.952809
vn 0.173648 0.000000 -0.984808
v -0.014171 0.129992 4.119830
vt 0.246542 0.044825
vn 0.173648 0.000000 -0.984808
v -0.014171 2.770008 4.119830
vt 0.246542 0.952809
vn 0.173648 0.000000 -0.984808
v -1.355857 0.129992 3.883255
vt 0.011648 0.044825
vn 0.173648 0.000000 -0.984808
v -1.355857 2.770008 3.883255
vt 0.011648 0.952809
vn -0.000000 1.000000 0.000000
v -0.027195 2.770008 4.193691
vt 0.246542 0.991548
vn -0.000000 1.000000 0.000000
v -1.368881 2.770008 3.957115
vt 0.011648 0.991548
vn -0.000000 1.000000 0.000000
v -0.014171 2.770008 4.119830
vt 0.246542 0.952809
vn -0.000000 1.000000 0.000000
v -0.014171 2.770008 4.119830
vt 0.506977 0.952727
vn 0.984808 0.000000 0.173648
v -0.027195 0.129992 4.193691
vt 0.491203 0.044458
vn 0.984808 0.000000 0.173648
v -0.027195 2.770008 4.193691
vt 0.491203 0.952727
vn 0.984808 0.000000 0.173648
v -0.014171 0.129992 4.119830
vt 0.506977 0.044458
vn 0.984808 0.000000 0.173648
v -0.014171 0.129992 4.119830
vt 0.246542 0.044825
vn -0.000000 -1.000000 0.000000
v -1.368881 0.129992 3.957115
vt 0.011648 0.008127
vn -0.000000 -1.000000 0.000000
v -0.027195 0.129992 4.193691
vt 0.246542 0.008127
vn -0.000000 -1.000000 0.000000
v -1.355857 0.129992 3.883255
vt 0.011648 0.044825
vn -0.000000 -1.000000 0.000000
v -1.355857 0.129992 3.883255
vt 0.491045 0.044458
vn -0.984808 0.000000 -0.173649
v -1.368881 2.770008 3.957115
vt 0.506820 0.952727
vn -0.984808 0.000000 -0.173649
v -1.368881 0.129992 3.957115
vt 0.506819 0.044458
vn -0.984808 0.000000 -0.173649
v -1.355857 2.770008 3.883255
vt 0.491045 0.952727
vn -0.984808 0.000000 -0.173649
v 1.429835 2.770008 3.929650
vt 0.491023 0.952645
vn 0.965926 0.000000 0.258820
v 1.062831 0.129992 5.299324
vt 0.246542 0.046526
vn 0.965926 0.000000 0.258820
v 1.062831 2.770008 5.299324
vt 0.246542 0.952645
vn 0.965926 0.000000 0.258820
v 1.429835 0.129992 3.929650
vt 0.491023 0.046526
vn 0.965926 0.000000 0.258820
v 1.357391 2.770008 3.910238
vt 0.491023 0.952809
vn -0.965926 0.000000 -0.258819
v 0.990387 0.129992 5.279912
vt 0.246542 0.044352
vn -0.965926 0.000000 -0.258819
v 1.357391 0.129992 3.910238
vt 0.491023 0.044352
vn -0.965926 0.000000 -0.258819
v 0.990387 2.770008 5.279912
vt 0.246542 0.952809
vn -0.965926 0.000000 -0.258819
v 1.357391 2.770008 3.910238
vt 0.506925 0.952727
vn 0.258821 0.000000 -0.965925
v 1.429835 0.129992 3.929650
vt 0.491150 0.044458
vn 0.258821 0.000000 -0.965925
v 1.429835 2.770008 3.929650
vt 0.491150 0.952727
vn 0.258821 0.000000 -0.965925
v 1.357391 0.129992 3.910238
vt 0.506925 0.044458
vn 0.258821 0.000000 -0.965925
v 1.357391 0.129992 3.910238
vt 0.491023 0.044352
vn -0.000000 -1.000000 0.000000
v 1.062831 0.129992 5.299324
vt 0.246542 0.008127
vn -0.000000 -1.000000 0.000000
v 1.429835 0.129992 3.929650
vt 0.491023 0.008127
vn -0.000000 -1.000000 0.000000
v 0.990387 0.129992 5.279912
vt 0.246542 0.044352
vn -0.000000 -1.000000 0.000000
v 0.990387 0.129992 5.279912
vt 0.491318 0.044458
vn -0.258822 0.000000 0.965925
v 1.062831 2.770008 5.299324
vt 0.507093 0.952727
vn -0.258822 0.000000 0.965925
v 1.062831 0.129992 5.299324
vt 0.507093 0.044458
vn -0.258822 0.000000 0.965925
v 0.990387 2.770008 5.279912
vt 0.491318 0.952727
vn -0.258822 0.000000 0.965925
v 0.990387 2.770008 5.279912
vt 0.246542 0.952809
vn -0.000000 1.000000 0.000000
v 1.429835 2.770008 3.929650
vt 0.491023 0.995150
vn -0.000000 1.000000 0.000000
v 1.062831 2.770008 5.299324
vt 0.246542 0.995150
vn -0.000000 1.000000 0.000000
v 1.357391 2.770008 3.910238
vt 0.491023 0.952809
vn -0.000000 1.000000 0.000000
v -1.417280 2.770008 -3.933217
vt 0.491023 0.952645
vn -0.965926 0.000000 -0.258819
v -1.050277 0.129992 -5.302892
vt 0.246542 0.046526
vn -0.965926 0.000000 -0.258819
v -1.050277 2.770008 -5.302892
vt 0.246542 0.952645
vn -0.965926 0.000000 -0.258819
v -1.417280 0.129992 -3.933217
vt 0.491023 0.046526
vn -0.965926 0.000000 -0.258819
v -1.344836 2.770008 -3.913806
vt 0.491023 0.952809
vn 0.965926 0.000000 0.258819
v -0.977833 0.129992 -5.283480
vt 0.246542 0.044352
vn 0.965926 0.000000 0.258819
v -1.344836 0.129992 -3.913806
vt 0.491023 0.044352
vn 0.965926 0.000000 0.258819
v -0.977833 2.770008 -5.283480
vt 0.246542 0.952809
vn 0.965926 0.000000 0.258819
v -1.344836 2.770008 -3.913806
vt 0.506925 0.952727
vn -0.258818 0.000000 0.965926
v -1.417280 0.129992 -3.933217
vt 0.491150 0.044458
vn -0.258818 0.000000 0.965926
v -1.417280 2.770008 -3.933217
vt 0.491150 0.952727
vn -0.258818 0.000000 0.965926
v -1.344836 0.129992 -3.913806
vt 0.506925 0.044458
vn -0.258818 0.000000 0.965926
v -1.344836 0.129992 -3.913806
vt 0.491023 0.044352
vn -0.000000 -1.000000 0.000000
v -1.050277 0.129992 -5.302892
vt 0.246542 0.008127
vn -0.000000 -1.000000 0.000000
v -1.417280 0.129992 -3.933217
vt 0.491023 0.008127
vn -0.000000 -1.000000 0.000000
v -0.977833 0.129992 -5.283480
vt 0.246542 0.044352
vn -0.000000 -1.000000 0.000000
v -0.977833 0.129992 -5.283480
vt 0.491318 0.044458
vn 0.258822 0.000000 -0.965925
v -1.050277 2.770008 -5.302892
vt 0.507093 0.952727
vn 0.258822 0.000000 -0.965925
v -1.050277 0.129992 -5.302892
vt 0.507093 0.044458
vn 0.258822 0.000000 -0.965925
v -0.977833 2.770008 -5.283480
vt 0.491318 0.952727
vn 0.258822 0.000000 -0.965925
v -0.977833 2.770008 -5.283480
vt 0.246542 0.952809
vn -0.000000 1.000000 0.000000
v -1.417280 2.770008 -3.933217
vt 0.491023 0.995150
vn -0.000000 1.000000 0.000000
v -1.050277 2.770008 -5.302892
vt 0.246542 0.995150
vn -0.000000 1.000000 0.000000
v -1.344836 2.770008 -3.913806
vt 0.491023 0.952809
vn -0.000000 1.000000 0.000000
v 1.393452 2.770008 -3.961192
vt 0.011648 0.955022
vn 0.087156 0.000000 -0.996195
v 0.036253 0.129992 -4.079932
vt 0.246542 0.044869
vn 0.087156 0.000000 -0.996195
v 1.393452 0.129992 -3.961192
vt 0.011648 0.044869
vn 0.087156 0.000000 -0.996195
v 0.036253 2.770008 -4.079932
vt 0.246542 0.955022
vn 0.087156 0.000000 -0.996195
v 1.386916 2.770008 -3.886478
vt 0.011648 0.952809
vn -0.087156 0.000000 0.996195
v 0.029716 0.129992 -4.005218
vt 0.246542 0.044825
vn -0.087156 0.000000 0.996195
v 0.029716 2.770008 -4.005218
vt 0.246542 0.952809
vn -0.087156 0.000000 0.996195
v 1.386916 0.129992 -3.886478
vt 0.011648 0.044825
vn -0.087156 0.000000 0.996195
v 1.386916 2.770008 -3.886478
vt 0.011648 0.952809
vn -0.000000 1.000000 0.000000
v 0.036253 2.770008 -4.079932
vt 0.246542 0.991548
vn -0.000000 1.000000 0.000000
v 1.393452 2.770008 -3.961192
vt 0.011648 0.991548
vn -0.000000 1.000000 0.000000
v 0.029716 2.770008 -4.005218
vt 0.246542 0.952809
vn -0.000000 1.000000 0.000000
v 0.029716 2.770008 -4.005218
vt 0.506977 0.952727
vn -0.996195 0.000000 -0.087155
v 0.036253 0.129992 -4.079932
vt 0.491203 0.044458
vn -0.996195 0.000000 -0.087155
v 0.036253 2.770008 -4.079932
vt 0.491203 0.952727
vn -0.996195 0.000000 -0.087155
v 0.029716 0.129992 -4.005218
vt 0.506977 0.044458
vn -0.996195 0.000000 -0.087155
v 0.029716 0.129992 -4.005218
vt 0.246542 0.044825
vn -0.000000 -1.000000 0.000000
v 1.393452 0.129992 -3.961192
vt 0.011648 0.008127
vn -0.000000 -1.000000 0.000000
v 0.036253 0.129992 -4.079932
vt 0.246542 0.008127
vn -0.000000 -1.000000 0.000000
v 1.386916 0.129992 -3.886478
vt 0.011648 0.044825
vn -0.000000 -1.000000 0.000000
v 1.386916 0.129992 -3.886478
vt 0.491045 0.044458
vn 0.996195 0.000000 0.087155
v 1.393452 2.770008 -3.961192
vt 0.506820 0.952727
vn 0.996195 0.000000 0.087155
v 1.393452 0.129992 -3.961192
vt 0.506819 0.044458
vn 0.996195 0.000000 0.087155
v 1.386916 2.770008 -3.886478
vt 0.491045 0.952727
vn 0.996195 0.000000 0.087155
v 1.449999 0.150000 4.000431
vt 1.000000 0.000000
vn 1.000000 0.000000 0.000000
v 1.450001 2.750000 -3.999569
vt 0.000000 1.000000
vn 1.000000 0.000000 0.000000
v 1.450001 0.150000 -3.999569
vt 0.000000 0.000000
vn 1.000000 0.000000 0.000000
v 1.449999 2.750000 4.000431
vt 1.000000 1.000000
vn 1.000000 0.000000 0.000000
v 1.349999 0.150000 4.000431
vt 0.000000 0.000000
vn -1.000000 0.000000 0.000000
v 1.350001 2.750000 -3.999569
vt 1.000000 1.000000
vn -1.000000 0.000000 0.000000
v 1.349999 2.750000 4.000431
vt 0.000000 1.000000
vn -1.000000 0.000000 0.000000
v 1.350001 0.150000 -3.999569
vt 1.000000 0.000000
vn -1.000000 0.000000 0.000000
v 1.449999 0.150000 4.000431
vt 0.000000 0.000000
vn -0.000000 -1.000000 0.000000
v 1.350001 0.150000 -3.999569
vt 1.000000 1.000000
vn -0.000000 -1.000000 0.000000
v 1.349999 0.150000 4.000431
vt 0.000000 1.000000
vn -0.000000 -1.000000 0.000000
v 1.450001 0.150000 -3.999569
vt 1.000000 0.000000
vn -0.000000 -1.000000 0.000000
v 1.450001 0.150000 -3.999569
vt 0.000000 0.000000
vn -0.000000 0.000000 -1.000000
v 1.350001 2.750000 -3.999569
vt 1.000000 1.000000
vn -0.000000 0.000000 -1.000000
v 1.350001 0.150000 -3.999569
vt 0.000000 1.000000
vn -0.000000 0.000000 -1.000000
v 1.450001 2.750000 -3.999569
vt 1.000000 0.000000
vn -0.000000 0.000000 -1.000000
v 1.450001 2.750000 -3.999569
vt 0.000000 0.000000
vn -0.000000 1.000000 0.000000
v 1.349999 2.750000 4.000431
vt 1.000000 1.000000
vn -0.000000 1.000000 0.000000
v 1.350001 2.750000 -3.999569
vt 0.000000 1.000000
vn -0.000000 1.000000 0.000000
v 1.449999 2.750000 4.000431
vt 1.000000 0.000000
vn -0.000000 1.000000 0.000000
v 1.449999 2.750000 4.000431
vt 0.000000 0.000000
vn -0.000000 0.000000 1.000000
v 1.349999 0.150000 4.000431
vt 1.000000 1.000000
vn -0.000000 0.000000 1.000000
v 1.349999 2.750000 4.000431
vt 0.000000 1.000000
vn -0.000000 0.000000 1.000000
v 1.449999 0.150000 4.000431
vt 1.000000 0.000000
vn -0.000000 0.000000 1.000000
v -1.450000 2.750806 4.000000
vt 1.000000 0.000000
vn -0.000000 -1.000000 0.000000
v 1.450000 2.750806 -4.000000
vt 0.000000 1.000000
vn -0.000000 -1.000000 0.000000
v -1.450000 2.750806 -4.000000
vt 1.000000 1.000000
vn -0.000000 -1.000000 0.000000
v 1.450000 2.750806 4.000000
vt 0.000000 0.000000
vn -0.000000 -1.000000 0.000000
v -1.450000 2.900806 4.000000
vt 0.000000 0.000000
vn -0.000000 1.000000 0.000000
v 1.450000 2.900806 -4.000000
vt 1.000000 1.000000
vn -0.000000 1.000000 0.000000
v 1.450000 2.900806 4.000000
vt 1.000000 0.000000
vn -0.000000 1.000000 0.000000
v -1.450000 2.900806 -4.000000
vt 0.000000 1.000000
vn -0.000000 1.000000 0.000000
v -1.450000 2.750806 4.000000
vt 0.000000 0.000000
vn -0.000000 0.000000 1.000000
v 1.450000 2.900806 4.000000
vt 1.000000 1.000000
vn -0.000000 0.000000 1.000000
v 1.450000 2.750806 4.000000
vt 1.000000 0.000000
vn -0.000000 0.000000 1.000000
v -1.450000 2.900806 4.000000
vt 0.000000 1.000000
vn -0.000000 0.000000 1.000000
v 1.450000 2.750806 4.000000
vt 0.000000 0.000000
vn 1.000000 0.000000 0.000000
v 1.450000 2.900806 -4.000000
vt 1.000000 1.000000
vn 1.000000 0.000000 0.000000
v 1.450000 2.750806 -4.000000
vt 1.000000 0.000000
vn 1.000000 0.000000 0.000000
v 1.450000 2.900806 4.000000
vt 0.000000 1.000000
vn 1.000000 0.000000 0.000000
v 1.450000 2.750806 -4.000000
vt 0.000000 0.000000
vn -0.000000 0.000000 -1.000000
v -1.450000 2.900806 -4.000000
vt 1.000000 1.000000
vn -0.000000 0.000000 -1.000000
v -1.450000 2.750806 -4.000000
vt 1.000000 0.000000
vn -0.000000 0.000000 -1.000000
v 1.450000 2.900806 -4.000000
vt 0.000000 1.000000
vn -0.000000 0.000000 -1.000000
v -1.450000 2.750806 -4.000000
vt 0.000000 0.000000
vn -1.000000 0.000000 0.000000
v -1.450000 2.900806 4.000000
vt 1.000000 1.000000
vn -1.000000 0.000000 0.000000
v -1.450000 2.750806 4.000000
vt 1.000000 0.000000
vn -1.000000 0.000000 0.000000
v -1.450000 2.900806 -4.000000
vt 0.000000 1.000000
vn -1.000000 0.000000 0.000000
v -1.450021 0.150000 -3.999569
vt 1.000000 0.000000
vn -1.000000 0.000000 0.000000
v -1.450022 2.750000 4.000431
vt 0.000000 1.000000
vn -1.000000 0.000000 0.000000
v -1.450022 0.150000 4.000431
vt 0.000000 0.000000
vn -1.000000 0.000000 0.000000
v -1.450021 2.750000 -3.999569
vt 1.000000 1.000000
vn -1.000000 0.000000 0.000000
v -1.350021 0.150000 -3.999569
vt 0.000000 0.000000
vn 1.000000 0.000000 0.000000
v -1.350022 2.750000 4.000431
vt 1.000000 1.000000
vn 1.000000 0.000000 0.000000
v -1.350021 2.750000 -3.999569
vt 0.000000 1.000000
vn 1.000000 0.000000 0.000000
v -1.350022 0.150000 4.000431
vt 1.000000 0.000000
vn 1.000000 0.000000 0.000000
v -1.450021 0.150000 -3.999569
vt 0.000000 0.000000
vn -0.000000 -1.000000 0.000000
v -1.350022 0.150000 4.000431
vt 1.000000 1.000000
vn -0.000000 -1.000000 0.000000
v -1.350021 0.150000 -3.999569
vt 0.000000 1.000000
vn -0.000000 -1.000000 0.000000
v -1.450022 0.150000 4.000431
vt 1.000000 0.000000
vn -0.000000 -1.000000 0.000000
v -1.450022 0.150000 4.000431
vt 0.000000 0.000000
vn -0.000000 0.000000 1.000000
v -1.350022 2.750000 4.000431
vt 1.000000 1.000000
vn -0.000000 0.000000 1.000000
v -1.350022 0.150000 4.000431
vt 0.000000 1.000000
vn -0.000000 0.000000 1.000000
v -1.450022 2.750000 4.000431
vt 1.000000 0.000000
vn -0.000000 0.000000 1.000000
v -1.450022 2.750000 4.000431
vt 0.000000 0.000000
vn -0.000000 1.000000 0.000000
v -1.350021 2.750000 -3.999569
vt 1.000000 1.000000
vn -0.000000 1.000000 0.000000
v -1.350022 2.750000 4.000431
vt 0.000000 1.000000
vn -0.000000 1.000000 0.000000
v -1.450021 2.750000 -3.999569
vt 1.000000 0.000000
vn -0.000000 1.000000 0.000000
v -1.450021 2.750000 -3.999569
vt 0.000000 0.000000
vn -0.000000 0.000000 -1.000000
v -1.350021 0.150000 -3.999569
vt 1.000000 1.000000
vn -0.000000 0.000000 -1.000000
v -1.350021 2.750000 -3.999569
vt 0.000000 1.000000
vn -0.000000 0.000000 -1.000000
v -1.450021 0.150000 -3.999569
vt 1.000000 0.000000
vn -0.000000 0.000000 -1.000000
v -1.450000 0.000000 4.000000
vt 1.000000 0.000000
vn -0.000000 -1.000000 0.000000
v 1.450000 -0.000000 -4.000000
vt 0.000000 1.000000
vn -0.000000 -1.000000 0.000000
v -1.450000 -0.000000 -4.000000
vt 1.000000 1.000000
vn -0.000000 -1.000000 0.000000
v 1.450000 0.000000 4.000000
vt 0.000000 0.000000
vn -0.000000 -1.000000 0.000000
v -1.450000 0.150000 4.000000
vt 0.000000 0.000000
vn -0.000000 1.000000 0.000000
v 1.450000 0.150000 -4.000000
vt 1.000000 1.000000
vn -0.000000 1.000000 0.000000
v 1.450000 0.150000 4.000000
vt 1.000000 0.000000
vn -0.000000 1.000000 0.000000
v -1.450000 0.150000 -4.000000
vt 0.000000 1.000000
vn -0.000000 1.000000 0.000000
v -1.450000 0.000000 4.000000
vt 0.000000 0.000000
vn -0.000000 0.000000 1.000000
v 1.450000 0.150000 4.000000
vt 1.000000 1.000000
vn -0.000000 0.000000 1.000000
v 1.450000 0.000000 4.000000
vt 1.000000 0.000000
vn -0.000000 0.000000 1.000000
v -1.450000 0.150000 4.000000
vt 0.000000 1.000000
vn -0.000000 0.000000 1.000000
v 1.450000 0.000000 4.000000
vt 0.000000 0.000000
vn 1.000000 0.000000 0.000000
v 1.450000 0.150000 -4.000000
vt 1.000000 1.000000
vn 1.000000 0.000000 0.000000
v 1.450000 -0.000000 -4.000000
vt 1.000000 0.000000
vn 1.000000 0.000000 0.000000
v 1.450000 0.150000 4.000000
vt 0.000000 1.000000
vn 1.000000 0.000000 0.000000
v 1.450000 -0.000000 -4.000000
vt 0.000000 0.000000
vn -0.000000 0.000000 -1.000000
v -1.450000 0.150000 -4.000000
vt 1.000000 1.000000
vn -0.000000 0.000000 -1.000000
v -1.450000 -0.000000 -4.000000
vt 1.000000 0.000000
vn -0.000000 0.000000 -1.000000
v 1.450000 0.150000 -4.000000
vt 0.000000 1.000000
vn -0.000000 0.000000 -1.000000
v -1.450000 -0.000000 -4.000000
vt 0.000000 0.000000
vn -1.000000 0.000000 0.000000
v -1.450000 0.150000 4.000000
vt 1.000000 1.000000
vn -1.000000 0.000000 0.000000
v -1.450000 0.000000 4.000000
vt 1.000000 0.000000
vn -1.000000 0.000000 0.000000
v -1.450000 0.150000 -4.000000
vt 0.000000 1.000000
vn -1.000000 0.000000 0.000000
# Faces (1 to 192)
g Container_B_PHYS_0
f -190/-190/-190 -191/-191/-191 -192/-192/-192
f -189/-189/-189 -192/-192/-192 -191/-191/-191
f -186/-186/-186 -187/-187/-187 -188/-188/-188
f -185/-185/-185 -188/-188/-188 -187/-187/-187
f -182/-182/-182 -183/-183/-183 -184/-184/-184
f -181/-181/-181 -184/-184/-184 -183/-183/-183
f -178/-178/-178 -179/-179/-179 -180/-180/-180
f -177/-177/-177 -180/-180/-180 -179/-179/-179
f -174/-174/-174 -175/-175/-175 -176/-176/-176
f -173/-173/-173 -176/-176/-176 -175/-175/-175
f -170/-170/-170 -171/-171/-171 -172/-172/-172
f -169/-169/-169 -172/-172/-172 -171/-171/-171
f -166/-166/-166 -167/-167/-167 -168/-168/-168
f -165/-165/-165 -168/-168/-168 -167/-167/-167
f -162/-162/-162 -163/-163/-163 -164/-164/-164
f -161/-161/-161 -164/-164/-164 -163/-163/-163
f -158/-158/-158 -159/-159/-159 -160/-160/-160
f -157/-157/-157 -160/-160/-160 -159/-159/-159
f -154/-154/-154 -155/-155/-155 -156/-156/-156
f -153/-153/-153 -156/-156/-156 -155/-155/-155
f -150/-150/-150 -151/-151/-151 -152/-152/-152
f -149/-149/-149 -152/-152/-152 -151/-151/-151
f -146/-146/-146 -147/-147/-147 -148/-148/-148
f -145/-145/-145 -148/-148/-148 -147/-147/-147
f -142/-142/-142 -143/-143/-143 -144/-144/-144
f -141/-141/-141 -144/-144/-144 -143/-143/-143
f -138/-138/-138 -139/-139/-139 -140/-140/-140
f -137/-137/-137 -140/-140/-140 -139/-139/-139
f -134/-134/-134 -135/-135/-135 -136/-136/-136
f -133/-133/-133 -136/-136/-136 -135/-135/-135
f -130/-130/-130 -131/-131/-131 -132/-132/-132
f -129/-129/-129 -132/-132/-132 -131/-131/-131
f -126/-126/-126 -127/-127/-127 -128/-128/-128
f -125/-125/-125 -128/-128/-128 -127/-127/-127
f -122/-122/-122 -123/-123/-123 -124/-124/-124
f -121/-121/-121 -124/-124/-124 -123/-123/-123
f -118/-118/-118 -119/-119/-119 -120/-120/-120
f -117/-117/-117 -120/-120/-120 -119/-119/-119
f -114/-114/-114 -115/-115/-115 -116/-116/-116
f -113/-113/-113 -116/-116/-116 -115/-115/-115
f -110/-110/-110 -111/-111/-111 -112/-112/-112
f -109/-109/-109 -112/-112/-112 -111/-111/-111
f -106/-106/-106 -107/-107/-107 -108/-108/-108
f -105/-105/-105 -108/-108/-108 -107/-107/-107
f -102/-102/-102 -103/-103/-103 -104/-104/-104
f -101/-101/-101 -104/-104/-104 -103/-103/-103
f -98/-98/-98 -99/-99/-99 -100/-100/-100
f -97/-97/-97 -100/-100/-100 -99/-99/-99
f -94/-94/-94 -95/-95/-95 -96/-96/-96
f -93/-93/-93 -96/-96/-96 -95/-95/-95
f -90/-90/-90 -91/-91/-91 -92/-92/-92
f -89/-89/-89 -92/-92/-92 -91/-91/-91
f -86/-86/-86 -87/-87/-87 -88/-88/-88
f -85/-85/-85 -88/-88/-88 -87/-87/-87
f -82/-82/-82 -83/-83/-83 -84/-84/-84
f -81/-81/-81 -84/-84/-84 -83/-83/-83
f -78/-78/-78 -79/-79/-79 -80/-80/-80
f -77/-77/-77 -80/-80/-80 -79/-79/-79
f -74/-74/-74 -75/-75/-75 -76/-76/-76
f -73/-73/-73 -76/-76/-76 -75/-75/-75
f -70/-70/-70 -71/-71/-71 -72/-72/-72
f -69/-69/-69 -72/-72/-72 -71/-71/-71
f -66/-66/-66 -67/-67/-67 -68/-68/-68
f -65/-65/-65 -68/-68/-68 -67/-67/-67
f -62/-62/-62 -63/-63/-63 -64/-64/-64
f -61/-61/-61 -64/-64/-64 -63/-63/-63
f -58/-58/-58 -59/-59/-59 -60/-60/-60
f -57/-57/-57 -60/-60/-60 -59/-59/-59
f -54/-54/-54 -55/-55/-55 -56/-56/-56
f -53/-53/-53 -56/-56/-56 -55/-55/-55
f -50/-50/-50 -51/-51/-51 -52/-52/-52
f -49/-49/-49 -52/-52/-52 -51/-51/-51
f -46/-46/-46 -47/-47/-47 -48/-48/-48
f -45/-45/-45 -48/-48/-48 -47/-47/-47
f -42/-42/-42 -43/-43/-43 -44/-44/-44
f -41/-41/-41 -44/-44/-44 -43/-43/-43
f -38/-38/-38 -39/-39/-39 -40/-40/-40
f -37/-37/-37 -40/-40/-40 -39/-39/-39
f -34/-34/-34 -35/-35/-35 -36/-36/-36
f -33/-33/-33 -36/-36/-36 -35/-35/-35
f -30/-30/-30 -31/-31/-31 -32/-32/-32
f -29/-29/-29 -32/-32/-32 -31/-31/-31
f -26/-26/-26 -27/-27/-27 -28/-28/-28
f -25/-25/-25 -28/-28/-28 -27/-27/-27
f -22/-22/-22 -23/-23/-23 -24/-24/-24
f -21/-21/-21 -24/-24/-24 -23/-23/-23
f -18/-18/-18 -19/-19/-19 -20/-20/-20
f -17/-17/-17 -20/-20/-20 -19/-19/-19
f -14/-14/-14 -15/-15/-15 -16/-16/-16
f -13/-13/-13 -16/-16/-16 -15/-15/-15
f -10/-10/-10 -11/-11/-11 -12/-12/-12
f -9/-9/-9 -12/-12/-12 -11/-11/-11
f -6/-6/-6 -7/-7/-7 -8/-8/-8
f -5/-5/-5 -8/-8/-8 -7/-7/-7
f -2/-2/-2 -3/-3/-3 -4/-4/-4
f -1/-1/-1 -4/-4/-4 -3/-3/-3

