# Mesh "Container_C_PHYS" exported with Unity Assets Bundle Extractor; 156 vertices, 234 indices, 256 bits per vertex
g Container_C_PHYS
# SubMesh 0
# Vertices
v 1.449999 0.150000 4.000431
vt 1.000000 0.000000
vn 1.000000 0.000000 0.000000
v 1.450001 2.750000 -3.999569
vt 0.000000 1.000000
vn 1.000000 0.000000 0.000000
v 1.450001 0.150000 -3.999569
vt 0.000000 0.000000
vn 1.000000 0.000000 0.000000
v 1.449999 2.750000 4.000431
vt 1.000000 1.000000
vn 1.000000 0.000000 0.000000
v 1.349999 0.150000 4.000431
vt 0.000000 0.000000
vn -1.000000 0.000000 0.000000
v 1.350001 2.750000 -3.999569
vt 1.000000 1.000000
vn -1.000000 0.000000 0.000000
v 1.349999 2.750000 4.000431
vt 0.000000 1.000000
vn -1.000000 0.000000 0.000000
v 1.350001 0.150000 -3.999569
vt 1.000000 0.000000
vn -1.000000 0.000000 0.000000
v 1.449999 0.150000 4.000431
vt 0.000000 0.000000
vn -0.000000 -1.000000 0.000000
v 1.350001 0.150000 -3.999569
vt 1.000000 1.000000
vn -0.000000 -1.000000 0.000000
v 1.349999 0.150000 4.000431
vt 0.000000 1.000000
vn -0.000000 -1.000000 0.000000
v 1.450001 0.150000 -3.999569
vt 1.000000 0.000000
vn -0.000000 -1.000000 0.000000
v 1.450001 0.150000 -3.999569
vt 0.000000 0.000000
vn -0.000000 0.000000 -1.000000
v 1.350001 2.750000 -3.999569
vt 1.000000 1.000000
vn -0.000000 0.000000 -1.000000
v 1.350001 0.150000 -3.999569
vt 0.000000 1.000000
vn -0.000000 0.000000 -1.000000
v 1.450001 2.750000 -3.999569
vt 1.000000 0.000000
vn -0.000000 0.000000 -1.000000
v 1.450001 2.750000 -3.999569
vt 0.000000 0.000000
vn -0.000000 1.000000 0.000000
v 1.349999 2.750000 4.000431
vt 1.000000 1.000000
vn -0.000000 1.000000 0.000000
v 1.350001 2.750000 -3.999569
vt 0.000000 1.000000
vn -0.000000 1.000000 0.000000
v 1.449999 2.750000 4.000431
vt 1.000000 0.000000
vn -0.000000 1.000000 0.000000
v 1.449999 2.750000 4.000431
vt 0.000000 0.000000
vn -0.000000 0.000000 1.000000
v 1.349999 0.150000 4.000431
vt 1.000000 1.000000
vn -0.000000 0.000000 1.000000
v 1.349999 2.750000 4.000431
vt 0.000000 1.000000
vn -0.000000 0.000000 1.000000
v 1.449999 0.150000 4.000431
vt 1.000000 0.000000
vn -0.000000 0.000000 1.000000
v -1.450000 2.750806 4.000000
vt 1.000000 0.000000
vn -0.000000 -1.000000 0.000000
v 1.450000 2.750806 -4.000000
vt 0.000000 1.000000
vn -0.000000 -1.000000 0.000000
v -1.450000 2.750806 -4.000000
vt 1.000000 1.000000
vn -0.000000 -1.000000 0.000000
v 1.450000 2.750806 4.000000
vt 0.000000 0.000000
vn -0.000000 -1.000000 0.000000
v -1.450000 2.900806 4.000000
vt 0.000000 0.000000
vn -0.000000 1.000000 0.000000
v 1.450000 2.900806 -4.000000
vt 1.000000 1.000000
vn -0.000000 1.000000 0.000000
v 1.450000 2.900806 4.000000
vt 1.000000 0.000000
vn -0.000000 1.000000 0.000000
v -1.450000 2.900806 -4.000000
vt 0.000000 1.000000
vn -0.000000 1.000000 0.000000
v -1.450000 2.750806 4.000000
vt 0.000000 0.000000
vn -0.000000 0.000000 1.000000
v 1.450000 2.900806 4.000000
vt 1.000000 1.000000
vn -0.000000 0.000000 1.000000
v 1.450000 2.750806 4.000000
vt 1.000000 0.000000
vn -0.000000 0.000000 1.000000
v -1.450000 2.900806 4.000000
vt 0.000000 1.000000
vn -0.000000 0.000000 1.000000
v 1.450000 2.750806 4.000000
vt 0.000000 0.000000
vn 1.000000 0.000000 0.000000
v 1.450000 2.900806 -4.000000
vt 1.000000 1.000000
vn 1.000000 0.000000 0.000000
v 1.450000 2.750806 -4.000000
vt 1.000000 0.000000
vn 1.000000 0.000000 0.000000
v 1.450000 2.900806 4.000000
vt 0.000000 1.000000
vn 1.000000 0.000000 0.000000
v 1.450000 2.750806 -4.000000
vt 0.000000 0.000000
vn -0.000000 0.000000 -1.000000
v -1.450000 2.900806 -4.000000
vt 1.000000 1.000000
vn -0.000000 0.000000 -1.000000
v -1.450000 2.750806 -4.000000
vt 1.000000 0.000000
vn -0.000000 0.000000 -1.000000
v 1.450000 2.900806 -4.000000
vt 0.000000 1.000000
vn -0.000000 0.000000 -1.000000
v -1.450000 2.750806 -4.000000
vt 0.000000 0.000000
vn -1.000000 0.000000 0.000000
v -1.450000 2.900806 4.000000
vt 1.000000 1.000000
vn -1.000000 0.000000 0.000000
v -1.450000 2.750806 4.000000
vt 1.000000 0.000000
vn -1.000000 0.000000 0.000000
v -1.450000 2.900806 -4.000000
vt 0.000000 1.000000
vn -1.000000 0.000000 0.000000
v -1.450021 0.150000 -3.999569
vt 1.000000 0.000000
vn -1.000000 0.000000 0.000000
v -1.450022 2.750000 4.000431
vt 0.000000 1.000000
vn -1.000000 0.000000 0.000000
v -1.450022 0.150000 4.000431
vt 0.000000 0.000000
vn -1.000000 0.000000 0.000000
v -1.450021 2.750000 -3.999569
vt 1.000000 1.000000
vn -1.000000 0.000000 0.000000
v -1.350021 0.150000 -3.999569
vt 0.000000 0.000000
vn 1.000000 0.000000 0.000000
v -1.350022 2.750000 4.000431
vt 1.000000 1.000000
vn 1.000000 0.000000 0.000000
v -1.350021 2.750000 -3.999569
vt 0.000000 1.000000
vn 1.000000 0.000000 0.000000
v -1.350022 0.150000 4.000431
vt 1.000000 0.000000
vn 1.000000 0.000000 0.000000
v -1.450021 0.150000 -3.999569
vt 0.000000 0.000000
vn -0.000000 -1.000000 0.000000
v -1.350022 0.150000 4.000431
vt 1.000000 1.000000
vn -0.000000 -1.000000 0.000000
v -1.350021 0.150000 -3.999569
vt 0.000000 1.000000
vn -0.000000 -1.000000 0.000000
v -1.450022 0.150000 4.000431
vt 1.000000 0.000000
vn -0.000000 -1.000000 0.000000
v -1.450022 0.150000 4.000431
vt 0.000000 0.000000
vn -0.000000 0.000000 1.000000
v -1.350022 2.750000 4.000431
vt 1.000000 1.000000
vn -0.000000 0.000000 1.000000
v -1.350022 0.150000 4.000431
vt 0.000000 1.000000
vn -0.000000 0.000000 1.000000
v -1.450022 2.750000 4.000431
vt 1.000000 0.000000
vn -0.000000 0.000000 1.000000
v -1.450022 2.750000 4.000431
vt 0.000000 0.000000
vn -0.000000 1.000000 0.000000
v -1.350021 2.750000 -3.999569
vt 1.000000 1.000000
vn -0.000000 1.000000 0.000000
v -1.350022 2.750000 4.000431
vt 0.000000 1.000000
vn -0.000000 1.000000 0.000000
v -1.450021 2.750000 -3.999569
vt 1.000000 0.000000
vn -0.000000 1.000000 0.000000
v -1.450021 2.750000 -3.999569
vt 0.000000 0.000000
vn -0.000000 0.000000 -1.000000
v -1.350021 0.150000 -3.999569
vt 1.000000 1.000000
vn -0.000000 0.000000 -1.000000
v -1.350021 2.750000 -3.999569
vt 0.000000 1.000000
vn -0.000000 0.000000 -1.000000
v -1.450021 0.150000 -3.999569
vt 1.000000 0.000000
vn -0.000000 0.000000 -1.000000
v -1.450000 0.000000 4.000000
vt 1.000000 0.000000
vn -0.000000 -1.000000 0.000000
v 1.450000 -0.000000 -4.000000
vt 0.000000 1.000000
vn -0.000000 -1.000000 0.000000
v -1.450000 -0.000000 -4.000000
vt 1.000000 1.000000
vn -0.000000 -1.000000 0.000000
v 1.450000 0.000000 4.000000
vt 0.000000 0.000000
vn -0.000000 -1.000000 0.000000
v -1.450000 0.150000 4.000000
vt 0.000000 0.000000
vn -0.000000 1.000000 0.000000
v 1.450000 0.150000 -4.000000
vt 1.000000 1.000000
vn -0.000000 1.000000 0.000000
v 1.450000 0.150000 4.000000
vt 1.000000 0.000000
vn -0.000000 1.000000 0.000000
v -1.450000 0.150000 -4.000000
vt 0.000000 1.000000
vn -0.000000 1.000000 0.000000
v -1.450000 0.000000 4.000000
vt 0.000000 0.000000
vn -0.000000 0.000000 1.000000
v 1.450000 0.150000 4.000000
vt 1.000000 1.000000
vn -0.000000 0.000000 1.000000
v 1.450000 0.000000 4.000000
vt 1.000000 0.000000
vn -0.000000 0.000000 1.000000
v -1.450000 0.150000 4.000000
vt 0.000000 1.000000
vn -0.000000 0.000000 1.000000
v 1.450000 0.000000 4.000000
vt 0.000000 0.000000
vn 1.000000 0.000000 0.000000
v 1.450000 0.150000 -4.000000
vt 1.000000 1.000000
vn 1.000000 0.000000 0.000000
v 1.450000 -0.000000 -4.000000
vt 1.000000 0.000000
vn 1.000000 0.000000 0.000000
v 1.450000 0.150000 4.000000
vt 0.000000 1.000000
vn 1.000000 0.000000 0.000000
v 1.450000 -0.000000 -4.000000
vt 0.000000 0.000000
vn -0.000000 0.000000 -1.000000
v -1.450000 0.150000 -4.000000
vt 1.000000 1.000000
vn -0.000000 0.000000 -1.000000
v -1.450000 -0.000000 -4.000000
vt 1.000000 0.000000
vn -0.000000 0.000000 -1.000000
v 1.450000 0.150000 -4.000000
vt 0.000000 1.000000
vn -0.000000 0.000000 -1.000000
v -1.450000 -0.000000 -4.000000
vt 0.000000 0.000000
vn -1.000000 0.000000 0.000000
v -1.450000 0.150000 4.000000
vt 1.000000 1.000000
vn -1.000000 0.000000 0.000000
v -1.450000 0.000000 4.000000
vt 1.000000 0.000000
vn -1.000000 0.000000 0.000000
v -1.450000 0.150000 -4.000000
vt 0.000000 1.000000
vn -1.000000 0.000000 0.000000
v -1.362384 2.770008 3.990841
vt 0.011648 0.952645
vn -0.000000 0.000000 1.000000
v 1.417991 0.129993 3.990842
vt 0.491023 0.046526
vn -0.000000 0.000000 1.000000
v -1.362384 0.129993 3.990842
vt 0.011648 0.046526
vn -0.000000 0.000000 1.000000
v 1.417991 2.770008 3.990842
vt 0.491023 0.952645
vn -0.000000 0.000000 1.000000
v 1.417991 2.770008 3.915842
vt 0.491023 0.952809
vn -0.000000 0.000000 -1.000000
v -1.362384 0.129993 3.915842
vt 0.011648 0.044352
vn -0.000000 0.000000 -1.000000
v 1.417991 0.129993 3.915842
vt 0.491023 0.044352
vn -0.000000 0.000000 -1.000000
v -1.362384 2.770008 3.915842
vt 0.011648 0.952809
vn -0.000000 0.000000 -1.000000
v -1.390188 2.770007 -3.976180
vt 0.491023 0.952645
vn -0.000000 0.000000 -1.000000
v 0.027804 0.129992 -3.976180
vt 0.246542 0.046526
vn -0.000000 0.000000 -1.000000
v 0.027804 2.770007 -3.976180
vt 0.246542 0.952645
vn -0.000000 0.000000 -1.000000
v -1.390188 0.129992 -3.976180
vt 0.491023 0.046526
vn -0.000000 0.000000 -1.000000
v -1.390188 2.770007 -3.901180
vt 0.491023 0.952809
vn -0.000000 0.000000 1.000000
v 0.027804 0.129992 -3.901180
vt 0.246542 0.044352
vn -0.000000 0.000000 1.000000
v -1.390188 0.129992 -3.901180
vt 0.491023 0.044352
vn -0.000000 0.000000 1.000000
v 0.027804 2.770007 -3.901180
vt 0.246542 0.952809
vn -0.000000 0.000000 1.000000
v 0.027804 0.129992 -3.901180
vt 0.491318 0.044458
vn 1.000000 0.000000 0.000000
v 0.027804 2.770007 -3.976180
vt 0.507093 0.952727
vn 1.000000 0.000000 0.000000
v 0.027804 0.129992 -3.976180
vt 0.507093 0.044458
vn 1.000000 0.000000 0.000000
v 0.027804 2.770007 -3.901180
vt 0.491318 0.952727
vn 1.000000 0.000000 0.000000
v 1.424804 2.770007 -3.962744
vt 0.011648 0.955022
vn 0.939693 0.000000 -0.342020
v 0.958842 0.129992 -5.242966
vt 0.246542 0.044869
vn 0.939693 0.000000 -0.342020
v 1.424804 0.129992 -3.962744
vt 0.011648 0.044869
vn 0.939693 0.000000 -0.342020
v 0.958842 2.770007 -5.242966
vt 0.246542 0.955022
vn 0.939693 0.000000 -0.342020
v 1.354328 2.770007 -3.937093
vt 0.011648 0.952809
vn -0.939693 0.000000 0.342020
v 0.888365 0.129992 -5.217315
vt 0.246542 0.044825
vn -0.939693 0.000000 0.342020
v 0.888365 2.770007 -5.217315
vt 0.246542 0.952809
vn -0.939693 0.000000 0.342020
v 1.354328 0.129992 -3.937093
vt 0.011648 0.044825
vn -0.939693 0.000000 0.342020
v 1.354328 2.770007 -3.937093
vt 0.011648 0.952809
vn -0.000000 1.000000 0.000000
v 0.958842 2.770007 -5.242966
vt 0.246542 0.991548
vn -0.000000 1.000000 0.000000
v 1.424804 2.770007 -3.962744
vt 0.011648 0.991548
vn -0.000000 1.000000 0.000000
v 0.888365 2.770007 -5.217315
vt 0.246542 0.952809
vn -0.000000 1.000000 0.000000
v 0.888365 2.770007 -5.217315
vt 0.506977 0.952727
vn -0.342015 0.000000 -0.939695
v 0.958842 0.129992 -5.242966
vt 0.491203 0.044458
vn -0.342015 0.000000 -0.939695
v 0.958842 2.770007 -5.242966
vt 0.491203 0.952727
vn -0.342015 0.000000 -0.939695
v 0.888365 0.129992 -5.217315
vt 0.506977 0.044458
vn -0.342015 0.000000 -0.939695
v 0.888365 0.129992 -5.217315
vt 0.246542 0.044825
vn -0.000000 -1.000000 0.000000
v 1.424804 0.129992 -3.962744
vt 0.011648 0.008127
vn -0.000000 -1.000000 0.000000
v 0.958842 0.129992 -5.242966
vt 0.246542 0.008127
vn -0.000000 -1.000000 0.000000
v 1.354328 0.129992 -3.937093
vt 0.011648 0.044825
vn -0.000000 -1.000000 0.000000
v 1.354328 0.129992 -3.937093
vt 0.491045 0.044458
vn 0.342021 0.000000 0.939692
v 1.424804 2.770007 -3.962744
vt 0.506820 0.952727
vn 0.342019 0.000000 0.939693
v 1.424804 0.129992 -3.962744
vt 0.506819 0.044458
vn 0.342021 0.000000 0.939692
v 1.354328 2.770007 -3.937093
vt 0.491045 0.952727
vn 0.342018 0.000000 0.939693
v -1.362384 0.129993 3.990842
vt 0.011648 0.046526
vn -1.000000 0.000000 0.000000
v -1.362384 2.770008 3.915842
vt 0.011648 0.952809
vn -1.000000 0.000000 0.000000
v -1.362384 2.770008 3.990841
vt 0.011648 0.952645
vn -1.000000 0.000000 0.000000
v -1.362384 0.129993 3.915842
vt 0.011648 0.044352
vn -1.000000 0.000000 0.000000
v -1.362384 2.770008 3.990841
vt 0.011648 0.952645
vn -0.000000 1.000000 0.000000
v 1.417991 2.770008 3.915842
vt 0.491023 0.952809
vn -0.000000 1.000000 0.000000
v 1.417991 2.770008 3.990842
vt 0.491023 0.952645
vn -0.000000 1.000000 0.000000
v -1.362384 2.770008 3.915842
vt 0.011648 0.952809
vn -0.000000 1.000000 0.000000
v 1.417991 2.770008 3.990842
vt 0.491023 0.952645
vn 1.000000 0.000000 0.000000
v 1.417991 0.129993 3.915842
vt 0.491023 0.044352
vn 1.000000 0.000000 0.000000
v 1.417991 0.129993 3.990842
vt 0.491023 0.046526
vn 1.000000 0.000000 0.000000
v 1.417991 2.770008 3.915842
vt 0.491023 0.952809
vn 1.000000 0.000000 0.000000
v 1.417991 0.129993 3.990842
vt 0.491023 0.046526
vn -0.000000 -1.000000 0.000000
v -1.362384 0.129993 3.915842
vt 0.011648 0.044352
vn -0.000000 -1.000000 0.000000
v -1.362384 0.129993 3.990842
vt 0.011648 0.046526
vn -0.000000 -1.000000 0.000000
v 1.417991 0.129993 3.915842
vt 0.491023 0.044352
vn -0.000000 -1.000000 0.000000
# Faces (1 to 156)
g Container_C_PHYS_0
f -154/-154/-154 -155/-155/-155 -156/-156/-156
f -153/-153/-153 -156/-156/-156 -155/-155/-155
f -150/-150/-150 -151/-151/-151 -152/-152/-152
f -149/-149/-149 -152/-152/-152 -151/-151/-151
f -146/-146/-146 -147/-147/-147 -148/-148/-148
f -145/-145/-145 -148/-148/-148 -147/-147/-147
f -142/-142/-142 -143/-143/-143 -144/-144/-144
f -141/-141/-141 -144/-144/-144 -143/-143/-143
f -138/-138/-138 -139/-139/-139 -140/-140/-140
f -137/-137/-137 -140/-140/-140 -139/-139/-139
f -134/-134/-134 -135/-135/-135 -136/-136/-136
f -133/-133/-133 -136/-136/-136 -135/-135/-135
f -130/-130/-130 -131/-131/-131 -132/-132/-132
f -129/-129/-129 -132/-132/-132 -131/-131/-131
f -126/-126/-126 -127/-127/-127 -128/-128/-128
f -125/-125/-125 -128/-128/-128 -127/-127/-127
f -122/-122/-122 -123/-123/-123 -124/-124/-124
f -121/-121/-121 -124/-124/-124 -123/-123/-123
f -118/-118/-118 -119/-119/-119 -120/-120/-120
f -117/-117/-117 -120/-120/-120 -119/-119/-119
f -114/-114/-114 -115/-115/-115 -116/-116/-116
f -113/-113/-113 -116/-116/-116 -115/-115/-115
f -110/-110/-110 -111/-111/-111 -112/-112/-112
f -109/-109/-109 -112/-112/-112 -111/-111/-111
f -106/-106/-106 -107/-107/-107 -108/-108/-108
f -105/-105/-105 -108/-108/-108 -107/-107/-107
f -102/-102/-102 -103/-103/-103 -104/-104/-104
f -101/-101/-101 -104/-104/-104 -103/-103/-103
f -98/-98/-98 -99/-99/-99 -100/-100/-100
f -97/-97/-97 -100/-100/-100 -99/-99/-99
f -94/-94/-94 -95/-95/-95 -96/-96/-96
f -93/-93/-93 -96/-96/-96 -95/-95/-95
f -90/-90/-90 -91/-91/-91 -92/-92/-92
f -89/-89/-89 -92/-92/-92 -91/-91/-91
f -86/-86/-86 -87/-87/-87 -88/-88/-88
f -85/-85/-85 -88/-88/-88 -87/-87/-87
f -82/-82/-82 -83/-83/-83 -84/-84/-84
f -81/-81/-81 -84/-84/-84 -83/-83/-83
f -78/-78/-78 -79/-79/-79 -80/-80/-80
f -77/-77/-77 -80/-80/-80 -79/-79/-79
f -74/-74/-74 -75/-75/-75 -76/-76/-76
f -73/-73/-73 -76/-76/-76 -75/-75/-75
f -70/-70/-70 -71/-71/-71 -72/-72/-72
f -69/-69/-69 -72/-72/-72 -71/-71/-71
f -66/-66/-66 -67/-67/-67 -68/-68/-68
f -65/-65/-65 -68/-68/-68 -67/-67/-67
f -62/-62/-62 -63/-63/-63 -64/-64/-64
f -61/-61/-61 -64/-64/-64 -63/-63/-63
f -58/-58/-58 -59/-59/-59 -60/-60/-60
f -57/-57/-57 -60/-60/-60 -59/-59/-59
f -54/-54/-54 -55/-55/-55 -56/-56/-56
f -53/-53/-53 -56/-56/-56 -55/-55/-55
f -50/-50/-50 -51/-51/-51 -52/-52/-52
f -49/-49/-49 -52/-52/-52 -51/-51/-51
f -46/-46/-46 -47/-47/-47 -48/-48/-48
f -45/-45/-45 -48/-48/-48 -47/-47/-47
f -42/-42/-42 -43/-43/-43 -44/-44/-44
f -41/-41/-41 -44/-44/-44 -43/-43/-43
f -38/-38/-38 -39/-39/-39 -40/-40/-40
f -37/-37/-37 -40/-40/-40 -39/-39/-39
f -34/-34/-34 -35/-35/-35 -36/-36/-36
f -33/-33/-33 -36/-36/-36 -35/-35/-35
f -30/-30/-30 -31/-31/-31 -32/-32/-32
f -29/-29/-29 -32/-32/-32 -31/-31/-31
f -26/-26/-26 -27/-27/-27 -28/-28/-28
f -25/-25/-25 -28/-28/-28 -27/-27/-27
f -22/-22/-22 -23/-23/-23 -24/-24/-24
f -21/-21/-21 -24/-24/-24 -23/-23/-23
f -18/-18/-18 -19/-19/-19 -20/-20/-20
f -17/-17/-17 -20/-20/-20 -19/-19/-19
f -14/-14/-14 -15/-15/-15 -16/-16/-16
f -13/-13/-13 -16/-16/-16 -15/-15/-15
f -10/-10/-10 -11/-11/-11 -12/-12/-12
f -9/-9/-9 -12/-12/-12 -11/-11/-11
f -6/-6/-6 -7/-7/-7 -8/-8/-8
f -5/-5/-5 -8/-8/-8 -7/-7/-7
f -2/-2/-2 -3/-3/-3 -4/-4/-4
f -1/-1/-1 -4/-4/-4 -3/-3/-3

