# Mesh "Door_A_Frame" exported with Unity Assets Bundle Extractor; 60 vertices, 90 indices, 448 bits per vertex
g Door_A_Frame
# SubMesh 0
# Vertices
v 0.300000 0.000000 1.850000
vt 0.470380 -0.238742
vn -0.000000 0.000000 1.000000
v -0.300001 3.600000 1.850000
vt 0.331315 0.595655
vn -0.000000 0.000000 1.000000
v 0.299999 3.600000 1.850000
vt 0.470380 0.595655
vn -0.000000 0.000000 1.000000
v -0.300000 -0.000000 1.850000
vt 0.331314 -0.238742
vn -0.000000 0.000000 1.000000
v 0.299999 3.600000 1.850000
vt 0.470380 0.595655
vn -0.000000 1.000000 0.000000
v -0.300000 3.600000 -1.850000
vt 0.331315 1.453230
vn -0.000000 1.000000 0.000000
v 0.300000 3.600000 -1.850000
vt 0.470380 1.453230
vn -0.000000 1.000000 0.000000
v -0.300001 3.600000 1.850000
vt 0.331315 0.595655
vn -0.000000 1.000000 0.000000
v 0.300000 3.600000 -1.850000
vt 0.470380 1.453230
vn -0.000000 0.000000 -1.000000
v -0.299999 -0.000000 -1.850000
vt 0.331315 2.287627
vn -0.000000 0.000000 -1.000000
v 0.300001 0.000000 -1.850000
vt 0.470381 2.287627
vn -0.000000 0.000000 -1.000000
v -0.300000 3.600000 -1.850000
vt 0.331315 1.453230
vn -0.000000 0.000000 -1.000000
v 0.300001 0.000000 -1.850000
vt -0.232873 2.051321
vn 1.000000 0.000000 0.000000
v 0.300000 3.399999 -1.650001
vt -0.295733 0.982692
vn 1.000000 0.000000 0.000000
v 0.300000 3.600000 -1.850000
vt -0.232873 0.919831
vn 1.000000 0.000000 0.000000
v 0.300001 0.000000 -1.650000
vt -0.295733 2.051321
vn 1.000000 0.000000 0.000000
v 0.300000 3.600000 -1.850000
vt -0.232237 0.916069
vn 1.000000 0.000000 0.000000
v 0.299999 3.400000 1.649999
vt -0.295096 2.016129
vn 1.000000 0.000000 0.000000
v 0.299999 3.600000 1.850000
vt -0.232236 2.078989
vn 1.000000 0.000000 0.000000
v 0.300000 3.399999 -1.650001
vt -0.295097 0.978930
vn 1.000000 0.000000 0.000000
v 0.299999 3.600000 1.850000
vt -0.232164 0.919831
vn 1.000000 0.000000 0.000000
v 0.300000 0.000000 1.650000
vt -0.295024 2.051321
vn 1.000000 0.000000 0.000000
v 0.300000 0.000000 1.850000
vt -0.232164 2.051321
vn 1.000000 0.000000 0.000000
v 0.299999 3.400000 1.649999
vt -0.295025 0.982691
vn 1.000000 0.000000 0.000000
v -0.300000 -0.000000 1.850000
vt -0.232873 2.051885
vn -1.000000 0.000000 0.000000
v -0.300001 3.400000 1.649999
vt -0.295733 0.983256
vn -1.000000 0.000000 0.000000
v -0.300001 3.600000 1.850000
vt -0.232873 0.920395
vn -1.000000 0.000000 0.000000
v -0.300000 -0.000000 1.650000
vt -0.295733 2.051885
vn -1.000000 0.000000 0.000000
v -0.300001 3.600000 1.850000
vt -0.232800 0.916069
vn -1.000000 0.000000 0.000000
v -0.300000 3.399999 -1.650000
vt -0.295660 2.016129
vn -1.000000 0.000000 0.000000
v -0.300000 3.600000 -1.850000
vt -0.232800 2.078989
vn -1.000000 0.000000 0.000000
v -0.300001 3.400000 1.649999
vt -0.295661 0.978930
vn -1.000000 0.000000 0.000000
v -0.300000 3.600000 -1.850000
vt -0.232164 0.920395
vn -1.000000 0.000000 0.000000
v -0.299999 -0.000000 -1.650000
vt -0.295024 2.051884
vn -1.000000 0.000000 0.000000
v -0.299999 -0.000000 -1.850000
vt -0.232164 2.051884
vn -1.000000 0.000000 0.000000
v -0.300000 3.399999 -1.650000
vt -0.295024 0.983255
vn -1.000000 0.000000 0.000000
v -0.300000 3.399999 -1.650000
vt 0.331315 0.615107
vn -0.000000 0.000000 1.000000
v 0.300001 0.000000 -1.650000
vt 0.470380 -0.172935
vn -0.000000 0.000000 1.000000
v -0.299999 -0.000000 -1.650000
vt 0.331314 -0.172935
vn -0.000000 0.000000 1.000000
v 0.300000 3.399999 -1.650001
vt 0.470380 0.615107
vn -0.000000 0.000000 1.000000
v -0.300001 3.400000 1.649999
vt 0.331315 1.379971
vn -0.000000 -1.000000 0.000000
v 0.300000 3.399999 -1.650001
vt 0.470380 0.615107
vn -0.000000 -1.000000 0.000000
v -0.300000 3.399999 -1.650000
vt 0.331315 0.615107
vn -0.000000 -1.000000 0.000000
v 0.299999 3.400000 1.649999
vt 0.470380 1.379971
vn -0.000000 -1.000000 0.000000
v -0.300000 -0.000000 1.650000
vt 0.331315 2.168012
vn -0.000000 0.000000 -1.000000
v 0.299999 3.400000 1.649999
vt 0.470380 1.379971
vn -0.000000 0.000000 -1.000000
v -0.300001 3.400000 1.649999
vt 0.331315 1.379971
vn -0.000000 0.000000 -1.000000
v 0.300000 0.000000 1.650000
vt 0.470381 2.168012
vn -0.000000 0.000000 -1.000000
v -0.300001 0.000000 -1.650000
vt -0.068925 2.358973
vn -0.657418 0.753526 0.000000
v -0.185381 0.100000 1.649999
vt -0.039477 1.640562
vn -0.657418 0.753526 0.000000
v -0.300000 0.000000 1.650000
vt -0.068924 1.640562
vn -0.657418 0.753526 0.000000
v -0.185382 0.100000 -1.650001
vt -0.039477 2.358973
vn -0.657418 0.753526 0.000000
v 0.300000 -0.000000 1.650000
vt 0.061696 1.640562
vn 0.657419 0.753525 0.000000
v 0.185381 0.100000 -1.650000
vt 0.030749 2.358973
vn 0.657419 0.753525 0.000000
v 0.299999 -0.000000 -1.650000
vt 0.061696 2.358973
vn 0.657419 0.753525 0.000000
v 0.185381 0.100000 1.650000
vt 0.030749 1.640562
vn 0.657419 0.753525 0.000000
v 0.185381 0.100000 1.650000
vt 0.030749 1.640562
vn -0.000000 1.000000 0.000000
v -0.185382 0.100000 -1.650001
vt -0.039477 2.358973
vn -0.000000 1.000000 0.000000
v 0.185381 0.100000 -1.650000
vt 0.030749 2.358973
vn -0.000000 1.000000 0.000000
v -0.185381 0.100000 1.649999
vt -0.039477 1.640562
vn -0.000000 1.000000 0.000000
# Faces (1 to 60)
g Door_A_Frame_0
f -58/-58/-58 -59/-59/-59 -60/-60/-60
f -59/-59/-59 -57/-57/-57 -60/-60/-60
f -54/-54/-54 -55/-55/-55 -56/-56/-56
f -55/-55/-55 -53/-53/-53 -56/-56/-56
f -50/-50/-50 -51/-51/-51 -52/-52/-52
f -51/-51/-51 -49/-49/-49 -52/-52/-52
f -46/-46/-46 -47/-47/-47 -48/-48/-48
f -47/-47/-47 -45/-45/-45 -48/-48/-48
f -42/-42/-42 -43/-43/-43 -44/-44/-44
f -43/-43/-43 -41/-41/-41 -44/-44/-44
f -38/-38/-38 -39/-39/-39 -40/-40/-40
f -39/-39/-39 -37/-37/-37 -40/-40/-40
f -34/-34/-34 -35/-35/-35 -36/-36/-36
f -35/-35/-35 -33/-33/-33 -36/-36/-36
f -30/-30/-30 -31/-31/-31 -32/-32/-32
f -31/-31/-31 -29/-29/-29 -32/-32/-32
f -26/-26/-26 -27/-27/-27 -28/-28/-28
f -27/-27/-27 -25/-25/-25 -28/-28/-28
f -22/-22/-22 -23/-23/-23 -24/-24/-24
f -23/-23/-23 -21/-21/-21 -24/-24/-24
f -18/-18/-18 -19/-19/-19 -20/-20/-20
f -19/-19/-19 -17/-17/-17 -20/-20/-20
f -14/-14/-14 -15/-15/-15 -16/-16/-16
f -15/-15/-15 -13/-13/-13 -16/-16/-16
f -10/-10/-10 -11/-11/-11 -12/-12/-12
f -11/-11/-11 -9/-9/-9 -12/-12/-12
f -6/-6/-6 -7/-7/-7 -8/-8/-8
f -7/-7/-7 -5/-5/-5 -8/-8/-8
f -2/-2/-2 -3/-3/-3 -4/-4/-4
f -3/-3/-3 -1/-1/-1 -4/-4/-4

