# Mesh "WalkWay_A_PHYS" exported with Unity Assets Bundle Extractor; 36 vertices, 54 indices, 256 bits per vertex
g WalkWay_A_PHYS
# SubMesh 0
# Vertices
v -24.000000 -0.000000 3.500000
vt 0.000000 0.000000
vn -0.234259 0.972174 0.000000
v -3.250000 5.000000 -3.000000
vt 1.000000 1.000000
vn -0.234259 0.972174 0.000000
v -3.250000 5.000000 3.500000
vt 1.000000 0.000000
vn -0.234259 0.972174 0.000000
v -24.000000 0.000000 -3.000000
vt 0.000000 1.000000
vn -0.234259 0.972174 0.000000
v -3.250000 5.000000 -3.000000
vt 1.000000 1.000000
vn -0.000000 1.000000 0.000000
v 3.250000 5.000000 3.500000
vt 1.000000 0.000000
vn -0.000000 1.000000 0.000000
v -3.250000 5.000000 3.500000
vt 1.000000 0.000000
vn -0.000000 1.000000 0.000000
v 3.250000 5.000000 -3.000000
vt 1.000000 1.000000
vn -0.000000 1.000000 0.000000
v -3.250000 4.500000 3.500000
vt 1.000000 0.000000
vn -0.000000 0.000000 1.000000
v 3.250000 5.000000 3.500000
vt 1.000000 0.000000
vn -0.000000 0.000000 1.000000
v 3.250000 4.500000 3.500000
vt 1.000000 0.000000
vn -0.000000 0.000000 1.000000
v -3.250000 5.000000 3.500000
vt 1.000000 0.000000
vn -0.000000 0.000000 1.000000
v -3.250000 0.000000 3.500000
vt 1.000000 0.000000
vn -0.000000 0.000000 1.000000
v -24.000000 -0.000000 3.500000
vt 0.000000 0.000000
vn -0.000000 0.000000 1.000000
v 3.250000 4.500000 3.500000
vt 1.000000 0.000000
vn 1.000000 0.000000 0.000000
v 3.250000 5.000000 -3.000000
vt 1.000000 1.000000
vn 1.000000 0.000000 0.000000
v 3.250000 4.500000 -3.000000
vt 1.000000 1.000000
vn 1.000000 0.000000 0.000000
v 3.250000 5.000000 3.500000
vt 1.000000 0.000000
vn 1.000000 0.000000 0.000000
v 3.250000 4.500000 -3.000000
vt 1.000000 1.000000
vn -0.000000 0.000000 -1.000000
v -3.250000 5.000000 -3.000000
vt 1.000000 1.000000
vn -0.000000 0.000000 -1.000000
v -3.250000 4.500000 -3.000000
vt 1.000000 1.000000
vn -0.000000 0.000000 -1.000000
v 3.250000 5.000000 -3.000000
vt 1.000000 1.000000
vn -0.000000 0.000000 -1.000000
v -24.000000 0.000000 -3.000000
vt 0.000000 1.000000
vn -0.000000 0.000000 -1.000000
v -3.250000 0.000000 -3.000000
vt 1.000000 1.000000
vn -0.000000 0.000000 -1.000000
v -3.250000 4.500000 -3.000000
vt 1.000000 1.000000
vn -1.000000 0.000000 0.000000
v -3.250000 5.000000 3.500000
vt 1.000000 0.000000
vn -1.000000 0.000000 0.000000
v -3.250000 4.500000 3.500000
vt 1.000000 0.000000
vn -1.000000 0.000000 0.000000
v -3.250000 5.000000 -3.000000
vt 1.000000 1.000000
vn -1.000000 0.000000 0.000000
v -3.250000 5.000000 -3.000000
vt 1.000000 1.000000
vn 1.000000 0.000000 0.000000
v -3.250000 0.000000 3.500000
vt 0.000000 0.000000
vn 1.000000 0.000000 0.000000
v -3.250000 5.000000 3.500000
vt 1.000000 0.000000
vn 1.000000 0.000000 0.000000
v -3.250000 0.000000 -3.000000
vt 0.000000 0.000000
vn 1.000000 0.000000 0.000000
v -24.000000 -0.000000 3.500000
vt 0.000000 0.000000
vn -0.000000 -1.000000 0.000000
v -3.250000 0.000000 -3.000000
vt 0.000000 0.000000
vn -0.000000 -1.000000 0.000000
v -24.000000 0.000000 -3.000000
vt 0.000000 0.000000
vn -0.000000 -1.000000 0.000000
v -3.250000 0.000000 3.500000
vt 0.000000 0.000000
vn -0.000000 -1.000000 0.000000
# Faces (1 to 36)
g WalkWay_A_PHYS_0
f -34/-34/-34 -35/-35/-35 -36/-36/-36
f -33/-33/-33 -36/-36/-36 -35/-35/-35
f -30/-30/-30 -31/-31/-31 -32/-32/-32
f -29/-29/-29 -32/-32/-32 -31/-31/-31
f -26/-26/-26 -27/-27/-27 -28/-28/-28
f -25/-25/-25 -28/-28/-28 -27/-27/-27
f -23/-23/-23 -24/-24/-24 -25/-25/-25
f -20/-20/-20 -21/-21/-21 -22/-22/-22
f -19/-19/-19 -22/-22/-22 -21/-21/-21
f -16/-16/-16 -17/-17/-17 -18/-18/-18
f -15/-15/-15 -18/-18/-18 -17/-17/-17
f -13/-13/-13 -14/-14/-14 -17/-17/-17
f -10/-10/-10 -11/-11/-11 -12/-12/-12
f -9/-9/-9 -12/-12/-12 -11/-11/-11
f -6/-6/-6 -7/-7/-7 -8/-8/-8
f -5/-5/-5 -8/-8/-8 -7/-7/-7
f -2/-2/-2 -3/-3/-3 -4/-4/-4
f -1/-1/-1 -4/-4/-4 -3/-3/-3

