# Mesh "Window_B_Frame_PHYS" exported with Unity Assets Bundle Extractor; 160 vertices, 240 indices, 320 bits per vertex
g Window_B_Frame_PHYS
# SubMesh 0
# Vertices
v 0.299999 2.100000 5.849999
vt 2.260802 -6.015987
vn -0.000000 1.000000 0.000000
v -0.300000 2.099999 -5.850000
vt 2.132772 -3.519394
vn -0.000000 1.000000 0.000000
v 0.300000 2.099999 -5.850000
vt 2.260803 -3.519394
vn -0.000000 1.000000 0.000000
v -0.300001 2.100000 5.850000
vt 2.132772 -6.015987
vn -0.000000 1.000000 0.000000
v 0.300000 2.099999 -5.850000
vt 2.135284 1.294587
vn 1.000000 0.000000 0.000000
v 0.299999 1.900000 5.650000
vt 2.214817 -3.278523
vn 1.000000 0.000000 0.000000
v 0.299999 2.100000 5.849999
vt 2.135284 -3.358055
vn 1.000000 0.000000 0.000000
v 0.300000 1.899999 -5.650001
vt 2.214817 1.215055
vn 1.000000 0.000000 0.000000
v 0.299999 -0.099999 5.849999
vt 2.135284 -1.469163
vn 1.000000 0.000000 0.000000
v 0.299999 1.900000 5.650000
vt 2.214817 -0.673839
vn 1.000000 0.000000 0.000000
v 0.299999 0.100000 5.650000
vt 2.214817 -1.389630
vn 1.000000 0.000000 0.000000
v 0.299999 2.100000 5.849999
vt 2.135284 -0.594307
vn 1.000000 0.000000 0.000000
v -0.300001 2.100000 5.850000
vt 2.135284 1.294588
vn -1.000000 0.000000 0.000000
v -0.300000 1.899999 -5.650001
vt 2.214817 -3.278523
vn -1.000000 0.000000 0.000000
v -0.300000 2.099999 -5.850000
vt 2.135284 -3.358055
vn -1.000000 0.000000 0.000000
v -0.300001 1.900000 5.650000
vt 2.214817 1.215055
vn -1.000000 0.000000 0.000000
v -0.300000 1.899999 -5.650001
vt 2.132553 -6.015190
vn -0.000000 -1.000000 0.000000
v 0.299999 1.900000 5.650000
vt 2.260585 -3.603949
vn -0.000000 -1.000000 0.000000
v 0.300000 1.899999 -5.650001
vt 2.260584 -6.015190
vn -0.000000 -1.000000 0.000000
v -0.300001 1.900000 5.650000
vt 2.132554 -3.603949
vn -0.000000 -1.000000 0.000000
v 0.299999 2.100000 5.849999
vt 2.260803 -0.083910
vn -0.000000 0.000000 1.000000
v -0.300001 -0.099999 5.850000
vt 2.132772 -0.553354
vn -0.000000 0.000000 1.000000
v -0.300001 2.100000 5.850000
vt 2.132772 -0.083910
vn -0.000000 0.000000 1.000000
v 0.299999 -0.099999 5.849999
vt 2.260803 -0.553354
vn -0.000000 0.000000 1.000000
v -0.300001 1.900000 5.650000
vt 2.132554 -3.603949
vn -0.000000 0.000000 -1.000000
v 0.299999 0.100000 5.650000
vt 2.260585 -3.219858
vn -0.000000 0.000000 -1.000000
v 0.299999 1.900000 5.650000
vt 2.260585 -3.603949
vn -0.000000 0.000000 -1.000000
v -0.300001 0.100000 5.650000
vt 2.132554 -3.219858
vn -0.000000 0.000000 -1.000000
v 0.299999 -0.099999 5.849999
vt 2.260803 -0.553354
vn -0.000000 -1.000000 0.000000
v -0.300000 -0.100000 -5.850000
vt 2.132772 -3.049950
vn -0.000000 -1.000000 0.000000
v -0.300001 -0.099999 5.850000
vt 2.132772 -0.553354
vn -0.000000 -1.000000 0.000000
v 0.300000 -0.100000 -5.850000
vt 2.260803 -3.049950
vn -0.000000 -1.000000 0.000000
v -0.300000 -0.100000 -5.850000
vt 2.132772 -3.049950
vn -0.000000 0.000000 -1.000000
v 0.300000 2.099999 -5.850000
vt 2.260803 -3.519394
vn -0.000000 0.000000 -1.000000
v -0.300000 2.099999 -5.850000
vt 2.132772 -3.519394
vn -0.000000 0.000000 -1.000000
v 0.300000 -0.100000 -5.850000
vt 2.260803 -3.049950
vn -0.000000 0.000000 -1.000000
v 0.300000 -0.100000 -5.850000
vt 2.135284 -3.358055
vn 1.000000 0.000000 0.000000
v 0.299999 0.100000 5.650000
vt 2.214817 1.215055
vn 1.000000 0.000000 0.000000
v 0.300000 0.100000 -5.650001
vt 2.214817 -3.278523
vn 1.000000 0.000000 0.000000
v 0.299999 -0.099999 5.849999
vt 2.135284 1.294587
vn 1.000000 0.000000 0.000000
v -0.300001 -0.099999 5.850000
vt 2.135284 -3.358055
vn -1.000000 0.000000 0.000000
v -0.300000 0.100000 -5.650001
vt 2.214817 1.215055
vn -1.000000 0.000000 0.000000
v -0.300001 0.100000 5.650000
vt 2.214817 -3.278523
vn -1.000000 0.000000 0.000000
v -0.300000 -0.100000 -5.850000
vt 2.135284 1.294587
vn -1.000000 0.000000 0.000000
v -0.300000 0.100000 -5.650001
vt 2.214817 -1.389628
vn -1.000000 0.000000 0.000000
v -0.300000 2.099999 -5.850000
vt 2.135284 -0.594305
vn -1.000000 0.000000 0.000000
v -0.300000 1.899999 -5.650001
vt 2.214817 -0.673837
vn -1.000000 0.000000 0.000000
v -0.300000 -0.100000 -5.850000
vt 2.135284 -1.469161
vn -1.000000 0.000000 0.000000
v 0.300000 0.100000 -5.650001
vt 2.260585 -0.808614
vn -0.000000 0.000000 1.000000
v -0.300000 1.899999 -5.650001
vt 2.132554 -0.424523
vn -0.000000 0.000000 1.000000
v 0.300000 1.899999 -5.650001
vt 2.260585 -0.424523
vn -0.000000 0.000000 1.000000
v -0.300000 0.100000 -5.650001
vt 2.132554 -0.808614
vn -0.000000 0.000000 1.000000
v -0.300000 0.100000 -5.650001
vt 2.132554 -0.808614
vn -0.000000 1.000000 0.000000
v 0.299999 0.100000 5.650000
vt 2.260585 -3.219858
vn -0.000000 1.000000 0.000000
v -0.300001 0.100000 5.650000
vt 2.132554 -3.219858
vn -0.000000 1.000000 0.000000
v 0.300000 0.100000 -5.650001
vt 2.260585 -0.808614
vn -0.000000 1.000000 0.000000
v 0.300000 2.099999 -5.850000
vt 2.135284 -1.469163
vn 1.000000 0.000000 0.000000
v 0.300000 0.100000 -5.650001
vt 2.214817 -0.673840
vn 1.000000 0.000000 0.000000
v 0.300000 1.899999 -5.650001
vt 2.214817 -1.389630
vn 1.000000 0.000000 0.000000
v 0.300000 -0.100000 -5.850000
vt 2.135284 -0.594307
vn 1.000000 0.000000 0.000000
v -0.300001 1.900000 5.650000
vt 2.214817 -1.389628
vn -1.000000 0.000000 0.000000
v -0.300001 -0.099999 5.850000
vt 2.135284 -0.594305
vn -1.000000 0.000000 0.000000
v -0.300001 0.100000 5.650000
vt 2.214817 -0.673837
vn -1.000000 0.000000 0.000000
v -0.300001 2.100000 5.850000
vt 2.135284 -1.469160
vn -1.000000 0.000000 0.000000
v 0.102657 0.099606 -3.158015
vt 0.930294 -0.469215
vn -0.000000 0.000000 1.000000
v -0.102657 1.899710 -3.158015
vt 0.863353 -0.003317
vn -0.000000 0.000000 1.000000
v 0.102657 1.899710 -3.158015
vt 0.930294 -0.003317
vn -0.000000 0.000000 1.000000
v -0.102657 0.099606 -3.158015
vt 0.863353 -0.469215
vn -0.000000 0.000000 1.000000
v 0.102657 1.899710 -4.249795
vt 1.164389 -0.003317
vn -0.000000 0.000000 -1.000000
v -0.102657 0.099606 -4.249795
vt 1.225322 -0.469215
vn -0.000000 0.000000 -1.000000
v 0.102657 0.099606 -4.249795
vt 1.164389 -0.469215
vn -0.000000 0.000000 -1.000000
v -0.102657 1.899710 -4.249795
vt 1.225322 -0.003317
vn -0.000000 0.000000 -1.000000
v -0.102657 0.099606 -3.158015
vt 0.863353 -0.469215
vn -1.000000 0.000000 0.000000
v -0.102657 1.899710 -4.249795
vt 0.626977 -0.003317
vn -1.000000 0.000000 0.000000
v -0.102657 1.899710 -3.158015
vt 0.863353 -0.003317
vn -1.000000 0.000000 0.000000
v -0.102657 0.099606 -4.249795
vt 0.626977 -0.469215
vn -1.000000 0.000000 0.000000
v 0.102657 0.099606 -4.249795
vt 1.164389 -0.469215
vn 1.000000 0.000000 0.000000
v 0.102657 1.899710 -3.158015
vt 0.930294 -0.003317
vn 1.000000 0.000000 0.000000
v 0.102657 1.899710 -4.249795
vt 1.164389 -0.003317
vn 1.000000 0.000000 0.000000
v 0.102657 0.099606 -3.158015
vt 0.930294 -0.469215
vn 1.000000 0.000000 0.000000
v 0.102657 0.099606 -0.657810
vt 0.930294 -0.469215
vn -0.000000 0.000000 1.000000
v -0.102657 1.899710 -0.657810
vt 0.863353 -0.003317
vn -0.000000 0.000000 1.000000
v 0.102657 1.899710 -0.657810
vt 0.930294 -0.003317
vn -0.000000 0.000000 1.000000
v -0.102657 0.099606 -0.657810
vt 0.863353 -0.469215
vn -0.000000 0.000000 1.000000
v 0.102657 1.899710 -1.749591
vt 1.164389 -0.003317
vn -0.000000 0.000000 -1.000000
v -0.102657 0.099606 -1.749591
vt 1.225322 -0.469215
vn -0.000000 0.000000 -1.000000
v 0.102657 0.099606 -1.749591
vt 1.164389 -0.469215
vn -0.000000 0.000000 -1.000000
v -0.102657 1.899710 -1.749591
vt 1.225322 -0.003317
vn -0.000000 0.000000 -1.000000
v -0.102657 0.099606 -0.657810
vt 0.863353 -0.469215
vn -1.000000 0.000000 0.000000
v -0.102657 1.899710 -1.749591
vt 0.626977 -0.003317
vn -1.000000 0.000000 0.000000
v -0.102657 1.899710 -0.657810
vt 0.863353 -0.003317
vn -1.000000 0.000000 0.000000
v -0.102657 0.099606 -1.749591
vt 0.626977 -0.469215
vn -1.000000 0.000000 0.000000
v 0.102657 0.099606 -1.749591
vt 1.164389 -0.469215
vn 1.000000 0.000000 0.000000
v 0.102657 1.899710 -0.657810
vt 0.930294 -0.003317
vn 1.000000 0.000000 0.000000
v 0.102657 1.899710 -1.749591
vt 1.164389 -0.003317
vn 1.000000 0.000000 0.000000
v 0.102657 0.099606 -0.657810
vt 0.930294 -0.469215
vn 1.000000 0.000000 0.000000
v 0.102657 1.899710 0.750613
vt 1.164389 -0.003317
vn -0.000000 0.000000 -1.000000
v -0.102657 0.099606 0.750613
vt 1.225322 -0.469215
vn -0.000000 0.000000 -1.000000
v 0.102657 0.099606 0.750613
vt 1.164389 -0.469215
vn -0.000000 0.000000 -1.000000
v -0.102657 1.899710 0.750613
vt 1.225322 -0.003317
vn -0.000000 0.000000 -1.000000
v -0.102657 0.099606 1.842394
vt 0.863353 -0.469215
vn -1.000000 0.000000 0.000000
v -0.102657 1.899710 0.750613
vt 0.626977 -0.003317
vn -1.000000 0.000000 0.000000
v -0.102657 1.899710 1.842394
vt 0.863353 -0.003317
vn -1.000000 0.000000 0.000000
v -0.102657 0.099606 0.750613
vt 0.626977 -0.469215
vn -1.000000 0.000000 0.000000
v 0.102657 0.099606 0.750613
vt 1.164389 -0.469215
vn 1.000000 0.000000 0.000000
v 0.102657 1.899710 1.842394
vt 0.930294 -0.003317
vn 1.000000 0.000000 0.000000
v 0.102657 1.899710 0.750613
vt 1.164389 -0.003317
vn 1.000000 0.000000 0.000000
v 0.102657 0.099606 1.842394
vt 0.930294 -0.469215
vn 1.000000 0.000000 0.000000
v 0.102657 0.099606 4.342597
vt 0.930294 -0.469215
vn -0.000000 0.000000 1.000000
v -0.102657 1.899710 4.342597
vt 0.863353 -0.003317
vn -0.000000 0.000000 1.000000
v 0.102657 1.899710 4.342597
vt 0.930294 -0.003317
vn -0.000000 0.000000 1.000000
v -0.102657 0.099606 4.342597
vt 0.863353 -0.469215
vn -0.000000 0.000000 1.000000
v 0.102657 1.899710 3.250817
vt 1.164389 -0.003317
vn -0.000000 0.000000 -1.000000
v -0.102657 0.099606 3.250817
vt 1.225322 -0.469215
vn -0.000000 0.000000 -1.000000
v 0.102657 0.099606 3.250817
vt 1.164389 -0.469215
vn -0.000000 0.000000 -1.000000
v -0.102657 1.899710 3.250817
vt 1.225322 -0.003317
vn -0.000000 0.000000 -1.000000
v -0.102657 0.099606 4.342597
vt 0.863353 -0.469215
vn -1.000000 0.000000 0.000000
v -0.102657 1.899710 3.250817
vt 0.626977 -0.003317
vn -1.000000 0.000000 0.000000
v -0.102657 1.899710 4.342597
vt 0.863353 -0.003317
vn -1.000000 0.000000 0.000000
v -0.102657 0.099606 3.250817
vt 0.626977 -0.469215
vn -1.000000 0.000000 0.000000
v 0.102657 0.099606 3.250817
vt 1.164389 -0.469215
vn 1.000000 0.000000 0.000000
v 0.102657 1.899710 4.342597
vt 0.930294 -0.003317
vn 1.000000 0.000000 0.000000
v 0.102657 1.899710 3.250817
vt 1.164389 -0.003317
vn 1.000000 0.000000 0.000000
v 0.102657 0.099606 4.342597
vt 0.930294 -0.469215
vn 1.000000 0.000000 0.000000
v 0.102657 1.899710 1.842394
vt 0.930294 -0.003317
vn -0.000000 0.000000 1.000000
v -0.102657 0.099606 1.842394
vt 0.863353 -0.469215
vn -0.000000 0.000000 1.000000
v -0.102657 1.899710 1.842394
vt 0.863353 -0.003317
vn -0.000000 0.000000 1.000000
v 0.102657 0.099606 1.842394
vt 0.930294 -0.469215
vn -0.000000 0.000000 1.000000
v 0.102657 1.899710 -4.249795
vt 1.164389 -0.003317
vn -0.000000 1.000000 0.000000
v -0.102657 1.899710 -3.158015
vt 0.863353 -0.003317
vn -0.000000 1.000000 0.000000
v -0.102657 1.899710 -4.249795
vt 1.225322 -0.003317
vn -0.000000 1.000000 0.000000
v 0.102657 1.899710 -3.158015
vt 0.930294 -0.003317
vn -0.000000 1.000000 0.000000
v 0.102657 1.899710 -1.749591
vt 1.164389 -0.003317
vn -0.000000 1.000000 0.000000
v -0.102657 1.899710 -0.657810
vt 0.863353 -0.003317
vn -0.000000 1.000000 0.000000
v -0.102657 1.899710 -1.749591
vt 1.225322 -0.003317
vn -0.000000 1.000000 0.000000
v 0.102657 1.899710 -0.657810
vt 0.930294 -0.003317
vn -0.000000 1.000000 0.000000
v -0.102657 1.899710 1.842394
vt 0.863353 -0.003317
vn -0.000000 1.000000 0.000000
v 0.102657 1.899710 0.750613
vt 1.164389 -0.003317
vn -0.000000 1.000000 0.000000
v 0.102657 1.899710 1.842394
vt 0.930294 -0.003317
vn -0.000000 1.000000 0.000000
v -0.102657 1.899710 0.750613
vt 1.225322 -0.003317
vn -0.000000 1.000000 0.000000
v 0.102657 1.899710 3.250817
vt 1.164389 -0.003317
vn -0.000000 1.000000 0.000000
v -0.102657 1.899710 4.342597
vt 0.863353 -0.003317
vn -0.000000 1.000000 0.000000
v -0.102657 1.899710 3.250817
vt 1.225322 -0.003317
vn -0.000000 1.000000 0.000000
v 0.102657 1.899710 4.342597
vt 0.930294 -0.003317
vn -0.000000 1.000000 0.000000
v -0.102657 0.099606 -4.249795
vt 0.626977 -0.469215
vn -0.000000 -1.000000 0.000000
v 0.102657 0.099606 -3.158015
vt 0.930294 -0.469215
vn -0.000000 -1.000000 0.000000
v 0.102657 0.099606 -4.249795
vt 1.164389 -0.469215
vn -0.000000 -1.000000 0.000000
v -0.102657 0.099606 -3.158015
vt 0.863353 -0.469215
vn -0.000000 -1.000000 0.000000
v -0.102657 0.099606 -1.749591
vt 0.626977 -0.469215
vn -0.000000 -1.000000 0.000000
v 0.102657 0.099606 -0.657810
vt 0.930294 -0.469215
vn -0.000000 -1.000000 0.000000
v 0.102657 0.099606 -1.749591
vt 1.164389 -0.469215
vn -0.000000 -1.000000 0.000000
v -0.102657 0.099606 -0.657810
vt 0.863353 -0.469215
vn -0.000000 -1.000000 0.000000
v 0.102657 0.099606 1.842394
vt 0.930294 -0.469215
vn -0.000000 -1.000000 0.000000
v -0.102657 0.099606 0.750613
vt 0.626977 -0.469215
vn -0.000000 -1.000000 0.000000
v -0.102657 0.099606 1.842394
vt 0.863353 -0.469215
vn -0.000000 -1.000000 0.000000
v 0.102657 0.099606 0.750613
vt 1.164389 -0.469215
vn -0.000000 -1.000000 0.000000
v -0.102657 0.099606 3.250817
vt 0.626977 -0.469215
vn -0.000000 -1.000000 0.000000
v 0.102657 0.099606 4.342597
vt 0.930294 -0.469215
vn -0.000000 -1.000000 0.000000
v 0.102657 0.099606 3.250817
vt 1.164389 -0.469215
vn -0.000000 -1.000000 0.000000
v -0.102657 0.099606 4.342597
vt 0.863353 -0.469215
vn -0.000000 -1.000000 0.000000
# Faces (1 to 160)
g Window_B_Frame_PHYS_0
f -158/-158/-158 -159/-159/-159 -160/-160/-160
f -157/-157/-157 -160/-160/-160 -159/-159/-159
f -154/-154/-154 -155/-155/-155 -156/-156/-156
f -153/-153/-153 -156/-156/-156 -155/-155/-155
f -150/-150/-150 -151/-151/-151 -152/-152/-152
f -149/-149/-149 -152/-152/-152 -151/-151/-151
f -146/-146/-146 -147/-147/-147 -148/-148/-148
f -145/-145/-145 -148/-148/-148 -147/-147/-147
f -142/-142/-142 -143/-143/-143 -144/-144/-144
f -141/-141/-141 -144/-144/-144 -143/-143/-143
f -138/-138/-138 -139/-139/-139 -140/-140/-140
f -137/-137/-137 -140/-140/-140 -139/-139/-139
f -134/-134/-134 -135/-135/-135 -136/-136/-136
f -133/-133/-133 -136/-136/-136 -135/-135/-135
f -130/-130/-130 -131/-131/-131 -132/-132/-132
f -129/-129/-129 -132/-132/-132 -131/-131/-131
f -126/-126/-126 -127/-127/-127 -128/-128/-128
f -125/-125/-125 -128/-128/-128 -127/-127/-127
f -122/-122/-122 -123/-123/-123 -124/-124/-124
f -121/-121/-121 -124/-124/-124 -123/-123/-123
f -118/-118/-118 -119/-119/-119 -120/-120/-120
f -117/-117/-117 -120/-120/-120 -119/-119/-119
f -114/-114/-114 -115/-115/-115 -116/-116/-116
f -113/-113/-113 -116/-116/-116 -115/-115/-115
f -110/-110/-110 -111/-111/-111 -112/-112/-112
f -109/-109/-109 -112/-112/-112 -111/-111/-111
f -106/-106/-106 -107/-107/-107 -108/-108/-108
f -105/-105/-105 -108/-108/-108 -107/-107/-107
f -102/-102/-102 -103/-103/-103 -104/-104/-104
f -101/-101/-101 -104/-104/-104 -103/-103/-103
f -98/-98/-98 -99/-99/-99 -100/-100/-100
f -97/-97/-97 -100/-100/-100 -99/-99/-99
f -94/-94/-94 -95/-95/-95 -96/-96/-96
f -93/-93/-93 -96/-96/-96 -95/-95/-95
f -90/-90/-90 -91/-91/-91 -92/-92/-92
f -89/-89/-89 -92/-92/-92 -91/-91/-91
f -86/-86/-86 -87/-87/-87 -88/-88/-88
f -85/-85/-85 -88/-88/-88 -87/-87/-87
f -82/-82/-82 -83/-83/-83 -84/-84/-84
f -81/-81/-81 -84/-84/-84 -83/-83/-83
f -78/-78/-78 -79/-79/-79 -80/-80/-80
f -77/-77/-77 -80/-80/-80 -79/-79/-79
f -74/-74/-74 -75/-75/-75 -76/-76/-76
f -73/-73/-73 -76/-76/-76 -75/-75/-75
f -70/-70/-70 -71/-71/-71 -72/-72/-72
f -69/-69/-69 -72/-72/-72 -71/-71/-71
f -66/-66/-66 -67/-67/-67 -68/-68/-68
f -65/-65/-65 -68/-68/-68 -67/-67/-67
f -62/-62/-62 -63/-63/-63 -64/-64/-64
f -61/-61/-61 -64/-64/-64 -63/-63/-63
f -58/-58/-58 -59/-59/-59 -60/-60/-60
f -57/-57/-57 -60/-60/-60 -59/-59/-59
f -54/-54/-54 -55/-55/-55 -56/-56/-56
f -53/-53/-53 -56/-56/-56 -55/-55/-55
f -50/-50/-50 -51/-51/-51 -52/-52/-52
f -49/-49/-49 -52/-52/-52 -51/-51/-51
f -46/-46/-46 -47/-47/-47 -48/-48/-48
f -45/-45/-45 -48/-48/-48 -47/-47/-47
f -42/-42/-42 -43/-43/-43 -44/-44/-44
f -41/-41/-41 -44/-44/-44 -43/-43/-43
f -38/-38/-38 -39/-39/-39 -40/-40/-40
f -37/-37/-37 -40/-40/-40 -39/-39/-39
f -34/-34/-34 -35/-35/-35 -36/-36/-36
f -33/-33/-33 -36/-36/-36 -35/-35/-35
f -30/-30/-30 -31/-31/-31 -32/-32/-32
f -29/-29/-29 -32/-32/-32 -31/-31/-31
f -26/-26/-26 -27/-27/-27 -28/-28/-28
f -25/-25/-25 -28/-28/-28 -27/-27/-27
f -22/-22/-22 -23/-23/-23 -24/-24/-24
f -21/-21/-21 -24/-24/-24 -23/-23/-23
f -18/-18/-18 -19/-19/-19 -20/-20/-20
f -17/-17/-17 -20/-20/-20 -19/-19/-19
f -14/-14/-14 -15/-15/-15 -16/-16/-16
f -13/-13/-13 -16/-16/-16 -15/-15/-15
f -10/-10/-10 -11/-11/-11 -12/-12/-12
f -9/-9/-9 -12/-12/-12 -11/-11/-11
f -6/-6/-6 -7/-7/-7 -8/-8/-8
f -5/-5/-5 -8/-8/-8 -7/-7/-7
f -2/-2/-2 -3/-3/-3 -4/-4/-4
f -1/-1/-1 -4/-4/-4 -3/-3/-3

