# Mesh "Goldpile" exported with Unity Assets Bundle Extractor; 118 vertices, 504 indices, 448 bits per vertex
g Goldpile
# SubMesh 0
# Vertices
v 5.610118 -0.017082 -0.869960
vt 0.765551 0.850980
vn -0.265559 0.797274 -0.542064
v 5.610118 0.107567 -0.686627
vt 0.845227 0.861238
vn -0.265755 0.946633 -0.182373
v 5.447840 -0.017082 -0.627671
vt 0.861188 0.783275
vn -0.589858 0.787502 -0.178627
v 5.631173 0.065913 -0.444338
vt 0.934483 0.868936
vn -0.173339 0.943985 0.280795
v 5.435207 -0.017082 -0.419072
vt 0.958481 0.783275
vn -0.405737 0.880800 0.244065
v 5.631173 -0.017082 -0.261003
vt 1.015825 0.873987
vn -0.116818 0.920719 0.372332
v 5.814507 0.107567 -0.627671
vt 0.862085 0.930071
vn 0.325001 0.924880 -0.197411
v 5.814507 -0.017082 -0.811005
vt 0.781406 0.934826
vn 0.307547 0.786884 -0.535003
v 5.814507 0.031866 -0.444338
vt 0.932756 0.941222
vn 0.241948 0.940942 0.236833
v 5.814507 -0.017082 -0.261005
vt 1.008452 0.949860
vn 0.186179 0.937474 0.294073
v 5.930462 -0.017082 -0.707683
vt 0.821725 0.985213
vn 0.511851 0.829532 -0.223350
v 5.989418 -0.017082 -0.461182
vt 0.919228 1.012000
vn 0.411365 0.896638 0.163769
v 7.069700 -0.031181 -1.251142
vt 0.188206 0.898646
vn -0.633080 0.658916 -0.406250
v 7.036715 0.135058 -0.902078
vt 0.166736 0.762976
vn -0.602176 0.775135 -0.191178
v 6.826957 -0.031181 -0.796199
vt 0.046748 0.800213
vn -0.615402 0.761907 -0.201934
v 7.012322 0.086910 -0.611905
vt 0.133400 0.608151
vn -0.509369 0.860503 0.008847
v 6.745000 -0.031181 -0.611009
vt -0.008029 0.571539
vn -0.438875 0.898536 -0.004661
v 6.982922 0.054837 -0.368278
vt 0.106919 0.473810
vn -0.512110 0.851329 -0.113937
v 6.717432 -0.031181 -0.365835
vt -0.022315 0.462178
vn -0.370602 0.927771 -0.043541
v 6.974207 0.100770 -0.149736
vt 0.100493 0.366122
vn -0.596879 0.793219 -0.120574
v 6.717843 -0.031181 -0.158628
vt -0.017507 0.371671
vn -0.485486 0.870247 -0.083506
v 7.023243 0.202784 0.040980
vt 0.126516 0.268117
vn -0.647977 0.716830 0.257450
v 6.774870 -0.031181 0.003360
vt -0.007216 0.302149
vn -0.599430 0.776211 0.195397
v 7.094670 0.098660 0.220273
vt 0.128857 0.168360
vn -0.528442 0.663894 0.529145
v 6.844770 -0.031181 0.174844
vt 0.007829 0.162050
vn -0.525269 0.716736 0.458675
v 7.138823 -0.031181 0.464844
vt 0.071989 0.018034
vn -0.462837 0.710857 0.529588
v 7.272544 0.306021 -0.997085
vt 0.287671 0.754248
vn -0.341326 0.901765 -0.265171
v 7.250335 -0.031181 -1.434813
vt 0.262318 0.920457
vn -0.279697 0.779752 -0.560140
v 7.285785 0.265098 -0.607635
vt 0.276021 0.580593
vn -0.454624 0.887733 -0.072443
v 7.266607 0.295028 -0.355396
vt 0.260942 0.455590
vn -0.496981 0.854689 -0.150059
v 7.245509 0.427107 -0.109564
vt 0.247961 0.337759
vn -0.356104 0.933497 -0.042110
v 7.264813 0.396361 0.129432
vt 0.244570 0.240032
vn -0.260609 0.878568 0.400252
v 7.314888 0.202405 0.328601
vt 0.242772 0.137773
vn -0.250338 0.725468 0.641114
v 7.356024 -0.031181 0.576622
vt 0.243646 -0.009577
vn -0.248242 0.764125 0.595389
v 7.548504 0.306021 -0.975926
vt 0.410784 0.723515
vn -0.014445 0.935079 -0.354144
v 7.540894 -0.031181 -1.409384
vt 0.407294 0.911289
vn -0.000097 0.803790 -0.594913
v 7.557138 0.357250 -0.605138
vt 0.407638 0.561899
vn -0.123909 0.955898 -0.266279
v 7.554577 0.512722 -0.338970
vt 0.406552 0.440188
vn -0.251346 0.960764 -0.117293
v 7.532019 0.321956 -0.091716
vt 0.374599 0.328964
vn -0.125210 0.967651 0.219028
v 7.518907 0.320021 0.158123
vt 0.359239 0.222244
vn 0.010827 0.901456 0.432736
v 7.537796 0.101422 0.401772
vt 0.358536 0.101801
vn -0.055268 0.805996 0.589335
v 7.561591 -0.031181 0.667792
vt 0.372211 0.003863
vn -0.114747 0.817689 0.564108
v 7.823861 0.261047 -1.019830
vt 0.540208 0.730535
vn 0.142964 0.923540 -0.355858
v 7.820726 -0.031181 -1.478028
vt 0.548595 0.926829
vn 0.087002 0.823691 -0.560324
v 7.825527 0.333911 -0.605138
vt 0.534817 0.552371
vn 0.219819 0.925047 -0.309787
v 7.821208 0.512722 -0.342251
vt 0.519960 0.434125
vn 0.229358 0.961901 -0.148799
v 7.807443 0.512722 -0.090135
vt 0.507175 0.337676
vn 0.144584 0.920456 0.363119
v 7.770198 0.295028 0.159879
vt 0.486238 0.219577
vn 0.074634 0.891894 0.446044
v 7.782543 0.182756 0.425121
vt 0.487664 0.103323
vn 0.004435 0.861108 0.508403
v 7.791863 -0.031181 0.694148
vt 0.486064 -0.011929
vn -0.034974 0.807102 0.589375
v 8.102856 0.211946 -0.989339
vt 0.673037 0.714517
vn 0.327928 0.885701 -0.328630
v 8.098805 -0.031181 -1.351062
vt 0.685398 0.868603
vn 0.344823 0.790555 -0.506084
v 8.093844 0.232211 -0.605604
vt 0.667267 0.546003
vn 0.367047 0.913372 -0.176148
v 8.083958 0.320838 -0.349423
vt 0.651446 0.431966
vn 0.542129 0.839876 -0.026552
v 8.046398 0.295028 -0.101739
vt 0.633695 0.323284
vn 0.553253 0.805509 0.212290
v 8.003359 0.214738 0.148653
vt 0.607876 0.212165
vn 0.292839 0.931799 0.214465
v 7.997436 0.176510 0.392786
vt 0.598243 0.108544
vn 0.122492 0.901131 0.415883
v 8.002555 -0.031181 0.646699
vt 0.592599 0.001926
vn 0.135020 0.753158 0.643835
v 8.344756 0.087346 -0.919520
vt 0.796706 0.684144
vn 0.503782 0.797268 -0.332517
v 8.297881 -0.031181 -1.187616
vt 0.782908 0.830733
vn 0.529309 0.724746 -0.441108
v 8.362055 0.190515 -0.607810
vt 0.796147 0.540317
vn 0.485561 0.870766 -0.077443
v 8.350623 0.119613 -0.351619
vt 0.796548 0.426101
vn 0.502993 0.855776 0.121019
v 8.326965 0.058921 -0.105052
vt 0.792569 0.314518
vn 0.491092 0.868657 0.065292
v 8.261585 0.186599 0.121541
vt 0.740555 0.210959
vn 0.408246 0.912695 0.017956
v 8.211159 0.211603 0.335702
vt 0.706589 0.120005
vn 0.379078 0.838181 0.392113
v 8.201181 -0.031181 0.577280
vt 0.710203 -0.003988
vn 0.375338 0.665142 0.645529
v 8.550594 -0.031181 -0.821256
vt 0.909077 0.629116
vn 0.598574 0.727545 -0.335243
v 8.630023 -0.031181 -0.605993
vt 0.943240 0.531386
vn 0.593975 0.802141 -0.061344
v 8.618777 -0.031181 -0.351914
vt 0.935970 0.420235
vn 0.485902 0.862261 0.142846
v 8.600137 -0.031181 -0.107254
vt 0.931954 0.312723
vn 0.447890 0.893887 0.018990
v 8.535950 -0.031181 0.107705
vt 0.907020 0.214278
vn 0.576879 0.816685 0.015386
v 8.469571 -0.031181 0.308889
vt 0.870432 0.075665
vn 0.639305 0.671897 0.373956
v 6.309755 0.540887 -0.124675
vt 0.160868 0.247682
vn 0.665468 0.286830 -0.689116
v 6.355669 0.728026 -0.002443
vt 0.219408 0.316396
vn 0.180875 0.716874 -0.673332
v 6.317277 0.593156 -0.129603
vt 0.182552 0.254685
vn 0.091172 0.628235 -0.772663
v 6.478002 0.592870 0.025487
vt 0.156393 0.347014
vn 0.631302 0.327061 -0.703199
v 6.355669 0.728026 -0.002443
vt 0.219408 0.316396
vn 0.180875 0.716874 -0.673332
v 6.603878 0.789345 0.230888
vt 0.228260 0.441169
vn 0.356620 0.782808 -0.509935
v 6.647021 0.592870 0.170824
vt 0.149210 0.438700
vn 0.616348 0.367420 -0.696504
v 6.269479 0.870706 0.609921
vt 0.406942 0.446145
vn -0.112485 0.992859 -0.039735
v 6.020963 0.725848 0.357182
vt 0.405175 0.303968
vn -0.384567 0.858607 -0.338973
v 6.317277 0.593156 -0.129603
vt 0.182552 0.254685
vn 0.091172 0.628235 -0.772663
v 5.907669 0.566018 0.242673
vt 0.395167 0.210016
vn -0.549491 0.654319 -0.519544
v 5.660098 0.747453 0.721710
vt 0.616232 0.313963
vn -0.368572 0.882846 -0.291097
v 5.569408 0.530299 0.615015
vt 0.628572 0.207961
vn -0.591626 0.611855 -0.524988
v 5.486987 0.719327 0.931532
vt 0.719649 0.335166
vn -0.343103 0.877518 -0.335027
v 5.369984 0.589344 0.879812
vt 0.752091 0.270777
vn -0.605813 0.530592 -0.592843
v 5.241022 0.735862 1.096561
vt 0.817618 0.337050
vn -0.650916 0.748412 0.127231
v 5.202554 0.543396 1.066667
vt 0.846170 0.284162
vn -0.807335 0.564160 -0.173013
v 5.906777 0.701319 0.974699
vt 0.605916 0.448167
vn -0.087485 0.995679 -0.031128
v 5.707051 0.749313 1.174748
vt 0.711708 0.456957
vn -0.065448 0.993194 -0.096345
v 5.516019 0.710071 1.392188
vt 0.816086 0.471913
vn -0.472017 0.781441 0.408105
v 6.762820 0.773816 0.378110
vt 0.229702 0.517368
vn 0.519825 0.760145 -0.389821
v 6.820058 0.562943 0.311105
vt 0.146247 0.530386
vn 0.633905 0.337772 -0.695755
v 6.068804 0.718395 1.126947
vt 0.597607 0.530393
vn 0.005301 0.999968 0.005976
v 6.429624 0.870706 0.753755
vt 0.403932 0.519378
vn 0.084268 0.988330 0.126896
v 5.854666 0.813422 1.313886
vt 0.704121 0.531413
vn -0.006664 0.997865 -0.064976
v 5.676330 0.769193 1.513740
vt 0.793935 0.542160
vn -0.461130 0.750411 0.473543
v 6.977710 0.706142 0.511948
vt 0.213920 0.600787
vn 0.761085 0.629055 -0.158240
v 6.937728 0.530270 0.427822
vt 0.151262 0.597406
vn 0.696846 0.320713 -0.641521
v 6.590136 0.743021 0.892584
vt 0.399895 0.605210
vn 0.498940 0.733260 0.461941
v 6.281445 0.747900 1.307985
vt 0.586395 0.631278
vn 0.458063 0.786839 0.413599
v 6.000425 0.757596 1.433493
vt 0.692089 0.599245
vn 0.371165 0.872111 0.318840
v 5.803716 0.739162 1.642349
vt 0.793332 0.603591
vn -0.217457 0.765757 0.605251
v 7.003414 0.583746 0.547513
vt 0.202883 0.640403
vn 0.881047 0.472417 0.024066
v 7.074734 0.509140 0.526401
vt 0.167810 0.673566
vn 0.756809 0.331400 -0.563396
v 6.684085 0.514471 0.976595
vt 0.388630 0.699303
vn 0.688707 0.366550 0.625559
v 6.321200 0.407801 1.340263
vt 0.575932 0.756318
vn 0.678760 0.364389 0.637578
v 6.167211 0.578573 1.542665
vt 0.677548 0.698255
vn 0.571308 0.630502 0.525428
v 5.903815 0.661168 1.740570
vt 0.799450 0.660494
vn -0.061487 0.754255 0.653696
v 5.647871 0.561643 1.551809
vt 0.867406 0.552641
vn -0.651977 0.277208 0.705749
v 5.474823 0.507522 1.447901
vt 0.895041 0.480170
vn -0.618207 0.330663 0.713079
v 5.330440 0.574717 1.295209
vt 0.875027 0.402301
vn -0.717952 0.453655 0.527960
v 5.756826 0.557487 1.689448
vt 0.860056 0.619176
vn -0.634964 0.370049 0.678147
v 5.846220 0.580839 1.781521
vt 0.840962 0.666643
vn -0.561732 0.456000 0.690305
v 5.202554 0.543396 1.066667
vt 0.846170 0.284162
vn -0.807335 0.564160 -0.173013
v 5.330440 0.574717 1.295209
vt 0.875027 0.402301
vn -0.717952 0.453655 0.527960
v 5.150372 0.560098 1.146512
vt 0.874713 0.313433
vn -0.780097 0.506655 0.367082
# Faces (1 to 118)
g Goldpile_0
f -116/-116/-116 -117/-117/-117 -118/-118/-118
f -115/-115/-115 -117/-117/-117 -116/-116/-116
f -114/-114/-114 -115/-115/-115 -116/-116/-116
f -113/-113/-113 -115/-115/-115 -114/-114/-114
f -117/-117/-117 -112/-112/-112 -118/-118/-118
f -112/-112/-112 -111/-111/-111 -118/-118/-118
f -115/-115/-115 -110/-110/-110 -117/-117/-117
f -110/-110/-110 -112/-112/-112 -117/-117/-117
f -113/-113/-113 -109/-109/-109 -115/-115/-115
f -109/-109/-109 -110/-110/-110 -115/-115/-115
f -112/-112/-112 -108/-108/-108 -111/-111/-111
f -110/-110/-110 -107/-107/-107 -112/-112/-112
f -107/-107/-107 -108/-108/-108 -112/-112/-112
f -109/-109/-109 -107/-107/-107 -110/-110/-110
f -104/-104/-104 -105/-105/-105 -106/-106/-106
f -103/-103/-103 -105/-105/-105 -104/-104/-104
f -102/-102/-102 -103/-103/-103 -104/-104/-104
f -101/-101/-101 -103/-103/-103 -102/-102/-102
f -100/-100/-100 -101/-101/-101 -102/-102/-102
f -99/-99/-99 -101/-101/-101 -100/-100/-100
f -98/-98/-98 -99/-99/-99 -100/-100/-100
f -97/-97/-97 -99/-99/-99 -98/-98/-98
f -96/-96/-96 -97/-97/-97 -98/-98/-98
f -95/-95/-95 -97/-97/-97 -96/-96/-96
f -94/-94/-94 -95/-95/-95 -96/-96/-96
f -93/-93/-93 -95/-95/-95 -94/-94/-94
f -105/-105/-105 -92/-92/-92 -106/-106/-106
f -92/-92/-92 -91/-91/-91 -106/-106/-106
f -103/-103/-103 -90/-90/-90 -105/-105/-105
f -90/-90/-90 -92/-92/-92 -105/-105/-105
f -101/-101/-101 -89/-89/-89 -103/-103/-103
f -89/-89/-89 -90/-90/-90 -103/-103/-103
f -99/-99/-99 -88/-88/-88 -101/-101/-101
f -88/-88/-88 -89/-89/-89 -101/-101/-101
f -97/-97/-97 -87/-87/-87 -99/-99/-99
f -87/-87/-87 -88/-88/-88 -99/-99/-99
f -95/-95/-95 -86/-86/-86 -97/-97/-97
f -86/-86/-86 -87/-87/-87 -97/-97/-97
f -93/-93/-93 -85/-85/-85 -95/-95/-95
f -85/-85/-85 -86/-86/-86 -95/-95/-95
f -92/-92/-92 -84/-84/-84 -91/-91/-91
f -84/-84/-84 -83/-83/-83 -91/-91/-91
f -90/-90/-90 -82/-82/-82 -92/-92/-92
f -82/-82/-82 -84/-84/-84 -92/-92/-92
f -89/-89/-89 -81/-81/-81 -90/-90/-90
f -81/-81/-81 -82/-82/-82 -90/-90/-90
f -88/-88/-88 -80/-80/-80 -89/-89/-89
f -80/-80/-80 -81/-81/-81 -89/-89/-89
f -87/-87/-87 -79/-79/-79 -88/-88/-88
f -79/-79/-79 -80/-80/-80 -88/-88/-88
f -86/-86/-86 -78/-78/-78 -87/-87/-87
f -78/-78/-78 -79/-79/-79 -87/-87/-87
f -85/-85/-85 -77/-77/-77 -86/-86/-86
f -77/-77/-77 -78/-78/-78 -86/-86/-86
f -84/-84/-84 -76/-76/-76 -83/-83/-83
f -76/-76/-76 -75/-75/-75 -83/-83/-83
f -82/-82/-82 -74/-74/-74 -84/-84/-84
f -74/-74/-74 -76/-76/-76 -84/-84/-84
f -81/-81/-81 -73/-73/-73 -82/-82/-82
f -73/-73/-73 -74/-74/-74 -82/-82/-82
f -80/-80/-80 -72/-72/-72 -81/-81/-81
f -72/-72/-72 -73/-73/-73 -81/-81/-81
f -79/-79/-79 -71/-71/-71 -80/-80/-80
f -71/-71/-71 -72/-72/-72 -80/-80/-80
f -78/-78/-78 -70/-70/-70 -79/-79/-79
f -70/-70/-70 -71/-71/-71 -79/-79/-79
f -77/-77/-77 -69/-69/-69 -78/-78/-78
f -69/-69/-69 -70/-70/-70 -78/-78/-78
f -76/-76/-76 -68/-68/-68 -75/-75/-75
f -68/-68/-68 -67/-67/-67 -75/-75/-75
f -74/-74/-74 -66/-66/-66 -76/-76/-76
f -66/-66/-66 -68/-68/-68 -76/-76/-76
f -73/-73/-73 -65/-65/-65 -74/-74/-74
f -65/-65/-65 -66/-66/-66 -74/-74/-74
f -72/-72/-72 -64/-64/-64 -73/-73/-73
f -64/-64/-64 -65/-65/-65 -73/-73/-73
f -71/-71/-71 -63/-63/-63 -72/-72/-72
f -63/-63/-63 -64/-64/-64 -72/-72/-72
f -70/-70/-70 -62/-62/-62 -71/-71/-71
f -62/-62/-62 -63/-63/-63 -71/-71/-71
f -69/-69/-69 -61/-61/-61 -70/-70/-70
f -61/-61/-61 -62/-62/-62 -70/-70/-70
f -68/-68/-68 -60/-60/-60 -67/-67/-67
f -60/-60/-60 -59/-59/-59 -67/-67/-67
f -66/-66/-66 -58/-58/-58 -68/-68/-68
f -58/-58/-58 -60/-60/-60 -68/-68/-68
f -65/-65/-65 -57/-57/-57 -66/-66/-66
f -57/-57/-57 -58/-58/-58 -66/-66/-66
f -64/-64/-64 -56/-56/-56 -65/-65/-65
f -56/-56/-56 -57/-57/-57 -65/-65/-65
f -63/-63/-63 -55/-55/-55 -64/-64/-64
f -55/-55/-55 -56/-56/-56 -64/-64/-64
f -62/-62/-62 -54/-54/-54 -63/-63/-63
f -54/-54/-54 -55/-55/-55 -63/-63/-63
f -61/-61/-61 -53/-53/-53 -62/-62/-62
f -53/-53/-53 -54/-54/-54 -62/-62/-62
f -60/-60/-60 -52/-52/-52 -59/-59/-59
f -58/-58/-58 -51/-51/-51 -60/-60/-60
f -51/-51/-51 -52/-52/-52 -60/-60/-60
f -57/-57/-57 -50/-50/-50 -58/-58/-58
f -50/-50/-50 -51/-51/-51 -58/-58/-58
f -56/-56/-56 -49/-49/-49 -57/-57/-57
f -49/-49/-49 -50/-50/-50 -57/-57/-57
f -55/-55/-55 -48/-48/-48 -56/-56/-56
f -48/-48/-48 -49/-49/-49 -56/-56/-56
f -54/-54/-54 -47/-47/-47 -55/-55/-55
f -47/-47/-47 -48/-48/-48 -55/-55/-55
f -53/-53/-53 -47/-47/-47 -54/-54/-54
f -44/-44/-44 -45/-45/-45 -46/-46/-46
f -42/-42/-42 -43/-43/-43 -46/-46/-46
f -42/-42/-42 -41/-41/-41 -43/-43/-43
f -41/-41/-41 -40/-40/-40 -43/-43/-43
f -39/-39/-39 -41/-41/-41 -42/-42/-42
f -38/-38/-38 -39/-39/-39 -42/-42/-42
f -38/-38/-38 -42/-42/-42 -37/-37/-37
f -36/-36/-36 -38/-38/-38 -37/-37/-37
f -35/-35/-35 -38/-38/-38 -36/-36/-36
f -34/-34/-34 -35/-35/-35 -36/-36/-36
f -33/-33/-33 -35/-35/-35 -34/-34/-34
f -32/-32/-32 -33/-33/-33 -34/-34/-34
f -31/-31/-31 -33/-33/-33 -32/-32/-32
f -30/-30/-30 -31/-31/-31 -32/-32/-32
f -35/-35/-35 -29/-29/-29 -38/-38/-38
f -29/-29/-29 -39/-39/-39 -38/-38/-38
f -33/-33/-33 -28/-28/-28 -35/-35/-35
f -28/-28/-28 -29/-29/-29 -35/-35/-35
f -31/-31/-31 -27/-27/-27 -33/-33/-33
f -27/-27/-27 -28/-28/-28 -33/-33/-33
f -41/-41/-41 -26/-26/-26 -40/-40/-40
f -26/-26/-26 -25/-25/-25 -40/-40/-40
f -29/-29/-29 -24/-24/-24 -39/-39/-39
f -24/-24/-24 -23/-23/-23 -39/-39/-39
f -23/-23/-23 -26/-26/-26 -41/-41/-41
f -39/-39/-39 -23/-23/-23 -41/-41/-41
f -28/-28/-28 -22/-22/-22 -29/-29/-29
f -22/-22/-22 -24/-24/-24 -29/-29/-29
f -27/-27/-27 -21/-21/-21 -28/-28/-28
f -21/-21/-21 -22/-22/-22 -28/-28/-28
f -26/-26/-26 -20/-20/-20 -25/-25/-25
f -20/-20/-20 -19/-19/-19 -25/-25/-25
f -23/-23/-23 -18/-18/-18 -26/-26/-26
f -18/-18/-18 -20/-20/-20 -26/-26/-26
f -24/-24/-24 -17/-17/-17 -23/-23/-23
f -17/-17/-17 -18/-18/-18 -23/-23/-23
f -22/-22/-22 -16/-16/-16 -24/-24/-24
f -16/-16/-16 -17/-17/-17 -24/-24/-24
f -21/-21/-21 -15/-15/-15 -22/-22/-22
f -15/-15/-15 -16/-16/-16 -22/-22/-22
f -20/-20/-20 -14/-14/-14 -19/-19/-19
f -14/-14/-14 -13/-13/-13 -19/-19/-19
f -18/-18/-18 -12/-12/-12 -20/-20/-20
f -12/-12/-12 -14/-14/-14 -20/-20/-20
f -17/-17/-17 -11/-11/-11 -18/-18/-18
f -11/-11/-11 -12/-12/-12 -18/-18/-18
f -16/-16/-16 -10/-10/-10 -17/-17/-17
f -10/-10/-10 -11/-11/-11 -17/-17/-17
f -15/-15/-15 -9/-9/-9 -16/-16/-16
f -9/-9/-9 -10/-10/-10 -16/-16/-16
f -21/-21/-21 -8/-8/-8 -15/-15/-15
f -7/-7/-7 -8/-8/-8 -21/-21/-21
f -27/-27/-27 -7/-7/-7 -21/-21/-21
f -6/-6/-6 -7/-7/-7 -27/-27/-27
f -31/-31/-31 -6/-6/-6 -27/-27/-27
f -6/-6/-6 -31/-31/-31 -30/-30/-30
f -8/-8/-8 -5/-5/-5 -15/-15/-15
f -15/-15/-15 -5/-5/-5 -9/-9/-9
f -5/-5/-5 -4/-4/-4 -9/-9/-9
f -1/-1/-1 -2/-2/-2 -3/-3/-3

