# Mesh "LevelFloor2" exported with Unity Assets Bundle Extractor; 148 vertices, 504 indices, 448 bits per vertex
g LevelFloor2
# SubMesh 0
# Vertices
v 20.260727 6.840641 -14.167107
vt 0.646397 0.742007
vn -0.000000 -1.000000 0.000000
v 20.260731 6.840641 -18.214920
vt 0.646398 0.712150
vn -0.000000 -1.000000 0.000000
v 16.212965 6.840641 -14.167132
vt 0.616541 0.742007
vn -0.000000 -1.000000 0.000000
v 16.212967 6.840641 -6.071537
vt 0.616541 0.801720
vn -0.000000 -1.000000 0.000000
v 20.260731 6.840641 -6.071605
vt 0.646397 0.801720
vn -0.000000 -1.000000 0.000000
v 14.189089 6.840641 -16.190992
vt 0.601613 0.727079
vn -0.000000 -1.000000 0.000000
v 18.236877 6.840641 -20.238731
vt 0.631470 0.697223
vn -0.000000 -1.000000 0.000000
v 6.093570 6.840641 -20.238762
vt 0.541900 0.697222
vn -0.000000 -1.000000 0.000000
v 6.093538 6.840641 -16.190977
vt 0.541900 0.727079
vn -0.000000 -1.000000 0.000000
v -0.000000 6.840641 -20.238731
vt 0.496954 0.697223
vn -0.000000 -1.000000 0.000000
v -0.000000 6.840641 -16.190975
vt 0.496954 0.727079
vn -0.000000 -1.000000 0.000000
v 16.212967 6.840641 8.095551
vt 0.616541 0.906217
vn -0.000000 -1.000000 0.000000
v 14.189118 6.840641 -4.047698
vt 0.601613 0.816648
vn -0.000000 -1.000000 0.000000
v 14.189119 6.840641 6.071701
vt 0.601613 0.891289
vn -0.000000 -1.000000 0.000000
v 11.138851 6.840641 -4.047699
vt 0.579114 0.816648
vn -0.000000 -1.000000 0.000000
v 8.117481 6.840641 6.071701
vt 0.556829 0.891289
vn -0.000000 -1.000000 0.000000
v 20.260731 6.840641 6.071634
vt 0.646397 0.891288
vn -0.000000 -1.000000 0.000000
v 22.284611 6.840641 4.047813
vt 0.661326 0.876361
vn -0.000000 -1.000000 0.000000
v 22.284611 6.840641 -4.047639
vt 0.661326 0.816648
vn -0.000000 -1.000000 0.000000
v 16.212971 6.840641 16.191055
vt 0.616541 0.965929
vn -0.000000 -1.000000 0.000000
v 20.260731 6.840641 16.191055
vt 0.646397 0.965929
vn -0.000000 -1.000000 0.000000
v 5.081630 6.840641 -3.040966
vt 0.534436 0.824074
vn -0.000000 -1.000000 0.000000
v 5.081631 6.840641 2.023922
vt 0.534436 0.861432
vn -0.000000 -1.000000 0.000000
v 5.091594 6.840641 4.049224
vt 0.534510 0.876371
vn -0.000000 -1.000000 0.000000
v 3.057750 6.840641 4.047790
vt 0.519508 0.876360
vn -0.000000 -1.000000 0.000000
v 6.093570 6.840641 8.095608
vt 0.541900 0.906217
vn -0.000000 -1.000000 0.000000
v 3.057750 6.840641 2.782899
vt 0.519508 0.867030
vn -0.000000 -1.000000 0.000000
v 9.129391 6.840641 -5.052336
vt 0.564293 0.809238
vn -0.000000 -1.000000 0.000000
v 4.075224 6.840641 -4.047688
vt 0.527013 0.816648
vn -0.000000 -1.000000 0.000000
v 4.069690 6.840641 -10.119486
vt 0.526972 0.771862
vn -0.000000 -1.000000 0.000000
v 3.611092 6.840641 2.023955
vt 0.523589 0.861432
vn -0.000000 -1.000000 0.000000
v 3.245631 6.840641 2.232775
vt 0.520894 0.862973
vn -0.000000 -1.000000 0.000000
v 3.057750 6.840641 2.561572
vt 0.519508 0.865398
vn -0.000000 -1.000000 0.000000
v -0.000000 6.840641 8.095608
vt 0.496954 0.906217
vn -0.000000 -1.000000 0.000000
v -0.000000 6.840641 4.047824
vt 0.496954 0.876361
vn -0.000000 -1.000000 0.000000
v -0.000000 6.840641 -4.047689
vt 0.496954 0.816648
vn -0.000000 -1.000000 0.000000
v -0.000000 6.840641 -10.119408
vt 0.496954 0.771863
vn -0.000000 -1.000000 0.000000
v 4.069689 6.840641 -14.167107
vt 0.526972 0.742007
vn -0.000000 -1.000000 0.000000
v -0.000000 6.840641 -14.167107
vt 0.496954 0.742007
vn -0.000000 -1.000000 0.000000
v -4.069689 6.840641 -14.167107
vt 0.466936 0.742007
vn -0.000000 -1.000000 0.000000
v -4.069690 6.840641 -10.119486
vt 0.466936 0.771862
vn -0.000000 -1.000000 0.000000
v -6.093538 6.840641 -16.190977
vt 0.452008 0.727079
vn -0.000000 -1.000000 0.000000
v -6.093570 6.840641 -20.238762
vt 0.452008 0.697222
vn -0.000000 -1.000000 0.000000
v -14.189089 6.840641 -16.190992
vt 0.392295 0.727079
vn -0.000000 -1.000000 0.000000
v -18.236877 6.840641 -20.238731
vt 0.362439 0.697223
vn -0.000000 -1.000000 0.000000
v -20.260731 6.840641 -18.214918
vt 0.347511 0.712150
vn -0.000000 -1.000000 0.000000
v -16.212965 6.840641 -14.167132
vt 0.377367 0.742007
vn -0.000000 -1.000000 0.000000
v -20.260727 6.840641 -14.167107
vt 0.347511 0.742007
vn -0.000000 -1.000000 0.000000
v -16.212967 6.840641 -6.071537
vt 0.377367 0.801720
vn -0.000000 -1.000000 0.000000
v -20.260731 6.840641 -6.071605
vt 0.347511 0.801720
vn -0.000000 -1.000000 0.000000
v -16.212967 6.840641 8.095551
vt 0.377367 0.906217
vn -0.000000 -1.000000 0.000000
v -14.189118 6.840641 -4.047698
vt 0.392295 0.816648
vn -0.000000 -1.000000 0.000000
v -14.189119 6.840641 6.071702
vt 0.392295 0.891289
vn -0.000000 -1.000000 0.000000
v -11.138851 6.840641 -4.047698
vt 0.414794 0.816648
vn -0.000000 -1.000000 0.000000
v -8.117481 6.840641 6.071701
vt 0.437080 0.891289
vn -0.000000 -1.000000 0.000000
v -20.260731 6.840641 6.071634
vt 0.347511 0.891288
vn -0.000000 -1.000000 0.000000
v -22.284611 6.840641 4.047814
vt 0.332583 0.876361
vn -0.000000 -1.000000 0.000000
v -22.284611 6.840641 -4.047640
vt 0.332583 0.816648
vn -0.000000 -1.000000 0.000000
v -16.212971 6.840641 16.191055
vt 0.377367 0.965929
vn -0.000000 -1.000000 0.000000
v -20.260731 6.840641 16.191055
vt 0.347511 0.965929
vn -0.000000 -1.000000 0.000000
v -5.081630 6.840641 -3.040966
vt 0.459472 0.824074
vn -0.000000 -1.000000 0.000000
v -5.081631 6.840641 2.023922
vt 0.459472 0.861432
vn -0.000000 -1.000000 0.000000
v -5.091594 6.840641 4.049224
vt 0.459398 0.876371
vn -0.000000 -1.000000 0.000000
v -3.057750 6.840641 4.047790
vt 0.474400 0.876360
vn -0.000000 -1.000000 0.000000
v -6.093570 6.840641 8.095608
vt 0.452008 0.906217
vn -0.000000 -1.000000 0.000000
v -3.057750 6.840641 2.782899
vt 0.474400 0.867031
vn -0.000000 -1.000000 0.000000
v -9.129391 6.840641 -5.052337
vt 0.429616 0.809238
vn -0.000000 -1.000000 0.000000
v -4.075224 6.840641 -4.047688
vt 0.466895 0.816648
vn -0.000000 -1.000000 0.000000
v -3.611092 6.840641 2.023955
vt 0.470319 0.861432
vn -0.000000 -1.000000 0.000000
v -3.245631 6.840641 2.232775
vt 0.473014 0.862973
vn -0.000000 -1.000000 0.000000
v -3.057750 6.840641 2.561572
vt 0.474400 0.865398
vn -0.000000 -1.000000 0.000000
v 4.069721 6.840641 -22.262619
vt 0.526972 0.682294
vn -0.000000 -1.000000 0.000000
v -0.000000 6.840641 -22.262650
vt 0.496954 0.682294
vn -0.000000 -1.000000 0.000000
v -4.069721 6.840641 -22.262619
vt 0.466936 0.682294
vn -0.000000 -1.000000 0.000000
v 16.212967 7.840641 -14.167107
vt 0.050666 0.432574
vn -0.000000 1.000000 0.000000
v 20.260731 7.840641 -18.214920
vt 0.020810 0.402717
vn -0.000000 1.000000 0.000000
v 20.260727 7.840641 -14.167106
vt 0.020810 0.432574
vn -0.000000 1.000000 0.000000
v 16.212967 7.840641 -6.071537
vt 0.050666 0.492287
vn -0.000000 1.000000 0.000000
v 20.260731 7.840641 -6.071538
vt 0.020810 0.492287
vn -0.000000 1.000000 0.000000
v 14.189089 7.840641 -16.190956
vt 0.065595 0.417646
vn -0.000000 1.000000 0.000000
v 18.236877 7.840641 -20.238731
vt 0.035738 0.387789
vn -0.000000 1.000000 0.000000
v 6.093601 7.840641 -20.238731
vt 0.125307 0.387789
vn -0.000000 1.000000 0.000000
v 6.093538 7.840641 -16.190977
vt 0.125308 0.417646
vn -0.000000 1.000000 0.000000
v -0.000000 7.840641 -20.238731
vt 0.170253 0.387789
vn -0.000000 1.000000 0.000000
v -0.000000 7.840641 -16.190975
vt 0.170253 0.417646
vn -0.000000 1.000000 0.000000
v 16.212967 7.840641 8.095551
vt 0.050666 0.596784
vn -0.000000 1.000000 0.000000
v 14.189118 7.840641 -4.047698
vt 0.065594 0.507215
vn -0.000000 1.000000 0.000000
v 14.189119 7.840641 6.071701
vt 0.065594 0.581855
vn -0.000000 1.000000 0.000000
v 11.138851 7.840641 -4.047698
vt 0.088093 0.507215
vn -0.000000 1.000000 0.000000
v 8.117481 7.840641 6.071701
vt 0.110379 0.581855
vn -0.000000 1.000000 0.000000
v 20.260731 7.840641 6.071663
vt 0.020810 0.581855
vn -0.000000 1.000000 0.000000
v 22.284611 7.840641 4.047813
vt 0.005882 0.566927
vn -0.000000 1.000000 0.000000
v 22.284611 7.840641 -4.047641
vt 0.005882 0.507215
vn -0.000000 1.000000 0.000000
v 16.212967 7.840641 16.191082
vt 0.050666 0.656496
vn -0.000000 1.000000 0.000000
v 20.260731 7.840641 16.191082
vt 0.020810 0.656496
vn -0.000000 1.000000 0.000000
v 5.081630 7.840641 -3.040966
vt 0.132771 0.514640
vn -0.000000 1.000000 0.000000
v 5.081631 7.840641 2.023955
vt 0.132771 0.551999
vn -0.000000 1.000000 0.000000
v 5.091594 7.840641 4.049223
vt 0.132698 0.566938
vn -0.000000 1.000000 0.000000
v 3.057750 7.840641 4.047824
vt 0.147700 0.566927
vn -0.000000 1.000000 0.000000
v 6.093570 7.840641 8.095608
vt 0.125307 0.596784
vn -0.000000 1.000000 0.000000
v 3.057750 7.840641 2.782897
vt 0.147699 0.557597
vn -0.000000 1.000000 0.000000
v 9.129391 7.840641 -5.052336
vt 0.102915 0.499804
vn -0.000000 1.000000 0.000000
v 4.075224 7.840641 -4.047688
vt 0.140195 0.507215
vn -0.000000 1.000000 0.000000
v 3.611092 7.840641 2.023956
vt 0.143618 0.551999
vn -0.000000 1.000000 0.000000
v 3.245631 7.840641 2.232776
vt 0.146314 0.553539
vn -0.000000 1.000000 0.000000
v 3.057750 7.840641 2.561571
vt 0.147699 0.555965
vn -0.000000 1.000000 0.000000
v 4.069690 7.840641 -10.119486
vt 0.140235 0.462429
vn -0.000000 1.000000 0.000000
v -0.000000 7.840641 4.047822
vt 0.170254 0.566927
vn -0.000000 1.000000 0.000000
v -0.000000 7.840641 8.095608
vt 0.170253 0.596784
vn -0.000000 1.000000 0.000000
v -0.000000 7.840641 -10.119408
vt 0.170254 0.462430
vn -0.000000 1.000000 0.000000
v -0.000000 7.840641 -14.167107
vt 0.170253 0.432574
vn -0.000000 1.000000 0.000000
v 4.069689 7.840641 -14.167107
vt 0.140235 0.432574
vn -0.000000 1.000000 0.000000
v -0.000000 7.840641 -4.047688
vt 0.170253 0.507215
vn -0.000000 1.000000 0.000000
v -4.069690 7.840641 -10.119486
vt 0.200272 0.462429
vn -0.000000 1.000000 0.000000
v -4.069689 7.840641 -14.167107
vt 0.200272 0.432574
vn -0.000000 1.000000 0.000000
v -6.093538 7.840641 -16.190977
vt 0.215200 0.417646
vn -0.000000 1.000000 0.000000
v -6.093601 7.840641 -20.238731
vt 0.215200 0.387789
vn -0.000000 1.000000 0.000000
v -14.189089 7.840641 -16.190956
vt 0.274912 0.417646
vn -0.000000 1.000000 0.000000
v -18.236877 7.840641 -20.238731
vt 0.304769 0.387789
vn -0.000000 1.000000 0.000000
v -20.260731 7.840641 -18.214920
vt 0.319697 0.402717
vn -0.000000 1.000000 0.000000
v -16.212967 7.840641 -14.167109
vt 0.289840 0.432574
vn -0.000000 1.000000 0.000000
v -20.260727 7.840641 -14.167107
vt 0.319697 0.432574
vn -0.000000 1.000000 0.000000
v -16.212967 7.840641 -6.071537
vt 0.289840 0.492287
vn -0.000000 1.000000 0.000000
v -20.260731 7.840641 -6.071537
vt 0.319697 0.492287
vn -0.000000 1.000000 0.000000
v -16.212967 7.840641 8.095551
vt 0.289841 0.596783
vn -0.000000 1.000000 0.000000
v -14.189118 7.840641 -4.047698
vt 0.274913 0.507215
vn -0.000000 1.000000 0.000000
v -14.189119 7.840641 6.071701
vt 0.274913 0.581855
vn -0.000000 1.000000 0.000000
v -11.138851 7.840641 -4.047698
vt 0.252414 0.507215
vn -0.000000 1.000000 0.000000
v -8.117481 7.840641 6.071701
vt 0.230128 0.581855
vn -0.000000 1.000000 0.000000
v -20.260731 7.840641 6.071663
vt 0.319697 0.581855
vn -0.000000 1.000000 0.000000
v -22.284611 7.840641 4.047813
vt 0.334625 0.566927
vn -0.000000 1.000000 0.000000
v -22.284611 7.840641 -4.047640
vt 0.334625 0.507215
vn -0.000000 1.000000 0.000000
v -16.212967 7.840641 16.191082
vt 0.289841 0.656496
vn -0.000000 1.000000 0.000000
v -20.260731 7.840641 16.191082
vt 0.319697 0.656496
vn -0.000000 1.000000 0.000000
v -5.081630 7.840641 -3.040966
vt 0.207736 0.514640
vn -0.000000 1.000000 0.000000
v -5.081631 7.840641 2.023955
vt 0.207736 0.551999
vn -0.000000 1.000000 0.000000
v -5.091594 7.840641 4.049223
vt 0.207809 0.566938
vn -0.000000 1.000000 0.000000
v -3.057750 7.840641 4.047824
vt 0.192808 0.566927
vn -0.000000 1.000000 0.000000
v -6.093570 7.840641 8.095609
vt 0.215200 0.596784
vn -0.000000 1.000000 0.000000
v -3.057750 7.840641 2.782897
vt 0.192808 0.557597
vn -0.000000 1.000000 0.000000
v -9.129391 7.840641 -5.052335
vt 0.237592 0.499804
vn -0.000000 1.000000 0.000000
v -4.075224 7.840641 -4.047688
vt 0.200312 0.507215
vn -0.000000 1.000000 0.000000
v -3.611092 7.840641 2.023956
vt 0.196889 0.551999
vn -0.000000 1.000000 0.000000
v -3.245631 7.840641 2.232776
vt 0.194193 0.553540
vn -0.000000 1.000000 0.000000
v -3.057750 7.840641 2.561571
vt 0.192808 0.555965
vn -0.000000 1.000000 0.000000
v -0.000000 7.840641 -22.262619
vt 0.170253 0.372861
vn -0.000000 1.000000 0.000000
v 4.069721 7.840641 -22.262619
vt 0.140235 0.372861
vn -0.000000 1.000000 0.000000
v -4.069721 7.840641 -22.262619
vt 0.200272 0.372861
vn -0.000000 1.000000 0.000000
# Faces (1 to 148)
g LevelFloor2_0
f -146/-146/-146 -147/-147/-147 -148/-148/-148
f -148/-148/-148 -145/-145/-145 -146/-146/-146
f -148/-148/-148 -144/-144/-144 -145/-145/-145
f -146/-146/-146 -143/-143/-143 -147/-147/-147
f -143/-143/-143 -142/-142/-142 -147/-147/-147
f -141/-141/-141 -142/-142/-142 -143/-143/-143
f -140/-140/-140 -141/-141/-141 -143/-143/-143
f -139/-139/-139 -141/-141/-141 -140/-140/-140
f -138/-138/-138 -139/-139/-139 -140/-140/-140
f -137/-137/-137 -145/-145/-145 -144/-144/-144
f -145/-145/-145 -137/-137/-137 -136/-136/-136
f -137/-137/-137 -135/-135/-135 -136/-136/-136
f -136/-136/-136 -135/-135/-135 -134/-134/-134
f -135/-135/-135 -133/-133/-133 -134/-134/-134
f -132/-132/-132 -137/-137/-137 -144/-144/-144
f -131/-131/-131 -132/-132/-132 -144/-144/-144
f -130/-130/-130 -131/-131/-131 -144/-144/-144
f -129/-129/-129 -137/-137/-137 -132/-132/-132
f -128/-128/-128 -129/-129/-129 -132/-132/-132
f -127/-127/-127 -134/-134/-134 -133/-133/-133
f -126/-126/-126 -127/-127/-127 -133/-133/-133
f -125/-125/-125 -126/-126/-126 -133/-133/-133
f -125/-125/-125 -133/-133/-133 -124/-124/-124
f -133/-133/-133 -123/-123/-123 -124/-124/-124
f -124/-124/-124 -122/-122/-122 -125/-125/-125
f -134/-134/-134 -127/-127/-127 -121/-121/-121
f -127/-127/-127 -120/-120/-120 -121/-121/-121
f -121/-121/-121 -120/-120/-120 -119/-119/-119
f -118/-118/-118 -126/-126/-126 -125/-125/-125
f -117/-117/-117 -118/-118/-118 -125/-125/-125
f -116/-116/-116 -117/-117/-117 -125/-125/-125
f -122/-122/-122 -116/-116/-116 -125/-125/-125
f -124/-124/-124 -123/-123/-123 -115/-115/-115
f -114/-114/-114 -124/-124/-124 -115/-115/-115
f -119/-119/-119 -120/-120/-120 -113/-113/-113
f -112/-112/-112 -119/-119/-119 -113/-113/-113
f -111/-111/-111 -119/-119/-119 -112/-112/-112
f -110/-110/-110 -111/-111/-111 -112/-112/-112
f -140/-140/-140 -111/-111/-111 -110/-110/-110
f -138/-138/-138 -140/-140/-140 -110/-110/-110
f -109/-109/-109 -110/-110/-110 -112/-112/-112
f -108/-108/-108 -109/-109/-109 -112/-112/-112
f -108/-108/-108 -112/-112/-112 -113/-113/-113
f -109/-109/-109 -107/-107/-107 -110/-110/-110
f -107/-107/-107 -138/-138/-138 -110/-110/-110
f -139/-139/-139 -138/-138/-138 -107/-107/-107
f -106/-106/-106 -139/-139/-139 -107/-107/-107
f -106/-106/-106 -107/-107/-107 -105/-105/-105
f -104/-104/-104 -106/-106/-106 -105/-105/-105
f -104/-104/-104 -105/-105/-105 -103/-103/-103
f -105/-105/-105 -102/-102/-102 -103/-103/-103
f -101/-101/-101 -103/-103/-103 -102/-102/-102
f -102/-102/-102 -100/-100/-100 -101/-101/-101
f -100/-100/-100 -99/-99/-99 -101/-101/-101
f -100/-100/-100 -98/-98/-98 -99/-99/-99
f -98/-98/-98 -100/-100/-100 -97/-97/-97
f -96/-96/-96 -98/-98/-98 -97/-97/-97
f -96/-96/-96 -97/-97/-97 -95/-95/-95
f -94/-94/-94 -96/-96/-96 -95/-95/-95
f -98/-98/-98 -93/-93/-93 -99/-99/-99
f -93/-93/-93 -92/-92/-92 -99/-99/-99
f -92/-92/-92 -91/-91/-91 -99/-99/-99
f -98/-98/-98 -90/-90/-90 -93/-93/-93
f -90/-90/-90 -89/-89/-89 -93/-93/-93
f -95/-95/-95 -88/-88/-88 -94/-94/-94
f -88/-88/-88 -87/-87/-87 -94/-94/-94
f -87/-87/-87 -86/-86/-86 -94/-94/-94
f -94/-94/-94 -86/-86/-86 -85/-85/-85
f -84/-84/-84 -94/-94/-94 -85/-85/-85
f -83/-83/-83 -85/-85/-85 -86/-86/-86
f -88/-88/-88 -95/-95/-95 -82/-82/-82
f -81/-81/-81 -88/-88/-88 -82/-82/-82
f -81/-81/-81 -82/-82/-82 -108/-108/-108
f -87/-87/-87 -80/-80/-80 -86/-86/-86
f -80/-80/-80 -79/-79/-79 -86/-86/-86
f -79/-79/-79 -78/-78/-78 -86/-86/-86
f -78/-78/-78 -83/-83/-83 -86/-86/-86
f -84/-84/-84 -85/-85/-85 -115/-115/-115
f -85/-85/-85 -114/-114/-114 -115/-115/-115
f -81/-81/-81 -108/-108/-108 -113/-113/-113
f -76/-76/-76 -77/-77/-77 -139/-139/-139
f -77/-77/-77 -141/-141/-141 -139/-139/-139
f -75/-75/-75 -76/-76/-76 -139/-139/-139
f -106/-106/-106 -75/-75/-75 -139/-139/-139
f -72/-72/-72 -73/-73/-73 -74/-74/-74
f -74/-74/-74 -71/-71/-71 -72/-72/-72
f -71/-71/-71 -70/-70/-70 -72/-72/-72
f -69/-69/-69 -74/-74/-74 -73/-73/-73
f -68/-68/-68 -69/-69/-69 -73/-73/-73
f -68/-68/-68 -67/-67/-67 -69/-69/-69
f -67/-67/-67 -66/-66/-66 -69/-69/-69
f -67/-67/-67 -65/-65/-65 -66/-66/-66
f -65/-65/-65 -64/-64/-64 -66/-66/-66
f -71/-71/-71 -63/-63/-63 -70/-70/-70
f -63/-63/-63 -71/-71/-71 -62/-62/-62
f -61/-61/-61 -63/-63/-63 -62/-62/-62
f -61/-61/-61 -62/-62/-62 -60/-60/-60
f -59/-59/-59 -61/-61/-61 -60/-60/-60
f -63/-63/-63 -58/-58/-58 -70/-70/-70
f -58/-58/-58 -57/-57/-57 -70/-70/-70
f -57/-57/-57 -56/-56/-56 -70/-70/-70
f -63/-63/-63 -55/-55/-55 -58/-58/-58
f -55/-55/-55 -54/-54/-54 -58/-58/-58
f -60/-60/-60 -53/-53/-53 -59/-59/-59
f -53/-53/-53 -52/-52/-52 -59/-59/-59
f -52/-52/-52 -51/-51/-51 -59/-59/-59
f -59/-59/-59 -51/-51/-51 -50/-50/-50
f -49/-49/-49 -59/-59/-59 -50/-50/-50
f -48/-48/-48 -50/-50/-50 -51/-51/-51
f -53/-53/-53 -60/-60/-60 -47/-47/-47
f -46/-46/-46 -53/-53/-53 -47/-47/-47
f -52/-52/-52 -45/-45/-45 -51/-51/-51
f -45/-45/-45 -44/-44/-44 -51/-51/-51
f -44/-44/-44 -43/-43/-43 -51/-51/-51
f -43/-43/-43 -48/-48/-48 -51/-51/-51
f -42/-42/-42 -46/-46/-46 -47/-47/-47
f -49/-49/-49 -50/-50/-50 -41/-41/-41
f -40/-40/-40 -49/-49/-49 -41/-41/-41
f -46/-46/-46 -42/-42/-42 -39/-39/-39
f -39/-39/-39 -42/-42/-42 -38/-38/-38
f -42/-42/-42 -37/-37/-37 -38/-38/-38
f -38/-38/-38 -37/-37/-37 -64/-64/-64
f -37/-37/-37 -66/-66/-66 -64/-64/-64
f -36/-36/-36 -46/-46/-46 -39/-39/-39
f -35/-35/-35 -39/-39/-39 -38/-38/-38
f -34/-34/-34 -35/-35/-35 -38/-38/-38
f -34/-34/-34 -38/-38/-38 -64/-64/-64
f -33/-33/-33 -34/-34/-34 -64/-64/-64
f -64/-64/-64 -65/-65/-65 -33/-33/-33
f -65/-65/-65 -32/-32/-32 -33/-33/-33
f -33/-33/-33 -32/-32/-32 -31/-31/-31
f -32/-32/-32 -30/-30/-30 -31/-31/-31
f -31/-31/-31 -30/-30/-30 -29/-29/-29
f -28/-28/-28 -31/-31/-31 -29/-29/-29
f -28/-28/-28 -29/-29/-29 -27/-27/-27
f -27/-27/-27 -26/-26/-26 -28/-28/-28
f -27/-27/-27 -25/-25/-25 -26/-26/-26
f -24/-24/-24 -26/-26/-26 -25/-25/-25
f -26/-26/-26 -24/-24/-24 -23/-23/-23
f -24/-24/-24 -22/-22/-22 -23/-23/-23
f -23/-23/-23 -22/-22/-22 -21/-21/-21
f -22/-22/-22 -20/-20/-20 -21/-21/-21
f -19/-19/-19 -24/-24/-24 -25/-25/-25
f -18/-18/-18 -19/-19/-19 -25/-25/-25
f -17/-17/-17 -18/-18/-18 -25/-25/-25
f -16/-16/-16 -24/-24/-24 -19/-19/-19
f -15/-15/-15 -16/-16/-16 -19/-19/-19
f -14/-14/-14 -21/-21/-21 -20/-20/-20
f -13/-13/-13 -14/-14/-14 -20/-20/-20
f -12/-12/-12 -13/-13/-13 -20/-20/-20
f -12/-12/-12 -20/-20/-20 -11/-11/-11
f -20/-20/-20 -10/-10/-10 -11/-11/-11
f -11/-11/-11 -9/-9/-9 -12/-12/-12
f -21/-21/-21 -14/-14/-14 -8/-8/-8
f -14/-14/-14 -7/-7/-7 -8/-8/-8
f -6/-6/-6 -13/-13/-13 -12/-12/-12
f -5/-5/-5 -6/-6/-6 -12/-12/-12
f -4/-4/-4 -5/-5/-5 -12/-12/-12
f -9/-9/-9 -4/-4/-4 -12/-12/-12
f -7/-7/-7 -35/-35/-35 -8/-8/-8
f -11/-11/-11 -10/-10/-10 -41/-41/-41
f -10/-10/-10 -40/-40/-40 -41/-41/-41
f -35/-35/-35 -7/-7/-7 -39/-39/-39
f -7/-7/-7 -36/-36/-36 -39/-39/-39
f -65/-65/-65 -67/-67/-67 -3/-3/-3
f -67/-67/-67 -2/-2/-2 -3/-3/-3
f -32/-32/-32 -65/-65/-65 -3/-3/-3
f -1/-1/-1 -32/-32/-32 -3/-3/-3

