# Mesh "MainPillar1" exported with Unity Assets Bundle Extractor; 216 vertices, 456 indices, 448 bits per vertex
g MainPillar1
# SubMesh 0
# Vertices
v 22.360392 21.700588 12.209069
vt 0.001336 0.874804
vn 0.433884 0.000000 0.900969
v 22.759727 30.068848 11.890609
vt 0.496093 0.851303
vn 0.781832 0.000000 0.623489
v 22.759727 21.700588 11.890609
vt 0.001336 0.851303
vn 0.781832 0.000000 0.623489
v 22.360392 30.068848 12.209069
vt 0.496093 0.874804
vn 0.433884 0.000000 0.900969
v 22.981340 30.068848 11.430423
vt 0.496093 0.827802
vn 0.974928 0.000000 0.222520
v 22.981340 21.700588 11.430423
vt 0.001336 0.827802
vn 0.974928 0.000000 0.222520
v 22.981340 30.068848 10.919654
vt 0.496093 0.804301
vn 0.974928 0.000000 -0.222520
v 22.981340 21.700588 10.919654
vt 0.001336 0.804301
vn 0.974928 0.000000 -0.222520
v 22.981340 21.700588 10.919654
vt 0.001336 0.804301
vn 0.974928 0.000000 -0.222520
v 22.759727 30.068848 10.459468
vt 0.496093 0.780800
vn 0.781831 0.000000 -0.623491
v 22.759727 21.700588 10.459468
vt 0.001336 0.780800
vn 0.781831 0.000000 -0.623491
v 22.981340 30.068848 10.919654
vt 0.496093 0.804301
vn 0.974928 0.000000 -0.222520
v 22.360392 30.068848 10.141011
vt 0.496093 0.757299
vn 0.433884 0.000000 -0.900969
v 22.360392 21.700588 10.141011
vt 0.001336 0.757299
vn 0.433884 0.000000 -0.900969
v 21.862431 30.068848 10.027352
vt 0.496093 0.733798
vn -0.000000 0.000000 -1.000000
v 21.862431 21.700588 10.027352
vt 0.001336 0.733798
vn -0.000000 0.000000 -1.000000
v 21.364466 30.068848 10.141009
vt 0.496093 0.710297
vn -0.433885 0.000000 -0.900968
v 21.364466 21.700588 10.141009
vt 0.001336 0.710297
vn -0.433885 0.000000 -0.900968
v 20.965134 30.068848 10.459468
vt 0.496093 0.686796
vn -0.781832 0.000000 -0.623489
v 20.965134 21.700588 10.459468
vt 0.001336 0.686796
vn -0.781832 0.000000 -0.623489
v 20.743519 30.068848 10.919654
vt 0.496093 0.663295
vn -0.974928 0.000000 -0.222522
v 20.743519 21.700588 10.919654
vt 0.001336 0.663295
vn -0.974928 0.000000 -0.222522
v 20.743519 30.068848 11.430423
vt 0.496093 0.639794
vn -0.974928 0.000000 0.222522
v 20.743519 21.700588 11.430423
vt 0.001336 0.639794
vn -0.974928 0.000000 0.222522
v 20.743519 21.700588 11.430423
vt 0.001336 0.639794
vn -0.974928 0.000000 0.222522
v 20.965134 30.068848 11.890609
vt 0.496093 0.616293
vn -0.781833 0.000000 0.623487
v 20.965134 21.700588 11.890609
vt 0.001336 0.616293
vn -0.781833 0.000000 0.623487
v 20.743519 30.068848 11.430423
vt 0.496093 0.639794
vn -0.974928 0.000000 0.222522
v 21.364466 30.068848 12.209069
vt 0.496093 0.592792
vn -0.433885 0.000000 0.900968
v 21.364466 21.700588 12.209069
vt 0.001336 0.592792
vn -0.433885 0.000000 0.900968
v 21.862431 30.068848 12.322724
vt 0.496093 0.569291
vn -0.000000 0.000000 1.000000
v 21.862431 21.700588 12.322724
vt 0.001336 0.569291
vn -0.000000 0.000000 1.000000
v 22.360392 30.068848 12.209069
vt 0.496093 0.545790
vn 0.433884 0.000000 0.900969
v 22.360392 21.700588 12.209069
vt 0.001336 0.545790
vn 0.433884 0.000000 0.900969
v 20.380791 21.376308 9.693398
vt 0.541133 0.500031
vn -1.000000 0.000000 0.000000
v 20.380791 21.954475 12.656678
vt 0.713863 0.533732
vn -1.000000 0.000000 0.000000
v 20.380791 21.376308 12.656678
vt 0.713863 0.500031
vn -1.000000 0.000000 0.000000
v 20.380791 21.954475 9.693398
vt 0.541133 0.533733
vn -1.000000 0.000000 0.000000
v 20.380791 21.954475 9.693398
vt 0.541133 0.533733
vn -0.000000 1.000000 0.000000
v 23.344070 21.954475 12.656678
vt 0.713863 0.706462
vn -0.000000 1.000000 0.000000
v 20.380791 21.954475 12.656678
vt 0.713863 0.533732
vn -0.000000 1.000000 0.000000
v 23.344070 21.954475 9.693398
vt 0.541133 0.706462
vn -0.000000 1.000000 0.000000
v 23.344070 21.954475 9.693398
vt 0.541133 0.706462
vn 1.000000 0.000000 0.000000
v 23.344070 21.376308 12.656678
vt 0.713863 0.740163
vn 1.000000 0.000000 0.000000
v 23.344070 21.954475 12.656678
vt 0.713863 0.706462
vn 1.000000 0.000000 0.000000
v 23.344070 21.376308 9.693398
vt 0.541133 0.740163
vn 1.000000 0.000000 0.000000
v 20.380791 21.376308 12.656678
vt 0.747564 0.533733
vn -0.000000 0.000000 1.000000
v 23.344070 21.954475 12.656678
vt 0.713863 0.706462
vn -0.000000 0.000000 1.000000
v 23.344070 21.376308 12.656678
vt 0.747564 0.706462
vn -0.000000 0.000000 1.000000
v 20.380791 21.954475 12.656678
vt 0.713863 0.533732
vn -0.000000 0.000000 1.000000
v 23.344070 21.376308 9.693398
vt 0.507432 0.706461
vn -0.000000 0.000000 -1.000000
v 20.380791 21.954475 9.693398
vt 0.541133 0.533733
vn -0.000000 0.000000 -1.000000
v 20.380791 21.376308 9.693398
vt 0.507432 0.533733
vn -0.000000 0.000000 -1.000000
v 23.344070 21.954475 9.693398
vt 0.541133 0.706462
vn -0.000000 0.000000 -1.000000
v 20.380791 21.376308 -12.656678
vt 0.787349 0.748100
vn -1.000000 0.000000 0.000000
v 20.380791 21.954475 -9.693398
vt 0.960078 0.781801
vn -1.000000 0.000000 0.000000
v 20.380791 21.376308 -9.693398
vt 0.960078 0.748100
vn -1.000000 0.000000 0.000000
v 20.380791 21.954475 -12.656678
vt 0.787349 0.781802
vn -1.000000 0.000000 0.000000
v 20.380791 21.954475 -12.656678
vt 0.787349 0.781802
vn -0.000000 1.000000 0.000000
v 23.344070 21.954475 -9.693398
vt 0.960078 0.954531
vn -0.000000 1.000000 0.000000
v 20.380791 21.954475 -9.693398
vt 0.960078 0.781801
vn -0.000000 1.000000 0.000000
v 23.344070 21.954475 -12.656678
vt 0.787349 0.954531
vn -0.000000 1.000000 0.000000
v 23.344070 21.954475 -12.656678
vt 0.787349 0.954531
vn 1.000000 0.000000 0.000000
v 23.344070 21.376308 -9.693398
vt 0.960078 0.988232
vn 1.000000 0.000000 0.000000
v 23.344070 21.954475 -9.693398
vt 0.960078 0.954531
vn 1.000000 0.000000 0.000000
v 23.344070 21.376308 -12.656678
vt 0.787349 0.988232
vn 1.000000 0.000000 0.000000
v 20.380791 21.376308 -9.693398
vt 0.993779 0.781802
vn -0.000000 0.000000 1.000000
v 23.344070 21.954475 -9.693398
vt 0.960078 0.954531
vn -0.000000 0.000000 1.000000
v 23.344070 21.376308 -9.693398
vt 0.993779 0.954531
vn -0.000000 0.000000 1.000000
v 20.380791 21.954475 -9.693398
vt 0.960078 0.781801
vn -0.000000 0.000000 1.000000
v 23.344070 21.376308 -12.656678
vt 0.753648 0.954530
vn -0.000000 0.000000 -1.000000
v 20.380791 21.954475 -12.656678
vt 0.787349 0.781802
vn -0.000000 0.000000 -1.000000
v 20.380791 21.376308 -12.656678
vt 0.753648 0.781802
vn -0.000000 0.000000 -1.000000
v 23.344070 21.954475 -12.656678
vt 0.787349 0.954531
vn -0.000000 0.000000 -1.000000
v 22.360392 21.700588 -10.141007
vt 0.001336 0.874804
vn 0.433884 0.000000 0.900969
v 22.759727 30.068848 -10.459468
vt 0.496093 0.851303
vn 0.781832 0.000000 0.623489
v 22.759727 21.700588 -10.459468
vt 0.001336 0.851303
vn 0.781832 0.000000 0.623489
v 22.360392 30.068848 -10.141007
vt 0.496093 0.874804
vn 0.433884 0.000000 0.900969
v 22.981340 30.068848 -10.919654
vt 0.496093 0.827802
vn 0.974928 0.000000 0.222520
v 22.981340 21.700588 -10.919654
vt 0.001336 0.827802
vn 0.974928 0.000000 0.222520
v 22.981340 30.068848 -11.430423
vt 0.496093 0.804301
vn 0.974928 0.000000 -0.222520
v 22.981340 21.700588 -11.430423
vt 0.001336 0.804301
vn 0.974928 0.000000 -0.222520
v 22.981340 21.700588 -11.430423
vt 0.001336 0.804301
vn 0.974928 0.000000 -0.222520
v 22.759727 30.068848 -11.890609
vt 0.496093 0.780800
vn 0.781831 0.000000 -0.623491
v 22.759727 21.700588 -11.890609
vt 0.001336 0.780800
vn 0.781831 0.000000 -0.623491
v 22.981340 30.068848 -11.430423
vt 0.496093 0.804301
vn 0.974928 0.000000 -0.222520
v 22.360392 30.068848 -12.209065
vt 0.496093 0.757299
vn 0.433884 0.000000 -0.900969
v 22.360392 21.700588 -12.209065
vt 0.001336 0.757299
vn 0.433884 0.000000 -0.900969
v 21.862431 30.068848 -12.322724
vt 0.496093 0.733798
vn -0.000000 0.000000 -1.000000
v 21.862431 21.700588 -12.322724
vt 0.001336 0.733798
vn -0.000000 0.000000 -1.000000
v 21.364466 30.068848 -12.209067
vt 0.496093 0.710297
vn -0.433885 0.000000 -0.900968
v 21.364466 21.700588 -12.209067
vt 0.001336 0.710297
vn -0.433885 0.000000 -0.900968
v 20.965134 30.068848 -11.890609
vt 0.496093 0.686796
vn -0.781832 0.000000 -0.623489
v 20.965134 21.700588 -11.890609
vt 0.001336 0.686796
vn -0.781832 0.000000 -0.623489
v 20.743519 30.068848 -11.430423
vt 0.496093 0.663295
vn -0.974928 0.000000 -0.222522
v 20.743519 21.700588 -11.430423
vt 0.001336 0.663295
vn -0.974928 0.000000 -0.222522
v 20.743519 30.068848 -10.919654
vt 0.496093 0.639794
vn -0.974928 0.000000 0.222522
v 20.743519 21.700588 -10.919654
vt 0.001336 0.639794
vn -0.974928 0.000000 0.222522
v 20.743519 21.700588 -10.919654
vt 0.001336 0.639794
vn -0.974928 0.000000 0.222522
v 20.965134 30.068848 -10.459468
vt 0.496093 0.616293
vn -0.781833 0.000000 0.623487
v 20.965134 21.700588 -10.459468
vt 0.001336 0.616293
vn -0.781833 0.000000 0.623487
v 20.743519 30.068848 -10.919654
vt 0.496093 0.639794
vn -0.974928 0.000000 0.222522
v 21.364466 30.068848 -10.141007
vt 0.496093 0.592792
vn -0.433885 0.000000 0.900968
v 21.364466 21.700588 -10.141007
vt 0.001336 0.592792
vn -0.433885 0.000000 0.900968
v 21.862431 30.068848 -10.027352
vt 0.496093 0.569291
vn -0.000000 0.000000 1.000000
v 21.862431 21.700588 -10.027352
vt 0.001336 0.569291
vn -0.000000 0.000000 1.000000
v 22.360392 30.068848 -10.141007
vt 0.496093 0.545790
vn 0.433884 0.000000 0.900969
v 22.360392 21.700588 -10.141007
vt 0.001336 0.545790
vn 0.433884 0.000000 0.900969
v 20.380791 21.376308 -1.481641
vt 0.786967 0.500031
vn -1.000000 0.000000 0.000000
v 20.380791 21.954475 1.481639
vt 0.959697 0.533732
vn -1.000000 0.000000 0.000000
v 20.380791 21.376308 1.481639
vt 0.959697 0.500031
vn -1.000000 0.000000 0.000000
v 20.380791 21.954475 -1.481641
vt 0.786968 0.533733
vn -1.000000 0.000000 0.000000
v 20.380791 21.954475 -1.481641
vt 0.786968 0.533733
vn -0.000000 1.000000 0.000000
v 23.344070 21.954475 1.481639
vt 0.959697 0.706462
vn -0.000000 1.000000 0.000000
v 20.380791 21.954475 1.481639
vt 0.959697 0.533732
vn -0.000000 1.000000 0.000000
v 23.344070 21.954475 -1.481641
vt 0.786967 0.706462
vn -0.000000 1.000000 0.000000
v 23.344070 21.954475 -1.481641
vt 0.786967 0.706462
vn 1.000000 0.000000 0.000000
v 23.344070 21.376308 1.481639
vt 0.959697 0.740163
vn 1.000000 0.000000 0.000000
v 23.344070 21.954475 1.481639
vt 0.959697 0.706462
vn 1.000000 0.000000 0.000000
v 23.344070 21.376308 -1.481641
vt 0.786967 0.740163
vn 1.000000 0.000000 0.000000
v 20.380791 21.376308 1.481639
vt 0.993398 0.533732
vn -0.000000 0.000000 1.000000
v 23.344070 21.954475 1.481639
vt 0.959697 0.706462
vn -0.000000 0.000000 1.000000
v 23.344070 21.376308 1.481639
vt 0.993398 0.706462
vn -0.000000 0.000000 1.000000
v 20.380791 21.954475 1.481639
vt 0.959697 0.533732
vn -0.000000 0.000000 1.000000
v 23.344070 21.376308 -1.481641
vt 0.753266 0.706461
vn -0.000000 0.000000 -1.000000
v 20.380791 21.954475 -1.481641
vt 0.786968 0.533733
vn -0.000000 0.000000 -1.000000
v 20.380791 21.376308 -1.481641
vt 0.753266 0.533733
vn -0.000000 0.000000 -1.000000
v 23.344070 21.954475 -1.481641
vt 0.786967 0.706462
vn -0.000000 0.000000 -1.000000
v 22.360392 21.700588 1.034030
vt 0.501249 0.493639
vn 0.433884 0.000000 0.900969
v 22.759727 30.068848 0.715569
vt 0.996006 0.470138
vn 0.781832 0.000000 0.623489
v 22.759727 21.700588 0.715569
vt 0.501249 0.470138
vn 0.781832 0.000000 0.623489
v 22.360392 30.068848 1.034030
vt 0.996006 0.493639
vn 0.433884 0.000000 0.900969
v 22.981340 30.068848 0.255383
vt 0.996006 0.446637
vn 0.974928 0.000000 0.222520
v 22.981340 21.700588 0.255383
vt 0.501249 0.446637
vn 0.974928 0.000000 0.222520
v 22.981340 30.068848 -0.255385
vt 0.996006 0.423136
vn 0.974928 0.000000 -0.222520
v 22.981340 21.700588 -0.255385
vt 0.501249 0.423136
vn 0.974928 0.000000 -0.222520
v 22.981340 21.700588 -0.255385
vt 0.501249 0.423136
vn 0.974928 0.000000 -0.222520
v 22.759727 30.068848 -0.715571
vt 0.996006 0.399635
vn 0.781831 0.000000 -0.623491
v 22.759727 21.700588 -0.715571
vt 0.501249 0.399635
vn 0.781831 0.000000 -0.623491
v 22.981340 30.068848 -0.255385
vt 0.996006 0.423136
vn 0.974928 0.000000 -0.222520
v 22.360392 30.068848 -1.034028
vt 0.996006 0.376134
vn 0.433884 0.000000 -0.900969
v 22.360392 21.700588 -1.034028
vt 0.501249 0.376134
vn 0.433884 0.000000 -0.900969
v 21.862431 30.068848 -1.147687
vt 0.996006 0.352633
vn -0.000000 0.000000 -1.000000
v 21.862431 21.700588 -1.147687
vt 0.501249 0.352633
vn -0.000000 0.000000 -1.000000
v 21.364466 30.068848 -1.034030
vt 0.996006 0.329132
vn -0.433885 0.000000 -0.900968
v 21.364466 21.700588 -1.034030
vt 0.501249 0.329132
vn -0.433885 0.000000 -0.900968
v 20.965134 30.068848 -0.715571
vt 0.996006 0.305631
vn -0.781832 0.000000 -0.623489
v 20.965134 21.700588 -0.715571
vt 0.501249 0.305631
vn -0.781832 0.000000 -0.623489
v 20.743519 30.068848 -0.255385
vt 0.996006 0.282130
vn -0.974928 0.000000 -0.222522
v 20.743519 21.700588 -0.255385
vt 0.501249 0.282130
vn -0.974928 0.000000 -0.222522
v 20.743519 30.068848 0.255383
vt 0.996006 0.258629
vn -0.974928 0.000000 0.222522
v 20.743519 21.700588 0.255383
vt 0.501249 0.258629
vn -0.974928 0.000000 0.222522
v 20.743519 21.700588 0.255383
vt 0.501249 0.258629
vn -0.974928 0.000000 0.222522
v 20.965134 30.068848 0.715569
vt 0.996006 0.235128
vn -0.781833 0.000000 0.623487
v 20.965134 21.700588 0.715569
vt 0.501249 0.235128
vn -0.781833 0.000000 0.623487
v 20.743519 30.068848 0.255383
vt 0.996006 0.258629
vn -0.974928 0.000000 0.222522
v 21.364466 30.068848 1.034030
vt 0.996006 0.211627
vn -0.433885 0.000000 0.900968
v 21.364466 21.700588 1.034030
vt 0.501249 0.211628
vn -0.433885 0.000000 0.900968
v 21.862431 30.068848 1.147685
vt 0.996006 0.188127
vn -0.000000 0.000000 1.000000
v 21.862431 21.700588 1.147685
vt 0.501249 0.188127
vn -0.000000 0.000000 1.000000
v 22.360392 30.068848 1.034030
vt 0.996006 0.164626
vn 0.433884 0.000000 0.900969
v 22.360392 21.700588 1.034030
vt 0.501249 0.164626
vn 0.433884 0.000000 0.900969
v 22.360392 21.700588 24.191351
vt 0.501249 0.493639
vn 0.433884 0.000000 0.900969
v 22.759727 30.068848 23.872890
vt 0.996006 0.470138
vn 0.781832 0.000000 0.623489
v 22.759727 21.700588 23.872890
vt 0.501249 0.470138
vn 0.781832 0.000000 0.623489
v 22.360392 30.068848 24.191351
vt 0.996006 0.493639
vn 0.433884 0.000000 0.900969
v 22.981340 30.068848 23.412704
vt 0.996006 0.446637
vn 0.974928 0.000000 0.222520
v 22.981340 21.700588 23.412704
vt 0.501249 0.446637
vn 0.974928 0.000000 0.222520
v 22.981340 30.068848 22.901936
vt 0.996006 0.423136
vn 0.974928 0.000000 -0.222520
v 22.981340 21.700588 22.901936
vt 0.501249 0.423136
vn 0.974928 0.000000 -0.222520
v 22.981340 21.700588 22.901936
vt 0.501249 0.423136
vn 0.974928 0.000000 -0.222520
v 22.759727 30.068848 22.441750
vt 0.996006 0.399635
vn 0.781831 0.000000 -0.623491
v 22.759727 21.700588 22.441750
vt 0.501249 0.399635
vn 0.781831 0.000000 -0.623491
v 22.981340 30.068848 22.901936
vt 0.996006 0.423136
vn 0.974928 0.000000 -0.222520
v 22.360392 30.068848 22.123293
vt 0.996006 0.376134
vn 0.433884 0.000000 -0.900969
v 22.360392 21.700588 22.123293
vt 0.501249 0.376134
vn 0.433884 0.000000 -0.900969
v 21.862431 30.068848 22.009634
vt 0.996006 0.352633
vn -0.000000 0.000000 -1.000000
v 21.862431 21.700588 22.009634
vt 0.501249 0.352633
vn -0.000000 0.000000 -1.000000
v 21.364466 30.068848 22.123291
vt 0.996006 0.329132
vn -0.433885 0.000000 -0.900968
v 21.364466 21.700588 22.123291
vt 0.501249 0.329132
vn -0.433885 0.000000 -0.900968
v 20.965134 30.068848 22.441750
vt 0.996006 0.305631
vn -0.781832 0.000000 -0.623489
v 20.965134 21.700588 22.441750
vt 0.501249 0.305631
vn -0.781832 0.000000 -0.623489
v 20.743519 30.068848 22.901936
vt 0.996006 0.282130
vn -0.974928 0.000000 -0.222522
v 20.743519 21.700588 22.901936
vt 0.501249 0.282130
vn -0.974928 0.000000 -0.222522
v 20.743519 30.068848 23.412704
vt 0.996006 0.258629
vn -0.974928 0.000000 0.222522
v 20.743519 21.700588 23.412704
vt 0.501249 0.258629
vn -0.974928 0.000000 0.222522
v 20.743519 21.700588 23.412704
vt 0.501249 0.258629
vn -0.974928 0.000000 0.222522
v 20.965134 30.068848 23.872890
vt 0.996006 0.235128
vn -0.781833 0.000000 0.623487
v 20.965134 21.700588 23.872890
vt 0.501249 0.235128
vn -0.781833 0.000000 0.623487
v 20.743519 30.068848 23.412704
vt 0.996006 0.258629
vn -0.974928 0.000000 0.222522
v 21.364466 30.068848 24.191351
vt 0.996006 0.211627
vn -0.433885 0.000000 0.900968
v 21.364466 21.700588 24.191351
vt 0.501249 0.211628
vn -0.433885 0.000000 0.900968
v 21.862431 30.068848 24.305006
vt 0.996006 0.188127
vn -0.000000 0.000000 1.000000
v 21.862431 21.700588 24.305006
vt 0.501249 0.188127
vn -0.000000 0.000000 1.000000
v 22.360392 30.068848 24.191351
vt 0.996006 0.164626
vn 0.433884 0.000000 0.900969
v 22.360392 21.700588 24.191351
vt 0.501249 0.164626
vn 0.433884 0.000000 0.900969
v 20.380791 21.376308 21.675680
vt 0.787349 0.748100
vn -1.000000 0.000000 0.000000
v 20.380791 21.954475 24.638960
vt 0.960078 0.781801
vn -1.000000 0.000000 0.000000
v 20.380791 21.376308 24.638960
vt 0.960078 0.748100
vn -1.000000 0.000000 0.000000
v 20.380791 21.954475 21.675680
vt 0.787349 0.781802
vn -1.000000 0.000000 0.000000
v 20.380791 21.954475 21.675680
vt 0.787349 0.781802
vn -0.000000 1.000000 0.000000
v 23.344070 21.954475 24.638960
vt 0.960078 0.954531
vn -0.000000 1.000000 0.000000
v 20.380791 21.954475 24.638960
vt 0.960078 0.781801
vn -0.000000 1.000000 0.000000
v 23.344070 21.954475 21.675680
vt 0.787349 0.954531
vn -0.000000 1.000000 0.000000
v 23.344070 21.954475 21.675680
vt 0.787349 0.954531
vn 1.000000 0.000000 0.000000
v 23.344070 21.376308 24.638960
vt 0.960078 0.988232
vn 1.000000 0.000000 0.000000
v 23.344070 21.954475 24.638960
vt 0.960078 0.954531
vn 1.000000 0.000000 0.000000
v 23.344070 21.376308 21.675680
vt 0.787349 0.988232
vn 1.000000 0.000000 0.000000
v 20.380791 21.376308 24.638960
vt 0.993779 0.781802
vn -0.000000 0.000000 1.000000
v 23.344070 21.954475 24.638960
vt 0.960078 0.954531
vn -0.000000 0.000000 1.000000
v 23.344070 21.376308 24.638960
vt 0.993779 0.954531
vn -0.000000 0.000000 1.000000
v 20.380791 21.954475 24.638960
vt 0.960078 0.781801
vn -0.000000 0.000000 1.000000
v 23.344070 21.376308 21.675680
vt 0.753648 0.954530
vn -0.000000 0.000000 -1.000000
v 20.380791 21.954475 21.675680
vt 0.787349 0.781802
vn -0.000000 0.000000 -1.000000
v 20.380791 21.376308 21.675680
vt 0.753648 0.781802
vn -0.000000 0.000000 -1.000000
v 23.344070 21.954475 21.675680
vt 0.787349 0.954531
vn -0.000000 0.000000 -1.000000
# Faces (1 to 216)
g MainPillar1_0
f -214/-214/-214 -215/-215/-215 -216/-216/-216
f -215/-215/-215 -213/-213/-213 -216/-216/-216
f -212/-212/-212 -215/-215/-215 -214/-214/-214
f -211/-211/-211 -212/-212/-212 -214/-214/-214
f -210/-210/-210 -212/-212/-212 -211/-211/-211
f -209/-209/-209 -210/-210/-210 -211/-211/-211
f -206/-206/-206 -207/-207/-207 -208/-208/-208
f -207/-207/-207 -205/-205/-205 -208/-208/-208
f -204/-204/-204 -207/-207/-207 -206/-206/-206
f -203/-203/-203 -204/-204/-204 -206/-206/-206
f -202/-202/-202 -204/-204/-204 -203/-203/-203
f -201/-201/-201 -202/-202/-202 -203/-203/-203
f -200/-200/-200 -202/-202/-202 -201/-201/-201
f -199/-199/-199 -200/-200/-200 -201/-201/-201
f -198/-198/-198 -200/-200/-200 -199/-199/-199
f -197/-197/-197 -198/-198/-198 -199/-199/-199
f -196/-196/-196 -198/-198/-198 -197/-197/-197
f -195/-195/-195 -196/-196/-196 -197/-197/-197
f -194/-194/-194 -196/-196/-196 -195/-195/-195
f -193/-193/-193 -194/-194/-194 -195/-195/-195
f -190/-190/-190 -191/-191/-191 -192/-192/-192
f -191/-191/-191 -189/-189/-189 -192/-192/-192
f -188/-188/-188 -191/-191/-191 -190/-190/-190
f -187/-187/-187 -188/-188/-188 -190/-190/-190
f -186/-186/-186 -188/-188/-188 -187/-187/-187
f -185/-185/-185 -186/-186/-186 -187/-187/-187
f -184/-184/-184 -186/-186/-186 -185/-185/-185
f -183/-183/-183 -184/-184/-184 -185/-185/-185
f -180/-180/-180 -181/-181/-181 -182/-182/-182
f -181/-181/-181 -179/-179/-179 -182/-182/-182
f -176/-176/-176 -177/-177/-177 -178/-178/-178
f -177/-177/-177 -175/-175/-175 -178/-178/-178
f -172/-172/-172 -173/-173/-173 -174/-174/-174
f -173/-173/-173 -171/-171/-171 -174/-174/-174
f -168/-168/-168 -169/-169/-169 -170/-170/-170
f -169/-169/-169 -167/-167/-167 -170/-170/-170
f -164/-164/-164 -165/-165/-165 -166/-166/-166
f -165/-165/-165 -163/-163/-163 -166/-166/-166
f -160/-160/-160 -161/-161/-161 -162/-162/-162
f -161/-161/-161 -159/-159/-159 -162/-162/-162
f -156/-156/-156 -157/-157/-157 -158/-158/-158
f -157/-157/-157 -155/-155/-155 -158/-158/-158
f -152/-152/-152 -153/-153/-153 -154/-154/-154
f -153/-153/-153 -151/-151/-151 -154/-154/-154
f -148/-148/-148 -149/-149/-149 -150/-150/-150
f -149/-149/-149 -147/-147/-147 -150/-150/-150
f -144/-144/-144 -145/-145/-145 -146/-146/-146
f -145/-145/-145 -143/-143/-143 -146/-146/-146
f -140/-140/-140 -141/-141/-141 -142/-142/-142
f -141/-141/-141 -139/-139/-139 -142/-142/-142
f -138/-138/-138 -141/-141/-141 -140/-140/-140
f -137/-137/-137 -138/-138/-138 -140/-140/-140
f -136/-136/-136 -138/-138/-138 -137/-137/-137
f -135/-135/-135 -136/-136/-136 -137/-137/-137
f -132/-132/-132 -133/-133/-133 -134/-134/-134
f -133/-133/-133 -131/-131/-131 -134/-134/-134
f -130/-130/-130 -133/-133/-133 -132/-132/-132
f -129/-129/-129 -130/-130/-130 -132/-132/-132
f -128/-128/-128 -130/-130/-130 -129/-129/-129
f -127/-127/-127 -128/-128/-128 -129/-129/-129
f -126/-126/-126 -128/-128/-128 -127/-127/-127
f -125/-125/-125 -126/-126/-126 -127/-127/-127
f -124/-124/-124 -126/-126/-126 -125/-125/-125
f -123/-123/-123 -124/-124/-124 -125/-125/-125
f -122/-122/-122 -124/-124/-124 -123/-123/-123
f -121/-121/-121 -122/-122/-122 -123/-123/-123
f -120/-120/-120 -122/-122/-122 -121/-121/-121
f -119/-119/-119 -120/-120/-120 -121/-121/-121
f -116/-116/-116 -117/-117/-117 -118/-118/-118
f -117/-117/-117 -115/-115/-115 -118/-118/-118
f -114/-114/-114 -117/-117/-117 -116/-116/-116
f -113/-113/-113 -114/-114/-114 -116/-116/-116
f -112/-112/-112 -114/-114/-114 -113/-113/-113
f -111/-111/-111 -112/-112/-112 -113/-113/-113
f -110/-110/-110 -112/-112/-112 -111/-111/-111
f -109/-109/-109 -110/-110/-110 -111/-111/-111
f -106/-106/-106 -107/-107/-107 -108/-108/-108
f -107/-107/-107 -105/-105/-105 -108/-108/-108
f -102/-102/-102 -103/-103/-103 -104/-104/-104
f -103/-103/-103 -101/-101/-101 -104/-104/-104
f -98/-98/-98 -99/-99/-99 -100/-100/-100
f -99/-99/-99 -97/-97/-97 -100/-100/-100
f -94/-94/-94 -95/-95/-95 -96/-96/-96
f -95/-95/-95 -93/-93/-93 -96/-96/-96
f -90/-90/-90 -91/-91/-91 -92/-92/-92
f -91/-91/-91 -89/-89/-89 -92/-92/-92
f -86/-86/-86 -87/-87/-87 -88/-88/-88
f -87/-87/-87 -85/-85/-85 -88/-88/-88
f -84/-84/-84 -87/-87/-87 -86/-86/-86
f -83/-83/-83 -84/-84/-84 -86/-86/-86
f -82/-82/-82 -84/-84/-84 -83/-83/-83
f -81/-81/-81 -82/-82/-82 -83/-83/-83
f -78/-78/-78 -79/-79/-79 -80/-80/-80
f -79/-79/-79 -77/-77/-77 -80/-80/-80
f -76/-76/-76 -79/-79/-79 -78/-78/-78
f -75/-75/-75 -76/-76/-76 -78/-78/-78
f -74/-74/-74 -76/-76/-76 -75/-75/-75
f -73/-73/-73 -74/-74/-74 -75/-75/-75
f -72/-72/-72 -74/-74/-74 -73/-73/-73
f -71/-71/-71 -72/-72/-72 -73/-73/-73
f -70/-70/-70 -72/-72/-72 -71/-71/-71
f -69/-69/-69 -70/-70/-70 -71/-71/-71
f -68/-68/-68 -70/-70/-70 -69/-69/-69
f -67/-67/-67 -68/-68/-68 -69/-69/-69
f -66/-66/-66 -68/-68/-68 -67/-67/-67
f -65/-65/-65 -66/-66/-66 -67/-67/-67
f -62/-62/-62 -63/-63/-63 -64/-64/-64
f -63/-63/-63 -61/-61/-61 -64/-64/-64
f -60/-60/-60 -63/-63/-63 -62/-62/-62
f -59/-59/-59 -60/-60/-60 -62/-62/-62
f -58/-58/-58 -60/-60/-60 -59/-59/-59
f -57/-57/-57 -58/-58/-58 -59/-59/-59
f -56/-56/-56 -58/-58/-58 -57/-57/-57
f -55/-55/-55 -56/-56/-56 -57/-57/-57
f -52/-52/-52 -53/-53/-53 -54/-54/-54
f -53/-53/-53 -51/-51/-51 -54/-54/-54
f -50/-50/-50 -53/-53/-53 -52/-52/-52
f -49/-49/-49 -50/-50/-50 -52/-52/-52
f -48/-48/-48 -50/-50/-50 -49/-49/-49
f -47/-47/-47 -48/-48/-48 -49/-49/-49
f -44/-44/-44 -45/-45/-45 -46/-46/-46
f -45/-45/-45 -43/-43/-43 -46/-46/-46
f -42/-42/-42 -45/-45/-45 -44/-44/-44
f -41/-41/-41 -42/-42/-42 -44/-44/-44
f -40/-40/-40 -42/-42/-42 -41/-41/-41
f -39/-39/-39 -40/-40/-40 -41/-41/-41
f -38/-38/-38 -40/-40/-40 -39/-39/-39
f -37/-37/-37 -38/-38/-38 -39/-39/-39
f -36/-36/-36 -38/-38/-38 -37/-37/-37
f -35/-35/-35 -36/-36/-36 -37/-37/-37
f -34/-34/-34 -36/-36/-36 -35/-35/-35
f -33/-33/-33 -34/-34/-34 -35/-35/-35
f -32/-32/-32 -34/-34/-34 -33/-33/-33
f -31/-31/-31 -32/-32/-32 -33/-33/-33
f -28/-28/-28 -29/-29/-29 -30/-30/-30
f -29/-29/-29 -27/-27/-27 -30/-30/-30
f -26/-26/-26 -29/-29/-29 -28/-28/-28
f -25/-25/-25 -26/-26/-26 -28/-28/-28
f -24/-24/-24 -26/-26/-26 -25/-25/-25
f -23/-23/-23 -24/-24/-24 -25/-25/-25
f -22/-22/-22 -24/-24/-24 -23/-23/-23
f -21/-21/-21 -22/-22/-22 -23/-23/-23
f -18/-18/-18 -19/-19/-19 -20/-20/-20
f -19/-19/-19 -17/-17/-17 -20/-20/-20
f -14/-14/-14 -15/-15/-15 -16/-16/-16
f -15/-15/-15 -13/-13/-13 -16/-16/-16
f -10/-10/-10 -11/-11/-11 -12/-12/-12
f -11/-11/-11 -9/-9/-9 -12/-12/-12
f -6/-6/-6 -7/-7/-7 -8/-8/-8
f -7/-7/-7 -5/-5/-5 -8/-8/-8
f -2/-2/-2 -3/-3/-3 -4/-4/-4
f -3/-3/-3 -1/-1/-1 -4/-4/-4

