# Mesh "MainWall1" exported with Unity Assets Bundle Extractor; 214 vertices, 384 indices, 448 bits per vertex
g MainWall1
# SubMesh 0
# Vertices
v 3.162312 1.000000 27.587633
vt 0.294592 0.808688
vn -1.000000 0.000000 0.000000
v 3.162312 6.500000 25.100340
vt 0.278112 0.845127
vn -1.000000 0.000000 0.000000
v 3.162312 6.500000 26.448872
vt 0.287047 0.845127
vn -1.000000 0.000000 0.000000
v 3.162312 1.000000 25.100340
vt 0.278112 0.808688
vn -1.000000 0.000000 0.000000
v 3.162312 6.500000 24.544115
vt 0.274427 0.845127
vn -1.000000 0.000000 0.000000
v 3.162312 1.000000 24.544115
vt 0.274427 0.808688
vn -1.000000 0.000000 0.000000
v 3.162312 1.000000 7.548996
vt 0.161828 0.808688
vn -1.000000 0.000000 0.000000
v 3.162312 6.500000 7.548987
vt 0.161828 0.845127
vn -1.000000 0.000000 0.000000
v 3.162312 12.999999 24.841986
vt 0.168118 0.749734
vn -1.000000 0.000000 0.000000
v 3.162312 6.500000 24.544115
vt 0.166062 0.704879
vn -1.000000 0.000000 0.000000
v 3.162312 12.999999 24.544117
vt 0.166062 0.749734
vn -1.000000 0.000000 0.000000
v 3.162312 6.500000 25.100340
vt 0.169900 0.704879
vn -1.000000 0.000000 0.000000
v 3.162312 13.000000 25.100340
vt 0.169900 0.749734
vn -1.000000 0.000000 0.000000
v -0.000000 12.999999 24.544117
vt 0.341829 0.946926
vn -0.000000 0.000000 1.000000
v 3.162312 6.500000 24.544115
vt 0.361776 0.905928
vn -0.000000 0.000000 1.000000
v -0.000000 6.500000 24.544115
vt 0.341829 0.905928
vn -0.000000 0.000000 1.000000
v 3.162312 12.999999 24.544117
vt 0.361776 0.946926
vn -0.000000 0.000000 1.000000
v -3.162312 6.500000 24.544115
vt 0.321883 0.905928
vn -0.000000 0.000000 1.000000
v -3.162312 12.999999 24.544117
vt 0.321883 0.946926
vn -0.000000 0.000000 1.000000
v -0.000000 19.499996 24.544115
vt 0.341829 0.987925
vn -0.000000 0.000000 1.000000
v 3.162312 19.499996 24.544113
vt 0.361776 0.987925
vn -0.000000 0.000000 1.000000
v -3.162312 19.499996 24.544113
vt 0.321883 0.987925
vn -0.000000 0.000000 1.000000
v -3.162312 1.000000 27.587633
vt 0.022926 0.808444
vn 1.000000 0.000000 0.000000
v -3.162312 6.500000 25.100340
vt 0.039405 0.844884
vn 1.000000 0.000000 0.000000
v -3.162312 1.000000 25.100340
vt 0.039405 0.808444
vn 1.000000 0.000000 0.000000
v -3.162312 6.500000 26.448872
vt 0.030470 0.844884
vn 1.000000 0.000000 0.000000
v -3.162312 6.500000 24.544115
vt 0.043090 0.844884
vn 1.000000 0.000000 0.000000
v -3.162312 1.000000 24.544115
vt 0.043090 0.808444
vn 1.000000 0.000000 0.000000
v -3.162312 1.000000 7.548996
vt 0.155689 0.808444
vn 1.000000 0.000000 0.000000
v -3.162312 6.500000 7.548987
vt 0.155689 0.844884
vn 1.000000 0.000000 0.000000
v -3.162312 12.999999 24.841986
vt 0.160576 0.749734
vn 1.000000 0.000000 0.000000
v -3.162312 6.500000 24.544115
vt 0.162631 0.704879
vn 1.000000 0.000000 0.000000
v -3.162312 6.500000 25.100340
vt 0.158793 0.704879
vn 1.000000 0.000000 0.000000
v -3.162312 12.999999 24.544117
vt 0.162631 0.749734
vn 1.000000 0.000000 0.000000
v -3.162312 13.000000 25.100340
vt 0.158793 0.749734
vn 1.000000 0.000000 0.000000
v -0.000000 6.500000 24.544115
vt 0.341829 0.905928
vn -0.000000 -1.000000 0.000000
v -3.162312 6.500000 7.548987
vt 0.321883 0.798731
vn -0.000000 -1.000000 0.000000
v -3.162312 6.500000 24.544115
vt 0.321883 0.905928
vn -0.000000 -1.000000 0.000000
v -0.000000 6.500000 7.548987
vt 0.341830 0.798731
vn -0.000000 -1.000000 0.000000
v 3.162312 6.500000 7.548987
vt 0.361776 0.798731
vn -0.000000 -1.000000 0.000000
v 3.162312 6.500000 24.544115
vt 0.361776 0.905928
vn -0.000000 -1.000000 0.000000
v 3.162312 12.999999 -23.717342
vt 0.321679 0.755174
vn -0.000000 0.000000 -1.000000
v -0.000000 6.500000 -23.717342
vt 0.341625 0.714175
vn -0.000000 0.000000 -1.000000
v 3.162312 6.500000 -23.717344
vt 0.321679 0.714175
vn -0.000000 0.000000 -1.000000
v -0.000000 12.999999 -23.717342
vt 0.341625 0.755174
vn -0.000000 0.000000 -1.000000
v -3.162312 12.999999 -23.717342
vt 0.361572 0.755174
vn -0.000000 0.000000 -1.000000
v -3.162312 6.500000 -23.717344
vt 0.361572 0.714175
vn -0.000000 0.000000 -1.000000
v 3.162312 19.499996 -23.717342
vt 0.321679 0.796173
vn -0.000000 0.000000 -1.000000
v -0.000000 19.499996 -23.717342
vt 0.341625 0.796173
vn -0.000000 0.000000 -1.000000
v -3.162312 19.499996 -23.717342
vt 0.361572 0.796173
vn -0.000000 0.000000 -1.000000
v 3.162312 6.500000 -25.622097
vt 0.141985 0.894832
vn -1.000000 0.000000 0.000000
v 3.162312 1.000000 -24.273567
vt 0.150800 0.858682
vn -1.000000 0.000000 0.000000
v 3.162312 1.000000 -26.760860
vt 0.134456 0.858703
vn -1.000000 0.000000 0.000000
v 3.162312 6.500000 -24.273567
vt 0.150846 0.894821
vn -1.000000 0.000000 0.000000
v 3.162312 1.000000 -23.717342
vt 0.154455 0.858678
vn -1.000000 0.000000 0.000000
v 3.162312 6.500000 -23.717344
vt 0.154501 0.894819
vn -1.000000 0.000000 0.000000
v 3.162312 12.999999 -24.015213
vt 0.152546 0.937531
vn -1.000000 0.000000 0.000000
v 3.162312 12.999999 -23.717342
vt 0.154503 0.937531
vn -1.000000 0.000000 0.000000
v 3.161822 0.998591 -22.263992
vt 0.164014 0.858665
vn -1.000000 0.000000 0.000000
v 3.162110 6.498589 -22.264778
vt 0.164059 0.894807
vn -1.000000 0.000000 0.000000
v 3.162312 13.000000 -24.273567
vt 0.150848 0.937531
vn -1.000000 0.000000 0.000000
v 3.162110 6.498589 -22.264778
vt 0.321679 0.705000
vn -0.000000 -1.000000 0.000000
v -0.000000 6.500000 -23.717342
vt 0.341625 0.714175
vn -0.000000 -1.000000 0.000000
v -0.000000 6.500000 -22.262650
vt 0.341625 0.705000
vn -0.000000 -1.000000 0.000000
v 3.162312 6.500000 -23.717344
vt 0.321679 0.714175
vn -0.000000 -1.000000 0.000000
v -3.162513 6.498921 -22.264139
vt 0.361572 0.705000
vn -0.000000 -1.000000 0.000000
v -3.162312 6.500000 -23.717344
vt 0.361572 0.714175
vn -0.000000 -1.000000 0.000000
v -3.162312 6.500000 -25.622097
vt 0.188028 0.895017
vn 1.000000 0.000000 0.000000
v -3.162312 1.000000 -24.273567
vt 0.179216 0.858859
vn 1.000000 0.000000 0.000000
v -3.162312 6.500000 -24.273567
vt 0.179166 0.895005
vn 1.000000 0.000000 0.000000
v -3.162312 1.000000 -26.760860
vt 0.195563 0.858882
vn 1.000000 0.000000 0.000000
v -3.162312 1.000000 -23.717342
vt 0.175561 0.858854
vn 1.000000 0.000000 0.000000
v -3.162312 6.500000 -23.717344
vt 0.175510 0.895002
vn 1.000000 0.000000 0.000000
v -3.162312 12.999999 -24.015213
vt 0.177467 0.937724
vn 1.000000 0.000000 0.000000
v -3.162312 12.999999 -23.717342
vt 0.175509 0.937724
vn 1.000000 0.000000 0.000000
v -3.162802 0.998923 -22.263353
vt 0.166000 0.858840
vn 1.000000 0.000000 0.000000
v -3.162513 6.498921 -22.264139
vt 0.165949 0.894989
vn 1.000000 0.000000 0.000000
v -3.162312 13.000000 -24.273567
vt 0.179165 0.937724
vn 1.000000 0.000000 0.000000
v -26.265030 1.000000 -26.760857
vt 0.418887 0.065189
vn -0.000000 0.202747 -0.979231
v -3.162312 6.500000 -25.622097
vt 0.276078 0.099908
vn -0.000000 0.202747 -0.979231
v -25.147369 6.500000 -25.622097
vt 0.411979 0.099908
vn -0.000000 0.202747 -0.979231
v -3.162312 1.000000 -26.760860
vt 0.276078 0.065189
vn -0.000000 0.202747 -0.979231
v -23.823822 6.500000 -24.273567
vt 0.314957 0.895003
vn -0.000000 0.000000 -1.000000
v -3.162312 13.000000 -24.273567
vt 0.179165 0.937724
vn -0.000000 0.000000 -1.000000
v -23.823822 13.000000 -24.273567
vt 0.314957 0.937722
vn -0.000000 0.000000 -1.000000
v -3.162312 6.500000 -24.273567
vt 0.179166 0.895005
vn -0.000000 0.000000 -1.000000
v -25.147369 6.500000 -25.622097
vt 0.411979 0.099908
vn -0.000000 1.000000 0.000000
v -3.162312 6.500000 -24.273567
vt 0.276078 0.108244
vn -0.000000 1.000000 0.000000
v -23.823822 6.500000 -24.273567
vt 0.403797 0.108244
vn -0.000000 1.000000 0.000000
v -3.162312 6.500000 -25.622097
vt 0.276078 0.099908
vn -0.000000 1.000000 0.000000
v -23.823822 13.000000 -24.273567
vt 0.314957 0.937722
vn -0.000000 1.000000 0.000000
v -3.162312 12.999999 -24.015213
vt 0.179165 0.939422
vn -0.000000 1.000000 0.000000
v -23.570257 12.999999 -24.015213
vt 0.313291 0.939420
vn -0.000000 1.000000 0.000000
v -3.162312 13.000000 -24.273567
vt 0.179165 0.937724
vn -0.000000 1.000000 0.000000
v -25.147369 6.500000 -25.622097
vt 0.453920 0.102505
vn -0.979971 0.199141 0.000000
v -26.265030 1.000000 27.587631
vt 0.789541 0.067107
vn -0.979971 0.199141 0.000000
v -26.265030 1.000000 -26.760857
vt 0.446738 0.067105
vn -0.979971 0.199141 0.000000
v -25.147369 6.500000 26.448870
vt 0.782358 0.102507
vn -0.979971 0.199141 0.000000
v -23.823822 13.000000 -24.273567
vt 0.015494 0.651414
vn -1.000000 0.000000 0.000000
v -23.823822 6.500000 25.100338
vt 0.356212 0.606559
vn -1.000000 0.000000 0.000000
v -23.823822 6.500000 -24.273567
vt 0.015494 0.606559
vn -1.000000 0.000000 0.000000
v -23.823822 13.000000 25.100340
vt 0.356212 0.651414
vn -1.000000 0.000000 0.000000
v -23.823822 6.500000 -24.273567
vt 0.462426 0.110853
vn -0.000000 1.000000 0.000000
v -25.147369 6.500000 26.448870
vt 0.782358 0.102507
vn -0.000000 1.000000 0.000000
v -25.147369 6.500000 -25.622097
vt 0.453920 0.102505
vn -0.000000 1.000000 0.000000
v -23.823822 6.500000 25.100338
vt 0.773852 0.110855
vn -0.000000 1.000000 0.000000
v -3.162312 6.500000 26.448872
vt 0.267086 0.047868
vn -0.000000 0.202747 0.979231
v -26.265030 1.000000 27.587631
vt 0.121366 0.012441
vn -0.000000 0.202747 0.979231
v -25.147369 6.500000 26.448870
vt 0.128416 0.047868
vn -0.000000 0.202747 0.979231
v -3.162312 1.000000 27.587633
vt 0.267086 0.012441
vn -0.000000 0.202747 0.979231
v -3.162312 13.000000 25.100340
vt 0.158793 0.749734
vn -0.000000 0.000000 1.000000
v -23.823822 6.500000 25.100338
vt 0.016212 0.704879
vn -0.000000 0.000000 1.000000
v -23.823822 13.000000 25.100340
vt 0.016212 0.749734
vn -0.000000 0.000000 1.000000
v -3.162312 6.500000 25.100340
vt 0.158793 0.704879
vn -0.000000 0.000000 1.000000
v -3.162312 6.500000 25.100340
vt 0.267086 0.056374
vn -0.000000 1.000000 0.000000
v -25.147369 6.500000 26.448870
vt 0.128416 0.047868
vn -0.000000 1.000000 0.000000
v -23.823822 6.500000 25.100338
vt 0.136764 0.056374
vn -0.000000 1.000000 0.000000
v -3.162312 6.500000 26.448872
vt 0.267086 0.047868
vn -0.000000 1.000000 0.000000
v -23.570257 12.999999 -24.015213
vt 0.017277 0.653164
vn -0.000000 1.000000 0.000000
v -23.823822 13.000000 25.100340
vt 0.356212 0.651414
vn -0.000000 1.000000 0.000000
v -23.823822 13.000000 -24.273567
vt 0.015494 0.651414
vn -0.000000 1.000000 0.000000
v -23.570257 12.999999 24.841986
vt 0.354429 0.653164
vn -0.000000 1.000000 0.000000
v -3.162312 12.999999 24.841986
vt 0.158793 0.751517
vn -0.000000 1.000000 0.000000
v -23.823822 13.000000 25.100340
vt 0.016212 0.749734
vn -0.000000 1.000000 0.000000
v -23.570257 12.999999 24.841986
vt 0.017962 0.751517
vn -0.000000 1.000000 0.000000
v -3.162312 13.000000 25.100340
vt 0.158793 0.749734
vn -0.000000 1.000000 0.000000
v 3.162312 6.500000 26.448872
vt 0.278316 0.047868
vn -0.000000 0.202747 0.979231
v 26.265030 1.000000 27.587629
vt 0.424036 0.012441
vn -0.000000 0.202747 0.979231
v 3.162312 1.000000 27.587633
vt 0.278316 0.012441
vn -0.000000 0.202747 0.979231
v 25.147369 6.500000 26.448870
vt 0.416987 0.047868
vn -0.000000 0.202747 0.979231
v 3.162312 13.000000 25.100340
vt 0.169900 0.749734
vn -0.000000 0.000000 1.000000
v 23.823822 6.500000 25.100340
vt 0.312481 0.704879
vn -0.000000 0.000000 1.000000
v 3.162312 6.500000 25.100340
vt 0.169900 0.704879
vn -0.000000 0.000000 1.000000
v 23.823822 13.000000 25.100340
vt 0.312481 0.749734
vn -0.000000 0.000000 1.000000
v 3.162312 6.500000 25.100340
vt 0.278316 0.056374
vn -0.000000 1.000000 0.000000
v 25.147369 6.500000 26.448870
vt 0.416987 0.047868
vn -0.000000 1.000000 0.000000
v 3.162312 6.500000 26.448872
vt 0.278316 0.047868
vn -0.000000 1.000000 0.000000
v 23.823822 6.500000 25.100340
vt 0.408638 0.056374
vn -0.000000 1.000000 0.000000
v 3.162312 12.999999 24.841986
vt 0.169900 0.751517
vn -0.000000 1.000000 0.000000
v 23.823822 13.000000 25.100340
vt 0.312481 0.749734
vn -0.000000 1.000000 0.000000
v 3.162312 13.000000 25.100340
vt 0.169900 0.749734
vn -0.000000 1.000000 0.000000
v 23.570257 12.999999 24.841986
vt 0.310731 0.751517
vn -0.000000 1.000000 0.000000
v 25.147369 6.500000 -25.622097
vt 0.784271 0.051167
vn 0.979971 0.199141 0.000000
v 26.265030 1.000000 27.587629
vt 0.448657 0.015763
vn 0.979971 0.199141 0.000000
v 25.147369 6.500000 26.448870
vt 0.455839 0.051162
vn 0.979971 0.199141 0.000000
v 26.265030 1.000000 -26.760857
vt 0.791454 0.015767
vn 0.979971 0.199141 0.000000
v 26.265030 1.000000 -26.760857
vt 0.123901 0.065180
vn -0.000000 0.202747 -0.979231
v 3.162312 6.500000 -25.622097
vt 0.269621 0.100607
vn -0.000000 0.202747 -0.979231
v 3.162312 1.000000 -26.760860
vt 0.269621 0.065180
vn -0.000000 0.202747 -0.979231
v 25.147369 6.500000 -25.622097
vt 0.130950 0.100607
vn -0.000000 0.202747 -0.979231
v 23.823822 6.500000 -24.273567
vt 0.015083 0.894826
vn -0.000000 0.000000 -1.000000
v 3.162312 13.000000 -24.273567
vt 0.150848 0.937531
vn -0.000000 0.000000 -1.000000
v 3.162312 6.500000 -24.273567
vt 0.150846 0.894821
vn -0.000000 0.000000 -1.000000
v 23.823822 13.000000 -24.273567
vt 0.015085 0.937536
vn -0.000000 0.000000 -1.000000
v 23.823822 13.000000 -24.273567
vt 0.382160 0.328794
vn 1.000000 0.000000 0.000000
v 23.823822 6.500000 25.100340
vt 0.041442 0.283939
vn 1.000000 0.000000 0.000000
v 23.823822 13.000000 25.100340
vt 0.041442 0.328794
vn 1.000000 0.000000 0.000000
v 23.823822 6.500000 -24.273567
vt 0.382160 0.283939
vn 1.000000 0.000000 0.000000
v 23.823822 6.500000 -24.273567
vt 0.775765 0.059515
vn -0.000000 1.000000 0.000000
v 25.147369 6.500000 26.448870
vt 0.455839 0.051162
vn -0.000000 1.000000 0.000000
v 23.823822 6.500000 25.100340
vt 0.464345 0.059510
vn -0.000000 1.000000 0.000000
v 25.147369 6.500000 -25.622097
vt 0.784271 0.051167
vn -0.000000 1.000000 0.000000
v 25.147369 6.500000 -25.622097
vt 0.130950 0.100607
vn -0.000000 1.000000 0.000000
v 3.162312 6.500000 -24.273567
vt 0.269621 0.109113
vn -0.000000 1.000000 0.000000
v 3.162312 6.500000 -25.622097
vt 0.269621 0.100607
vn -0.000000 1.000000 0.000000
v 23.823822 6.500000 -24.273567
vt 0.139298 0.109113
vn -0.000000 1.000000 0.000000
v 23.823822 13.000000 -24.273567
vt 0.015085 0.937536
vn -0.000000 1.000000 0.000000
v 3.162312 12.999999 -24.015213
vt 0.150848 0.939229
vn -0.000000 1.000000 0.000000
v 3.162312 13.000000 -24.273567
vt 0.150848 0.937531
vn -0.000000 1.000000 0.000000
v 23.570257 12.999999 -24.015213
vt 0.016751 0.939233
vn -0.000000 1.000000 0.000000
v 23.570257 12.999999 -24.015213
vt 0.380378 0.330544
vn -0.000000 1.000000 0.000000
v 23.823822 13.000000 25.100340
vt 0.041442 0.328794
vn -0.000000 1.000000 0.000000
v 23.570257 12.999999 24.841986
vt 0.043225 0.330544
vn -0.000000 1.000000 0.000000
v 23.823822 13.000000 -24.273567
vt 0.382160 0.328794
vn -0.000000 1.000000 0.000000
v 3.162312 19.499996 -24.015213
vt 0.150850 0.981940
vn -1.000000 0.000000 0.000000
v 3.162312 12.999999 -23.717342
vt 0.152805 0.939229
vn -1.000000 0.000000 0.000000
v 3.162312 12.999999 -24.015213
vt 0.150848 0.939229
vn -1.000000 0.000000 0.000000
v 3.162312 19.499996 -23.717342
vt 0.152807 0.981940
vn -1.000000 0.000000 0.000000
v 23.570257 12.999999 -24.015213
vt 0.016751 0.939233
vn -0.000000 0.000000 -1.000000
v 3.162312 19.499996 -24.015213
vt 0.150850 0.981940
vn -0.000000 0.000000 -1.000000
v 3.162312 12.999999 -24.015213
vt 0.150848 0.939229
vn -0.000000 0.000000 -1.000000
v 23.570255 19.499996 -24.015213
vt 0.016752 0.981944
vn -0.000000 0.000000 -1.000000
v 23.570255 19.499996 -24.015213
vt 0.380378 0.375399
vn 1.000000 0.000000 0.000000
v 23.570257 12.999999 24.841986
vt 0.043225 0.330544
vn 1.000000 0.000000 0.000000
v 23.570255 19.499996 24.841986
vt 0.043225 0.375399
vn 1.000000 0.000000 0.000000
v 23.570257 12.999999 -24.015213
vt 0.380378 0.330544
vn 1.000000 0.000000 0.000000
v 3.162312 19.499996 24.841986
vt 0.169901 0.796372
vn -0.000000 0.000000 1.000000
v 23.570257 12.999999 24.841986
vt 0.310731 0.751517
vn -0.000000 0.000000 1.000000
v 3.162312 12.999999 24.841986
vt 0.169900 0.751517
vn -0.000000 0.000000 1.000000
v 23.570255 19.499996 24.841986
vt 0.310731 0.796372
vn -0.000000 0.000000 1.000000
v 3.162312 12.999999 24.544117
vt 0.167845 0.751517
vn -1.000000 0.000000 0.000000
v 3.162312 19.499996 24.841986
vt 0.169901 0.796372
vn -1.000000 0.000000 0.000000
v 3.162312 12.999999 24.841986
vt 0.169900 0.751517
vn -1.000000 0.000000 0.000000
v 3.162312 19.499996 24.544113
vt 0.167845 0.796372
vn -1.000000 0.000000 0.000000
v -3.162312 19.499996 -24.015213
vt 0.179166 0.982141
vn 1.000000 0.000000 0.000000
v -3.162312 12.999999 -23.717342
vt 0.177207 0.939422
vn 1.000000 0.000000 0.000000
v -3.162312 19.499996 -23.717342
vt 0.177208 0.982141
vn 1.000000 0.000000 0.000000
v -3.162312 12.999999 -24.015213
vt 0.179165 0.939422
vn 1.000000 0.000000 0.000000
v -23.570257 12.999999 -24.015213
vt 0.313291 0.939420
vn -0.000000 0.000000 -1.000000
v -3.162312 19.499996 -24.015213
vt 0.179166 0.982141
vn -0.000000 0.000000 -1.000000
v -23.570255 19.499996 -24.015213
vt 0.313291 0.982140
vn -0.000000 0.000000 -1.000000
v -3.162312 12.999999 -24.015213
vt 0.179165 0.939422
vn -0.000000 0.000000 -1.000000
v -23.570255 19.499996 -24.015213
vt 0.017276 0.698019
vn -1.000000 0.000000 0.000000
v -23.570257 12.999999 24.841986
vt 0.354429 0.653164
vn -1.000000 0.000000 0.000000
v -23.570257 12.999999 -24.015213
vt 0.017277 0.653164
vn -1.000000 0.000000 0.000000
v -23.570255 19.499996 24.841986
vt 0.354429 0.698019
vn -1.000000 0.000000 0.000000
v -3.162312 19.499996 24.841986
vt 0.158793 0.796372
vn -0.000000 0.000000 1.000000
v -23.570257 12.999999 24.841986
vt 0.017962 0.751517
vn -0.000000 0.000000 1.000000
v -23.570255 19.499996 24.841986
vt 0.017962 0.796372
vn -0.000000 0.000000 1.000000
v -3.162312 12.999999 24.841986
vt 0.158793 0.751517
vn -0.000000 0.000000 1.000000
v -3.162312 12.999999 24.544117
vt 0.160849 0.751517
vn 1.000000 0.000000 0.000000
v -3.162312 19.499996 24.841986
vt 0.158793 0.796372
vn 1.000000 0.000000 0.000000
v -3.162312 19.499996 24.544113
vt 0.160849 0.796372
vn 1.000000 0.000000 0.000000
v -3.162312 12.999999 24.841986
vt 0.158793 0.751517
vn 1.000000 0.000000 0.000000
# Faces (1 to 214)
g MainWall1_0
f -212/-212/-212 -213/-213/-213 -214/-214/-214
f -213/-213/-213 -211/-211/-211 -214/-214/-214
f -213/-213/-213 -210/-210/-210 -211/-211/-211
f -210/-210/-210 -209/-209/-209 -211/-211/-211
f -208/-208/-208 -209/-209/-209 -210/-210/-210
f -207/-207/-207 -208/-208/-208 -210/-210/-210
f -204/-204/-204 -205/-205/-205 -206/-206/-206
f -205/-205/-205 -203/-203/-203 -206/-206/-206
f -202/-202/-202 -206/-206/-206 -203/-203/-203
f -199/-199/-199 -200/-200/-200 -201/-201/-201
f -200/-200/-200 -198/-198/-198 -201/-201/-201
f -197/-197/-197 -199/-199/-199 -201/-201/-201
f -196/-196/-196 -197/-197/-197 -201/-201/-201
f -201/-201/-201 -198/-198/-198 -195/-195/-195
f -196/-196/-196 -201/-201/-201 -195/-195/-195
f -198/-198/-198 -194/-194/-194 -195/-195/-195
f -193/-193/-193 -196/-196/-196 -195/-195/-195
f -190/-190/-190 -191/-191/-191 -192/-192/-192
f -191/-191/-191 -189/-189/-189 -192/-192/-192
f -188/-188/-188 -191/-191/-191 -190/-190/-190
f -187/-187/-187 -188/-188/-188 -190/-190/-190
f -187/-187/-187 -186/-186/-186 -188/-188/-188
f -186/-186/-186 -185/-185/-185 -188/-188/-188
f -182/-182/-182 -183/-183/-183 -184/-184/-184
f -183/-183/-183 -181/-181/-181 -184/-184/-184
f -184/-184/-184 -180/-180/-180 -182/-182/-182
f -177/-177/-177 -178/-178/-178 -179/-179/-179
f -178/-178/-178 -176/-176/-176 -179/-179/-179
f -176/-176/-176 -175/-175/-175 -179/-179/-179
f -175/-175/-175 -174/-174/-174 -179/-179/-179
f -171/-171/-171 -172/-172/-172 -173/-173/-173
f -172/-172/-172 -170/-170/-170 -173/-173/-173
f -170/-170/-170 -172/-172/-172 -169/-169/-169
f -172/-172/-172 -168/-168/-168 -169/-169/-169
f -173/-173/-173 -170/-170/-170 -167/-167/-167
f -170/-170/-170 -166/-166/-166 -167/-167/-167
f -166/-166/-166 -170/-170/-170 -165/-165/-165
f -170/-170/-170 -169/-169/-169 -165/-165/-165
f -162/-162/-162 -163/-163/-163 -164/-164/-164
f -163/-163/-163 -161/-161/-161 -164/-164/-164
f -163/-163/-163 -160/-160/-160 -161/-161/-161
f -160/-160/-160 -159/-159/-159 -161/-161/-161
f -161/-161/-161 -159/-159/-159 -158/-158/-158
f -159/-159/-159 -157/-157/-157 -158/-158/-158
f -159/-159/-159 -160/-160/-160 -156/-156/-156
f -155/-155/-155 -159/-159/-159 -156/-156/-156
f -161/-161/-161 -158/-158/-158 -154/-154/-154
f -151/-151/-151 -152/-152/-152 -153/-153/-153
f -152/-152/-152 -150/-150/-150 -153/-153/-153
f -152/-152/-152 -151/-151/-151 -149/-149/-149
f -148/-148/-148 -152/-152/-152 -149/-149/-149
f -145/-145/-145 -146/-146/-146 -147/-147/-147
f -146/-146/-146 -144/-144/-144 -147/-147/-147
f -143/-143/-143 -146/-146/-146 -145/-145/-145
f -142/-142/-142 -143/-143/-143 -145/-145/-145
f -142/-142/-142 -145/-145/-145 -141/-141/-141
f -140/-140/-140 -142/-142/-142 -141/-141/-141
f -143/-143/-143 -142/-142/-142 -139/-139/-139
f -142/-142/-142 -138/-138/-138 -139/-139/-139
f -141/-141/-141 -145/-145/-145 -137/-137/-137
f -134/-134/-134 -135/-135/-135 -136/-136/-136
f -135/-135/-135 -133/-133/-133 -136/-136/-136
f -130/-130/-130 -131/-131/-131 -132/-132/-132
f -131/-131/-131 -129/-129/-129 -132/-132/-132
f -126/-126/-126 -127/-127/-127 -128/-128/-128
f -127/-127/-127 -125/-125/-125 -128/-128/-128
f -122/-122/-122 -123/-123/-123 -124/-124/-124
f -123/-123/-123 -121/-121/-121 -124/-124/-124
f -118/-118/-118 -119/-119/-119 -120/-120/-120
f -119/-119/-119 -117/-117/-117 -120/-120/-120
f -114/-114/-114 -115/-115/-115 -116/-116/-116
f -115/-115/-115 -113/-113/-113 -116/-116/-116
f -110/-110/-110 -111/-111/-111 -112/-112/-112
f -111/-111/-111 -109/-109/-109 -112/-112/-112
f -106/-106/-106 -107/-107/-107 -108/-108/-108
f -107/-107/-107 -105/-105/-105 -108/-108/-108
f -102/-102/-102 -103/-103/-103 -104/-104/-104
f -103/-103/-103 -101/-101/-101 -104/-104/-104
f -98/-98/-98 -99/-99/-99 -100/-100/-100
f -99/-99/-99 -97/-97/-97 -100/-100/-100
f -94/-94/-94 -95/-95/-95 -96/-96/-96
f -95/-95/-95 -93/-93/-93 -96/-96/-96
f -90/-90/-90 -91/-91/-91 -92/-92/-92
f -91/-91/-91 -89/-89/-89 -92/-92/-92
f -86/-86/-86 -87/-87/-87 -88/-88/-88
f -87/-87/-87 -85/-85/-85 -88/-88/-88
f -82/-82/-82 -83/-83/-83 -84/-84/-84
f -83/-83/-83 -81/-81/-81 -84/-84/-84
f -78/-78/-78 -79/-79/-79 -80/-80/-80
f -79/-79/-79 -77/-77/-77 -80/-80/-80
f -74/-74/-74 -75/-75/-75 -76/-76/-76
f -75/-75/-75 -73/-73/-73 -76/-76/-76
f -70/-70/-70 -71/-71/-71 -72/-72/-72
f -71/-71/-71 -69/-69/-69 -72/-72/-72
f -66/-66/-66 -67/-67/-67 -68/-68/-68
f -67/-67/-67 -65/-65/-65 -68/-68/-68
f -62/-62/-62 -63/-63/-63 -64/-64/-64
f -63/-63/-63 -61/-61/-61 -64/-64/-64
f -58/-58/-58 -59/-59/-59 -60/-60/-60
f -59/-59/-59 -57/-57/-57 -60/-60/-60
f -54/-54/-54 -55/-55/-55 -56/-56/-56
f -55/-55/-55 -53/-53/-53 -56/-56/-56
f -50/-50/-50 -51/-51/-51 -52/-52/-52
f -51/-51/-51 -49/-49/-49 -52/-52/-52
f -46/-46/-46 -47/-47/-47 -48/-48/-48
f -47/-47/-47 -45/-45/-45 -48/-48/-48
f -42/-42/-42 -43/-43/-43 -44/-44/-44
f -43/-43/-43 -41/-41/-41 -44/-44/-44
f -38/-38/-38 -39/-39/-39 -40/-40/-40
f -39/-39/-39 -37/-37/-37 -40/-40/-40
f -34/-34/-34 -35/-35/-35 -36/-36/-36
f -35/-35/-35 -33/-33/-33 -36/-36/-36
f -30/-30/-30 -31/-31/-31 -32/-32/-32
f -31/-31/-31 -29/-29/-29 -32/-32/-32
f -26/-26/-26 -27/-27/-27 -28/-28/-28
f -27/-27/-27 -25/-25/-25 -28/-28/-28
f -22/-22/-22 -23/-23/-23 -24/-24/-24
f -23/-23/-23 -21/-21/-21 -24/-24/-24
f -18/-18/-18 -19/-19/-19 -20/-20/-20
f -19/-19/-19 -17/-17/-17 -20/-20/-20
f -14/-14/-14 -15/-15/-15 -16/-16/-16
f -15/-15/-15 -13/-13/-13 -16/-16/-16
f -10/-10/-10 -11/-11/-11 -12/-12/-12
f -11/-11/-11 -9/-9/-9 -12/-12/-12
f -6/-6/-6 -7/-7/-7 -8/-8/-8
f -7/-7/-7 -5/-5/-5 -8/-8/-8
f -2/-2/-2 -3/-3/-3 -4/-4/-4
f -3/-3/-3 -1/-1/-1 -4/-4/-4

