# Mesh "Pillars" exported with Unity Assets Bundle Extractor; 96 vertices, 144 indices, 448 bits per vertex
g Pillars
# SubMesh 0
# Vertices
v -137.552490 -1.500000 3.985245
vt 0.926492 0.652727
vn -0.000000 0.000000 -1.000000
v -137.916031 45.344273 3.985245
vt 0.923871 0.990189
vn -0.000000 0.000000 -1.000000
v -137.916031 -1.500000 3.985245
vt 0.923871 0.652727
vn -0.000000 0.000000 -1.000000
v -137.552490 45.344273 3.985245
vt 0.926492 0.990189
vn -0.000000 0.000000 -1.000000
v -137.552490 45.344273 6.014755
vt 0.906620 0.990189
vn -0.000000 0.000000 1.000000
v -137.916031 -1.500000 6.014755
vt 0.909240 0.652727
vn -0.000000 0.000000 1.000000
v -137.916031 45.344273 6.014755
vt 0.909240 0.990189
vn -0.000000 0.000000 1.000000
v -137.552490 -1.500000 6.014755
vt 0.906620 0.652727
vn -0.000000 0.000000 1.000000
v -137.916031 -1.500000 3.985245
vt 0.923871 0.652727
vn -1.000000 0.000000 0.000000
v -137.916031 45.344273 6.014755
vt 0.909240 0.990189
vn -1.000000 0.000000 0.000000
v -137.916031 -1.500000 6.014755
vt 0.909240 0.652727
vn -1.000000 0.000000 0.000000
v -137.916031 45.344273 3.985245
vt 0.923871 0.990189
vn -1.000000 0.000000 0.000000
v -137.552490 -1.500000 -6.014755
vt 0.947424 0.652727
vn -0.000000 0.000000 -1.000000
v -137.916031 45.344273 -6.014755
vt 0.944804 0.990189
vn -0.000000 0.000000 -1.000000
v -137.916031 -1.500000 -6.014755
vt 0.944804 0.652727
vn -0.000000 0.000000 -1.000000
v -137.552490 45.344273 -6.014755
vt 0.947424 0.990189
vn -0.000000 0.000000 -1.000000
v -137.552490 45.344273 -3.985245
vt 0.927552 0.990189
vn -0.000000 0.000000 1.000000
v -137.916031 -1.500000 -3.985245
vt 0.930173 0.652727
vn -0.000000 0.000000 1.000000
v -137.916031 45.344273 -3.985245
vt 0.930173 0.990189
vn -0.000000 0.000000 1.000000
v -137.552490 -1.500000 -3.985245
vt 0.927552 0.652727
vn -0.000000 0.000000 1.000000
v -137.916031 -1.500000 -6.014755
vt 0.944804 0.652727
vn -1.000000 0.000000 0.000000
v -137.916031 45.344273 -3.985245
vt 0.930173 0.990189
vn -1.000000 0.000000 0.000000
v -137.916031 -1.500000 -3.985245
vt 0.930173 0.652727
vn -1.000000 0.000000 0.000000
v -137.916031 45.344273 -6.014755
vt 0.944804 0.990189
vn -1.000000 0.000000 0.000000
v -155.537735 -1.500000 14.000000
vt 0.884176 0.652727
vn 1.000000 0.000000 0.000000
v -155.537735 45.344273 13.636462
vt 0.881555 0.990189
vn 1.000000 0.000000 0.000000
v -155.537735 -1.500000 13.636462
vt 0.881555 0.652727
vn 1.000000 0.000000 0.000000
v -155.537735 45.344273 14.000000
vt 0.884176 0.990189
vn 1.000000 0.000000 0.000000
v -157.567245 45.344273 14.000000
vt 0.864304 0.990189
vn -1.000000 0.000000 0.000000
v -157.567245 -1.500000 13.636462
vt 0.866925 0.652727
vn -1.000000 0.000000 0.000000
v -157.567245 45.344273 13.636462
vt 0.866925 0.990189
vn -1.000000 0.000000 0.000000
v -157.567245 -1.500000 14.000000
vt 0.864304 0.652727
vn -1.000000 0.000000 0.000000
v -155.537735 -1.500000 13.636462
vt 0.881555 0.652727
vn -0.000000 0.000000 -1.000000
v -157.567245 45.344273 13.636462
vt 0.866925 0.990189
vn -0.000000 0.000000 -1.000000
v -157.567245 -1.500000 13.636462
vt 0.866925 0.652727
vn -0.000000 0.000000 -1.000000
v -155.537735 45.344273 13.636462
vt 0.881555 0.990189
vn -0.000000 0.000000 -1.000000
v -145.537735 -1.500000 14.000000
vt 0.905109 0.652727
vn 1.000000 0.000000 0.000000
v -145.537735 45.344273 13.636462
vt 0.902488 0.990189
vn 1.000000 0.000000 0.000000
v -145.537735 -1.500000 13.636462
vt 0.902488 0.652727
vn 1.000000 0.000000 0.000000
v -145.537735 45.344273 14.000000
vt 0.905109 0.990189
vn 1.000000 0.000000 0.000000
v -147.567245 45.344273 14.000000
vt 0.885237 0.990189
vn -1.000000 0.000000 0.000000
v -147.567245 -1.500000 13.636462
vt 0.887858 0.652727
vn -1.000000 0.000000 0.000000
v -147.567245 45.344273 13.636462
vt 0.887858 0.990189
vn -1.000000 0.000000 0.000000
v -147.567245 -1.500000 14.000000
vt 0.885237 0.652727
vn -1.000000 0.000000 0.000000
v -145.537735 -1.500000 13.636462
vt 0.902488 0.652727
vn -0.000000 0.000000 -1.000000
v -147.567245 45.344273 13.636462
vt 0.887858 0.990189
vn -0.000000 0.000000 -1.000000
v -147.567245 -1.500000 13.636462
vt 0.887858 0.652727
vn -0.000000 0.000000 -1.000000
v -145.537735 45.344273 13.636462
vt 0.902488 0.990189
vn -0.000000 0.000000 -1.000000
v -157.567245 -1.500000 -14.000000
vt 0.862295 0.652727
vn -1.000000 0.000000 0.000000
v -157.567245 45.344273 -13.636462
vt 0.859674 0.990189
vn -1.000000 0.000000 0.000000
v -157.567245 -1.500000 -13.636462
vt 0.859674 0.652727
vn -1.000000 0.000000 0.000000
v -157.567245 45.344273 -14.000000
vt 0.862295 0.990189
vn -1.000000 0.000000 0.000000
v -155.537735 45.344273 -14.000000
vt 0.842423 0.990189
vn 1.000000 0.000000 0.000000
v -155.537735 -1.500000 -13.636462
vt 0.845044 0.652727
vn 1.000000 0.000000 0.000000
v -155.537735 45.344273 -13.636462
vt 0.845044 0.990189
vn 1.000000 0.000000 0.000000
v -155.537735 -1.500000 -14.000000
vt 0.842423 0.652727
vn 1.000000 0.000000 0.000000
v -157.567245 -1.500000 -13.636462
vt 0.859674 0.652727
vn -0.000000 0.000000 1.000000
v -155.537735 45.344273 -13.636462
vt 0.845044 0.990189
vn -0.000000 0.000000 1.000000
v -155.537735 -1.500000 -13.636462
vt 0.845044 0.652727
vn -0.000000 0.000000 1.000000
v -157.567245 45.344273 -13.636462
vt 0.859674 0.990189
vn -0.000000 0.000000 1.000000
v -147.567245 -1.500000 -14.000000
vt 0.841363 0.652727
vn -1.000000 0.000000 0.000000
v -147.567245 45.344273 -13.636462
vt 0.838742 0.990189
vn -1.000000 0.000000 0.000000
v -147.567245 -1.500000 -13.636462
vt 0.838742 0.652727
vn -1.000000 0.000000 0.000000
v -147.567245 45.344273 -14.000000
vt 0.841363 0.990189
vn -1.000000 0.000000 0.000000
v -145.537735 45.344273 -14.000000
vt 0.821491 0.990189
vn 1.000000 0.000000 0.000000
v -145.537735 -1.500000 -13.636462
vt 0.824111 0.652727
vn 1.000000 0.000000 0.000000
v -145.537735 45.344273 -13.636462
vt 0.824111 0.990189
vn 1.000000 0.000000 0.000000
v -145.537735 -1.500000 -14.000000
vt 0.821491 0.652727
vn 1.000000 0.000000 0.000000
v -147.567245 -1.500000 -13.636462
vt 0.838742 0.652727
vn -0.000000 0.000000 1.000000
v -145.537735 45.344273 -13.636462
vt 0.824111 0.990189
vn -0.000000 0.000000 1.000000
v -145.537735 -1.500000 -13.636462
vt 0.824111 0.652727
vn -0.000000 0.000000 1.000000
v -147.567245 45.344273 -13.636462
vt 0.838742 0.990189
vn -0.000000 0.000000 1.000000
v -165.552490 -1.500000 -3.985245
vt 0.969202 0.652727
vn -0.000000 0.000000 1.000000
v -165.188950 45.344273 -3.985245
vt 0.966582 0.990189
vn -0.000000 0.000000 1.000000
v -165.188950 -1.500000 -3.985245
vt 0.966582 0.652727
vn -0.000000 0.000000 1.000000
v -165.552490 45.344273 -3.985245
vt 0.969202 0.990189
vn -0.000000 0.000000 1.000000
v -165.552490 45.344273 -6.014755
vt 0.949331 0.990189
vn -0.000000 0.000000 -1.000000
v -165.188950 -1.500000 -6.014755
vt 0.951951 0.652727
vn -0.000000 0.000000 -1.000000
v -165.188950 45.344273 -6.014755
vt 0.951951 0.990189
vn -0.000000 0.000000 -1.000000
v -165.552490 -1.500000 -6.014755
vt 0.949331 0.652727
vn -0.000000 0.000000 -1.000000
v -165.188950 -1.500000 -3.985245
vt 0.966582 0.652727
vn 1.000000 0.000000 0.000000
v -165.188950 45.344273 -6.014755
vt 0.951951 0.990189
vn 1.000000 0.000000 0.000000
v -165.188950 -1.500000 -6.014755
vt 0.951951 0.652727
vn 1.000000 0.000000 0.000000
v -165.188950 45.344273 -3.985245
vt 0.966582 0.990189
vn 1.000000 0.000000 0.000000
v -165.552490 -1.500000 6.014755
vt 0.990135 0.652727
vn -0.000000 0.000000 1.000000
v -165.188950 45.344273 6.014755
vt 0.987514 0.990189
vn -0.000000 0.000000 1.000000
v -165.188950 -1.500000 6.014755
vt 0.987514 0.652727
vn -0.000000 0.000000 1.000000
v -165.552490 45.344273 6.014755
vt 0.990135 0.990189
vn -0.000000 0.000000 1.000000
v -165.552490 45.344273 3.985245
vt 0.970263 0.990189
vn -0.000000 0.000000 -1.000000
v -165.188950 -1.500000 3.985245
vt 0.972884 0.652727
vn -0.000000 0.000000 -1.000000
v -165.188950 45.344273 3.985245
vt 0.972884 0.990189
vn -0.000000 0.000000 -1.000000
v -165.552490 -1.500000 3.985245
vt 0.970263 0.652727
vn -0.000000 0.000000 -1.000000
v -165.188950 -1.500000 6.014755
vt 0.987514 0.652727
vn 1.000000 0.000000 0.000000
v -165.188950 45.344273 3.985245
vt 0.972884 0.990189
vn 1.000000 0.000000 0.000000
v -165.188950 -1.500000 3.985245
vt 0.972884 0.652727
vn 1.000000 0.000000 0.000000
v -165.188950 45.344273 6.014755
vt 0.987514 0.990189
vn 1.000000 0.000000 0.000000
# Faces (1 to 96)
g Pillars_0
f -94/-94/-94 -95/-95/-95 -96/-96/-96
f -95/-95/-95 -93/-93/-93 -96/-96/-96
f -90/-90/-90 -91/-91/-91 -92/-92/-92
f -91/-91/-91 -89/-89/-89 -92/-92/-92
f -86/-86/-86 -87/-87/-87 -88/-88/-88
f -87/-87/-87 -85/-85/-85 -88/-88/-88
f -82/-82/-82 -83/-83/-83 -84/-84/-84
f -83/-83/-83 -81/-81/-81 -84/-84/-84
f -78/-78/-78 -79/-79/-79 -80/-80/-80
f -79/-79/-79 -77/-77/-77 -80/-80/-80
f -74/-74/-74 -75/-75/-75 -76/-76/-76
f -75/-75/-75 -73/-73/-73 -76/-76/-76
f -70/-70/-70 -71/-71/-71 -72/-72/-72
f -71/-71/-71 -69/-69/-69 -72/-72/-72
f -66/-66/-66 -67/-67/-67 -68/-68/-68
f -67/-67/-67 -65/-65/-65 -68/-68/-68
f -62/-62/-62 -63/-63/-63 -64/-64/-64
f -63/-63/-63 -61/-61/-61 -64/-64/-64
f -58/-58/-58 -59/-59/-59 -60/-60/-60
f -59/-59/-59 -57/-57/-57 -60/-60/-60
f -54/-54/-54 -55/-55/-55 -56/-56/-56
f -55/-55/-55 -53/-53/-53 -56/-56/-56
f -50/-50/-50 -51/-51/-51 -52/-52/-52
f -51/-51/-51 -49/-49/-49 -52/-52/-52
f -46/-46/-46 -47/-47/-47 -48/-48/-48
f -47/-47/-47 -45/-45/-45 -48/-48/-48
f -42/-42/-42 -43/-43/-43 -44/-44/-44
f -43/-43/-43 -41/-41/-41 -44/-44/-44
f -38/-38/-38 -39/-39/-39 -40/-40/-40
f -39/-39/-39 -37/-37/-37 -40/-40/-40
f -34/-34/-34 -35/-35/-35 -36/-36/-36
f -35/-35/-35 -33/-33/-33 -36/-36/-36
f -30/-30/-30 -31/-31/-31 -32/-32/-32
f -31/-31/-31 -29/-29/-29 -32/-32/-32
f -26/-26/-26 -27/-27/-27 -28/-28/-28
f -27/-27/-27 -25/-25/-25 -28/-28/-28
f -22/-22/-22 -23/-23/-23 -24/-24/-24
f -23/-23/-23 -21/-21/-21 -24/-24/-24
f -18/-18/-18 -19/-19/-19 -20/-20/-20
f -19/-19/-19 -17/-17/-17 -20/-20/-20
f -14/-14/-14 -15/-15/-15 -16/-16/-16
f -15/-15/-15 -13/-13/-13 -16/-16/-16
f -10/-10/-10 -11/-11/-11 -12/-12/-12
f -11/-11/-11 -9/-9/-9 -12/-12/-12
f -6/-6/-6 -7/-7/-7 -8/-8/-8
f -7/-7/-7 -5/-5/-5 -8/-8/-8
f -2/-2/-2 -3/-3/-3 -4/-4/-4
f -3/-3/-3 -1/-1/-1 -4/-4/-4

