# Mesh "StoneDoors16" exported with Unity Assets Bundle Extractor; 12 vertices, 18 indices, 384 bits per vertex
g StoneDoors16
# SubMesh 0
# Vertices
v 5.117611 0.541881 4.144349
vt 0.000000 0.000000
vn -0.000000 1.000000 0.000000
v 0.005971 0.541882 -2.548126
vt 0.810004 1.000000
vn -0.000000 1.000000 0.000000
v 5.117613 0.541882 -2.548126
vt 0.000000 1.000000
vn -0.000000 1.000000 0.000000
v 0.005970 0.541881 4.144349
vt 0.810003 0.000000
vn -0.000000 1.000000 0.000000
v 5.117613 0.157695 -2.548126
vt 0.000000 1.000000
vn -0.000000 -1.000000 0.000000
v 0.005970 0.157694 4.144349
vt 0.810004 0.000000
vn -0.000000 -1.000000 0.000000
v 5.117611 0.157694 4.144349
vt 0.000000 0.000000
vn -0.000000 -1.000000 0.000000
v 0.005971 0.157695 -2.548126
vt 0.810004 1.000000
vn -0.000000 -1.000000 0.000000
v 0.005970 0.541881 4.144349
vt 1.000000 0.000000
vn -1.000000 0.000000 0.000000
v 0.005971 0.157695 -2.548126
vt 0.810004 1.000000
vn -1.000000 0.000000 0.000000
v 0.005971 0.541882 -2.548126
vt 1.000000 1.000000
vn -1.000000 0.000000 0.000000
v 0.005970 0.157694 4.144349
vt 0.810004 0.000000
vn -1.000000 0.000000 0.000000
# Faces (1 to 12)
g StoneDoors16_0
f -10/-10/-10 -11/-11/-11 -12/-12/-12
f -11/-11/-11 -9/-9/-9 -12/-12/-12
f -6/-6/-6 -7/-7/-7 -8/-8/-8
f -7/-7/-7 -5/-5/-5 -8/-8/-8
f -2/-2/-2 -3/-3/-3 -4/-4/-4
f -3/-3/-3 -1/-1/-1 -4/-4/-4

