# Mesh "StoneDoors8" exported with Unity Assets Bundle Extractor; 12 vertices, 18 indices, 256 bits per vertex
g StoneDoors8
# SubMesh 0
# Vertices
v -2.683044 1.340641 7.875837
vt 0.000000 0.000000
vn -0.000000 0.000000 1.000000
v -0.001992 4.840641 7.875837
vt 0.810003 1.000000
vn -0.000000 0.000000 1.000000
v -0.001992 1.340641 7.875837
vt 0.810003 0.000000
vn -0.000000 0.000000 1.000000
v -2.683044 4.840641 7.875837
vt 0.000000 1.000000
vn -0.000000 0.000000 1.000000
v -2.683044 4.840641 7.307403
vt 0.000000 1.000000
vn -0.000000 0.000000 -1.000000
v -0.001992 1.340641 7.307403
vt 0.810003 0.000000
vn -0.000000 0.000000 -1.000000
v -0.001992 4.840641 7.307403
vt 0.810004 1.000000
vn -0.000000 0.000000 -1.000000
v -2.683044 1.340641 7.307403
vt 0.000000 0.000000
vn -0.000000 0.000000 -1.000000
v -0.001992 1.340641 7.875837
vt 0.810003 0.000000
vn 1.000000 0.000000 0.000000
v -0.001992 4.840641 7.307403
vt 1.000000 1.000000
vn 1.000000 0.000000 0.000000
v -0.001992 1.340641 7.307403
vt 1.000000 0.000000
vn 1.000000 0.000000 0.000000
v -0.001992 4.840641 7.875837
vt 0.810003 1.000000
vn 1.000000 0.000000 0.000000
# Faces (1 to 12)
g StoneDoors8_0
f -10/-10/-10 -11/-11/-11 -12/-12/-12
f -11/-11/-11 -9/-9/-9 -12/-12/-12
f -6/-6/-6 -7/-7/-7 -8/-8/-8
f -7/-7/-7 -5/-5/-5 -8/-8/-8
f -2/-2/-2 -3/-3/-3 -4/-4/-4
f -3/-3/-3 -1/-1/-1 -4/-4/-4

