# Mesh "UnderwaterRoomWalls" exported with Unity Assets Bundle Extractor; 108 vertices, 174 indices, 448 bits per vertex
g UnderwaterRoomWalls
# SubMesh 0
# Vertices
v -3.695204 0.000000 -3.988835
vt 0.996340 0.951587
vn 1.000000 0.000000 0.000000
v -3.695204 -1.000000 2.703642
vt 0.808117 0.923463
vn 1.000000 0.000000 0.000000
v -3.695204 0.000000 2.703642
vt 0.808117 0.951587
vn 1.000000 0.000000 0.000000
v -3.695204 -1.000000 -3.988835
vt 0.996340 0.923463
vn 1.000000 0.000000 0.000000
v -3.695204 0.000000 2.703642
vt 0.101186 0.729530
vn -0.000000 0.000000 -1.000000
v 3.695204 -1.000000 2.703642
vt 0.309038 0.757654
vn -0.000000 0.000000 -1.000000
v 3.695204 0.000000 2.703642
vt 0.309038 0.729530
vn -0.000000 0.000000 -1.000000
v -3.695204 -1.000000 2.703642
vt 0.101187 0.757654
vn -0.000000 0.000000 -1.000000
v 3.695204 0.000000 2.703642
vt 0.996340 0.987908
vn -1.000000 0.000000 0.000000
v 3.695204 -1.000000 -3.988835
vt 0.808117 0.959784
vn -1.000000 0.000000 0.000000
v 3.695204 0.000000 -3.988835
vt 0.808117 0.987908
vn -1.000000 0.000000 0.000000
v 3.695204 -1.000000 2.703642
vt 0.996340 0.959784
vn -1.000000 0.000000 0.000000
v 3.695204 0.000000 -3.988835
vt 0.309038 0.597556
vn -0.000000 0.000000 1.000000
v -3.695204 -1.000000 -3.988835
vt 0.101186 0.569432
vn -0.000000 0.000000 1.000000
v -3.695204 0.000000 -3.988835
vt 0.101186 0.597556
vn -0.000000 0.000000 1.000000
v 3.695204 -1.000000 -3.988835
vt 0.309038 0.569432
vn -0.000000 0.000000 1.000000
v 7.000000 -1.000000 -6.500000
vt 0.797876 0.992633
vn -0.000000 0.000000 1.000000
v -7.000000 -6.159359 -6.500000
vt 0.404133 0.847528
vn -0.000000 0.000000 1.000000
v -7.000000 -1.000000 -6.500000
vt 0.404133 0.992633
vn -0.000000 0.000000 1.000000
v 7.000000 -6.159359 -6.500000
vt 0.797876 0.847528
vn -0.000000 0.000000 1.000000
v 7.000000 -1.000000 5.500000
vt 0.956486 0.488410
vn -1.000000 0.000000 0.000000
v 7.000000 -6.159359 -6.500000
vt 0.618992 0.343305
vn -1.000000 0.000000 0.000000
v 7.000000 -1.000000 -6.500000
vt 0.618992 0.488410
vn -1.000000 0.000000 0.000000
v 7.000000 -6.159359 5.500000
vt 0.956486 0.343305
vn -1.000000 0.000000 0.000000
v -7.000000 -1.000000 5.500000
vt 0.395115 0.992633
vn -0.000000 0.000000 -1.000000
v 7.000000 -6.159359 5.500000
vt 0.001372 0.847528
vn -0.000000 0.000000 -1.000000
v 7.000000 -1.000000 5.500000
vt 0.001372 0.992633
vn -0.000000 0.000000 -1.000000
v -7.000000 -6.159359 5.500000
vt 0.395115 0.847528
vn -0.000000 0.000000 -1.000000
v -7.000000 -1.000000 -6.500000
vt 0.612892 0.488410
vn 1.000000 0.000000 0.000000
v -7.000000 -6.159359 5.500000
vt 0.275397 0.343305
vn 1.000000 0.000000 0.000000
v -7.000000 -1.000000 5.500000
vt 0.275397 0.488410
vn 1.000000 0.000000 0.000000
v -7.000000 -6.159359 -6.500000
vt 0.612892 0.343305
vn 1.000000 0.000000 0.000000
v 7.000000 -6.159359 -6.500000
vt 0.414633 0.498677
vn -0.000000 1.000000 0.000000
v -7.000000 -6.159359 5.500000
vt 0.808376 0.836172
vn -0.000000 1.000000 0.000000
v -7.000000 -6.159359 -6.500000
vt 0.808376 0.498677
vn -0.000000 1.000000 0.000000
v 7.000000 -6.159359 5.500000
vt 0.414633 0.836172
vn -0.000000 1.000000 0.000000
v 3.695204 -1.000000 -3.988835
vt 0.309038 0.569432
vn -0.000000 -1.000000 0.000000
v -7.000000 -1.000000 -6.500000
vt 0.008241 0.498806
vn -0.000000 -1.000000 0.000000
v -3.695204 -1.000000 -3.988835
vt 0.101186 0.569432
vn -0.000000 -1.000000 0.000000
v 7.000000 -1.000000 -6.500000
vt 0.401984 0.498806
vn -0.000000 -1.000000 0.000000
v 3.695204 -1.000000 2.703642
vt 0.309038 0.757654
vn -0.000000 -1.000000 0.000000
v 7.000000 -1.000000 5.500000
vt 0.401984 0.836301
vn -0.000000 -1.000000 0.000000
v -3.695204 -1.000000 2.703642
vt 0.101187 0.757654
vn -0.000000 -1.000000 0.000000
v -7.000000 -1.000000 5.500000
vt 0.008241 0.836301
vn -0.000000 -1.000000 0.000000
v 5.912369 -5.960620 6.000000
vt 0.257199 0.336300
vn 1.000000 0.000000 0.000000
v 5.912354 -6.168538 -5.412356
vt 0.251352 0.015333
vn 1.000000 0.000000 0.000000
v 5.912369 -6.168538 6.000000
vt 0.251352 0.336300
vn 1.000000 0.000000 0.000000
v 5.912354 -5.960620 -5.412356
vt 0.257200 0.015333
vn 1.000000 0.000000 0.000000
v -5.912354 -5.960620 6.000000
vt 0.589764 0.336300
vn -0.000000 1.000000 0.000000
v 5.912354 -5.960620 -5.412356
vt 0.257200 0.015333
vn -0.000000 1.000000 0.000000
v 5.912369 -5.960620 6.000000
vt 0.257199 0.336300
vn -0.000000 1.000000 0.000000
v -5.912369 -5.960620 -5.412356
vt 0.589764 0.015332
vn -0.000000 1.000000 0.000000
v -5.912354 -6.168538 6.000000
vt 0.595612 0.336300
vn -1.000000 0.000000 0.000000
v -5.912369 -5.960620 -5.412356
vt 0.589764 0.015332
vn -1.000000 0.000000 0.000000
v -5.912354 -5.960620 6.000000
vt 0.589764 0.336300
vn -1.000000 0.000000 0.000000
v -5.912369 -6.168538 -5.412356
vt 0.595612 0.015332
vn -1.000000 0.000000 0.000000
v 5.912354 -6.168538 -5.412356
vt 0.257200 0.009485
vn -0.000000 0.000000 -1.000000
v -5.912369 -5.960620 -5.412356
vt 0.589764 0.015332
vn -0.000000 0.000000 -1.000000
v -5.912369 -6.168538 -5.412356
vt 0.589764 0.009485
vn -0.000000 0.000000 -1.000000
v 5.912354 -5.960620 -5.412356
vt 0.257200 0.015333
vn -0.000000 0.000000 -1.000000
v 4.926971 -5.787336 6.000000
vt 0.620623 0.334772
vn 1.000000 0.000000 0.000000
v 4.926956 -5.995253 -4.426964
vt 0.614775 0.041519
vn 1.000000 0.000000 0.000000
v 4.926971 -5.995253 6.000000
vt 0.614775 0.334772
vn 1.000000 0.000000 0.000000
v 4.926956 -5.787336 -4.426964
vt 0.620623 0.041519
vn 1.000000 0.000000 0.000000
v -4.940598 -5.787336 6.000000
vt 0.898143 0.334772
vn -0.000000 1.000000 0.000000
v 4.926956 -5.787336 -4.426964
vt 0.620623 0.041519
vn -0.000000 1.000000 0.000000
v 4.926971 -5.787336 6.000000
vt 0.620623 0.334772
vn -0.000000 1.000000 0.000000
v -4.940598 -5.787336 -4.426964
vt 0.898143 0.041519
vn -0.000000 1.000000 0.000000
v -4.940598 -5.995253 6.000000
vt 0.903991 0.334772
vn -1.000000 0.000000 0.000000
v -4.940598 -5.787336 -4.426964
vt 0.898143 0.041519
vn -1.000000 0.000000 0.000000
v -4.940598 -5.787336 6.000000
vt 0.898143 0.334772
vn -1.000000 0.000000 0.000000
v -4.940598 -5.995253 -4.426964
vt 0.903991 0.041519
vn -1.000000 0.000000 0.000000
v 4.926956 -5.995253 -4.426964
vt 0.620623 0.035671
vn -0.000000 0.000000 -1.000000
v -4.940598 -5.787336 -4.426964
vt 0.898143 0.041519
vn -0.000000 0.000000 -1.000000
v -4.940598 -5.995253 -4.426964
vt 0.898143 0.035671
vn -0.000000 0.000000 -1.000000
v 4.926956 -5.787336 -4.426964
vt 0.620623 0.041519
vn -0.000000 0.000000 -1.000000
v 3.941574 -5.614055 6.000000
vt 0.010471 0.488519
vn 1.000000 0.000000 0.000000
v 3.941559 -5.821971 -3.441570
vt 0.004624 0.222980
vn 1.000000 0.000000 0.000000
v 3.941574 -5.821971 6.000000
vt 0.004623 0.488519
vn 1.000000 0.000000 0.000000
v 3.941559 -5.614055 -3.441570
vt 0.010471 0.222980
vn 1.000000 0.000000 0.000000
v -3.941559 -5.614055 6.000000
vt 0.232180 0.488519
vn -0.000000 1.000000 0.000000
v 3.941559 -5.614055 -3.441570
vt 0.010471 0.222980
vn -0.000000 1.000000 0.000000
v 3.941574 -5.614055 6.000000
vt 0.010471 0.488519
vn -0.000000 1.000000 0.000000
v -3.941574 -5.614055 -3.441571
vt 0.232181 0.222979
vn -0.000000 1.000000 0.000000
v -3.941559 -5.821971 6.000000
vt 0.238028 0.488519
vn -1.000000 0.000000 0.000000
v -3.941574 -5.614055 -3.441571
vt 0.232181 0.222979
vn -1.000000 0.000000 0.000000
v -3.941559 -5.614055 6.000000
vt 0.232180 0.488519
vn -1.000000 0.000000 0.000000
v -3.941574 -5.821971 -3.441571
vt 0.238028 0.222979
vn -1.000000 0.000000 0.000000
v 3.941559 -5.821971 -3.441570
vt 0.010471 0.217132
vn -0.000000 0.000000 -1.000000
v -3.941574 -5.614055 -3.441571
vt 0.232181 0.222979
vn -0.000000 0.000000 -1.000000
v -3.941574 -5.821971 -3.441571
vt 0.232181 0.217132
vn -0.000000 0.000000 -1.000000
v 3.941559 -5.614055 -3.441570
vt 0.010471 0.222980
vn -0.000000 0.000000 -1.000000
v 2.960754 -5.440771 6.000000
vt 0.824132 0.752575
vn 1.000000 0.000000 0.000000
v 2.960739 -5.648687 -2.456178
vt 0.818286 0.514749
vn 1.000000 0.000000 0.000000
v 2.960754 -5.648687 6.000000
vt 0.818284 0.752576
vn 1.000000 0.000000 0.000000
v 2.960739 -5.440771 -2.456178
vt 0.824133 0.514749
vn 1.000000 0.000000 0.000000
v -2.960739 -5.440771 6.000000
vt 0.990671 0.752576
vn -0.000000 1.000000 0.000000
v 2.960739 -5.440771 -2.456178
vt 0.824133 0.514749
vn -0.000000 1.000000 0.000000
v 2.960754 -5.440771 6.000000
vt 0.824132 0.752575
vn -0.000000 1.000000 0.000000
v -2.960754 -5.440771 -2.456179
vt 0.990673 0.514750
vn -0.000000 1.000000 0.000000
v -2.960739 -5.648687 6.000000
vt 0.996518 0.752576
vn -1.000000 0.000000 0.000000
v -2.960754 -5.440771 -2.456179
vt 0.990673 0.514750
vn -1.000000 0.000000 0.000000
v -2.960739 -5.440771 6.000000
vt 0.990671 0.752576
vn -1.000000 0.000000 0.000000
v -2.960754 -5.648687 -2.456179
vt 0.996520 0.514750
vn -1.000000 0.000000 0.000000
v 2.960739 -5.648687 -2.456178
vt 0.824133 0.508903
vn -0.000000 0.000000 -1.000000
v -2.960754 -5.440771 -2.456179
vt 0.990673 0.514750
vn -0.000000 0.000000 -1.000000
v -2.960754 -5.648687 -2.456179
vt 0.990673 0.508902
vn -0.000000 0.000000 -1.000000
v 2.960739 -5.440771 -2.456178
vt 0.824133 0.514749
vn -0.000000 0.000000 -1.000000
# Faces (1 to 108)
g UnderwaterRoomWalls_0
f -106/-106/-106 -107/-107/-107 -108/-108/-108
f -107/-107/-107 -105/-105/-105 -108/-108/-108
f -102/-102/-102 -103/-103/-103 -104/-104/-104
f -103/-103/-103 -101/-101/-101 -104/-104/-104
f -98/-98/-98 -99/-99/-99 -100/-100/-100
f -99/-99/-99 -97/-97/-97 -100/-100/-100
f -94/-94/-94 -95/-95/-95 -96/-96/-96
f -95/-95/-95 -93/-93/-93 -96/-96/-96
f -90/-90/-90 -91/-91/-91 -92/-92/-92
f -91/-91/-91 -89/-89/-89 -92/-92/-92
f -86/-86/-86 -87/-87/-87 -88/-88/-88
f -87/-87/-87 -85/-85/-85 -88/-88/-88
f -82/-82/-82 -83/-83/-83 -84/-84/-84
f -83/-83/-83 -81/-81/-81 -84/-84/-84
f -78/-78/-78 -79/-79/-79 -80/-80/-80
f -79/-79/-79 -77/-77/-77 -80/-80/-80
f -74/-74/-74 -75/-75/-75 -76/-76/-76
f -75/-75/-75 -73/-73/-73 -76/-76/-76
f -70/-70/-70 -71/-71/-71 -72/-72/-72
f -71/-71/-71 -69/-69/-69 -72/-72/-72
f -72/-72/-72 -69/-69/-69 -68/-68/-68
f -69/-69/-69 -67/-67/-67 -68/-68/-68
f -68/-68/-68 -67/-67/-67 -66/-66/-66
f -67/-67/-67 -65/-65/-65 -66/-66/-66
f -66/-66/-66 -65/-65/-65 -70/-70/-70
f -65/-65/-65 -71/-71/-71 -70/-70/-70
f -62/-62/-62 -63/-63/-63 -64/-64/-64
f -63/-63/-63 -61/-61/-61 -64/-64/-64
f -58/-58/-58 -59/-59/-59 -60/-60/-60
f -59/-59/-59 -57/-57/-57 -60/-60/-60
f -54/-54/-54 -55/-55/-55 -56/-56/-56
f -55/-55/-55 -53/-53/-53 -56/-56/-56
f -50/-50/-50 -51/-51/-51 -52/-52/-52
f -51/-51/-51 -49/-49/-49 -52/-52/-52
f -46/-46/-46 -47/-47/-47 -48/-48/-48
f -47/-47/-47 -45/-45/-45 -48/-48/-48
f -42/-42/-42 -43/-43/-43 -44/-44/-44
f -43/-43/-43 -41/-41/-41 -44/-44/-44
f -38/-38/-38 -39/-39/-39 -40/-40/-40
f -39/-39/-39 -37/-37/-37 -40/-40/-40
f -34/-34/-34 -35/-35/-35 -36/-36/-36
f -35/-35/-35 -33/-33/-33 -36/-36/-36
f -30/-30/-30 -31/-31/-31 -32/-32/-32
f -31/-31/-31 -29/-29/-29 -32/-32/-32
f -26/-26/-26 -27/-27/-27 -28/-28/-28
f -27/-27/-27 -25/-25/-25 -28/-28/-28
f -22/-22/-22 -23/-23/-23 -24/-24/-24
f -23/-23/-23 -21/-21/-21 -24/-24/-24
f -18/-18/-18 -19/-19/-19 -20/-20/-20
f -19/-19/-19 -17/-17/-17 -20/-20/-20
f -14/-14/-14 -15/-15/-15 -16/-16/-16
f -15/-15/-15 -13/-13/-13 -16/-16/-16
f -10/-10/-10 -11/-11/-11 -12/-12/-12
f -11/-11/-11 -9/-9/-9 -12/-12/-12
f -6/-6/-6 -7/-7/-7 -8/-8/-8
f -7/-7/-7 -5/-5/-5 -8/-8/-8
f -2/-2/-2 -3/-3/-3 -4/-4/-4
f -3/-3/-3 -1/-1/-1 -4/-4/-4

