# This file uses centimeters as units for non-parametric coordinates.

g default
v 0.028370 -0.037371 -0.019248
v 0.054156 -0.019491 -0.000152
v 0.037249 -0.019491 -0.024478
v 0.060115 -0.000517 -0.000152
v 0.045520 -0.000882 -0.027032
v 0.055737 0.026242 -0.000152
v 0.044304 0.024418 -0.020829
v 0.030924 0.044365 -0.000152
v 0.022167 0.020282 -0.035181
v 0.022045 -0.000638 -0.040046
v 0.000152 0.010795 -0.036762
v 0.000152 -0.000273 -0.041871
v 0.016207 0.029891 -0.026789
v 0.029465 0.041446 -0.015112
v 0.011828 0.036824 -0.013288
v 0.010977 0.037310 -0.000152
v 0.000152 0.021985 -0.016572
v 0.000152 0.024904 -0.000152
v 0.019126 -0.020099 -0.033114
v 0.014018 -0.037492 -0.026302
v 0.000152 -0.020951 -0.036033
v 0.000152 -0.039317 -0.027762
v 0.000152 -0.053791 -0.014869
v 0.013653 -0.052331 -0.012436
v 0.020951 -0.051845 -0.000152
v 0.039682 -0.036276 -0.000152
v 0.000152 -0.064494 -0.000152
v -0.013349 -0.052331 -0.012436
v -0.020647 -0.051845 -0.000152
v -0.028188 -0.037371 -0.019248
v -0.039378 -0.036276 -0.000152
v -0.013714 -0.037492 -0.026302
v -0.018823 -0.020099 -0.033114
v -0.036945 -0.019491 -0.024478
v -0.053974 -0.019491 -0.000152
v -0.059934 -0.000517 -0.000152
v -0.045216 -0.000882 -0.027032
v -0.055555 0.026242 -0.000152
v -0.044000 0.024418 -0.020829
v -0.030621 0.044365 -0.000152
v -0.021863 0.020282 -0.035181
v -0.021863 -0.000638 -0.040046
v -0.015903 0.029891 -0.026789
v -0.029161 0.041446 -0.015112
v -0.011525 0.036824 -0.013288
v -0.010795 0.037310 -0.000152
v 0.028370 -0.037371 0.018944
v 0.013653 -0.052331 0.012255
v 0.000152 -0.053791 0.014687
v 0.014018 -0.037492 0.026120
v 0.000152 -0.039317 0.027580
v 0.019126 -0.020099 0.032932
v 0.037249 -0.019491 0.024296
v 0.045520 -0.000882 0.026850
v 0.044304 0.024418 0.020647
v 0.022167 0.020282 0.034878
v 0.022045 -0.000638 0.039743
v 0.000152 0.010795 0.036581
v 0.000152 -0.000273 0.041689
v 0.016207 0.029891 0.026607
v 0.029465 0.041446 0.014809
v 0.011828 0.036824 0.012984
v 0.000152 0.021985 0.016390
v -0.021863 -0.000638 0.039743
v -0.021863 0.020282 0.034878
v -0.045216 -0.000882 0.026850
v -0.044000 0.024418 0.020647
v -0.036945 -0.019491 0.024296
v -0.028188 -0.037371 0.018944
v -0.015903 0.029891 0.026607
v -0.029161 0.041446 0.014809
v -0.011525 0.036824 0.012984
v -0.018823 -0.020099 0.032932
v -0.013714 -0.037492 0.026120
v 0.000152 -0.020951 0.035851
v -0.013349 -0.052331 0.012255
vn 0.632271 -0.417731 -0.652483
vn 0.902345 -0.431015 0.000060
vn 0.572462 -0.600198 -0.558614
vn 0.998594 -0.053016 0.000089
vn 0.726380 -0.079888 -0.682634
vn 0.875903 0.482487 0.000176
vn 0.643274 0.435583 -0.629656
vn 0.310039 0.950724 0.000214
vn 0.235932 0.414118 -0.879114
vn 0.283579 -0.050914 -0.957596
vn -0.000035 0.520888 -0.853625
vn -0.000006 -0.033548 -0.999437
vn -0.177202 0.715078 -0.676213
vn 0.251991 0.825313 -0.505330
vn -0.514998 0.806121 -0.291456
vn -0.522953 0.852361 0.000001
vn -0.000001 0.897058 -0.441912
vn -0.000105 1.000000 -0.000056
vn 0.273456 -0.375165 -0.885705
vn 0.262772 -0.528495 -0.807245
vn -0.000000 -0.332026 -0.943270
vn 0.000000 -0.546025 -0.837769
vn 0.000000 -0.740985 -0.671522
vn 0.405316 -0.764351 -0.501485
vn 0.601566 -0.798823 -0.000017
vn 0.713588 -0.700565 -0.000000
vn 0.000000 -1.000000 -0.000020
vn -0.404421 -0.764832 -0.501474
vn -0.600821 -0.799384 -0.000017
vn -0.572283 -0.600214 -0.558780
vn -0.711809 -0.702373 0.000000
vn -0.261887 -0.528629 -0.807444
vn -0.272658 -0.375411 -0.885847
vn -0.631861 -0.416301 -0.653793
vn -0.902451 -0.430793 0.000059
vn -0.998594 -0.053007 0.000090
vn -0.725912 -0.079607 -0.683165
vn -0.875399 0.483401 0.000178
vn -0.641781 0.436231 -0.630730
vn -0.310429 0.950597 0.000217
vn -0.235436 0.414703 -0.878972
vn -0.284330 -0.050925 -0.957373
vn 0.177206 0.715081 -0.676208
vn -0.252330 0.825135 -0.505452
vn 0.515267 0.806504 -0.289916
vn 0.520928 0.853600 0.000001
vn 0.573857 -0.600905 0.556419
vn 0.406826 -0.764618 0.499852
vn -0.000000 -0.742341 0.670023
vn 0.265439 -0.528318 0.806488
vn 0.000000 -0.546025 0.837769
vn 0.274838 -0.374022 0.885761
vn 0.632430 -0.418946 0.651550
vn 0.726481 -0.079889 0.682527
vn 0.643575 0.435933 0.629106
vn 0.236333 0.411930 0.880034
vn 0.284191 -0.048901 0.957520
vn -0.000034 0.520075 0.854121
vn -0.000006 -0.031760 0.999496
vn -0.176884 0.715264 0.676099
vn 0.251190 0.826912 0.503110
vn -0.514979 0.806749 0.289747
vn -0.000001 0.897512 0.440991
vn -0.284928 -0.048917 0.957300
vn -0.235845 0.412515 0.879891
vn -0.726013 -0.079611 0.683058
vn -0.642084 0.436584 0.630177
vn -0.632023 -0.417522 0.652857
vn -0.573671 -0.600924 0.556589
vn 0.176887 0.715267 0.676095
vn -0.251527 0.826737 0.503230
vn 0.515245 0.807127 0.288215
vn -0.274046 -0.374265 0.885903
vn -0.264548 -0.528453 0.806692
vn -0.000000 -0.332026 0.943270
vn -0.405929 -0.765102 0.499841
s 1
g HeartBullet_resources_assets_2019:HeartBullet_0 group
f 3//1 2//2 1//3
f 4//4 2//2 3//1
f 5//5 4//4 3//1
f 6//6 4//4 5//5
f 7//7 6//6 5//5
f 8//8 6//6 7//7
f 9//9 7//7 5//5
f 10//10 9//9 5//5
f 10//10 5//5 3//1
f 9//9 10//10 11//11
f 10//10 12//12 11//11
f 9//9 13//13 7//7
f 9//9 11//11 13//13
f 13//13 14//14 7//7
f 14//14 8//8 7//7
f 14//14 13//13 15//15
f 14//14 15//15 16//16
f 8//8 14//14 16//16
f 11//11 17//17 13//13
f 18//18 16//16 15//15
f 17//17 18//18 15//15
f 17//17 15//15 13//13
f 10//10 19//19 12//12
f 19//19 10//10 3//1
f 19//19 3//1 1//3
f 20//20 19//19 1//3
f 19//19 20//20 21//21
f 19//19 21//21 12//12
f 20//20 22//22 21//21
f 22//22 20//20 23//23
f 1//3 24//24 20//20
f 24//24 23//23 20//20
f 25//25 24//24 1//3
f 26//26 25//25 1//3
f 2//2 26//26 1//3
f 27//27 23//23 24//24
f 27//27 24//24 25//25
f 23//23 27//27 28//28
f 28//28 27//27 29//29
f 28//28 29//29 30//30
f 29//29 31//31 30//30
f 32//32 22//22 23//23
f 22//22 32//32 21//21
f 23//23 28//28 32//32
f 28//28 30//30 32//32
f 33//33 32//32 30//30
f 32//32 33//33 21//21
f 34//34 33//33 30//30
f 35//35 34//34 30//30
f 31//31 35//35 30//30
f 35//35 36//36 34//34
f 36//36 37//37 34//34
f 36//36 38//38 37//37
f 38//38 39//39 37//37
f 38//38 40//40 39//39
f 39//39 41//41 37//37
f 41//41 42//42 37//37
f 37//37 42//42 34//34
f 42//42 33//33 34//34
f 42//42 41//41 11//11
f 12//12 42//42 11//11
f 33//33 42//42 12//12
f 43//43 41//41 39//39
f 11//11 41//41 43//43
f 44//44 43//43 39//39
f 40//40 44//44 39//39
f 43//43 44//44 45//45
f 45//45 44//44 46//46
f 44//44 40//40 46//46
f 17//17 11//11 43//43
f 46//46 18//18 45//45
f 18//18 17//17 45//45
f 45//45 17//17 43//43
f 21//21 33//33 12//12
f 26//26 2//2 47//47
f 25//25 26//26 47//47
f 48//48 25//25 47//47
f 48//48 27//27 25//25
f 49//49 27//27 48//48
f 49//49 48//48 50//50
f 48//48 47//47 50//50
f 50//50 51//51 49//49
f 52//52 50//50 47//47
f 53//53 52//52 47//47
f 2//2 53//53 47//47
f 2//2 4//4 53//53
f 4//4 54//54 53//53
f 4//4 6//6 54//54
f 6//6 55//55 54//54
f 6//6 8//8 55//55
f 55//55 56//56 54//54
f 56//56 57//57 54//54
f 54//54 57//57 53//53
f 57//57 52//52 53//53
f 57//57 56//56 58//58
f 59//59 57//57 58//58
f 52//52 57//57 59//59
f 60//60 56//56 55//55
f 58//58 56//56 60//60
f 61//61 60//60 55//55
f 8//8 61//61 55//55
f 60//60 61//61 62//62
f 62//62 61//61 16//16
f 61//61 8//8 16//16
f 63//63 58//58 60//60
f 16//16 18//18 62//62
f 18//18 63//63 62//62
f 62//62 63//63 60//60
f 64//64 59//59 58//58
f 65//65 64//64 58//58
f 64//64 65//65 66//66
f 65//65 67//67 66//66
f 67//67 38//38 66//66
f 38//38 36//36 66//66
f 66//66 36//36 68//68
f 64//64 66//66 68//68
f 36//36 35//35 68//68
f 68//68 35//35 69//69
f 35//35 31//31 69//69
f 40//40 38//38 67//67
f 65//65 70//70 67//67
f 70//70 71//71 67//67
f 71//71 40//40 67//67
f 71//71 70//70 72//72
f 71//71 72//72 46//46
f 40//40 71//71 46//46
f 65//65 58//58 70//70
f 58//58 63//63 70//70
f 18//18 46//46 72//72
f 63//63 18//18 72//72
f 63//63 72//72 70//70
f 73//73 68//68 69//69
f 74//74 73//73 69//69
f 73//73 74//74 75//75
f 74//74 51//51 75//75
f 51//51 50//50 75//75
f 50//50 52//52 75//75
f 75//75 52//52 59//59
f 73//73 75//75 59//59
f 51//51 74//74 49//49
f 64//64 73//73 59//59
f 73//73 64//64 68//68
f 76//76 49//49 74//74
f 27//27 49//49 76//76
f 27//27 76//76 29//29
f 29//29 76//76 69//69
f 69//69 76//76 74//74
f 31//31 29//29 69//69
