# This file uses centimeters as units for non-parametric coordinates.

g default
v 0.012133 -0.012194 0.003623
v 0.002316 0.003745 0.003623
v 0.016557 -0.004618 0.003623
v -0.002108 -0.003891 0.003623
v 0.002316 0.003745 -0.004012
v 0.016557 -0.004618 -0.004012
v -0.002108 -0.003891 -0.004012
v 0.012133 -0.012194 -0.004012
v 0.018375 -0.014193 0.002411
v 0.018375 -0.014193 -0.002800
v 0.030071 -0.021769 -0.000194
v 0.030616 -0.020799 0.002411
v 0.038434 -0.024920 -0.000861
v 0.036798 -0.024980 -0.002558
v 0.030616 -0.020799 -0.002800
v 0.031889 -0.018557 -0.003891
v 0.021405 -0.008982 -0.002800
v 0.033222 -0.016314 -0.002800
v 0.033768 -0.015405 -0.000194
v 0.021405 -0.008982 0.002411
v 0.033222 -0.016314 0.002411
v 0.031889 -0.018557 0.003442
v 0.038252 -0.019769 -0.004255
v 0.039888 -0.019648 -0.002558
v 0.040616 -0.021163 -0.000861
v 0.040010 -0.023344 -0.000194
v 0.036676 -0.021344 -0.004982
v 0.049948 -0.027041 -0.016254
v 0.051281 -0.026980 -0.014921
v 0.051887 -0.028192 -0.013527
v 0.051403 -0.029950 -0.012981
v 0.050130 -0.031222 -0.013527
v 0.048676 -0.028313 -0.016860
v 0.048191 -0.030071 -0.016254
v 0.036070 -0.023526 -0.004255
v 0.048797 -0.031283 -0.014921
v 0.039646 -0.032313 -0.012739
v 0.042676 -0.035283 -0.018678
v 0.039040 -0.029829 -0.017284
v 0.041706 -0.035464 -0.013527
v 0.048070 -0.038192 -0.015951
v 0.044858 -0.037161 -0.011951
v 0.052009 -0.036919 -0.010739
v 0.047100 -0.036434 -0.008921
v 0.039767 -0.029586 -0.010012
v 0.039282 -0.025041 -0.012557
v 0.042070 -0.028798 -0.006982
v 0.043282 -0.023768 -0.007345
v 0.045161 -0.030495 -0.005406
v 0.048615 -0.026677 -0.004618
v 0.047282 -0.033646 -0.006255
v 0.052251 -0.032131 -0.006073
v 0.056008 -0.035040 -0.013587
v 0.051403 -0.036555 -0.019587
v 0.045221 -0.033162 -0.022738
v 0.041040 -0.026859 -0.021102
v 0.056311 -0.029526 -0.008133
v 0.052130 -0.023223 -0.006558
v 0.045888 -0.019829 -0.009648
v 0.041282 -0.021344 -0.015708
v 0.048676 -0.029768 -0.024617
v 0.045039 -0.024314 -0.023223
v 0.054069 -0.032677 -0.021950
v 0.058008 -0.031404 -0.016678
v 0.058251 -0.026617 -0.012012
v 0.054675 -0.021163 -0.010618
v 0.049282 -0.018193 -0.013284
v 0.045282 -0.019526 -0.018557
v 0.052130 -0.025889 -0.023829
v 0.050069 -0.022738 -0.023041
v 0.055220 -0.027586 -0.022253
v 0.057523 -0.026859 -0.019284
v 0.057705 -0.024071 -0.016557
v 0.055584 -0.020920 -0.015769
v 0.052493 -0.019223 -0.017284
v 0.050191 -0.020011 -0.020314
v 0.054675 -0.022678 -0.020617
v 0.042615 -0.033768 -0.008679
vt 0.622947 0.900481
vt 0.613016 0.903958
vt 0.617315 0.896595
vt 0.611874 0.896481
vt 0.601957 0.897336
vt 0.606250 0.891434
vt 0.607290 0.881257
vt 0.609174 0.887741
vt 0.620221 0.893677
vt 0.626794 0.893655
vt 0.620173 0.890181
vt 0.625728 0.887005
vt 0.617598 0.887884
vt 0.621132 0.883707
vt 0.613504 0.886959
vt 0.614502 0.882172
vt 0.608745 0.875786
vt 0.602921 0.871548
vt 0.618401 0.910486
vt 0.630356 0.903066
vt 0.616345 0.877602
vt 0.624215 0.879031
vt 0.630490 0.882175
vt 0.633042 0.891767
vt 0.607761 0.859504
vt 0.639079 0.900102
vt 0.607796 0.866651
vt 0.611866 0.870980
vt 0.618220 0.873139
vt 0.625605 0.874356
vt 0.634037 0.875591
vt 0.639192 0.888450
vt 0.614826 0.860346
vt 0.619262 0.858060
vt 0.613915 0.864017
vt 0.615910 0.866883
vt 0.619712 0.868507
vt 0.624040 0.868703
vt 0.627313 0.866825
vt 0.625775 0.859839
vt 0.620709 0.863213
vt 0.613643 0.892112
vt 0.599626 0.879009
vt 0.593766 0.868481
vt 0.606851 0.848746
vt 0.599915 0.860854
vt 0.614627 0.851935
vt 0.635201 0.858354
vt 0.627488 0.852765
vt 0.595200 0.878536
vt 0.573123 0.882550
vt 0.593344 0.868329
vt 0.571268 0.872344
vt 0.603625 0.875334
vt 0.602358 0.868360
vt 0.621585 0.868476
vt 0.622292 0.872222
vt 0.620932 0.864714
vt 0.630844 0.872531
vt 0.632115 0.869582
vt 0.633612 0.866703
vt 0.653134 0.883444
vt 0.654204 0.881115
vt 0.602389 0.892291
vt 0.580096 0.896156
vt 0.600599 0.881964
vt 0.578305 0.885830
vt 0.610970 0.889118
vt 0.609746 0.882063
vt 0.629172 0.882321
vt 0.629863 0.886143
vt 0.628532 0.878496
vt 0.641165 0.879806
vt 0.638792 0.877601
vt 0.636535 0.875289
vt 0.657272 0.860453
vt 0.655360 0.858623
vt 0.653475 0.856820
vt 0.634940 0.881339
vt 0.649857 0.863451
vt 0.652255 0.865309
vt 0.636899 0.882842
vt 0.654507 0.867286
vt 0.638717 0.884434
vt 0.636573 0.883021
vt 0.636677 0.885436
vt 0.613648 0.884505
vt 0.613793 0.887492
vt 0.598218 0.878924
vt 0.575300 0.885352
vt 0.594830 0.866736
vt 0.571936 0.873085
vt 0.606737 0.874593
vt 0.604418 0.866181
vt 0.624766 0.865116
vt 0.626080 0.868894
vt 0.623976 0.861226
vt 0.639093 0.864616
vt 0.638608 0.861216
vt 0.637303 0.858125
vt 0.662746 0.850395
vt 0.661701 0.847894
vt 0.607273 0.889542
vt 0.586232 0.900815
vt 0.601283 0.878342
vt 0.580167 0.889568
vt 0.614615 0.883273
vt 0.610491 0.875599
vt 0.630350 0.869857
vt 0.632164 0.873501
vt 0.628293 0.866303
vt 0.639742 0.868662
vt 0.637605 0.865986
vt 0.636584 0.862750
vt 0.662953 0.858429
vt 0.662107 0.855814
vn 0.382764 0.520530 0.763244
vn 0.332616 0.566399 0.754028
vn -0.277986 -0.613638 0.739035
vn -0.329218 -0.564662 0.756818
vn 0.396184 0.543919 -0.739723
vn 0.332033 0.565405 -0.755031
vn -0.264848 -0.590893 -0.762038
vn -0.329325 -0.564845 -0.756634
vn -0.262938 -0.569656 -0.778688
vn -0.294072 -0.626812 0.721546
vn -0.463136 -0.885641 0.033826
vn -0.229454 -0.648829 0.725515
vn 0.035703 -0.815442 0.577736
vn -0.457829 -0.889025 0.005250
vn -0.383232 -0.612680 -0.691199
vn -0.054571 0.030168 -0.998054
vn 0.395476 0.569129 -0.720896
vn 0.351094 0.632394 -0.690515
vn 0.541241 0.840246 0.032341
vn 0.364378 0.510815 0.778650
vn 0.447195 0.517775 0.729332
vn 0.102591 -0.064785 0.992612
vn 0.063604 0.813119 -0.578613
vn 0.554760 0.831591 0.026414
vn 0.722050 0.358739 0.591566
vn 0.513472 -0.298396 0.804554
vn -0.463340 0.281296 -0.840351
vn -0.032984 0.839722 -0.542014
vn 0.523100 0.851989 -0.021937
vn 0.786804 0.363298 0.498954
vn 0.600851 -0.352740 0.717323
vn 0.061984 -0.869390 0.490224
vn -0.560500 0.329051 -0.759977
vn -0.746967 -0.373945 -0.549732
vn -0.678766 -0.442634 -0.585962
vn -0.492401 -0.869632 -0.035798
vn -0.936644 -0.149169 -0.316933
vn -0.555457 -0.703669 -0.443078
vn -0.909798 -0.403273 0.098176
vn -0.657911 -0.752506 0.029791
vn -0.008527 -0.987870 -0.155047
vn -0.306514 -0.925977 0.220490
vn 0.387323 -0.840575 0.378701
vn -0.063089 -0.817110 0.573019
vn -0.915419 -0.083052 0.393840
vn -0.925982 0.343520 0.156689
vn -0.671275 0.028358 0.740666
vn -0.532433 0.489433 0.690630
vn -0.319374 -0.149779 0.935717
vn 0.021929 0.204486 0.978624
vn -0.065540 -0.493461 0.867295
vn 0.395098 -0.347874 0.850224
vn 0.728523 -0.676886 0.105258
vn 0.271372 -0.828163 -0.490412
vn -0.341917 -0.490301 -0.801684
vn -0.756301 0.131907 -0.640788
vn 0.755319 -0.131945 0.641937
vn 0.342650 0.491548 0.800607
vn -0.276427 0.825198 0.492583
vn -0.729039 0.676365 -0.105035
vn -0.050898 -0.171477 -0.983872
vn -0.409547 0.381351 -0.828759
vn 0.497110 -0.485431 -0.719194
vn 0.910240 -0.367960 -0.189918
vn 0.951454 0.110124 0.287415
vn 0.596254 0.668115 0.445088
vn 0.045174 0.981815 0.184389
vn -0.368066 0.862875 -0.346375
vn 0.269046 0.188447 -0.944512
vn 0.047631 0.552303 -0.832282
vn 0.614086 -0.011855 -0.789150
vn 0.890387 0.043373 -0.453134
vn 0.929711 0.343738 -0.132217
vn 0.709214 0.704571 -0.024411
vn 0.357212 0.916103 -0.182085
vn 0.086805 0.854021 -0.512945
vn 0.594683 0.545338 -0.590728
vn -0.596127 -0.547257 0.587488
s 1
g Handle_resources_assets_2246:Handle_0
f 3/89/1 2/90/2 1/91/3
f 2/90/2 4/92/4 1/91/3
f 6/50/5 5/51/6 3/52/1
f 5/51/6 2/53/2 3/52/1
f 8/103/7 7/104/8 6/105/5
f 7/104/8 5/106/6 6/105/5
f 1/64/3 4/65/4 8/66/7
f 4/65/4 7/67/8 8/66/7
f 10/69/9 9/68/10 8/66/7
f 9/68/10 1/64/3 8/66/7
f 11/70/11 9/68/10 10/69/9
f 11/70/11 12/71/12 9/68/10
f 13/73/13 12/71/12 11/70/11
f 14/74/14 13/73/13 11/70/11
f 14/74/14 11/70/11 15/72/15
f 15/72/15 11/70/11 10/69/9
f 16/109/16 15/110/15 10/107/9
f 16/109/16 10/107/9 17/108/17
f 17/108/17 10/107/9 6/105/5
f 10/107/9 8/103/7 6/105/5
f 18/111/18 16/109/16 17/108/17
f 19/56/19 18/57/18 17/54/17
f 19/56/19 17/54/17 20/55/20
f 20/55/20 17/54/17 3/52/1
f 17/54/17 6/50/5 3/52/1
f 21/58/21 19/56/19 20/55/20
f 22/95/22 21/96/21 20/93/20
f 22/95/22 20/93/20 9/94/10
f 9/94/10 20/93/20 1/91/3
f 20/93/20 3/89/1 1/91/3
f 12/97/12 22/95/22 9/94/10
f 23/59/23 18/57/18 19/56/19
f 24/60/24 23/59/23 19/56/19
f 24/60/24 19/56/19 21/58/21
f 25/61/25 24/60/24 21/58/21
f 25/98/25 21/96/21 22/95/22
f 26/99/26 25/98/25 22/95/22
f 26/99/26 22/95/22 12/97/12
f 13/100/13 26/99/26 12/97/12
f 23/114/23 27/113/27 18/111/18
f 28/62/28 23/59/23 24/60/24
f 29/63/29 28/62/28 24/60/24
f 29/79/29 24/80/24 25/81/25
f 30/82/30 29/79/29 25/81/25
f 30/82/30 25/81/25 26/83/26
f 31/84/31 30/82/30 26/83/26
f 31/101/31 26/99/26 13/100/13
f 32/102/32 31/101/31 13/100/13
f 28/116/28 33/115/33 23/114/23
f 33/115/33 27/113/27 23/114/23
f 33/85/33 34/86/34 27/87/27
f 34/86/34 35/88/35 27/87/27
f 27/113/27 35/112/35 16/109/16
f 35/112/35 15/110/15 16/109/16
f 35/75/35 14/74/14 15/72/15
f 27/113/27 16/109/16 18/111/18
f 34/78/34 36/77/36 35/75/35
f 36/77/36 14/74/14 35/75/35
f 36/77/36 32/76/32 14/74/14
f 32/76/32 13/73/13 14/74/14
s 5
f 39/1/37 38/2/38 37/3/39
f 38/2/38 40/4/40 37/3/39
f 38/2/38 41/5/41 40/4/40
f 41/5/41 42/6/42 40/4/40
f 41/43/41 43/7/43 42/6/42
f 43/7/43 44/8/44 42/6/42
f 39/1/37 37/3/39 45/9/45
f 46/10/46 39/1/37 45/9/45
f 46/10/46 45/9/45 47/11/47
f 48/12/48 46/10/46 47/11/47
f 48/12/48 47/11/47 49/13/49
f 50/14/50 48/12/48 49/13/49
f 50/14/50 49/13/49 51/15/51
f 52/16/52 50/14/50 51/15/51
f 52/16/52 51/15/51 44/8/44
f 43/7/43 52/16/52 44/8/44
f 53/17/53 43/7/43 41/43/41
f 54/18/54 53/17/53 41/43/41
f 54/18/54 41/43/41 38/44/38
f 55/46/55 54/18/54 38/44/38
f 55/19/55 38/2/38 39/1/37
f 56/20/56 55/19/55 39/1/37
f 56/20/56 39/1/37 46/10/46
f 57/21/57 52/16/52 43/7/43
f 53/17/53 57/21/57 43/7/43
f 57/21/57 58/22/58 52/16/52
f 58/22/58 50/14/50 52/16/52
f 58/22/58 59/23/59 50/14/50
f 59/23/59 48/12/48 50/14/50
f 59/23/59 60/24/60 48/12/48
f 60/24/60 46/10/46 48/12/48
f 60/24/60 56/20/56 46/10/46
f 61/25/61 55/46/55 56/45/56
f 62/47/62 61/25/61 56/45/56
f 62/26/62 56/20/56 60/24/60
f 61/25/61 63/27/63 55/46/55
f 63/27/63 54/18/54 55/46/55
f 63/27/63 64/28/64 54/18/54
f 65/29/65 57/21/57 53/17/53
f 64/28/64 65/29/65 53/17/53
f 65/29/65 66/30/66 57/21/57
f 66/30/66 58/22/58 57/21/57
f 66/30/66 67/31/67 58/22/58
f 67/31/67 59/23/59 58/22/58
f 67/31/67 68/32/68 59/23/59
f 68/32/68 60/24/60 59/23/59
f 68/32/68 62/26/62 60/24/60
f 69/33/69 61/25/61 62/47/62
f 70/34/70 69/33/69 62/47/62
f 70/34/70 62/47/62 68/49/68
f 69/33/69 71/35/71 61/25/61
f 71/35/71 63/27/63 61/25/61
f 71/35/71 72/36/72 63/27/63
f 72/36/72 64/28/64 63/27/63
f 73/37/73 65/29/65 64/28/64
f 72/36/72 73/37/73 64/28/64
f 73/37/73 74/38/74 65/29/65
f 74/38/74 66/30/66 65/29/65
f 74/38/74 75/39/75 66/30/66
f 75/39/75 67/31/67 66/30/66
f 75/39/75 76/40/76 67/31/67
f 76/40/76 68/49/68 67/48/67
f 76/40/76 70/34/70 68/49/68
f 77/41/77 69/33/69 70/34/70
f 77/41/77 71/35/71 69/33/69
f 77/41/77 72/36/72 71/35/71
f 77/41/77 73/37/73 72/36/72
f 77/41/77 74/38/74 73/37/73
f 77/41/77 75/39/75 74/38/74
f 77/41/77 76/40/76 75/39/75
f 77/41/77 70/34/70 76/40/76
f 64/28/64 53/17/53 54/18/54
f 78/42/78 37/3/39 40/4/40
f 78/42/78 40/4/40 42/6/42
f 78/42/78 42/6/42 44/8/44
f 78/42/78 45/9/45 37/3/39
f 78/42/78 47/11/47 45/9/45
f 78/42/78 49/13/49 47/11/47
f 78/42/78 51/15/51 49/13/49
f 78/42/78 44/8/44 51/15/51
