# Mesh "HouseBase" exported with Unity Assets Bundle Extractor; 54 vertices, 192 indices, 448 bits per vertex
g HouseBase
# SubMesh 0
# Vertices
v 13.078266 -0.241329 10.906399
vt -0.935912 -0.491616
vn 0.999999 0.000000 -0.001085
v 13.083970 0.865295 12.871768
vt -0.741688 -0.764637
vn 0.819965 0.439951 0.366198
v 13.078266 0.869707 10.906399
vt -0.752990 -0.491481
vn 0.891383 0.453251 -0.000357
v 13.083970 -0.241329 12.871768
vt -0.902495 -0.788519
vn 0.918637 0.000000 0.395103
v 12.893008 -0.241329 13.051651
vt -0.894612 -0.829757
vn 0.377959 0.000000 0.925823
v 12.893008 0.865295 13.051651
vt -0.720665 -0.796513
vn 0.357082 0.460330 0.812766
v 12.893008 1.014215 12.850655
vt -0.714981 -0.760681
vn 0.302896 0.911202 0.279223
v 13.083839 -0.241329 3.303724
vt -0.889569 0.561306
vn 0.999884 0.000000 -0.015264
v 13.083839 0.894910 3.303724
vt -0.732875 0.551567
vn 0.884838 0.465326 -0.023086
v 13.063042 -0.241329 2.638680
vt -0.878124 0.661549
vn 0.935517 0.000000 -0.353282
v 13.063042 0.855050 2.638680
vt -0.721503 0.639714
vn 0.823053 0.463056 -0.328881
v 12.914307 0.855050 2.458795
vt -0.706497 0.670844
vn 0.485460 0.464267 -0.740800
v 12.914307 -0.241329 2.458795
vt -0.872576 0.696907
vn 0.538301 0.000000 -0.842753
v 10.610399 -0.241329 13.096505
vt -0.400995 -0.941138
vn 0.008408 0.000000 0.999965
v 10.610399 0.912590 13.096505
vt -0.404614 -0.786440
vn 0.008333 0.503972 0.863680
v 12.893008 -0.241329 13.051651
vt -0.716612 -0.949495
vn 0.377959 0.000000 0.925823
v 2.686616 0.865295 13.074079
vt 0.644456 -0.765561
vn -0.411461 0.485602 0.771292
v 2.686616 -0.241329 13.074079
vt 0.651959 -0.911271
vn -0.438572 0.000000 0.898696
v 9.524929 -0.241329 1.568266
vt -0.254180 0.905805
vn 0.125572 0.000000 -0.992085
v 12.914307 0.855050 2.458795
vt -0.706497 0.670844
vn 0.485460 0.464267 -0.740800
v 9.524929 0.902345 1.568266
vt -0.244348 0.755263
vn 0.111526 0.461730 -0.879981
v 12.914307 -0.241329 2.458795
vt -0.733124 0.820688
vn 0.538301 0.000000 -0.842753
v 12.850967 1.014215 2.680906
vt -0.694735 0.633096
vn 0.321376 0.909089 -0.265093
v 9.524929 1.014215 1.748150
vt -0.244976 0.727988
vn 0.037971 0.953517 -0.298936
v 13.063042 0.855050 2.638680
vt -0.721503 0.639714
vn 0.823053 0.463056 -0.328881
v 9.587500 1.014215 3.381067
vt -0.260699 0.516257
vn -0.000000 1.000000 0.000000
v 12.892879 1.014215 3.303724
vt -0.702592 0.549892
vn 0.296472 0.954947 -0.013403
v 13.083839 0.894910 3.303724
vt -0.732875 0.551567
vn 0.884838 0.465326 -0.023086
v 10.219737 1.014215 10.079142
vt -0.357272 -0.377483
vn -0.000000 1.000000 0.000000
v 12.887305 1.014215 10.906399
vt -0.720115 -0.491441
vn 0.309679 0.950841 0.000236
v 10.610399 1.014215 12.874395
vt -0.405252 -0.753730
vn 0.003094 0.967128 0.254272
v 12.893008 1.014215 12.850655
vt -0.714981 -0.760681
vn 0.302896 0.911202 0.279223
v 12.893008 0.865295 13.051651
vt -0.720665 -0.796513
vn 0.357082 0.460330 0.812766
v 10.610399 0.912590 13.096505
vt -0.404614 -0.786440
vn 0.008333 0.503972 0.863680
v 13.078266 0.869707 10.906399
vt -0.752990 -0.491481
vn 0.891383 0.453251 -0.000357
v 13.083970 0.865295 12.871768
vt -0.741688 -0.764637
vn 0.819965 0.439951 0.366198
v 1.792468 1.014215 4.490407
vt 0.739727 0.347256
vn -0.240182 0.965082 -0.104546
v 4.548047 1.014215 1.773654
vt 0.407384 0.714125
vn -0.187348 0.882800 -0.430773
v 1.559282 0.894910 4.427069
vt 0.770759 0.354769
vn -0.792706 0.508696 -0.335926
v 4.314860 0.855050 1.710315
vt 0.445545 0.730115
vn -0.518496 0.431842 -0.738021
v 4.548047 0.855050 1.593770
vt 0.408620 0.743912
vn -0.217516 0.424545 -0.878890
v 4.548047 -0.241329 1.593770
vt 0.414561 0.891061
vn -0.232165 0.000000 -0.972676
v 4.314860 -0.241329 1.710315
vt 0.452435 0.889413
vn -0.581761 0.000000 -0.813360
v 1.559282 -0.241329 4.427069
vt 0.901943 0.397344
vn -0.922777 0.000000 -0.385334
v 4.314860 -0.241329 1.710315
vt 0.566731 0.825084
vn -0.581761 0.000000 -0.813360
v 1.566117 -0.241329 9.476500
vt 0.931771 -0.296432
vn -0.990788 0.000000 0.135424
v 1.566117 0.869707 9.476500
vt 0.784731 -0.287189
vn -0.876893 0.464612 0.123268
v 2.495654 -0.241329 12.830855
vt 0.829690 -0.770732
vn -0.892486 0.000000 0.451075
v 2.495654 0.865295 12.830855
vt 0.678892 -0.738284
vn -0.808818 0.417538 0.414097
v 1.757078 1.014215 9.455386
vt 0.753724 -0.285217
vn -0.294933 0.954529 0.043466
v 2.686616 1.014215 12.830855
vt 0.644429 -0.730916
vn -0.309529 0.906186 0.288129
v 2.686616 0.865295 13.074079
vt 0.644456 -0.765561
vn -0.411461 0.485602 0.771292
v 2.495654 -0.241329 12.830855
vt 0.698751 -0.905716
vn -0.892486 0.000000 0.451075
v 2.686616 -0.241329 13.074079
vt 0.651959 -0.911271
vn -0.438572 0.000000 0.898696
# Faces (1 to 54)
g HouseBase_0
f -52/-52/-52 -53/-53/-53 -54/-54/-54
f -53/-53/-53 -51/-51/-51 -54/-54/-54
f -51/-51/-51 -53/-53/-53 -50/-50/-50
f -53/-53/-53 -49/-49/-49 -50/-50/-50
f -49/-49/-49 -53/-53/-53 -48/-48/-48
f -52/-52/-52 -54/-54/-54 -47/-47/-47
f -46/-46/-46 -52/-52/-52 -47/-47/-47
f -46/-46/-46 -47/-47/-47 -45/-45/-45
f -44/-44/-44 -46/-46/-46 -45/-45/-45
f -43/-43/-43 -44/-44/-44 -45/-45/-45
f -42/-42/-42 -43/-43/-43 -45/-45/-45
f -40/-40/-40 -41/-41/-41 -49/-49/-49
f -41/-41/-41 -39/-39/-39 -49/-49/-49
f -40/-40/-40 -38/-38/-38 -41/-41/-41
f -38/-38/-38 -37/-37/-37 -41/-41/-41
f -34/-34/-34 -35/-35/-35 -36/-36/-36
f -35/-35/-35 -33/-33/-33 -36/-36/-36
f -35/-35/-35 -34/-34/-34 -32/-32/-32
f -34/-34/-34 -31/-31/-31 -32/-32/-32
f -32/-32/-32 -30/-30/-30 -35/-35/-35
f -31/-31/-31 -29/-29/-29 -32/-32/-32
f -29/-29/-29 -28/-28/-28 -32/-32/-32
f -30/-30/-30 -32/-32/-32 -28/-28/-28
f -27/-27/-27 -30/-30/-30 -28/-28/-28
f -29/-29/-29 -26/-26/-26 -28/-28/-28
f -26/-26/-26 -25/-25/-25 -28/-28/-28
f -27/-27/-27 -28/-28/-28 -25/-25/-25
f -26/-26/-26 -24/-24/-24 -25/-25/-25
f -24/-24/-24 -23/-23/-23 -25/-25/-25
f -23/-23/-23 -24/-24/-24 -22/-22/-22
f -24/-24/-24 -21/-21/-21 -22/-22/-22
f -20/-20/-20 -25/-25/-25 -23/-23/-23
f -20/-20/-20 -27/-27/-27 -25/-25/-25
f -19/-19/-19 -20/-20/-20 -23/-23/-23
f -18/-18/-18 -29/-29/-29 -31/-31/-31
f -29/-29/-29 -18/-18/-18 -26/-26/-26
f -17/-17/-17 -18/-18/-18 -31/-31/-31
f -18/-18/-18 -17/-17/-17 -16/-16/-16
f -17/-17/-17 -15/-15/-15 -16/-16/-16
f -15/-15/-15 -17/-17/-17 -14/-14/-14
f -14/-14/-14 -13/-13/-13 -15/-15/-15
f -13/-13/-13 -12/-12/-12 -15/-15/-15
f -11/-11/-11 -16/-16/-16 -15/-15/-15
f -10/-10/-10 -11/-11/-11 -15/-15/-15
f -11/-11/-11 -9/-9/-9 -16/-16/-16
f -9/-9/-9 -8/-8/-8 -16/-16/-16
f -18/-18/-18 -16/-16/-16 -8/-8/-8
f -9/-9/-9 -7/-7/-7 -8/-8/-8
f -7/-7/-7 -6/-6/-6 -8/-8/-8
f -5/-5/-5 -8/-8/-8 -6/-6/-6
f -5/-5/-5 -18/-18/-18 -8/-8/-8
f -4/-4/-4 -5/-5/-5 -6/-6/-6
f -3/-3/-3 -4/-4/-4 -6/-6/-6
f -6/-6/-6 -2/-2/-2 -3/-3/-3
f -2/-2/-2 -1/-1/-1 -3/-3/-3
f -5/-5/-5 -4/-4/-4 -24/-24/-24
f -26/-26/-26 -5/-5/-5 -24/-24/-24
f -18/-18/-18 -5/-5/-5 -26/-26/-26
f -24/-24/-24 -4/-4/-4 -21/-21/-21
f -4/-4/-4 -3/-3/-3 -21/-21/-21
f -14/-14/-14 -34/-34/-34 -13/-13/-13
f -34/-34/-34 -36/-36/-36 -13/-13/-13
f -34/-34/-34 -14/-14/-14 -31/-31/-31
f -14/-14/-14 -17/-17/-17 -31/-31/-31

