# Mesh "HelicopterWindow" exported with Unity Assets Bundle Extractor; 116 vertices, 216 indices, 320 bits per vertex
g HelicopterWindow
# SubMesh 0
# Vertices
v 0.824722 0.125903 1.018250
vt 0.983853 0.726300
vn 0.164195 0.949980 0.265664
v 0.412245 0.566727 -0.303144
vt 0.798448 0.509928
vn 0.108195 0.963879 0.243373
v 1.267124 0.325453 0.031257
vt 0.983853 0.509928
vn 0.164195 0.949980 0.265664
v -0.030155 0.367177 0.683848
vt 0.798448 0.726300
vn 0.108195 0.963879 0.243373
v 0.156555 0.604495 -0.410117
vt 0.743806 0.509928
vn 0.051781 0.974090 0.220151
v -0.285847 0.404946 0.576875
vt 0.743806 0.726300
vn 0.051781 0.974090 0.220151
v -0.034821 0.340202 0.676305
vt 0.598679 0.943599
vn -0.108195 -0.963880 -0.243373
v 1.262465 0.298478 0.023715
vt 0.748021 0.769322
vn -0.164193 -0.949981 -0.265663
v 0.407583 0.539752 -0.310689
vt 0.598679 0.769322
vn -0.108195 -0.963880 -0.243373
v 0.820063 0.098929 1.010709
vt 0.748021 0.943599
vn -0.164193 -0.949981 -0.265663
v -0.290508 0.377970 0.569331
vt 0.554665 0.943599
vn -0.051782 -0.974090 -0.220151
v 0.151892 0.577520 -0.417661
vt 0.554665 0.769322
vn -0.051782 -0.974090 -0.220151
v 1.115227 0.177331 -0.068425
vt 0.985640 0.733155
vn -0.402234 -0.181432 0.897380
v -0.206715 -0.192538 -0.735738
vt 0.505346 0.805646
vn -0.402234 -0.181432 0.897380
v 1.018717 0.384033 -0.069892
vt 0.985611 0.805755
vn -0.402234 -0.181432 0.897380
v -0.110239 -0.399256 -0.734290
vt 0.505357 0.733051
vn -0.402234 -0.181432 0.897380
v 0.417933 0.554149 -0.304788
vt 0.818032 0.936107
vn -0.402234 -0.181432 0.897380
v -0.379984 0.178726 -0.738341
vt 0.505310 0.936042
vn -0.402234 -0.181432 0.897380
v 0.131516 0.595259 -0.424857
vt 0.732144 0.986735
vn -0.402234 -0.181432 0.897380
v -0.447281 0.322932 -0.739350
vt 0.505299 0.986687
vn -0.402234 -0.181432 0.897380
v -0.098818 -0.394105 -0.759772
vt 0.496318 0.733054
vn 0.402234 0.181432 -0.897380
v 1.030140 0.389185 -0.095374
vt 0.016161 0.805636
vn 0.402234 0.181432 -0.897380
v -0.195292 -0.187387 -0.761222
vt 0.496312 0.805641
vn 0.402234 0.181432 -0.897380
v 1.126648 0.182483 -0.093907
vt 0.016147 0.733051
vn 0.402234 0.181432 -0.897380
v -0.368561 0.183878 -0.763824
vt 0.496272 0.936042
vn 0.402237 0.181425 -0.897380
v 0.429356 0.559301 -0.330270
vt 0.183713 0.935858
vn 0.402237 0.181425 -0.897380
v -0.435862 0.328084 -0.764834
vt 0.496263 0.986683
vn 0.402240 0.181419 -0.897380
v 0.142939 0.600412 -0.450339
vt 0.269446 0.986635
vn 0.402240 0.181419 -0.897380
v 0.142939 0.600412 -0.450339
vt 0.269446 0.986635
vn -0.422899 0.906154 -0.006351
v -0.447281 0.322932 -0.739350
vt 0.496261 0.995719
vn -0.422899 0.906154 -0.006351
v -0.435862 0.328084 -0.764834
vt 0.496263 0.986683
vn -0.422899 0.906154 -0.006351
v 0.131516 0.595259 -0.424857
vt 0.269444 0.995671
vn -0.422899 0.906154 -0.006351
v -0.098818 -0.394105 -0.759772
vt 0.496318 0.733054
vn 0.422896 -0.906156 0.006358
v 1.115227 0.177331 -0.068425
vt 0.016147 0.724016
vn 0.422896 -0.906156 0.006358
v 1.126648 0.182483 -0.093907
vt 0.016147 0.733051
vn 0.422896 -0.906156 0.006358
v -0.110239 -0.399256 -0.734290
vt 0.496318 0.724020
vn 0.422896 -0.906156 0.006358
v -0.435862 0.328084 -0.764834
vt 0.496263 0.986683
vn -0.812012 -0.382056 -0.441213
v -0.379984 0.178726 -0.738341
vt 0.505310 0.936042
vn -0.812012 -0.382056 -0.441213
v -0.368561 0.183878 -0.763824
vt 0.496272 0.936042
vn -0.812012 -0.382056 -0.441213
v -0.447281 0.322932 -0.739350
vt 0.505299 0.986687
vn -0.812012 -0.382056 -0.441213
v -0.195292 -0.187387 -0.761222
vt 0.496312 0.805641
vn -0.812012 -0.382056 -0.441213
v -0.206715 -0.192538 -0.735738
vt 0.505346 0.805646
vn -0.812012 -0.382056 -0.441213
v -0.098818 -0.394105 -0.759772
vt 0.496318 0.733054
vn -0.812012 -0.382056 -0.441213
v -0.110239 -0.399256 -0.734290
vt 0.505357 0.733051
vn -0.812012 -0.382056 -0.441213
v 0.417933 0.554149 -0.304788
vt 0.178471 0.943193
vn 0.048217 0.974609 0.218658
v 0.142939 0.600412 -0.450339
vt 0.269446 0.986635
vn 0.048217 0.974609 0.218658
v 0.429356 0.559301 -0.330270
vt 0.183713 0.935858
vn 0.048217 0.974609 0.218658
v 0.131516 0.595259 -0.424857
vt 0.264800 0.994460
vn 0.048217 0.974609 0.218658
v 1.030140 0.389185 -0.095374
vt 0.016161 0.805636
vn 0.811935 0.382223 0.441212
v 1.115227 0.177331 -0.068425
vt 0.007113 0.733053
vn 0.811935 0.382223 0.441212
v 1.018717 0.384033 -0.069892
vt 0.007126 0.805638
vn 0.811935 0.382223 0.441212
v 1.126648 0.182483 -0.093907
vt 0.016147 0.733051
vn 0.811935 0.382223 0.441212
v 1.030140 0.389185 -0.095374
vt 0.016161 0.805636
vn 0.164969 0.949762 0.265966
v 0.417933 0.554149 -0.304788
vt 0.178471 0.943193
vn 0.164969 0.949762 0.265966
v 0.429356 0.559301 -0.330270
vt 0.183713 0.935858
vn 0.164969 0.949762 0.265966
v 1.018717 0.384033 -0.069892
vt 0.010610 0.812781
vn 0.164969 0.949762 0.265966
v -0.361996 -0.020282 -0.770511
vt 0.994250 0.995228
vn -0.402239 -0.181421 0.897380
v -0.812111 0.173263 -0.933137
vt 0.890282 0.890270
vn -0.402239 -0.181421 0.897380
v -0.517099 0.312067 -0.772840
vt 0.994250 0.890270
vn -0.402239 -0.181421 0.897380
v -0.771040 -0.212740 -0.992768
vt 0.850094 0.995228
vn -0.402239 -0.181421 0.897380
v -0.759617 -0.207587 -1.018250
vt 0.850094 0.995228
vn 0.402234 0.181432 -0.897380
v -0.505678 0.317219 -0.798324
vt 0.994250 0.890270
vn 0.402234 0.181432 -0.897380
v -0.800688 0.178415 -0.958619
vt 0.890282 0.890270
vn 0.402234 0.181432 -0.897380
v -0.350573 -0.015130 -0.795993
vt 0.994250 0.995228
vn 0.402234 0.181432 -0.897380
v -0.805586 -0.220368 0.219138
vt 0.994250 0.995228
vn 0.402234 0.181432 -0.897380
v -1.255703 -0.026823 0.056512
vt 0.890282 0.890270
vn 0.402234 0.181432 -0.897380
v -1.214632 -0.412826 -0.003119
vt 0.850094 0.995228
vn 0.402234 0.181432 -0.897380
v -0.960691 0.111980 0.216807
vt 0.994250 0.890270
vn 0.402234 0.181432 -0.897380
v -1.226053 -0.417978 0.022363
vt 0.850094 0.995228
vn -0.402234 -0.181432 0.897380
v -0.972115 0.106828 0.242291
vt 0.994250 0.890270
vn -0.402234 -0.181432 0.897380
v -0.817007 -0.225520 0.244620
vt 0.994250 0.995228
vn -0.402234 -0.181432 0.897380
v -1.267124 -0.031976 0.081994
vt 0.890282 0.890270
vn -0.402234 -0.181432 0.897380
v 0.671633 -0.022756 0.921226
vt 0.985640 0.733155
vn 0.402231 0.181437 -0.897380
v -0.650307 -0.392626 0.253911
vt 0.505346 0.805646
vn 0.402232 0.181434 -0.897380
v -0.553833 -0.599344 0.255361
vt 0.505357 0.733051
vn 0.402231 0.181437 -0.897380
v 0.575127 0.183946 0.919759
vt 0.985611 0.805755
vn 0.402232 0.181434 -0.897380
v -0.025658 0.354063 0.684861
vt 0.818032 0.936107
vn 0.402234 0.181432 -0.897380
v -0.823574 -0.021361 0.251309
vt 0.505310 0.936042
vn 0.402234 0.181432 -0.897380
v -0.312077 0.395173 0.564794
vt 0.732144 0.986735
vn 0.402234 0.181432 -0.897380
v -0.890875 0.122845 0.250299
vt 0.505299 0.986687
vn 0.402234 0.181432 -0.897380
v -0.565254 -0.604495 0.280843
vt 0.496318 0.733054
vn -0.402229 -0.181442 0.897380
v 0.563702 0.178794 0.945241
vt 0.016161 0.805636
vn -0.402231 -0.181437 0.897380
v 0.660212 -0.027908 0.946708
vt 0.016147 0.733051
vn -0.402229 -0.181442 0.897380
v -0.661728 -0.397777 0.279395
vt 0.496312 0.805641
vn -0.402231 -0.181437 0.897380
v -0.834995 -0.026513 0.276792
vt 0.496272 0.936042
vn -0.402234 -0.181432 0.897380
v -0.037081 0.348911 0.710343
vt 0.183713 0.935858
vn -0.402234 -0.181432 0.897380
v -0.902298 0.117693 0.275783
vt 0.496263 0.986683
vn -0.402234 -0.181432 0.897380
v -0.323498 0.390021 0.590276
vt 0.269446 0.986635
vn -0.402234 -0.181432 0.897380
v -0.323498 0.390021 0.590276
vt 0.269446 0.986635
vn -0.422899 0.906154 -0.006351
v -0.890875 0.122845 0.250299
vt 0.496261 0.995719
vn -0.422899 0.906154 -0.006351
v -0.312077 0.395173 0.564794
vt 0.269444 0.995671
vn -0.422899 0.906154 -0.006351
v -0.902298 0.117693 0.275783
vt 0.496263 0.986683
vn -0.422899 0.906154 -0.006351
v -0.565254 -0.604495 0.280843
vt 0.496318 0.733054
vn 0.422903 -0.906153 0.006343
v 0.671633 -0.022756 0.921226
vt 0.016147 0.724016
vn 0.422903 -0.906153 0.006343
v -0.553833 -0.599344 0.255361
vt 0.496318 0.724020
vn 0.422903 -0.906153 0.006343
v 0.660212 -0.027908 0.946708
vt 0.016147 0.733051
vn 0.422903 -0.906153 0.006343
v -0.902298 0.117693 0.275783
vt 0.496263 0.986683
vn -0.812012 -0.382056 -0.441213
v -0.823574 -0.021361 0.251309
vt 0.505310 0.936042
vn -0.812012 -0.382056 -0.441213
v -0.890875 0.122845 0.250299
vt 0.505299 0.986687
vn -0.812012 -0.382056 -0.441213
v -0.834995 -0.026513 0.276792
vt 0.496272 0.936042
vn -0.812012 -0.382056 -0.441213
v -0.661728 -0.397777 0.279395
vt 0.496312 0.805641
vn -0.812012 -0.382056 -0.441213
v -0.650307 -0.392626 0.253911
vt 0.505346 0.805646
vn -0.812012 -0.382056 -0.441213
v -0.565254 -0.604495 0.280843
vt 0.496318 0.733054
vn -0.812012 -0.382056 -0.441213
v -0.553833 -0.599344 0.255361
vt 0.505357 0.733051
vn -0.812012 -0.382056 -0.441213
v -0.025658 0.354063 0.684861
vt 0.178471 0.943193
vn 0.048217 0.974609 0.218658
v -0.323498 0.390021 0.590276
vt 0.269446 0.986635
vn 0.048217 0.974609 0.218658
v -0.312077 0.395173 0.564794
vt 0.264800 0.994460
vn 0.048217 0.974609 0.218658
v -0.037081 0.348911 0.710343
vt 0.183713 0.935858
vn 0.048217 0.974609 0.218658
v 0.563702 0.178794 0.945241
vt 0.016161 0.805636
vn 0.811935 0.382223 0.441212
v 0.671633 -0.022756 0.921226
vt 0.007113 0.733053
vn 0.811935 0.382223 0.441212
v 0.660212 -0.027908 0.946708
vt 0.016147 0.733051
vn 0.811935 0.382223 0.441212
v 0.575127 0.183946 0.919759
vt 0.007126 0.805638
vn 0.811935 0.382223 0.441212
v 0.563702 0.178794 0.945241
vt 0.016161 0.805636
vn 0.164914 0.949777 0.265945
v -0.025658 0.354063 0.684861
vt 0.178471 0.943193
vn 0.164914 0.949777 0.265945
v 0.575127 0.183946 0.919759
vt 0.010610 0.812781
vn 0.164914 0.949777 0.265945
v -0.037081 0.348911 0.710343
vt 0.183713 0.935858
vn 0.164914 0.949777 0.265945
# Faces (1 to 116)
g HelicopterWindow_0
f -114/-114/-114 -115/-115/-115 -116/-116/-116
f -115/-115/-115 -113/-113/-113 -116/-116/-116
f -115/-115/-115 -112/-112/-112 -113/-113/-113
f -112/-112/-112 -111/-111/-111 -113/-113/-113
f -108/-108/-108 -109/-109/-109 -110/-110/-110
f -109/-109/-109 -107/-107/-107 -110/-110/-110
f -108/-108/-108 -110/-110/-110 -106/-106/-106
f -105/-105/-105 -108/-108/-108 -106/-106/-106
f -102/-102/-102 -103/-103/-103 -104/-104/-104
f -103/-103/-103 -101/-101/-101 -104/-104/-104
f -102/-102/-102 -100/-100/-100 -103/-103/-103
f -100/-100/-100 -99/-99/-99 -103/-103/-103
f -100/-100/-100 -98/-98/-98 -99/-99/-99
f -98/-98/-98 -97/-97/-97 -99/-99/-99
f -94/-94/-94 -95/-95/-95 -96/-96/-96
f -95/-95/-95 -93/-93/-93 -96/-96/-96
f -94/-94/-94 -92/-92/-92 -95/-95/-95
f -92/-92/-92 -91/-91/-91 -95/-95/-95
f -92/-92/-92 -90/-90/-90 -91/-91/-91
f -90/-90/-90 -89/-89/-89 -91/-91/-91
f -86/-86/-86 -87/-87/-87 -88/-88/-88
f -87/-87/-87 -85/-85/-85 -88/-88/-88
f -82/-82/-82 -83/-83/-83 -84/-84/-84
f -83/-83/-83 -81/-81/-81 -84/-84/-84
f -78/-78/-78 -79/-79/-79 -80/-80/-80
f -79/-79/-79 -77/-77/-77 -80/-80/-80
f -78/-78/-78 -76/-76/-76 -79/-79/-79
f -76/-76/-76 -75/-75/-75 -79/-79/-79
f -76/-76/-76 -74/-74/-74 -75/-75/-75
f -74/-74/-74 -73/-73/-73 -75/-75/-75
f -70/-70/-70 -71/-71/-71 -72/-72/-72
f -71/-71/-71 -69/-69/-69 -72/-72/-72
f -66/-66/-66 -67/-67/-67 -68/-68/-68
f -67/-67/-67 -65/-65/-65 -68/-68/-68
f -62/-62/-62 -63/-63/-63 -64/-64/-64
f -63/-63/-63 -61/-61/-61 -64/-64/-64
f -58/-58/-58 -59/-59/-59 -60/-60/-60
f -59/-59/-59 -57/-57/-57 -60/-60/-60
f -54/-54/-54 -55/-55/-55 -56/-56/-56
f -55/-55/-55 -53/-53/-53 -56/-56/-56
f -50/-50/-50 -51/-51/-51 -52/-52/-52
f -51/-51/-51 -49/-49/-49 -52/-52/-52
f -46/-46/-46 -47/-47/-47 -48/-48/-48
f -47/-47/-47 -45/-45/-45 -48/-48/-48
f -42/-42/-42 -43/-43/-43 -44/-44/-44
f -43/-43/-43 -41/-41/-41 -44/-44/-44
f -40/-40/-40 -41/-41/-41 -43/-43/-43
f -39/-39/-39 -40/-40/-40 -43/-43/-43
f -38/-38/-38 -40/-40/-40 -39/-39/-39
f -37/-37/-37 -38/-38/-38 -39/-39/-39
f -34/-34/-34 -35/-35/-35 -36/-36/-36
f -35/-35/-35 -33/-33/-33 -36/-36/-36
f -32/-32/-32 -33/-33/-33 -35/-35/-35
f -31/-31/-31 -32/-32/-32 -35/-35/-35
f -30/-30/-30 -32/-32/-32 -31/-31/-31
f -29/-29/-29 -30/-30/-30 -31/-31/-31
f -26/-26/-26 -27/-27/-27 -28/-28/-28
f -27/-27/-27 -25/-25/-25 -28/-28/-28
f -22/-22/-22 -23/-23/-23 -24/-24/-24
f -23/-23/-23 -21/-21/-21 -24/-24/-24
f -18/-18/-18 -19/-19/-19 -20/-20/-20
f -19/-19/-19 -17/-17/-17 -20/-20/-20
f -16/-16/-16 -17/-17/-17 -19/-19/-19
f -15/-15/-15 -16/-16/-16 -19/-19/-19
f -14/-14/-14 -16/-16/-16 -15/-15/-15
f -13/-13/-13 -14/-14/-14 -15/-15/-15
f -10/-10/-10 -11/-11/-11 -12/-12/-12
f -11/-11/-11 -9/-9/-9 -12/-12/-12
f -6/-6/-6 -7/-7/-7 -8/-8/-8
f -7/-7/-7 -5/-5/-5 -8/-8/-8
f -2/-2/-2 -3/-3/-3 -4/-4/-4
f -3/-3/-3 -1/-1/-1 -4/-4/-4

