# Mesh "speaker" exported with Unity Assets Bundle Extractor; 60 vertices, 294 indices, 384 bits per vertex
g speaker
# SubMesh 0
# Vertices
v 22.461575 9.276854 0.000003
vt 0.980699 0.570537
vn 0.992164 -0.124946 0.000000
v 19.140072 -9.276854 3.321146
vt 0.928356 0.620206
vn 0.616251 -0.699253 0.362327
v 21.362234 9.276855 3.706730
vt 0.970635 0.634079
vn 0.862683 -0.113565 0.492829
v 20.125057 -9.276857 0.000003
vt 0.936257 0.570319
vn 0.719676 -0.694310 0.000000
v 16.281521 -9.276854 6.317196
vt 0.905425 0.665210
vn 0.424832 -0.706507 0.566008
v 18.171803 9.276855 7.050632
vt 0.941428 0.691401
vn 0.606798 -0.093026 0.789393
v 11.829220 -9.276854 8.694878
vt 0.869710 0.700926
vn 0.257479 -0.710499 0.654902
v 13.202587 9.276861 9.704350
vt 0.895936 0.736892
vn 0.371205 -0.077820 0.925284
v 6.218983 -9.276857 10.221439
vt 0.824706 0.723857
vn 0.121161 -0.712143 0.691500
v 6.941006 9.276857 11.408146
vt 0.838614 0.766099
vn 0.175237 -0.069633 0.982061
v -0.000000 -9.276842 10.747458
vt 0.774818 0.731758
vn -0.000000 -0.712572 0.701600
v -0.000000 9.276863 11.995235
vt 0.775072 0.776164
vn -0.000000 -0.067101 0.997746
v -6.218983 -9.276854 10.221439
vt 0.724931 0.723857
vn -0.121160 -0.712146 0.691497
v -6.941006 9.276865 11.408146
vt 0.711530 0.766099
vn -0.175237 -0.069633 0.982061
v -11.829212 -9.276854 8.694878
vt 0.679927 0.700926
vn -0.257479 -0.710503 0.654898
v -13.202579 9.276861 9.704351
vt 0.654208 0.736892
vn -0.371205 -0.077820 0.925284
v -16.281513 -9.276854 6.317196
vt 0.644211 0.665210
vn -0.424828 -0.706513 0.566004
v -18.171803 9.276861 7.050632
vt 0.608716 0.691401
vn -0.606798 -0.093027 0.789394
v -19.140064 -9.276854 3.321146
vt 0.621280 0.620206
vn -0.616248 -0.699255 0.362328
v -21.362232 9.276859 3.706730
vt 0.579509 0.634079
vn -0.862683 -0.113565 0.492829
v -20.125069 -9.276861 0.000002
vt 0.613379 0.570319
vn -0.719675 -0.694311 0.000000
v -22.461575 9.276859 0.000002
vt 0.569445 0.570537
vn -0.992164 -0.124946 0.000000
v -19.140064 -9.276854 -3.321151
vt 0.621280 0.520431
vn -0.616257 -0.699245 -0.362332
v -21.362232 9.276857 -3.706736
vt 0.579509 0.506994
vn -0.862683 -0.113565 -0.492830
v -16.281506 -9.276861 -6.317198
vt 0.644211 0.475427
vn -0.424831 -0.706507 -0.566009
v -18.171787 9.276857 -7.050627
vt 0.608716 0.449672
vn -0.606797 -0.093026 -0.789394
v -11.829197 -9.276861 -8.694876
vt 0.679927 0.439712
vn -0.257475 -0.710508 -0.654893
v -13.202564 9.276855 -9.704357
vt 0.654208 0.404181
vn -0.371206 -0.077820 -0.925284
v -6.218967 -9.276854 -10.221438
vt 0.724931 0.416781
vn -0.121161 -0.712141 -0.691502
v -6.940990 9.276854 -11.408151
vt 0.711530 0.374974
vn -0.175237 -0.069633 -0.982061
v 0.000019 -9.276857 -10.747456
vt 0.774818 0.408880
vn -0.000000 -0.712572 -0.701599
v 0.000023 9.276854 -11.995236
vt 0.775072 0.364910
vn -0.000000 -0.067101 -0.997746
v 6.219006 -9.276861 -10.221433
vt 0.824706 0.416781
vn 0.121162 -0.712141 -0.691502
v 6.941036 9.276850 -11.408145
vt 0.838614 0.374974
vn 0.175238 -0.069633 -0.982061
v 11.829237 -9.276861 -8.694866
vt 0.869710 0.439712
vn 0.257477 -0.710504 -0.654897
v 13.202602 9.276854 -9.704342
vt 0.895937 0.404181
vn 0.371207 -0.077820 -0.925283
v 16.281536 -9.276861 -6.317183
vt 0.905425 0.475428
vn 0.424834 -0.706505 -0.566010
v 18.171818 9.276850 -7.050608
vt 0.941428 0.449672
vn 0.606799 -0.093026 -0.789393
v 19.140079 -9.276857 -3.321130
vt 0.928356 0.520432
vn 0.616260 -0.699244 -0.362328
v 21.362242 9.276852 -3.706715
vt 0.970635 0.506995
vn 0.862684 -0.113565 -0.492828
v -5.963306 -9.276850 -9.663339
vt 0.732057 0.438714
vn -0.000000 -1.000000 0.000000
v 0.000027 -9.276850 -10.167731
vt 0.774818 0.431941
vn -0.000000 -1.000000 0.000000
v -11.342907 -9.276850 -8.199532
vt 0.693482 0.458369
vn -0.000000 -1.000000 0.000000
v -18.353237 -9.276857 -3.046714
vt 0.643213 0.527558
vn -0.000000 -1.000000 0.000000
v -15.612183 -9.276857 -5.919600
vt 0.662868 0.488983
vn -0.000000 -1.000000 0.000000
v 18.353252 -9.276865 -3.046689
vt 0.906423 0.527558
vn -0.000000 -1.000000 0.000000
v 11.342949 -9.276857 -8.199522
vt 0.856155 0.458369
vn -0.000000 -1.000000 0.000000
v 5.963348 -9.276857 -9.663332
vt 0.817579 0.438714
vn -0.000000 -1.000000 0.000000
v 15.612221 -9.276861 -5.919582
vt 0.886768 0.488983
vn -0.000000 -1.000000 0.000000
v -11.342915 -9.276854 8.475349
vt 0.693482 0.682269
vn -0.000000 -1.000000 0.000000
v -18.353233 -9.276834 3.322531
vt 0.643213 0.613080
vn 0.000012 -1.000000 0.000000
v -15.612186 -9.276842 6.195415
vt 0.662868 0.651655
vn -0.000000 -1.000000 -0.000012
v -19.297741 -9.276846 0.137912
vt 0.636441 0.570319
vn 0.000011 -1.000000 0.000000
v 11.342922 -9.276857 8.475349
vt 0.856155 0.682269
vn -0.000000 -1.000000 0.000000
v -0.000000 -9.276838 10.443552
vt 0.774818 0.708697
vn -0.000000 -1.000000 0.000000
v 5.963333 -9.276854 9.939165
vt 0.817579 0.701924
vn -0.000000 -1.000000 -0.000010
v -5.963329 -9.276846 9.939159
vt 0.732057 0.701924
vn -0.000000 -1.000000 -0.000012
v 18.353245 -9.276838 3.322533
vt 0.906423 0.613080
vn -0.000000 -1.000000 0.000000
v 15.612206 -9.276850 6.195423
vt 0.886768 0.651655
vn -0.000000 -1.000000 0.000000
v 19.297741 -9.276850 0.137912
vt 0.913196 0.570319
vn -0.000000 -1.000000 0.000000
# Faces (1 to 60)
g speaker_0
f -58/-58/-58 -59/-59/-59 -60/-60/-60
f -57/-57/-57 -60/-60/-60 -59/-59/-59
f -59/-59/-59 -58/-58/-58 -56/-56/-56
f -55/-55/-55 -56/-56/-56 -58/-58/-58
f -56/-56/-56 -55/-55/-55 -54/-54/-54
f -53/-53/-53 -54/-54/-54 -55/-55/-55
f -54/-54/-54 -53/-53/-53 -52/-52/-52
f -51/-51/-51 -52/-52/-52 -53/-53/-53
f -52/-52/-52 -51/-51/-51 -50/-50/-50
f -49/-49/-49 -50/-50/-50 -51/-51/-51
f -50/-50/-50 -49/-49/-49 -48/-48/-48
f -47/-47/-47 -48/-48/-48 -49/-49/-49
f -48/-48/-48 -47/-47/-47 -46/-46/-46
f -45/-45/-45 -46/-46/-46 -47/-47/-47
f -46/-46/-46 -45/-45/-45 -44/-44/-44
f -43/-43/-43 -44/-44/-44 -45/-45/-45
f -44/-44/-44 -43/-43/-43 -42/-42/-42
f -41/-41/-41 -42/-42/-42 -43/-43/-43
f -42/-42/-42 -41/-41/-41 -40/-40/-40
f -39/-39/-39 -40/-40/-40 -41/-41/-41
f -40/-40/-40 -39/-39/-39 -38/-38/-38
f -37/-37/-37 -38/-38/-38 -39/-39/-39
f -38/-38/-38 -37/-37/-37 -36/-36/-36
f -35/-35/-35 -36/-36/-36 -37/-37/-37
f -36/-36/-36 -35/-35/-35 -34/-34/-34
f -33/-33/-33 -34/-34/-34 -35/-35/-35
f -34/-34/-34 -33/-33/-33 -32/-32/-32
f -31/-31/-31 -32/-32/-32 -33/-33/-33
f -32/-32/-32 -31/-31/-31 -30/-30/-30
f -29/-29/-29 -30/-30/-30 -31/-31/-31
f -30/-30/-30 -29/-29/-29 -28/-28/-28
f -27/-27/-27 -28/-28/-28 -29/-29/-29
f -28/-28/-28 -27/-27/-27 -26/-26/-26
f -25/-25/-25 -26/-26/-26 -27/-27/-27
f -26/-26/-26 -25/-25/-25 -24/-24/-24
f -23/-23/-23 -24/-24/-24 -25/-25/-25
f -24/-24/-24 -23/-23/-23 -22/-22/-22
f -21/-21/-21 -22/-22/-22 -23/-23/-23
f -22/-22/-22 -21/-21/-21 -57/-57/-57
f -60/-60/-60 -57/-57/-57 -21/-21/-21
f -32/-32/-32 -20/-20/-20 -34/-34/-34
f -30/-30/-30 -19/-19/-19 -32/-32/-32
f -20/-20/-20 -32/-32/-32 -19/-19/-19
f -20/-20/-20 -19/-19/-19 -18/-18/-18
f -18/-18/-18 -19/-19/-19 -17/-17/-17
f -16/-16/-16 -18/-18/-18 -17/-17/-17
f -19/-19/-19 -15/-15/-15 -17/-17/-17
f -22/-22/-22 -15/-15/-15 -24/-24/-24
f -14/-14/-14 -15/-15/-15 -19/-19/-19
f -13/-13/-13 -14/-14/-14 -19/-19/-19
f -12/-12/-12 -15/-15/-15 -14/-14/-14
f -12/-12/-12 -24/-24/-24 -15/-15/-15
f -17/-17/-17 -15/-15/-15 -11/-11/-11
f -10/-10/-10 -17/-17/-17 -11/-11/-11
f -9/-9/-9 -10/-10/-10 -11/-11/-11
f -8/-8/-8 -17/-17/-17 -10/-10/-10
f -11/-11/-11 -15/-15/-15 -7/-7/-7
f -6/-6/-6 -11/-11/-11 -7/-7/-7
f -5/-5/-5 -6/-6/-6 -7/-7/-7
f -4/-4/-4 -11/-11/-11 -6/-6/-6
f -7/-7/-7 -15/-15/-15 -3/-3/-3
f -2/-2/-2 -7/-7/-7 -3/-3/-3
f -3/-3/-3 -15/-15/-15 -1/-1/-1
f -1/-1/-1 -57/-57/-57 -3/-3/-3
f -59/-59/-59 -3/-3/-3 -57/-57/-57
f -3/-3/-3 -59/-59/-59 -2/-2/-2
f -56/-56/-56 -2/-2/-2 -59/-59/-59
f -2/-2/-2 -56/-56/-56 -7/-7/-7
f -54/-54/-54 -7/-7/-7 -56/-56/-56
f -7/-7/-7 -54/-54/-54 -5/-5/-5
f -52/-52/-52 -5/-5/-5 -54/-54/-54
f -5/-5/-5 -52/-52/-52 -6/-6/-6
f -50/-50/-50 -6/-6/-6 -52/-52/-52
f -6/-6/-6 -50/-50/-50 -4/-4/-4
f -48/-48/-48 -4/-4/-4 -50/-50/-50
f -4/-4/-4 -48/-48/-48 -11/-11/-11
f -46/-46/-46 -11/-11/-11 -48/-48/-48
f -11/-11/-11 -46/-46/-46 -9/-9/-9
f -44/-44/-44 -9/-9/-9 -46/-46/-46
f -9/-9/-9 -44/-44/-44 -10/-10/-10
f -42/-42/-42 -10/-10/-10 -44/-44/-44
f -10/-10/-10 -42/-42/-42 -8/-8/-8
f -40/-40/-40 -8/-8/-8 -42/-42/-42
f -8/-8/-8 -40/-40/-40 -17/-17/-17
f -38/-38/-38 -17/-17/-17 -40/-40/-40
f -17/-17/-17 -38/-38/-38 -16/-16/-16
f -36/-36/-36 -16/-16/-16 -38/-38/-38
f -16/-16/-16 -36/-36/-36 -18/-18/-18
f -34/-34/-34 -18/-18/-18 -36/-36/-36
f -18/-18/-18 -34/-34/-34 -20/-20/-20
f -28/-28/-28 -13/-13/-13 -30/-30/-30
f -19/-19/-19 -30/-30/-30 -13/-13/-13
f -13/-13/-13 -28/-28/-28 -14/-14/-14
f -26/-26/-26 -14/-14/-14 -28/-28/-28
f -14/-14/-14 -26/-26/-26 -12/-12/-12
f -24/-24/-24 -12/-12/-12 -26/-26/-26
f -57/-57/-57 -1/-1/-1 -22/-22/-22
f -15/-15/-15 -22/-22/-22 -1/-1/-1

