# Mesh "flag" exported with Unity Assets Bundle Extractor; 176 vertices, 522 indices, 256 bits per vertex
g flag
# SubMesh 0
# Vertices
v 0.000000 28.745966 8.589818
vt 0.918465 0.800802
vn 0.996164 0.086838 0.010816
v -0.066942 29.640852 7.570622
vt 0.941031 0.825590
vn 0.998128 0.022669 0.056796
v 0.092379 28.823620 7.607405
vt 0.940217 0.802954
vn 0.990492 0.116383 0.073355
v -0.000000 29.760983 8.589818
vt 0.918465 0.828917
vn 0.999601 0.026831 -0.008884
v 0.216090 29.239315 5.954757
vt 0.976809 0.814467
vn 0.980049 0.145368 0.135541
v 0.079691 29.927492 6.515244
vt 0.964399 0.833529
vn 0.992281 0.018382 0.122639
v -0.004232 30.369640 7.732136
vt 0.937455 0.845776
vn 0.996663 -0.071312 0.039707
v -0.000000 30.775999 8.589817
vt 0.918465 0.857032
vn 0.999038 -0.033283 -0.028549
v -0.000000 32.889240 0.373127
vt 0.853740 0.988846
vn 0.997850 0.000000 -0.065540
v -0.090805 34.103115 -1.009370
vt 0.903948 0.962228
vn 0.998265 -0.014348 0.057099
v -0.090805 32.724922 -1.009370
vt 0.846943 0.962228
vn 0.999065 0.000000 0.043230
v -0.000000 34.266068 0.373127
vt 0.910688 0.988846
vn 0.997850 0.000000 -0.065540
v 0.121073 34.103115 -2.391865
vt 0.903948 0.935609
vn 0.998019 -0.044596 0.044387
v 0.121073 32.704163 -2.391865
vt 0.846085 0.935609
vn 0.999431 0.000645 0.033709
v 0.008806 34.266068 -3.691389
vt 0.910688 0.910588
vn 0.994033 -0.059892 -0.091166
v 0.000000 32.889236 -3.837229
vt 0.853740 0.907780
vn 0.996419 0.001281 -0.084542
v -0.090805 35.473751 -1.009370
vt 0.960641 0.962228
vn 0.997062 -0.028745 0.070998
v -0.000000 35.642895 0.373127
vt 0.967637 0.988846
vn 0.997850 0.000000 -0.065540
v 0.277301 35.413147 -2.391865
vt 0.958134 0.935609
vn 0.994423 -0.089975 0.055023
v 0.156229 35.505356 -3.774361
vt 0.961948 0.908990
vn 0.987878 -0.120838 -0.097443
v 0.000000 26.998762 -6.572072
vt 0.850477 0.799644
vn 0.996164 0.086838 0.010817
v -0.066942 27.893648 -7.591268
vt 0.873044 0.824431
vn 0.998128 0.022670 0.056796
v 0.092379 27.076416 -7.554484
vt 0.872230 0.801795
vn 0.990492 0.116383 0.073355
v 0.000000 28.013779 -6.572073
vt 0.850477 0.827758
vn 0.999601 0.026831 -0.008884
v 0.216090 27.492111 -9.207131
vt 0.908822 0.813309
vn 0.980049 0.145368 0.135541
v 0.079691 28.180288 -8.646646
vt 0.896412 0.832370
vn 0.992281 0.018383 0.122639
v -0.004232 28.622438 -7.429754
vt 0.869468 0.844617
vn 0.996663 -0.071312 0.039707
v -0.000000 29.028797 -6.572073
vt 0.850477 0.855873
vn 0.999038 -0.033283 -0.028549
v 6.252849 4.384993 9.768368
vt 0.018947 0.016124
vn 0.951255 0.274085 0.141388
v 6.005975 6.188604 7.932982
vt 0.186585 0.098609
vn 0.961639 0.235691 0.140356
v 6.525648 4.384993 7.932982
vt 0.186585 0.016124
vn 0.951255 0.274085 0.141388
v 5.733175 6.188604 9.768368
vt 0.018947 0.098609
vn 0.961639 0.235691 0.140356
v 5.540323 7.234906 9.700562
vt 0.025140 0.146461
vn 0.909459 0.401373 0.108552
v 5.774214 7.234906 8.000789
vt 0.180392 0.146461
vn 0.909459 0.401373 0.108552
v 0.602878 14.174371 9.292970
vt 0.062368 0.463828
vn 0.806166 0.587174 0.072960
v 0.602878 14.174371 8.408381
vt 0.143163 0.463828
vn 0.806166 0.587174 0.072960
v 7.361032 2.316564 1.153916
vt 0.203962 0.015449
vn 0.999952 0.009823 0.000000
v 7.343313 4.120177 -0.681469
vt 0.344267 0.084498
vn 0.979976 0.199114 0.000000
v 7.361032 2.316564 -0.681469
vt 0.344267 0.015449
vn 0.999952 0.009823 0.000000
v 7.343313 4.120177 1.153916
vt 0.203962 0.084498
vn 0.979976 0.199114 0.000000
v 0.602878 20.467674 0.678517
vt 0.240303 0.760300
vn 0.924497 0.381190 0.000000
v 0.602878 20.467674 -0.206070
vt 0.307925 0.760300
vn 0.924497 0.381190 0.000000
v 7.260567 5.355724 -5.398961
vt 0.361408 0.014722
vn 0.988746 0.116950 -0.093300
v 6.874043 7.159335 -7.234346
vt 0.509227 0.087456
vn 0.948864 0.306517 -0.075534
v 7.085254 5.355725 -7.234346
vt 0.509227 0.014722
vn 0.988746 0.116950 -0.093300
v 7.045111 7.159335 -5.398961
vt 0.361408 0.087456
vn 0.948864 0.306517 -0.075534
v 0.602878 18.614542 -5.874360
vt 0.399696 0.612445
vn 0.873075 0.484485 -0.054911
v 0.602878 18.614542 -6.758948
vt 0.470940 0.612445
vn 0.873075 0.484485 -0.054911
v -7.260567 5.355724 -5.398961
vt 0.361408 0.014722
vn -0.988746 0.116950 -0.093300
v -6.874043 7.159335 -7.234346
vt 0.509227 0.087456
vn -0.948864 0.306517 -0.075534
v -7.045111 7.159335 -5.398961
vt 0.361408 0.087456
vn -0.948864 0.306517 -0.075534
v -7.085254 5.355725 -7.234346
vt 0.509227 0.014722
vn -0.988746 0.116950 -0.093300
v -0.602878 18.614542 -5.874360
vt 0.399696 0.612445
vn -0.873075 0.484485 -0.054911
v -0.602878 18.614542 -6.758948
vt 0.470940 0.612445
vn -0.873075 0.484485 -0.054911
v -7.361032 2.316564 1.153916
vt 0.203962 0.015449
vn -0.999952 0.009823 0.000000
v -7.343313 4.120177 -0.681469
vt 0.344267 0.084498
vn -0.979976 0.199114 0.000000
v -7.343313 4.120177 1.153916
vt 0.203962 0.084498
vn -0.979976 0.199114 0.000000
v -7.361032 2.316564 -0.681469
vt 0.344267 0.015449
vn -0.999952 0.009823 0.000000
v -0.602878 20.467674 0.678517
vt 0.240303 0.760300
vn -0.924497 0.381190 0.000000
v -0.602878 20.467674 -0.206070
vt 0.307925 0.760300
vn -0.924497 0.381190 0.000000
v -6.252849 4.384993 9.768368
vt 0.018947 0.016124
vn -0.951255 0.274085 0.141388
v -6.005975 6.188604 7.932982
vt 0.186585 0.098609
vn -0.961639 0.235691 0.140356
v -5.733175 6.188604 9.768368
vt 0.018947 0.098609
vn -0.961639 0.235691 0.140356
v -6.525648 4.384993 7.932982
vt 0.186585 0.016124
vn -0.951255 0.274085 0.141388
v -5.540323 7.234906 9.700562
vt 0.025140 0.146461
vn -0.909459 0.401373 0.108552
v -5.774214 7.234906 8.000789
vt 0.180392 0.146461
vn -0.909459 0.401373 0.108552
v -0.602878 14.174371 9.292970
vt 0.062368 0.463828
vn -0.806166 0.587174 0.072960
v -0.602878 14.174371 8.408381
vt 0.143163 0.463828
vn -0.806166 0.587174 0.072960
v -3.719026 24.070885 0.449438
vt 0.454744 0.779852
vn 0.147332 -0.825385 0.545007
v -0.000000 25.975763 2.328916
vt 0.632395 0.829776
vn -0.000000 -0.649422 0.760428
v -0.000000 24.884010 0.520111
vt 0.632395 0.779852
vn -0.000000 -0.834492 0.551020
v -3.972304 25.332392 2.272998
vt 0.454744 0.829629
vn 0.100874 -0.646110 0.756549
v 3.972304 25.332392 2.272998
vt 0.810047 0.829629
vn -0.100874 -0.646110 0.756549
v 3.719026 24.070885 0.449438
vt 0.810047 0.779852
vn -0.147332 -0.825385 0.545006
v -0.000000 27.173973 2.912852
vt 0.632395 0.864202
vn -0.000000 -0.258930 0.965896
v -4.128435 26.700359 2.871688
vt 0.454744 0.864541
vn 0.023941 -0.258856 0.965619
v 4.128435 26.700359 2.871688
vt 0.810047 0.864541
vn -0.023941 -0.258856 0.965619
v -0.000000 28.412647 3.031247
vt 0.632395 0.895032
vn -0.000000 0.090232 0.995921
v -4.135223 28.108788 3.004837
vt 0.454744 0.895691
vn -0.009193 0.090228 0.995879
v 4.135223 28.108788 3.004837
vt 0.810047 0.895691
vn 0.009193 0.090228 0.995879
v -0.000000 29.695866 2.637150
vt 0.632395 0.926705
vn -0.000000 0.540675 0.841232
v -4.135223 29.561762 2.625494
vt 0.454744 0.926736
vn -0.016770 0.540599 0.841113
v 4.135223 29.561762 2.625494
vt 0.810047 0.926736
vn 0.016770 0.540599 0.841113
v -0.000000 31.115431 0.879879
vt 0.632395 0.974782
vn -0.000000 0.762371 0.647141
v -4.135223 31.115618 0.879895
vt 0.454744 0.974782
vn -0.013254 0.762304 0.647084
v 4.135223 31.115618 0.879895
vt 0.810047 0.974782
vn 0.013254 0.762304 0.647084
v -5.309206 8.952379 1.140150
vt 0.966066 0.387414
vn 0.130576 -0.595078 0.792990
v -0.000000 12.392715 2.847628
vt 0.867897 0.476833
vn -0.000000 -0.413892 0.910326
v -0.000000 10.315166 1.140150
vt 0.966066 0.476833
vn -0.000000 -0.600217 0.799837
v -5.815540 11.314436 2.847628
vt 0.867897 0.387414
vn 0.084083 -0.412426 0.907102
v 5.815540 11.314436 2.847628
vt 0.867897 0.566693
vn -0.084083 -0.412426 0.907102
v 5.309206 8.952379 1.140150
vt 0.966066 0.566693
vn -0.130576 -0.595078 0.792990
v -0.000000 14.470264 3.325619
vt 0.808996 0.476834
vn -0.000000 -0.107891 0.994163
v -5.903361 13.676493 3.325619
vt 0.808996 0.387414
vn 0.017113 -0.107875 0.994017
v 5.903361 13.676493 3.325619
vt 0.808996 0.566693
vn -0.017113 -0.107875 0.994017
v -0.000000 16.547813 3.336314
vt 0.730461 0.476834
vn -0.000000 0.108942 0.994048
v -5.903361 16.038549 3.336314
vt 0.730461 0.387414
vn -0.006656 0.108940 0.994026
v 5.903361 16.038549 3.336314
vt 0.730461 0.566693
vn 0.006656 0.108940 0.994026
v -0.000000 18.625360 2.832586
vt 0.671560 0.476833
vn -0.000000 0.445816 0.895125
v -5.903361 18.400606 2.832586
vt 0.671560 0.387414
vn -0.013389 0.445776 0.895044
v 5.903361 18.400606 2.832586
vt 0.671560 0.566693
vn 0.013389 0.445776 0.895044
v -0.000000 20.732628 0.958997
vt 0.573391 0.476833
vn -0.000000 0.644998 0.764184
v -5.903361 20.732943 0.958997
vt 0.573391 0.387414
vn -0.012260 0.644950 0.764127
v 5.903361 20.732943 0.958997
vt 0.573391 0.566693
vn 0.012260 0.644950 0.764127
v -3.719026 11.831673 -5.978007
vt 0.921463 0.569368
vn 0.147332 -0.825386 0.545006
v -0.000000 13.736551 -4.098528
vt 0.842928 0.658787
vn -0.000000 -0.649422 0.760428
v -0.000000 12.644799 -5.907334
vt 0.921463 0.658787
vn -0.000000 -0.834492 0.551020
v -3.972304 13.093180 -4.154447
vt 0.842928 0.569368
vn 0.100874 -0.646110 0.756549
v 3.972304 13.093180 -4.154447
vt 0.842928 0.748646
vn -0.100874 -0.646110 0.756549
v 3.719026 11.831673 -5.978007
vt 0.921463 0.748647
vn -0.147332 -0.825386 0.545006
v -0.000000 14.934763 -3.514593
vt 0.784027 0.658787
vn -0.000000 -0.258930 0.965896
v -4.128435 14.461147 -3.555757
vt 0.784027 0.569368
vn 0.023941 -0.258856 0.965619
v 4.128435 14.461147 -3.555757
vt 0.784027 0.748646
vn -0.023941 -0.258856 0.965619
v -0.000000 16.173437 -3.396199
vt 0.725125 0.658787
vn -0.000000 0.090232 0.995921
v -4.135223 15.869577 -3.422609
vt 0.725126 0.569368
vn -0.009193 0.090229 0.995879
v 4.135223 15.869577 -3.422609
vt 0.725126 0.748646
vn 0.009193 0.090229 0.995879
v -0.000000 17.456654 -3.790295
vt 0.666224 0.658787
vn -0.000000 0.540675 0.841231
v -4.135223 17.322552 -3.801951
vt 0.666224 0.569368
vn -0.016770 0.540599 0.841113
v 4.135223 17.322552 -3.801951
vt 0.666224 0.748646
vn 0.016770 0.540599 0.841113
v -0.000000 18.876219 -5.547566
vt 0.568055 0.658787
vn -0.000000 0.762371 0.647141
v -4.135223 18.876406 -5.547550
vt 0.568055 0.569368
vn -0.013254 0.762304 0.647084
v 4.135223 18.876406 -5.547550
vt 0.568055 0.748647
vn 0.013254 0.762304 0.647084
v -3.719026 18.987587 9.121144
vt 0.086585 0.808038
vn 0.147332 -0.825386 0.545006
v -0.000000 20.892464 11.000623
vt 0.264237 0.847584
vn -0.000000 -0.649423 0.760428
v -0.000000 19.800713 9.191817
vt 0.264237 0.808038
vn -0.000000 -0.834493 0.551019
v -3.972304 20.249094 10.944703
vt 0.086585 0.847584
vn 0.100874 -0.646110 0.756549
v 3.972304 20.249094 10.944703
vt 0.442763 0.847584
vn -0.100874 -0.646110 0.756549
v 3.719026 18.987587 9.121144
vt 0.442763 0.808038
vn -0.147332 -0.825386 0.545006
v -0.000000 22.090675 11.584558
vt 0.264237 0.877243
vn -0.000000 -0.258930 0.965896
v -4.128435 21.617062 11.543395
vt 0.086585 0.877243
vn 0.023941 -0.258856 0.965619
v 4.128435 21.617062 11.543395
vt 0.442763 0.877243
vn -0.023941 -0.258856 0.965619
v -0.000000 23.329350 11.702952
vt 0.264237 0.906903
vn -0.000000 0.090232 0.995921
v -4.135223 23.025490 11.676543
vt 0.086585 0.906903
vn -0.009193 0.090228 0.995879
v 4.135223 23.025490 11.676543
vt 0.442763 0.906903
vn 0.009193 0.090228 0.995879
v -0.000000 24.612568 11.308856
vt 0.264237 0.936562
vn -0.000000 0.540675 0.841231
v -4.135223 24.478464 11.297200
vt 0.086585 0.936562
vn -0.016770 0.540599 0.841113
v 4.135223 24.478464 11.297200
vt 0.442763 0.936562
vn 0.016770 0.540599 0.841113
v -0.000000 26.032131 9.551585
vt 0.264237 0.985994
vn -0.000000 0.762371 0.647140
v -4.135223 26.032320 9.551601
vt 0.086585 0.985994
vn -0.013254 0.762304 0.647083
v 4.135223 26.032320 9.551601
vt 0.442763 0.985994
vn 0.013254 0.762304 0.647083
v -5.309206 7.815753 9.539636
vt 0.848263 0.204368
vn 0.099776 -0.795980 0.597043
v -0.000000 9.761997 11.247113
vt 0.789362 0.293787
vn -0.000000 -0.600118 0.799911
v -0.000000 8.586700 9.539636
vt 0.848263 0.293787
vn -0.000000 -0.799972 0.600037
v -5.707471 9.152000 11.247113
vt 0.789362 0.204368
vn 0.068763 -0.598698 0.798018
v 5.707471 9.152000 11.247113
vt 0.789362 0.383646
vn -0.068763 -0.598698 0.798018
v 5.309206 7.815753 9.539636
vt 0.848263 0.383646
vn -0.099776 -0.795980 0.597043
v -0.000000 10.937294 11.725106
vt 0.750095 0.293787
vn -0.000000 -0.183836 0.982957
v -5.903361 10.488247 11.725106
vt 0.750095 0.204368
vn 0.016641 -0.183810 0.982821
v 5.903361 10.488247 11.725106
vt 0.750095 0.383646
vn -0.016641 -0.183810 0.982821
v -0.000000 12.112591 11.735799
vt 0.700385 0.293787
vn -0.000000 0.185395 0.982664
v -5.903361 11.824493 11.735799
vt 0.700385 0.204368
vn -0.006402 0.185392 0.982644
v 5.903361 11.824493 11.735799
vt 0.700385 0.383646
vn 0.006402 0.185392 0.982644
v -0.000000 13.287888 11.232072
vt 0.646231 0.293787
vn -0.000000 0.629497 0.777003
v -5.903361 13.160740 11.232072
vt 0.646231 0.204368
vn -0.011525 0.629455 0.776951
v 5.903361 13.160740 11.232072
vt 0.646231 0.383646
vn 0.011525 0.629455 0.776951
v -0.000000 14.479997 9.358481
vt 0.573391 0.293787
vn -0.000000 0.830674 0.556759
v -5.903361 14.480175 9.358481
vt 0.573391 0.204368
vn -0.008933 0.830641 0.556736
v 5.903361 14.480175 9.358481
vt 0.573391 0.383646
vn 0.008933 0.830641 0.556736
v -3.853503 9.612566 21.900749
vt 0.828630 0.019819
vn 0.091155 -0.703748 -0.704577
v -0.000000 8.443248 23.567242
vt 0.759588 0.109237
vn -0.000000 -0.880471 -0.474100
v -0.000000 9.776714 22.308060
vt 0.828630 0.109237
vn -0.000000 -0.706690 -0.707523
v -4.055772 8.313369 23.244965
vt 0.759588 0.019819
vn 0.068705 -0.878390 -0.472980
v 4.055772 8.313369 23.244965
vt 0.759589 0.199097
vn -0.068705 -0.878390 -0.472980
v 3.853503 9.612566 21.900749
vt 0.828630 0.199097
vn -0.091155 -0.703748 -0.704577
v -0.000000 8.250147 24.366848
vt 0.723816 0.109238
vn -0.000000 -0.996578 0.082663
v -4.187080 8.154537 24.129606
vt 0.723816 0.019818
vn 0.021464 -0.996348 0.082644
v 4.187080 8.154537 24.129606
vt 0.723816 0.199097
vn -0.021464 -0.996348 0.082644
v -0.000000 8.490470 24.991783
vt 0.691194 0.109237
vn -0.000000 -0.776137 0.630564
v -4.248943 8.429129 24.839575
vt 0.691194 0.019818
vn -0.008008 -0.776113 0.630544
v 4.248943 8.429129 24.839575
vt 0.691194 0.199097
vn 0.008008 -0.776113 0.630543
v -0.000000 9.207926 25.424431
vt 0.651926 0.109237
vn -0.000000 -0.274421 0.961610
v -4.273102 9.180853 25.357258
vt 0.651926 0.019819
vn -0.012479 -0.274400 0.961535
v 4.273102 9.180853 25.357258
vt 0.651926 0.199097
vn 0.012479 -0.274400 0.961535
v -0.000000 11.199524 25.353918
vt 0.573391 0.109238
vn -0.000000 0.018368 0.999831
v -4.284155 11.199561 25.354012
vt 0.573391 0.019818
vn -0.007896 0.018367 0.999800
v 4.284155 11.199561 25.354012
vt 0.573391 0.199097
vn 0.007896 0.018367 0.999800
# Faces (1 to 176)
g flag_0
f -174/-174/-174 -175/-175/-175 -176/-176/-176
f -175/-175/-175 -173/-173/-173 -176/-176/-176
f -174/-174/-174 -172/-172/-172 -175/-175/-175
f -172/-172/-172 -171/-171/-171 -175/-175/-175
f -175/-175/-175 -170/-170/-170 -173/-173/-173
f -170/-170/-170 -175/-175/-175 -171/-171/-171
f -170/-170/-170 -169/-169/-169 -173/-173/-173
f -166/-166/-166 -167/-167/-167 -168/-168/-168
f -167/-167/-167 -165/-165/-165 -168/-168/-168
f -164/-164/-164 -167/-167/-167 -166/-166/-166
f -163/-163/-163 -164/-164/-164 -166/-166/-166
f -162/-162/-162 -164/-164/-164 -163/-163/-163
f -161/-161/-161 -162/-162/-162 -163/-163/-163
f -167/-167/-167 -160/-160/-160 -165/-165/-165
f -160/-160/-160 -159/-159/-159 -165/-165/-165
f -164/-164/-164 -158/-158/-158 -167/-167/-167
f -158/-158/-158 -160/-160/-160 -167/-167/-167
f -162/-162/-162 -157/-157/-157 -164/-164/-164
f -157/-157/-157 -158/-158/-158 -164/-164/-164
f -154/-154/-154 -155/-155/-155 -156/-156/-156
f -155/-155/-155 -153/-153/-153 -156/-156/-156
f -154/-154/-154 -152/-152/-152 -155/-155/-155
f -152/-152/-152 -151/-151/-151 -155/-155/-155
f -155/-155/-155 -150/-150/-150 -153/-153/-153
f -150/-150/-150 -155/-155/-155 -151/-151/-151
f -150/-150/-150 -149/-149/-149 -153/-153/-153
f -146/-146/-146 -147/-147/-147 -148/-148/-148
f -147/-147/-147 -145/-145/-145 -148/-148/-148
f -144/-144/-144 -145/-145/-145 -147/-147/-147
f -143/-143/-143 -144/-144/-144 -147/-147/-147
f -142/-142/-142 -144/-144/-144 -143/-143/-143
f -141/-141/-141 -142/-142/-142 -143/-143/-143
f -138/-138/-138 -139/-139/-139 -140/-140/-140
f -139/-139/-139 -137/-137/-137 -140/-140/-140
f -136/-136/-136 -137/-137/-137 -139/-139/-139
f -135/-135/-135 -136/-136/-136 -139/-139/-139
f -132/-132/-132 -133/-133/-133 -134/-134/-134
f -133/-133/-133 -131/-131/-131 -134/-134/-134
f -130/-130/-130 -131/-131/-131 -133/-133/-133
f -129/-129/-129 -130/-130/-130 -133/-133/-133
f -126/-126/-126 -127/-127/-127 -128/-128/-128
f -127/-127/-127 -125/-125/-125 -128/-128/-128
f -126/-126/-126 -124/-124/-124 -127/-127/-127
f -124/-124/-124 -123/-123/-123 -127/-127/-127
f -120/-120/-120 -121/-121/-121 -122/-122/-122
f -121/-121/-121 -119/-119/-119 -122/-122/-122
f -120/-120/-120 -118/-118/-118 -121/-121/-121
f -118/-118/-118 -117/-117/-117 -121/-121/-121
f -114/-114/-114 -115/-115/-115 -116/-116/-116
f -115/-115/-115 -113/-113/-113 -116/-116/-116
f -114/-114/-114 -112/-112/-112 -115/-115/-115
f -112/-112/-112 -111/-111/-111 -115/-115/-115
f -112/-112/-112 -110/-110/-110 -111/-111/-111
f -110/-110/-110 -109/-109/-109 -111/-111/-111
f -106/-106/-106 -107/-107/-107 -108/-108/-108
f -107/-107/-107 -105/-105/-105 -108/-108/-108
f -104/-104/-104 -107/-107/-107 -106/-106/-106
f -103/-103/-103 -104/-104/-104 -106/-106/-106
f -107/-107/-107 -102/-102/-102 -105/-105/-105
f -102/-102/-102 -101/-101/-101 -105/-105/-105
f -104/-104/-104 -100/-100/-100 -107/-107/-107
f -100/-100/-100 -102/-102/-102 -107/-107/-107
f -102/-102/-102 -99/-99/-99 -101/-101/-101
f -99/-99/-99 -98/-98/-98 -101/-101/-101
f -100/-100/-100 -97/-97/-97 -102/-102/-102
f -97/-97/-97 -99/-99/-99 -102/-102/-102
f -99/-99/-99 -96/-96/-96 -98/-98/-98
f -96/-96/-96 -95/-95/-95 -98/-98/-98
f -97/-97/-97 -94/-94/-94 -99/-99/-99
f -94/-94/-94 -96/-96/-96 -99/-99/-99
f -96/-96/-96 -93/-93/-93 -95/-95/-95
f -93/-93/-93 -92/-92/-92 -95/-95/-95
f -94/-94/-94 -91/-91/-91 -96/-96/-96
f -91/-91/-91 -93/-93/-93 -96/-96/-96
f -88/-88/-88 -89/-89/-89 -90/-90/-90
f -89/-89/-89 -87/-87/-87 -90/-90/-90
f -86/-86/-86 -89/-89/-89 -88/-88/-88
f -85/-85/-85 -86/-86/-86 -88/-88/-88
f -89/-89/-89 -84/-84/-84 -87/-87/-87
f -84/-84/-84 -83/-83/-83 -87/-87/-87
f -86/-86/-86 -82/-82/-82 -89/-89/-89
f -82/-82/-82 -84/-84/-84 -89/-89/-89
f -84/-84/-84 -81/-81/-81 -83/-83/-83
f -81/-81/-81 -80/-80/-80 -83/-83/-83
f -82/-82/-82 -79/-79/-79 -84/-84/-84
f -79/-79/-79 -81/-81/-81 -84/-84/-84
f -81/-81/-81 -78/-78/-78 -80/-80/-80
f -78/-78/-78 -77/-77/-77 -80/-80/-80
f -79/-79/-79 -76/-76/-76 -81/-81/-81
f -76/-76/-76 -78/-78/-78 -81/-81/-81
f -78/-78/-78 -75/-75/-75 -77/-77/-77
f -75/-75/-75 -74/-74/-74 -77/-77/-77
f -76/-76/-76 -73/-73/-73 -78/-78/-78
f -73/-73/-73 -75/-75/-75 -78/-78/-78
f -70/-70/-70 -71/-71/-71 -72/-72/-72
f -71/-71/-71 -69/-69/-69 -72/-72/-72
f -68/-68/-68 -71/-71/-71 -70/-70/-70
f -67/-67/-67 -68/-68/-68 -70/-70/-70
f -71/-71/-71 -66/-66/-66 -69/-69/-69
f -66/-66/-66 -65/-65/-65 -69/-69/-69
f -68/-68/-68 -64/-64/-64 -71/-71/-71
f -64/-64/-64 -66/-66/-66 -71/-71/-71
f -66/-66/-66 -63/-63/-63 -65/-65/-65
f -63/-63/-63 -62/-62/-62 -65/-65/-65
f -64/-64/-64 -61/-61/-61 -66/-66/-66
f -61/-61/-61 -63/-63/-63 -66/-66/-66
f -63/-63/-63 -60/-60/-60 -62/-62/-62
f -60/-60/-60 -59/-59/-59 -62/-62/-62
f -61/-61/-61 -58/-58/-58 -63/-63/-63
f -58/-58/-58 -60/-60/-60 -63/-63/-63
f -60/-60/-60 -57/-57/-57 -59/-59/-59
f -57/-57/-57 -56/-56/-56 -59/-59/-59
f -58/-58/-58 -55/-55/-55 -60/-60/-60
f -55/-55/-55 -57/-57/-57 -60/-60/-60
f -52/-52/-52 -53/-53/-53 -54/-54/-54
f -53/-53/-53 -51/-51/-51 -54/-54/-54
f -50/-50/-50 -53/-53/-53 -52/-52/-52
f -49/-49/-49 -50/-50/-50 -52/-52/-52
f -53/-53/-53 -48/-48/-48 -51/-51/-51
f -48/-48/-48 -47/-47/-47 -51/-51/-51
f -50/-50/-50 -46/-46/-46 -53/-53/-53
f -46/-46/-46 -48/-48/-48 -53/-53/-53
f -48/-48/-48 -45/-45/-45 -47/-47/-47
f -45/-45/-45 -44/-44/-44 -47/-47/-47
f -46/-46/-46 -43/-43/-43 -48/-48/-48
f -43/-43/-43 -45/-45/-45 -48/-48/-48
f -45/-45/-45 -42/-42/-42 -44/-44/-44
f -42/-42/-42 -41/-41/-41 -44/-44/-44
f -43/-43/-43 -40/-40/-40 -45/-45/-45
f -40/-40/-40 -42/-42/-42 -45/-45/-45
f -42/-42/-42 -39/-39/-39 -41/-41/-41
f -39/-39/-39 -38/-38/-38 -41/-41/-41
f -40/-40/-40 -37/-37/-37 -42/-42/-42
f -37/-37/-37 -39/-39/-39 -42/-42/-42
f -34/-34/-34 -35/-35/-35 -36/-36/-36
f -35/-35/-35 -33/-33/-33 -36/-36/-36
f -32/-32/-32 -35/-35/-35 -34/-34/-34
f -31/-31/-31 -32/-32/-32 -34/-34/-34
f -35/-35/-35 -30/-30/-30 -33/-33/-33
f -30/-30/-30 -29/-29/-29 -33/-33/-33
f -32/-32/-32 -28/-28/-28 -35/-35/-35
f -28/-28/-28 -30/-30/-30 -35/-35/-35
f -30/-30/-30 -27/-27/-27 -29/-29/-29
f -27/-27/-27 -26/-26/-26 -29/-29/-29
f -28/-28/-28 -25/-25/-25 -30/-30/-30
f -25/-25/-25 -27/-27/-27 -30/-30/-30
f -27/-27/-27 -24/-24/-24 -26/-26/-26
f -24/-24/-24 -23/-23/-23 -26/-26/-26
f -25/-25/-25 -22/-22/-22 -27/-27/-27
f -22/-22/-22 -24/-24/-24 -27/-27/-27
f -24/-24/-24 -21/-21/-21 -23/-23/-23
f -21/-21/-21 -20/-20/-20 -23/-23/-23
f -22/-22/-22 -19/-19/-19 -24/-24/-24
f -19/-19/-19 -21/-21/-21 -24/-24/-24
f -16/-16/-16 -17/-17/-17 -18/-18/-18
f -17/-17/-17 -15/-15/-15 -18/-18/-18
f -14/-14/-14 -17/-17/-17 -16/-16/-16
f -13/-13/-13 -14/-14/-14 -16/-16/-16
f -17/-17/-17 -12/-12/-12 -15/-15/-15
f -12/-12/-12 -11/-11/-11 -15/-15/-15
f -14/-14/-14 -10/-10/-10 -17/-17/-17
f -10/-10/-10 -12/-12/-12 -17/-17/-17
f -12/-12/-12 -9/-9/-9 -11/-11/-11
f -9/-9/-9 -8/-8/-8 -11/-11/-11
f -10/-10/-10 -7/-7/-7 -12/-12/-12
f -7/-7/-7 -9/-9/-9 -12/-12/-12
f -9/-9/-9 -6/-6/-6 -8/-8/-8
f -6/-6/-6 -5/-5/-5 -8/-8/-8
f -7/-7/-7 -4/-4/-4 -9/-9/-9
f -4/-4/-4 -6/-6/-6 -9/-9/-9
f -6/-6/-6 -3/-3/-3 -5/-5/-5
f -3/-3/-3 -2/-2/-2 -5/-5/-5
f -4/-4/-4 -1/-1/-1 -6/-6/-6
f -1/-1/-1 -3/-3/-3 -6/-6/-6

