# Mesh "Rocks3" exported with Unity Assets Bundle Extractor; 96 vertices, 288 indices, 448 bits per vertex
g Rocks3
# SubMesh 0
# Vertices
v -149.696579 1.239030 -0.050994
vt 0.297873 0.451774
vn -0.708760 -0.611080 0.352476
v -149.529449 1.459346 0.142424
vt 0.236336 0.409784
vn -0.099025 0.211964 0.972248
v -149.501007 1.245052 0.110744
vt 0.222214 0.455747
vn -0.084956 -0.806852 0.584613
v -149.752518 1.452477 -0.042050
vt 0.288668 0.404528
vn -0.884828 0.041414 0.464073
v -149.502121 1.675710 -0.007589
vt 0.248393 0.370461
vn 0.091688 0.869059 0.486138
v -149.720016 1.617972 -0.048149
vt 0.278190 0.380377
vn -0.658284 0.661515 0.359249
v -149.726395 1.245052 -0.337216
vt 0.370258 0.413618
vn -0.674010 -0.736135 0.061769
v -149.798691 1.459346 -0.367570
vt 0.343074 0.364612
vn -0.995180 0.027145 0.094238
v -149.769852 1.243259 -0.645563
vt 0.430461 0.346780
vn -0.632964 -0.717441 -0.290921
v -149.822769 1.492736 -0.777151
vt 0.396679 0.272494
vn -0.886017 0.176593 -0.428706
v -149.729401 1.659044 -0.313825
vt 0.305009 0.343521
vn -0.629786 0.776116 0.031833
v -149.741699 1.648328 -0.642093
vt 0.344111 0.288233
vn -0.395353 0.873812 -0.283105
v -149.501007 1.245052 0.110744
vt 0.222214 0.455747
vn -0.084956 -0.806852 0.584613
v -149.263992 1.406769 0.047737
vt 0.177693 0.391447
vn 0.781609 0.282072 0.556348
v -149.251724 1.301402 0.035376
vt 0.148488 0.402506
vn 0.700119 -0.497183 0.512486
v -149.529449 1.459346 0.142424
vt 0.236336 0.409784
vn -0.099025 0.211964 0.972248
v -149.311966 1.546596 -0.069980
vt 0.213028 0.359569
vn 0.631613 0.680646 0.371196
v -149.502121 1.675710 -0.007589
vt 0.248393 0.370461
vn 0.091688 0.869059 0.486138
v -149.263046 1.606629 -0.340832
vt 0.231021 0.302215
vn 0.634776 0.772482 -0.018211
v -149.497192 1.695250 -0.337793
vt 0.270387 0.318761
vn 0.144948 0.988660 -0.039253
v -149.720016 1.617972 -0.048149
vt 0.278190 0.380377
vn -0.658284 0.661515 0.359249
v -149.729401 1.659044 -0.313825
vt 0.305009 0.343521
vn -0.629786 0.776116 0.031833
v -149.510727 1.601767 -0.636760
vt 0.300873 0.255713
vn 0.148703 0.905476 -0.397492
v -149.741699 1.648328 -0.642093
vt 0.344111 0.288233
vn -0.395353 0.873812 -0.283105
v -149.332382 1.577899 -0.594055
vt 0.256177 0.243763
vn 0.468587 0.810580 -0.351263
v -149.529449 1.459346 -0.864238
vt 0.343422 0.190962
vn 0.159430 0.289313 -0.943864
v -149.822769 1.492736 -0.777151
vt 0.396679 0.272494
vn -0.886017 0.176593 -0.428706
v -149.268326 1.460161 -0.728225
vt 0.233831 0.197706
vn 0.788743 0.264976 -0.554682
v -149.173599 1.459346 -0.360907
vt 0.204090 0.291180
vn 0.970895 0.238483 -0.022109
v -149.268326 1.460161 -0.728225
vt 0.233831 0.197706
vn 0.788743 0.264976 -0.554682
v -149.822769 1.492736 -0.777151
vt 0.091570 0.073122
vn -0.886017 0.176593 -0.428706
v -149.501007 1.245052 -0.771851
vt 0.143888 0.171192
vn 0.064534 -0.867090 -0.493954
v -149.529449 1.459346 -0.864238
vt 0.177080 0.115838
vn 0.159430 0.289313 -0.943864
v -149.769852 1.243259 -0.645563
vt 0.063320 0.157647
vn -0.632964 -0.717441 -0.290921
v -149.300247 1.268485 -0.620068
vt 0.173157 0.224915
vn 0.640605 -0.623898 -0.447634
v -149.268326 1.460161 -0.728225
vt 0.233831 0.197706
vn 0.788743 0.264976 -0.554682
v -149.509384 1.175872 -0.326318
vt 0.086804 0.275537
vn 0.025740 -0.999642 0.007247
v -149.726395 1.245052 -0.337216
vt 0.026944 0.247958
vn -0.674010 -0.736135 0.061769
v -149.189026 1.245052 -0.330554
vt 0.161634 0.295888
vn 0.737910 -0.674371 -0.026682
v -149.501007 1.245052 0.110744
vt 0.062524 0.406959
vn -0.084956 -0.806852 0.584613
v -149.696579 1.239030 -0.050994
vt 0.011489 0.342453
vn -0.708760 -0.611080 0.352476
v -149.251724 1.301402 0.035376
vt 0.148488 0.402506
vn 0.700119 -0.497183 0.512486
v -149.173599 1.459346 -0.360907
vt 0.204090 0.291180
vn 0.970895 0.238483 -0.022109
v -149.251724 1.301402 0.035376
vt 0.148488 0.402506
vn 0.700119 -0.497183 0.512486
v -149.251724 1.301402 0.035376
vt 0.148488 0.402506
vn 0.700119 -0.497183 0.512486
v -149.263992 1.406769 0.047737
vt 0.177693 0.391447
vn 0.781609 0.282072 0.556348
v -149.535828 1.469363 -1.059500
vt 0.958964 0.142816
vn 0.282691 0.604071 0.745107
v -149.684647 1.342111 -1.044303
vt 0.916774 0.142153
vn -0.591815 -0.212929 0.777442
v -149.683289 1.466980 -1.068235
vt 0.924430 0.168288
vn -0.330534 0.805976 0.491070
v -149.516464 1.344830 -1.034340
vt 0.939878 0.123348
vn 0.330737 -0.050126 0.942391
v -149.409622 1.465688 -1.169571
vt 0.981290 0.102203
vn 0.456329 0.729462 0.509557
v -149.367691 1.340568 -1.154656
vt 0.953155 0.087509
vn 0.663677 -0.036944 0.747107
v -149.268784 1.466482 -1.283624
vt 0.988912 0.051826
vn 0.666577 0.711173 0.223400
v -149.195099 1.320999 -1.319641
vt 0.949774 0.027237
vn 0.939201 -0.185310 0.289071
v -149.419357 1.224754 -1.160041
vt 0.928580 0.089407
vn 0.433483 -0.782281 0.447358
v -149.283844 1.230920 -1.294898
vt 0.929827 0.051072
vn 0.475939 -0.877663 0.056475
v -149.528580 1.248709 -1.050475
vt 0.927393 0.115196
vn 0.231974 -0.667966 0.707113
v -149.637680 1.216358 -1.119866
vt 0.910212 0.119800
vn -0.404723 -0.868114 0.287363
v -149.684647 1.342111 -1.044303
vt 0.916774 0.142153
vn -0.591815 -0.212929 0.777442
v -149.683289 1.466980 -1.068235
vt 0.924430 0.168288
vn -0.330534 0.805976 0.491070
v -149.759888 1.374229 -1.189715
vt 0.883328 0.151770
vn -0.953125 -0.274361 -0.127591
v -149.759766 1.435616 -1.199436
vt 0.872968 0.166106
vn -0.857990 0.504054 -0.098908
v -149.684647 1.342111 -1.044303
vt 0.916774 0.142153
vn -0.591815 -0.212929 0.777442
v -149.693359 1.292584 -1.221358
vt 0.890094 0.125678
vn -0.720044 -0.674392 -0.163497
v -149.606995 1.257929 -1.356326
vt 0.880716 0.092949
vn -0.457578 -0.766193 -0.451188
v -149.637680 1.216358 -1.119866
vt 0.910212 0.119800
vn -0.404723 -0.868114 0.287363
v -149.684647 1.342111 -1.044303
vt 0.916774 0.142153
vn -0.591815 -0.212929 0.777442
v -149.508865 1.205016 -1.262500
vt 0.904488 0.088497
vn -0.086416 -0.987185 -0.134157
v -149.528580 1.248709 -1.050475
vt 0.927393 0.115196
vn 0.231974 -0.667966 0.707113
v -149.419357 1.224754 -1.160041
vt 0.928580 0.089407
vn 0.433483 -0.782281 0.447358
v -149.384109 1.259339 -1.384068
vt 0.899242 0.049179
vn 0.155632 -0.903968 -0.398272
v -149.283844 1.230920 -1.294898
vt 0.929827 0.051072
vn 0.475939 -0.877663 0.056475
v -149.476898 1.274251 -1.436534
vt 0.874382 0.057467
vn -0.109236 -0.805926 -0.581851
v -149.285309 1.342111 -1.472947
vt 0.899168 0.005295
vn 0.524661 -0.287729 -0.801213
v -149.195099 1.320999 -1.319641
vt 0.949774 0.027237
vn 0.939201 -0.185310 0.289071
v -149.450439 1.343133 -1.518614
vt 0.849454 0.042659
vn -0.200881 -0.257196 -0.945250
v -149.636490 1.344151 -1.399779
vt 0.864541 0.096130
vn -0.696991 -0.228911 -0.679561
v -149.450439 1.343133 -1.518614
vt 0.849454 0.042659
vn -0.200881 -0.257196 -0.945250
v -149.759766 1.435616 -1.199436
vt 0.872968 0.166106
vn -0.857990 0.504054 -0.098908
v -149.641068 1.468768 -1.379901
vt 0.845935 0.111596
vn -0.516836 0.681605 -0.517972
v -149.450439 1.343133 -1.518614
vt 0.849454 0.042659
vn -0.200881 -0.257196 -0.945250
v -149.759766 1.435616 -1.199436
vt 0.872968 0.166106
vn -0.857990 0.504054 -0.098908
v -149.450439 1.343133 -1.518614
vt 0.849454 0.042659
vn -0.200881 -0.257196 -0.945250
v -149.478958 1.454494 -1.459152
vt 0.829251 0.074445
vn -0.159062 0.630177 -0.759985
v -149.195099 1.320999 -1.319641
vt 0.743339 0.028117
vn 0.939201 -0.185310 0.289071
v -149.333160 1.466980 -1.444050
vt 0.798659 0.058171
vn 0.295739 0.867684 -0.399580
v -149.285309 1.342111 -1.472947
vt 0.797091 0.021648
vn 0.524661 -0.287729 -0.801213
v -149.268784 1.466482 -1.283624
vt 0.756341 0.076892
vn 0.666577 0.711173 0.223400
v -149.478958 1.454494 -1.459152
vt 0.829251 0.074445
vn -0.159062 0.630177 -0.759985
v -149.450439 1.343133 -1.518614
vt 0.849454 0.042659
vn -0.200881 -0.257196 -0.945250
v -149.506058 1.507190 -1.250746
vt 0.804208 0.125309
vn -0.016569 0.999847 -0.005532
v -149.409622 1.465688 -1.169571
vt 0.767305 0.130936
vn 0.456329 0.729462 0.509557
v -149.641068 1.468768 -1.379901
vt 0.845935 0.111596
vn -0.516836 0.681605 -0.517972
v -149.683289 1.466980 -1.068235
vt 0.833712 0.195019
vn -0.330534 0.805976 0.491070
v -149.535828 1.469363 -1.059500
vt 0.789465 0.180435
vn 0.282691 0.604071 0.745107
v -149.759766 1.435616 -1.199436
vt 0.872968 0.166106
vn -0.857990 0.504054 -0.098908
# Faces (1 to 96)
g Rocks3_0
f -94/-94/-94 -95/-95/-95 -96/-96/-96
f -95/-95/-95 -93/-93/-93 -96/-96/-96
f -95/-95/-95 -92/-92/-92 -93/-93/-93
f -92/-92/-92 -91/-91/-91 -93/-93/-93
f -96/-96/-96 -93/-93/-93 -90/-90/-90
f -93/-93/-93 -89/-89/-89 -90/-90/-90
f -93/-93/-93 -91/-91/-91 -89/-89/-89
f -90/-90/-90 -89/-89/-89 -88/-88/-88
f -89/-89/-89 -87/-87/-87 -88/-88/-88
f -89/-89/-89 -86/-86/-86 -87/-87/-87
f -91/-91/-91 -86/-86/-86 -89/-89/-89
f -86/-86/-86 -85/-85/-85 -87/-87/-87
f -82/-82/-82 -83/-83/-83 -84/-84/-84
f -83/-83/-83 -81/-81/-81 -84/-84/-84
f -83/-83/-83 -80/-80/-80 -81/-81/-81
f -80/-80/-80 -79/-79/-79 -81/-81/-81
f -80/-80/-80 -78/-78/-78 -79/-79/-79
f -78/-78/-78 -80/-80/-80 -83/-83/-83
f -78/-78/-78 -77/-77/-77 -79/-79/-79
f -79/-79/-79 -77/-77/-77 -76/-76/-76
f -77/-77/-77 -75/-75/-75 -76/-76/-76
f -77/-77/-77 -74/-74/-74 -75/-75/-75
f -74/-74/-74 -73/-73/-73 -75/-75/-75
f -78/-78/-78 -72/-72/-72 -77/-77/-77
f -72/-72/-72 -74/-74/-74 -77/-77/-77
f -74/-74/-74 -71/-71/-71 -73/-73/-73
f -71/-71/-71 -70/-70/-70 -73/-73/-73
f -72/-72/-72 -69/-69/-69 -74/-74/-74
f -69/-69/-69 -71/-71/-71 -74/-74/-74
f -72/-72/-72 -78/-78/-78 -68/-68/-68
f -68/-68/-68 -78/-78/-78 -83/-83/-83
f -67/-67/-67 -72/-72/-72 -68/-68/-68
f -64/-64/-64 -65/-65/-65 -66/-66/-66
f -65/-65/-65 -63/-63/-63 -66/-66/-66
f -62/-62/-62 -65/-65/-65 -64/-64/-64
f -61/-61/-61 -62/-62/-62 -64/-64/-64
f -65/-65/-65 -60/-60/-60 -63/-63/-63
f -60/-60/-60 -59/-59/-59 -63/-63/-63
f -62/-62/-62 -58/-58/-58 -65/-65/-65
f -58/-58/-58 -60/-60/-60 -65/-65/-65
f -62/-62/-62 -61/-61/-61 -58/-58/-58
f -60/-60/-60 -57/-57/-57 -59/-59/-59
f -57/-57/-57 -56/-56/-56 -59/-59/-59
f -58/-58/-58 -55/-55/-55 -60/-60/-60
f -55/-55/-55 -57/-57/-57 -60/-60/-60
f -61/-61/-61 -54/-54/-54 -58/-58/-58
f -58/-58/-58 -54/-54/-54 -53/-53/-53
f -54/-54/-54 -51/-51/-51 -52/-52/-52
f -48/-48/-48 -49/-49/-49 -50/-50/-50
f -49/-49/-49 -47/-47/-47 -50/-50/-50
f -50/-50/-50 -47/-47/-47 -46/-46/-46
f -47/-47/-47 -45/-45/-45 -46/-46/-46
f -46/-46/-46 -45/-45/-45 -44/-44/-44
f -45/-45/-45 -43/-43/-43 -44/-44/-44
f -45/-45/-45 -42/-42/-42 -43/-43/-43
f -42/-42/-42 -41/-41/-41 -43/-43/-43
f -47/-47/-47 -40/-40/-40 -45/-45/-45
f -40/-40/-40 -42/-42/-42 -45/-45/-45
f -39/-39/-39 -40/-40/-40 -47/-47/-47
f -38/-38/-38 -39/-39/-39 -47/-47/-47
f -35/-35/-35 -36/-36/-36 -37/-37/-37
f -36/-36/-36 -34/-34/-34 -37/-37/-37
f -36/-36/-36 -33/-33/-33 -34/-34/-34
f -32/-32/-32 -33/-33/-33 -36/-36/-36
f -33/-33/-33 -32/-32/-32 -31/-31/-31
f -33/-33/-33 -31/-31/-31 -30/-30/-30
f -32/-32/-32 -29/-29/-29 -31/-31/-31
f -31/-31/-31 -29/-29/-29 -28/-28/-28
f -29/-29/-29 -27/-27/-27 -28/-28/-28
f -29/-29/-29 -26/-26/-26 -27/-27/-27
f -26/-26/-26 -25/-25/-25 -27/-27/-27
f -32/-32/-32 -24/-24/-24 -29/-29/-29
f -24/-24/-24 -26/-26/-26 -29/-29/-29
f -26/-26/-26 -23/-23/-23 -25/-25/-25
f -23/-23/-23 -22/-22/-22 -25/-25/-25
f -24/-24/-24 -21/-21/-21 -26/-26/-26
f -21/-21/-21 -23/-23/-23 -26/-26/-26
f -24/-24/-24 -32/-32/-32 -20/-20/-20
f -19/-19/-19 -24/-24/-24 -20/-20/-20
f -20/-20/-20 -32/-32/-32 -36/-36/-36
f -20/-20/-20 -36/-36/-36 -18/-18/-18
f -16/-16/-16 -20/-20/-20 -17/-17/-17
f -17/-17/-17 -20/-20/-20 -15/-15/-15
f -13/-13/-13 -14/-14/-14 -17/-17/-17
f -10/-10/-10 -11/-11/-11 -12/-12/-12
f -11/-11/-11 -9/-9/-9 -12/-12/-12
f -8/-8/-8 -11/-11/-11 -10/-10/-10
f -7/-7/-7 -8/-8/-8 -10/-10/-10
f -11/-11/-11 -6/-6/-6 -9/-9/-9
f -6/-6/-6 -5/-5/-5 -9/-9/-9
f -8/-8/-8 -4/-4/-4 -11/-11/-11
f -4/-4/-4 -6/-6/-6 -11/-11/-11
f -6/-6/-6 -3/-3/-3 -5/-5/-5
f -3/-3/-3 -2/-2/-2 -5/-5/-5
f -4/-4/-4 -1/-1/-1 -6/-6/-6
f -1/-1/-1 -3/-3/-3 -6/-6/-6

