# Mesh "RockLarge4" exported with Unity Assets Bundle Extractor; 79 vertices, 336 indices, 320 bits per vertex
g RockLarge4
# SubMesh 0
# Vertices
v 2.258483 -2.784684 3.256569
vt 0.299084 0.484936
vn 0.546968 0.326280 0.770952
v 2.883771 -1.202884 1.255600
vt 0.442459 0.542891
vn 0.936006 0.227713 0.268402
v 3.532430 -2.996767 1.613525
vt 0.444897 0.456344
vn 0.947741 0.178594 0.264370
v 1.922910 -1.030699 2.490601
vt 0.349979 0.552041
vn 0.512299 0.370504 0.774775
v 3.403514 -3.083566 0.231171
vt 0.549282 0.496799
vn 0.993825 0.100917 -0.046126
v 2.698995 -0.525179 -1.650948
vt 0.528974 0.614090
vn 0.808153 0.251214 -0.532711
v 2.815661 -0.191916 0.681648
vt 0.447252 0.580462
vn 0.916255 0.263281 0.301926
v 2.197446 -0.296731 1.827621
vt 0.393129 0.578964
vn 0.700614 0.355774 0.618519
v 1.884500 0.529062 1.832672
vt 0.390913 0.614856
vn 0.617178 0.407090 0.673326
v 2.315970 0.799464 0.596573
vt 0.435928 0.621161
vn 0.838106 0.437291 0.326121
v 2.621337 1.120279 -0.964218
vt 0.474733 0.641716
vn 0.833660 0.537709 -0.126016
v 2.948327 0.250928 -0.806694
vt 0.487274 0.621549
vn 0.963577 0.227337 -0.140842
v 1.065253 0.060471 2.214996
vt 0.349559 0.621565
vn 0.352771 0.335059 0.873664
v 1.520864 1.708000 -1.945999
vt 0.477380 0.675584
vn 0.438988 0.540021 -0.718100
v -1.078027 -1.012056 -2.306953
vt 0.545558 0.752173
vn -0.126260 0.200890 -0.971443
v 0.596742 1.600456 -2.047882
vt 0.479867 0.695250
vn 0.076163 0.437607 -0.895935
v 1.555934 2.453258 -0.129593
vt 0.440542 0.669901
vn 0.704302 0.704803 -0.084921
v 1.376176 2.566613 0.638794
vt 0.423883 0.671272
vn 0.728708 0.608331 0.314511
v 1.325152 1.733381 1.450859
vt 0.402790 0.656515
vn 0.556434 0.454838 0.695344
v -0.260715 3.002694 -0.548225
vt 0.439103 0.707330
vn -0.068715 0.881417 -0.467313
v 0.493674 3.113930 -0.327713
vt 0.436956 0.693618
vn 0.304931 0.885320 -0.351035
v 0.559655 3.363229 0.795456
vt 0.420200 0.691296
vn 0.361935 0.889891 0.277664
v -0.172145 3.380611 0.847153
vt 0.416209 0.702647
vn 0.014570 0.979185 0.202445
v -1.324365 2.972386 -0.084190
vt 0.427850 0.724503
vn -0.477996 0.838181 -0.262626
v -0.883193 3.385956 0.654678
vt 0.417369 0.714376
vn -0.313240 0.917138 0.246453
v -1.818713 -0.113775 -2.021240
vt 0.506444 0.762788
vn -0.288593 0.022775 -0.957181
v -0.850068 1.389997 -2.348221
vt 0.481550 0.727624
vn -0.211935 0.422738 -0.881122
v -2.444934 1.086013 -1.543335
vt 0.466426 0.762141
vn -0.715541 0.465212 -0.521132
v -3.384076 -0.480603 -1.324585
vt 0.479981 0.810813
vn -0.819351 0.217384 -0.530479
v -1.851335 2.086155 -1.064217
vt 0.448600 0.741609
vn -0.575261 0.694501 -0.432137
v -0.914409 2.535234 -1.250069
vt 0.451472 0.721566
vn -0.237530 0.755282 -0.610842
v -3.501521 -1.680699 -1.226685
vt 0.503909 0.846289
vn -0.839426 0.198215 -0.506039
v -3.714467 -2.779455 -1.342918
vt 0.522897 0.876912
vn -0.774714 0.393076 -0.495287
v -1.626790 -2.944565 -2.741417
vt 0.599597 0.809390
vn -0.409125 0.411097 -0.814626
v 0.801999 -2.129440 -2.776787
vt 0.589843 0.705621
vn 0.124098 0.438303 -0.890219
v -0.100614 -3.266144 -3.791786
vt 0.633718 0.720705
vn 0.027755 0.417500 -0.908253
v 3.774663 -3.385956 -2.063934
vt 0.632343 0.595275
vn 0.815369 0.223835 -0.533921
v 2.858983 -2.216651 -2.053917
vt 0.578664 0.633301
vn 0.562222 0.440174 -0.700109
v 1.065253 0.060471 2.214996
vt 0.349559 0.621565
vn 0.352771 0.335059 0.873664
v 0.016719 -1.340194 2.998795
vt 0.271288 0.640203
vn 0.057384 0.353617 0.933628
v -0.249719 0.136012 2.828674
vt 0.305191 0.674385
vn 0.106025 0.291363 0.950719
v 1.922910 -1.030699 2.490601
vt 0.349979 0.552041
vn 0.512299 0.370504 0.774775
v 2.258483 -2.784684 3.256569
vt 0.299084 0.484936
vn 0.546968 0.326280 0.770952
v -0.024295 -2.731893 3.791786
vt 0.212623 0.598730
vn 0.058593 0.466605 0.882523
v -2.606393 -2.738627 3.407936
vt 0.163342 0.754431
vn -0.488710 0.519654 0.700801
v -2.228995 -1.362427 2.758095
vt 0.218505 0.753284
vn -0.541788 0.326055 0.774696
v -1.585311 0.491920 2.475845
vt 0.313701 0.759416
vn -0.367926 0.301682 0.879556
v 0.544971 1.608211 1.903664
vt 0.381322 0.671946
vn 0.357034 0.448902 0.819154
v 1.884500 0.529062 1.832672
vt 0.390913 0.614856
vn 0.617178 0.407090 0.673326
v 2.197446 -0.296731 1.827621
vt 0.393129 0.578964
vn 0.700614 0.355774 0.618519
v 1.325152 1.733381 1.450859
vt 0.402790 0.656515
vn 0.556434 0.454838 0.695344
v -0.321666 1.774378 2.161057
vt 0.371195 0.698015
vn 0.113119 0.506156 0.854992
v -1.188418 2.149586 1.944633
vt 0.380932 0.721936
vn -0.267471 0.568879 0.777712
v -0.883193 3.385956 0.654678
vt 0.417369 0.714376
vn -0.313240 0.917138 0.246453
v -0.172145 3.380611 0.847153
vt 0.416209 0.702647
vn 0.014570 0.979185 0.202445
v -1.415542 2.885609 0.893044
vt 0.409131 0.725228
vn -0.584304 0.770658 0.254312
v -1.787732 2.699878 0.391113
vt 0.417969 0.733917
vn -0.667757 0.744304 -0.010572
v -2.114865 2.214856 1.225937
vt 0.398701 0.743216
vn -0.655651 0.575954 0.488261
v -2.508809 1.942607 0.521896
vt 0.413225 0.754589
vn -0.858222 0.508752 0.068014
v -2.516408 0.906613 1.068115
vt 0.392370 0.778682
vn -0.932679 0.257961 0.252123
v -2.275056 0.855431 1.961426
vt 0.358742 0.771341
vn -0.769661 0.283532 0.572042
v -2.768918 -0.202781 1.287109
vt 0.384046 0.818265
vn -0.858815 0.312493 0.405938
v -2.386775 -0.341119 2.011139
vt 0.347277 0.819593
vn -0.792007 0.259824 0.552464
v -1.324365 2.972386 -0.084190
vt 0.427850 0.724503
vn -0.477996 0.838181 -0.262626
v -2.320523 1.974030 -0.208847
vt 0.430328 0.751683
vn -0.844047 0.522665 -0.120025
v -2.738420 0.726627 0.082809
vt 0.425077 0.784741
vn -0.936809 0.333729 0.104946
v -3.280478 -0.700090 0.978683
vt 0.404910 0.841441
vn -0.917456 0.314422 0.243748
v -2.228995 -1.362427 2.758095
vt 0.309122 0.870430
vn -0.541788 0.326055 0.774696
v -2.606393 -2.738627 3.407936
vt 0.306182 0.909378
vn -0.488710 0.519654 0.700801
v -3.774663 -2.542791 0.825363
vt 0.415971 0.898325
vn -0.886977 0.424177 0.182609
v -3.714467 -2.779455 -1.342918
vt 0.522897 0.876912
vn -0.774714 0.393076 -0.495287
v -3.501521 -1.680699 -1.226685
vt 0.503909 0.846289
vn -0.839426 0.198215 -0.506039
v -2.791482 0.850352 -0.587669
vt 0.444343 0.778984
vn -0.903214 0.424832 -0.061009
v -3.184813 -0.303013 -0.526711
vt 0.454001 0.813215
vn -0.942137 0.334471 0.022514
v -2.444934 1.086013 -1.543335
vt 0.466426 0.762141
vn -0.715541 0.465212 -0.521132
v -3.384076 -0.480603 -1.324585
vt 0.479981 0.810813
vn -0.819351 0.217384 -0.530479
v -2.335458 1.827585 -0.562424
vt 0.438783 0.753703
vn -0.816973 0.547488 -0.181141
v -1.851335 2.086155 -1.064217
vt 0.448600 0.741609
vn -0.575261 0.694501 -0.432137
v 0.559655 3.363229 0.795456
vt 0.420200 0.691296
vn 0.361935 0.889891 0.277664
# Faces (1 to 79)
g RockLarge4_0
f -77/-77/-77 -78/-78/-78 -79/-79/-79
f -78/-78/-78 -76/-76/-76 -79/-79/-79
f -77/-77/-77 -75/-75/-75 -78/-78/-78
f -75/-75/-75 -74/-74/-74 -78/-78/-78
f -78/-78/-78 -73/-73/-73 -76/-76/-76
f -73/-73/-73 -72/-72/-72 -76/-76/-76
f -71/-71/-71 -72/-72/-72 -73/-73/-73
f -70/-70/-70 -71/-71/-71 -73/-73/-73
f -70/-70/-70 -73/-73/-73 -69/-69/-69
f -73/-73/-73 -68/-68/-68 -69/-69/-69
f -74/-74/-74 -68/-68/-68 -78/-78/-78
f -68/-68/-68 -73/-73/-73 -78/-78/-78
f -69/-69/-69 -68/-68/-68 -74/-74/-74
f -76/-76/-76 -72/-72/-72 -67/-67/-67
f -66/-66/-66 -69/-69/-69 -74/-74/-74
f -66/-66/-66 -74/-74/-74 -65/-65/-65
f -64/-64/-64 -66/-66/-66 -65/-65/-65
f -70/-70/-70 -69/-69/-69 -63/-63/-63
f -62/-62/-62 -70/-70/-70 -63/-63/-63
f -70/-70/-70 -62/-62/-62 -71/-71/-71
f -62/-62/-62 -61/-61/-61 -71/-71/-71
f -64/-64/-64 -60/-60/-60 -66/-66/-66
f -60/-60/-60 -59/-59/-59 -66/-66/-66
f -66/-66/-66 -59/-59/-59 -69/-69/-69
f -59/-59/-59 -63/-63/-63 -69/-69/-69
f -62/-62/-62 -63/-63/-63 -59/-59/-59
f -61/-61/-61 -62/-62/-62 -58/-58/-58
f -58/-58/-58 -62/-62/-62 -59/-59/-59
f -60/-60/-60 -57/-57/-57 -59/-59/-59
f -57/-57/-57 -58/-58/-58 -59/-59/-59
f -60/-60/-60 -56/-56/-56 -57/-57/-57
f -56/-56/-56 -55/-55/-55 -57/-57/-57
f -65/-65/-65 -54/-54/-54 -64/-64/-64
f -54/-54/-54 -53/-53/-53 -64/-64/-64
f -64/-64/-64 -53/-53/-53 -60/-60/-60
f -53/-53/-53 -54/-54/-54 -52/-52/-52
f -54/-54/-54 -51/-51/-51 -52/-52/-52
f -51/-51/-51 -54/-54/-54 -65/-65/-65
f -53/-53/-53 -52/-52/-52 -50/-50/-50
f -49/-49/-49 -53/-53/-53 -50/-50/-50
f -60/-60/-60 -49/-49/-49 -56/-56/-56
f -49/-49/-49 -50/-50/-50 -56/-56/-56
f -53/-53/-53 -49/-49/-49 -60/-60/-60
f -48/-48/-48 -51/-51/-51 -65/-65/-65
f -47/-47/-47 -48/-48/-48 -65/-65/-65
f -46/-46/-46 -47/-47/-47 -65/-65/-65
f -65/-65/-65 -45/-45/-45 -46/-46/-46
f -45/-45/-45 -44/-44/-44 -46/-46/-46
f -44/-44/-44 -45/-45/-45 -43/-43/-43
f -45/-45/-45 -42/-42/-42 -43/-43/-43
f -42/-42/-42 -45/-45/-45 -65/-65/-65
f -74/-74/-74 -42/-42/-42 -65/-65/-65
f -43/-43/-43 -42/-42/-42 -74/-74/-74
f -75/-75/-75 -43/-43/-43 -74/-74/-74
f -39/-39/-39 -40/-40/-40 -41/-41/-41
f -40/-40/-40 -38/-38/-38 -41/-41/-41
f -37/-37/-37 -38/-38/-38 -40/-40/-40
f -36/-36/-36 -37/-37/-37 -40/-40/-40
f -36/-36/-36 -40/-40/-40 -35/-35/-35
f -40/-40/-40 -34/-34/-34 -35/-35/-35
f -39/-39/-39 -33/-33/-33 -40/-40/-40
f -33/-33/-33 -34/-34/-34 -40/-40/-40
f -39/-39/-39 -41/-41/-41 -32/-32/-32
f -41/-41/-41 -31/-31/-31 -32/-32/-32
f -30/-30/-30 -31/-31/-31 -41/-41/-41
f -31/-31/-31 -29/-29/-29 -32/-32/-32
f -28/-28/-28 -39/-39/-39 -32/-32/-32
f -39/-39/-39 -28/-28/-28 -33/-33/-33
f -28/-28/-28 -27/-27/-27 -33/-33/-33
f -26/-26/-26 -27/-27/-27 -28/-28/-28
f -25/-25/-25 -26/-26/-26 -28/-28/-28
f -25/-25/-25 -28/-28/-28 -32/-32/-32
f -26/-26/-26 -24/-24/-24 -27/-27/-27
f -23/-23/-23 -24/-24/-24 -26/-26/-26
f -22/-22/-22 -24/-24/-24 -23/-23/-23
f -27/-27/-27 -22/-22/-22 -33/-33/-33
f -24/-24/-24 -22/-22/-22 -27/-27/-27
f -21/-21/-21 -22/-22/-22 -23/-23/-23
f -21/-21/-21 -20/-20/-20 -22/-22/-22
f -20/-20/-20 -19/-19/-19 -22/-22/-22
f -22/-22/-22 -19/-19/-19 -33/-33/-33
f -20/-20/-20 -18/-18/-18 -19/-19/-19
f -18/-18/-18 -17/-17/-17 -19/-19/-19
f -21/-21/-21 -23/-23/-23 -16/-16/-16
f -16/-16/-16 -23/-23/-23 -26/-26/-26
f -15/-15/-15 -21/-21/-21 -16/-16/-16
f -20/-20/-20 -21/-21/-21 -15/-15/-15
f -18/-18/-18 -20/-20/-20 -14/-14/-14
f -14/-14/-14 -20/-20/-20 -15/-15/-15
f -13/-13/-13 -18/-18/-18 -14/-14/-14
f -17/-17/-17 -18/-18/-18 -13/-13/-13
f -12/-12/-12 -17/-17/-17 -13/-13/-13
f -19/-19/-19 -17/-17/-17 -12/-12/-12
f -11/-11/-11 -12/-12/-12 -13/-13/-13
f -10/-10/-10 -11/-11/-11 -13/-13/-13
f -10/-10/-10 -13/-13/-13 -9/-9/-9
f -13/-13/-13 -8/-8/-8 -9/-9/-9
f -33/-33/-33 -19/-19/-19 -12/-12/-12
f -14/-14/-14 -7/-7/-7 -13/-13/-13
f -7/-7/-7 -6/-6/-6 -13/-13/-13
f -13/-13/-13 -6/-6/-6 -8/-8/-8
f -7/-7/-7 -5/-5/-5 -6/-6/-6
f -5/-5/-5 -4/-4/-4 -6/-6/-6
f -6/-6/-6 -4/-4/-4 -8/-8/-8
f -7/-7/-7 -3/-3/-3 -5/-5/-5
f -15/-15/-15 -3/-3/-3 -14/-14/-14
f -3/-3/-3 -7/-7/-7 -14/-14/-14
f -3/-3/-3 -2/-2/-2 -5/-5/-5
f -16/-16/-16 -2/-2/-2 -15/-15/-15
f -2/-2/-2 -3/-3/-3 -15/-15/-15
f -32/-32/-32 -29/-29/-29 -1/-1/-1
f -1/-1/-1 -25/-25/-25 -32/-32/-32

