# Mesh "RockLarge1" exported with Unity Assets Bundle Extractor; 67 vertices, 252 indices, 320 bits per vertex
g RockLarge1
# SubMesh 0
# Vertices
v 1.227882 -2.761258 -3.102776
vt 0.110647 0.681899
vn 0.247010 0.166958 -0.954521
v -0.709846 0.113901 -2.794991
vt 0.245078 0.695732
vn -0.425500 -0.033770 -0.904328
v -0.733543 -2.844564 -3.072472
vt 0.167025 0.634833
vn -0.431506 0.123536 -0.893612
v 1.018341 0.298286 -2.606133
vt 0.186894 0.737638
vn 0.374552 0.202213 -0.904887
v 2.936104 -1.016242 -1.518578
vt 0.168558 0.827320
vn 0.825512 0.218936 -0.520189
v 1.249786 1.379348 -1.964653
vt 0.220034 0.762748
vn 0.494006 0.415915 -0.763527
v 2.082428 1.597646 -1.410332
vt 0.222276 0.786708
vn 0.694295 0.399407 -0.598689
v 3.086472 -3.298218 -2.233818
vt 0.094213 0.757469
vn 0.828308 0.191176 -0.526648
v -1.438782 -2.914290 -2.176735
vt 0.268939 0.617553
vn -0.661011 0.177758 -0.729017
v -1.967194 0.323406 -1.029366
vt 0.327701 0.709498
vn -0.959517 0.211829 -0.185621
v 3.059418 -0.445789 0.539360
vt 0.222335 0.855421
vn 0.992400 0.111392 0.052294
v 3.307854 -3.129864 0.420647
vt 0.237154 0.929598
vn 0.978950 0.095633 0.180306
v 3.086472 -3.298218 -2.233818
vt 0.141096 0.906959
vn 0.828308 0.191176 -0.526648
v 2.421043 2.033898 -0.498558
vt 0.239078 0.800948
vn 0.866656 0.388547 -0.312952
v 2.361519 -0.227383 2.217857
vt 0.294494 0.867583
vn 0.637213 0.093717 0.764968
v 2.428894 -3.192713 2.431831
vt 0.327250 0.940401
vn 0.633761 0.046017 0.772159
v 0.257706 -3.613611 2.936089
vt 0.405685 0.894165
vn -0.246596 0.099747 0.963971
v 0.393921 -1.462937 3.015434
vt 0.357247 0.861257
vn -0.198715 -0.107015 0.974197
v 0.330040 1.757731 -2.298225
vt 0.239695 0.748493
vn 0.438432 0.538311 -0.719721
v 0.116806 1.417520 -2.689232
vt 0.237079 0.737376
vn 0.369496 0.379294 -0.848298
v -0.309631 2.545387 -1.910561
vt 0.261498 0.751827
vn 0.077061 0.796097 -0.600243
v -0.761696 1.649283 -2.475075
vt 0.259912 0.732297
vn -0.166793 0.445737 -0.879488
v -0.913734 2.580493 -1.446831
vt 0.275472 0.750149
vn -0.484766 0.866934 -0.115877
v -1.415131 1.706551 -1.778755
vt 0.284494 0.732016
vn -0.830363 0.517636 -0.206277
v 0.478615 3.230496 -1.340508
vt 0.260334 0.769629
vn 0.089706 0.755280 -0.649234
v 1.078407 3.496151 -0.681679
vt 0.261751 0.782077
vn 0.166150 0.733060 -0.659558
v 1.283852 3.694690 0.210793
vt 0.267611 0.791476
vn 0.424365 0.752201 -0.504091
v 1.577805 3.603380 0.719398
vt 0.268805 0.797589
vn 0.735843 0.674961 -0.054419
v 2.283691 2.781446 0.697212
vt 0.259647 0.807254
vn 0.909382 0.415185 0.025413
v 1.356682 3.375170 1.116280
vt 0.273451 0.799901
vn 0.588119 0.686157 0.428141
v 1.950104 2.855942 1.487770
vt 0.270566 0.809798
vn 0.636468 0.412486 0.651739
v 2.809807 1.287696 1.826256
vt 0.264972 0.838267
vn 0.812974 0.231822 0.534164
v 2.839531 1.260536 1.176308
vt 0.252328 0.836888
vn 0.970577 0.206442 0.123945
v 0.638931 3.299614 1.097145
vt 0.280705 0.794585
vn -0.090713 0.956648 0.276761
v 1.312599 2.447184 1.745430
vt 0.280993 0.811226
vn 0.352105 0.402445 0.845021
v 1.419708 0.762420 2.785728
vt 0.300877 0.837777
vn 0.397629 0.202668 0.894884
v 0.768066 2.481052 2.161720
vt 0.291078 0.809370
vn 0.312491 0.428902 0.847580
v 0.358658 0.421464 3.102776
vt 0.326116 0.829545
vn -0.180765 0.037649 0.982805
v 0.003510 2.993351 1.965157
vt 0.293047 0.798347
vn -0.284639 0.537059 0.794070
v 1.078407 3.496151 -0.681679
vt 0.261751 0.782077
vn 0.166150 0.733060 -0.659558
v 0.638931 3.299614 1.097145
vt 0.280705 0.794585
vn -0.090713 0.956648 0.276761
v -0.431435 3.054248 0.390938
vt 0.287189 0.777288
vn -0.745030 0.632312 -0.212394
v 1.283852 3.694690 0.210793
vt 0.267611 0.791476
vn 0.424365 0.752201 -0.504091
v 1.356682 3.375170 1.116280
vt 0.273451 0.799901
vn 0.588119 0.686157 0.428141
v 1.577805 3.603380 0.719398
vt 0.268805 0.797589
vn 0.735843 0.674961 -0.054419
v -0.692513 3.166980 -0.576469
vt 0.278564 0.765872
vn -0.669584 0.742054 -0.031838
v -1.967194 0.323406 -1.029366
vt 0.327701 0.709498
vn -0.959517 0.211829 -0.185621
v -1.597412 -0.650975 0.756371
vt 0.383317 0.768799
vn -0.891438 0.124659 0.435658
v -1.415131 1.706551 -1.778755
vt 0.284494 0.732016
vn -0.830363 0.517636 -0.206277
v -0.913734 2.580493 -1.446831
vt 0.275472 0.750149
vn -0.484766 0.866934 -0.115877
v -0.309631 2.545387 -1.910561
vt 0.261498 0.751827
vn 0.077061 0.796097 -0.600243
v 0.478615 3.230496 -1.340508
vt 0.260334 0.769629
vn 0.089706 0.755280 -0.649234
v -0.793236 2.971985 1.434151
vt 0.297141 0.788944
vn -0.849916 0.433498 0.299539
v 0.003510 2.993351 1.965157
vt 0.293047 0.798347
vn -0.284639 0.537059 0.794070
v -1.560379 0.539891 2.304573
vt 0.340835 0.795802
vn -0.840665 0.034844 0.540434
v 0.358658 0.421464 3.102776
vt 0.326116 0.829545
vn -0.180765 0.037649 0.982805
v 0.393921 -1.462937 3.015434
vt 0.357247 0.861257
vn -0.198715 -0.107015 0.974197
v 0.257706 -3.613611 2.936089
vt 0.405685 0.894165
vn -0.246596 0.099747 0.963971
v -1.489594 -3.146284 1.251213
vt 0.435081 0.782598
vn -0.594792 0.194344 0.780034
v -2.180763 -1.860996 0.131432
vt 0.412570 0.712331
vn -0.848537 0.346679 0.399749
v -3.005142 -3.694690 0.723259
vt 0.460128 0.693895
vn -0.766229 0.340845 0.544718
v -3.307854 -3.066121 -1.637093
vt 0.373920 0.629996
vn -0.847438 0.376874 -0.373918
v -2.214348 -1.699504 -0.863579
vt 0.359731 0.679928
vn -0.908190 0.405502 -0.103723
v -1.597412 -0.650975 0.756371
vt 0.383317 0.768799
vn -0.891438 0.124659 0.435658
v -1.560379 0.539891 2.304573
vt 0.340835 0.795802
vn -0.840665 0.034844 0.540434
v 0.358658 0.421464 3.102776
vt 0.326116 0.829545
vn -0.180765 0.037649 0.982805
v -3.307854 -3.066121 -1.637093
vt 0.373920 0.629996
vn -0.847438 0.376874 -0.373918
# Faces (1 to 67)
g RockLarge1_0
f -65/-65/-65 -66/-66/-66 -67/-67/-67
f -66/-66/-66 -64/-64/-64 -67/-67/-67
f -67/-67/-67 -64/-64/-64 -63/-63/-63
f -64/-64/-64 -62/-62/-62 -63/-63/-63
f -62/-62/-62 -61/-61/-61 -63/-63/-63
f -60/-60/-60 -67/-67/-67 -63/-63/-63
f -65/-65/-65 -59/-59/-59 -66/-66/-66
f -59/-59/-59 -58/-58/-58 -66/-66/-66
f -63/-63/-63 -61/-61/-61 -57/-57/-57
f -63/-63/-63 -57/-57/-57 -56/-56/-56
f -55/-55/-55 -63/-63/-63 -56/-56/-56
f -61/-61/-61 -54/-54/-54 -57/-57/-57
f -56/-56/-56 -57/-57/-57 -53/-53/-53
f -52/-52/-52 -56/-56/-56 -53/-53/-53
f -52/-52/-52 -53/-53/-53 -51/-51/-51
f -53/-53/-53 -50/-50/-50 -51/-51/-51
f -49/-49/-49 -62/-62/-62 -64/-64/-64
f -48/-48/-48 -49/-49/-49 -64/-64/-64
f -47/-47/-47 -49/-49/-49 -48/-48/-48
f -46/-46/-46 -47/-47/-47 -48/-48/-48
f -45/-45/-45 -47/-47/-47 -46/-46/-46
f -44/-44/-44 -45/-45/-45 -46/-46/-46
f -46/-46/-46 -48/-48/-48 -64/-64/-64
f -66/-66/-66 -46/-46/-46 -64/-64/-64
f -44/-44/-44 -46/-46/-46 -66/-66/-66
f -58/-58/-58 -44/-44/-44 -66/-66/-66
f -49/-49/-49 -47/-47/-47 -43/-43/-43
f -62/-62/-62 -49/-49/-49 -43/-43/-43
f -43/-43/-43 -42/-42/-42 -62/-62/-62
f -42/-42/-42 -61/-61/-61 -62/-62/-62
f -42/-42/-42 -41/-41/-41 -61/-61/-61
f -41/-41/-41 -54/-54/-54 -61/-61/-61
f -41/-41/-41 -40/-40/-40 -54/-54/-54
f -40/-40/-40 -39/-39/-39 -54/-54/-54
f -39/-39/-39 -40/-40/-40 -38/-38/-38
f -37/-37/-37 -39/-39/-39 -38/-38/-38
f -39/-39/-39 -37/-37/-37 -36/-36/-36
f -35/-35/-35 -39/-39/-39 -36/-36/-36
f -54/-54/-54 -39/-39/-39 -35/-35/-35
f -37/-37/-37 -38/-38/-38 -34/-34/-34
f -33/-33/-33 -37/-37/-37 -34/-34/-34
f -37/-37/-37 -33/-33/-33 -36/-36/-36
f -35/-35/-35 -36/-36/-36 -53/-53/-53
f -33/-33/-33 -53/-53/-53 -36/-36/-36
f -57/-57/-57 -35/-35/-35 -53/-53/-53
f -57/-57/-57 -54/-54/-54 -35/-35/-35
f -53/-53/-53 -33/-33/-33 -32/-32/-32
f -33/-33/-33 -31/-31/-31 -32/-32/-32
f -32/-32/-32 -31/-31/-31 -30/-30/-30
f -31/-31/-31 -29/-29/-29 -30/-30/-30
f -34/-34/-34 -29/-29/-29 -33/-33/-33
f -29/-29/-29 -31/-31/-31 -33/-33/-33
f -53/-53/-53 -32/-32/-32 -50/-50/-50
f -32/-32/-32 -30/-30/-30 -50/-50/-50
f -26/-26/-26 -27/-27/-27 -28/-28/-28
f -27/-27/-27 -25/-25/-25 -28/-28/-28
f -27/-27/-27 -24/-24/-24 -25/-25/-25
f -24/-24/-24 -23/-23/-23 -25/-25/-25
f -26/-26/-26 -28/-28/-28 -22/-22/-22
f -26/-26/-26 -22/-22/-22 -21/-21/-21
f -20/-20/-20 -26/-26/-26 -21/-21/-21
f -21/-21/-21 -22/-22/-22 -19/-19/-19
f -22/-22/-22 -18/-18/-18 -19/-19/-19
f -17/-17/-17 -18/-18/-18 -22/-22/-22
f -16/-16/-16 -17/-17/-17 -22/-22/-22
f -28/-28/-28 -16/-16/-16 -22/-22/-22
f -26/-26/-26 -15/-15/-15 -27/-27/-27
f -15/-15/-15 -14/-14/-14 -27/-27/-27
f -14/-14/-14 -15/-15/-15 -13/-13/-13
f -15/-15/-15 -26/-26/-26 -13/-13/-13
f -26/-26/-26 -20/-20/-20 -13/-13/-13
f -12/-12/-12 -14/-14/-14 -13/-13/-13
f -11/-11/-11 -12/-12/-12 -20/-20/-20
f -10/-10/-10 -11/-11/-11 -20/-20/-20
f -9/-9/-9 -10/-10/-10 -20/-20/-20
f -20/-20/-20 -8/-8/-8 -9/-9/-9
f -8/-8/-8 -7/-7/-7 -9/-9/-9
f -7/-7/-7 -8/-8/-8 -6/-6/-6
f -8/-8/-8 -5/-5/-5 -6/-6/-6
f -5/-5/-5 -8/-8/-8 -20/-20/-20
f -21/-21/-21 -5/-5/-5 -20/-20/-20
f -6/-6/-6 -5/-5/-5 -21/-21/-21
f -2/-2/-2 -3/-3/-3 -4/-4/-4
f -59/-59/-59 -1/-1/-1 -58/-58/-58

