# Mesh "RockLarge8" exported with Unity Assets Bundle Extractor; 169 vertices, 666 indices, 320 bits per vertex
g RockLarge8
# SubMesh 0
# Vertices
v 1.136131 -0.879250 -3.218943
vt 0.270120 0.612236
vn -0.580828 0.135350 -0.802695
v 0.188911 0.703242 -2.139681
vt 0.410771 0.679543
vn -0.967560 -0.213732 -0.134711
v 0.304379 -0.855494 -2.037935
vt 0.439514 0.599933
vn -0.983321 0.048655 -0.175251
v 1.028381 0.599256 -3.181345
vt 0.335459 0.692150
vn -0.549472 -0.094851 -0.830111
v 2.933556 -0.014102 -3.445787
vt 0.221677 0.745653
vn -0.084986 -0.022227 -0.996134
v 1.404484 1.682685 -3.385561
vt 0.353953 0.739882
vn -0.366657 -0.026565 -0.929977
v 2.824360 1.285559 -3.852785
vt 0.308940 0.795744
vn -0.094288 -0.073078 -0.992859
v 2.853733 -0.952917 -3.695459
vt 0.163959 0.685957
vn -0.099802 0.342307 -0.934273
v 0.497257 -0.906246 -1.067225
vt 0.485230 0.619231
vn -0.971904 0.130821 0.195674
v 1.057770 0.972785 0.477201
vt 0.487005 0.724942
vn -0.685961 0.093018 0.721668
v 0.332245 1.653587 -2.807016
vt 0.385896 0.716401
vn -0.784917 -0.120902 -0.607691
v 0.245728 2.555919 -2.891634
vt 0.392866 0.734320
vn -0.718766 0.108316 -0.686763
v -0.237423 1.945656 -1.575708
vt 0.417378 0.718381
vn -0.972687 -0.212998 -0.092260
v -0.241100 3.036528 -1.649134
vt 0.415233 0.736389
vn -0.965351 0.222774 -0.135903
v -0.007618 3.121814 -0.332132
vt 0.432858 0.742170
vn -0.760387 0.398246 0.513041
v 0.058918 2.167041 -0.268167
vt 0.442524 0.731884
vn -0.855908 -0.162101 0.491064
v 0.450768 4.153999 -1.109407
vt 0.420171 0.752315
vn -0.379189 0.875333 0.300012
v 0.546284 4.219703 -1.868410
vt 0.412030 0.753375
vn -0.492035 0.834663 -0.247466
v 0.504807 3.594135 -2.697046
vt 0.400430 0.748991
vn -0.486263 0.499605 -0.716898
v 1.438877 3.090850 -3.360178
vt 0.382268 0.759190
vn -0.176291 0.496436 -0.849984
v 2.525375 2.791791 -3.689287
vt 0.367731 0.780781
vn 0.047340 0.512774 -0.857217
v 4.252113 1.299906 -3.638262
vt 0.349964 0.839863
vn 0.278075 0.054791 -0.958996
v 2.933556 -0.014102 -3.445787
vt 0.276912 0.852050
vn -0.084986 -0.022227 -0.996134
v 5.075378 -0.059940 -3.384119
vt 0.354612 0.900063
vn 0.484472 0.028765 -0.874334
v 5.098373 -0.924241 -3.558252
vt 0.341160 0.934358
vn 0.461681 0.379714 -0.801665
v 2.853733 -0.952917 -3.695459
vt 0.253103 0.887592
vn -0.099802 0.342307 -0.934273
v 3.635975 2.659408 -3.596544
vt 0.370071 0.805289
vn 0.308435 0.573279 -0.759091
v 4.984589 1.541197 -3.342340
vt 0.374087 0.848655
vn 0.677965 0.251404 -0.690767
v 4.657272 2.492557 -3.100016
vt 0.385203 0.826929
vn 0.561309 0.626815 -0.540403
v 5.290916 -1.602183 -3.939089
vt 0.330146 0.967656
vn 0.401658 0.591671 -0.698996
v 3.007145 -1.743377 -4.328878
vt 0.236214 0.929133
vn -0.128818 0.496477 -0.858438
v 2.578773 3.760419 -2.358561
vt 0.401702 0.780021
vn 0.277386 0.915573 -0.291176
v 4.077362 3.257786 -1.802347
vt 0.412233 0.807149
vn 0.439860 0.888223 -0.132606
v 2.663174 3.717316 -0.819849
vt 0.427403 0.779890
vn 0.301544 0.919968 0.250459
v 3.553299 3.400554 -2.443178
vt 0.399589 0.798271
vn 0.356389 0.875653 -0.325911
v 2.525375 2.791791 -3.689287
vt 0.367731 0.780781
vn 0.047340 0.512774 -0.857217
v 3.635975 2.659408 -3.596544
vt 0.370071 0.805289
vn 0.308435 0.573279 -0.759091
v 4.170372 2.921519 -2.573450
vt 0.396119 0.813029
vn 0.449879 0.817333 -0.359966
v 4.657272 2.492557 -3.100016
vt 0.385203 0.826929
vn 0.561309 0.626815 -0.540403
v 4.500504 2.933803 -2.291605
vt 0.403517 0.818127
vn 0.499557 0.820522 -0.277825
v 4.972992 2.502300 -2.451250
vt 0.400823 0.831334
vn 0.709762 0.643221 -0.287236
v 5.354713 1.605848 -2.484056
vt 0.399080 0.853854
vn 0.859204 0.377881 -0.344928
v 4.984589 1.541197 -3.342340
vt 0.374087 0.848655
vn 0.677965 0.251404 -0.690767
v 5.640388 0.817195 -2.545420
vt 0.397415 0.877439
vn 0.832688 0.278103 -0.478842
v 5.303772 0.650124 -3.081858
vt 0.375388 0.878888
vn 0.725330 0.138272 -0.674371
v 5.022217 2.709755 -1.659220
vt 0.418113 0.827267
vn 0.729461 0.662738 -0.169310
v 5.508972 1.694032 -1.625238
vt 0.422114 0.851400
vn 0.884322 0.427824 -0.186923
v 6.066544 0.545222 -2.158525
vt 0.414020 0.888776
vn 0.953800 0.208342 -0.216471
v 5.075378 -0.059940 -3.384119
vt 0.354612 0.900063
vn 0.484472 0.028765 -0.874334
v 5.098373 -0.924241 -3.558252
vt 0.341160 0.934358
vn 0.461681 0.379714 -0.801665
v 6.146774 -0.618073 -1.708223
vt 0.434085 0.927958
vn 0.908728 0.361062 -0.209398
v 5.886795 -0.695434 0.000891
vt 0.503349 0.903231
vn 0.729473 0.506921 0.459240
v 5.812439 0.095563 -0.036692
vt 0.485488 0.879057
vn 0.786731 0.177939 0.591094
v 5.550491 1.926637 -0.977533
vt 0.437069 0.843626
vn 0.890661 0.452304 0.046295
v 5.860016 1.029474 -0.724710
vt 0.451869 0.862777
vn 0.948227 0.280771 0.148436
v 5.256401 2.234763 -0.220018
vt 0.449880 0.830013
vn 0.684697 0.530305 0.499966
v 5.577782 0.944391 -0.005663
vt 0.470856 0.854525
vn 0.735287 0.201886 0.646990
v 5.061562 2.714303 -1.311655
vt 0.425274 0.826707
vn 0.749519 0.659004 -0.062725
v 4.728149 3.003665 -0.917147
vt 0.431125 0.817322
vn 0.538915 0.833924 0.118916
v 3.794407 2.622857 0.324781
vt 0.456272 0.800214
vn 0.279410 0.533630 0.798229
v 3.716022 3.449084 -0.646425
vt 0.432505 0.797673
vn 0.309477 0.873494 0.375808
v 2.157566 2.889352 0.369589
vt 0.450966 0.767617
vn 0.113238 0.493204 0.862512
v 1.148464 3.136558 0.348951
vt 0.443503 0.754440
vn -0.156453 0.472984 0.867069
v 1.669613 4.077356 -0.786867
vt 0.425259 0.765392
vn 0.113029 0.920846 0.373185
v -0.007618 3.121814 -0.332132
vt 0.432858 0.742170
vn -0.760387 0.398246 0.513041
v 0.450768 4.153999 -1.109407
vt 0.420171 0.752315
vn -0.379189 0.875333 0.300012
v 0.546284 4.219703 -1.868410
vt 0.412030 0.753375
vn -0.492035 0.834663 -0.247466
v 1.648567 4.240418 -2.084948
vt 0.408422 0.765705
vn 0.123577 0.951321 -0.282342
v 0.504807 3.594135 -2.697046
vt 0.400430 0.748991
vn -0.486263 0.499605 -0.716898
v 1.438877 3.090850 -3.360178
vt 0.382268 0.759190
vn -0.176291 0.496436 -0.849984
v 5.256401 2.234763 -0.220018
vt 0.449880 0.830013
vn 0.684697 0.530305 0.499966
v 4.471115 1.248965 0.422064
vt 0.483689 0.821044
vn 0.286869 0.154292 0.945463
v 3.794407 2.622857 0.324781
vt 0.456272 0.800214
vn 0.279410 0.533630 0.798229
v 5.577782 0.944391 -0.005663
vt 0.470856 0.854525
vn 0.735287 0.201886 0.646990
v 2.157566 2.889352 0.369589
vt 0.450966 0.767617
vn 0.113238 0.493204 0.862512
v 3.866528 0.473722 0.666906
vt 0.512834 0.809543
vn 0.182414 0.312725 0.932163
v 1.148464 3.136558 0.348951
vt 0.443503 0.754440
vn -0.156453 0.472984 0.867069
v 1.057770 0.972785 0.477201
vt 0.487005 0.724942
vn -0.685961 0.093018 0.721668
v -0.007618 3.121814 -0.332132
vt 0.432858 0.742170
vn -0.760387 0.398246 0.513041
v 0.058918 2.167041 -0.268167
vt 0.442524 0.731884
vn -0.855908 -0.162101 0.491064
v 5.812439 0.095563 -0.036692
vt 0.485488 0.879057
vn 0.786731 0.177939 0.591094
v 5.886795 -0.695434 0.000891
vt 0.503349 0.903231
vn 0.729473 0.506921 0.459240
v 4.478661 -0.744661 1.142790
vt 0.553094 0.845392
vn 0.421345 0.618286 0.663469
v 4.796158 -1.473250 1.745687
vt 0.590243 0.866824
vn 0.454126 0.693324 0.559528
v 6.442963 -1.430760 0.448668
vt 0.532749 0.935705
vn 0.626177 0.684118 0.374013
v 2.937302 -0.346045 1.374197
vt 0.554155 0.777106
vn -0.060500 0.573306 0.817105
v 3.524616 -0.880109 2.066877
vt 0.592303 0.803458
vn 0.026522 0.688692 0.724569
v 0.316051 -1.035275 0.736647
vt 0.558601 0.657569
vn -0.728347 0.451138 0.515737
v 1.198952 -0.396862 0.691381
vt 0.534205 0.699765
vn -0.498773 0.500206 0.707827
v 0.593056 -1.754366 1.473166
vt 0.607366 0.663666
vn -0.797053 0.385200 0.465109
v 3.735531 -1.500024 2.774000
vt 0.633613 0.815864
vn 0.078784 0.732738 0.675935
v 6.442963 -1.430760 0.448668
vt 0.532749 0.935705
vn 0.626177 0.684118 0.374013
v 6.834396 -1.468525 -1.749483
vt 0.445356 0.973412
vn 0.765344 0.615829 -0.187092
v 5.290916 -1.602183 -3.939089
vt 0.330146 0.967656
vn 0.401658 0.591671 -0.698996
v 3.007145 -1.743377 -4.328878
vt 0.089359 0.634012
vn -0.128818 0.496477 -0.858438
v 1.083691 -1.826640 -3.400385
vt 0.247996 0.530068
vn -0.623229 0.242095 -0.743623
v 0.166950 -1.858997 -1.792986
vt 0.462476 0.520207
vn -0.976086 0.130709 -0.173699
v 0.300846 -1.845711 -1.204477
vt 0.508242 0.558387
vn -0.990728 0.069601 0.116675
v 0.593056 -1.754366 1.473166
vt 0.607366 0.663666
vn -0.797053 0.385200 0.465109
v 0.316051 -1.035275 0.736647
vt 0.558601 0.657569
vn -0.728347 0.451138 0.515737
v 1.298706 -1.485234 -2.122019
vt 0.752184 0.923472
vn 0.794072 -0.060445 -0.604811
v 1.530548 0.283301 -0.380854
vt 0.789014 0.895535
vn 0.873145 0.462284 -0.154634
v 0.588242 -0.148431 -2.352190
vt 0.748440 0.895424
vn 0.679425 0.333072 -0.653792
v 1.737514 -0.866040 -0.299677
vt 0.791269 0.918475
vn 0.965196 0.218104 -0.144317
v -1.102631 -0.554185 -3.494005
vt 0.712542 0.885539
vn 0.261100 0.096787 -0.960447
v 1.095558 0.136741 1.393499
vt 0.825312 0.888510
vn 0.870477 0.433787 0.232591
v 1.900642 -1.471120 1.352079
vt 0.835334 0.933963
vn 0.957360 0.231682 0.172583
v 0.404503 -1.472062 3.420012
vt 0.898587 0.887269
vn 0.568850 0.354180 0.742271
v 0.308266 0.890224 3.031660
vt 0.847422 0.854973
vn 0.601138 0.468967 0.647073
v 1.644325 -2.731393 -0.986673
vt 0.763471 0.959908
vn 0.814377 -0.171973 -0.554270
v -1.451801 1.295985 -2.854937
vt 0.727881 0.853115
vn 0.247772 0.458749 -0.853322
v -0.614689 1.822036 -1.948877
vt 0.751561 0.854674
vn 0.569159 0.595742 -0.566701
v 0.429375 1.411876 -0.748980
vt 0.777164 0.868556
vn 0.752165 0.630472 -0.191711
v 0.271225 1.759646 0.625799
vt 0.799768 0.857606
vn 0.745752 0.666221 0.001600
v -0.391247 2.454154 1.617643
vt 0.811332 0.836549
vn 0.558290 0.784467 0.270042
v -2.797272 2.094804 -2.609797
vt 0.718848 0.821797
vn -0.023052 0.524448 -0.851130
v -1.338081 2.952435 -1.346277
vt 0.758320 0.832328
vn 0.430989 0.797659 -0.421888
v -2.060001 3.460698 -0.598063
vt 0.766357 0.816290
vn 0.322558 0.888485 -0.326420
v -3.218254 3.932235 -0.590464
vt 0.762567 0.798122
vn 0.180564 0.969143 -0.167805
v -4.472839 3.581246 -1.133051
vt 0.746274 0.782874
vn -0.510438 0.738231 -0.440986
v -3.993229 2.233823 -2.425455
vt 0.704225 0.796379
vn -0.190844 0.525759 -0.828949
v -1.941059 3.001258 1.892241
vt 0.807938 0.809045
vn 0.234033 0.819829 0.522599
v -4.135380 4.104686 0.143377
vt 0.768702 0.783868
vn -0.135904 0.978564 0.154732
v -4.875160 3.865005 -0.136484
vt 0.762608 0.775702
vn -0.581343 0.813565 0.012355
v -4.875160 3.865005 -0.136484
vt 0.762608 0.775702
vn -0.581343 0.813565 0.012355
v -3.915771 3.353831 1.678854
vt 0.794104 0.780244
vn -0.171922 0.749593 0.639182
v -4.985542 2.896613 1.324888
vt 0.786359 0.762862
vn -0.728959 0.513305 0.452920
v -4.135380 4.104686 0.143377
vt 0.768702 0.783868
vn -0.135904 0.978564 0.154732
v -4.374142 1.179397 2.628927
vt 0.832595 0.748841
vn -0.564611 0.409508 0.716601
v -3.230286 1.497848 3.138037
vt 0.842316 0.778060
vn -0.188676 0.458156 0.868616
v -4.336941 -0.405351 3.563246
vt 0.895089 0.727284
vn -0.339098 0.462544 0.819186
v -3.203766 -0.235242 3.648962
vt 0.894423 0.770293
vn -0.143433 0.403468 0.903682
v -5.443066 2.618533 0.061705
vt 0.761946 0.754352
vn -0.890489 0.419274 0.176744
v -1.941059 3.001258 1.892241
vt 0.807938 0.809045
vn 0.234033 0.819829 0.522599
v -5.445812 0.340075 1.914305
vt 0.812563 0.710034
vn -0.797074 0.357333 0.486813
v -5.059677 -1.355794 4.047468
vt 0.937974 0.684214
vn -0.666190 0.233346 0.708336
v -2.244217 -1.468110 4.328878
vt 0.939869 0.808636
vn 0.037553 0.367027 0.929452
v -1.674717 1.250930 3.115309
vt 0.850392 0.811326
vn 0.126070 0.483793 0.866055
v 0.404503 -1.472062 3.420012
vt 0.898587 0.887269
vn 0.568850 0.354180 0.742271
v 0.308266 0.890224 3.031660
vt 0.847422 0.854973
vn 0.601138 0.468967 0.647073
v -0.391247 2.454154 1.617643
vt 0.811332 0.836549
vn 0.558290 0.784467 0.270042
v -6.071388 0.054709 0.852102
vt 0.778531 0.693634
vn -0.887777 0.308329 0.341739
v -6.133160 -1.760945 2.025015
vt 0.813302 0.629538
vn -0.886375 0.117965 0.447686
v -6.834396 -0.613488 -0.629900
vt 0.729730 0.675752
vn -0.987768 0.151374 -0.037432
v -6.747227 -2.524304 1.041700
vt 0.763783 0.600610
vn -0.954584 -0.265853 0.134505
v -5.797050 2.024392 -0.283113
vt 0.753277 0.741745
vn -0.885299 0.435634 0.162692
v -5.999477 1.595918 -1.240343
vt 0.731381 0.736854
vn -0.839119 0.469728 -0.274291
v -5.673183 -4.058267 1.769613
vt 0.772870 0.491501
vn -0.929689 -0.356650 0.092083
v -4.472839 3.581246 -1.133051
vt 0.746274 0.782874
vn -0.510438 0.738231 -0.440986
v -6.834396 -0.613488 -0.629900
vt 0.729730 0.675752
vn -0.987768 0.151374 -0.037432
v -6.027611 -2.932992 -0.942865
vt 0.685285 0.607719
vn -0.717402 -0.562533 -0.410963
v -6.207485 -1.452756 -2.475000
vt 0.673619 0.674631
vn -0.690205 -0.148992 -0.708109
v -6.747227 -2.524304 1.041700
vt 0.763783 0.600610
vn -0.954584 -0.265853 0.134505
v -5.999477 1.595918 -1.240343
vt 0.731381 0.736854
vn -0.839119 0.469728 -0.274291
v -5.315784 1.475961 -2.269899
vt 0.706135 0.750871
vn -0.574910 0.338152 -0.745072
v -4.433743 -1.551427 -2.865908
vt 0.618711 0.692028
vn -0.290964 -0.214158 -0.932457
v -4.556652 -4.240418 -1.003107
vt 0.626325 0.547649
vn -0.637030 -0.407163 -0.654532
v -5.673183 -4.058267 1.769613
vt 0.772870 0.491501
vn -0.929689 -0.356650 0.092083
v -4.472839 3.581246 -1.133051
vt 0.746274 0.782874
vn -0.510438 0.738231 -0.440986
v -3.993229 2.233823 -2.425455
vt 0.704225 0.796379
vn -0.190844 0.525759 -0.828949
v -3.301460 -1.028302 -3.408953
vt 0.671138 0.870763
vn -0.148300 -0.116298 -0.982080
v -4.433743 -1.551427 -2.865908
vt 0.640789 0.866466
vn -0.290964 -0.214158 -0.932457
v -4.556652 -4.240418 -1.003107
vt 0.597588 0.933037
vn -0.637030 -0.407163 -0.654532
v -1.478977 -3.413453 -2.334536
vt 0.680818 0.942186
vn 0.181755 -0.251158 -0.950729
v -1.102631 -0.554185 -3.494005
vt 0.712542 0.885539
vn 0.261100 0.096787 -0.960447
v -0.413048 -1.707601 -3.032557
vt 0.715292 0.911801
vn 0.346039 -0.312021 -0.884816
v 1.298706 -1.485234 -2.122019
vt 0.752184 0.923472
vn 0.794072 -0.060445 -0.604811
v 1.644325 -2.731393 -0.986673
vt 0.763471 0.959908
vn 0.814377 -0.171973 -0.554270
v -2.797272 2.094804 -2.609797
vt 0.718848 0.821797
vn -0.023052 0.524448 -0.851130
# Faces (1 to 169)
g RockLarge8_0
f -167/-167/-167 -168/-168/-168 -169/-169/-169
f -168/-168/-168 -166/-166/-166 -169/-169/-169
f -169/-169/-169 -166/-166/-166 -165/-165/-165
f -165/-165/-165 -166/-166/-166 -164/-164/-164
f -163/-163/-163 -165/-165/-165 -164/-164/-164
f -162/-162/-162 -169/-169/-169 -165/-165/-165
f -167/-167/-167 -161/-161/-161 -168/-168/-168
f -161/-161/-161 -160/-160/-160 -168/-168/-168
f -166/-166/-166 -159/-159/-159 -164/-164/-164
f -159/-159/-159 -158/-158/-158 -164/-164/-164
f -158/-158/-158 -159/-159/-159 -157/-157/-157
f -168/-168/-168 -157/-157/-157 -166/-166/-166
f -157/-157/-157 -159/-159/-159 -166/-166/-166
f -156/-156/-156 -158/-158/-158 -157/-157/-157
f -156/-156/-156 -157/-157/-157 -155/-155/-155
f -157/-157/-157 -154/-154/-154 -155/-155/-155
f -160/-160/-160 -154/-154/-154 -168/-168/-168
f -154/-154/-154 -157/-157/-157 -168/-168/-168
f -156/-156/-156 -155/-155/-155 -153/-153/-153
f -152/-152/-152 -156/-156/-156 -153/-153/-153
f -156/-156/-156 -152/-152/-152 -158/-158/-158
f -152/-152/-152 -151/-151/-151 -158/-158/-158
f -164/-164/-164 -158/-158/-158 -150/-150/-150
f -158/-158/-158 -151/-151/-151 -150/-150/-150
f -163/-163/-163 -164/-164/-164 -150/-150/-150
f -149/-149/-149 -163/-163/-163 -150/-150/-150
f -163/-163/-163 -149/-149/-149 -148/-148/-148
f -163/-163/-163 -148/-148/-148 -147/-147/-147
f -148/-148/-148 -146/-146/-146 -147/-147/-147
f -147/-147/-147 -146/-146/-146 -145/-145/-145
f -144/-144/-144 -147/-147/-147 -145/-145/-145
f -149/-149/-149 -143/-143/-143 -148/-148/-148
f -148/-148/-148 -142/-142/-142 -146/-146/-146
f -143/-143/-143 -141/-141/-141 -148/-148/-148
f -141/-141/-141 -142/-142/-142 -148/-148/-148
f -144/-144/-144 -145/-145/-145 -140/-140/-140
f -139/-139/-139 -144/-144/-144 -140/-140/-140
f -136/-136/-136 -137/-137/-137 -138/-138/-138
f -137/-137/-137 -135/-135/-135 -138/-138/-138
f -138/-138/-138 -135/-135/-135 -134/-134/-134
f -135/-135/-135 -133/-133/-133 -134/-134/-134
f -135/-135/-135 -132/-132/-132 -133/-133/-133
f -132/-132/-132 -131/-131/-131 -133/-133/-133
f -131/-131/-131 -132/-132/-132 -130/-130/-130
f -137/-137/-137 -130/-130/-130 -135/-135/-135
f -130/-130/-130 -132/-132/-132 -135/-135/-135
f -129/-129/-129 -131/-131/-131 -130/-130/-130
f -129/-129/-129 -130/-130/-130 -137/-137/-137
f -129/-129/-129 -128/-128/-128 -131/-131/-131
f -128/-128/-128 -127/-127/-127 -131/-131/-131
f -128/-128/-128 -126/-126/-126 -127/-127/-127
f -126/-126/-126 -125/-125/-125 -127/-127/-127
f -124/-124/-124 -129/-129/-129 -137/-137/-137
f -128/-128/-128 -129/-129/-129 -124/-124/-124
f -126/-126/-126 -128/-128/-128 -123/-123/-123
f -123/-123/-123 -128/-128/-128 -124/-124/-124
f -122/-122/-122 -126/-126/-126 -123/-123/-123
f -125/-125/-125 -126/-126/-126 -122/-122/-122
f -121/-121/-121 -125/-125/-125 -122/-122/-122
f -127/-127/-127 -125/-125/-125 -121/-121/-121
f -120/-120/-120 -121/-121/-121 -122/-122/-122
f -119/-119/-119 -120/-120/-120 -122/-122/-122
f -119/-119/-119 -122/-122/-122 -118/-118/-118
f -122/-122/-122 -117/-117/-117 -118/-118/-118
f -123/-123/-123 -116/-116/-116 -122/-122/-122
f -116/-116/-116 -115/-115/-115 -122/-122/-122
f -122/-122/-122 -115/-115/-115 -117/-117/-117
f -116/-116/-116 -114/-114/-114 -115/-115/-115
f -114/-114/-114 -113/-113/-113 -115/-115/-115
f -115/-115/-115 -113/-113/-113 -117/-117/-117
f -116/-116/-116 -112/-112/-112 -114/-114/-114
f -124/-124/-124 -112/-112/-112 -123/-123/-123
f -112/-112/-112 -116/-116/-116 -123/-123/-123
f -112/-112/-112 -111/-111/-111 -114/-114/-114
f -111/-111/-111 -112/-112/-112 -124/-124/-124
f -110/-110/-110 -114/-114/-114 -111/-111/-111
f -109/-109/-109 -110/-110/-110 -111/-111/-111
f -137/-137/-137 -111/-111/-111 -124/-124/-124
f -109/-109/-109 -111/-111/-111 -137/-137/-137
f -136/-136/-136 -109/-109/-109 -137/-137/-137
f -110/-110/-110 -109/-109/-109 -136/-136/-136
f -108/-108/-108 -110/-110/-110 -136/-136/-136
f -108/-108/-108 -136/-136/-136 -107/-107/-107
f -136/-136/-136 -106/-106/-106 -107/-107/-107
f -107/-107/-107 -106/-106/-106 -105/-105/-105
f -106/-106/-106 -104/-104/-104 -105/-105/-105
f -103/-103/-103 -104/-104/-104 -106/-106/-106
f -102/-102/-102 -103/-103/-103 -106/-106/-106
f -101/-101/-101 -103/-103/-103 -102/-102/-102
f -100/-100/-100 -101/-101/-101 -102/-102/-102
f -102/-102/-102 -138/-138/-138 -100/-100/-100
f -136/-136/-136 -138/-138/-138 -106/-106/-106
f -138/-138/-138 -102/-102/-102 -106/-106/-106
f -138/-138/-138 -134/-134/-134 -100/-100/-100
f -97/-97/-97 -98/-98/-98 -99/-99/-99
f -98/-98/-98 -96/-96/-96 -99/-99/-99
f -98/-98/-98 -97/-97/-97 -95/-95/-95
f -94/-94/-94 -98/-98/-98 -95/-95/-95
f -96/-96/-96 -98/-98/-98 -94/-94/-94
f -95/-95/-95 -93/-93/-93 -94/-94/-94
f -93/-93/-93 -92/-92/-92 -94/-94/-94
f -93/-93/-93 -91/-91/-91 -92/-92/-92
f -91/-91/-91 -90/-90/-90 -92/-92/-92
f -89/-89/-89 -96/-96/-96 -94/-94/-94
f -88/-88/-88 -89/-89/-89 -94/-94/-94
f -87/-87/-87 -88/-88/-88 -94/-94/-94
f -87/-87/-87 -86/-86/-86 -88/-88/-88
f -86/-86/-86 -85/-85/-85 -88/-88/-88
f -94/-94/-94 -84/-84/-84 -87/-87/-87
f -84/-84/-84 -83/-83/-83 -87/-87/-87
f -87/-87/-87 -83/-83/-83 -86/-86/-86
f -83/-83/-83 -84/-84/-84 -82/-82/-82
f -84/-84/-84 -81/-81/-81 -82/-82/-82
f -92/-92/-92 -81/-81/-81 -94/-94/-94
f -81/-81/-81 -84/-84/-84 -94/-94/-94
f -82/-82/-82 -81/-81/-81 -92/-92/-92
f -83/-83/-83 -82/-82/-82 -80/-80/-80
f -79/-79/-79 -83/-83/-83 -80/-80/-80
f -83/-83/-83 -79/-79/-79 -86/-86/-86
f -77/-77/-77 -119/-119/-119 -78/-78/-78
f -119/-119/-119 -118/-118/-118 -78/-78/-78
f -119/-119/-119 -77/-77/-77 -120/-120/-120
f -77/-77/-77 -76/-76/-76 -120/-120/-120
f -162/-162/-162 -75/-75/-75 -169/-169/-169
f -75/-75/-75 -74/-74/-74 -169/-169/-169
f -167/-167/-167 -169/-169/-169 -74/-74/-74
f -73/-73/-73 -167/-167/-167 -74/-74/-74
f -167/-167/-167 -73/-73/-73 -161/-161/-161
f -73/-73/-73 -72/-72/-72 -161/-161/-161
f -72/-72/-72 -71/-71/-71 -161/-161/-161
f -71/-71/-71 -70/-70/-70 -161/-161/-161
f -161/-161/-161 -70/-70/-70 -160/-160/-160
f -67/-67/-67 -68/-68/-68 -69/-69/-69
f -68/-68/-68 -66/-66/-66 -69/-69/-69
f -67/-67/-67 -69/-69/-69 -65/-65/-65
f -66/-66/-66 -68/-68/-68 -64/-64/-64
f -63/-63/-63 -66/-66/-66 -64/-64/-64
f -69/-69/-69 -66/-66/-66 -63/-63/-63
f -62/-62/-62 -63/-63/-63 -64/-64/-64
f -61/-61/-61 -62/-62/-62 -64/-64/-64
f -60/-60/-60 -69/-69/-69 -63/-63/-63
f -67/-67/-67 -65/-65/-65 -59/-59/-59
f -58/-58/-58 -67/-67/-67 -59/-59/-59
f -67/-67/-67 -58/-58/-58 -68/-68/-68
f -58/-58/-58 -57/-57/-57 -68/-68/-68
f -64/-64/-64 -68/-68/-68 -56/-56/-56
f -68/-68/-68 -57/-57/-57 -56/-56/-56
f -61/-61/-61 -64/-64/-64 -56/-56/-56
f -55/-55/-55 -61/-61/-61 -56/-56/-56
f -54/-54/-54 -59/-59/-59 -65/-65/-65
f -58/-58/-58 -59/-59/-59 -54/-54/-54
f -56/-56/-56 -57/-57/-57 -53/-53/-53
f -57/-57/-57 -58/-58/-58 -53/-53/-53
f -53/-53/-53 -58/-58/-58 -54/-54/-54
f -53/-53/-53 -52/-52/-52 -56/-56/-56
f -52/-52/-52 -55/-55/-55 -56/-56/-56
f -52/-52/-52 -53/-53/-53 -54/-54/-54
f -52/-52/-52 -51/-51/-51 -55/-55/-55
f -50/-50/-50 -51/-51/-51 -52/-52/-52
f -49/-49/-49 -50/-50/-50 -52/-52/-52
f -49/-49/-49 -52/-52/-52 -54/-54/-54
f -51/-51/-51 -48/-48/-48 -55/-55/-55
f -51/-51/-51 -47/-47/-47 -48/-48/-48
f -50/-50/-50 -46/-46/-46 -51/-51/-51
f -46/-46/-46 -47/-47/-47 -51/-51/-51
f -43/-43/-43 -44/-44/-44 -45/-45/-45
f -44/-44/-44 -42/-42/-42 -45/-45/-45
f -43/-43/-43 -41/-41/-41 -44/-44/-44
f -41/-41/-41 -40/-40/-40 -44/-44/-44
f -41/-41/-41 -39/-39/-39 -40/-40/-40
f -39/-39/-39 -38/-38/-38 -40/-40/-40
f -43/-43/-43 -45/-45/-45 -37/-37/-37
f -41/-41/-41 -43/-43/-43 -37/-37/-37
f -42/-42/-42 -44/-44/-44 -36/-36/-36
f -39/-39/-39 -41/-41/-41 -35/-35/-35
f -35/-35/-35 -41/-41/-41 -37/-37/-37
f -34/-34/-34 -39/-39/-39 -35/-35/-35
f -38/-38/-38 -39/-39/-39 -34/-34/-34
f -33/-33/-33 -38/-38/-38 -34/-34/-34
f -40/-40/-40 -38/-38/-38 -33/-33/-33
f -32/-32/-32 -40/-40/-40 -33/-33/-33
f -36/-36/-36 -44/-44/-44 -32/-32/-32
f -44/-44/-44 -40/-40/-40 -32/-32/-32
f -32/-32/-32 -33/-33/-33 -31/-31/-31
f -30/-30/-30 -32/-32/-32 -31/-31/-31
f -30/-30/-30 -29/-29/-29 -32/-32/-32
f -29/-29/-29 -36/-36/-36 -32/-32/-32
f -35/-35/-35 -28/-28/-28 -34/-34/-34
f -28/-28/-28 -27/-27/-27 -34/-34/-34
f -28/-28/-28 -26/-26/-26 -27/-27/-27
f -26/-26/-26 -25/-25/-25 -27/-27/-27
f -28/-28/-28 -24/-24/-24 -26/-26/-26
f -37/-37/-37 -24/-24/-24 -35/-35/-35
f -24/-24/-24 -28/-28/-28 -35/-35/-35
f -24/-24/-24 -23/-23/-23 -26/-26/-26
f -23/-23/-23 -24/-24/-24 -37/-37/-37
f -34/-34/-34 -27/-27/-27 -22/-22/-22
f -27/-27/-27 -25/-25/-25 -22/-22/-22
f -21/-21/-21 -23/-23/-23 -37/-37/-37
f -45/-45/-45 -21/-21/-21 -37/-37/-37
f -18/-18/-18 -19/-19/-19 -20/-20/-20
f -19/-19/-19 -17/-17/-17 -20/-20/-20
f -18/-18/-18 -20/-20/-20 -16/-16/-16
f -15/-15/-15 -18/-18/-18 -16/-16/-16
f -19/-19/-19 -18/-18/-18 -14/-14/-14
f -13/-13/-13 -19/-19/-19 -14/-14/-14
f -17/-17/-17 -19/-19/-19 -13/-13/-13
f -12/-12/-12 -17/-17/-17 -13/-13/-13
f -15/-15/-15 -16/-16/-16 -11/-11/-11
f -10/-10/-10 -15/-15/-15 -11/-11/-11
f -14/-14/-14 -18/-18/-18 -10/-10/-10
f -18/-18/-18 -15/-15/-15 -10/-10/-10
f -8/-8/-8 -10/-10/-10 -9/-9/-9
f -8/-8/-8 -9/-9/-9 -7/-7/-7
f -9/-9/-9 -6/-6/-6 -7/-7/-7
f -9/-9/-9 -5/-5/-5 -6/-6/-6
f -5/-5/-5 -4/-4/-4 -6/-6/-6
f -3/-3/-3 -4/-4/-4 -5/-5/-5
f -6/-6/-6 -4/-4/-4 -2/-2/-2
f -4/-4/-4 -3/-3/-3 -2/-2/-2
f -10/-10/-10 -1/-1/-1 -9/-9/-9
f -9/-9/-9 -1/-1/-1 -5/-5/-5

