# Mesh "Rocks2" exported with Unity Assets Bundle Extractor; 173 vertices, 648 indices, 320 bits per vertex
g Rocks2
# SubMesh 0
# Vertices
v 1.468582 -0.100915 6.620213
vt 0.859763 0.150825
vn -0.886688 0.421095 0.190953
v 1.933361 0.641141 6.228482
vt 0.872698 0.119536
vn -0.622417 0.781795 0.037319
v 1.803171 0.385352 6.897882
vt 0.848646 0.120977
vn -0.722701 0.633302 0.276825
v 1.488550 0.004538 5.883533
vt 0.884948 0.146104
vn -0.853842 0.517957 -0.051717
v 1.685789 0.060283 5.134117
vt 0.907757 0.139646
vn -0.726224 0.591025 -0.351124
v 2.205755 0.779489 5.535790
vt 0.892924 0.113670
vn -0.496493 0.851238 -0.169966
v 1.136703 -0.849944 5.609596
vt 0.898111 0.174694
vn -0.897832 0.437775 -0.047446
v 1.119453 -0.925231 4.700162
vt 0.926820 0.169440
vn -0.760081 0.519123 -0.390882
v 1.153954 -0.774657 6.519030
vt 0.869401 0.179949
vn -0.918632 0.347232 0.188534
v 2.943033 0.985481 6.121367
vt 0.880081 0.090418
vn -0.053565 0.991509 0.118492
v 2.564104 0.841983 6.715460
vt 0.862276 0.097012
vn -0.187672 0.946446 0.262717
v 2.270252 0.585464 7.221762
vt 0.844476 0.102649
vn -0.370605 0.782785 0.499899
v 2.642435 0.835712 5.006608
vt 0.907845 0.104717
vn -0.347406 0.859134 -0.375763
v 2.127462 0.079132 4.605278
vt 0.924337 0.128990
vn -0.527151 0.561618 -0.637728
v 2.692751 0.040423 4.238221
vt 0.937302 0.116148
vn -0.370595 0.486040 -0.791470
v 3.142164 0.782081 4.595347
vt 0.920116 0.094468
vn -0.194830 0.808387 -0.555474
v 1.722296 -0.961716 4.287652
vt 0.942590 0.154361
vn -0.528180 0.472203 -0.705727
v 2.325140 -0.998200 3.875140
vt 0.958359 0.139282
vn -0.367257 0.391565 -0.843682
v 3.794159 0.941661 5.085423
vt 0.908019 0.074619
vn 0.231738 0.959814 -0.158288
v 3.377020 1.023757 5.575341
vt 0.894873 0.082640
vn 0.076101 0.997099 -0.001322
v 4.042940 0.739437 6.127773
vt 0.883959 0.062080
vn 0.529874 0.793515 0.299278
v 4.387629 0.639085 5.562465
vt 0.898739 0.055572
vn 0.669459 0.728242 0.146588
v 3.603701 0.590866 4.256423
vt 0.932392 0.084712
vn -0.013708 0.691349 -0.722391
v 3.260828 -0.076507 3.974145
vt 0.949267 0.103133
vn -0.204460 0.396366 -0.895036
v 3.755320 -0.256512 3.843090
vt 0.960435 0.092169
vn 0.096585 0.285412 -0.953526
v 3.998787 0.253710 4.046074
vt 0.942166 0.075232
vn 0.250656 0.467438 -0.847746
v 3.005947 -1.010979 3.752343
vt 0.968826 0.122056
vn -0.202758 0.309966 -0.928876
v 3.686754 -1.023757 3.629545
vt 0.979294 0.104830
vn 0.094819 0.223409 -0.970102
v 4.354933 0.391101 4.350726
vt 0.932996 0.059574
vn 0.585016 0.563005 -0.583765
v 4.122553 0.724043 4.659650
vt 0.920887 0.067296
vn 0.411308 0.835238 -0.364971
v 4.299164 -0.237749 4.020541
vt 0.966875 0.075808
vn 0.487984 0.231990 -0.841458
v 4.099846 -0.484445 3.875090
vt 0.971015 0.085482
vn 0.367274 0.170138 -0.914419
v 4.162844 -1.005999 3.865846
vt 0.985439 0.090607
vn 0.403186 0.127495 -0.906193
v 4.299164 -0.237749 4.020541
vt 0.953257 0.052832
vn 0.487984 0.231990 -0.841458
v 4.484028 -0.036970 4.211350
vt 0.943861 0.050358
vn 0.657091 0.312504 -0.685983
v 2.270252 0.585464 7.221762
vt 0.844476 0.102649
vn -0.370605 0.782785 0.499899
v 3.138628 0.640276 7.186450
vt 0.852333 0.077316
vn 0.237716 0.786754 0.569658
v 2.682220 0.403306 7.552956
vt 0.837281 0.085051
vn -0.003474 0.655871 0.754865
v 2.564104 0.841983 6.715460
vt 0.862276 0.097012
vn -0.187672 0.946446 0.262717
v 2.943033 0.985481 6.121367
vt 0.880081 0.090418
vn -0.053565 0.991509 0.118492
v 3.612305 0.740382 6.690414
vt 0.868421 0.069366
vn 0.392616 0.816228 0.423822
v 3.928246 0.106312 7.042500
vt 0.857138 0.049988
vn 0.638786 0.474244 0.605842
v 3.414785 0.069230 7.483437
vt 0.841524 0.059229
vn 0.460646 0.466381 0.755179
v 3.541759 -0.686484 7.693421
vt 0.830281 0.041947
vn 0.492785 0.352477 0.795564
v 2.912077 -0.038364 7.767156
vt 0.827378 0.067310
vn 0.173964 0.424639 0.888492
v 2.960571 -0.656569 8.027645
vt 0.815428 0.053495
vn 0.199626 0.336266 0.920367
v 4.122948 -0.716400 7.359197
vt 0.845133 0.030399
vn 0.679667 0.351373 0.643887
v 4.042940 0.739437 6.127773
vt 0.883959 0.062080
vn 0.529874 0.793515 0.299278
v 4.482431 -0.769691 6.732613
vt 0.863624 0.023047
vn 0.827975 0.306066 0.469874
v 4.351921 0.078922 6.480195
vt 0.873642 0.042354
vn 0.780713 0.434707 0.448906
v 4.661465 -0.005725 5.880490
vt 0.890006 0.036296
vn 0.878827 0.376640 0.292925
v 4.841915 -0.822982 6.106029
vt 0.882114 0.015694
vn 0.913706 0.258072 0.313911
v 4.387629 0.639085 5.562465
vt 0.898739 0.055572
vn 0.669459 0.728242 0.146588
v 4.935675 -0.870956 5.531360
vt 0.898332 0.013185
vn 0.966449 0.214849 0.140767
v 4.832535 -0.140417 5.327356
vt 0.905200 0.031783
vn 0.944500 0.310512 0.107250
v 4.884291 -0.317545 4.872023
vt 0.917918 0.027358
vn 0.959834 0.229849 -0.160895
v 5.029434 -0.918930 4.956691
vt 0.914550 0.010676
vn 0.978135 0.162103 -0.130284
v 4.603470 0.440967 5.058428
vt 0.912556 0.049960
vn 0.791242 0.608844 -0.056962
v 3.794159 0.941661 5.085423
vt 0.908019 0.074619
vn 0.231738 0.959814 -0.158288
v 4.122553 0.724043 4.659650
vt 0.920887 0.067296
vn 0.411308 0.835238 -0.364971
v 4.354933 0.391101 4.350726
vt 0.932996 0.059574
vn 0.585016 0.563005 -0.583765
v 4.703196 0.129973 4.651967
vt 0.925068 0.045410
vn 0.855327 0.417768 -0.306409
v 4.699539 -0.309011 4.379386
vt 0.944708 0.037921
vn 0.827582 0.218778 -0.516956
v 4.484028 -0.036970 4.211350
vt 0.943861 0.050358
vn 0.657091 0.312504 -0.685983
v 4.299164 -0.237749 4.020541
vt 0.953257 0.052832
vn 0.487984 0.231990 -0.841458
v 4.638933 -0.988241 4.102148
vt 0.964349 0.030433
vn 0.696361 0.126324 -0.706487
v 4.834185 -0.953585 4.529419
vt 0.927743 0.009641
vn 0.910486 0.096726 -0.402070
v 4.835890 -0.529501 4.565721
vt 0.926852 0.021564
vn 0.913475 0.140858 -0.381736
v 4.699539 -0.309011 4.379386
vt 0.933002 0.027007
vn 0.827582 0.218778 -0.516956
v 4.638933 -0.988241 4.102148
vt 0.940936 0.008605
vn 0.696361 0.126324 -0.706487
v 1.501530 -0.721010 7.182546
vt 0.829764 0.173917
vn -0.870876 0.261775 0.415992
v 1.558722 -0.268890 7.110846
vt 0.836058 0.156271
vn -0.865589 0.316589 0.387978
v 1.793110 -0.023194 7.357191
vt 0.819387 0.144432
vn -0.738581 0.436822 0.513503
v 1.849106 -0.667363 7.846063
vt 0.790128 0.167886
vn -0.562706 0.334101 0.756134
v 1.793110 -0.023194 7.357191
vt 0.825910 0.118809
vn -0.738581 0.436822 0.513503
v 2.091503 0.208127 7.504413
vt 0.829700 0.107556
vn -0.491286 0.564545 0.663269
v 2.303391 -0.006338 7.727005
vt 0.820228 0.100846
vn -0.266549 0.454487 0.849937
v 1.849106 -0.667363 7.846063
vt 0.803174 0.116641
vn -0.562706 0.334101 0.756134
v 2.303391 -0.006338 7.727005
vt 0.820228 0.100846
vn -0.266549 0.454487 0.849937
v 2.091503 0.208127 7.504413
vt 0.829700 0.107556
vn -0.491286 0.564545 0.663269
v 2.303391 -0.006338 7.727005
vt 0.815201 0.080446
vn -0.266549 0.454487 0.849937
v 2.520658 -0.222512 7.857813
vt 0.815277 0.071463
vn -0.098441 0.343569 0.933954
v 2.404839 -0.661966 7.936854
vt 0.804274 0.064668
vn -0.129351 0.290655 0.948044
v 1.849106 -0.667363 7.846063
vt 0.793120 0.075841
vn -0.562706 0.334101 0.756134
v 4.299164 -0.237749 4.020541
vt 0.966875 0.075808
vn 0.487984 0.231990 -0.841458
v 4.162844 -1.005999 3.865846
vt 0.985439 0.090607
vn 0.403186 0.127495 -0.906193
v 4.638933 -0.988241 4.102148
vt 0.991584 0.076384
vn 0.696361 0.126324 -0.706487
v 4.099846 -0.484445 3.875090
vt 0.971015 0.085482
vn 0.367274 0.170138 -0.914419
v -4.488903 -0.316549 -7.649822
vt 0.806786 0.321169
vn -0.423386 0.333718 -0.842245
v -4.268818 0.092809 -7.492300
vt 0.789563 0.337599
vn -0.241046 0.723663 -0.646690
v -4.606205 -0.063286 -7.466882
vt 0.805435 0.343520
vn -0.485045 0.553352 -0.677151
v -4.125263 -0.239608 -7.732904
vt 0.789253 0.317033
vn -0.187959 0.447242 -0.874440
v -3.732306 -0.180027 -7.727933
vt 0.772752 0.314691
vn 0.126303 0.548364 -0.826647
v -3.898355 0.195901 -7.446012
vt 0.774891 0.335611
vn -0.016224 0.815556 -0.578451
v -3.997278 -0.681109 -7.911338
vt 0.788931 0.294908
vn -0.196097 0.363562 -0.910697
v -3.545200 -0.692475 -8.027645
vt 0.768980 0.290112
vn 0.162570 0.476387 -0.864076
v -4.449358 -0.669743 -7.795032
vt 0.808882 0.299704
vn -0.422731 0.257725 -0.868836
v -4.109526 0.314306 -7.016462
vt 0.776528 0.354214
vn -0.204065 0.974797 -0.090161
v -4.443514 0.207057 -7.127359
vt 0.789850 0.355045
vn -0.371525 0.910226 -0.182916
v -4.719381 0.048586 -7.202852
vt 0.802897 0.356489
vn -0.631264 0.718086 -0.293015
v -3.586260 0.259218 -7.295621
vt 0.762751 0.337119
vn 0.217290 0.848064 -0.483293
v -3.418310 -0.135528 -7.573743
vt 0.759060 0.316820
vn 0.452652 0.552734 -0.699708
v -3.167620 -0.119982 -7.336668
vt 0.747070 0.321384
vn 0.643884 0.499731 -0.579381
v -3.320829 0.265724 -7.095901
vt 0.751946 0.340214
vn 0.430860 0.820977 -0.374642
v -3.267595 -0.672813 -7.777536
vt 0.754551 0.295315
vn 0.525270 0.467750 -0.710845
v -2.989992 -0.653152 -7.527429
vt 0.740121 0.300519
vn 0.702599 0.409136 -0.582205
v -3.492905 0.359784 -6.718635
vt 0.754071 0.356416
vn 0.132933 0.983484 0.122832
v -3.788683 0.368887 -6.868837
vt 0.764805 0.355003
vn -0.058250 0.998279 0.006722
v -3.972462 0.235735 -6.461904
vt 0.765967 0.371327
vn -0.228733 0.815651 0.531408
v -4.302700 0.200751 -6.607196
vt 0.778029 0.371067
vn -0.383086 0.819409 0.426396
v -3.090366 0.198384 -6.901632
vt 0.741277 0.342990
vn 0.643774 0.729562 -0.230854
v -2.964590 -0.147259 -7.083034
vt 0.735674 0.326344
vn 0.789777 0.430520 -0.436927
v -2.833780 -0.213818 -6.847593
vt 0.725374 0.330212
vn 0.924896 0.348686 -0.151608
v -2.925793 0.050029 -6.719717
vt 0.732295 0.346301
vn 0.843967 0.536290 0.010618
v -2.847795 -0.626925 -7.204328
vt 0.728488 0.308612
vn 0.829673 0.346727 -0.437519
v -2.705599 -0.600698 -6.881229
vt 0.716855 0.316705
vn 0.945359 0.287847 -0.153102
v -3.234110 0.275981 -6.600013
vt 0.743714 0.357460
vn 0.384632 0.886806 0.256189
v -2.767038 -0.578579 -6.617113
vt 0.708856 0.324098
vn 0.962327 0.214305 0.167332
v -4.719381 0.048586 -7.202852
vt 0.802897 0.356489
vn -0.631264 0.718086 -0.293015
v -4.601004 0.114535 -6.778451
vt 0.790634 0.370536
vn -0.558138 0.768519 0.312828
v -4.827585 -0.036654 -6.952173
vt 0.802512 0.369849
vn -0.783527 0.607228 0.131755
v -4.443514 0.207057 -7.127359
vt 0.789850 0.355045
vn -0.371525 0.910226 -0.182916
v -4.109526 0.314306 -7.016462
vt 0.776528 0.354214
vn -0.204065 0.974797 -0.090161
v -4.302700 0.200751 -6.607196
vt 0.778029 0.371067
vn -0.383086 0.819409 0.426396
v -4.414766 -0.119198 -6.386124
vt 0.779766 0.386735
vn -0.476022 0.488882 0.731025
v -4.692953 -0.173357 -6.585947
vt 0.792434 0.385240
vn -0.661531 0.457346 0.594316
v -4.752131 -0.558934 -6.471645
vt 0.794741 0.399550
vn -0.684422 0.344310 0.642664
v -4.889080 -0.258157 -6.797098
vt 0.803827 0.384073
vn -0.854051 0.384030 0.350882
v -4.988070 -0.578633 -6.720289
vt 0.807576 0.396355
vn -0.872166 0.296363 0.389224
v -4.516191 -0.539235 -6.223000
vt 0.781906 0.402745
vn -0.493921 0.367792 0.787890
v -4.160601 -0.531973 -6.118951
vt 0.767927 0.402207
vn -0.287289 0.345424 0.893391
v -4.084473 -0.097978 -6.243336
vt 0.766984 0.386944
vn -0.287876 0.470705 0.834005
v -3.746901 -0.109620 -6.159714
vt 0.754740 0.386179
vn -0.109381 0.430389 0.895992
v -3.805010 -0.524712 -6.014903
vt 0.753948 0.401669
vn -0.112462 0.314098 0.942706
v -3.972462 0.235735 -6.461904
vt 0.765967 0.371327
vn -0.228733 0.815651 0.531408
v -3.647158 0.216551 -6.356145
vt 0.754614 0.371302
vn -0.043255 0.771424 0.634849
v -3.492905 0.359784 -6.718635
vt 0.754071 0.356416
vn 0.132933 0.983484 0.122832
v -3.363665 0.140261 -6.303493
vt 0.744135 0.370976
vn 0.191605 0.674902 0.712598
v -3.234110 0.275981 -6.600013
vt 0.743714 0.357460
vn 0.384632 0.886806 0.256189
v -3.040108 0.125842 -6.510875
vt 0.733732 0.358977
vn 0.658144 0.643479 0.390873
v -3.137884 -0.001388 -6.292712
vt 0.734796 0.370339
vn 0.463134 0.505005 0.728339
v -3.090366 0.198384 -6.901632
vt 0.741277 0.342990
vn 0.643774 0.729562 -0.230854
v -2.925793 0.050029 -6.719717
vt 0.732295 0.346301
vn 0.843967 0.536290 0.010618
v -3.506908 -0.527641 -6.036489
vt 0.742808 0.398665
vn 0.071005 0.285797 0.955656
v -3.446875 -0.154043 -6.137388
vt 0.743688 0.384754
vn 0.091009 0.381124 0.920034
v -3.207842 -0.228122 -6.160903
vt 0.734253 0.383978
vn 0.360816 0.318116 0.876706
v -3.208807 -0.530570 -6.058076
vt 0.731669 0.395660
vn 0.340623 0.250425 0.906236
v -2.985716 -0.216650 -6.312565
vt 0.720039 0.369561
vn 0.676261 0.317274 0.664837
v -2.938700 -0.082268 -6.449121
vt 0.724124 0.361808
vn 0.793366 0.406372 0.453247
v -2.858028 -0.186511 -6.557056
vt 0.718789 0.357542
vn 0.911135 0.321456 0.257875
v -2.828480 -0.556460 -6.352996
vt 0.705282 0.368783
vn 0.836763 0.225659 0.498904
v -3.018644 -0.543515 -6.205536
vt 0.722893 0.392570
vn 0.593533 0.195927 0.780596
v -3.053242 -0.328726 -6.214804
vt 0.726861 0.385160
vn 0.571093 0.238868 0.785363
v -2.985716 -0.216650 -6.312565
vt 0.724457 0.379909
vn 0.676261 0.317274 0.664837
v -2.828480 -0.556460 -6.352996
vt 0.714118 0.389480
vn 0.836763 0.225659 0.498904
v -2.833780 -0.213818 -6.847593
vt 0.725374 0.330212
vn 0.924896 0.348686 -0.151608
v -2.858028 -0.186511 -6.557056
vt 0.716576 0.338896
vn 0.911135 0.321456 0.257875
v -2.799753 -0.316118 -6.665084
vt 0.716669 0.331499
vn 0.958675 0.254223 0.127724
v -2.767038 -0.578579 -6.617113
vt 0.708856 0.324098
vn 0.962327 0.214305 0.167332
v -2.828480 -0.556460 -6.352996
vt 0.700857 0.331491
vn 0.836763 0.225659 0.498904
v -4.739397 -0.647837 -7.544034
vt 0.832644 0.314865
vn -0.625596 0.163158 -0.762895
v -4.714945 -0.413130 -7.539855
vt 0.823574 0.324417
vn -0.601449 0.219794 -0.768082
v -4.819071 -0.285609 -7.402164
vt 0.830920 0.336773
vn -0.703014 0.342498 -0.623271
v -5.029434 -0.625931 -7.293039
vt 0.856406 0.330026
vn -0.889544 0.240522 -0.388407
v -4.819071 -0.285609 -7.402164
vt 0.819432 0.351387
vn -0.703014 0.342498 -0.623271
v -4.865862 -0.159661 -7.244272
vt 0.813792 0.357541
vn -0.800771 0.481226 -0.356633
v -4.942650 -0.266558 -7.104867
vt 0.817971 0.364551
vn -0.921137 0.379348 -0.087190
v -5.029434 -0.625931 -7.293039
vt 0.833430 0.359253
vn -0.889544 0.240522 -0.388407
v -4.942650 -0.266558 -7.104867
vt 0.817971 0.364551
vn -0.921137 0.379348 -0.087190
v -4.942650 -0.266558 -7.104867
vt 0.815395 0.379095
vn -0.921137 0.379348 -0.087190
v -4.973202 -0.371301 -6.973871
vt 0.812788 0.384849
vn -0.955031 0.278009 0.103082
v -5.008753 -0.602282 -7.006664
vt 0.817927 0.392348
vn -0.971767 0.221965 0.080005
v -5.029434 -0.625931 -7.293039
vt 0.828277 0.388342
vn -0.889544 0.240522 -0.388407
# Faces (1 to 173)
g Rocks2_0
f -171/-171/-171 -172/-172/-172 -173/-173/-173
f -172/-172/-172 -170/-170/-170 -173/-173/-173
f -169/-169/-169 -170/-170/-170 -172/-172/-172
f -168/-168/-168 -169/-169/-169 -172/-172/-172
f -167/-167/-167 -170/-170/-170 -169/-169/-169
f -173/-173/-173 -170/-170/-170 -167/-167/-167
f -166/-166/-166 -167/-167/-167 -169/-169/-169
f -165/-165/-165 -173/-173/-173 -167/-167/-167
f -168/-168/-168 -172/-172/-172 -164/-164/-164
f -172/-172/-172 -163/-163/-163 -164/-164/-164
f -171/-171/-171 -162/-162/-162 -172/-172/-172
f -162/-162/-162 -163/-163/-163 -172/-172/-172
f -168/-168/-168 -161/-161/-161 -169/-169/-169
f -168/-168/-168 -164/-164/-164 -161/-161/-161
f -161/-161/-161 -160/-160/-160 -169/-169/-169
f -159/-159/-159 -160/-160/-160 -161/-161/-161
f -158/-158/-158 -159/-159/-159 -161/-161/-161
f -157/-157/-157 -160/-160/-160 -159/-159/-159
f -166/-166/-166 -169/-169/-169 -157/-157/-157
f -169/-169/-169 -160/-160/-160 -157/-157/-157
f -156/-156/-156 -157/-157/-157 -159/-159/-159
f -158/-158/-158 -161/-161/-161 -155/-155/-155
f -161/-161/-161 -154/-154/-154 -155/-155/-155
f -164/-164/-164 -154/-154/-154 -161/-161/-161
f -153/-153/-153 -154/-154/-154 -164/-164/-164
f -155/-155/-155 -154/-154/-154 -153/-153/-153
f -152/-152/-152 -155/-155/-155 -153/-153/-153
f -158/-158/-158 -151/-151/-151 -159/-159/-159
f -158/-158/-158 -155/-155/-155 -151/-151/-151
f -151/-151/-151 -150/-150/-150 -159/-159/-159
f -149/-149/-149 -150/-150/-150 -151/-151/-151
f -148/-148/-148 -149/-149/-149 -151/-151/-151
f -147/-147/-147 -150/-150/-150 -149/-149/-149
f -156/-156/-156 -159/-159/-159 -147/-147/-147
f -159/-159/-159 -150/-150/-150 -147/-147/-147
f -146/-146/-146 -147/-147/-147 -149/-149/-149
f -148/-148/-148 -151/-151/-151 -145/-145/-145
f -151/-151/-151 -144/-144/-144 -145/-145/-145
f -155/-155/-155 -144/-144/-144 -151/-151/-151
f -148/-148/-148 -143/-143/-143 -149/-149/-149
f -143/-143/-143 -142/-142/-142 -149/-149/-149
f -146/-146/-146 -149/-149/-149 -141/-141/-141
f -149/-149/-149 -142/-142/-142 -141/-141/-141
f -148/-148/-148 -145/-145/-145 -140/-140/-140
f -145/-145/-145 -139/-139/-139 -140/-140/-140
f -136/-136/-136 -137/-137/-137 -138/-138/-138
f -137/-137/-137 -135/-135/-135 -138/-138/-138
f -134/-134/-134 -135/-135/-135 -137/-137/-137
f -133/-133/-133 -134/-134/-134 -137/-137/-137
f -133/-133/-133 -137/-137/-137 -132/-132/-132
f -137/-137/-137 -131/-131/-131 -132/-132/-132
f -132/-132/-132 -131/-131/-131 -130/-130/-130
f -130/-130/-130 -131/-131/-131 -129/-129/-129
f -136/-136/-136 -129/-129/-129 -137/-137/-137
f -129/-129/-129 -131/-131/-131 -137/-137/-137
f -128/-128/-128 -130/-130/-130 -129/-129/-129
f -127/-127/-127 -132/-132/-132 -130/-130/-130
f -133/-133/-133 -126/-126/-126 -134/-134/-134
f -133/-133/-133 -132/-132/-132 -126/-126/-126
f -127/-127/-127 -125/-125/-125 -132/-132/-132
f -125/-125/-125 -124/-124/-124 -132/-132/-132
f -132/-132/-132 -124/-124/-124 -126/-126/-126
f -123/-123/-123 -124/-124/-124 -125/-125/-125
f -126/-126/-126 -124/-124/-124 -123/-123/-123
f -122/-122/-122 -123/-123/-123 -125/-125/-125
f -121/-121/-121 -126/-126/-126 -123/-123/-123
f -122/-122/-122 -120/-120/-120 -123/-123/-123
f -120/-120/-120 -119/-119/-119 -123/-123/-123
f -118/-118/-118 -119/-119/-119 -120/-120/-120
f -117/-117/-117 -118/-118/-118 -120/-120/-120
f -116/-116/-116 -119/-119/-119 -118/-118/-118
f -121/-121/-121 -123/-123/-123 -116/-116/-116
f -123/-123/-123 -119/-119/-119 -116/-116/-116
f -121/-121/-121 -116/-116/-116 -115/-115/-115
f -116/-116/-116 -114/-114/-114 -115/-115/-115
f -113/-113/-113 -114/-114/-114 -116/-116/-116
f -112/-112/-112 -113/-113/-113 -116/-116/-116
f -112/-112/-112 -116/-116/-116 -118/-118/-118
f -112/-112/-112 -111/-111/-111 -113/-113/-113
f -111/-111/-111 -110/-110/-110 -113/-113/-113
f -109/-109/-109 -110/-110/-110 -111/-111/-111
f -108/-108/-108 -109/-109/-109 -111/-111/-111
f -117/-117/-117 -107/-107/-107 -118/-118/-118
f -107/-107/-107 -106/-106/-106 -118/-118/-118
f -105/-105/-105 -106/-106/-106 -107/-107/-107
f -112/-112/-112 -118/-118/-118 -105/-105/-105
f -118/-118/-118 -106/-106/-106 -105/-105/-105
f -104/-104/-104 -105/-105/-105 -107/-107/-107
f -165/-165/-165 -103/-103/-103 -173/-173/-173
f -103/-103/-103 -102/-102/-102 -173/-173/-173
f -101/-101/-101 -102/-102/-102 -103/-103/-103
f -173/-173/-173 -102/-102/-102 -101/-101/-101
f -100/-100/-100 -101/-101/-101 -103/-103/-103
f -171/-171/-171 -173/-173/-173 -101/-101/-101
f -171/-171/-171 -99/-99/-99 -162/-162/-162
f -99/-99/-99 -98/-98/-98 -162/-162/-162
f -97/-97/-97 -98/-98/-98 -99/-99/-99
f -96/-96/-96 -97/-97/-97 -99/-99/-99
f -136/-136/-136 -138/-138/-138 -95/-95/-95
f -138/-138/-138 -94/-94/-94 -95/-95/-95
f -136/-136/-136 -93/-93/-93 -129/-129/-129
f -93/-93/-93 -92/-92/-92 -129/-129/-129
f -91/-91/-91 -92/-92/-92 -93/-93/-93
f -129/-129/-129 -92/-92/-92 -91/-91/-91
f -90/-90/-90 -91/-91/-91 -93/-93/-93
f -128/-128/-128 -129/-129/-129 -91/-91/-91
f -87/-87/-87 -88/-88/-88 -89/-89/-89
f -88/-88/-88 -86/-86/-86 -89/-89/-89
f -83/-83/-83 -84/-84/-84 -85/-85/-85
f -84/-84/-84 -82/-82/-82 -85/-85/-85
f -81/-81/-81 -82/-82/-82 -84/-84/-84
f -80/-80/-80 -81/-81/-81 -84/-84/-84
f -79/-79/-79 -82/-82/-82 -81/-81/-81
f -85/-85/-85 -82/-82/-82 -79/-79/-79
f -78/-78/-78 -79/-79/-79 -81/-81/-81
f -77/-77/-77 -85/-85/-85 -79/-79/-79
f -80/-80/-80 -84/-84/-84 -76/-76/-76
f -84/-84/-84 -75/-75/-75 -76/-76/-76
f -83/-83/-83 -74/-74/-74 -84/-84/-84
f -74/-74/-74 -75/-75/-75 -84/-84/-84
f -80/-80/-80 -73/-73/-73 -81/-81/-81
f -80/-80/-80 -76/-76/-76 -73/-73/-73
f -73/-73/-73 -72/-72/-72 -81/-81/-81
f -71/-71/-71 -72/-72/-72 -73/-73/-73
f -70/-70/-70 -71/-71/-71 -73/-73/-73
f -69/-69/-69 -72/-72/-72 -71/-71/-71
f -78/-78/-78 -81/-81/-81 -69/-69/-69
f -81/-81/-81 -72/-72/-72 -69/-69/-69
f -68/-68/-68 -69/-69/-69 -71/-71/-71
f -70/-70/-70 -73/-73/-73 -67/-67/-67
f -73/-73/-73 -66/-66/-66 -67/-67/-67
f -76/-76/-76 -66/-66/-66 -73/-73/-73
f -65/-65/-65 -66/-66/-66 -76/-76/-76
f -67/-67/-67 -66/-66/-66 -65/-65/-65
f -64/-64/-64 -65/-65/-65 -76/-76/-76
f -70/-70/-70 -63/-63/-63 -71/-71/-71
f -70/-70/-70 -67/-67/-67 -63/-63/-63
f -63/-63/-63 -62/-62/-62 -71/-71/-71
f -61/-61/-61 -62/-62/-62 -63/-63/-63
f -60/-60/-60 -61/-61/-61 -63/-63/-63
f -59/-59/-59 -62/-62/-62 -61/-61/-61
f -68/-68/-68 -71/-71/-71 -59/-59/-59
f -71/-71/-71 -62/-62/-62 -59/-59/-59
f -58/-58/-58 -59/-59/-59 -61/-61/-61
f -67/-67/-67 -57/-57/-57 -63/-63/-63
f -58/-58/-58 -61/-61/-61 -56/-56/-56
f -53/-53/-53 -54/-54/-54 -55/-55/-55
f -54/-54/-54 -52/-52/-52 -55/-55/-55
f -51/-51/-51 -52/-52/-52 -54/-54/-54
f -50/-50/-50 -51/-51/-51 -54/-54/-54
f -50/-50/-50 -54/-54/-54 -49/-49/-49
f -54/-54/-54 -48/-48/-48 -49/-49/-49
f -49/-49/-49 -48/-48/-48 -47/-47/-47
f -47/-47/-47 -48/-48/-48 -46/-46/-46
f -53/-53/-53 -46/-46/-46 -54/-54/-54
f -46/-46/-46 -48/-48/-48 -54/-54/-54
f -45/-45/-45 -47/-47/-47 -46/-46/-46
f -44/-44/-44 -49/-49/-49 -47/-47/-47
f -44/-44/-44 -43/-43/-43 -49/-49/-49
f -43/-43/-43 -42/-42/-42 -49/-49/-49
f -41/-41/-41 -42/-42/-42 -43/-43/-43
f -40/-40/-40 -41/-41/-41 -43/-43/-43
f -39/-39/-39 -42/-42/-42 -41/-41/-41
f -50/-50/-50 -49/-49/-49 -39/-39/-39
f -49/-49/-49 -42/-42/-42 -39/-39/-39
f -38/-38/-38 -39/-39/-39 -41/-41/-41
f -38/-38/-38 -37/-37/-37 -39/-39/-39
f -38/-38/-38 -36/-36/-36 -37/-37/-37
f -38/-38/-38 -41/-41/-41 -36/-36/-36
f -36/-36/-36 -35/-35/-35 -37/-37/-37
f -34/-34/-34 -35/-35/-35 -36/-36/-36
f -33/-33/-33 -34/-34/-34 -36/-36/-36
f -32/-32/-32 -35/-35/-35 -34/-34/-34
f -31/-31/-31 -32/-32/-32 -34/-34/-34
f -40/-40/-40 -30/-30/-30 -41/-41/-41
f -30/-30/-30 -29/-29/-29 -41/-41/-41
f -41/-41/-41 -29/-29/-29 -36/-36/-36
f -28/-28/-28 -29/-29/-29 -30/-30/-30
f -33/-33/-33 -36/-36/-36 -28/-28/-28
f -36/-36/-36 -29/-29/-29 -28/-28/-28
f -27/-27/-27 -28/-28/-28 -30/-30/-30
f -33/-33/-33 -26/-26/-26 -34/-34/-34
f -26/-26/-26 -25/-25/-25 -34/-34/-34
f -24/-24/-24 -25/-25/-25 -26/-26/-26
f -31/-31/-31 -34/-34/-34 -24/-24/-24
f -34/-34/-34 -25/-25/-25 -24/-24/-24
f -23/-23/-23 -24/-24/-24 -26/-26/-26
f -27/-27/-27 -22/-22/-22 -28/-28/-28
f -22/-22/-22 -21/-21/-21 -28/-28/-28
f -20/-20/-20 -21/-21/-21 -22/-22/-22
f -33/-33/-33 -28/-28/-28 -20/-20/-20
f -28/-28/-28 -21/-21/-21 -20/-20/-20
f -19/-19/-19 -20/-20/-20 -22/-22/-22
f -31/-31/-31 -17/-17/-17 -18/-18/-18
f -17/-17/-17 -16/-16/-16 -18/-18/-18
f -15/-15/-15 -16/-16/-16 -17/-17/-17
f -18/-18/-18 -16/-16/-16 -15/-15/-15
f -14/-14/-14 -15/-15/-15 -17/-17/-17
f -77/-77/-77 -13/-13/-13 -85/-85/-85
f -13/-13/-13 -12/-12/-12 -85/-85/-85
f -11/-11/-11 -12/-12/-12 -13/-13/-13
f -85/-85/-85 -12/-12/-12 -11/-11/-11
f -10/-10/-10 -11/-11/-11 -13/-13/-13
f -83/-83/-83 -85/-85/-85 -11/-11/-11
f -83/-83/-83 -9/-9/-9 -74/-74/-74
f -9/-9/-9 -8/-8/-8 -74/-74/-74
f -7/-7/-7 -8/-8/-8 -9/-9/-9
f -74/-74/-74 -8/-8/-8 -7/-7/-7
f -6/-6/-6 -7/-7/-7 -9/-9/-9
f -53/-53/-53 -55/-55/-55 -5/-5/-5
f -53/-53/-53 -4/-4/-4 -46/-46/-46
f -4/-4/-4 -3/-3/-3 -46/-46/-46
f -2/-2/-2 -3/-3/-3 -4/-4/-4
f -46/-46/-46 -3/-3/-3 -2/-2/-2
f -1/-1/-1 -2/-2/-2 -4/-4/-4
f -45/-45/-45 -46/-46/-46 -2/-2/-2

