# Mesh "StandardTreeTrunk2" exported with Unity Assets Bundle Extractor; 108 vertices, 252 indices, 320 bits per vertex
g StandardTreeTrunk2
# SubMesh 0
# Vertices
v -17.183041 8.523839 -9.745696
vt 0.789378 0.062294
vn -0.767848 -0.194769 -0.610307
v -17.172316 8.838080 -9.631593
vt 0.843909 0.126735
vn -0.640447 0.192414 0.743508
v -17.169197 8.555702 -9.594213
vt 0.831336 0.056828
vn -0.642585 0.093568 0.760480
v -17.189932 8.797532 -9.824368
vt 0.799068 0.136009
vn -0.766412 -0.097525 -0.634903
v -17.142797 9.077595 -9.702044
vt 0.855119 0.185371
vn -0.633368 0.276610 0.722725
v -17.157398 9.043990 -9.861806
vt 0.814299 0.195282
vn -0.758919 -0.012353 -0.651068
v -17.048832 9.975546 -9.946052
vt 0.901607 0.420483
vn -0.629410 0.303070 0.715536
v -17.055351 9.960544 -10.017376
vt 0.883507 0.425299
vn -0.757311 -0.009391 -0.652987
v -16.934826 10.601767 -10.149192
vt 0.935006 0.588750
vn 0.089413 0.969160 -0.229638
v -16.934826 10.601767 -10.149192
vt 0.935006 0.588750
vn 0.089413 0.969160 -0.229638
v -16.982584 9.955129 -10.022886
vt 0.939095 0.417810
vn 0.641854 -0.161261 -0.749679
v -16.976067 9.970131 -9.951563
vt 0.920250 0.418376
vn 0.768796 0.151934 0.621183
v -16.979805 9.065466 -9.714388
vt 0.896575 0.178988
vn 0.768207 0.172307 0.616578
v -16.994404 9.031861 -9.874150
vt 0.938780 0.176214
vn 0.642663 -0.116657 -0.757215
v -16.975643 8.823444 -9.646486
vt 0.888515 0.118310
vn 0.765844 0.087768 0.637009
v -16.993259 8.782896 -9.839261
vt 0.936580 0.109368
vn 0.639881 -0.202171 -0.741403
v -17.014650 8.544202 -9.605918
vt 0.872034 0.049116
vn 0.755928 -0.010497 0.654571
v -17.028494 8.512339 -9.757400
vt 0.911663 0.038494
vn 0.630664 -0.298832 -0.716214
v -17.169197 8.555702 -9.594213
vt 0.831336 0.056828
vn -0.642585 0.093568 0.760480
v -16.975643 8.823444 -9.646486
vt 0.888515 0.118310
vn 0.765844 0.087768 0.637009
v -17.014650 8.544202 -9.605918
vt 0.872034 0.049116
vn 0.755928 -0.010497 0.654571
v -17.172316 8.838080 -9.631593
vt 0.843909 0.126735
vn -0.640447 0.192414 0.743508
v -16.979805 9.065466 -9.714388
vt 0.896575 0.178988
vn 0.768207 0.172307 0.616578
v -17.142797 9.077595 -9.702044
vt 0.855119 0.185371
vn -0.633368 0.276610 0.722725
v -16.976067 9.970131 -9.951563
vt 0.920250 0.418376
vn 0.768796 0.151934 0.621183
v -17.048832 9.975546 -9.946052
vt 0.901607 0.420483
vn -0.629410 0.303070 0.715536
v -16.934826 10.601767 -10.149192
vt 0.935006 0.588750
vn 0.089413 0.969160 -0.229638
v -17.028494 8.512339 -9.757400
vt 0.746944 0.067086
vn 0.630664 -0.298832 -0.716214
v -17.189932 8.797532 -9.824368
vt 0.799068 0.136009
vn -0.766412 -0.097525 -0.634903
v -17.183041 8.523839 -9.745696
vt 0.789378 0.062294
vn -0.767848 -0.194769 -0.610307
v -16.993259 8.782896 -9.839261
vt 0.750080 0.145423
vn 0.639881 -0.202171 -0.741403
v -17.157398 9.043990 -9.861806
vt 0.814299 0.195282
vn -0.758919 -0.012353 -0.651068
v -16.994404 9.031861 -9.874150
vt 0.774073 0.208886
vn 0.642663 -0.116657 -0.757215
v -17.055351 9.960544 -10.017376
vt 0.883507 0.425299
vn -0.757311 -0.009391 -0.652987
v -16.982584 9.955129 -10.022886
vt 0.866027 0.432311
vn 0.641854 -0.161261 -0.749679
v -16.934826 10.601767 -10.149192
vt 0.935006 0.588750
vn 0.089413 0.969160 -0.229638
v -18.171822 8.557786 -9.349085
vt 0.789378 0.062294
vn 0.536053 -0.039740 -0.843248
v -18.415794 8.786608 -9.350030
vt 0.843909 0.126735
vn -0.818135 -0.269411 -0.508008
v -18.318111 8.521914 -9.310789
vt 0.831336 0.056828
vn -0.787742 -0.364344 -0.496706
v -18.229628 8.832258 -9.398766
vt 0.799068 0.136009
vn 0.513021 0.057000 -0.856481
v -18.460777 9.033786 -9.359065
vt 0.855119 0.185371
vn -0.837833 -0.184852 -0.513679
v -18.306494 9.071618 -9.399454
vt 0.814299 0.195282
vn 0.488858 0.140469 -0.860980
v -18.649092 9.948698 -9.405529
vt 0.901607 0.420483
vn -0.843239 -0.157683 -0.513891
v -18.580214 9.965588 -9.423560
vt 0.883507 0.425299
vn 0.489363 0.144196 -0.860076
v -18.745705 10.609760 -9.396669
vt 0.935006 0.588750
vn -0.234159 0.970588 -0.055932
v -18.745705 10.609760 -9.396669
vt 0.935006 0.588750
vn -0.234159 0.970588 -0.055932
v -18.564291 9.976081 -9.352913
vt 0.939095 0.417810
vn 0.809376 0.299828 0.504989
v -18.633171 9.959191 -9.334881
vt 0.920250 0.418376
vn -0.525754 -0.002604 0.850633
v -18.425116 9.057290 -9.200818
vt 0.896575 0.178988
vn -0.531169 0.017262 0.847090
v -18.270830 9.095122 -9.241207
vt 0.938780 0.176214
vn 0.795525 0.342583 0.499776
v -18.372761 8.814970 -9.159084
vt 0.888515 0.118310
vn -0.510436 -0.066617 0.857332
v -18.186596 8.860620 -9.207819
vt 0.936580 0.109368
vn 0.820716 0.259792 0.508855
v -18.284296 8.544201 -9.160744
vt 0.872034 0.049116
vn -0.481746 -0.162668 0.861081
v -18.138008 8.580072 -9.199039
vt 0.911663 0.038494
vn 0.842041 0.161931 0.514534
v -18.318111 8.521914 -9.310789
vt 0.831336 0.056828
vn -0.787742 -0.364344 -0.496706
v -18.372761 8.814970 -9.159084
vt 0.888515 0.118310
vn -0.510436 -0.066617 0.857332
v -18.284296 8.544201 -9.160744
vt 0.872034 0.049116
vn -0.481746 -0.162668 0.861081
v -18.415794 8.786608 -9.350030
vt 0.843909 0.126735
vn -0.818135 -0.269411 -0.508008
v -18.425116 9.057290 -9.200818
vt 0.896575 0.178988
vn -0.531169 0.017262 0.847090
v -18.460777 9.033786 -9.359065
vt 0.855119 0.185371
vn -0.837833 -0.184852 -0.513679
v -18.633171 9.959191 -9.334881
vt 0.920250 0.418376
vn -0.525754 -0.002604 0.850633
v -18.649092 9.948698 -9.405529
vt 0.901607 0.420483
vn -0.843239 -0.157683 -0.513891
v -18.745705 10.609760 -9.396669
vt 0.935006 0.588750
vn -0.234159 0.970588 -0.055932
v -18.138008 8.580072 -9.199039
vt 0.746944 0.067086
vn 0.842041 0.161931 0.514534
v -18.229628 8.832258 -9.398766
vt 0.799068 0.136009
vn 0.513021 0.057000 -0.856481
v -18.171822 8.557786 -9.349085
vt 0.789378 0.062294
vn 0.536053 -0.039740 -0.843248
v -18.186596 8.860620 -9.207819
vt 0.750080 0.145423
vn 0.820716 0.259792 0.508855
v -18.306494 9.071618 -9.399454
vt 0.814299 0.195282
vn 0.488858 0.140469 -0.860980
v -18.270830 9.095122 -9.241207
vt 0.774073 0.208886
vn 0.795525 0.342583 0.499776
v -18.580214 9.965588 -9.423560
vt 0.883507 0.425299
vn 0.489363 0.144196 -0.860076
v -18.564291 9.976081 -9.352913
vt 0.866027 0.432311
vn 0.809376 0.299828 0.504989
v -18.745705 10.609760 -9.396669
vt 0.935006 0.588750
vn -0.234159 0.970588 -0.055932
v -15.389830 8.291149 -6.718372
vt 0.789360 0.062387
vn 0.919353 -0.275081 0.281283
v -15.414210 8.689670 -6.893281
vt 0.843904 0.126759
vn 0.307548 0.054558 -0.949967
v -15.480293 8.324391 -6.896503
vt 0.831324 0.056886
vn 0.291178 -0.044248 -0.955645
v -15.299088 8.647366 -6.666594
vt 0.799056 0.136067
vn 0.939217 -0.177559 0.293842
v -15.376084 9.008458 -6.828060
vt 0.855107 0.185429
vn 0.319245 0.139842 -0.937297
v -15.280676 8.973398 -6.640192
vt 0.814308 0.195237
vn 0.948797 -0.091498 0.302345
v -15.223840 10.198961 -6.615986
vt 0.901602 0.420507
vn 0.321608 0.166940 -0.932040
v -15.181246 10.183310 -6.532115
vt 0.883495 0.425357
vn 0.948448 -0.088233 0.304404
v -15.157930 11.040953 -6.404229
vt 0.935008 0.588739
vn 0.123623 0.982371 0.140232
v -15.157930 11.040953 -6.404229
vt 0.935008 0.588739
vn 0.123623 0.982371 0.140232
v -15.265415 10.190941 -6.487946
vt 0.939098 0.417799
vn -0.302720 -0.023263 0.952796
v -15.308009 10.206593 -6.571817
vt 0.920266 0.418297
vn -0.929555 0.232369 -0.286239
v -15.564619 9.025552 -6.729122
vt 0.896577 0.178977
vn -0.924801 0.252636 -0.284461
v -15.469211 8.990492 -6.541254
vt 0.938775 0.176238
vn -0.295248 0.021295 0.955183
v -15.641704 8.710295 -6.773900
vt 0.888504 0.118369
vn -0.940680 0.167729 -0.294936
v -15.526581 8.667991 -6.547212
vt 0.936569 0.109427
vn -0.309011 -0.064388 0.948876
v -15.659058 8.340599 -6.802693
vt 0.872023 0.049175
vn -0.950144 0.068294 -0.304240
v -15.568594 8.307357 -6.624562
vt 0.911672 0.038449
vn -0.321971 -0.162540 0.932692
v -15.480293 8.324391 -6.896503
vt 0.831324 0.056886
vn 0.291178 -0.044248 -0.955645
v -15.641704 8.710295 -6.773900
vt 0.888504 0.118369
vn -0.940680 0.167729 -0.294936
v -15.659058 8.340599 -6.802693
vt 0.872023 0.049175
vn -0.950144 0.068294 -0.304240
v -15.414210 8.689670 -6.893281
vt 0.843904 0.126759
vn 0.307548 0.054558 -0.949967
v -15.564619 9.025552 -6.729122
vt 0.896577 0.178977
vn -0.924801 0.252636 -0.284461
v -15.376084 9.008458 -6.828060
vt 0.855107 0.185429
vn 0.319245 0.139842 -0.937297
v -15.308009 10.206593 -6.571817
vt 0.920266 0.418297
vn -0.929555 0.232369 -0.286239
v -15.223840 10.198961 -6.615986
vt 0.901602 0.420507
vn 0.321608 0.166940 -0.932040
v -15.157930 11.040953 -6.404229
vt 0.935008 0.588739
vn 0.123623 0.982371 0.140232
v -15.568594 8.307357 -6.624562
vt 0.746899 0.067312
vn -0.321971 -0.162540 0.932692
v -15.299088 8.647366 -6.666594
vt 0.799056 0.136067
vn 0.939217 -0.177559 0.293842
v -15.389830 8.291149 -6.718372
vt 0.789360 0.062387
vn 0.919353 -0.275081 0.281283
v -15.526581 8.667991 -6.547212
vt 0.750080 0.145421
vn -0.309011 -0.064388 0.948876
v -15.280676 8.973398 -6.640192
vt 0.814308 0.195237
vn 0.948797 -0.091498 0.302345
v -15.469211 8.990492 -6.541254
vt 0.774096 0.208772
vn -0.295248 0.021295 0.955183
v -15.181246 10.183310 -6.532115
vt 0.883495 0.425357
vn 0.948448 -0.088233 0.304404
v -15.265415 10.190941 -6.487946
vt 0.866036 0.432266
vn -0.302720 -0.023263 0.952796
v -15.157930 11.040953 -6.404229
vt 0.935008 0.588739
vn 0.123623 0.982371 0.140232
# Faces (1 to 108)
g StandardTreeTrunk2_0
f -106/-106/-106 -107/-107/-107 -108/-108/-108
f -107/-107/-107 -105/-105/-105 -108/-108/-108
f -107/-107/-107 -104/-104/-104 -105/-105/-105
f -104/-104/-104 -103/-103/-103 -105/-105/-105
f -104/-104/-104 -102/-102/-102 -103/-103/-103
f -102/-102/-102 -101/-101/-101 -103/-103/-103
f -102/-102/-102 -100/-100/-100 -101/-101/-101
f -97/-97/-97 -98/-98/-98 -99/-99/-99
f -97/-97/-97 -96/-96/-96 -98/-98/-98
f -96/-96/-96 -95/-95/-95 -98/-98/-98
f -96/-96/-96 -94/-94/-94 -95/-95/-95
f -94/-94/-94 -93/-93/-93 -95/-95/-95
f -94/-94/-94 -92/-92/-92 -93/-93/-93
f -92/-92/-92 -91/-91/-91 -93/-93/-93
f -88/-88/-88 -89/-89/-89 -90/-90/-90
f -89/-89/-89 -87/-87/-87 -90/-90/-90
f -89/-89/-89 -86/-86/-86 -87/-87/-87
f -86/-86/-86 -85/-85/-85 -87/-87/-87
f -86/-86/-86 -84/-84/-84 -85/-85/-85
f -84/-84/-84 -83/-83/-83 -85/-85/-85
f -84/-84/-84 -82/-82/-82 -83/-83/-83
f -79/-79/-79 -80/-80/-80 -81/-81/-81
f -80/-80/-80 -78/-78/-78 -81/-81/-81
f -80/-80/-80 -77/-77/-77 -78/-78/-78
f -77/-77/-77 -76/-76/-76 -78/-78/-78
f -77/-77/-77 -75/-75/-75 -76/-76/-76
f -75/-75/-75 -74/-74/-74 -76/-76/-76
f -75/-75/-75 -73/-73/-73 -74/-74/-74
f -70/-70/-70 -71/-71/-71 -72/-72/-72
f -71/-71/-71 -69/-69/-69 -72/-72/-72
f -71/-71/-71 -68/-68/-68 -69/-69/-69
f -68/-68/-68 -67/-67/-67 -69/-69/-69
f -68/-68/-68 -66/-66/-66 -67/-67/-67
f -66/-66/-66 -65/-65/-65 -67/-67/-67
f -66/-66/-66 -64/-64/-64 -65/-65/-65
f -61/-61/-61 -62/-62/-62 -63/-63/-63
f -61/-61/-61 -60/-60/-60 -62/-62/-62
f -60/-60/-60 -59/-59/-59 -62/-62/-62
f -60/-60/-60 -58/-58/-58 -59/-59/-59
f -58/-58/-58 -57/-57/-57 -59/-59/-59
f -58/-58/-58 -56/-56/-56 -57/-57/-57
f -56/-56/-56 -55/-55/-55 -57/-57/-57
f -52/-52/-52 -53/-53/-53 -54/-54/-54
f -53/-53/-53 -51/-51/-51 -54/-54/-54
f -53/-53/-53 -50/-50/-50 -51/-51/-51
f -50/-50/-50 -49/-49/-49 -51/-51/-51
f -50/-50/-50 -48/-48/-48 -49/-49/-49
f -48/-48/-48 -47/-47/-47 -49/-49/-49
f -48/-48/-48 -46/-46/-46 -47/-47/-47
f -43/-43/-43 -44/-44/-44 -45/-45/-45
f -44/-44/-44 -42/-42/-42 -45/-45/-45
f -44/-44/-44 -41/-41/-41 -42/-42/-42
f -41/-41/-41 -40/-40/-40 -42/-42/-42
f -41/-41/-41 -39/-39/-39 -40/-40/-40
f -39/-39/-39 -38/-38/-38 -40/-40/-40
f -39/-39/-39 -37/-37/-37 -38/-38/-38
f -34/-34/-34 -35/-35/-35 -36/-36/-36
f -35/-35/-35 -33/-33/-33 -36/-36/-36
f -35/-35/-35 -32/-32/-32 -33/-33/-33
f -32/-32/-32 -31/-31/-31 -33/-33/-33
f -32/-32/-32 -30/-30/-30 -31/-31/-31
f -30/-30/-30 -29/-29/-29 -31/-31/-31
f -30/-30/-30 -28/-28/-28 -29/-29/-29
f -25/-25/-25 -26/-26/-26 -27/-27/-27
f -25/-25/-25 -24/-24/-24 -26/-26/-26
f -24/-24/-24 -23/-23/-23 -26/-26/-26
f -24/-24/-24 -22/-22/-22 -23/-23/-23
f -22/-22/-22 -21/-21/-21 -23/-23/-23
f -22/-22/-22 -20/-20/-20 -21/-21/-21
f -20/-20/-20 -19/-19/-19 -21/-21/-21
f -16/-16/-16 -17/-17/-17 -18/-18/-18
f -17/-17/-17 -15/-15/-15 -18/-18/-18
f -17/-17/-17 -14/-14/-14 -15/-15/-15
f -14/-14/-14 -13/-13/-13 -15/-15/-15
f -14/-14/-14 -12/-12/-12 -13/-13/-13
f -12/-12/-12 -11/-11/-11 -13/-13/-13
f -12/-12/-12 -10/-10/-10 -11/-11/-11
f -7/-7/-7 -8/-8/-8 -9/-9/-9
f -8/-8/-8 -6/-6/-6 -9/-9/-9
f -8/-8/-8 -5/-5/-5 -6/-6/-6
f -5/-5/-5 -4/-4/-4 -6/-6/-6
f -5/-5/-5 -3/-3/-3 -4/-4/-4
f -3/-3/-3 -2/-2/-2 -4/-4/-4
f -3/-3/-3 -1/-1/-1 -2/-2/-2

