# Mesh "StoneRamp" exported with Unity Assets Bundle Extractor; 122 vertices, 282 indices, 448 bits per vertex
g StoneRamp
# SubMesh 0
# Vertices
v 0.040044 2.111530 -12.795390
vt 0.692927 0.254068
vn 0.272579 0.960136 0.061962
v -6.430378 3.793338 -6.265216
vt 0.335031 0.470904
vn 0.364809 0.927077 0.086269
v -4.825903 3.793338 -13.545995
vt 0.664488 0.487665
vn 0.366737 0.926260 0.086869
v -1.806689 2.111530 -4.784710
vt 0.318627 0.241679
vn 0.272766 0.960081 0.062002
v -10.868202 5.930962 -7.823872
vt 0.352839 0.692736
vn 0.478716 0.869986 0.118133
v -9.077587 5.936040 -14.398608
vt 0.641540 0.696672
vn 0.478742 0.869971 0.118140
v -12.687915 8.324226 -15.294675
vt 0.629679 0.873393
vn 0.541411 0.830008 0.134017
v -14.378398 8.497457 -8.847677
vt 0.359132 0.873018
vn 0.541411 0.830008 0.134017
v 4.574843 0.999887 -12.227788
vt 0.720011 0.027951
vn 0.231027 0.971504 0.052980
v 2.563669 0.999887 -3.415678
vt 0.306079 0.027188
vn 0.775769 0.587983 0.229038
v 0.295836 2.900528 -13.335240
vt 0.759836 0.263917
vn 0.146146 0.015511 -0.989141
v -4.708354 3.197589 -14.176017
vt 0.789019 0.493952
vn 0.177267 0.014180 -0.984061
v 0.148812 1.375021 -13.372223
vt 0.831464 0.261410
vn 0.141871 0.015091 -0.989770
v -4.478249 4.566479 -14.097770
vt 0.726386 0.498524
vn 0.180823 0.013052 -0.983429
v -9.142557 5.376729 -15.000195
vt 0.758233 0.706589
vn 0.204751 0.000936 -0.978814
v 4.700652 0.999887 -12.824044
vt 0.825468 0.049294
vn 0.120811 0.013019 -0.992590
v 4.647216 2.003451 -12.816465
vt 0.789813 0.051227
vn 0.120811 0.013019 -0.992590
v 0.043906 -0.589867 -13.366621
vt 0.919910 0.255875
vn 0.144503 -0.005407 -0.989489
v 4.700652 0.999887 -12.824044
vt 0.825468 0.049294
vn 0.994763 0.018914 -0.100443
v -5.195899 0.580424 -14.271181
vt 0.903847 0.490130
vn 0.175360 0.000693 -0.984504
v -9.882507 2.966332 -15.160205
vt 0.860550 0.703636
vn 0.208871 0.002776 -0.977939
v -12.451005 8.434551 -15.803466
vt 0.708977 0.870251
vn 0.241800 -0.010905 -0.970265
v -8.707337 6.699373 -14.922136
vt 0.699991 0.710035
vn 0.209952 -0.002507 -0.977708
v -4.478249 4.566479 -14.097770
vt 0.726386 0.498524
vn 0.180823 0.013052 -0.983429
v -12.270780 9.345354 -15.767136
vt 0.680668 0.876623
vn 0.245591 -0.010714 -0.969314
v -15.107282 9.404127 -16.538305
vt 0.694845 0.969492
vn 0.263285 -0.009817 -0.964668
v -15.107273 8.519727 -16.532892
vt 0.727930 0.963281
vn 0.263285 -0.009817 -0.964668
v -12.807853 5.954287 -15.921034
vt 0.795600 0.851606
vn 0.249457 0.000362 -0.968386
v -14.328581 6.191779 -16.304533
vt 0.811363 0.939057
vn 0.257483 0.000325 -0.966283
v 4.647216 2.003451 -12.816465
vt 0.789813 0.051227
vn 0.760012 0.640233 0.111729
v 4.574843 0.999887 -12.227788
vt 0.825032 0.022670
vn 0.987121 0.021777 0.158485
v 4.587147 2.003451 -12.254976
vt 0.788714 0.025948
vn 0.764505 0.634718 0.112543
v 0.295836 2.900528 -13.335240
vt 0.759836 0.263917
vn 0.263943 0.964062 0.030307
v 4.587147 2.003451 -12.254976
vt 0.764090 0.046281
vn 0.764505 0.634718 0.112543
v 0.261718 2.900528 -12.724498
vt 0.731402 0.258049
vn 0.257939 0.965727 0.028955
v -4.478249 4.566479 -14.097770
vt 0.726386 0.498524
vn 0.376780 0.923876 0.067005
v -4.601201 4.566479 -13.539678
vt 0.700176 0.496082
vn 0.379587 0.922639 0.068204
v -8.707337 6.699373 -14.922136
vt 0.699991 0.710035
vn 0.507200 0.855704 0.102565
v -8.828036 6.699373 -14.327945
vt 0.674362 0.706930
vn 0.506218 0.856302 0.102421
v -12.270780 9.345354 -15.767136
vt 0.680668 0.876623
vn 0.294541 0.952873 0.072655
v -12.371903 9.345290 -15.225240
vt 0.663977 0.875740
vn 0.315913 0.945757 0.075785
v -8.707337 6.699373 -14.922136
vt 0.699991 0.710035
vn 0.507200 0.855704 0.102565
v -15.107282 9.404127 -16.538305
vt 0.694845 0.969492
vn 0.007464 0.999545 0.029240
v -12.270780 9.345354 -15.767136
vt 0.680668 0.876623
vn 0.294541 0.952873 0.072655
v -12.371903 9.345290 -15.225240
vt 0.663977 0.875740
vn 0.315913 0.945757 0.075785
v -15.263758 9.372512 -15.931524
vt 0.671378 0.971496
vn 0.007464 0.999545 0.029240
v -6.650874 3.105163 -5.692077
vt 0.205952 0.471009
vn -0.317696 -0.003390 0.948187
v -2.179491 -0.939279 -4.298495
vt 0.084836 0.230488
vn -0.310732 -0.011046 0.950433
v -7.218547 0.215474 -5.916504
vt 0.080090 0.461690
vn -0.316039 -0.004809 0.948734
v -1.928135 1.546078 -4.189848
vt 0.194295 0.240517
vn -0.311047 -0.010943 0.950332
v -11.304678 5.462477 -7.346031
vt 0.233734 0.704447
vn -0.307869 -0.001713 0.951427
v -12.608850 2.810523 -7.745249
vt 0.111892 0.718955
vn -0.309995 -0.001078 0.950738
v 2.383013 0.951269 -2.764482
vt 0.198211 0.035962
vn 0.808623 -0.002928 0.588319
v -15.490522 5.566078 -8.619573
vt 0.167809 0.865672
vn -0.290481 -0.006405 0.956859
v -14.680214 8.163881 -8.338471
vt 0.267492 0.870808
vn -0.290319 -0.006346 0.956909
v -16.990175 8.288197 -9.055930
vt 0.248341 0.955459
vn -0.289466 -0.006036 0.957169
v -16.238436 5.928352 -8.823803
vt 0.162016 0.927604
vn -0.289466 -0.006036 0.957169
v -6.260900 4.548323 -5.595836
vt 0.271755 0.472856
vn -0.316075 0.007760 0.948702
v -1.835552 2.878852 -4.153485
vt 0.255009 0.248458
vn -0.307647 0.004620 0.951489
v 2.383013 0.951269 -2.764482
vt 0.198211 0.035962
vn -0.312287 0.001105 0.949987
v 2.366174 1.903352 -2.778604
vt 0.238651 0.041902
vn -0.312287 0.001105 0.949987
v -10.844641 6.720749 -7.171844
vt 0.291741 0.706025
vn -0.309913 -0.004568 0.950754
v -14.327881 9.473989 -8.220364
vt 0.310424 0.877458
vn -0.297879 -0.007169 0.954577
v -16.990009 9.510712 -9.063487
vt 0.294583 0.965742
vn -0.299463 0.000033 0.954108
v 2.583153 1.903352 -3.411261
vt 0.243526 0.014244
vn 0.747796 0.620666 0.235743
v 2.563669 0.999887 -3.415678
vt 0.204941 0.007468
vn 0.775769 0.587983 0.229038
v 2.366174 1.903352 -2.778604
vt 0.238651 0.041902
vn 0.742562 0.627509 0.234168
v -1.645011 2.878852 -4.713782
vt 0.282550 0.246118
vn 0.263012 0.961272 0.082347
v 2.583153 1.903352 -3.411261
vt 0.267736 0.039017
vn 0.747796 0.620666 0.235743
v -1.835552 2.878852 -4.153485
vt 0.255009 0.248458
vn 0.264143 0.960941 0.082589
v -6.111813 4.548323 -6.188237
vt 0.298869 0.472702
vn 0.359195 0.926598 0.111336
v -6.260900 4.548323 -5.595836
vt 0.271755 0.472856
vn 0.356002 0.927999 0.109913
v -10.844641 6.720749 -7.171844
vt 0.291741 0.706025
vn 0.484116 0.857741 0.172950
v -10.619377 6.720749 -7.744027
vt 0.318286 0.702406
vn 0.478132 0.861704 0.169868
v -10.844641 6.720749 -7.171844
vt 0.291741 0.706025
vn 0.484116 0.857741 0.172950
v -14.125744 9.473989 -8.771388
vt 0.328358 0.876840
vn 0.310853 0.943086 0.118148
v -14.327881 9.473989 -8.220364
vt 0.310424 0.877458
vn 0.294952 0.948915 0.112090
v -14.327881 9.473989 -8.220364
vt 0.310424 0.877458
vn 0.294952 0.948915 0.112090
v -16.779194 9.510713 -9.663368
vt 0.318810 0.967875
vn 0.012367 0.999914 0.004438
v -16.990009 9.510712 -9.063487
vt 0.294583 0.965742
vn 0.012367 0.999914 0.004438
v -16.779194 9.510713 -9.663368
vt 0.318810 0.967875
vn 0.012367 0.999914 0.004438
v -1.645011 2.878852 -4.713782
vt 0.282550 0.246118
vn 0.303474 0.002755 -0.952836
v -6.430378 3.793338 -6.265216
vt 0.335031 0.470904
vn 0.313728 -0.013058 -0.949423
v -1.806689 2.111530 -4.784710
vt 0.318627 0.241679
vn 0.303161 0.003310 -0.952933
v 2.563669 0.999887 -3.415678
vt 0.306079 0.027188
vn 0.299038 0.010605 -0.954182
v -10.619377 6.720749 -7.744027
vt 0.318286 0.702406
vn 0.299326 -0.006833 -0.954126
v -10.868202 5.930962 -7.823872
vt 0.352839 0.692736
vn 0.304093 -0.010203 -0.952588
v -14.378398 8.497457 -8.847677
vt 0.359132 0.873018
vn 0.302923 0.003559 -0.953008
v -14.125744 9.473989 -8.771388
vt 0.328358 0.876840
vn 0.304253 0.003511 -0.952585
v -16.777344 8.432985 -9.678761
vt 0.359753 0.969638
vn 0.322769 0.002834 -0.946474
v -16.779194 9.510713 -9.663368
vt 0.318810 0.967875
vn 0.322769 0.002834 -0.946474
v -6.430378 3.793338 -6.265216
vt 0.335031 0.470904
vn 0.313728 -0.013058 -0.949423
v -6.111813 4.548323 -6.188237
vt 0.298869 0.472702
vn 0.313529 -0.012782 -0.949493
v -1.645011 2.878852 -4.713782
vt 0.282550 0.246118
vn 0.303474 0.002755 -0.952836
v 2.583153 1.903352 -3.411261
vt 0.267736 0.039017
vn 0.299038 0.010605 -0.954182
v -4.601201 4.566479 -13.539678
vt 0.700176 0.496082
vn -0.173893 0.002941 0.984760
v 0.040044 2.111530 -12.795390
vt 0.692927 0.254068
vn -0.139093 -0.005937 0.990262
v -4.825903 3.793338 -13.545995
vt 0.664488 0.487665
vn -0.172006 0.002124 0.985094
v -8.828036 6.699373 -14.327945
vt 0.674362 0.706930
vn -0.218140 0.003981 0.975909
v -4.601201 4.566479 -13.539678
vt 0.700176 0.496082
vn -0.173893 0.002941 0.984760
v 0.261718 2.900528 -12.724498
vt 0.731402 0.258049
vn -0.138876 -0.005966 0.990292
v 0.040044 2.111530 -12.795390
vt 0.692927 0.254068
vn -0.139093 -0.005937 0.990262
v 4.574843 0.999887 -12.227788
vt 0.720011 0.027951
vn -0.118219 -0.008778 0.992949
v -4.825903 3.793338 -13.545995
vt 0.664488 0.487665
vn -0.172006 0.002124 0.985094
v -9.077587 5.936040 -14.398608
vt 0.641540 0.696672
vn -0.210917 0.004931 0.977492
v -8.828036 6.699373 -14.327945
vt 0.674362 0.706930
vn -0.218140 0.003981 0.975909
v -12.371903 9.345290 -15.225240
vt 0.663977 0.875740
vn -0.242801 -0.003490 0.970070
v -9.077587 5.936040 -14.398608
vt 0.641540 0.696672
vn -0.210917 0.004931 0.977492
v -12.687915 8.324226 -15.294675
vt 0.629679 0.873393
vn -0.242802 -0.003522 0.970069
v -15.263758 9.372512 -15.931524
vt 0.671378 0.971496
vn -0.242938 -0.007650 0.970012
v -15.244547 8.274906 -15.953131
vt 0.630379 0.972063
vn -0.242938 -0.007650 0.970012
v 0.261718 2.900528 -12.724498
vt 0.731402 0.258049
vn -0.138876 -0.005966 0.990292
v 4.587147 2.003451 -12.254976
vt 0.764090 0.046281
vn -0.118219 -0.008778 0.992949
v 4.574843 0.999887 -12.227788
vt 0.720011 0.027951
vn -0.118219 -0.008778 0.992949
v -15.107273 8.519727 -16.532892
vt 0.727930 0.963281
vn -0.970263 -0.007432 -0.241938
v -15.263758 9.372512 -15.931524
vt 0.700506 0.992668
vn -0.970263 -0.007432 -0.241938
v -15.244547 8.274906 -15.953131
vt 0.741378 0.983848
vn -0.970263 -0.007432 -0.241938
v -15.107282 9.404127 -16.538305
vt 0.694845 0.969492
vn -0.970263 -0.007432 -0.241938
v -16.990009 9.510712 -9.063487
vt 0.294583 0.965742
vn -0.944906 0.000423 -0.327342
v -16.777344 8.432985 -9.678761
vt 0.248492 0.981576
vn -0.944906 0.000423 -0.327342
v -16.779194 9.510713 -9.663368
vt 0.289397 0.989749
vn -0.944906 0.000423 -0.327342
v -16.990175 8.288197 -9.055930
vt 0.248341 0.955459
vn -0.944906 0.000423 -0.327342
# Faces (1 to 122)
g StoneRamp_0
f -120/-120/-120 -121/-121/-121 -122/-122/-122
f -121/-121/-121 -119/-119/-119 -122/-122/-122
f -118/-118/-118 -121/-121/-121 -120/-120/-120
f -117/-117/-117 -118/-118/-118 -120/-120/-120
f -117/-117/-117 -116/-116/-116 -118/-118/-118
f -116/-116/-116 -115/-115/-115 -118/-118/-118
f -122/-122/-122 -119/-119/-119 -114/-114/-114
f -119/-119/-119 -113/-113/-113 -114/-114/-114
f -110/-110/-110 -111/-111/-111 -112/-112/-112
f -111/-111/-111 -109/-109/-109 -112/-112/-112
f -109/-109/-109 -111/-111/-111 -108/-108/-108
f -110/-110/-110 -112/-112/-112 -107/-107/-107
f -112/-112/-112 -106/-106/-106 -107/-107/-107
f -110/-110/-110 -105/-105/-105 -111/-111/-111
f -105/-105/-105 -110/-110/-110 -104/-104/-104
f -105/-105/-105 -103/-103/-103 -111/-111/-111
f -108/-108/-108 -111/-111/-111 -102/-102/-102
f -111/-111/-111 -103/-103/-103 -102/-102/-102
f -108/-108/-108 -102/-102/-102 -101/-101/-101
f -108/-108/-108 -101/-101/-101 -100/-100/-100
f -100/-100/-100 -99/-99/-99 -108/-108/-108
f -101/-101/-101 -98/-98/-98 -100/-100/-100
f -97/-97/-97 -98/-98/-98 -101/-101/-101
f -96/-96/-96 -97/-97/-97 -101/-101/-101
f -102/-102/-102 -95/-95/-95 -101/-101/-101
f -96/-96/-96 -101/-101/-101 -95/-95/-95
f -94/-94/-94 -96/-96/-96 -95/-95/-95
f -92/-92/-92 -104/-104/-104 -93/-93/-93
f -91/-91/-91 -92/-92/-92 -93/-93/-93
f -89/-89/-89 -93/-93/-93 -90/-90/-90
f -88/-88/-88 -89/-89/-89 -90/-90/-90
f -88/-88/-88 -90/-90/-90 -87/-87/-87
f -86/-86/-86 -88/-88/-88 -87/-87/-87
f -87/-87/-87 -85/-85/-85 -86/-86/-86
f -85/-85/-85 -84/-84/-84 -86/-86/-86
f -82/-82/-82 -84/-84/-84 -83/-83/-83
f -84/-84/-84 -81/-81/-81 -83/-83/-83
f -82/-82/-82 -79/-79/-79 -80/-80/-80
f -77/-77/-77 -78/-78/-78 -80/-80/-80
f -74/-74/-74 -75/-75/-75 -76/-76/-76
f -75/-75/-75 -73/-73/-73 -76/-76/-76
f -76/-76/-76 -72/-72/-72 -74/-74/-74
f -72/-72/-72 -71/-71/-71 -74/-74/-74
f -75/-75/-75 -70/-70/-70 -73/-73/-73
f -71/-71/-71 -72/-72/-72 -69/-69/-69
f -72/-72/-72 -68/-68/-68 -69/-69/-69
f -69/-69/-69 -68/-68/-68 -67/-67/-67
f -66/-66/-66 -69/-69/-69 -67/-67/-67
f -76/-76/-76 -73/-73/-73 -65/-65/-65
f -76/-76/-76 -65/-65/-65 -72/-72/-72
f -73/-73/-73 -64/-64/-64 -65/-65/-65
f -73/-73/-73 -63/-63/-63 -64/-64/-64
f -63/-63/-63 -62/-62/-62 -64/-64/-64
f -65/-65/-65 -61/-61/-61 -72/-72/-72
f -72/-72/-72 -61/-61/-61 -68/-68/-68
f -61/-61/-61 -60/-60/-60 -68/-68/-68
f -67/-67/-67 -68/-68/-68 -59/-59/-59
f -68/-68/-68 -60/-60/-60 -59/-59/-59
f -57/-57/-57 -58/-58/-58 -70/-70/-70
f -58/-58/-58 -56/-56/-56 -70/-70/-70
f -54/-54/-54 -55/-55/-55 -56/-56/-56
f -55/-55/-55 -53/-53/-53 -56/-56/-56
f -55/-55/-55 -52/-52/-52 -53/-53/-53
f -52/-52/-52 -51/-51/-51 -53/-53/-53
f -50/-50/-50 -51/-51/-51 -52/-52/-52
f -49/-49/-49 -50/-50/-50 -52/-52/-52
f -49/-49/-49 -47/-47/-47 -48/-48/-48
f -47/-47/-47 -46/-46/-46 -50/-50/-50
f -47/-47/-47 -44/-44/-44 -45/-45/-45
f -42/-42/-42 -43/-43/-43 -46/-46/-46
f -39/-39/-39 -40/-40/-40 -41/-41/-41
f -39/-39/-39 -41/-41/-41 -38/-38/-38
f -36/-36/-36 -37/-37/-37 -40/-40/-40
f -36/-36/-36 -35/-35/-35 -37/-37/-37
f -35/-35/-35 -34/-34/-34 -37/-37/-37
f -35/-35/-35 -33/-33/-33 -34/-34/-34
f -33/-33/-33 -32/-32/-32 -34/-34/-34
f -37/-37/-37 -30/-30/-30 -31/-31/-31
f -31/-31/-31 -30/-30/-30 -29/-29/-29
f -29/-29/-29 -28/-28/-28 -38/-38/-38
f -25/-25/-25 -26/-26/-26 -27/-27/-27
f -27/-27/-27 -24/-24/-24 -25/-25/-25
f -21/-21/-21 -22/-22/-22 -23/-23/-23
f -21/-21/-21 -20/-20/-20 -22/-22/-22
f -17/-17/-17 -18/-18/-18 -19/-19/-19
f -15/-15/-15 -17/-17/-17 -16/-16/-16
f -14/-14/-14 -15/-15/-15 -16/-16/-16
f -14/-14/-14 -16/-16/-16 -13/-13/-13
f -12/-12/-12 -14/-14/-14 -13/-13/-13
f -9/-9/-9 -10/-10/-10 -11/-11/-11
f -6/-6/-6 -7/-7/-7 -8/-8/-8
f -7/-7/-7 -5/-5/-5 -8/-8/-8
f -2/-2/-2 -3/-3/-3 -4/-4/-4
f -3/-3/-3 -1/-1/-1 -4/-4/-4

