# Mesh "GroundPiece5" exported with Unity Assets Bundle Extractor; 38 vertices, 108 indices, 448 bits per vertex
g GroundPiece5
# SubMesh 0
# Vertices
v -5.497525 -0.000000 -4.807283
vt -0.351371 4.929854
vn -0.000000 1.000000 0.000000
v -6.599393 -0.000000 -7.511248
vt 0.098854 3.825021
vn -0.000000 1.000000 0.000000
v -5.497525 -0.000000 -7.511248
vt -0.351371 3.825021
vn -0.000000 1.000000 0.000000
v -6.599393 -0.000000 -4.807283
vt 0.098852 4.929856
vn -0.000000 1.000000 0.000000
v 5.497531 -0.000000 -6.911486
vt -4.843854 4.070085
vn -0.000000 1.000000 0.000000
v 5.497531 -0.000000 -4.807283
vt -4.843855 4.929857
vn -0.000000 1.000000 0.000000
v 6.599460 -0.000000 -4.807283
vt -5.294079 4.929859
vn -0.000000 1.000000 0.000000
v 6.599460 -0.000000 -6.911486
vt -5.294079 4.070086
vn -0.000000 1.000000 0.000000
v -5.497525 -0.000000 -2.122438
vt -0.351376 6.026873
vn -0.000000 1.000000 0.000000
v 5.497531 0.000000 -2.122438
vt -4.843852 6.026875
vn -0.000000 1.000000 0.000000
v -5.497525 -0.000000 2.161642
vt -0.351377 7.777334
vn -0.000000 1.000000 0.000000
v -6.599393 -0.000000 -2.122438
vt 0.098832 6.026877
vn -0.000000 1.000000 0.000000
v -6.599393 -0.000000 2.161642
vt 0.098826 7.777329
vn -0.000000 1.000000 0.000000
v 5.497531 -0.000000 2.161642
vt -4.843855 7.777337
vn -0.000000 1.000000 0.000000
v -5.497525 -0.000000 4.934355
vt -0.351378 8.910255
vn -0.000000 1.000000 0.000000
v 5.497531 0.000000 4.934355
vt -4.843854 8.910259
vn -0.000000 1.000000 0.000000
v -5.497525 -0.000000 7.464949
vt -0.351377 9.944245
vn -0.000000 1.000000 0.000000
v -6.599393 -0.000000 4.934355
vt 0.045927 8.910256
vn -0.000000 1.000000 0.000000
v -6.599393 -0.000000 7.464949
vt 0.045926 9.944245
vn -0.000000 1.000000 0.000000
v 5.497531 0.000000 7.255781
vt -4.843855 9.858793
vn -0.000000 1.000000 0.000000
v 6.469821 0.000000 7.255781
vt -5.241160 9.858794
vn -0.000000 1.000000 0.000000
v 6.469821 0.000000 4.934355
vt -5.241160 8.910261
vn -0.000000 1.000000 0.000000
v -5.177091 -0.000000 8.564466
vt -0.482302 10.393507
vn -0.000000 1.000000 0.000000
v -5.497525 -0.000000 8.564466
vt -0.351376 10.393507
vn -0.000000 1.000000 0.000000
v 5.177096 0.000000 8.564466
vt -4.712934 10.393511
vn -0.000000 1.000000 0.000000
v 5.177096 -0.000000 10.964186
vt -4.712886 11.202683
vn -0.000000 1.000000 0.000000
v -5.177091 -0.000000 10.964186
vt -0.482406 11.202683
vn -0.000000 1.000000 0.000000
v 5.497531 0.000000 8.564466
vt -4.843860 10.393511
vn -0.000000 1.000000 0.000000
v -3.092740 -0.000000 -9.977434
vt -1.333951 2.817346
vn -0.000000 1.000000 0.000000
v 3.143893 -0.000000 -10.964190
vt -3.882192 2.414289
vn -0.000000 1.000000 0.000000
v 3.135348 -0.000000 -9.977434
vt -3.878681 2.817353
vn -0.000000 1.000000 0.000000
v -3.092740 -0.000000 -10.964190
vt -1.333955 2.414287
vn -0.000000 1.000000 0.000000
v -5.177091 -0.000000 -8.450487
vt -0.482297 3.441254
vn -0.000000 1.000000 0.000000
v 5.177096 -0.000000 -8.450487
vt -4.712927 3.441256
vn -0.000000 1.000000 0.000000
v 5.177096 -0.000000 -9.977434
vt -4.712926 2.817347
vn -0.000000 1.000000 0.000000
v -5.497525 -0.000000 -8.450487
vt -0.351371 3.441253
vn -0.000000 1.000000 0.000000
v 5.497531 -0.000000 -8.450487
vt -4.843853 3.441257
vn -0.000000 1.000000 0.000000
v -5.177091 -0.000000 -9.977434
vt -0.482474 2.817548
vn -0.000000 1.000000 0.000000
# Faces (1 to 38)
g GroundPiece5_0
f -36/-36/-36 -37/-37/-37 -38/-38/-38
f -37/-37/-37 -35/-35/-35 -38/-38/-38
f -34/-34/-34 -36/-36/-36 -38/-38/-38
f -33/-33/-33 -34/-34/-34 -38/-38/-38
f -33/-33/-33 -32/-32/-32 -34/-34/-34
f -32/-32/-32 -31/-31/-31 -34/-34/-34
f -33/-33/-33 -38/-38/-38 -30/-30/-30
f -29/-29/-29 -33/-33/-33 -30/-30/-30
f -29/-29/-29 -30/-30/-30 -28/-28/-28
f -30/-30/-30 -27/-27/-27 -28/-28/-28
f -27/-27/-27 -26/-26/-26 -28/-28/-28
f -25/-25/-25 -29/-29/-29 -28/-28/-28
f -25/-25/-25 -28/-28/-28 -24/-24/-24
f -23/-23/-23 -25/-25/-25 -24/-24/-24
f -23/-23/-23 -24/-24/-24 -22/-22/-22
f -24/-24/-24 -21/-21/-21 -22/-22/-22
f -21/-21/-21 -20/-20/-20 -22/-22/-22
f -19/-19/-19 -23/-23/-23 -22/-22/-22
f -19/-19/-19 -18/-18/-18 -23/-23/-23
f -18/-18/-18 -17/-17/-17 -23/-23/-23
f -19/-19/-19 -22/-22/-22 -16/-16/-16
f -22/-22/-22 -15/-15/-15 -16/-16/-16
f -14/-14/-14 -19/-19/-19 -16/-16/-16
f -13/-13/-13 -14/-14/-14 -16/-16/-16
f -12/-12/-12 -13/-13/-13 -16/-16/-16
f -14/-14/-14 -11/-11/-11 -19/-19/-19
f -8/-8/-8 -9/-9/-9 -10/-10/-10
f -9/-9/-9 -7/-7/-7 -10/-10/-10
f -10/-10/-10 -6/-6/-6 -8/-8/-8
f -8/-8/-8 -6/-6/-6 -5/-5/-5
f -5/-5/-5 -4/-4/-4 -8/-8/-8
f -5/-5/-5 -6/-6/-6 -36/-36/-36
f -6/-6/-6 -3/-3/-3 -36/-36/-36
f -34/-34/-34 -5/-5/-5 -36/-36/-36
f -34/-34/-34 -2/-2/-2 -5/-5/-5
f -10/-10/-10 -1/-1/-1 -6/-6/-6

