# Mesh "GroundPiece3" exported with Unity Assets Bundle Extractor; 9 vertices, 21 indices, 448 bits per vertex
g GroundPiece3
# SubMesh 0
# Vertices
v -2.429672 -0.000000 -9.055228
vt -1.333966 -6.368850
vn -0.000000 1.000000 0.000000
v -2.429672 -0.000000 -14.216849
vt -1.333963 -8.477458
vn -0.000000 1.000000 0.000000
v 3.798416 -0.000000 -14.216849
vt -3.878659 -8.477473
vn -0.000000 1.000000 0.000000
v 3.798416 -0.000000 -2.373099
vt -3.878660 -3.639109
vn -0.000000 1.000000 0.000000
v -2.429672 -0.000000 -2.373099
vt -1.333965 -3.639094
vn -0.000000 1.000000 0.000000
v -2.429672 0.000000 14.216805
vt -1.333962 3.138169
vn -0.000000 1.000000 0.000000
v 3.798416 0.000000 14.216805
vt -3.878667 3.138153
vn -0.000000 1.000000 0.000000
v -3.798386 0.000000 -2.373099
vt -0.774745 -3.639097
vn -0.000000 1.000000 0.000000
v -3.798386 -0.000000 -9.055228
vt -0.774749 -6.368840
vn -0.000000 1.000000 0.000000
# Faces (1 to 9)
g GroundPiece3_0
f -7/-7/-7 -8/-8/-8 -9/-9/-9
f -7/-7/-7 -9/-9/-9 -6/-6/-6
f -9/-9/-9 -5/-5/-5 -6/-6/-6
f -5/-5/-5 -4/-4/-4 -6/-6/-6
f -4/-4/-4 -3/-3/-3 -6/-6/-6
f -5/-5/-5 -9/-9/-9 -2/-2/-2
f -9/-9/-9 -1/-1/-1 -2/-2/-2

