# Mesh "GroundPiece4" exported with Unity Assets Bundle Extractor; 14 vertices, 30 indices, 448 bits per vertex
g GroundPiece4
# SubMesh 0
# Vertices
v 22.589602 -0.000000 -12.419419
vt 14.658381 11.655398
vn -0.000000 1.000000 0.000000
v 9.733965 0.000000 -11.429063
vt 8.993641 11.219014
vn -0.000000 1.000000 0.000000
v 9.733965 -0.000000 -12.419419
vt 8.993641 11.655418
vn -0.000000 1.000000 0.000000
v 22.589602 0.000000 -11.429063
vt 14.658381 11.219042
vn -0.000000 1.000000 0.000000
v -22.589598 -0.000000 -11.429063
vt -3.813812 11.219011
vn -0.000000 1.000000 0.000000
v -15.454527 0.000000 12.419478
vt -0.898439 1.307740
vn -0.000000 1.000000 0.000000
v -22.589598 0.000000 12.419478
vt -3.813817 1.307740
vn -0.000000 1.000000 0.000000
v -15.454527 -0.000000 1.652236
vt -0.898439 5.874014
vn -0.000000 1.000000 0.000000
v -2.034788 -0.000000 -11.429063
vt 4.584826 11.219011
vn -0.000000 1.000000 0.000000
v -2.034788 -0.000000 1.652236
vt 4.584828 5.874013
vn -0.000000 1.000000 0.000000
v 8.755327 0.000000 -11.429063
vt 8.993641 11.219014
vn -0.000000 1.000000 0.000000
v 8.755327 0.000000 1.652236
vt 8.993644 5.874014
vn -0.000000 1.000000 0.000000
v 22.589602 0.000000 1.652236
vt 14.646292 5.874019
vn -0.000000 1.000000 0.000000
v 22.589602 0.000000 -11.429063
vt 14.646289 11.219017
vn -0.000000 1.000000 0.000000
# Faces (1 to 14)
g GroundPiece4_0
f -12/-12/-12 -13/-13/-13 -14/-14/-14
f -13/-13/-13 -11/-11/-11 -14/-14/-14
f -8/-8/-8 -9/-9/-9 -10/-10/-10
f -9/-9/-9 -7/-7/-7 -10/-10/-10
f -10/-10/-10 -7/-7/-7 -6/-6/-6
f -7/-7/-7 -5/-5/-5 -6/-6/-6
f -6/-6/-6 -5/-5/-5 -4/-4/-4
f -5/-5/-5 -3/-3/-3 -4/-4/-4
f -4/-4/-4 -3/-3/-3 -2/-2/-2
f -1/-1/-1 -4/-4/-4 -2/-2/-2

