# Mesh "InnerPillar2" exported with Unity Assets Bundle Extractor; 128 vertices, 192 indices, 448 bits per vertex
g InnerPillar2
# SubMesh 0
# Vertices
v -4.828645 0.000000 3.794775
vt 0.419223 0.984472
vn -0.000000 0.000000 1.000000
v -3.310737 -6.159359 3.794776
vt 0.497479 0.675142
vn -0.000000 0.000000 1.000000
v -4.828645 -6.159359 3.794775
vt 0.419224 0.675142
vn -0.000000 0.000000 1.000000
v -3.310736 0.000000 3.794776
vt 0.497479 0.984472
vn -0.000000 0.000000 1.000000
v -3.310736 0.000000 3.794776
vt 0.497479 0.984472
vn 1.000000 0.000000 0.000000
v -3.310737 -6.159359 2.276869
vt 0.575735 0.675142
vn 1.000000 0.000000 0.000000
v -3.310737 -6.159359 3.794776
vt 0.497479 0.675142
vn 1.000000 0.000000 0.000000
v -3.310736 0.000000 2.276869
vt 0.575735 0.984472
vn 1.000000 0.000000 0.000000
v -3.310737 -6.159359 2.276869
vt 0.575735 0.675142
vn -0.000000 0.000000 -1.000000
v -4.828645 0.000000 2.276868
vt 0.653990 0.984472
vn -0.000000 0.000000 -1.000000
v -4.828645 -6.159359 2.276868
vt 0.653991 0.675143
vn -0.000000 0.000000 -1.000000
v -3.310736 0.000000 2.276869
vt 0.575735 0.984472
vn -0.000000 0.000000 -1.000000
v -4.828645 -6.159359 2.276868
vt 0.340968 0.675142
vn -1.000000 0.000000 0.000000
v -4.828645 0.000000 3.794775
vt 0.419223 0.984472
vn -1.000000 0.000000 0.000000
v -4.828645 -6.159359 3.794775
vt 0.419224 0.675142
vn -1.000000 0.000000 0.000000
v -4.828645 0.000000 2.276868
vt 0.340968 0.984472
vn -1.000000 0.000000 0.000000
v -4.828645 0.000000 2.276868
vt 0.330751 0.277572
vn -0.000000 0.000000 -1.000000
v -3.310736 7.340641 2.276869
vt 0.252496 0.664233
vn -0.000000 0.000000 -1.000000
v -4.828645 7.340641 2.276868
vt 0.330751 0.664233
vn -0.000000 0.000000 -1.000000
v -3.310736 0.000000 2.276869
vt 0.252495 0.277572
vn -0.000000 0.000000 -1.000000
v -4.828645 19.840641 3.794775
vt 0.419223 0.984472
vn -0.000000 0.000000 1.000000
v -3.310737 13.840641 3.794776
vt 0.497479 0.675142
vn -0.000000 0.000000 1.000000
v -4.828645 13.840641 3.794775
vt 0.419224 0.675142
vn -0.000000 0.000000 1.000000
v -3.310739 19.840641 3.794776
vt 0.497479 0.984472
vn -0.000000 0.000000 1.000000
v -3.310739 19.840641 3.794776
vt 0.497479 0.984472
vn 1.000000 0.000000 0.000000
v -3.310737 13.840641 2.276869
vt 0.575735 0.675142
vn 1.000000 0.000000 0.000000
v -3.310737 13.840641 3.794776
vt 0.497479 0.675142
vn 1.000000 0.000000 0.000000
v -3.310739 19.840641 2.276869
vt 0.575735 0.984472
vn 1.000000 0.000000 0.000000
v -4.828645 0.000000 3.794775
vt 0.095984 0.277572
vn -1.000000 0.000000 0.000000
v -4.828645 7.340641 2.276868
vt 0.017729 0.664234
vn -1.000000 0.000000 0.000000
v -4.828645 7.340641 3.794776
vt 0.095985 0.664234
vn -1.000000 0.000000 0.000000
v -4.828645 0.000000 2.276868
vt 0.017729 0.277572
vn -1.000000 0.000000 0.000000
v -3.310737 13.840641 2.276869
vt 0.575735 0.675142
vn -0.000000 0.000000 -1.000000
v -4.828645 19.840641 2.276868
vt 0.653990 0.984472
vn -0.000000 0.000000 -1.000000
v -4.828645 13.840641 2.276868
vt 0.653991 0.675143
vn -0.000000 0.000000 -1.000000
v -3.310739 19.840641 2.276869
vt 0.575735 0.984472
vn -0.000000 0.000000 -1.000000
v -3.310737 13.840641 3.794776
vt 0.829820 0.628042
vn -0.000000 0.000000 1.000000
v -4.828645 7.340641 3.794776
vt 0.751565 0.292936
vn -0.000000 0.000000 1.000000
v -4.828645 13.840641 3.794775
vt 0.751565 0.628042
vn -0.000000 0.000000 1.000000
v -3.310736 7.340641 3.794775
vt 0.829821 0.292936
vn -0.000000 0.000000 1.000000
v -3.310737 13.840641 2.276869
vt 0.908076 0.628042
vn 1.000000 0.000000 0.000000
v -3.310736 7.340641 3.794775
vt 0.829821 0.292936
vn 1.000000 0.000000 0.000000
v -3.310737 13.840641 3.794776
vt 0.829820 0.628042
vn 1.000000 0.000000 0.000000
v -3.310736 7.340641 2.276869
vt 0.908076 0.292936
vn 1.000000 0.000000 0.000000
v -4.828645 13.840641 2.276868
vt 0.340968 0.675142
vn -1.000000 0.000000 0.000000
v -4.828645 19.840641 3.794775
vt 0.419223 0.984472
vn -1.000000 0.000000 0.000000
v -4.828645 13.840641 3.794775
vt 0.419224 0.675142
vn -1.000000 0.000000 0.000000
v -4.828645 19.840641 2.276868
vt 0.340968 0.984472
vn -1.000000 0.000000 0.000000
v -3.310736 7.340641 2.276869
vt 0.908076 0.292936
vn -0.000000 0.000000 -1.000000
v -4.828645 13.840641 2.276868
vt 0.986331 0.628042
vn -0.000000 0.000000 -1.000000
v -4.828645 7.340641 2.276868
vt 0.986332 0.292936
vn -0.000000 0.000000 -1.000000
v -3.310737 13.840641 2.276869
vt 0.908076 0.628042
vn -0.000000 0.000000 -1.000000
v -4.828645 7.340641 2.276868
vt 0.673310 0.292936
vn -1.000000 0.000000 0.000000
v -4.828645 13.840641 3.794775
vt 0.751565 0.628042
vn -1.000000 0.000000 0.000000
v -4.828645 7.340641 3.794776
vt 0.751565 0.292936
vn -1.000000 0.000000 0.000000
v -4.828645 13.840641 2.276868
vt 0.673310 0.628042
vn -1.000000 0.000000 0.000000
v -3.310736 7.340641 3.794775
vt 0.174240 0.664233
vn -0.000000 0.000000 1.000000
v -4.828645 0.000000 3.794775
vt 0.095984 0.277572
vn -0.000000 0.000000 1.000000
v -4.828645 7.340641 3.794776
vt 0.095985 0.664234
vn -0.000000 0.000000 1.000000
v -3.310736 0.000000 3.794776
vt 0.174240 0.277572
vn -0.000000 0.000000 1.000000
v -3.310736 7.340641 2.276869
vt 0.252496 0.664233
vn 1.000000 0.000000 0.000000
v -3.310736 0.000000 3.794776
vt 0.174240 0.277572
vn 1.000000 0.000000 0.000000
v -3.310736 7.340641 3.794775
vt 0.174240 0.664233
vn 1.000000 0.000000 0.000000
v -3.310736 0.000000 2.276869
vt 0.252495 0.277572
vn 1.000000 0.000000 0.000000
v 4.828645 0.000000 2.276868
vt 0.652316 0.277909
vn -0.000000 0.000000 -1.000000
v 3.310736 7.340641 2.276869
vt 0.574060 0.664571
vn -0.000000 0.000000 -1.000000
v 3.310736 0.000000 2.276869
vt 0.574060 0.277909
vn -0.000000 0.000000 -1.000000
v 4.828645 7.340641 2.276868
vt 0.652316 0.664571
vn -0.000000 0.000000 -1.000000
v 4.828645 19.840641 3.794775
vt 0.093927 0.984472
vn -0.000000 0.000000 1.000000
v 3.310737 13.840641 3.794776
vt 0.172183 0.675142
vn -0.000000 0.000000 1.000000
v 3.310739 19.840641 3.794776
vt 0.172183 0.984472
vn -0.000000 0.000000 1.000000
v 4.828645 13.840641 3.794775
vt 0.093927 0.675142
vn -0.000000 0.000000 1.000000
v 3.310739 19.840641 3.794776
vt 0.172183 0.984472
vn -1.000000 0.000000 0.000000
v 3.310737 13.840641 2.276869
vt 0.250438 0.675142
vn -1.000000 0.000000 0.000000
v 3.310739 19.840641 2.276869
vt 0.250438 0.984472
vn -1.000000 0.000000 0.000000
v 3.310737 13.840641 3.794776
vt 0.172183 0.675142
vn -1.000000 0.000000 0.000000
v 4.828645 0.000000 3.794775
vt 0.417549 0.277910
vn 1.000000 0.000000 0.000000
v 4.828645 7.340641 2.276868
vt 0.339294 0.664571
vn 1.000000 0.000000 0.000000
v 4.828645 0.000000 2.276868
vt 0.339294 0.277910
vn 1.000000 0.000000 0.000000
v 4.828645 7.340641 3.794776
vt 0.417549 0.664571
vn 1.000000 0.000000 0.000000
v 3.310737 13.840641 2.276869
vt 0.250438 0.675142
vn -0.000000 0.000000 -1.000000
v 4.828645 19.840641 2.276868
vt 0.328693 0.984472
vn -0.000000 0.000000 -1.000000
v 3.310739 19.840641 2.276869
vt 0.250438 0.984472
vn -0.000000 0.000000 -1.000000
v 4.828645 13.840641 2.276868
vt 0.328694 0.675143
vn -0.000000 0.000000 -1.000000
v 3.310737 13.840641 3.794776
vt 0.829939 0.983814
vn -0.000000 0.000000 1.000000
v 4.828645 7.340641 3.794776
vt 0.751684 0.648708
vn -0.000000 0.000000 1.000000
v 3.310736 7.340641 3.794775
vt 0.829939 0.648708
vn -0.000000 0.000000 1.000000
v 4.828645 13.840641 3.794775
vt 0.751684 0.983814
vn -0.000000 0.000000 1.000000
v 3.310737 13.840641 2.276869
vt 0.908195 0.983814
vn -1.000000 0.000000 0.000000
v 3.310736 7.340641 3.794775
vt 0.829939 0.648708
vn -1.000000 0.000000 0.000000
v 3.310736 7.340641 2.276869
vt 0.908195 0.648708
vn -1.000000 0.000000 0.000000
v 3.310737 13.840641 3.794776
vt 0.829939 0.983814
vn -1.000000 0.000000 0.000000
v 4.828645 13.840641 2.276868
vt 0.015671 0.675142
vn 1.000000 0.000000 0.000000
v 4.828645 19.840641 3.794775
vt 0.093927 0.984472
vn 1.000000 0.000000 0.000000
v 4.828645 19.840641 2.276868
vt 0.015671 0.984472
vn 1.000000 0.000000 0.000000
v 4.828645 13.840641 3.794775
vt 0.093927 0.675142
vn 1.000000 0.000000 0.000000
v 3.310736 7.340641 2.276869
vt 0.908195 0.648708
vn -0.000000 0.000000 -1.000000
v 4.828645 13.840641 2.276868
vt 0.986450 0.983814
vn -0.000000 0.000000 -1.000000
v 3.310737 13.840641 2.276869
vt 0.908195 0.983814
vn -0.000000 0.000000 -1.000000
v 4.828645 7.340641 2.276868
vt 0.986450 0.648708
vn -0.000000 0.000000 -1.000000
v 4.828645 7.340641 2.276868
vt 0.673428 0.648708
vn 1.000000 0.000000 0.000000
v 4.828645 13.840641 3.794775
vt 0.751684 0.983814
vn 1.000000 0.000000 0.000000
v 4.828645 13.840641 2.276868
vt 0.673428 0.983814
vn 1.000000 0.000000 0.000000
v 4.828645 7.340641 3.794776
vt 0.751684 0.648708
vn 1.000000 0.000000 0.000000
v 3.310736 7.340641 3.794775
vt 0.495805 0.664571
vn -0.000000 0.000000 1.000000
v 4.828645 0.000000 3.794775
vt 0.417549 0.277910
vn -0.000000 0.000000 1.000000
v 3.310736 0.000000 3.794776
vt 0.495805 0.277909
vn -0.000000 0.000000 1.000000
v 4.828645 7.340641 3.794776
vt 0.417549 0.664571
vn -0.000000 0.000000 1.000000
v 3.310736 7.340641 2.276869
vt 0.574060 0.664571
vn -1.000000 0.000000 0.000000
v 3.310736 0.000000 3.794776
vt 0.495805 0.277909
vn -1.000000 0.000000 0.000000
v 3.310736 0.000000 2.276869
vt 0.574060 0.277909
vn -1.000000 0.000000 0.000000
v 3.310736 7.340641 3.794775
vt 0.495805 0.664571
vn -1.000000 0.000000 0.000000
v 4.828645 0.000000 3.794775
vt 0.093927 0.984472
vn -0.000000 0.000000 1.000000
v 3.310737 -6.159359 3.794776
vt 0.172183 0.675142
vn -0.000000 0.000000 1.000000
v 3.310736 0.000000 3.794776
vt 0.172183 0.984472
vn -0.000000 0.000000 1.000000
v 4.828645 -6.159359 3.794775
vt 0.093927 0.675142
vn -0.000000 0.000000 1.000000
v 3.310736 0.000000 3.794776
vt 0.172183 0.984472
vn -1.000000 0.000000 0.000000
v 3.310737 -6.159359 2.276869
vt 0.250438 0.675142
vn -1.000000 0.000000 0.000000
v 3.310736 0.000000 2.276869
vt 0.250438 0.984472
vn -1.000000 0.000000 0.000000
v 3.310737 -6.159359 3.794776
vt 0.172183 0.675142
vn -1.000000 0.000000 0.000000
v 3.310737 -6.159359 2.276869
vt 0.250438 0.675142
vn -0.000000 0.000000 -1.000000
v 4.828645 0.000000 2.276868
vt 0.328693 0.984472
vn -0.000000 0.000000 -1.000000
v 3.310736 0.000000 2.276869
vt 0.250438 0.984472
vn -0.000000 0.000000 -1.000000
v 4.828645 -6.159359 2.276868
vt 0.328694 0.675143
vn -0.000000 0.000000 -1.000000
v 4.828645 -6.159359 2.276868
vt 0.015671 0.675142
vn 1.000000 0.000000 0.000000
v 4.828645 0.000000 3.794775
vt 0.093927 0.984472
vn 1.000000 0.000000 0.000000
v 4.828645 0.000000 2.276868
vt 0.015671 0.984472
vn 1.000000 0.000000 0.000000
v 4.828645 -6.159359 3.794775
vt 0.093927 0.675142
vn 1.000000 0.000000 0.000000
# Faces (1 to 128)
g InnerPillar2_0
f -126/-126/-126 -127/-127/-127 -128/-128/-128
f -127/-127/-127 -125/-125/-125 -128/-128/-128
f -122/-122/-122 -123/-123/-123 -124/-124/-124
f -123/-123/-123 -121/-121/-121 -124/-124/-124
f -118/-118/-118 -119/-119/-119 -120/-120/-120
f -119/-119/-119 -117/-117/-117 -120/-120/-120
f -114/-114/-114 -115/-115/-115 -116/-116/-116
f -115/-115/-115 -113/-113/-113 -116/-116/-116
f -110/-110/-110 -111/-111/-111 -112/-112/-112
f -111/-111/-111 -109/-109/-109 -112/-112/-112
f -106/-106/-106 -107/-107/-107 -108/-108/-108
f -107/-107/-107 -105/-105/-105 -108/-108/-108
f -102/-102/-102 -103/-103/-103 -104/-104/-104
f -103/-103/-103 -101/-101/-101 -104/-104/-104
f -98/-98/-98 -99/-99/-99 -100/-100/-100
f -99/-99/-99 -97/-97/-97 -100/-100/-100
f -94/-94/-94 -95/-95/-95 -96/-96/-96
f -95/-95/-95 -93/-93/-93 -96/-96/-96
f -90/-90/-90 -91/-91/-91 -92/-92/-92
f -91/-91/-91 -89/-89/-89 -92/-92/-92
f -86/-86/-86 -87/-87/-87 -88/-88/-88
f -87/-87/-87 -85/-85/-85 -88/-88/-88
f -82/-82/-82 -83/-83/-83 -84/-84/-84
f -83/-83/-83 -81/-81/-81 -84/-84/-84
f -78/-78/-78 -79/-79/-79 -80/-80/-80
f -79/-79/-79 -77/-77/-77 -80/-80/-80
f -74/-74/-74 -75/-75/-75 -76/-76/-76
f -75/-75/-75 -73/-73/-73 -76/-76/-76
f -70/-70/-70 -71/-71/-71 -72/-72/-72
f -71/-71/-71 -69/-69/-69 -72/-72/-72
f -66/-66/-66 -67/-67/-67 -68/-68/-68
f -67/-67/-67 -65/-65/-65 -68/-68/-68
f -62/-62/-62 -63/-63/-63 -64/-64/-64
f -63/-63/-63 -61/-61/-61 -64/-64/-64
f -58/-58/-58 -59/-59/-59 -60/-60/-60
f -59/-59/-59 -57/-57/-57 -60/-60/-60
f -54/-54/-54 -55/-55/-55 -56/-56/-56
f -55/-55/-55 -53/-53/-53 -56/-56/-56
f -50/-50/-50 -51/-51/-51 -52/-52/-52
f -51/-51/-51 -49/-49/-49 -52/-52/-52
f -46/-46/-46 -47/-47/-47 -48/-48/-48
f -47/-47/-47 -45/-45/-45 -48/-48/-48
f -42/-42/-42 -43/-43/-43 -44/-44/-44
f -43/-43/-43 -41/-41/-41 -44/-44/-44
f -38/-38/-38 -39/-39/-39 -40/-40/-40
f -39/-39/-39 -37/-37/-37 -40/-40/-40
f -34/-34/-34 -35/-35/-35 -36/-36/-36
f -35/-35/-35 -33/-33/-33 -36/-36/-36
f -30/-30/-30 -31/-31/-31 -32/-32/-32
f -31/-31/-31 -29/-29/-29 -32/-32/-32
f -26/-26/-26 -27/-27/-27 -28/-28/-28
f -27/-27/-27 -25/-25/-25 -28/-28/-28
f -22/-22/-22 -23/-23/-23 -24/-24/-24
f -23/-23/-23 -21/-21/-21 -24/-24/-24
f -18/-18/-18 -19/-19/-19 -20/-20/-20
f -19/-19/-19 -17/-17/-17 -20/-20/-20
f -14/-14/-14 -15/-15/-15 -16/-16/-16
f -15/-15/-15 -13/-13/-13 -16/-16/-16
f -10/-10/-10 -11/-11/-11 -12/-12/-12
f -11/-11/-11 -9/-9/-9 -12/-12/-12
f -6/-6/-6 -7/-7/-7 -8/-8/-8
f -7/-7/-7 -5/-5/-5 -8/-8/-8
f -2/-2/-2 -3/-3/-3 -4/-4/-4
f -3/-3/-3 -1/-1/-1 -4/-4/-4

