# Mesh "MinddlePath" exported with Unity Assets Bundle Extractor; 56 vertices, 120 indices, 448 bits per vertex
g MinddlePath
# SubMesh 0
# Vertices
v -15.888184 -0.000000 -2.979034
vt -5.245911 1.577357
vn -0.000000 1.000000 0.000000
v -5.834473 -0.000000 2.979027
vt -1.611125 -0.577357
vn -0.000000 1.000000 0.000000
v -15.888184 -0.000000 2.979027
vt -5.245911 -0.577357
vn -0.000000 1.000000 0.000000
v -5.834473 -0.000000 -2.979034
vt -1.611125 1.577357
vn -0.000000 1.000000 0.000000
v 5.837738 -0.000000 2.979027
vt 2.594785 -0.577357
vn -0.000000 1.000000 0.000000
v 5.837738 -0.000000 -2.979034
vt 2.594785 1.577357
vn -0.000000 1.000000 0.000000
v 15.888180 -0.000000 2.979027
vt 6.245911 -0.577357
vn -0.000000 1.000000 0.000000
v 15.888180 -0.000000 -2.979034
vt 6.245911 1.577357
vn -0.000000 1.000000 0.000000
# Faces (1 to 8)
g MinddlePath_0
f -6/-6/-6 -7/-7/-7 -8/-8/-8
f -7/-7/-7 -5/-5/-5 -8/-8/-8
f -7/-7/-7 -4/-4/-4 -5/-5/-5
f -4/-4/-4 -3/-3/-3 -5/-5/-5
f -4/-4/-4 -2/-2/-2 -3/-3/-3
f -2/-2/-2 -1/-1/-1 -3/-3/-3

# SubMesh 1
# Vertices
v -15.888184 -0.000000 2.979027
vt -4.815505 2.505200
vn -0.000000 0.000000 -1.000000
v -5.834473 0.730909 2.979027
vt -3.259954 2.618439
vn -0.000000 0.000000 -1.000000
v -15.888184 0.730909 2.979027
vt -4.815513 2.618324
vn -0.000000 0.000000 -1.000000
v -5.834473 -0.000000 2.979027
vt -3.259945 2.505315
vn -0.000000 0.000000 -1.000000
v -15.888184 0.730909 -2.979034
vt -1.069787 2.618689
vn -0.000000 0.000000 1.000000
v -5.834473 -0.000000 -2.979034
vt -2.625338 2.505449
vn -0.000000 0.000000 1.000000
v -15.888184 -0.000000 -2.979034
vt -1.069778 2.505564
vn -0.000000 0.000000 1.000000
v -5.834473 0.730909 -2.979034
vt -2.625346 2.618573
vn -0.000000 0.000000 1.000000
v 5.837738 -0.000000 2.979027
vt -1.459965 2.505448
vn -0.000000 0.000000 -1.000000
v 15.888180 0.730909 2.979027
vt 0.102578 2.618688
vn -0.000000 0.000000 -1.000000
v 5.837738 0.730909 2.979027
vt -1.459974 2.618573
vn -0.000000 0.000000 -1.000000
v 15.888180 -0.000000 2.979027
vt 0.102587 2.505564
vn -0.000000 0.000000 -1.000000
v 5.837738 0.730909 -2.979034
vt -4.425325 2.618440
vn -0.000000 0.000000 1.000000
v 15.888180 -0.000000 -2.979034
vt -5.987869 2.505200
vn -0.000000 0.000000 1.000000
v 5.837738 -0.000000 -2.979034
vt -4.425317 2.505316
vn -0.000000 0.000000 1.000000
v 15.888180 0.730909 -2.979034
vt -5.987877 2.618324
vn -0.000000 0.000000 1.000000
# Faces (9 to 24)
g MinddlePath_1
f -14/-14/-14 -15/-15/-15 -16/-16/-16
f -15/-15/-15 -13/-13/-13 -16/-16/-16
f -10/-10/-10 -11/-11/-11 -12/-12/-12
f -11/-11/-11 -9/-9/-9 -12/-12/-12
f -6/-6/-6 -7/-7/-7 -8/-8/-8
f -7/-7/-7 -5/-5/-5 -8/-8/-8
f -2/-2/-2 -3/-3/-3 -4/-4/-4
f -3/-3/-3 -1/-1/-1 -4/-4/-4

# SubMesh 2
# Vertices
v -15.888184 4.555435 2.979027
vt 0.619047 4.726977
vn -0.000000 -1.000000 0.000000
v -5.834473 4.555435 -2.979034
vt -0.736939 7.014388
vn -0.000000 -1.000000 0.000000
v -15.888184 4.555435 -2.979034
vt -0.736938 4.726977
vn -0.000000 -1.000000 0.000000
v -5.834473 4.555435 2.979027
vt 0.619047 7.014388
vn -0.000000 -1.000000 0.000000
v 5.837738 4.555435 -2.979034
vt -0.736940 9.661213
vn -0.000000 -1.000000 0.000000
v 5.837738 4.555435 2.979027
vt 0.619046 9.661213
vn -0.000000 -1.000000 0.000000
v 15.888180 4.555435 -2.979034
vt -0.736940 11.958907
vn -0.000000 -1.000000 0.000000
v 15.888180 4.555435 2.979027
vt 0.619045 11.958907
vn -0.000000 -1.000000 0.000000
v -15.888184 4.555435 -2.979034
vt 1.109460 4.728247
vn -0.000000 0.000000 1.000000
v -5.834473 4.051559 -2.979034
vt 3.304171 4.618201
vn -0.000000 0.000000 1.000000
v -15.888184 4.051559 -2.979034
vt 1.109460 4.618250
vn -0.000000 0.000000 1.000000
v -5.834473 4.555435 -2.979034
vt 3.304199 4.728192
vn -0.000000 0.000000 1.000000
v 5.837738 4.051559 -2.979034
vt 5.851990 4.617024
vn -0.000000 0.000000 1.000000
v 5.837738 4.555435 -2.979034
vt 5.852051 4.727009
vn -0.000000 0.000000 1.000000
v 15.888180 4.051559 -2.979034
vt 8.045727 4.615566
vn -0.000000 0.000000 1.000000
v 15.888180 4.555435 -2.979034
vt 8.045800 4.725549
vn -0.000000 0.000000 1.000000
v -15.888184 0.730909 -2.979034
vt 1.109460 3.893351
vn -0.000000 0.000000 1.000000
v -5.834473 0.730909 -2.979034
vt 3.304159 3.893314
vn -0.000000 0.000000 1.000000
v 5.837738 0.730909 -2.979034
vt 5.851507 3.892217
vn -0.000000 0.000000 1.000000
v 15.888180 0.730909 -2.979034
vt 8.045244 3.890757
vn -0.000000 0.000000 1.000000
v -15.888184 0.730909 2.979027
vt 8.045516 3.887675
vn -0.000000 0.000000 -1.000000
v -5.834473 4.051559 2.979027
vt 5.851598 4.615463
vn -0.000000 0.000000 -1.000000
v -15.888184 4.051559 2.979027
vt 8.046456 4.612618
vn -0.000000 0.000000 -1.000000
v -5.834473 0.730909 2.979027
vt 5.850658 3.890520
vn -0.000000 0.000000 -1.000000
v -15.888184 4.555435 2.979027
vt 8.046598 4.722622
vn -0.000000 0.000000 -1.000000
v -5.834473 4.555435 2.979027
vt 5.851723 4.725465
vn -0.000000 0.000000 -1.000000
v 5.837738 4.051559 2.979027
vt 3.303477 4.618023
vn -0.000000 0.000000 -1.000000
v 5.837738 4.555435 2.979027
vt 3.303541 4.728022
vn -0.000000 0.000000 -1.000000
v 15.888180 4.051559 2.979027
vt 1.109461 4.618247
vn -0.000000 0.000000 -1.000000
v 5.837738 0.730909 2.979027
vt 3.303409 3.893146
vn -0.000000 0.000000 -1.000000
v 15.888180 0.730909 2.979027
vt 1.109461 3.893352
vn -0.000000 0.000000 -1.000000
v 15.888180 4.555435 2.979027
vt 1.109461 4.728247
vn -0.000000 0.000000 -1.000000
# Faces (25 to 56)
g MinddlePath_2
f -30/-30/-30 -31/-31/-31 -32/-32/-32
f -31/-31/-31 -29/-29/-29 -32/-32/-32
f -31/-31/-31 -28/-28/-28 -29/-29/-29
f -28/-28/-28 -27/-27/-27 -29/-29/-29
f -28/-28/-28 -26/-26/-26 -27/-27/-27
f -26/-26/-26 -25/-25/-25 -27/-27/-27
f -22/-22/-22 -23/-23/-23 -24/-24/-24
f -23/-23/-23 -21/-21/-21 -24/-24/-24
f -23/-23/-23 -20/-20/-20 -21/-21/-21
f -20/-20/-20 -19/-19/-19 -21/-21/-21
f -20/-20/-20 -18/-18/-18 -19/-19/-19
f -18/-18/-18 -17/-17/-17 -19/-19/-19
f -22/-22/-22 -16/-16/-16 -23/-23/-23
f -16/-16/-16 -15/-15/-15 -23/-23/-23
f -20/-20/-20 -14/-14/-14 -18/-18/-18
f -14/-14/-14 -13/-13/-13 -18/-18/-18
f -10/-10/-10 -11/-11/-11 -12/-12/-12
f -11/-11/-11 -9/-9/-9 -12/-12/-12
f -10/-10/-10 -8/-8/-8 -11/-11/-11
f -8/-8/-8 -7/-7/-7 -11/-11/-11
f -11/-11/-11 -7/-7/-7 -6/-6/-6
f -7/-7/-7 -5/-5/-5 -6/-6/-6
f -6/-6/-6 -5/-5/-5 -4/-4/-4
f -6/-6/-6 -4/-4/-4 -3/-3/-3
f -4/-4/-4 -2/-2/-2 -3/-3/-3
f -5/-5/-5 -1/-1/-1 -4/-4/-4

