# Mesh "RoomWindows" exported with Unity Assets Bundle Extractor; 48 vertices, 72 indices, 448 bits per vertex
g RoomWindows
# SubMesh 0
# Vertices
v 11.115295 12.814087 -12.220215
vt 0.938721 0.637979
vn -0.000000 0.000000 -1.000000
v 12.307068 15.201294 -12.220215
vt 0.519601 0.429664
vn -0.000000 0.000000 -1.000000
v 11.115295 15.201294 -12.220215
vt 0.519601 0.637979
vn -0.000000 0.000000 -1.000000
v 12.307068 12.814087 -12.220215
vt 0.938721 0.429664
vn -0.000000 0.000000 -1.000000
v 6.636841 12.814087 -12.220215
vt 0.938721 0.637979
vn -0.000000 0.000000 -1.000000
v 7.828613 15.201294 -12.220215
vt 0.519601 0.429664
vn -0.000000 0.000000 -1.000000
v 6.636841 15.201294 -12.220215
vt 0.519601 0.637979
vn -0.000000 0.000000 -1.000000
v 7.828613 12.814087 -12.220215
vt 0.938721 0.429664
vn -0.000000 0.000000 -1.000000
v 1.802406 12.814087 -12.220215
vt 0.938717 0.637553
vn -0.000000 0.000000 -1.000000
v 2.994171 15.201294 -12.220215
vt 0.519605 0.429663
vn -0.000000 0.000000 -1.000000
v 1.802406 15.201294 -12.220215
vt 0.519605 0.637553
vn -0.000000 0.000000 -1.000000
v 2.994171 12.814087 -12.220215
vt 0.938717 0.429663
vn -0.000000 0.000000 -1.000000
v -2.994171 12.814087 -12.220215
vt 0.938721 0.637661
vn -0.000000 0.000000 -1.000000
v -1.802414 15.201294 -12.220215
vt 0.519601 0.429695
vn -0.000000 0.000000 -1.000000
v -2.994171 15.201294 -12.220215
vt 0.519601 0.637661
vn -0.000000 0.000000 -1.000000
v -1.802414 12.814087 -12.220215
vt 0.938721 0.429695
vn -0.000000 0.000000 -1.000000
v -7.789276 12.814087 -12.220215
vt 0.938725 0.637855
vn -0.000000 0.000000 -1.000000
v -6.597519 15.201294 -12.220215
vt 0.519598 0.429664
vn -0.000000 0.000000 -1.000000
v -7.789276 15.201294 -12.220215
vt 0.519598 0.637855
vn -0.000000 0.000000 -1.000000
v -6.597519 12.814087 -12.220215
vt 0.938725 0.429664
vn -0.000000 0.000000 -1.000000
v -12.267731 12.814087 -12.220215
vt 0.938725 0.637855
vn -0.000000 0.000000 -1.000000
v -11.075958 15.201294 -12.220215
vt 0.519598 0.429664
vn -0.000000 0.000000 -1.000000
v -12.267731 15.201294 -12.220215
vt 0.519598 0.637855
vn -0.000000 0.000000 -1.000000
v -11.075958 12.814087 -12.220215
vt 0.938725 0.429664
vn -0.000000 0.000000 -1.000000
v -11.075958 15.201294 12.220215
vt 0.938725 0.429664
vn -0.000000 0.000000 1.000000
v -12.267731 12.814087 12.220215
vt 0.519598 0.637855
vn -0.000000 0.000000 1.000000
v -12.267731 15.201294 12.220215
vt 0.938725 0.637855
vn -0.000000 0.000000 1.000000
v -11.075958 12.814087 12.220215
vt 0.519598 0.429664
vn -0.000000 0.000000 1.000000
v -6.597519 15.201294 12.220215
vt 0.938725 0.429664
vn -0.000000 0.000000 1.000000
v -7.789276 12.814087 12.220215
vt 0.519598 0.637854
vn -0.000000 0.000000 1.000000
v -7.789276 15.201294 12.220215
vt 0.938725 0.637854
vn -0.000000 0.000000 1.000000
v -6.597519 12.814087 12.220215
vt 0.519598 0.429664
vn -0.000000 0.000000 1.000000
v -1.802414 15.201294 12.220215
vt 0.938723 0.429663
vn -0.000000 0.000000 1.000000
v -2.994171 12.814087 12.220215
vt 0.519599 0.637661
vn -0.000000 0.000000 1.000000
v -2.994171 15.201294 12.220215
vt 0.938723 0.637661
vn -0.000000 0.000000 1.000000
v -1.802414 12.814087 12.220215
vt 0.519599 0.429663
vn -0.000000 0.000000 1.000000
v 2.994171 15.201294 12.220215
vt 0.938719 0.429662
vn -0.000000 0.000000 1.000000
v 1.802406 12.814087 12.220215
vt 0.519605 0.637363
vn -0.000000 0.000000 1.000000
v 1.802406 15.201294 12.220215
vt 0.938719 0.637363
vn -0.000000 0.000000 1.000000
v 2.994171 12.814087 12.220215
vt 0.519605 0.429662
vn -0.000000 0.000000 1.000000
v 7.828613 15.201294 12.220215
vt 0.938721 0.429663
vn -0.000000 0.000000 1.000000
v 6.636841 12.814087 12.220215
vt 0.519601 0.637538
vn -0.000000 0.000000 1.000000
v 6.636841 15.201294 12.220215
vt 0.938721 0.637538
vn -0.000000 0.000000 1.000000
v 7.828613 12.814087 12.220215
vt 0.519601 0.429663
vn -0.000000 0.000000 1.000000
v 12.307068 15.201294 12.220215
vt 0.938721 0.429663
vn -0.000000 0.000000 1.000000
v 11.115295 12.814087 12.220215
vt 0.519601 0.637538
vn -0.000000 0.000000 1.000000
v 11.115295 15.201294 12.220215
vt 0.938721 0.637538
vn -0.000000 0.000000 1.000000
v 12.307068 12.814087 12.220215
vt 0.519601 0.429663
vn -0.000000 0.000000 1.000000
# Faces (1 to 48)
g RoomWindows_0
f -46/-46/-46 -47/-47/-47 -48/-48/-48
f -47/-47/-47 -45/-45/-45 -48/-48/-48
f -42/-42/-42 -43/-43/-43 -44/-44/-44
f -43/-43/-43 -41/-41/-41 -44/-44/-44
f -38/-38/-38 -39/-39/-39 -40/-40/-40
f -39/-39/-39 -37/-37/-37 -40/-40/-40
f -34/-34/-34 -35/-35/-35 -36/-36/-36
f -35/-35/-35 -33/-33/-33 -36/-36/-36
f -30/-30/-30 -31/-31/-31 -32/-32/-32
f -31/-31/-31 -29/-29/-29 -32/-32/-32
f -26/-26/-26 -27/-27/-27 -28/-28/-28
f -27/-27/-27 -25/-25/-25 -28/-28/-28
f -22/-22/-22 -23/-23/-23 -24/-24/-24
f -23/-23/-23 -21/-21/-21 -24/-24/-24
f -18/-18/-18 -19/-19/-19 -20/-20/-20
f -19/-19/-19 -17/-17/-17 -20/-20/-20
f -14/-14/-14 -15/-15/-15 -16/-16/-16
f -15/-15/-15 -13/-13/-13 -16/-16/-16
f -10/-10/-10 -11/-11/-11 -12/-12/-12
f -11/-11/-11 -9/-9/-9 -12/-12/-12
f -6/-6/-6 -7/-7/-7 -8/-8/-8
f -7/-7/-7 -5/-5/-5 -8/-8/-8
f -2/-2/-2 -3/-3/-3 -4/-4/-4
f -3/-3/-3 -1/-1/-1 -4/-4/-4

