# Mesh "TowerTop" exported with Unity Assets Bundle Extractor; 80 vertices, 120 indices, 256 bits per vertex
g TowerTop
# SubMesh 0
# Vertices
v 3.084737 -0.047845 0.774974
vt 0.293288 0.818877
vn -0.162643 0.000000 0.986685
v 3.128072 0.337531 0.782115
vt 0.220891 0.827119
vn -0.162643 0.000000 0.986685
v 3.128072 -0.047845 0.782115
vt 0.293288 0.827118
vn -0.162643 0.000000 0.986685
v 3.084737 0.337531 0.774974
vt 0.220891 0.818877
vn -0.162643 0.000000 0.986685
v 3.084737 0.337531 0.774974
vt 0.305101 0.818877
vn -0.000000 1.000000 0.000000
v 3.222188 0.337531 0.264812
vt 0.206345 0.827119
vn -0.000000 1.000000 0.000000
v 3.128072 0.337531 0.782115
vt 0.305101 0.827119
vn -0.000000 1.000000 0.000000
v 3.178853 0.337531 0.257671
vt 0.206345 0.818877
vn -0.000000 1.000000 0.000000
v 3.222188 -0.047845 0.264812
vt 0.220891 0.827119
vn 0.162522 0.000000 -0.986705
v 3.178853 0.337531 0.257671
vt 0.293288 0.818877
vn 0.162522 0.000000 -0.986705
v 3.178853 -0.047845 0.257671
vt 0.220891 0.818878
vn 0.162522 0.000000 -0.986705
v 3.222188 0.337531 0.264812
vt 0.293288 0.827119
vn 0.162522 0.000000 -0.986705
v 3.128072 -0.047845 0.782115
vt 0.206345 0.827119
vn -0.000000 -1.000000 0.000000
v 3.178853 -0.047845 0.257671
vt 0.305101 0.818878
vn -0.000000 -1.000000 0.000000
v 3.084737 -0.047845 0.774974
vt 0.206345 0.818877
vn -0.000000 -1.000000 0.000000
v 3.222188 -0.047845 0.264812
vt 0.305101 0.827119
vn -0.000000 -1.000000 0.000000
v 3.128072 -0.047845 0.782115
vt 0.091726 0.857042
vn 0.983848 0.000000 0.179004
v 3.222188 0.337531 0.264812
vt 0.197003 0.934199
vn 0.983848 0.000000 0.179004
v 3.222188 -0.047845 0.264812
vt 0.197003 0.857042
vn 0.983848 0.000000 0.179004
v 3.128072 0.337531 0.782115
vt 0.091726 0.934199
vn 0.983848 0.000000 0.179004
v 3.178853 -0.047845 0.257671
vt 0.091726 0.857042
vn -0.983846 0.000000 -0.179018
v 3.084737 0.337531 0.774974
vt 0.197003 0.934199
vn -0.983846 0.000000 -0.179018
v 3.084737 -0.047845 0.774974
vt 0.197003 0.857042
vn -0.983846 0.000000 -0.179018
v 3.178853 0.337531 0.257671
vt 0.091726 0.934199
vn -0.983846 0.000000 -0.179018
v -0.204325 -0.015985 0.110240
vt 0.224362 0.983699
vn -0.170844 0.000000 0.985298
v 0.146871 -0.337579 0.171123
vt 0.276538 0.938131
vn -0.170844 0.000000 0.985298
v -0.204325 -0.337579 0.110240
vt 0.224362 0.938130
vn -0.170844 0.000000 0.985298
v 0.146871 -0.015985 0.171123
vt 0.276538 0.983699
vn -0.170844 0.000000 0.985298
v -0.155375 -0.337579 -0.172352
vt 0.276538 0.938131
vn 0.170844 0.000000 -0.985298
v 0.195821 -0.015985 -0.111439
vt 0.224362 0.983699
vn 0.170844 0.000000 -0.985298
v -0.155375 -0.015985 -0.172352
vt 0.276538 0.983699
vn 0.170844 0.000000 -0.985298
v 0.195821 -0.337579 -0.111439
vt 0.224362 0.938131
vn 0.170844 0.000000 -0.985298
v 0.195821 -0.015985 -0.111439
vt 0.276538 0.983699
vn 0.985301 0.000000 0.170827
v 0.146871 -0.337579 0.171123
vt 0.224362 0.938130
vn 0.985301 0.000000 0.170827
v 0.146871 -0.015985 0.171123
vt 0.224362 0.983699
vn 0.985301 0.000000 0.170827
v 0.195821 -0.337579 -0.111439
vt 0.276538 0.938130
vn 0.985301 0.000000 0.170827
v -0.204325 -0.337579 0.110240
vt 0.276538 0.938131
vn -0.985297 0.000000 -0.170848
v -0.155375 -0.015985 -0.172352
vt 0.224362 0.983699
vn -0.985297 0.000000 -0.170848
v -0.204325 -0.015985 0.110240
vt 0.276538 0.983699
vn -0.985297 0.000000 -0.170848
v -0.155375 -0.337579 -0.172352
vt 0.224362 0.938131
vn -0.985297 0.000000 -0.170848
v -3.202739 0.210394 -0.294362
vt 0.010185 0.666678
vn -0.162628 0.000000 0.986687
v 3.112203 -0.037897 0.746501
vt 0.980318 0.629023
vn -0.162628 0.000000 0.986687
v -3.202739 -0.037897 -0.294362
vt 0.010176 0.629023
vn -0.162628 0.000000 0.986687
v 3.112203 0.210394 0.746501
vt 0.980318 0.666678
vn -0.162628 0.000000 0.986687
v -3.202739 0.210394 -0.294362
vt 0.009038 0.680479
vn -0.000000 1.000000 0.000000
v 3.194722 0.210394 0.293285
vt 0.980318 0.750380
vn -0.000000 1.000000 0.000000
v 3.112203 0.210394 0.746501
vt 0.980318 0.680479
vn -0.000000 1.000000 0.000000
v -3.120219 0.210394 -0.747578
vt 0.010184 0.750380
vn -0.000000 1.000000 0.000000
v -3.120219 -0.037897 -0.747578
vt 0.010179 0.629023
vn 0.162631 0.000000 -0.986687
v 3.194722 0.210394 0.293285
vt 0.980318 0.666678
vn 0.162631 0.000000 -0.986687
v -3.120219 0.210394 -0.747578
vt 0.010184 0.666678
vn 0.162631 0.000000 -0.986687
v 3.194722 -0.037897 0.293285
vt 0.980318 0.629023
vn 0.162631 0.000000 -0.986687
v 3.112203 -0.037897 0.746501
vt 0.980318 0.750380
vn -0.000000 -1.000000 0.000000
v -3.120219 -0.037897 -0.747578
vt 0.010179 0.680479
vn -0.000000 -1.000000 0.000000
v -3.202739 -0.037897 -0.294362
vt 0.010176 0.750380
vn -0.000000 -1.000000 0.000000
v 3.194722 -0.037897 0.293285
vt 0.980318 0.680479
vn -0.000000 -1.000000 0.000000
v -3.222270 -0.047845 -0.264821
vt 0.293288 0.818877
vn -0.162654 0.000000 0.986683
v -3.179057 0.337531 -0.257679
vt 0.220891 0.827119
vn -0.162654 0.000000 0.986683
v -3.179057 -0.047845 -0.257679
vt 0.293288 0.827119
vn -0.162654 0.000000 0.986683
v -3.222270 0.337531 -0.264821
vt 0.220891 0.818877
vn -0.162654 0.000000 0.986683
v -3.222270 0.337531 -0.264821
vt 0.305101 0.818877
vn -0.000000 1.000000 0.000000
v -3.084819 0.337531 -0.774983
vt 0.206345 0.827119
vn -0.000000 1.000000 0.000000
v -3.179057 0.337531 -0.257679
vt 0.305101 0.827119
vn -0.000000 1.000000 0.000000
v -3.128154 0.337531 -0.782124
vt 0.206345 0.818877
vn -0.000000 1.000000 0.000000
v -3.084819 -0.047845 -0.774983
vt 0.220891 0.827119
vn 0.162625 0.000000 -0.986688
v -3.128154 0.337531 -0.782124
vt 0.293288 0.818877
vn 0.162625 0.000000 -0.986688
v -3.128154 -0.047845 -0.782124
vt 0.220891 0.818877
vn 0.162625 0.000000 -0.986688
v -3.084819 0.337531 -0.774983
vt 0.293288 0.827119
vn 0.162625 0.000000 -0.986688
v -3.179057 -0.047845 -0.257679
vt 0.206345 0.827119
vn -0.000000 -1.000000 0.000000
v -3.128154 -0.047845 -0.782124
vt 0.305101 0.818877
vn -0.000000 -1.000000 0.000000
v -3.222270 -0.047845 -0.264821
vt 0.206345 0.818877
vn -0.000000 -1.000000 0.000000
v -3.084819 -0.047845 -0.774983
vt 0.305101 0.827119
vn -0.000000 -1.000000 0.000000
v -3.179057 -0.047845 -0.257679
vt 0.091726 0.857042
vn 0.983846 0.000000 0.179017
v -3.084819 0.337531 -0.774983
vt 0.197003 0.934199
vn 0.983846 0.000000 0.179017
v -3.084819 -0.047845 -0.774983
vt 0.197003 0.857042
vn 0.983846 0.000000 0.179017
v -3.179057 0.337531 -0.257679
vt 0.091726 0.934199
vn 0.983846 0.000000 0.179017
v -3.128154 -0.047845 -0.782124
vt 0.091726 0.857042
vn -0.983847 0.000000 -0.179011
v -3.222270 0.337531 -0.264821
vt 0.197003 0.934199
vn -0.983847 0.000000 -0.179011
v -3.222270 -0.047845 -0.264821
vt 0.197003 0.857042
vn -0.983847 0.000000 -0.179011
v -3.128154 0.337531 -0.782124
vt 0.091726 0.934199
vn -0.983847 0.000000 -0.179011
# Faces (1 to 80)
g TowerTop_0
f -78/-78/-78 -79/-79/-79 -80/-80/-80
f -79/-79/-79 -77/-77/-77 -80/-80/-80
f -74/-74/-74 -75/-75/-75 -76/-76/-76
f -75/-75/-75 -73/-73/-73 -76/-76/-76
f -70/-70/-70 -71/-71/-71 -72/-72/-72
f -71/-71/-71 -69/-69/-69 -72/-72/-72
f -66/-66/-66 -67/-67/-67 -68/-68/-68
f -67/-67/-67 -65/-65/-65 -68/-68/-68
f -62/-62/-62 -63/-63/-63 -64/-64/-64
f -63/-63/-63 -61/-61/-61 -64/-64/-64
f -58/-58/-58 -59/-59/-59 -60/-60/-60
f -59/-59/-59 -57/-57/-57 -60/-60/-60
f -54/-54/-54 -55/-55/-55 -56/-56/-56
f -55/-55/-55 -53/-53/-53 -56/-56/-56
f -50/-50/-50 -51/-51/-51 -52/-52/-52
f -51/-51/-51 -49/-49/-49 -52/-52/-52
f -46/-46/-46 -47/-47/-47 -48/-48/-48
f -47/-47/-47 -45/-45/-45 -48/-48/-48
f -42/-42/-42 -43/-43/-43 -44/-44/-44
f -43/-43/-43 -41/-41/-41 -44/-44/-44
f -38/-38/-38 -39/-39/-39 -40/-40/-40
f -39/-39/-39 -37/-37/-37 -40/-40/-40
f -34/-34/-34 -35/-35/-35 -36/-36/-36
f -35/-35/-35 -33/-33/-33 -36/-36/-36
f -30/-30/-30 -31/-31/-31 -32/-32/-32
f -31/-31/-31 -29/-29/-29 -32/-32/-32
f -26/-26/-26 -27/-27/-27 -28/-28/-28
f -27/-27/-27 -25/-25/-25 -28/-28/-28
f -22/-22/-22 -23/-23/-23 -24/-24/-24
f -23/-23/-23 -21/-21/-21 -24/-24/-24
f -18/-18/-18 -19/-19/-19 -20/-20/-20
f -19/-19/-19 -17/-17/-17 -20/-20/-20
f -14/-14/-14 -15/-15/-15 -16/-16/-16
f -15/-15/-15 -13/-13/-13 -16/-16/-16
f -10/-10/-10 -11/-11/-11 -12/-12/-12
f -11/-11/-11 -9/-9/-9 -12/-12/-12
f -6/-6/-6 -7/-7/-7 -8/-8/-8
f -7/-7/-7 -5/-5/-5 -8/-8/-8
f -2/-2/-2 -3/-3/-3 -4/-4/-4
f -3/-3/-3 -1/-1/-1 -4/-4/-4

