# Mesh "VIFS014" exported with Unity Assets Bundle Extractor; 224 vertices, 336 indices, 448 bits per vertex
g VIFS014
# SubMesh 0
# Vertices
v 172.031998 13.141329 -11.349340
vt 1.000000 1.000000
vn -0.923894 0.000000 0.382648
v 172.031998 10.752000 -7.765329
vt 0.000000 0.000000
vn -0.967544 0.000000 -0.252702
v 172.031998 10.752000 -11.349340
vt 1.000000 0.000000
vn -0.923894 0.000000 0.382648
v 172.031998 13.141329 -7.765329
vt 0.000000 1.000000
vn -0.862883 0.000000 -0.505404
v 172.031998 13.141329 11.647994
vt 1.000000 1.000000
vn -0.923894 0.000000 0.382648
v 172.031998 10.752000 15.232006
vt 0.000000 0.000000
vn -0.967544 0.000000 -0.252701
v 172.031998 10.752000 11.647994
vt 1.000000 0.000000
vn -0.923894 0.000000 0.382648
v 172.031998 13.141329 15.232006
vt 0.000000 1.000000
vn -0.862884 0.000000 -0.505402
v 169.643036 10.752000 -13.738670
vt 1.000000 0.000000
vn -0.505495 0.000000 0.862830
v 169.643036 13.141329 -13.738670
vt 1.000000 1.000000
vn -0.252747 0.000000 0.967532
v 169.643036 13.141329 -5.376000
vt 0.000000 1.000000
vn -0.252747 0.000000 -0.967532
v 169.643036 10.752000 -5.376000
vt 0.000000 0.000000
vn -0.505495 0.000000 -0.862830
v 169.643036 10.752000 9.258664
vt 1.000000 0.000000
vn -0.505495 0.000000 0.862830
v 169.643036 13.141329 9.258664
vt 1.000000 1.000000
vn -0.252747 0.000000 0.967532
v 169.643036 10.752000 17.621351
vt 0.000000 0.000000
vn -0.505497 0.000000 -0.862829
v 169.643036 13.141329 17.621351
vt 0.000000 1.000000
vn -0.252748 0.000000 -0.967532
v 166.058578 10.752000 -13.738670
vt 0.000000 0.000000
vn 0.252727 0.000000 0.967538
v 166.058578 13.141329 -13.738670
vt 0.000000 1.000000
vn 0.505455 0.000000 0.862853
v 166.058578 13.141329 -5.376000
vt 0.000000 1.000000
vn 0.505455 0.000000 -0.862853
v 166.058578 10.752000 -5.376000
vt 0.000000 0.000000
vn 0.252727 0.000000 -0.967538
v 166.058578 10.752000 9.258664
vt 0.000000 0.000000
vn 0.252727 0.000000 0.967538
v 166.058578 13.141329 9.258664
vt 0.000000 1.000000
vn 0.505455 0.000000 0.862853
v 166.058578 10.752000 17.621351
vt 0.000000 0.000000
vn 0.252728 0.000000 -0.967537
v 166.058578 13.141329 17.621351
vt 0.000000 1.000000
vn 0.505457 0.000000 -0.862852
v 163.669296 10.752000 -11.349340
vt 0.000000 0.000000
vn 0.862859 0.000000 0.505444
v 163.669296 13.141329 -11.349340
vt 0.000000 1.000000
vn 0.967539 0.000000 0.252722
v 163.669296 10.752000 -7.765329
vt 0.000000 0.000000
vn 0.923881 0.000000 -0.382679
v 163.669296 13.141329 -7.765329
vt 0.000000 1.000000
vn 0.923881 0.000000 -0.382679
v 163.669296 10.752000 11.647994
vt 0.000000 0.000000
vn 0.862859 0.000000 0.505444
v 163.669296 13.141329 11.647994
vt 0.000000 1.000000
vn 0.967539 0.000000 0.252722
v 163.669296 10.752000 15.232006
vt 0.000000 0.000000
vn 0.923882 0.000000 -0.382678
v 163.669296 13.141329 15.232006
vt 0.000000 1.000000
vn 0.923882 0.000000 -0.382678
v 149.930588 14.933335 -12.245335
vt 1.000000 1.000000
vn -0.923880 0.000000 0.382683
v 149.930588 12.544005 -6.869335
vt 0.000000 -0.000000
vn -0.967538 0.000000 -0.252724
v 149.930588 12.544005 -12.245335
vt 1.000000 -0.000000
vn -0.923880 0.000000 0.382683
v 149.930588 14.933335 -6.869335
vt 0.000000 1.000000
vn -0.862857 0.000000 -0.505449
v 147.541290 13.141329 -34.346592
vt 1.000000 1.000000
vn -0.923886 0.000000 0.382667
v 147.541290 10.752000 -30.762648
vt 0.000000 0.000000
vn -0.967538 0.000000 -0.252724
v 147.541290 10.752000 -34.346592
vt 1.000000 0.000000
vn -0.923886 0.000000 0.382667
v 147.541290 13.141329 -30.762648
vt 0.000000 1.000000
vn -0.862857 0.000000 -0.505449
v 147.541290 13.141329 15.232006
vt 0.000000 1.000000
vn -0.862860 0.000000 -0.505442
v 147.541290 10.752000 15.232006
vt 0.000000 0.000000
vn -0.967539 0.000000 -0.252721
v 147.541290 13.141329 11.647994
vt 1.000000 1.000000
vn -0.923881 0.000000 0.382679
v 147.541290 10.752000 11.647994
vt 1.000000 0.000000
vn -0.923881 0.000000 0.382679
v 146.047928 12.544005 -16.128000
vt 1.000000 -0.000000
vn -0.505450 0.000000 0.862856
v 146.047928 14.933335 -16.128000
vt 1.000000 1.000000
vn -0.252725 0.000000 0.967538
v 146.047928 14.933335 -2.986670
vt 0.000000 1.000000
vn -0.252725 0.000000 -0.967538
v 146.047928 12.544005 -2.986670
vt 0.000000 -0.000000
vn -0.505450 0.000000 -0.862856
v 145.151993 10.752000 -36.736053
vt 1.000000 0.000000
vn -0.505471 0.000000 0.862844
v 145.151993 13.141329 -36.736053
vt 1.000000 1.000000
vn -0.252736 0.000000 0.967535
v 145.151993 13.141329 -28.373352
vt 0.000000 1.000000
vn -0.252725 0.000000 -0.967538
v 145.151993 10.752000 -28.373352
vt 0.000000 0.000000
vn -0.505450 0.000000 -0.862856
v 145.151993 10.752000 9.258664
vt 1.000000 0.000000
vn -0.505455 0.000000 0.862853
v 145.151993 13.141329 9.258664
vt 1.000000 1.000000
vn -0.252727 0.000000 0.967538
v 145.151993 13.141329 17.621351
vt 0.000000 1.000000
vn -0.252728 0.000000 -0.967537
v 145.151993 10.752000 17.621351
vt 0.000000 0.000000
vn -0.505457 0.000000 -0.862852
v 141.568054 10.752000 -36.736053
vt -0.000004 0.000000
vn 0.252724 0.000000 0.967538
v 141.568054 13.141329 -36.736053
vt -0.000004 1.000000
vn 0.505449 0.000000 0.862857
v 141.568054 10.752000 -28.373352
vt -0.000004 0.000000
vn 0.252714 0.000000 -0.967541
v 141.568054 13.141329 -28.373352
vt -0.000004 1.000000
vn 0.505428 0.000000 -0.862869
v 141.568054 10.752000 9.258664
vt 0.000000 0.000000
vn 0.252716 0.000000 0.967541
v 141.568054 13.141329 9.258664
vt 0.000000 1.000000
vn 0.505432 0.000000 0.862866
v 141.568054 13.141329 17.621351
vt 0.000000 1.000000
vn 0.505434 0.000000 -0.862865
v 141.568054 10.752000 17.621351
vt 0.000000 0.000000
vn 0.252717 0.000000 -0.967540
v 140.671936 12.544005 -16.128000
vt 0.000000 -0.000000
vn 0.252726 0.000000 0.967538
v 140.671936 14.933335 -16.128000
vt 0.000000 1.000000
vn 0.505451 0.000000 0.862855
v 140.671936 14.933335 -2.986670
vt 0.000000 1.000000
vn 0.505451 0.000000 -0.862855
v 140.671936 12.544005 -2.986670
vt 0.000000 -0.000000
vn 0.252726 0.000000 -0.967538
v 139.178589 10.752000 -34.346592
vt 0.000000 0.000000
vn 0.862856 0.000000 0.505450
v 139.178589 13.141329 -34.346592
vt 0.000000 1.000000
vn 0.967538 0.000000 0.252725
v 139.178589 10.752000 -30.762648
vt 0.000000 0.000000
vn 0.923873 0.000000 -0.382700
v 139.178589 13.141329 -30.762648
vt 0.000000 1.000000
vn 0.923873 0.000000 -0.382700
v 139.178589 10.752000 11.647994
vt 0.000000 0.000000
vn 0.862846 0.000000 0.505467
v 139.178589 13.141329 11.647994
vt 0.000000 1.000000
vn 0.967536 0.000000 0.252733
v 139.178589 10.752000 15.232006
vt 0.000000 0.000000
vn 0.923875 0.000000 -0.382695
v 139.178589 13.141329 15.232006
vt 0.000000 1.000000
vn 0.923875 0.000000 -0.382695
v 136.789291 12.544005 -12.245335
vt 0.000000 -0.000000
vn 0.862857 0.000000 0.505448
v 136.789291 14.933335 -12.245335
vt 0.000000 1.000000
vn 0.967538 0.000000 0.252724
v 136.789291 12.544005 -6.869335
vt 0.000000 -0.000000
vn 0.923880 0.000000 -0.382682
v 136.789291 14.933335 -6.869335
vt 0.000000 1.000000
vn 0.923880 0.000000 -0.382682
v 123.050591 13.141329 -30.762648
vt 0.000000 1.000000
vn -0.862856 0.000000 -0.505450
v 123.050591 10.752000 -30.762648
vt 0.000000 0.000000
vn -0.967538 0.000000 -0.252725
v 123.050591 13.141329 -34.346592
vt 1.000000 1.000000
vn -0.923886 0.000000 0.382668
v 123.050591 10.752000 -34.346592
vt 1.000000 0.000000
vn -0.923886 0.000000 0.382668
v 123.050591 13.141329 -7.765329
vt 0.000000 1.000000
vn -0.862858 0.000000 -0.505446
v 123.050591 10.752000 -7.765329
vt 0.000000 0.000000
vn -0.967539 0.000000 -0.252723
v 123.050591 13.141329 -11.349340
vt 1.000000 1.000000
vn -0.923881 0.000000 0.382681
v 123.050591 10.752000 -11.349340
vt 1.000000 0.000000
vn -0.923881 0.000000 0.382681
v 120.661285 10.752000 -36.736053
vt 1.000000 0.000000
vn -0.505470 0.000000 0.862845
v 120.661285 13.141329 -36.736053
vt 1.000000 1.000000
vn -0.252735 0.000000 0.967536
v 120.661285 10.752000 -28.373352
vt 0.000000 0.000000
vn -0.505449 0.000000 -0.862857
v 120.661285 13.141329 -28.373352
vt 0.000000 1.000000
vn -0.252724 0.000000 -0.967538
v 120.661285 10.752000 -13.738670
vt 1.000000 0.000000
vn -0.505453 0.000000 0.862854
v 120.661285 13.141329 -13.738670
vt 1.000000 1.000000
vn -0.252727 0.000000 0.967538
v 120.661285 13.141329 -5.376000
vt 0.000000 1.000000
vn -0.252727 0.000000 -0.967538
v 120.661285 10.752000 -5.376000
vt 0.000000 0.000000
vn -0.505453 0.000000 -0.862854
v 117.077354 10.752000 -36.736053
vt 0.000000 0.000000
vn 0.252735 0.000000 0.967536
v 117.077354 13.141329 -36.736053
vt 0.000000 1.000000
vn 0.505470 0.000000 0.862845
v 117.077354 10.752000 -28.373352
vt 0.000000 0.000000
vn 0.252724 0.000000 -0.967538
v 117.077354 13.141329 -28.373352
vt 0.000000 1.000000
vn 0.505449 0.000000 -0.862857
v 117.077354 10.752000 -13.738670
vt 0.000000 0.000000
vn 0.252727 0.000000 0.967538
v 117.077354 13.141329 -13.738670
vt 0.000000 1.000000
vn 0.505453 0.000000 0.862854
v 117.077354 10.752000 -5.376000
vt 0.000000 0.000000
vn 0.252727 0.000000 -0.967538
v 117.077354 13.141329 -5.376000
vt 0.000000 1.000000
vn 0.505453 0.000000 -0.862854
v 114.688057 10.752000 -34.346592
vt 0.000000 0.000000
vn 0.862868 0.000000 0.505429
v 114.688057 13.141329 -34.346592
vt 0.000000 1.000000
vn 0.967541 0.000000 0.252715
v 114.688057 10.752000 -30.762648
vt 0.000000 0.000000
vn 0.923879 0.000000 -0.382684
v 114.688057 13.141329 -30.762648
vt 0.000000 1.000000
vn 0.923879 0.000000 -0.382684
v 114.688057 10.752000 -11.349340
vt 0.000000 0.000000
vn 0.862858 0.000000 0.505446
v 114.688057 13.141329 -11.349340
vt 0.000000 1.000000
vn 0.967539 0.000000 0.252723
v 114.688057 10.752000 -7.765329
vt 0.000000 0.000000
vn 0.923881 0.000000 -0.382681
v 114.688057 13.141329 -7.765329
vt 0.000000 1.000000
vn 0.923881 0.000000 -0.382681
v 172.031998 10.752000 -11.349340
vt 0.000000 0.000000
vn -0.923894 0.000000 0.382648
v 172.031998 13.141329 -11.349340
vt 0.000000 1.000000
vn -0.923894 0.000000 0.382648
v 172.031998 13.141329 -7.765329
vt 1.000000 1.000000
vn -0.862883 0.000000 -0.505404
v 172.031998 10.752000 -7.765329
vt 1.000000 0.000000
vn -0.967544 0.000000 -0.252702
v 172.031998 13.141329 11.647994
vt 0.000000 1.000000
vn -0.923894 0.000000 0.382648
v 172.031998 10.752000 11.647994
vt 0.000000 0.000000
vn -0.923894 0.000000 0.382648
v 172.031998 13.141329 15.232006
vt 1.000000 1.000000
vn -0.862884 0.000000 -0.505402
v 172.031998 10.752000 15.232006
vt 1.000000 0.000000
vn -0.967544 0.000000 -0.252701
v 169.643036 13.141329 -5.376000
vt 1.000000 1.000000
vn -0.252747 0.000000 -0.967532
v 169.643036 10.752000 -5.376000
vt 1.000000 0.000000
vn -0.505495 0.000000 -0.862830
v 169.643036 13.141329 17.621351
vt 1.000000 1.000000
vn -0.252748 0.000000 -0.967532
v 169.643036 10.752000 17.621351
vt 1.000000 0.000000
vn -0.505497 0.000000 -0.862829
v 166.058578 13.141329 -13.738670
vt 1.000000 1.000000
vn 0.505455 0.000000 0.862853
v 166.058578 10.752000 -13.738670
vt 1.000000 0.000000
vn 0.252727 0.000000 0.967538
v 163.669296 13.141329 -11.349340
vt 1.000000 1.000000
vn 0.967539 0.000000 0.252722
v 163.669296 10.752000 -11.349340
vt 1.000000 0.000000
vn 0.862859 0.000000 0.505444
v 163.669296 10.752000 -7.765329
vt 1.000000 0.000000
vn 0.923881 0.000000 -0.382679
v 163.669296 13.141329 -7.765329
vt 1.000000 1.000000
vn 0.923881 0.000000 -0.382679
v 166.058578 13.141329 9.258664
vt 1.000000 1.000000
vn 0.505455 0.000000 0.862853
v 166.058578 10.752000 9.258664
vt 1.000000 0.000000
vn 0.252727 0.000000 0.967538
v 163.669296 10.752000 11.647994
vt 1.000000 0.000000
vn 0.862859 0.000000 0.505444
v 163.669296 13.141329 11.647994
vt 1.000000 1.000000
vn 0.967539 0.000000 0.252722
v 163.669296 13.141329 15.232006
vt 1.000000 1.000000
vn 0.923882 0.000000 -0.382678
v 163.669296 10.752000 15.232006
vt 1.000000 0.000000
vn 0.923882 0.000000 -0.382678
v 149.930588 12.544005 -12.245335
vt 0.000000 -0.000000
vn -0.923880 0.000000 0.382683
v 149.930588 14.933335 -12.245335
vt 0.000000 1.000000
vn -0.923880 0.000000 0.382683
v 149.930588 14.933335 -6.869335
vt 1.000000 1.000000
vn -0.862857 0.000000 -0.505449
v 149.930588 12.544005 -6.869335
vt 1.000000 -0.000000
vn -0.967538 0.000000 -0.252724
v 147.541290 10.752000 -34.346592
vt 0.000000 0.000000
vn -0.923886 0.000000 0.382667
v 147.541290 13.141329 -34.346592
vt 0.000000 1.000000
vn -0.923886 0.000000 0.382667
v 147.541290 13.141329 -30.762648
vt 1.000000 1.000000
vn -0.862857 0.000000 -0.505449
v 147.541290 10.752000 -30.762648
vt 1.000000 0.000000
vn -0.967538 0.000000 -0.252724
v 147.541290 10.752000 11.647994
vt 0.000000 0.000000
vn -0.923881 0.000000 0.382679
v 147.541290 13.141329 11.647994
vt 0.000000 1.000000
vn -0.923881 0.000000 0.382679
v 147.541290 13.141329 15.232006
vt 1.000000 1.000000
vn -0.862860 0.000000 -0.505442
v 147.541290 10.752000 15.232006
vt 1.000000 0.000000
vn -0.967539 0.000000 -0.252721
v 145.151993 13.141329 -28.373352
vt 0.999996 1.000000
vn -0.252725 0.000000 -0.967538
v 145.151993 10.752000 -28.373352
vt 0.999996 0.000000
vn -0.505450 0.000000 -0.862856
v 145.151993 13.141329 17.621351
vt 1.000000 1.000000
vn -0.252728 0.000000 -0.967537
v 145.151993 10.752000 17.621351
vt 1.000000 0.000000
vn -0.505457 0.000000 -0.862852
v 146.047928 14.933335 -2.986670
vt 1.000000 1.000000
vn -0.252725 0.000000 -0.967538
v 146.047928 12.544005 -2.986670
vt 1.000000 -0.000000
vn -0.505450 0.000000 -0.862856
v 141.568054 10.752000 -36.736053
vt 1.000000 0.000000
vn 0.252724 0.000000 0.967538
v 141.568054 13.141329 -36.736053
vt 1.000000 1.000000
vn 0.505449 0.000000 0.862857
v 139.178589 13.141329 -34.346592
vt 1.000000 1.000000
vn 0.967538 0.000000 0.252725
v 139.178589 10.752000 -34.346592
vt 1.000000 0.000000
vn 0.862856 0.000000 0.505450
v 139.178589 13.141329 -30.762648
vt 1.000000 1.000000
vn 0.923873 0.000000 -0.382700
v 139.178589 10.752000 -30.762648
vt 1.000000 0.000000
vn 0.923873 0.000000 -0.382700
v 141.568054 13.141329 9.258664
vt 1.000000 1.000000
vn 0.505432 0.000000 0.862866
v 141.568054 10.752000 9.258664
vt 1.000000 0.000000
vn 0.252716 0.000000 0.967541
v 139.178589 10.752000 11.647994
vt 1.000000 0.000000
vn 0.862846 0.000000 0.505467
v 139.178589 13.141329 11.647994
vt 1.000000 1.000000
vn 0.967536 0.000000 0.252733
v 139.178589 13.141329 15.232006
vt 1.000000 1.000000
vn 0.923875 0.000000 -0.382695
v 139.178589 10.752000 15.232006
vt 1.000000 0.000000
vn 0.923875 0.000000 -0.382695
v 140.671936 14.933335 -16.128000
vt 1.000000 1.000000
vn 0.505451 0.000000 0.862855
v 140.671936 12.544005 -16.128000
vt 1.000000 -0.000000
vn 0.252726 0.000000 0.967538
v 136.789291 12.544005 -12.245335
vt 1.000000 -0.000000
vn 0.862857 0.000000 0.505448
v 136.789291 14.933335 -12.245335
vt 1.000000 1.000000
vn 0.967538 0.000000 0.252724
v 136.789291 14.933335 -6.869335
vt 1.000000 1.000000
vn 0.923880 0.000000 -0.382682
v 136.789291 12.544005 -6.869335
vt 1.000000 -0.000000
vn 0.923880 0.000000 -0.382682
v 123.050591 13.141329 -34.346592
vt 0.000000 1.000000
vn -0.923886 0.000000 0.382668
v 123.050591 10.752000 -34.346592
vt 0.000000 0.000000
vn -0.923886 0.000000 0.382668
v 123.050591 13.141329 -30.762648
vt 1.000000 1.000000
vn -0.862856 0.000000 -0.505450
v 123.050591 10.752000 -30.762648
vt 1.000000 0.000000
vn -0.967538 0.000000 -0.252725
v 123.050591 10.752000 -11.349340
vt 0.000000 0.000000
vn -0.923881 0.000000 0.382681
v 123.050591 13.141329 -11.349340
vt 0.000000 1.000000
vn -0.923881 0.000000 0.382681
v 123.050591 13.141329 -7.765329
vt 1.000000 1.000000
vn -0.862858 0.000000 -0.505446
v 123.050591 10.752000 -7.765329
vt 1.000000 0.000000
vn -0.967539 0.000000 -0.252723
v 120.661285 13.141329 -28.373352
vt 1.000000 1.000000
vn -0.252724 0.000000 -0.967538
v 120.661285 10.752000 -28.373352
vt 1.000000 0.000000
vn -0.505449 0.000000 -0.862857
v 120.661285 13.141329 -5.376000
vt 1.000000 1.000000
vn -0.252727 0.000000 -0.967538
v 120.661285 10.752000 -5.376000
vt 1.000000 0.000000
vn -0.505453 0.000000 -0.862854
v 117.077354 10.752000 -36.736053
vt 1.000000 0.000000
vn 0.252735 0.000000 0.967536
v 117.077354 13.141329 -36.736053
vt 1.000000 1.000000
vn 0.505470 0.000000 0.862845
v 114.688057 13.141329 -34.346592
vt 1.000000 1.000000
vn 0.967541 0.000000 0.252715
v 114.688057 10.752000 -34.346592
vt 1.000000 0.000000
vn 0.862868 0.000000 0.505429
v 114.688057 10.752000 -30.762648
vt 1.000000 0.000000
vn 0.923879 0.000000 -0.382684
v 114.688057 13.141329 -30.762648
vt 1.000000 1.000000
vn 0.923879 0.000000 -0.382684
v 117.077354 10.752000 -13.738670
vt 1.000000 0.000000
vn 0.252727 0.000000 0.967538
v 117.077354 13.141329 -13.738670
vt 1.000000 1.000000
vn 0.505453 0.000000 0.862854
v 114.688057 13.141329 -11.349340
vt 1.000000 1.000000
vn 0.967539 0.000000 0.252723
v 114.688057 10.752000 -11.349340
vt 1.000000 0.000000
vn 0.862858 0.000000 0.505446
v 114.688057 10.752000 -7.765329
vt 1.000000 0.000000
vn 0.923881 0.000000 -0.382681
v 114.688057 13.141329 -7.765329
vt 1.000000 1.000000
vn 0.923881 0.000000 -0.382681
v 169.643036 10.752000 -13.738670
vt 1.000000 0.000000
vn -0.505495 0.000000 0.862830
v 169.643036 13.141329 -13.738670
vt 1.000000 1.000000
vn -0.252747 0.000000 0.967532
v 169.643036 13.141329 9.258664
vt 1.000000 1.000000
vn -0.252747 0.000000 0.967532
v 169.643036 10.752000 9.258664
vt 1.000000 0.000000
vn -0.505495 0.000000 0.862830
v 166.058578 13.141329 -5.376000
vt 0.000000 1.000000
vn 0.505455 0.000000 -0.862853
v 166.058578 10.752000 -5.376000
vt 0.000000 0.000000
vn 0.252727 0.000000 -0.967538
v 166.058578 13.141329 17.621351
vt 0.000000 1.000000
vn 0.505457 0.000000 -0.862852
v 166.058578 10.752000 17.621351
vt 0.000000 0.000000
vn 0.252728 0.000000 -0.967537
v 145.151993 10.752000 -36.736053
vt 0.999996 0.000000
vn -0.505471 0.000000 0.862844
v 145.151993 13.141329 -36.736053
vt 0.999996 1.000000
vn -0.252736 0.000000 0.967535
v 145.151993 10.752000 9.258664
vt 1.000000 0.000000
vn -0.505455 0.000000 0.862853
v 145.151993 13.141329 9.258664
vt 1.000000 1.000000
vn -0.252727 0.000000 0.967538
v 146.047928 14.933335 -16.128000
vt 1.000000 1.000000
vn -0.252725 0.000000 0.967538
v 146.047928 12.544005 -16.128000
vt 1.000000 -0.000000
vn -0.505450 0.000000 0.862856
v 141.568054 13.141329 -28.373352
vt 0.000000 1.000000
vn 0.505428 0.000000 -0.862869
v 141.568054 10.752000 -28.373352
vt 0.000000 0.000000
vn 0.252714 0.000000 -0.967541
v 141.568054 13.141329 17.621351
vt 0.000000 1.000000
vn 0.505434 0.000000 -0.862865
v 141.568054 10.752000 17.621351
vt 0.000000 0.000000
vn 0.252717 0.000000 -0.967540
v 140.671936 14.933335 -2.986670
vt 0.000000 1.000000
vn 0.505451 0.000000 -0.862855
v 140.671936 12.544005 -2.986670
vt 0.000000 -0.000000
vn 0.252726 0.000000 -0.967538
v 120.661285 13.141329 -36.736053
vt 1.000000 1.000000
vn -0.252735 0.000000 0.967536
v 120.661285 10.752000 -36.736053
vt 1.000000 0.000000
vn -0.505470 0.000000 0.862845
v 120.661285 10.752000 -13.738670
vt 1.000000 0.000000
vn -0.505453 0.000000 0.862854
v 120.661285 13.141329 -13.738670
vt 1.000000 1.000000
vn -0.252727 0.000000 0.967538
v 117.077354 13.141329 -28.373352
vt 0.000000 1.000000
vn 0.505449 0.000000 -0.862857
v 117.077354 10.752000 -28.373352
vt 0.000000 0.000000
vn 0.252724 0.000000 -0.967538
v 117.077354 13.141329 -5.376000
vt 0.000000 1.000000
vn 0.505453 0.000000 -0.862854
v 117.077354 10.752000 -5.376000
vt 0.000000 0.000000
vn 0.252727 0.000000 -0.967538
# Faces (1 to 224)
g VIFS014_0
f -222/-222/-222 -223/-223/-223 -224/-224/-224
f -224/-224/-224 -223/-223/-223 -221/-221/-221
f -218/-218/-218 -219/-219/-219 -220/-220/-220
f -220/-220/-220 -219/-219/-219 -217/-217/-217
f -111/-111/-111 -216/-216/-216 -112/-112/-112
f -215/-215/-215 -216/-216/-216 -111/-111/-111
f -110/-110/-110 -213/-213/-213 -214/-214/-214
f -109/-109/-109 -213/-213/-213 -110/-110/-110
f -211/-211/-211 -212/-212/-212 -108/-108/-108
f -108/-108/-108 -212/-212/-212 -107/-107/-107
f -105/-105/-105 -210/-210/-210 -106/-106/-106
f -106/-106/-106 -210/-210/-210 -209/-209/-209
f -27/-27/-27 -208/-208/-208 -28/-28/-28
f -207/-207/-207 -208/-208/-208 -27/-27/-27
f -104/-104/-104 -205/-205/-205 -206/-206/-206
f -103/-103/-103 -205/-205/-205 -104/-104/-104
f -203/-203/-203 -204/-204/-204 -26/-26/-26
f -26/-26/-26 -204/-204/-204 -25/-25/-25
f -101/-101/-101 -202/-202/-202 -102/-102/-102
f -102/-102/-102 -202/-202/-202 -201/-201/-201
f -199/-199/-199 -200/-200/-200 -100/-100/-100
f -100/-100/-100 -200/-200/-200 -99/-99/-99
f -197/-197/-197 -198/-198/-198 -98/-98/-98
f -98/-98/-98 -198/-198/-198 -97/-97/-97
f -23/-23/-23 -96/-96/-96 -24/-24/-24
f -24/-24/-24 -96/-96/-96 -95/-95/-95
f -195/-195/-195 -196/-196/-196 -94/-94/-94
f -94/-94/-94 -196/-196/-196 -93/-93/-93
f -91/-91/-91 -194/-194/-194 -92/-92/-92
f -193/-193/-193 -194/-194/-194 -91/-91/-91
f -22/-22/-22 -89/-89/-89 -90/-90/-90
f -21/-21/-21 -89/-89/-89 -22/-22/-22
f -190/-190/-190 -191/-191/-191 -192/-192/-192
f -192/-192/-192 -191/-191/-191 -189/-189/-189
f -186/-186/-186 -187/-187/-187 -188/-188/-188
f -188/-188/-188 -187/-187/-187 -185/-185/-185
f -182/-182/-182 -183/-183/-183 -184/-184/-184
f -181/-181/-181 -183/-183/-183 -182/-182/-182
f -87/-87/-87 -180/-180/-180 -88/-88/-88
f -179/-179/-179 -180/-180/-180 -87/-87/-87
f -86/-86/-86 -177/-177/-177 -178/-178/-178
f -85/-85/-85 -177/-177/-177 -86/-86/-86
f -83/-83/-83 -176/-176/-176 -84/-84/-84
f -175/-175/-175 -176/-176/-176 -83/-83/-83
f -82/-82/-82 -173/-173/-173 -174/-174/-174
f -81/-81/-81 -173/-173/-173 -82/-82/-82
f -79/-79/-79 -172/-172/-172 -80/-80/-80
f -171/-171/-171 -172/-172/-172 -79/-79/-79
f -78/-78/-78 -169/-169/-169 -170/-170/-170
f -77/-77/-77 -169/-169/-169 -78/-78/-78
f -19/-19/-19 -168/-168/-168 -20/-20/-20
f -167/-167/-167 -168/-168/-168 -19/-19/-19
f -75/-75/-75 -166/-166/-166 -76/-76/-76
f -76/-76/-76 -166/-166/-166 -165/-165/-165
f -17/-17/-17 -164/-164/-164 -18/-18/-18
f -163/-163/-163 -164/-164/-164 -17/-17/-17
f -74/-74/-74 -161/-161/-161 -162/-162/-162
f -73/-73/-73 -161/-161/-161 -74/-74/-74
f -159/-159/-159 -160/-160/-160 -16/-16/-16
f -16/-16/-16 -160/-160/-160 -15/-15/-15
f -72/-72/-72 -157/-157/-157 -158/-158/-158
f -71/-71/-71 -157/-157/-157 -72/-72/-72
f -69/-69/-69 -156/-156/-156 -70/-70/-70
f -155/-155/-155 -156/-156/-156 -69/-69/-69
f -153/-153/-153 -154/-154/-154 -68/-68/-68
f -68/-68/-68 -154/-154/-154 -67/-67/-67
f -14/-14/-14 -65/-65/-65 -66/-66/-66
f -13/-13/-13 -65/-65/-65 -14/-14/-14
f -151/-151/-151 -152/-152/-152 -64/-64/-64
f -64/-64/-64 -152/-152/-152 -63/-63/-63
f -61/-61/-61 -150/-150/-150 -62/-62/-62
f -149/-149/-149 -150/-150/-150 -61/-61/-61
f -12/-12/-12 -59/-59/-59 -60/-60/-60
f -11/-11/-11 -59/-59/-59 -12/-12/-12
f -147/-147/-147 -148/-148/-148 -58/-58/-58
f -58/-58/-58 -148/-148/-148 -57/-57/-57
f -55/-55/-55 -146/-146/-146 -56/-56/-56
f -145/-145/-145 -146/-146/-146 -55/-55/-55
f -10/-10/-10 -53/-53/-53 -54/-54/-54
f -9/-9/-9 -53/-53/-53 -10/-10/-10
f -142/-142/-142 -143/-143/-143 -144/-144/-144
f -141/-141/-141 -143/-143/-143 -142/-142/-142
f -138/-138/-138 -139/-139/-139 -140/-140/-140
f -137/-137/-137 -139/-139/-139 -138/-138/-138
f -135/-135/-135 -136/-136/-136 -52/-52/-52
f -52/-52/-52 -136/-136/-136 -51/-51/-51
f -49/-49/-49 -134/-134/-134 -50/-50/-50
f -50/-50/-50 -134/-134/-134 -133/-133/-133
f -47/-47/-47 -132/-132/-132 -48/-48/-48
f -131/-131/-131 -132/-132/-132 -47/-47/-47
f -46/-46/-46 -129/-129/-129 -130/-130/-130
f -45/-45/-45 -129/-129/-129 -46/-46/-46
f -127/-127/-127 -128/-128/-128 -8/-8/-8
f -8/-8/-8 -128/-128/-128 -7/-7/-7
f -43/-43/-43 -126/-126/-126 -44/-44/-44
f -44/-44/-44 -126/-126/-126 -125/-125/-125
f -5/-5/-5 -124/-124/-124 -6/-6/-6
f -123/-123/-123 -124/-124/-124 -5/-5/-5
f -41/-41/-41 -122/-122/-122 -42/-42/-42
f -42/-42/-42 -122/-122/-122 -121/-121/-121
f -39/-39/-39 -120/-120/-120 -40/-40/-40
f -119/-119/-119 -120/-120/-120 -39/-39/-39
f -117/-117/-117 -118/-118/-118 -38/-38/-38
f -38/-38/-38 -118/-118/-118 -37/-37/-37
f -3/-3/-3 -36/-36/-36 -4/-4/-4
f -4/-4/-4 -36/-36/-36 -35/-35/-35
f -33/-33/-33 -116/-116/-116 -34/-34/-34
f -115/-115/-115 -116/-116/-116 -33/-33/-33
f -113/-113/-113 -114/-114/-114 -32/-32/-32
f -32/-32/-32 -114/-114/-114 -31/-31/-31
f -1/-1/-1 -30/-30/-30 -2/-2/-2
f -2/-2/-2 -30/-30/-30 -29/-29/-29

