# Mesh "VIFS015" exported with Unity Assets Bundle Extractor; 4 vertices, 6 indices, 448 bits per vertex
g VIFS015
# SubMesh 0
# Vertices
v 145.749405 -20.906591 -7.168006
vt 1.000000 0.000000
vn -0.000000 1.000000 0.000000
v 140.970642 -20.906591 -7.168006
vt 0.000000 0.000000
vn -0.000000 1.000000 0.000000
v 145.749405 -20.906591 -11.946665
vt 1.000000 1.000000
vn -0.000000 1.000000 0.000000
v 140.970642 -20.906591 -11.946665
vt 0.000000 1.000000
vn -0.000000 1.000000 0.000000
# Faces (1 to 4)
g VIFS015_0
f -2/-2/-2 -3/-3/-3 -4/-4/-4
f -1/-1/-1 -3/-3/-3 -2/-2/-2

