# Mesh "VIFS011" exported with Unity Assets Bundle Extractor; 20 vertices, 54 indices, 448 bits per vertex
g VIFS011
# SubMesh 0
# Vertices
v 152.917297 -5.973341 -37.888702
vt 0.000000 1.928710
vn -0.000000 -1.000000 0.000000
v 152.917297 -5.973341 -23.296055
vt 0.000000 -1.125000
vn -0.000000 -1.000000 0.000000
v 173.525513 -5.973341 -33.450649
vt 4.312500 1.000000
vn -0.000000 -1.000000 0.000000
v 173.525513 -5.973341 -23.296055
vt 4.312500 -1.125000
vn -0.000000 -1.000000 0.000000
v 173.525513 -5.973341 -20.906591
vt 4.312500 -1.625000
vn -0.000000 -1.000000 0.000000
v 150.826706 -5.973341 -23.296055
vt -0.437500 -1.125000
vn -0.000000 -1.000000 0.000000
v 153.215988 -5.973341 -20.906591
vt 0.062500 -1.625000
vn -0.000000 -1.000000 0.000000
v 148.138702 -5.973341 -40.618702
vt -1.000000 2.500000
vn -0.000000 -1.000000 0.000000
v 137.685394 -5.973341 -25.087944
vt -3.187500 -0.750000
vn -0.000000 -1.000000 0.000000
v 137.685394 -5.973341 -40.618702
vt -3.187500 2.500000
vn -0.000000 -1.000000 0.000000
v 138.581345 -5.973341 21.504000
vt 2.000000 -1.500000
vn -0.000000 -1.000000 0.000000
v 135.893356 -5.973341 4.181335
vt 1.437500 2.125000
vn -0.000000 -1.000000 0.000000
v 133.802597 -5.973341 18.774000
vt 1.000000 -0.928711
vn -0.000000 -1.000000 0.000000
v 149.034637 -5.973341 5.973341
vt 4.187500 1.750000
vn -0.000000 -1.000000 0.000000
v 133.802597 -5.973341 4.181335
vt 1.000000 2.125000
vn -0.000000 -1.000000 0.000000
v 149.034637 -5.973341 21.504000
vt 4.187500 -1.500000
vn -0.000000 -1.000000 0.000000
v 113.194702 -5.973341 14.335994
vt -3.312500 0.000000
vn -0.000000 -1.000000 0.000000
v 133.504044 -5.973341 1.792005
vt 0.937500 2.625000
vn -0.000000 -1.000000 0.000000
v 113.194702 -5.973341 4.181335
vt -3.312500 2.125000
vn -0.000000 -1.000000 0.000000
v 113.194702 -5.973341 1.792005
vt -3.312500 2.625000
vn -0.000000 -1.000000 0.000000
# Faces (1 to 20)
g VIFS011_0
f -18/-18/-18 -19/-19/-19 -20/-20/-20
f -18/-18/-18 -17/-17/-17 -19/-19/-19
f -17/-17/-17 -16/-16/-16 -19/-19/-19
f -19/-19/-19 -15/-15/-15 -20/-20/-20
f -16/-16/-16 -14/-14/-14 -19/-19/-19
f -14/-14/-14 -15/-15/-15 -19/-19/-19
f -15/-15/-15 -13/-13/-13 -20/-20/-20
f -12/-12/-12 -13/-13/-13 -15/-15/-15
f -12/-12/-12 -11/-11/-11 -13/-13/-13
f -8/-8/-8 -9/-9/-9 -10/-10/-10
f -10/-10/-10 -9/-9/-9 -7/-7/-7
f -8/-8/-8 -6/-6/-6 -9/-9/-9
f -5/-5/-5 -10/-10/-10 -7/-7/-7
f -4/-4/-4 -6/-6/-6 -8/-8/-8
f -6/-6/-6 -3/-3/-3 -9/-9/-9
f -4/-4/-4 -2/-2/-2 -6/-6/-6
f -2/-2/-2 -3/-3/-3 -6/-6/-6
f -1/-1/-1 -3/-3/-3 -2/-2/-2

