# Mesh "VIFS012" exported with Unity Assets Bundle Extractor; 83 vertices, 147 indices, 448 bits per vertex
g VIFS012
# SubMesh 0
# Vertices
v 173.525513 -5.973341 -33.450649
vt 2.000000 1.000000
vn -1.000000 0.000000 0.000000
v 173.525513 -7.168006 -31.061350
vt 1.500000 0.000000
vn -1.000000 0.000000 0.000000
v 173.525513 -7.168006 -33.450649
vt 2.000000 0.000000
vn -1.000000 0.000000 0.000000
v 173.525513 -7.168006 -21.504000
vt -0.500000 0.000000
vn -1.000000 0.000000 0.000000
v 173.525513 -5.973341 -23.296055
vt -0.125000 1.000000
vn -1.000000 0.000000 0.000000
v 173.525513 -7.168006 -20.906591
vt -0.625000 0.000000
vn -1.000000 0.000000 0.000000
v 173.525513 -5.973341 -20.906591
vt -0.625000 1.000000
vn -1.000000 0.000000 0.000000
v 172.630066 -7.168006 -20.906591
vt 2.125000 0.000000
vn -0.000000 0.000000 -1.000000
v 153.215988 -5.973341 -20.906591
vt -1.937500 1.000000
vn 0.305102 0.000000 -0.952320
v 163.072052 -7.168006 -20.906591
vt 0.125000 0.000000
vn -0.000000 0.000000 -1.000000
v 153.215988 -7.168006 -20.906591
vt -1.937500 0.000000
vn 0.382684 0.000000 -0.923880
v 160.682587 -7.168006 -33.450649
vt -0.375000 0.000000
vn -0.170448 0.000000 0.985367
v 160.682587 -5.973341 -33.450649
vt -0.375000 1.000000
vn -0.340895 0.000000 0.940101
v 149.034637 -7.168006 -25.087944
vt 1.250000 0.000000
vn 0.505450 0.000000 -0.862856
v 149.034637 -5.973341 -25.087944
vt 1.250000 1.000000
vn 0.252725 0.000000 -0.967538
v 149.034637 -5.973341 5.973341
vt 1.750000 1.000000
vn -1.000000 0.000000 0.000000
v 149.034637 -7.168006 21.504000
vt -1.500000 0.000000
vn -1.000000 0.000000 0.000000
v 149.034637 -7.168006 5.973341
vt 1.750000 0.000000
vn -1.000000 0.000000 0.000000
v 149.034637 -5.973341 21.504000
vt -1.500000 1.000000
vn -1.000000 0.000000 0.000000
v 148.138702 -5.973341 -40.618702
vt -1.000000 1.000000
vn -0.000000 1.000000 0.000000
v 152.917297 -5.973341 -37.888702
vt -0.000059 1.000000
vn -0.000000 1.000000 0.000000
v 148.138702 -7.168006 -40.618702
vt -1.000000 0.000000
vn -0.340895 0.000000 0.940101
v 148.138702 -7.168006 -25.087944
vt 1.000000 0.000000
vn -0.000000 0.000000 -1.000000
v 137.685394 -5.973341 -25.087944
vt -1.187500 1.000000
vn -0.000000 0.000000 -1.000000
v 138.581345 -7.168006 -25.087944
vt -1.000000 0.000000
vn -0.000000 0.000000 -1.000000
v 137.685394 -7.168006 -25.087944
vt -1.187500 0.000000
vn -0.000000 0.000000 -1.000000
v 148.138702 -7.168006 5.973341
vt 1.000000 0.000000
vn -0.000000 0.000000 1.000000
v 138.581345 -7.168006 5.973341
vt -1.000000 0.000000
vn -0.000000 0.000000 1.000000
v 137.685394 -5.973341 5.973341
vt -1.187500 1.000000
vn -0.252721 0.000000 0.967539
v 137.685394 -7.168006 5.973341
vt -1.187500 0.000000
vn -0.562095 0.000000 0.827073
v 138.581345 -5.973341 21.504000
vt -1.000000 1.000000
vn 0.256613 0.000000 -0.966514
v 138.581345 -7.168006 21.504000
vt -1.000000 0.000000
vn 0.256640 0.000133 -0.966507
v 137.685394 -7.168006 -40.618702
vt -0.187500 0.000000
vn -0.000000 0.000000 1.000000
v 137.685394 -5.973341 -40.618702
vt -0.187500 1.000000
vn -0.000000 0.000000 1.000000
v 135.893356 -5.973341 4.181335
vt 0.125000 1.000000
vn -0.707105 -0.000019 0.707109
v 133.504044 -5.973341 1.792005
vt 0.625000 1.000000
vn -0.305102 0.000000 0.952320
v 133.504044 -7.168006 1.792005
vt 0.625000 0.000000
vn -0.382683 0.000000 0.923880
v 133.802597 -5.973341 18.774000
vt 1.000060 1.000000
vn 0.496125 0.000172 -0.868251
v 126.037292 -7.168006 14.335994
vt -0.625000 0.000000
vn 0.340912 0.000177 -0.940095
v 126.037292 -5.973341 14.335994
vt -0.625000 1.000000
vn 0.170467 0.000000 -0.985363
v 123.647995 -7.168006 1.792005
vt 0.875000 0.000000
vn -0.000000 0.000000 1.000000
v 114.090645 -7.168006 1.792005
vt -1.125000 0.000000
vn -0.000000 0.000000 1.000000
v 113.194702 -5.973341 1.792005
vt -1.312500 1.000000
vn -0.000000 0.000000 1.000000
v 113.194702 -7.168006 1.792005
vt -1.312500 0.000000
vn -0.000000 0.000000 1.000000
v 113.194702 -7.168006 2.389329
vt 1.500000 0.000000
vn 1.000000 0.000000 0.000000
v 113.194702 -5.973341 4.181335
vt 1.125000 1.000000
vn 1.000000 0.000000 0.000000
v 113.194702 -7.168006 11.946665
vt -0.500000 0.000000
vn 1.000000 0.000000 0.000000
v 113.194702 -5.973341 14.335994
vt -1.000000 1.000000
vn 1.000000 0.000000 0.000000
v 113.194702 -7.168006 14.335994
vt -1.000000 0.000000
vn 1.000000 0.000000 0.000000
v 173.525513 -5.973341 -20.906591
vt 2.312500 1.000000
vn -0.000000 0.000000 -1.000000
v 173.525513 -7.168006 -20.906591
vt 2.312500 0.000000
vn -0.000000 0.000000 -1.000000
v 173.525513 -7.168006 -33.450649
vt 2.312500 0.000000
vn -0.000000 0.000000 1.000000
v 173.525513 -5.973341 -33.450649
vt 2.312500 1.000000
vn -0.000000 0.000000 1.000000
v 153.215988 -5.973341 -20.906591
vt 0.375000 1.000000
vn 0.305102 0.000000 -0.952320
v 153.215988 -7.168006 -20.906591
vt 0.375000 0.000000
vn 0.382684 0.000000 -0.923880
v 160.682587 -5.973341 -33.450649
vt 1.625000 1.000000
vn -0.000000 1.000000 0.000000
v 160.682587 -7.168006 -33.450649
vt 1.625000 0.000000
vn -0.170448 0.000000 0.985367
v 149.034637 -5.973341 -25.087944
vt 1.187500 1.000000
vn 0.252725 0.000000 -0.967538
v 149.034637 -7.168006 -25.087944
vt 1.187500 0.000000
vn 0.505450 0.000000 -0.862856
v 149.034637 -5.973341 5.973341
vt 1.187500 1.000000
vn -0.000000 0.000000 1.000000
v 149.034637 -7.168006 5.973341
vt 1.187500 0.000000
vn -0.000000 0.000000 1.000000
v 149.034637 -5.973341 21.504000
vt 1.187500 1.000000
vn -0.000000 0.000000 -1.000000
v 149.034637 -7.168006 21.504000
vt 1.187500 0.000000
vn -0.000000 0.000000 -1.000000
v 148.138702 -7.168006 -40.618702
vt 2.000000 0.000000
vn -0.340895 0.000000 0.940101
v 148.138702 -5.973341 -40.618702
vt 2.000000 1.000000
vn -0.170448 0.000000 0.985367
v 137.685394 -5.973341 -40.618702
vt 2.500000 1.000000
vn 1.000000 0.000000 0.000000
v 137.685394 -7.168006 -25.087944
vt -0.750000 0.000000
vn 1.000000 0.000000 0.000000
v 137.685394 -5.973341 -25.087944
vt -0.750000 1.000000
vn 1.000000 0.000000 0.000000
v 137.685394 -7.168006 -40.618702
vt 2.500000 0.000000
vn 1.000000 0.000000 0.000000
v 137.685394 -7.168006 5.973341
vt -0.250000 0.000000
vn -0.562095 0.000000 0.827073
v 137.685394 -5.973341 5.973341
vt -0.250000 1.000000
vn -0.252721 0.000000 0.967539
v 138.581345 -7.168006 21.504000
vt 2.000000 0.000000
vn 0.256640 0.000133 -0.966507
v 138.581345 -5.973341 21.504000
vt 2.000000 1.000000
vn 0.256613 0.000000 -0.966514
v 133.504044 -5.973341 1.792005
vt 2.937500 1.000000
vn -0.305102 0.000000 0.952320
v 133.504044 -7.168006 1.792005
vt 2.937500 0.000000
vn -0.382683 0.000000 0.923880
v 113.194702 -5.973341 1.792005
vt 1.625000 1.000000
vn 1.000000 0.000000 0.000000
v 113.194702 -7.168006 1.792005
vt 1.625000 0.000000
vn 1.000000 0.000000 0.000000
v 113.194702 -5.973341 14.335994
vt -1.312500 1.000000
vn -0.000000 0.000000 -1.000000
v 113.194702 -7.168006 14.335994
vt -1.312500 0.000000
vn -0.000000 0.000000 -1.000000
v 126.037292 -5.973341 14.335994
vt 1.375000 1.000000
vn 0.170467 0.000000 -0.985363
v 126.037292 -7.168006 14.335994
vt 1.375000 0.000000
vn 0.340912 0.000177 -0.940095
v 160.682587 -5.973341 -33.450649
vt 1.625000 1.000000
vn -0.340895 0.000000 0.940101
v 148.138702 -5.973341 -40.618702
vt -1.000000 1.000000
vn -0.170448 0.000000 0.985367
# Faces (1 to 83)
g VIFS012_0
f -81/-81/-81 -82/-82/-82 -83/-83/-83
f -82/-82/-82 -80/-80/-80 -83/-83/-83
f -83/-83/-83 -80/-80/-80 -79/-79/-79
f -80/-80/-80 -78/-78/-78 -79/-79/-79
f -79/-79/-79 -78/-78/-78 -77/-77/-77
f -33/-33/-33 -76/-76/-76 -34/-34/-34
f -34/-34/-34 -76/-76/-76 -75/-75/-75
f -76/-76/-76 -74/-74/-74 -75/-75/-75
f -75/-75/-75 -74/-74/-74 -73/-73/-73
f -31/-31/-31 -72/-72/-72 -32/-32/-32
f -71/-71/-71 -72/-72/-72 -31/-31/-31
f -29/-29/-29 -70/-70/-70 -30/-30/-30
f -30/-30/-30 -70/-70/-70 -69/-69/-69
f -66/-66/-66 -67/-67/-67 -68/-68/-68
f -68/-68/-68 -67/-67/-67 -65/-65/-65
f -63/-63/-63 -64/-64/-64 -28/-28/-28
f -1/-1/-1 -62/-62/-62 -2/-2/-2
f -2/-2/-2 -62/-62/-62 -27/-27/-27
f -25/-25/-25 -61/-61/-61 -26/-26/-26
f -26/-26/-26 -61/-61/-61 -60/-60/-60
f -61/-61/-61 -59/-59/-59 -60/-60/-60
f -60/-60/-60 -59/-59/-59 -58/-58/-58
f -23/-23/-23 -24/-24/-24 -57/-57/-57
f -57/-57/-57 -24/-24/-24 -56/-56/-56
f -24/-24/-24 -55/-55/-55 -56/-56/-56
f -56/-56/-56 -55/-55/-55 -54/-54/-54
f -22/-22/-22 -52/-52/-52 -53/-53/-53
f -21/-21/-21 -52/-52/-52 -22/-22/-22
f -19/-19/-19 -51/-51/-51 -20/-20/-20
f -50/-50/-50 -51/-51/-51 -19/-19/-19
f -16/-16/-16 -17/-17/-17 -18/-18/-18
f -18/-18/-18 -17/-17/-17 -15/-15/-15
f -13/-13/-13 -49/-49/-49 -14/-14/-14
f -49/-49/-49 -48/-48/-48 -14/-14/-14
f -14/-14/-14 -48/-48/-48 -47/-47/-47
f -11/-11/-11 -12/-12/-12 -46/-46/-46
f -12/-12/-12 -45/-45/-45 -46/-46/-46
f -46/-46/-46 -45/-45/-45 -44/-44/-44
f -9/-9/-9 -10/-10/-10 -43/-43/-43
f -43/-43/-43 -10/-10/-10 -42/-42/-42
f -10/-10/-10 -41/-41/-41 -42/-42/-42
f -42/-42/-42 -41/-41/-41 -40/-40/-40
f -7/-7/-7 -8/-8/-8 -39/-39/-39
f -8/-8/-8 -38/-38/-38 -39/-39/-39
f -39/-39/-39 -38/-38/-38 -37/-37/-37
f -38/-38/-38 -36/-36/-36 -37/-37/-37
f -37/-37/-37 -36/-36/-36 -35/-35/-35
f -4/-4/-4 -5/-5/-5 -6/-6/-6
f -3/-3/-3 -5/-5/-5 -4/-4/-4

