# Mesh "VIFS016" exported with Unity Assets Bundle Extractor; 32 vertices, 60 indices, 448 bits per vertex
g VIFS016
# SubMesh 0
# Vertices
v 147.839996 -20.309351 -11.424000
vt 0.390625 1.000000
vn -0.923880 0.000000 0.382681
v 147.839996 -20.906591 -7.690670
vt -0.390625 0.000000
vn -0.967540 0.000000 -0.252719
v 147.839996 -20.906591 -11.424000
vt 0.390625 0.000000
vn -0.923884 0.000000 0.382673
v 147.839996 -20.309351 -7.690670
vt -0.390625 1.000000
vn -0.827051 -0.000222 -0.562127
v 147.317352 -20.906591 -11.946665
vt 0.500000 0.000000
vn -0.707103 0.000000 0.707110
v 145.226578 -20.309351 -14.037341
vt 0.937500 1.000000
vn -0.382675 0.000000 0.923883
v 145.226578 -20.906591 -14.037341
vt 0.937500 0.000000
vn -0.382673 0.000000 0.923884
v 145.749405 -20.906591 -5.599994
vt 0.171875 0.000000
vn -0.707061 -0.000419 -0.707152
v 145.226578 -20.906591 -5.077329
vt 0.062500 0.000000
vn -0.505401 -0.000300 -0.862885
v 145.226578 -20.309351 -5.077329
vt 0.062500 1.000000
vn -0.252721 0.000000 -0.967539
v 141.493286 -20.906591 -14.037341
vt -0.390625 0.000000
vn 0.252731 0.000000 0.967537
v 141.493286 -20.309351 -14.037341
vt -0.390625 1.000000
vn 0.505462 0.000000 0.862849
v 141.493286 -20.906591 -5.077329
vt -0.390625 0.000000
vn 0.252731 0.000000 -0.967537
v 141.493286 -20.309351 -5.077329
vt -0.390625 1.000000
vn 0.562110 0.000000 -0.827062
v 139.402695 -20.906591 -11.946665
vt 0.500000 0.000000
vn 0.707122 0.000000 0.707092
v 138.880051 -20.309351 -11.424000
vt 0.390625 1.000000
vn 0.923884 0.000000 0.382674
v 138.880051 -20.906591 -11.424000
vt 0.390625 0.000000
vn 0.923884 0.000000 0.382673
v 139.402695 -20.906591 -7.168006
vt 0.500000 0.000000
vn 0.707121 0.000000 -0.707092
v 138.880051 -20.906591 -7.690670
vt 0.609375 0.000000
vn 0.923883 0.000000 -0.382674
v 138.880051 -20.309351 -7.690670
vt 0.609375 1.000000
vn 0.923883 0.000000 -0.382674
v 147.839996 -20.309351 -7.690670
vt 0.609375 1.000000
vn -0.827051 -0.000222 -0.562127
v 147.839996 -20.906591 -7.690670
vt 0.609375 0.000000
vn -0.967540 0.000000 -0.252719
v 145.226578 -20.906591 -14.037341
vt 0.390625 0.000000
vn -0.382673 0.000000 0.923884
v 145.226578 -20.309351 -14.037341
vt 0.390625 1.000000
vn -0.382675 0.000000 0.923883
v 145.226578 -20.309351 -5.077329
vt 0.390625 1.000000
vn -0.252721 0.000000 -0.967539
v 145.226578 -20.906591 -5.077329
vt 0.390625 0.000000
vn -0.505401 -0.000300 -0.862885
v 141.493286 -20.309351 -14.037341
vt 0.937500 1.000000
vn 0.505462 0.000000 0.862849
v 141.493286 -20.906591 -14.037341
vt 0.937500 0.000000
vn 0.252731 0.000000 0.967537
v 141.493286 -20.309351 -5.077329
vt 0.062500 1.000000
vn 0.562110 0.000000 -0.827062
v 141.493286 -20.906591 -5.077329
vt 0.062500 0.000000
vn 0.252731 0.000000 -0.967537
v 138.880051 -20.906591 -7.690670
vt -0.390625 0.000000
vn 0.923883 0.000000 -0.382674
v 138.880051 -20.309351 -7.690670
vt -0.390625 1.000000
vn 0.923883 0.000000 -0.382674
# Faces (1 to 32)
g VIFS016_0
f -30/-30/-30 -31/-31/-31 -32/-32/-32
f -32/-32/-32 -31/-31/-31 -29/-29/-29
f -30/-30/-30 -32/-32/-32 -28/-28/-28
f -32/-32/-32 -27/-27/-27 -28/-28/-28
f -28/-28/-28 -27/-27/-27 -26/-26/-26
f -11/-11/-11 -25/-25/-25 -12/-12/-12
f -25/-25/-25 -24/-24/-24 -12/-12/-12
f -12/-12/-12 -24/-24/-24 -23/-23/-23
f -9/-9/-9 -22/-22/-22 -10/-10/-10
f -21/-21/-21 -22/-22/-22 -9/-9/-9
f -7/-7/-7 -20/-20/-20 -8/-8/-8
f -8/-8/-8 -20/-20/-20 -19/-19/-19
f -5/-5/-5 -6/-6/-6 -18/-18/-18
f -6/-6/-6 -17/-17/-17 -18/-18/-18
f -18/-18/-18 -17/-17/-17 -16/-16/-16
f -17/-17/-17 -2/-2/-2 -16/-16/-16
f -1/-1/-1 -2/-2/-2 -17/-17/-17
f -3/-3/-3 -15/-15/-15 -4/-4/-4
f -15/-15/-15 -14/-14/-14 -4/-4/-4
f -4/-4/-4 -14/-14/-14 -13/-13/-13

